<?xml version="1.0" standalone="no"?>
<!--
Font Awesome Pro 5.10.0 by @fontawesome - https://fontawesome.com
License - https://fontawesome.com/license (Commercial License)
-->
<!DOCTYPE svg PUBLIC "-//W3C//DTD SVG 1.1//EN" "http://www.w3.org/Graphics/SVG/1.1/DTD/svg11.dtd" >
<svg xmlns="http://www.w3.org/2000/svg" xmlns:xlink="http://www.w3.org/1999/xlink" version="1.1">
<metadata>
Created by FontForge 20190112 at Mon Jul 29 10:01:38 2019
 By Robert Madole
Copyright (c) Font Awesome
</metadata>
<defs>
<font id="FontAwesome5Duotone-Solid" horiz-adv-x="512" >
  <font-face 
    font-family="Font Awesome 5 Duotone Solid"
    font-weight="900"
    font-stretch="normal"
    units-per-em="512"
    panose-1="2 0 5 3 0 0 0 0 0 0"
    ascent="448"
    descent="-64"
    bbox="-0.0263672 -64.0996 640.022 448.014"
    underline-thickness="25"
    underline-position="-51"
    unicode-range="U+0020-10F89B"
  />
    <missing-glyph />
    <glyph glyph-name="heart-primary" unicode="&#xf004;" 
d="M462.3 385.37c62.8105 -53.6006 66.1104 -149.8 9.83008 -207.9l-193.5 -199.8c-5.11035 -5.34863 -15.2617 -9.68945 -22.6592 -9.68945c-6.94043 0 -16.6445 3.89258 -21.6611 8.68945c-0.349609 0.339844 -0.679688 0.660156 -1 1l-193.5 199.8
c-56.1992 58.1006 -52.8994 154.3 9.90039 207.9c19.8486 16.9082 57.1191 30.6318 83.1934 30.6318c0.1875 0 0.490234 -0.000976562 0.676758 -0.00195312c37.2803 0 74.8496 -15.4102 102.729 -44.2305l19.6904 -20.2998l19.7002 20.2998
c27.9395 28.8203 65.5 44.2305 102.77 44.2305c0.186523 0.000976562 0.487305 0.00195312 0.673828 0.00195312c26.0654 0 63.3193 -13.7236 83.1562 -30.6318zM414.64 233.12c22.8008 23.5303 24.8906 66.5098 -4.30957 91.2998
c-23.0498 19.5801 -57.0703 12.3799 -77.2197 -8.41992l-77.1104 -79.4199l-77.1904 79.5703c-18.8096 19.4492 -53.0498 28.9199 -77.21 8.33008c-28.96 -24.7705 -27.1396 -67.7705 -4.29004 -91.3906l158.69 -163.82z" />
    <glyph glyph-name="video-primary" unicode="&#xf03d;" horiz-adv-x="576" 
d="M0 47.7998v288.4c0 26.3857 21.4141 47.7998 47.7998 47.7998h288.4v0c26.3857 0 47.7998 -21.4141 47.7998 -47.7998v-288.4c0 -26.3857 -21.4141 -47.7998 -47.7998 -47.7998h-288.4c-26.3857 0 -47.7998 21.4141 -47.7998 47.7998z" />
    <glyph glyph-name="leaf-primary" unicode="&#xf06c;" horiz-adv-x="576" 
d="M24.5 -64c-2.73145 0.00488281 -6.9873 0.87793 -9.5 1.9502c-8.24512 3.55566 -14.9355 13.7285 -14.9355 22.708c0 2.75488 0.867188 7.05176 1.93555 9.5918c1.08008 2.59961 27.2402 64.3301 83.8096 126.43c33.4707 36.75 70.75 66.0898 110.811 87.2207
c41.8652 22.1357 114.277 40.1016 161.635 40.1016c0.34082 0 0.894531 -0.000976562 1.23535 -0.00195312c13.3545 -0.268555 24.1934 -11.3281 24.1934 -24.6846c0 -13.3574 -10.8389 -24.417 -24.1934 -24.6855
c-0.326172 0.000976562 -0.853516 0.00292969 -1.17969 0.00292969c-40.4639 0 -102.387 -15.2559 -138.221 -34.0527c-34.8994 -18.2803 -67.5996 -43.8896 -97.1797 -76.1201c-51.25 -55.8496 -75.5801 -112.83 -75.8203 -113.4
c-3.47461 -8.2959 -13.5947 -15.043 -22.5898 -15.0596z" />
    <glyph glyph-name="comment-primary" unicode="&#xf075;" 
d="M256 416c141.4 0 256 -93.0996 256 -208s-114.6 -208 -256 -208h-0.338867c-30.5195 0 -78.4824 8.69141 -107.062 19.4004c-24.5996 -19.6006 -74.2998 -51.4004 -140.6 -51.4004h-0.0800781c-2.87305 0 -6.1084 2.15039 -7.21973 4.7998
c-0.373047 0.848633 -0.674805 2.29004 -0.674805 3.2168c0 1.75098 0.973633 4.20801 2.1748 5.4834c0.5 0.5 42.2998 45.4004 54.7998 95.7998c-35.5996 35.7002 -57 81.1006 -57 130.7c0 114.9 114.6 208 256 208zM256 80c100.8 0 176 62.5703 176 128
c0 65.6904 -75.46 128 -176 128c-100.8 0 -176 -62.5703 -176 -128c0 -65.6904 75.46 -128 176 -128z" />
    <glyph glyph-name="comments-primary" unicode="&#xf086;" horiz-adv-x="576" 
d="M576 128c0 -34.2998 -14.0996 -66 -38 -92c13.4004 -30.2998 35.5 -54.2002 35.7998 -54.5c1.20117 -1.27539 2.1748 -3.73242 2.1748 -5.4834c0 -0.926758 -0.301758 -2.36816 -0.674805 -3.2168c-1.125 -2.64941 -4.37402 -4.7998 -7.25293 -4.7998h-0.046875
c-36.5996 0 -66.9004 12.2998 -88.7002 25c-32.2002 -15.7998 -70.2998 -25 -111.3 -25c-86.2002 0 -160.2 40.4004 -191.7 97.9004c8.72168 -0.989258 22.9229 -1.83984 31.7002 -1.90039c132.3 0 240 86.0996 240 192
c0 0.132812 0.000976562 0.347656 0.000976562 0.480469c0 5.43848 -0.583008 14.2285 -1.30078 19.6191c75.7998 -23.8994 129.3 -81.1992 129.3 -148.1z" />
    <glyph glyph-name="globe-primary" unicode="&#xf0ac;" 
d="M384 192v-0.267578c0 -17.6387 -1.50098 -46.1914 -3.34961 -63.7324h115c-2.4082 -9.03906 -7.30078 -23.375 -10.9199 -32h-108.4c-9.86035 -59.5303 -28.6201 -109.68 -52.75 -142.68c-18.2422 -5.14453 -48.4287 -9.32031 -67.3828 -9.32031h-0.197266
c8.94043 0 18.3799 4.48047 28.0498 13.4805c11.96 11.0596 23.4902 28.2891 33.3398 49.8291c10.71 23.4102 19.1299 50.9307 25.1299 81.7803c0.44043 2.29004 0.870117 4.60059 1.28027 6.91016h-175.6c0.410156 -2.30957 0.839844 -4.62012 1.28027 -6.91016
c5.96973 -30.8496 14.4199 -58.3701 25.1299 -81.7803c9.84961 -21.54 21.3398 -38.7695 33.3398 -49.8291c9.66992 -8.9502 19.1094 -13.4805 28.0498 -13.4805h-0.197266c-18.9541 0 -49.1406 4.17578 -67.3828 9.32031c-24.1299 33 -42.8896 83.1494 -52.75 142.68
h-108.4c-3.61914 8.625 -8.51172 22.9609 -10.9199 32h115c-1.84375 17.6162 -3.33984 46.2881 -3.33984 64s1.49609 46.3838 3.33984 64h-115c2.4082 9.03906 7.30078 23.375 10.9199 32h108.4c9.86035 59.5303 28.6201 109.68 52.75 142.68
c18.2422 5.14453 48.4287 9.32031 67.3828 9.32031h0.197266c-8.94043 0 -18.3799 -4.53027 -28 -13.4805c-12 -11.0596 -23.54 -28.2891 -33.3896 -49.8291c-10.71 -23.4102 -19.1299 -50.9307 -25.1299 -81.7803c-0.44043 -2.29004 -0.870117 -4.60059 -1.28027 -6.91016
h175.6c-0.410156 2.30957 -0.839844 4.62012 -1.28027 6.91016c-5.96973 30.8496 -14.4199 58.3701 -25.1299 81.7803c-9.84961 21.54 -21.3398 38.7695 -33.3398 49.8291c-9.66992 8.9502 -19.1094 13.4805 -28.0498 13.4805h0.197266
c18.9541 0 49.1406 -4.17578 67.3828 -9.32031c24.1299 -33 42.8896 -83.1494 52.75 -142.68h108.41c3.61914 -8.625 8.51172 -22.9609 10.9199 -32h-115c1.84375 -17.5156 3.33984 -46.0254 3.33984 -63.6377v-0.362305zM348.45 128
c1.95996 17.4717 3.5498 45.9199 3.5498 63.501v0.499023v0.499023c0 17.5811 -1.58984 46.0293 -3.5498 63.501h-184.9c-1.95898 -17.6094 -3.5498 -46.2812 -3.5498 -64s1.59082 -46.3906 3.5498 -64h184.9z" />
    <glyph glyph-name="suitcase-primary" unicode="&#xf0f2;" 
d="M336 416c26.4961 0 48 -21.5039 48 -48v-400h-256v400c0 26.4961 21.5039 48 48 48h160zM320 320v32h-128v-32h128zM464 320c26.4961 0 48 -21.5039 48 -48v-256c0 -26.4961 -21.5039 -48 -48 -48h-32v352h32zM0 272c0 26.4961 21.5039 48 48 48h32v-352h-32
c-26.4961 0 -48 21.5039 -48 48v256z" />
    <glyph glyph-name="quote-left-primary" unicode="&#xf10d;" 
d="M176 192c26.4961 0 48 -21.5039 48 -48v-128c0 -26.4961 -21.5039 -48 -48 -48h-128c-26.4961 0 -48 21.5039 -48 48v240c0 88.3203 71.6797 160 160 160h8.12012c13.1816 -0.0332031 23.8799 -10.7578 23.8799 -23.9395v-0.0605469v-48.1201
c-0.0332031 -13.1816 -10.7578 -23.8799 -23.9395 -23.8799h-0.0605469h-8c-35.2949 -0.0332031 -63.9668 -28.7051 -64 -64v-64h80z" />
    <glyph glyph-name="quote-right-primary" unicode="&#xf10e;" 
d="M464 416c26.4961 0 48 -21.5039 48 -48v-240c0 -88.3203 -71.6797 -160 -160 -160h-8.12012c-13.1816 0.0332031 -23.8799 10.7578 -23.8799 23.9395v0.0605469v48.1201c0.0332031 13.1816 10.7578 23.8799 23.9395 23.8799h0.0605469h8
c35.2949 0.0332031 63.9668 28.7051 64 64v64h-80c-26.4961 0 -48 21.5039 -48 48v128c0 26.4961 21.5039 48 48 48h128z" />
    <glyph glyph-name="dollar-sign-primary" unicode="&#xf155;" horiz-adv-x="320" 
d="M297.72 72.9004c-15.3994 -44.1006 -59.1094 -71.8008 -105.72 -72.7002l-64 -0.200195c-26.71 0.109375 -65.4668 13.5498 -86.5098 30c-7.90039 6.09961 -8.90039 17.5996 -1.7998 24.5l34.8096 34c2.51855 2.49902 7.44043 4.52637 10.9883 4.52637
c2.55664 0 6.36914 -1.13184 8.51172 -2.52637c8.54785 -5.79199 23.8652 -10.4951 34.1904 -10.5h66.3096h0.0419922c16.2783 0 29.4893 13.2119 29.4893 29.4902c0 12.208 -9.51172 24.8906 -21.2314 28.3096l-102.52 30c-44.4004 13 -79.6104 50.5 -83.8105 96.6006
c-0.253906 2.76172 -0.459961 7.25391 -0.459961 10.0273c0 55.1885 44.6035 104.07 99.5605 109.112c3.2998 0.299805 6.60938 0.459961 9.91992 0.459961h66.5098c26.7129 -0.108398 65.4736 -13.5488 86.5195 -30c7.90039 -6.09961 8.90039 -17.5996 1.80078 -24.5
l-34.8105 -34c-2.51758 -2.49902 -7.44043 -4.52637 -10.9883 -4.52637c-2.55566 0 -6.36914 1.13184 -8.51172 2.52637c-8.55371 5.79102 -23.8799 10.4951 -34.21 10.5h-66.3096h-0.0419922c-16.2783 0 -29.4902 -13.2119 -29.4902 -29.4902
c0 -12.208 9.51172 -24.8906 21.2324 -28.3096l108 -31.6006c57.9297 -16.8994 94.04 -80.0996 72.5293 -141.699z" />
    <glyph glyph-name="archive-primary" unicode="&#xf187;" 
d="M512 384v-48c0 -8.83203 -7.16797 -16 -16 -16h-480c-8.83203 0 -16 7.16797 -16 16v48c0 17.6641 14.3359 32 32 32h448c17.6641 0 32 -14.3359 32 -32z" />
    <glyph glyph-name="handshake-primary" unicode="&#xf2b5;" horiz-adv-x="640" 
d="M544 319.8h96v-255.899h-64c-17.6641 0 -32 14.3359 -32 32v223.899zM592 95.9004c8.83203 0 16 7.16797 16 16s-7.16797 16 -16 16s-16 -7.16797 -16 -16s7.16797 -16 16 -16zM483.9 109.3c6.51562 -5.31055 11.8037 -16.4443 11.8037 -24.8506
c0 -6.2959 -3.22754 -15.3682 -7.2041 -20.249l-9.5 -11.7002c-5.30176 -6.53613 -16.4355 -11.8398 -24.8506 -11.8398c-6.25977 0 -15.2861 3.19824 -20.1494 7.13965l-5.40039 4.40039l-31.3994 -38.6006c-6.15723 -7.58203 -19.0801 -13.7354 -28.8477 -13.7354
c-7.29102 0 -17.7969 3.73438 -23.4521 8.33594l-17.9004 15.5l-0.200195 -0.200195c-10.6025 -13.0381 -32.8477 -23.6201 -49.6533 -23.6201c-12.5381 0 -30.6133 6.41602 -40.3467 14.3203l-90.5 81.8994h-18.2998v223.9l54.7002 54.5996
c5.16113 5.18262 15.2861 9.39355 22.5996 9.40039h83.7998l-81.7998 -74.9004c-12.1992 -11.7275 -22.1006 -34.9805 -22.1006 -51.9033c0 -39.7441 32.2568 -72 72 -72c14.9287 0 36.1641 7.97559 47.4004 17.8037l30 27.5z" />
    <glyph glyph-name="usd-circle-primary" unicode="&#xf2e8;" 
d="M232 320v16c0 8.83203 7.16797 16 16 16h16c8.83203 0 16 -7.16797 16 -16v-16.2002c13.9971 -0.509766 34.7842 -7.27441 46.4004 -15.0996c8.69922 -5.90039 10 -18.1006 2.2998 -25.2002l-12 -11.2998c-5.40039 -5.10059 -13.2998 -5.40039 -19.7002 -1.60059
c-5.05078 2.98145 -13.9082 5.40039 -19.7734 5.40039h-0.126953h-45c-11.2998 0 -20.5 -10.5 -20.5 -23.4004c0 -10.5996 6.30078 -19.8994 15.2002 -22.6992l72 -21.9004c29 -8.7998 49.2002 -37 49.2002 -68.5996c0.200195 -39.3008 -30.4004 -71.2002 -68 -71.4004v-16
c0 -8.83203 -7.16797 -16 -16 -16h-16c-8.83203 0 -16 7.16797 -16 16v16.2002c-13.9971 0.509766 -34.7842 7.27441 -46.4004 15.0996c-8.69922 5.90039 -10 18.1006 -2.2998 25.2002l12 11.2998c5.40039 5.10059 13.2998 5.40039 19.7002 1.60059
c5.05078 -2.98145 13.9082 -5.40039 19.7734 -5.40039h0.126953h45c11.2998 0 20.5 10.5 20.5 23.4004c0 10.5996 -6.30078 19.8994 -15.2002 22.6992l-72.2002 21.9004c-29 8.7998 -49.2002 37 -49.2002 68.5996c0 39.3008 30.6006 71.3008 68.2002 71.4004z" />
    <glyph glyph-name="usd-square-primary" unicode="&#xf2e9;" horiz-adv-x="448" 
d="M248 64v-16c0 -8.83203 -7.16797 -16 -16 -16h-16c-8.83203 0 -16 7.16797 -16 16v16.2002c-13.9971 0.509766 -34.7842 7.27441 -46.4004 15.0996c-8.69922 5.90039 -10 18.1006 -2.2998 25.2002l12 11.2998c5.40039 5.10059 13.2998 5.40039 19.7002 1.60059
c5.05078 -2.98145 13.9082 -5.40039 19.7734 -5.40039h0.126953h45c11.2998 0 20.5 10.5 20.5 23.4004c0 10.5996 -6.30078 19.8994 -15.2002 22.6992l-72.2002 21.9004c-29 8.7998 -49.2002 37 -49.2002 68.5996c0 39.3008 30.6006 71.3008 68.2002 71.4004v16
c0 8.83203 7.16797 16 16 16h16c8.83203 0 16 -7.16797 16 -16v-16.2002c13.9971 -0.509766 34.7842 -7.27441 46.4004 -15.0996c8.69922 -5.90039 10 -18.1006 2.2998 -25.2002l-12 -11.2998c-5.40039 -5.10059 -13.2998 -5.40039 -19.7002 -1.60059
c-5.05078 2.98145 -13.9082 5.40039 -19.7734 5.40039h-0.126953h-45c-11.2998 0 -20.5 -10.5 -20.5 -23.4004c0 -10.5996 6.30078 -19.8994 15.2002 -22.6992l72 -21.9004c29 -8.7998 49.2002 -37 49.2002 -68.5996c0.200195 -39.3008 -30.4004 -71.2002 -68 -71.4004z" />
    <glyph glyph-name="poo-primary" unicode="&#xf2fe;" 
d="M320 192c17.6641 0 32 -14.3359 32 -32s-14.3359 -32 -32 -32s-32 14.3359 -32 32s14.3359 32 32 32zM192 192c17.6641 0 32 -14.3359 32 -32s-14.3359 -32 -32 -32s-32 14.3359 -32 32s14.3359 32 32 32z" />
    <glyph glyph-name="phone-slash-primary" unicode="&#xf3dd;" horiz-adv-x="640" 
d="M3.37012 416.59l19.6299 25.2002c2.66211 3.40625 8.33105 6.17188 12.6543 6.17188c3.03613 0 7.44727 -1.51074 9.8457 -3.37207l588.3 -454.7c3.43457 -2.62598 6.22266 -8.2666 6.22266 -12.5898c0 -2.99414 -1.48828 -7.34375 -3.32227 -9.70996l-19.6006 -25.2998
c-2.66113 -3.40723 -8.33105 -6.17188 -12.6543 -6.17188c-3.03613 0 -7.44629 1.51074 -9.8457 3.37207l-588.43 454.7c-3.40918 2.63965 -6.17578 8.28223 -6.17578 12.5938c0 3.02734 1.5127 7.41992 3.37598 9.80566z" />
    <glyph glyph-name="hand-holding-box-primary" unicode="&#xf47b;" horiz-adv-x="576" 
d="M480 432v-224c0 -8.83203 -7.16797 -16 -16 -16h-352c-8.83203 0 -16 7.16797 -16 16v224c0 8.83203 7.16797 16 16 16h112v-128l64 32l64 -32v128h112c8.83203 0 16 -7.16797 16 -16z" />
    <glyph glyph-name="hand-receiving-primary" unicode="&#xf47c;" horiz-adv-x="640" 
d="M201.2 297.6c-5.13281 5.10156 -9.29883 15.1143 -9.29883 22.3506s4.16602 17.249 9.29883 22.3496l96.3994 96.4004c5.11719 5.13281 15.1523 9.29785 22.4004 9.29785s17.2832 -4.16504 22.4004 -9.29785l96.2998 -96.2998
c5.13281 -5.11719 9.29785 -15.1523 9.29785 -22.4004s-4.16504 -17.2832 -9.29785 -22.4004l-96.4004 -96.3994c-5.11816 -5.0918 -15.1309 -9.22363 -22.3496 -9.22363c-7.21973 0 -17.2324 4.13184 -22.3506 9.22363z" />
    <glyph glyph-name="blanket-primary" unicode="&#xf498;" 
d="M512 352c0 0 -0.0703125 -179.79 -0.280273 -233.47c-3.36328 40.502 -39.0781 73.416 -79.7197 73.4697h-302.59c-70.6299 0 -129 -56.6201 -129.41 -127.25v-0.730469v287.98c0.0771484 52.915 43.085 95.9229 96 96h320c52.915 -0.0771484 95.9229 -43.085 96 -96z
" />
    <glyph glyph-name="box-alt-primary" unicode="&#xf49a;" horiz-adv-x="448" 
d="M446.7 288h-158.7l-32 128h104.9h0.0351562c12.7402 0 26.3438 -9.81152 30.3643 -21.9004l56.2998 -104.899c-0.399414 -0.5 -0.5 -0.700195 -0.899414 -1.2002zM160 288h-158.7c-0.399414 0.5 -0.5 0.700195 -0.899414 1.2002l56.2998 104.899
c4.02051 12.0889 17.624 21.9004 30.3643 21.9004h0.0351562h104.9zM288 256h160v-256c0 -17.6641 -14.3359 -32 -32 -32h-384c-17.6641 0 -32 14.3359 -32 32v256h160v-80c0 -8.83203 7.16797 -16 16 -16h96c8.83203 0 16 7.16797 16 16v80z" />
    <glyph glyph-name="box-fragile-primary" unicode="&#xf49b;" horiz-adv-x="448" 
d="M320 256c0 -47.5 -34.5996 -86.7002 -80 -94.4004v-97.5996h40c4.41602 0 8 -3.58398 8 -8v-16c0 -4.41602 -3.58398 -8 -8 -8h-112c-4.41602 0 -8 3.58398 -8 8v16c0 4.41602 3.58398 8 8 8h40v97.5996c-44.127 7.37109 -79.9668 49.6621 -80 94.4004v80
c0 8.83203 7.16797 16 16 16h60.4004l24.5 -27.5996l-64 -32l91 -68.4004l-37 59.5996l64 32l-22.8008 36.4004h43.9004c8.83203 0 16 -7.16797 16 -16v-80z" />
    <glyph glyph-name="box-heart-primary" unicode="&#xf49d;" horiz-adv-x="448" 
d="M301.4 181c10.2627 -8.23047 18.5918 -25.5859 18.5918 -38.7412c0 -11.5127 -6.67188 -27.3984 -14.8926 -35.459l-72.5996 -71.3994c-1.95996 -1.9043 -5.76758 -3.44922 -8.5 -3.44922s-6.54004 1.54492 -8.5 3.44922l-72.5996 71.3994
c-8.24023 8.05371 -14.9277 23.9414 -14.9277 35.4639c0 13.1641 8.34473 30.5176 18.627 38.7363c20.5 16.7002 51.1006 13.7002 70 -4.7998l7.40039 -7.2998l7.40039 7.2998c18.7998 18.5 49.3994 21.5 70 4.7998zM391.3 394.1l56.2998 -104.899
c-0.399414 -0.5 -0.5 -0.700195 -0.899414 -1.2002h-206.7v128h120.9h0.0351562c12.7402 0 26.3438 -9.81152 30.3643 -21.9004zM208 416v-128h-206.7c-0.399414 0.5 -0.5 0.700195 -0.899414 1.2002l56.2998 104.899c4.02051 12.0889 17.624 21.9004 30.3643 21.9004
h0.0351562h120.9z" />
    <glyph glyph-name="box-up-primary" unicode="&#xf49f;" horiz-adv-x="448" 
d="M134.3 349l64 -80c0.96875 -1.20996 1.75488 -3.4502 1.75488 -5c0 -4.3916 -3.56348 -7.97559 -7.95508 -8h-32v-112c0 -8.83203 -7.16797 -16 -16 -16h-32c-8.83203 0 -16 7.16797 -16 16v112h-32.0996c-4.3916 0.0244141 -7.95508 3.6084 -7.95508 8
c0 1.5498 0.786133 3.79004 1.75488 5l64 80c1.36719 1.57227 4.16699 2.84863 6.25 2.84863c2.08398 0 4.88379 -1.27637 6.25 -2.84863zM390.3 269c0.939453 -1.20508 1.70215 -3.42285 1.70215 -4.9502c0 -4.41699 -3.58496 -8.02344 -8.00195 -8.0498h-32v-112
c0 -8.83203 -7.16797 -16 -16 -16h-32c-8.83203 0 -16 7.16797 -16 16v112h-32c-4.3916 0.0244141 -7.95508 3.6084 -7.95508 8c0 1.5498 0.786133 3.79004 1.75488 5l64 80c1.36719 1.57227 4.16699 2.84863 6.25 2.84863c2.08398 0 4.88379 -1.27637 6.25 -2.84863z" />
    <glyph glyph-name="box-usd-primary" unicode="&#xf4a0;" horiz-adv-x="448" 
d="M208 416v-128h-206.7c-0.399414 0.5 -0.5 0.700195 -0.899414 1.2002l56.2998 104.899c4.02051 12.0889 17.624 21.9004 30.3643 21.9004h0.0351562h120.9zM251.2 120.6c18.5996 -5.59961 31.5996 -23.3994 31.5996 -43.3994
c-0.0996094 -24.5 -19.2002 -44.5 -42.7998 -45.1006v-16.0996c0 -4.41602 -3.58398 -8 -8 -8h-16c-4.41602 0 -8 3.58398 -8 8v16.2998c-9.60938 0.499023 -23.6768 5.56152 -31.4004 11.2998c-1.7002 1.32617 -3.08008 4.15234 -3.08008 6.30957
c0 1.8916 1.11133 4.48535 2.48047 5.79102l11.7998 11.2002c1.28613 1.17773 3.74609 2.13281 5.49023 2.13281c1.39551 0 3.46094 -0.641602 4.61035 -1.43359c3.24219 -2.02344 8.97656 -3.68066 12.7998 -3.69922h28.0996c6.5 0 11.7998 5.89941 11.7998 13.1992
c0 6 -3.59961 11.2002 -8.7998 12.7002l-45 13.5c-18.5996 5.60059 -31.5996 23.4004 -31.5996 43.4004c0 24.5 19 44.3994 42.7002 45.0996v16.2002c0 4.41602 3.58398 8 8 8h16c4.41602 0 8 -3.58398 8 -8v-16.2998c9.6084 -0.499023 23.6758 -5.56152 31.3994 -11.2998
c1.70117 -1.32617 3.08105 -4.15234 3.08105 -6.30957c0 -1.8916 -1.11133 -4.48535 -2.48047 -5.79102l-11.7002 -11.2998c-1.28613 -1.17773 -3.74609 -2.13379 -5.49023 -2.13379c-1.39551 0 -3.46094 0.642578 -4.61035 1.43359
c-3.24219 2.02441 -8.97656 3.68164 -12.7998 3.7002h-28.0996c-6.5 0 -11.7998 -5.90039 -11.7998 -13.2002c0 -6 3.59961 -11.2002 8.7998 -12.7002zM391.3 394.1l56.2998 -104.899c-0.399414 -0.5 -0.5 -0.700195 -0.899414 -1.2002h-206.7v128h120.9h0.0351562
c12.7402 0 26.3438 -9.81152 30.3643 -21.9004z" />
    <glyph glyph-name="boxes-alt-primary" unicode="&#xf4a1;" horiz-adv-x="576" 
d="M176 224c-8.83203 0 -16 7.16797 -16 16v192c0 8.83203 7.16797 16 16 16h80v-88c0 -4.41602 3.58398 -8 8 -8h48c4.41602 0 8 3.58398 8 8v88h80c8.83203 0 16 -7.16797 16 -16v-192c0 -8.83203 -7.16797 -16 -16 -16h-224zM560 160c8.83203 0 16 -7.16797 16 -16v-192
c0 -8.83203 -7.16797 -16 -16 -16h-224c-8.83203 0 -16 7.16797 -16 16v192c0 8.83203 7.16797 16 16 16h80v-88c0 -4.41602 3.58398 -8 8 -8h48c4.41602 0 8 3.58398 8 8v88h80zM240 160c8.83203 0 16 -7.16797 16 -16v-192c0 -8.83203 -7.16797 -16 -16 -16h-224
c-8.83203 0 -16 7.16797 -16 16v192c0 8.83203 7.16797 16 16 16h80v-88c0 -4.41602 3.58398 -8 8 -8h48c4.41602 0 8 3.58398 8 8v88h80z" />
    <glyph glyph-name="comment-alt-check-primary" unicode="&#xf4a2;" 
d="M370.1 284.2l-131 -130c-1.77539 -1.76367 -5.24707 -3.19434 -7.75 -3.19434c-2.54785 0 -6.06445 1.47559 -7.84961 3.29395l-75.7002 76.2998c-1.7627 1.77637 -3.19336 5.24805 -3.19336 7.75098c0 2.54785 1.47559 6.06445 3.29395 7.84961l26 25.7998
c1.77539 1.7627 5.24707 3.19434 7.75 3.19434c2.54785 0 6.06445 -1.47559 7.84961 -3.29395l42.0996 -42.5l97.2002 96.3994c1.77637 1.76367 5.24805 3.19434 7.75 3.19434c2.54883 0 6.06543 -1.47559 7.85059 -3.29395l25.7998 -26
c1.73535 -1.77051 3.14355 -5.2207 3.14355 -7.7002c0 -2.52539 -1.45312 -6.01953 -3.24414 -7.7998z" />
    <glyph glyph-name="comment-alt-dots-primary" unicode="&#xf4a3;" 
d="M384 272c17.6641 0 32 -14.3359 32 -32s-14.3359 -32 -32 -32s-32 14.3359 -32 32s14.3359 32 32 32zM256 272c17.6641 0 32 -14.3359 32 -32s-14.3359 -32 -32 -32s-32 14.3359 -32 32s14.3359 32 32 32zM128 272c17.6641 0 32 -14.3359 32 -32s-14.3359 -32 -32 -32
s-32 14.3359 -32 32s14.3359 32 32 32z" />
    <glyph glyph-name="comment-alt-edit-primary" unicode="&#xf4a4;" 
d="M161.4 191.4l96.2998 96.2998l54 -54l-96.2998 -96.2998l-48.2002 -5.40039c-0.299805 -0.0322266 -0.787109 -0.0585938 -1.08887 -0.0585938c-5.61328 0 -10.1699 4.55664 -10.1699 10.1699c0 0.301758 0.0263672 0.789062 0.0585938 1.08887zM366.1 316.7
c3.27051 -3.26953 5.9248 -9.67578 5.9248 -14.2998c0 -4.625 -2.6543 -11.0312 -5.9248 -14.3008l-31.7998 -31.7998l-54 54l31.7998 31.7998c3.26953 3.27051 9.67578 5.9248 14.3008 5.9248c4.62402 0 11.0303 -2.6543 14.2998 -5.9248z" />
    <glyph glyph-name="comment-alt-exclamation-primary" unicode="&#xf4a5;" 
d="M256 176c17.6641 0 32 -14.3359 32 -32s-14.3359 -32 -32 -32s-32 14.3359 -32 32s14.3359 32 32 32zM278.3 368c8.82129 -0.0107422 15.9805 -7.17871 15.9805 -16c0 -0.442383 -0.0361328 -1.15918 -0.0800781 -1.59961l-12.7998 -128
c-0.797852 -7.93945 -7.92188 -14.3906 -15.9004 -14.4004h-19c-7.97852 0.00976562 -15.1025 6.46094 -15.9004 14.4004l-12.7998 128c-0.0410156 0.423828 -0.0742188 1.11328 -0.0742188 1.54004c0 8.81738 7.15723 16.0127 15.9746 16.0596h44.5996z" />
    <glyph glyph-name="comment-alt-lines-primary" unicode="&#xf4a6;" 
d="M280 208c4.41602 0 8 -3.58398 8 -8v-16c0 -4.41602 -3.58398 -8 -8 -8h-144c-4.41602 0 -8 3.58398 -8 8v16c0 4.41602 3.58398 8 8 8h144zM376 304c4.41602 0 8 -3.58398 8 -8v-16c0 -4.41602 -3.58398 -8 -8 -8h-240c-4.41602 0 -8 3.58398 -8 8v16
c0 4.41602 3.58398 8 8 8h240z" />
    <glyph glyph-name="comment-alt-minus-primary" unicode="&#xf4a7;" 
d="M144 248c0 8.83203 7.16797 16 16 16h192c8.83203 0 16 -7.16797 16 -16v-16c0 -8.83203 -7.16797 -16 -16 -16h-192c-8.83203 0 -16 7.16797 -16 16v16z" />
    <glyph glyph-name="comment-alt-plus-primary" unicode="&#xf4a8;" 
d="M144 248c0 8.83203 7.16797 16 16 16h72v72c0 8.83203 7.16797 16 16 16h16c8.83203 0 16 -7.16797 16 -16v-72h72c8.83203 0 16 -7.16797 16 -16v-16c0 -8.83203 -7.16797 -16 -16 -16h-72v-72c0 -8.83203 -7.16797 -16 -16 -16h-16c-8.83203 0 -16 7.16797 -16 16v72
h-72c-8.83203 0 -16 7.16797 -16 16v16z" />
    <glyph glyph-name="comment-alt-slash-primary" unicode="&#xf4a9;" horiz-adv-x="640" 
d="M636.67 -32.5195l-19.5996 -25.3105c-2.66211 -3.40625 -8.33203 -6.17188 -12.6553 -6.17188c-3.03613 0 -7.44629 1.51074 -9.84473 3.37207l-588.4 454.84c-3.40918 2.6416 -6.17676 8.28711 -6.17676 12.5996c0 3.02832 1.5127 7.42383 3.37695 9.81055
l19.6299 25.21c2.66211 3.40625 8.33105 6.17188 12.6543 6.17188c3.03613 0 7.44727 -1.51074 9.8457 -3.37207l588.3 -454.84c3.4248 -2.62793 6.2041 -8.26465 6.2041 -12.582c0 -3 -1.49316 -7.3584 -3.33398 -9.72754z" />
    <glyph glyph-name="comment-alt-smile-primary" unicode="&#xf4aa;" 
d="M320 261.2c-14.7939 0 -26.7998 12.0059 -26.7998 26.7998s12.0059 26.7998 26.7998 26.7998s26.7998 -12.0059 26.7998 -26.7998s-12.0059 -26.7998 -26.7998 -26.7998zM192 261.2c-14.7939 0 -26.7998 12.0059 -26.7998 26.7998s12.0059 26.7998 26.7998 26.7998
s26.7998 -12.0059 26.7998 -26.7998s-12.0059 -26.7998 -26.7998 -26.7998zM354.3 196.5c3.14746 -2.64648 5.70215 -8.13281 5.70215 -12.2461c0 -3.24316 -1.70312 -7.88184 -3.80176 -10.3535c-21.8525 -25.3369 -66.7422 -45.8994 -100.2 -45.8994
s-78.3477 20.5625 -100.2 45.8994c-1.72363 2.33691 -3.12305 6.5918 -3.12305 9.49707c0 8.83203 7.16797 16 16 16c3.70898 0 8.82617 -2.14941 11.4229 -4.79785c16.5469 -19.1006 50.4863 -34.6025 75.7568 -34.6025c25.3154 0 59.293 15.5469 75.8438 34.7031
c2.66113 3.09082 8.12988 5.59863 12.209 5.59863c3.25098 0 7.90625 -1.70215 10.3906 -3.79883z" />
    <glyph glyph-name="comment-alt-times-primary" unicode="&#xf4ab;" 
d="M340.9 166.5l-11.3008 -11.2998c-2.59082 -2.56543 -7.65332 -4.64844 -11.2998 -4.64844s-8.70898 2.08301 -11.2998 4.64844l-51 50.8994l-50.9004 -50.8994c-2.59082 -2.56543 -7.65332 -4.64844 -11.2998 -4.64844s-8.70898 2.08301 -11.2998 4.64844
l-11.2998 11.2998c-2.56543 2.59082 -4.64844 7.65332 -4.64844 11.2998s2.08301 8.70898 4.64844 11.2998l50.8994 50.9004l-50.8994 50.9004c-2.56543 2.59082 -4.64844 7.65332 -4.64844 11.2998s2.08301 8.70898 4.64844 11.2998l11.2998 11.2998
c2.59082 2.56543 7.65332 4.64844 11.2998 4.64844s8.70898 -2.08301 11.2998 -4.64844l50.9004 -50.8994l50.9004 50.8994c2.59082 2.56543 7.65332 4.64844 11.2998 4.64844s8.70898 -2.08301 11.2998 -4.64844l11.2998 -11.2998
c2.56543 -2.59082 4.64844 -7.65332 4.64844 -11.2998s-2.08301 -8.70898 -4.64844 -11.2998l-50.8994 -50.9004l51 -50.9004c2.56543 -2.59082 4.64746 -7.65332 4.64746 -11.2998s-2.08203 -8.70898 -4.64746 -11.2998z" />
    <glyph glyph-name="comment-check-primary" unicode="&#xf4ac;" 
d="M370.1 252.2l-131 -130c-1.77539 -1.76367 -5.24707 -3.19434 -7.75 -3.19434c-2.54785 0 -6.06445 1.47559 -7.84961 3.29395l-75.7002 76.2998c-1.7627 1.77637 -3.19336 5.24805 -3.19336 7.75098c0 2.54785 1.47559 6.06445 3.29395 7.84961l26 25.7998
c1.77539 1.7627 5.24707 3.19434 7.75 3.19434c2.54785 0 6.06445 -1.47559 7.84961 -3.29395l42.0996 -42.5l97.2002 96.3994c1.77637 1.76367 5.24805 3.19434 7.75 3.19434c2.54883 0 6.06543 -1.47559 7.85059 -3.29395l25.7998 -26
c1.73535 -1.77051 3.14355 -5.2207 3.14355 -7.7002c0 -2.52539 -1.45312 -6.01953 -3.24414 -7.7998z" />
    <glyph glyph-name="comment-dots-primary" unicode="&#xf4ad;" 
d="M128 240c17.6641 0 32 -14.3359 32 -32s-14.3359 -32 -32 -32s-32 14.3359 -32 32s14.3359 32 32 32zM256 240c17.6641 0 32 -14.3359 32 -32s-14.3359 -32 -32 -32s-32 14.3359 -32 32s14.3359 32 32 32zM384 240c17.6641 0 32 -14.3359 32 -32s-14.3359 -32 -32 -32
s-32 14.3359 -32 32s14.3359 32 32 32z" />
    <glyph glyph-name="comment-edit-primary" unicode="&#xf4ae;" 
d="M366.1 284.7c3.27051 -3.26953 5.9248 -9.67578 5.9248 -14.2998c0 -4.625 -2.6543 -11.0312 -5.9248 -14.3008l-31.7998 -31.7998l-54 54l31.7998 31.7998c3.26953 3.27051 9.67578 5.9248 14.3008 5.9248c4.62402 0 11.0303 -2.6543 14.2998 -5.9248zM161.4 159.4
l96.2998 96.2998l54 -54l-96.2998 -96.2998l-48.2002 -5.40039c-0.299805 -0.0322266 -0.787109 -0.0585938 -1.08887 -0.0585938c-5.61328 0 -10.1699 4.55664 -10.1699 10.1699c0 0.301758 0.0263672 0.789062 0.0585938 1.08887z" />
    <glyph glyph-name="comment-exclamation-primary" unicode="&#xf4af;" 
d="M256 144c17.6641 0 32 -14.3359 32 -32s-14.3359 -32 -32 -32s-32 14.3359 -32 32s14.3359 32 32 32zM278.3 336c8.82129 -0.0107422 15.9805 -7.17871 15.9805 -16c0 -0.442383 -0.0361328 -1.15918 -0.0800781 -1.59961l-12.7998 -128
c-0.797852 -7.93945 -7.92188 -14.3906 -15.9004 -14.4004h-19c-7.97852 0.00976562 -15.1025 6.46094 -15.9004 14.4004l-12.7998 128c-0.0410156 0.423828 -0.0742188 1.11328 -0.0742188 1.54004c0 8.81738 7.15723 16.0127 15.9746 16.0596h44.5996z" />
    <glyph glyph-name="comment-lines-primary" unicode="&#xf4b0;" 
d="M376 272c4.41602 0 8 -3.58398 8 -8v-16c0 -4.41602 -3.58398 -8 -8 -8h-240c-4.41602 0 -8 3.58398 -8 8v16c0 4.41602 3.58398 8 8 8h240zM280 176c4.41602 0 8 -3.58398 8 -8v-16c0 -4.41602 -3.58398 -8 -8 -8h-144c-4.41602 0 -8 3.58398 -8 8v16
c0 4.41602 3.58398 8 8 8h144z" />
    <glyph glyph-name="comment-minus-primary" unicode="&#xf4b1;" 
d="M368 200c0 -8.83203 -7.16797 -16 -16 -16h-192c-8.83203 0 -16 7.16797 -16 16v16c0 8.83203 7.16797 16 16 16h192c8.83203 0 16 -7.16797 16 -16v-16z" />
    <glyph glyph-name="comment-plus-primary" unicode="&#xf4b2;" 
d="M368 200c0 -8.83203 -7.16797 -16 -16 -16h-72v-72c0 -8.83203 -7.16797 -16 -16 -16h-16c-8.83203 0 -16 7.16797 -16 16v72h-72c-8.83203 0 -16 7.16797 -16 16v16c0 8.83203 7.16797 16 16 16h72v72c0 8.83203 7.16797 16 16 16h16c8.83203 0 16 -7.16797 16 -16v-72
h72c8.83203 0 16 -7.16797 16 -16v-16z" />
    <glyph glyph-name="comment-slash-primary" unicode="&#xf4b3;" horiz-adv-x="640" 
d="M636.67 -32.5195l-19.5996 -25.3105c-2.66211 -3.40625 -8.33203 -6.17188 -12.6553 -6.17188c-3.03613 0 -7.44629 1.51074 -9.84473 3.37207l-588.4 454.84c-3.40918 2.6416 -6.17676 8.28711 -6.17676 12.5996c0 3.02832 1.5127 7.42383 3.37695 9.81055
l19.6299 25.21c2.66211 3.40625 8.33105 6.17188 12.6543 6.17188c3.03613 0 7.44727 -1.51074 9.8457 -3.37207l588.3 -454.84c3.4248 -2.62793 6.2041 -8.26465 6.2041 -12.582c0 -3 -1.49316 -7.3584 -3.33398 -9.72754z" />
    <glyph glyph-name="comment-smile-primary" unicode="&#xf4b4;" 
d="M320 229.2c-14.7939 0 -26.7998 12.0059 -26.7998 26.7998s12.0059 26.7998 26.7998 26.7998s26.7998 -12.0059 26.7998 -26.7998s-12.0059 -26.7998 -26.7998 -26.7998zM192 229.2c-14.7939 0 -26.7998 12.0059 -26.7998 26.7998s12.0059 26.7998 26.7998 26.7998
s26.7998 -12.0059 26.7998 -26.7998s-12.0059 -26.7998 -26.7998 -26.7998zM354.3 164.5c3.14746 -2.64648 5.70215 -8.13281 5.70215 -12.2461c0 -3.24316 -1.70312 -7.88184 -3.80176 -10.3535c-21.8525 -25.3369 -66.7422 -45.8994 -100.2 -45.8994
s-78.3477 20.5625 -100.2 45.8994c-2.52637 2.5752 -4.57617 7.59473 -4.57617 11.2021c0 8.83203 7.16797 16 16 16c4.45996 0 10.2285 -2.91309 12.876 -6.50293c16.5469 -19.1006 50.4863 -34.6025 75.7568 -34.6025c25.3154 0 59.293 15.5469 75.8438 34.7031
c2.66113 3.09082 8.12988 5.59863 12.209 5.59863c3.25098 0 7.90625 -1.70215 10.3906 -3.79883z" />
    <glyph glyph-name="comment-times-primary" unicode="&#xf4b5;" 
d="M340.9 134.5l-11.3008 -11.2998c-2.59082 -2.56543 -7.65332 -4.64844 -11.2998 -4.64844s-8.70898 2.08301 -11.2998 4.64844l-51 50.8994l-50.9004 -50.8994c-2.59082 -2.56543 -7.65332 -4.64844 -11.2998 -4.64844s-8.70898 2.08301 -11.2998 4.64844
l-11.2998 11.2998c-2.56543 2.59082 -4.64844 7.65332 -4.64844 11.2998s2.08301 8.70898 4.64844 11.2998l50.8994 50.9004l-50.8994 50.9004c-2.56543 2.59082 -4.64844 7.65332 -4.64844 11.2998s2.08301 8.70898 4.64844 11.2998l11.2998 11.2998
c2.59082 2.56543 7.65332 4.64844 11.2998 4.64844s8.70898 -2.08301 11.2998 -4.64844l50.9004 -50.8994l50.9004 50.8994c2.59082 2.56543 7.65332 4.64844 11.2998 4.64844s8.70898 -2.08301 11.2998 -4.64844l11.2998 -11.2998
c2.56543 -2.59082 4.64844 -7.65332 4.64844 -11.2998s-2.08301 -8.70898 -4.64844 -11.2998l-50.8994 -50.9004l51 -50.9004c2.56543 -2.59082 4.64746 -7.65332 4.64746 -11.2998s-2.08203 -8.70898 -4.64746 -11.2998z" />
    <glyph glyph-name="comments-alt-primary" unicode="&#xf4b6;" horiz-adv-x="576" 
d="M576 224v-160c-0.0332031 -35.2949 -28.7051 -63.9668 -64 -64h-32v-54.2998v-0.0253906c0 -5.35449 -4.3457 -9.7002 -9.7002 -9.7002c-1.77734 0 -4.375 0.862305 -5.7998 1.92578l-82.7998 62.0996h-125.7c-35.2949 0.0332031 -63.9668 28.7051 -64 64v64h160
c52.9092 0.0820312 95.918 43.0908 96 96v64h64c35.2949 -0.0332031 63.9668 -28.7051 64 -64z" />
    <glyph glyph-name="container-storage-primary" unicode="&#xf4b7;" horiz-adv-x="640" 
d="M624 32c8.83203 0 16 -7.16797 16 -16v-32c0 -8.83203 -7.16797 -16 -16 -16h-608c-8.83203 0 -16 7.16797 -16 16v32c0 8.83203 7.16797 16 16 16h608zM624 416c8.83203 0 16 -7.16797 16 -16v-32c0 -8.83203 -7.16797 -16 -16 -16h-608c-8.83203 0 -16 7.16797 -16 16
v32c0 8.83203 7.16797 16 16 16h608z" />
    <glyph glyph-name="couch-primary" unicode="&#xf4b8;" horiz-adv-x="640" 
d="M640 192c-0.0742188 -20.2939 -14.4102 -44.9785 -32 -55.0996v-120.9c0 -8.83203 -7.16797 -16 -16 -16h-64c-8.83203 0 -16 7.16797 -16 16v16h-384v-16c0 -8.83203 -7.16797 -16 -16 -16h-64c-8.83203 0 -16 7.16797 -16 16v120.9
c-17.6699 10.1523 -32.0107 34.9307 -32.0107 55.3096c0 35.2129 28.5781 63.79 63.79 63.79h0.220703h32c17.6641 0 32 -14.3359 32 -32v-96h384v96c0 17.6641 14.3359 32 32 32h32c35.2949 -0.0332031 63.9668 -28.7051 64 -64z" />
    <glyph glyph-name="donate-primary" unicode="&#xf4b9;" 
d="M218.4 228.1c-25.7002 7.7002 -43.7002 32.4004 -43.7002 60.1006c0.0996094 34 26.3994 61.5 59.0996 62.3994v16.8008v0.0400391c0 9.14062 7.41895 16.5596 16.5605 16.5596h0.0400391h11.0996h0.0400391c9.1416 0 16.5596 -7.41895 16.5596 -16.5596v-0.0400391v-17
c13.1543 -0.65918 32.4189 -7.55859 43 -15.4004c2.54102 -1.85352 4.60352 -5.91113 4.60352 -9.05566c0 -2.61719 -1.52441 -6.22168 -3.40332 -8.04395l-16.2998 -15.5c-3.7998 -3.7002 -9.5 -3.80078 -14 -1c-4.44922 2.81543 -12.333 5.10059 -17.5986 5.10059
c-0.0556641 0 -0.145508 -0.000976562 -0.201172 -0.000976562h-38.9004c-9 0 -16.2998 -8.2002 -16.2998 -18.2998c0 -8.2002 5 -15.5 12.0996 -17.6006l62.3008 -18.6992c25.6992 -7.7002 43.6992 -32.4004 43.6992 -60.1006c0 -34 -26.3994 -61.5 -59.0996 -62.3994
v-16.8008v-0.0400391c0 -9.14062 -7.41895 -16.5596 -16.5596 -16.5596h-0.0400391h-11.1006h-0.0400391c-9.14062 0 -16.5596 7.41895 -16.5596 16.5596v0.0400391v17c-13.1543 0.65918 -32.4189 7.55859 -43 15.4004c-2.54102 1.85352 -4.60254 5.91113 -4.60254 9.05566
c0 2.61719 1.52441 6.22168 3.40234 8.04395l16.2998 15.5c3.7998 3.7002 9.5 3.80078 14 1c4.44922 -2.81543 12.333 -5.10059 17.5986 -5.10059c0.0556641 0 0.145508 0.000976562 0.201172 0.000976562h38.9004c9 0 16.2998 8.2002 16.2998 18.2998
c0 8.2002 -5 15.5 -12.0996 17.6006zM480 96c17.6641 0 32 -14.3359 32 -32v-96c0 -17.6641 -14.3359 -32 -32 -32h-448c-17.6641 0 -32 14.3359 -32 32v96c0 17.6641 14.3359 32 32 32h32.4004c16.5557 -21.7617 49.2598 -50.4336 73 -64h-63.8008
c-5.2998 0 -9.59961 -3.59961 -9.59961 -8v-16c0 -4.40039 4.2998 -8 9.59961 -8h364.7c5.2998 0 9.60059 3.59961 9.60059 8v16c0 4.40039 -4.30078 8 -9.60059 8h-63.7998c23.7588 13.5449 56.4629 42.2178 73 64h32.5z" />
    <glyph glyph-name="dove-primary" unicode="&#xf4ba;" 
d="M400 384h112l-32 -64v-160.1v-0.0302734c0 -88.248 -71.6221 -159.87 -159.87 -159.87h-0.129883h-76.8799l-65.2002 -56.0996c-5.01367 -4.36914 -14.4785 -7.91504 -21.1289 -7.91504c-0.267578 0 -0.703125 0.00683594 -0.970703 0.0146484
c-92.8203 3.84961 -135.82 49.4502 -153.221 76.3496c-1.44824 2.21484 -2.62402 6.16016 -2.62402 8.80664c0 6.90527 5.43164 13.8916 12.124 15.5938l143.9 36c-11.3008 8.38281 -28.7285 23.0771 -38.9004 32.7998c-51 49 -85.0996 115.101 -85.0996 185.9v0.117188
c0 33.5146 11.6484 85.2959 26 115.583c5.7998 12.2998 23.5 11.5996 29 -0.900391c36.9736 -84.0186 141.357 -156.482 233 -161.75v59.4004v0.0400391c0 44.1592 35.8398 80.0264 80 80.0596zM400 287.9v0.0498047c8.80469 0 15.9727 7.14551 16 15.9502
c0 8.83203 -7.16797 16 -16 16s-16 -7.16797 -16 -16s7.16797 -16 16 -16z" />
    <glyph glyph-name="fragile-primary" unicode="&#xf4bb;" horiz-adv-x="288" 
d="M160 97.7002v-129.7h53.9004c24.5 0 33.0996 -32 20 -32h-179.79c-13.2002 0 -4.5 32 20 32h53.8896v129.7c-76.6904 8.7002 -134.59 77.5996 -127.39 157.6l16 178.101c0.607422 8.03613 7.64062 14.5762 15.6992 14.5996h85.6006l32.7998 -48.2998l-85.5 -56
l121.5 -119.7l-49.4004 104.3l85.5 56l-30.5996 63.7002h63.5c8.05957 -0.0234375 15.0928 -6.56348 15.7002 -14.5996l16 -178.101c7.2002 -80 -50.7002 -148.8 -127.41 -157.6z" />
    <glyph glyph-name="hand-heart-primary" unicode="&#xf4bc;" horiz-adv-x="448" 
d="M194.57 149c20.5 16.7002 51.0996 13.7002 70 -4.7998l7.39941 -7.2998l7.40039 7.2998c18.7998 18.5 49.3994 21.5 70 4.7998c10.2627 -8.23047 18.5918 -25.5859 18.5918 -38.7412c0 -11.5127 -6.67188 -27.3984 -14.8916 -35.459l-72.6006 -71.3994
c-1.95996 -1.9043 -5.76758 -3.44922 -8.5 -3.44922c-2.73145 0 -6.54004 1.54492 -8.5 3.44922l-72.5996 71.3994c-8.24023 8.05371 -14.9277 23.9414 -14.9277 35.4639c0 13.1641 8.3457 30.5176 18.6279 38.7363z" />
    <glyph glyph-name="hand-holding-primary" unicode="&#xf4bd;" horiz-adv-x="576" 
 />
    <glyph glyph-name="hand-holding-heart-primary" unicode="&#xf4be;" horiz-adv-x="576" 
d="M404.1 430.48c35.4004 -30.6006 37.2002 -85.6006 5.60059 -118.801l-108.9 -114.199c-2.85156 -3.06445 -8.56445 -5.55078 -12.75 -5.55078s-9.89746 2.48633 -12.75 5.55078l-108.899 114.199c-31.6006 33.2002 -29.7002 88.2002 5.59961 118.801
c30.7998 26.6992 76.7002 21.8994 104.9 -7.80078l11.0996 -11.5996l11.2002 11.7002c28.2002 29.5996 74.0996 34.3994 104.899 7.7002z" />
    <glyph glyph-name="hand-holding-seedling-primary" unicode="&#xf4bf;" horiz-adv-x="576" 
d="M160 448c88.3203 0 160 -71.6797 160 -160v-112c0 -8.83203 -7.16797 -16 -16 -16h-32c-8.83203 0 -16 7.16797 -16 16v112c-88.3203 0 -160 71.6797 -160 160h64zM416 448h64c0 -77.5 -55.0996 -142 -128.2 -156.8c-0.56543 35.9307 -19.2021 87.8984 -41.5996 116
c28.2998 25.0996 65.0996 40.7998 105.8 40.7998z" />
    <glyph glyph-name="hand-holding-usd-primary" unicode="&#xf4c0;" horiz-adv-x="576" 
d="M329.29 225.6v-17.5996c0 -8.7998 -7.77051 -16 -17.2598 -16h-17.25c-9.48047 0 -17.25 7.2002 -17.25 16v17.7002c-10.1729 1.05469 -25.5303 6.20605 -34.2803 11.5c-3.04199 1.84766 -5.51074 6.23535 -5.51074 9.79492c0 2.86035 1.74316 6.71582 3.89062 8.60449
l18.8701 17.5c4 3.7002 10 4.2002 15.2002 2c2.94727 -1.20508 7.9248 -2.19043 11.1094 -2.19922h35.3604c5 0 9.06055 3.7998 9.06055 8.39941c-0.103516 3.62695 -3.05176 7.25586 -6.58008 8.10059l-53.9102 14.2998c-23.9307 6.39941 -43.1299 24.7002 -46.25 47.7002
c-4.31055 32 20.4795 59.3994 53.1494 63v17.5996c0 8.7998 7.76074 16 17.25 16h17.25c9.49023 0 17.25 -7.2002 17.25 -16v-17.7002c10.1748 -1.05469 25.5371 -6.20703 34.29 -11.5c3.03906 -1.84961 5.50488 -6.23926 5.50488 -9.7959
c0 -2.85938 -1.74023 -6.71387 -3.88477 -8.60352l-18.8701 -17.5c-4 -3.7002 -10 -4.2002 -15.1992 -2c-2.94824 1.2041 -7.92578 2.18945 -11.1104 2.19922h-35.3604c-5 0 -9.05957 -3.7998 -9.05957 -8.39941c0.103516 -3.62695 3.05078 -7.25586 6.58008 -8.10059
l53.9102 -14.2998c23.9297 -6.39941 43.1191 -24.7002 46.25 -47.7002c4.30957 -32 -20.4404 -59.3994 -53.1504 -63z" />
    <glyph glyph-name="hand-holding-water-primary" unicode="&#xf4c1;" horiz-adv-x="576" 
d="M300.8 441.62c26.1006 -34.8896 83.2002 -115.62 83.2002 -155.62c0 -51.9004 -43 -94 -96 -94s-96 42.0996 -96 94c0 40 57.0996 120.71 83.2002 155.6c2.64941 3.53906 8.38672 6.41016 12.8076 6.41016c4.41113 0 10.1426 -2.8623 12.792 -6.38965z" />
    <glyph glyph-name="hands-primary" unicode="&#xf4c2;" horiz-adv-x="640" 
 />
    <glyph glyph-name="hands-heart-primary" unicode="&#xf4c3;" horiz-adv-x="640" 
d="M198.4 311.68c-31.6006 33.2002 -29.7002 88.2002 5.59961 118.801c30.7998 26.6992 76.7002 21.8994 104.9 -7.80078l11.0996 -11.5996l11.0996 11.7002c28.2002 29.5996 74.1006 34.3994 104.9 7.7002c35.4004 -30.6006 37.2002 -85.6006 5.7002 -118.801
l-108.9 -114.199c-2.85156 -3.06445 -8.56445 -5.55078 -12.75 -5.55078s-9.89746 2.48633 -12.75 5.55078z" />
    <glyph glyph-name="hands-helping-primary" unicode="&#xf4c4;" horiz-adv-x="640" 
d="M4.32031 90.6201c-2.38477 4.10449 -4.31934 11.2871 -4.31934 16.0342c0 10.1895 7.16699 22.583 15.999 27.666l80 46.1992v47.3008c0.00488281 19.9932 13.9385 44.543 31.0996 54.7998l64.8906 39v-121.62c0 -39.7441 32.2559 -72 72 -72s72 32.2559 72 72v56h152.01
h0.0605469c13.2148 0 23.9395 -10.7246 23.9395 -23.9395v-0.0605469v-48v-0.0605469c0 -13.2148 -10.7246 -23.9395 -23.9395 -23.9395h-0.0605469h-8v-64c0 -17.6641 -14.3359 -32 -32 -32h-16c-0.0332031 -35.2949 -28.7051 -63.9668 -64 -64h-136.59l-103.41 -59.6797
c-4.09668 -2.36328 -11.2598 -4.28125 -15.9893 -4.28125c-10.1826 0 -22.5879 7.15039 -27.6904 15.9609z" />
    <glyph glyph-name="hands-usd-primary" unicode="&#xf4c5;" horiz-adv-x="640" 
d="M246.7 351.4c-4.10059 32 19 59.3994 49.2998 63v17.5996c0 8.83203 7.16797 16 16 16h16c8.83203 0 16 -7.16797 16 -16v-17.7002c9.52637 -1.09961 23.7734 -6.25195 31.7998 -11.5c6.2002 -4.09961 6.7998 -13.0996 1.5 -18.3994l-17.5 -17.5
c-3.7002 -3.7002 -9.2998 -4.2002 -14.0996 -2c-2.71582 1.20117 -7.33008 2.18652 -10.2998 2.19922h-32.8008h-0.00195312c-4.64258 0 -8.41016 -3.76758 -8.41016 -8.40918c0 -3.50781 2.73828 -7.13184 6.1123 -8.09082l50.1006 -14.2998
c22.1992 -6.39941 40 -24.7002 42.8994 -47.7002c0.257812 -1.98438 0.466797 -5.2207 0.466797 -7.22266c0 -27.6494 -22.2959 -52.6377 -49.7666 -55.7773v-17.5996c0 -8.83203 -7.16797 -16 -16 -16h-16c-8.83203 0 -16 7.16797 -16 16v17.7002
c-9.52637 1.09961 -23.7734 6.25195 -31.7998 11.5c-6.2002 4.09961 -6.7998 13.0996 -1.5 18.3994l17.5 17.5c3.7002 3.7002 9.2998 4.2002 14.0996 2c2.71582 -1.20117 7.33008 -2.18652 10.2998 -2.19922h32.8008h0.00195312c4.64258 0 8.41016 3.76758 8.41016 8.40918
c0 3.50781 -2.73828 7.13184 -6.1123 8.09082l-50.1006 14.2998c-22.1992 6.39941 -40 24.7002 -42.8994 47.7002z" />
    <glyph glyph-name="handshake-alt-primary" unicode="&#xf4c6;" horiz-adv-x="640" 
d="M0 112.1v191.9c0 8.83203 7.16797 16 16 16h112l54.7002 54.5996c5.16113 5.18262 15.2861 9.39355 22.5996 9.40039h83.7998l-81.7998 -74.9004c-12.873 -11.8125 -23.3213 -35.5791 -23.3213 -53.0508c0 -15.458 8.47656 -37.2529 18.9219 -48.6484
c14.8994 -16.3008 61.0996 -41.5 101.699 -4.40039l30 27.5l149.301 -121.2c6.51562 -5.31055 11.8037 -16.4443 11.8037 -24.8506c0 -6.2959 -3.22754 -15.3682 -7.2041 -20.249l-9.5 -11.7002c-5.30176 -6.53613 -16.4355 -11.8398 -24.8506 -11.8398
c-6.25977 0 -15.2861 3.19824 -20.1494 7.13965l-5.40039 4.40039l-31.3994 -38.6006c-6.15723 -7.58203 -19.0801 -13.7354 -28.8477 -13.7354c-7.29102 0 -17.7969 3.73438 -23.4521 8.33594l-17.9004 15.5l-0.200195 -0.200195
c-10.6025 -13.0381 -32.8477 -23.6201 -49.6533 -23.6201c-12.5381 0 -30.6133 6.41602 -40.3467 14.3203l-90.5 81.8994h-130.3c-8.83203 0 -16 7.16797 -16 16z" />
    <glyph glyph-name="heart-circle-primary" unicode="&#xf4c7;" 
d="M379.5 167.7l-110.6 -114.2c-2.91797 -3.06445 -8.71973 -5.55176 -12.9502 -5.55176c-4.23145 0 -10.0332 2.4873 -12.9502 5.55176l-110.5 114.2c-32.0996 33.2002 -30.2002 88.2002 5.7002 118.8c31.2998 26.7002 77.8994 21.9004 106.6 -7.7002l11.2998 -11.5996
l11.3008 11.5996c28.6992 29.6006 75.2998 34.4004 106.6 7.7002c35.7998 -30.5996 37.7002 -85.5996 5.5 -118.8z" />
    <glyph glyph-name="heart-square-primary" unicode="&#xf4c8;" horiz-adv-x="448" 
d="M106.2 286.5c31.2998 26.7002 77.8994 21.9004 106.6 -7.7002l11.2998 -11.5996l11.3008 11.5996c28.6992 29.6006 75.2998 34.4004 106.6 7.7002c35.7998 -30.5996 37.7002 -85.5996 5.5 -118.8l-110.6 -114.2c-2.91797 -3.06445 -8.71973 -5.55176 -12.9502 -5.55176
c-4.23145 0 -10.0332 2.4873 -12.9502 5.55176l-110.5 114.2c-32.0996 33.2002 -30.2002 88.2002 5.7002 118.8z" />
    <glyph glyph-name="leaf-heart-primary" unicode="&#xf4cb;" horiz-adv-x="576" 
d="M245.65 242.68c24 20 59.5996 16.4004 81.5996 -5.7998l8.59961 -8.7002l8.60059 8.7002c22 22.2002 57.7002 25.7998 81.5996 5.7998c12.085 -10.0283 21.8926 -30.9131 21.8926 -46.6172c0 -13.6904 -7.79199 -32.7227 -17.3926 -42.4824l-84.7002 -85.5801
c-2.25781 -2.27734 -6.69238 -4.12598 -9.89941 -4.12598s-7.64258 1.84863 -9.90039 4.12598l-84.7002 85.5996c-9.62598 9.77441 -17.4375 28.8398 -17.4375 42.5586c0 15.6436 9.73828 36.4854 21.7383 46.5215z" />
    <glyph glyph-name="loveseat-primary" unicode="&#xf4cc;" 
d="M512 192c-0.0742188 -20.2939 -14.4102 -44.9785 -32 -55.0996v-120.9c0 -8.83203 -7.16797 -16 -16 -16h-64c-8.83203 0 -16 7.16797 -16 16v16h-256v-16c0 -8.83203 -7.16797 -16 -16 -16h-64c-8.83203 0 -16 7.16797 -16 16v120.9
c-17.6699 10.1523 -32.0107 34.9307 -32.0107 55.3096c0 35.2129 28.5781 63.79 63.79 63.79h0.220703h32c17.6641 0 32 -14.3359 32 -32v-96h256v96c0 17.6641 14.3359 32 32 32h32c35.2949 -0.0332031 63.9668 -28.7051 64 -64z" />
    <glyph glyph-name="parachute-box-primary" unicode="&#xf4cd;" 
d="M0.0996094 273c9.10059 75.5 78.4004 132.3 158.301 158.7c-36.4004 -39.4004 -62.4004 -100.601 -62.4004 -175.7h-79.9004c-9.19922 0 -17.0996 7.90039 -16 17zM256 448c59.0996 0 128 -76.7998 128 -192h-256c0 115.2 68.9004 192 128 192zM511.9 273
c1.09961 -9.2002 -6.80078 -17 -16.1006 -17h-79.7998c0 75.0996 -26 136.3 -62.4004 175.7c79.9004 -26.2998 149.2 -83.1006 158.301 -158.7z" />
    <glyph glyph-name="people-carry-primary" unicode="&#xf4ce;" horiz-adv-x="640" 
d="M637.71 -20.0996c1.26562 -3.16113 2.29297 -8.48926 2.29297 -11.8945c0 -11.9531 -9.00586 -25.2617 -20.1025 -29.7061c-3.11523 -1.26953 -8.37305 -2.2998 -11.7373 -2.2998h-0.163086c-11.9463 0.00585938 -25.2471 9.01074 -29.6904 20.0996l-27.6895 69.2002
l2 18.2002l41.0898 46.4004zM46.3096 89.9004l41.1104 -46.4004l2 -18.2002l-27.71 -69.2002c-4.5498 -10.8145 -17.7637 -19.5908 -29.4961 -19.5908c-17.6641 0 -32 14.3359 -32 32c0 3.25 0.939453 8.35352 2.0957 11.3916zM196.62 252.1l11.2998 -33.8994
l16.0605 -10.2002v-75.5801c-0.410156 0.219727 -0.810547 0.44043 -1.19043 0.679688l-51.0996 32.5c-12.5908 9.2002 -20.4004 20.1006 -24.5 32.6006l-6.79004 20.3994l-17.6104 -70.2998l43.3096 -49c7.33398 -8.30957 14.3184 -23.9902 15.5908 -35l10.0996 -92.7998
c0.109375 -0.975586 0.197266 -2.56543 0.197266 -3.54688c0 -15.8184 -12.7617 -30.043 -28.4873 -31.7529c-1.20996 -0.100586 -2.30957 -0.200195 -3.5 -0.200195c-15.8184 0.00878906 -30.0596 12.7773 -31.79 28.5l-10.0898 92.5996l-67.2002 75.9004
c-8.84668 10.0186 -16.0264 28.9971 -16.0264 42.3623c0 4.00781 0.728516 10.4316 1.62598 14.3379l18.4004 80.2002c4.08203 17.627 20.8828 37.7422 37.5 44.8994c6.54883 2.87695 17.6699 5.21191 24.8232 5.21191c9.27148 0 23.2842 -3.81348 31.2764 -8.51172
c19.4229 -11.417 40.9717 -38.0283 48.1006 -59.4004zM603.52 189.7c0.87793 -3.875 1.58984 -10.2451 1.58984 -14.2178c0 -13.3887 -7.16797 -32.4209 -15.999 -42.4824l-67.1904 -75.9004l-10.1104 -92.5996c-1.72949 -15.7227 -15.9717 -28.4912 -31.79 -28.5
c-1.20996 0 -2.30957 0.0996094 -3.5 0.200195c-15.7324 1.73047 -28.501 15.9805 -28.501 31.8076c0 0.966797 0.0859375 2.53125 0.191406 3.49219l10.0996 92.7998c1.27051 11.0156 8.26367 26.6953 15.6104 35l43.29 49l-17.5898 70.2998l-6.81055 -20.3994
c-4.09961 -12.6006 -11.8896 -23.4004 -24.5 -32.6006l-51.0996 -32.5c-0.379883 -0.239258 -0.790039 -0.469727 -1.20996 -0.699219v75.5996l16 10.2002l11.29 33.8994c7.17383 21.3389 28.7275 47.9502 48.1104 59.4004c7.99219 4.7002 22.0039 8.51465 31.2754 8.51465
c7.15332 0 18.2754 -2.33594 24.8242 -5.21484c16.6172 -7.15723 33.418 -27.2725 37.5 -44.8994z" />
    <glyph glyph-name="person-carry-primary" unicode="&#xf4cf;" horiz-adv-x="384" 
d="M0 -31.9004v129.601c0.599609 -0.5 48 -41.4004 64 -55.1006v-74.5c0 -17.6641 -14.3359 -32 -32 -32s-32 14.3359 -32 32zM128 160l-32 59.9004v-78.3008l44 -37.6992c9.73047 -8.37305 19.3623 -25.4424 21.5 -38.1006l14.0996 -92.5
c0.238281 -1.43555 0.431641 -3.78125 0.431641 -5.23633c0 -14.96 -11.9756 -29.1006 -26.7314 -31.5635c-26.7002 -4.40039 -35.7998 20.5996 -36.7998 26.2998l-14.0996 92.5l-76 65.1006c-12.3506 10.5703 -22.3857 32.3438 -22.4004 48.5996v103
c0 26.4961 21.5039 48 48 48h28.7002h0.0761719c21.3115 0 46.6338 -15.3213 56.5234 -34.2002l33.2998 -61.7998h25.4004v-64h-64z" />
    <glyph glyph-name="person-dolly-primary" unicode="&#xf4d0;" 
d="M479 127.1c0.301758 -1.125 0.546875 -2.9834 0.546875 -4.14844c0 -6.77148 -5.30762 -13.6934 -11.8467 -15.4512l-117 -31.2998c-1.125 -0.301758 -2.9834 -0.546875 -4.14844 -0.546875c-6.77148 0 -13.6943 5.30664 -15.4521 11.8467l-31.3994 116.9
c-0.301758 1.125 -0.546875 2.9834 -0.546875 4.14844c0 6.77148 5.30664 13.6934 11.8467 15.4512l117 31.2998c1.125 0.301758 2.9834 0.546875 4.14844 0.546875c6.77148 0 13.6943 -5.30664 15.4512 -11.8467zM0 -31.9004v129.601c0.5 -0.5 48 -41.4004 64 -55.1006
v-74.5c0 -17.6641 -14.3359 -32 -32 -32s-32 14.3359 -32 32zM128 160.1l-32 59.9004v-78.2998l44 -37.7002c9.73145 -8.37305 19.3633 -25.4414 21.5 -38.0996l14.0996 -92.5c0.238281 -1.43555 0.431641 -3.78223 0.431641 -5.2373
c0 -14.96 -11.9756 -29.0996 -26.7314 -31.5635c-26.7002 -4.39941 -35.7998 20.6006 -36.7998 26.3008l-14.0996 92.5l-76 65.0996c-12.3477 10.5723 -22.3828 32.3447 -22.4004 48.5996v103c0 26.4961 21.5039 48 48 48h28.7002
c0.0449219 0.000976562 0.118164 0.000976562 0.164062 0.000976562c21.3135 0 46.6416 -15.3223 56.5361 -34.2002l33.2998 -61.8008h39l17.0996 -64h-94.7998z" />
    <glyph glyph-name="person-dolly-empty-primary" unicode="&#xf4d1;" 
d="M0 -31.9004v129.601c0.5 -0.5 48 -41.4004 64 -55.1006v-74.5c0 -17.6641 -14.3359 -32 -32 -32s-32 14.3359 -32 32zM205.7 224.1l17.0996 -64h-94.7998l-32 59.9004v-78.2998l44 -37.7002c9.73145 -8.37305 19.3633 -25.4414 21.5 -38.0996l14.0996 -92.5
c0.238281 -1.43555 0.431641 -3.78223 0.431641 -5.2373c0 -14.96 -11.9756 -29.0996 -26.7314 -31.5635c-26.7002 -4.39941 -35.7998 20.6006 -36.7998 26.3008l-14.0996 92.5l-76 65.0996c-12.3477 10.5723 -22.3828 32.3447 -22.4004 48.5996v103
c0 26.4961 21.5039 48 48 48h28.7002c0.0449219 0.000976562 0.118164 0.000976562 0.164062 0.000976562c21.3135 0 46.6416 -15.3223 56.5361 -34.2002l33.2998 -61.8008h39z" />
    <glyph glyph-name="phone-plus-primary" unicode="&#xf4d2;" 
d="M512 400c0 -256.5 -207.9 -464 -464 -464h-0.015625c-10.5371 0 -21.0137 8.33301 -23.3848 18.5996l-24 104c-0.326172 1.45312 -0.591797 3.84082 -0.591797 5.33008c0 8.78613 6.53711 18.7627 14.5918 22.2705l112 48c2.48926 1.06055 6.7041 1.9209 9.41016 1.9209
c6.28613 0 14.6143 -3.95215 18.5898 -8.82129l49.6006 -60.5996c66.4766 31.3369 145.862 110.723 177.2 177.2l-60.6006 49.5996c-4.87598 3.96582 -8.83398 12.2871 -8.83398 18.5723c0 2.71191 0.866211 6.93555 1.93457 9.42773l48 112
c3.49219 8.00098 13.4121 14.4941 22.1416 14.4941c1.5 0 3.90527 -0.270508 5.36816 -0.604492l104 -24c10.2617 -2.37402 18.5898 -12.8496 18.5898 -23.3818v-0.0078125z" />
    <glyph glyph-name="piggy-bank-primary" unicode="&#xf4d3;" horiz-adv-x="576" 
d="M560 224c8.83203 0 16 -7.16797 16 -16v-128c0 -8.83203 -7.16797 -16 -16 -16h-48.7197c-7.42969 -9.83789 -21.4424 -23.8506 -31.2803 -31.2803v-80.7197c0 -8.83203 -7.16797 -16 -16 -16h-64c-8.83203 0 -16 7.16797 -16 16v48h-128v-48
c0 -8.83203 -7.16797 -16 -16 -16h-64c-8.83203 0 -16 7.16797 -16 16v80.7305v-0.730469c-35.3281 26.4531 -64 83.7412 -64 127.875v0.125c0 81.1201 65.1699 160 160 160h128c7.87988 0 15.4297 -1.21973 23 -2.32031c17.6104 20.8203 43.5996 34.3203 73 34.3203h32
l-18.8896 -75.54c13.2959 -12.3555 30.043 -35.8574 37.3799 -52.46h29.5098zM432 160c8.83203 0 16 7.16797 16 16s-7.16797 16 -16 16s-16 -7.16797 -16 -16s7.16797 -16 16 -16z" />
    <glyph glyph-name="ramp-loading-primary" unicode="&#xf4d4;" horiz-adv-x="384" 
d="M292.4 119.2l80 -160c0.944336 -1.875 1.71094 -5.10059 1.71094 -7.2002c0 -8.83203 -7.16797 -16 -16 -16h-0.0117188h-332.199h-0.0117188c-8.83203 0 -16 7.16797 -16 16c0 2.09961 0.766602 5.3252 1.71094 7.2002l80 160
c2.42969 4.85742 8.80859 8.7998 14.2393 8.7998h0.0615234h172.199h0.0615234c5.43066 0 11.8096 -3.94238 14.2393 -8.7998z" />
    <glyph glyph-name="ribbon-primary" unicode="&#xf4d6;" horiz-adv-x="448" 
d="M89.3398 219.31c-48.5996 53.8008 -13 113.5 -11.5 116l43.6006 73.2002c3.53125 5.99902 11.0576 14.0635 16.7998 18c44 29.7002 130.7 27.6006 171.399 0c5.74219 -3.93652 13.2686 -12.001 16.8008 -18l43.6992 -73.5
c7.58984 -12.7598 13.749 -35.166 13.749 -50.0127c0 -20.7393 -11.2666 -50.0781 -25.1484 -65.4873l-34.2002 -38l-79.0996 87.7002s52.6992 59 56 64.5996c-15.4004 8.40039 -40.2002 17.9004 -77.5 17.9004c-37.3008 0 -62.1006 -9.5 -77.5 -17.9004
c3.39941 -5.5 295.399 -330.1 295.399 -330.1c3.38477 -3.74512 6.13184 -10.8818 6.13184 -15.9307c0 -6.95508 -4.67383 -15.7676 -10.4316 -19.6689l-68.7998 -27.9004c-3.36719 -2.2832 -9.40137 -4.13574 -13.4697 -4.13574
c-5.89551 0 -13.8838 3.55566 -17.8301 7.93555z" />
    <glyph glyph-name="seedling-primary" unicode="&#xf4d8;" 
d="M288 128v-144c0 -8.83203 -7.16797 -16 -16 -16h-32c-8.83203 0 -16 7.16797 -16 16v144c-123.7 0 -224 100.3 -224 224h64c123.7 0 224 -100.3 224 -224z" />
    <glyph glyph-name="sign-primary" unicode="&#xf4d9;" 
d="M160 64v224h320v-224h-320z" />
    <glyph glyph-name="tape-primary" unicode="&#xf4db;" horiz-adv-x="640" 
d="M288 192c0 -35.3281 -28.6719 -64 -64 -64s-64 28.6719 -64 64s28.6719 64 64 64c35.2949 -0.0332031 63.9668 -28.7051 64 -64z" />
    <glyph glyph-name="truck-container-primary" unicode="&#xf4dc;" horiz-adv-x="640" 
d="M621.3 210.7c10.3223 -10.3232 18.7002 -30.5498 18.7002 -45.1475v-0.152344v-85.5c0 -8.83203 -7.16797 -16 -16 -16h-17.4697c0.00195312 -0.0332031 0.00292969 -0.0869141 0.00292969 -0.120117s-0.000976562 -0.0869141 -0.00292969 -0.120117
c-13.4775 26.6611 -48.6621 48.2988 -78.5361 48.2988c-29.8135 0 -64.9658 -21.5752 -78.4639 -48.1592h-41.5303v0.200195h-392c-8.83203 0 -16 7.16797 -16 16v15.9004c0 8.83203 7.16797 16 16 16h416v144c0 17.6641 14.3359 32 32 32h53.5h0.0898438
c14.6133 0 34.8672 -8.37793 45.21 -18.7002zM480 192h92.0996l-43.2998 43.2998c-2.58398 2.58301 -7.64648 4.68848 -11.2998 4.7002h-37.5v-48zM32 144c-17.6641 0 -32 14.3359 -32 32v208c0 17.6641 14.3359 32 32 32h336c17.6641 0 32 -14.3359 32 -32v-208
c0 -17.6641 -14.3359 -32 -32 -32h-336zM304 368v-176h32v176h-32zM224 368v-176h32v176h-32zM144 368v-176h32v176h-32zM64 368v-176h32v176h-32z" />
    <glyph glyph-name="truck-couch-primary" unicode="&#xf4dd;" horiz-adv-x="640" 
d="M384 448h256v-331.44c-21.0576 23.9795 -64.0479 43.4404 -95.9609 43.4404h-0.0390625c-67 0 -122.09 -51.7002 -127.55 -117.3c-0.0498047 0.339844 -0.0498047 0.669922 -0.0498047 1l-393.7 -107.4c-0.566406 -0.152344 -1.50098 -0.276367 -2.08691 -0.276367
c-3.36523 0 -6.82031 2.63281 -7.71289 5.87695l-12.6006 46.2998c-0.152344 0.56543 -0.276367 1.50098 -0.276367 2.08691c0 3.36426 2.63281 6.82031 5.87695 7.71289l346.1 94.4004v323.6c0 17.6641 14.3359 32 32 32z" />
    <glyph glyph-name="truck-loading-primary" unicode="&#xf4de;" horiz-adv-x="640" 
d="M384 448h256v-331.44c-21.0576 23.9795 -64.0479 43.4404 -95.9609 43.4404h-0.0390625c-67 0 -122.09 -51.7002 -127.55 -117.3c-0.0498047 0.339844 -0.0498047 0.669922 -0.0498047 1l-393.7 -107.4c-0.566406 -0.152344 -1.50098 -0.276367 -2.08691 -0.276367
c-3.36523 0 -6.82031 2.63281 -7.71289 5.87695l-12.6006 46.2998c-0.152344 0.56543 -0.276367 1.50098 -0.276367 2.08691c0 3.36426 2.63281 6.82031 5.87695 7.71289l346.1 94.4004v323.6c0 17.6641 14.3359 32 32 32zM175.8 222l-61.7998 -16.5l-24.7998 92.7002
l61.7998 16.5z" />
    <glyph glyph-name="truck-moving-primary" unicode="&#xf4df;" horiz-adv-x="640" 
d="M621.3 210.7c10.3223 -10.3154 18.7002 -30.5303 18.7002 -45.123v-0.0771484v-85.5c0 -8.83203 -7.16797 -16 -16 -16h-5.49023c-12.4971 35.3125 -53.041 63.9727 -90.5 63.9727s-78.0029 -28.6602 -90.5 -63.9727h-123
c-12.501 35.3047 -53.042 63.957 -90.4941 63.957c-28.4492 0 -64.2969 -19.2441 -80.0156 -42.957c-15.6934 23.7344 -51.5234 42.9971 -79.9775 42.9971c-20.2588 0 -48.9414 -10.9795 -64.0225 -24.5068v280.51c0 17.6641 14.3359 32 32 32h416
c17.6641 0 32 -14.3359 32 -32v-96.0996h37.5h0.0898438c14.6133 0 34.8672 -8.37793 45.21 -18.7002zM480 192h92.0996l-43.2998 43.2998c-2.57129 2.59473 -7.62402 4.7002 -11.2773 4.7002h-0.0224609h-37.5v-48z" />
    <glyph glyph-name="truck-ramp-primary" unicode="&#xf4e0;" horiz-adv-x="640" 
d="M384 448h256v-331.44c-21.0576 23.9795 -64.0479 43.4404 -95.9609 43.4404h-0.0390625c-67 0 -122.09 -51.7002 -127.55 -117.3c-0.0498047 0.339844 -0.0498047 0.669922 -0.0498047 1l-393.7 -107.4c-0.566406 -0.152344 -1.50098 -0.276367 -2.08691 -0.276367
c-3.36523 0 -6.82031 2.63281 -7.71289 5.87695l-12.6006 46.2998c-0.152344 0.56543 -0.276367 1.50098 -0.276367 2.08691c0 3.36426 2.63281 6.82031 5.87695 7.71289l346.1 94.4004v323.6c0 17.6641 14.3359 32 32 32z" />
    <glyph glyph-name="video-plus-primary" unicode="&#xf4e1;" horiz-adv-x="576" 
d="M336.2 384c26.3857 0 47.7998 -21.4141 47.7998 -47.7998v-288.4c0 -26.3857 -21.4141 -47.7998 -47.7998 -47.7998v0h-288.4c-26.3857 0 -47.7998 21.4141 -47.7998 47.7998v288.4c0 26.3857 21.4141 47.7998 47.7998 47.7998h288.4zM304 184v16
c0 8.83203 -7.16797 16 -16 16h-72v72c0 8.83203 -7.16797 16 -16 16h-16c-8.83203 0 -16 -7.16797 -16 -16v-72h-72c-8.83203 0 -16 -7.16797 -16 -16v-16c0 -8.83203 7.16797 -16 16 -16h72v-72c0 -8.83203 7.16797 -16 16 -16h16c8.83203 0 16 7.16797 16 16v72h72
c8.83203 0 16 7.16797 16 16z" />
    <glyph glyph-name="video-slash-primary" unicode="&#xf4e2;" horiz-adv-x="640" 
d="M3.37012 416.63l19.6299 25.2002c2.66211 3.40625 8.33105 6.17188 12.6543 6.17188c3.03613 0 7.44727 -1.51074 9.8457 -3.37207l588.3 -454.7c3.42676 -2.62598 6.20898 -8.26172 6.20898 -12.5801c0 -3.03613 -1.52734 -7.43555 -3.40918 -9.81934l-19.5996 -25.2998
c-2.66211 -3.40723 -8.33105 -6.17188 -12.6543 -6.17188c-3.03613 0 -7.44727 1.51074 -9.8457 3.37109l-588.33 454.801c-3.40918 2.63965 -6.17578 8.28223 -6.17578 12.5938c0 3.02734 1.5127 7.41992 3.37598 9.80566z" />
    <glyph glyph-name="heart-secondary" unicode="&#x10f004;" 
d="M414.64 233.12l-158.64 -163.851l-158.69 163.82c-22.8496 23.6201 -24.6699 66.6201 4.29004 91.3906c24.1602 20.5898 58.4004 11.1191 77.21 -8.33008l0.0800781 -0.0800781l77.1104 -79.4902l77.1104 79.4199c20.1494 20.7998 54.1699 28 77.2197 8.41992
c29.2002 -24.79 27.1104 -67.7695 4.30957 -91.2998z" />
    <glyph glyph-name="video-secondary" unicode="&#x10f03d;" horiz-adv-x="576" 
d="M525.6 37.7998l-109.6 75.5v157.4l109.6 75.5996c21.3008 14.6006 50.4004 -0.399414 50.4004 -25.7998v-256.9c0 -25.5 -29.2002 -40.3994 -50.4004 -25.7998z" />
    <glyph glyph-name="leaf-secondary" unicode="&#x10f06c;" horiz-adv-x="576" 
d="M576 293.69c0 -172.381 -110.51 -313.171 -267.53 -324.57c-5.63379 -0.600586 -14.8037 -1.10254 -20.4697 -1.12012v0.549805h-0.25h-0.0888672c-60.7588 0 -134.921 42.5918 -165.541 95.0703l0.769531 0.849609c29.5801 32.2305 62.2803 57.8398 97.1807 76.1201
c35.833 18.7969 97.7559 34.0527 138.221 34.0527c0.325195 0 0.853516 -0.000976562 1.17871 -0.00292969c13.3545 0.269531 24.1934 11.3281 24.1934 24.6855s-10.8389 24.416 -24.1934 24.6846c-0.360352 0.00195312 -0.944336 0.00292969 -1.30469 0.00292969
c-47.3574 0 -119.77 -17.9658 -161.635 -40.1025c-33.7705 -17.8105 -65.5605 -41.4805 -94.7705 -70.4902c-3.17969 12.6885 -5.75977 33.6035 -5.75977 46.6836v0.176758c0 105.89 85.8604 191.72 191.77 191.72h80.2305c63.4004 0 118.91 33.5898 149.91 87.4902
c6.7002 11.7998 22.71 11.2998 28.3096 -1.2002c18.9805 -42.4102 29.7803 -94.4004 29.7803 -144.6z" />
    <glyph glyph-name="comment-secondary" unicode="&#x10f075;" 
d="M256 80c-100.54 0 -176 62.3096 -176 128c0 65.4297 75.2002 128 176 128c100.54 0 176 -62.3096 176 -128c0 -65.4297 -75.2002 -128 -176 -128z" />
    <glyph glyph-name="comments-secondary" unicode="&#x10f086;" horiz-adv-x="576" 
d="M208 96c-41 0 -79.0996 9.2998 -111.3 25c-21.7998 -12.7002 -52.1006 -25 -88.7002 -25h-0.0800781c-2.87305 0 -6.1084 2.15039 -7.21973 4.7998c-0.373047 0.848633 -0.674805 2.29004 -0.674805 3.2168c0 1.75098 0.973633 4.20801 2.1748 5.4834
c0.299805 0.299805 22.3994 24.2998 35.7998 54.5c-23.9004 26.0996 -38 57.7002 -38 92c0 88.4004 93.0996 160 208 160s208 -71.5996 208 -160s-93.0996 -160 -208 -160z" />
    <glyph glyph-name="globe-secondary" unicode="&#x10f0ac;" 
d="M348.45 128h-184.9c-1.95898 17.6094 -3.5498 46.2812 -3.5498 64s1.59082 46.3906 3.5498 64h184.9c1.95996 -17.4717 3.5498 -45.9199 3.5498 -63.501v-0.499023v-0.499023c0 -17.5811 -1.58984 -46.0293 -3.5498 -63.501zM168.2 288
c0.410156 2.30957 0.799805 4.62012 1.33008 6.91016c5.96973 30.8496 14.4199 58.3701 25.1299 81.7803c9.84961 21.54 21.3398 38.7695 33.3398 49.8291c9.62012 8.9502 19.0596 13.4805 28 13.4805s18.3799 -4.53027 28.0498 -13.4805
c11.9502 -11.0596 23.4902 -28.2891 33.3398 -49.8291c10.71 -23.4102 19.1299 -50.9307 25.1299 -81.7803c0.44043 -2.29004 0.870117 -4.60059 1.28027 -6.91016h-175.6zM128 192v-0.362305c0 -17.6123 1.49609 -46.1221 3.33984 -63.6377h-115
c-4.60938 17.3633 -8.34961 46.0352 -8.34961 64s3.74023 46.6367 8.34961 64h115c-1.84375 -17.5156 -3.33984 -46.0254 -3.33984 -63.6377v-0.362305zM495.65 256c4.60938 -17.3633 8.35938 -46.0352 8.35938 -64s-3.74023 -46.6367 -8.34961 -64h-115
c1.84375 17.5156 3.33984 46.0254 3.33984 63.6377v0.362305v0.267578c0 17.6387 -1.50098 46.1914 -3.34961 63.7324h115zM484.73 288h-108.4c-9.86035 59.5303 -28.6201 109.68 -52.75 142.68c63.3838 -18.0254 135.579 -81.9463 161.15 -142.68zM323.58 -46.6797
c24.1299 33 42.8896 83.1494 52.75 142.68h108.4c-25.5713 -60.7334 -97.7666 -124.654 -161.15 -142.68zM343.8 96c-0.410156 -2.30957 -0.799805 -4.62012 -1.28027 -6.91016c-5.96973 -30.8496 -14.4199 -58.3701 -25.1299 -81.7803
c-9.84961 -21.54 -21.3398 -38.7695 -33.3398 -49.8291c-9.66992 -8.9502 -19.1094 -13.4805 -28.0498 -13.4805s-18.3799 4.48047 -28.0498 13.4805c-11.96 11.0596 -23.4902 28.2891 -33.3398 49.8291c-10.71 23.4102 -19.1299 50.9307 -25.1299 81.7803
c-0.44043 2.29004 -0.870117 4.60059 -1.28027 6.91016h175.6zM188.42 430.68c-24.1299 -33 -42.8896 -83.1494 -52.75 -142.68h-108.4c25.5713 60.7334 97.7666 124.654 161.15 142.68zM27.2695 96h108.4c9.86035 -59.5303 28.6201 -109.68 52.75 -142.68
c-63.3838 18.0254 -135.579 81.9463 -161.15 142.68z" />
    <glyph glyph-name="suitcase-secondary" unicode="&#x10f0f2;" 
d="M80 -32v352h48v-352h-48zM384 320h48v-352h-48v352z" />
    <glyph glyph-name="quote-left-secondary" unicode="&#x10f10d;" 
d="M464 192c26.4961 0 48 -21.5039 48 -48v-128c0 -26.4961 -21.5039 -48 -48 -48h-128c-26.4961 0 -48 21.5039 -48 48v240c0 88.3203 71.6797 160 160 160h8.12012c13.1816 -0.0332031 23.8799 -10.7578 23.8799 -23.9395v-0.0605469v-48.1201
c-0.0332031 -13.1816 -10.7578 -23.8799 -23.9395 -23.8799h-0.0605469h-8c-35.2949 -0.0332031 -63.9668 -28.7051 -64 -64v-64h80z" />
    <glyph glyph-name="quote-right-secondary" unicode="&#x10f10e;" 
d="M176 416c26.4961 0 48 -21.5039 48 -48v-240c0 -88.3203 -71.6797 -160 -160 -160h-8.12012c-13.1816 0.0332031 -23.8799 10.7578 -23.8799 23.9395v0.0605469v48.1201c0.0332031 13.1816 10.7578 23.8799 23.9395 23.8799h0.0605469h8
c35.2949 0.0332031 63.9668 28.7051 64 64v64h-80c-26.4961 0 -48 21.5039 -48 48v128c0 26.4961 21.5039 48 48 48h128z" />
    <glyph glyph-name="dollar-sign-secondary" unicode="&#x10f155;" horiz-adv-x="320" 
d="M192 384h-64v48c0 8.83203 7.16797 16 16 16h32c8.83203 0 16 -7.16797 16 -16v-48zM128 0h64v-48c0 -8.83203 -7.16797 -16 -16 -16h-32c-8.83203 0 -16 7.16797 -16 16v48z" />
    <glyph glyph-name="archive-secondary" unicode="&#x10f187;" 
d="M32 288h448v-288c0 -17.6641 -14.3359 -32 -32 -32h-384c-17.6641 0 -32 14.3359 -32 32v288zM320 204v8c0 6.62402 -5.37598 12 -12 12h-104c-6.62402 0 -12 -5.37598 -12 -12v-8c0 -6.62402 5.37598 -12 12 -12h104c6.62402 0 12 5.37598 12 12z" />
    <glyph glyph-name="handshake-secondary" unicode="&#x10f2b5;" horiz-adv-x="640" 
d="M0 64v255.8h96v-223.8c0 -17.6641 -14.3359 -32 -32 -32h-64zM48 127.9c-8.83203 0 -16 -7.16797 -16 -16s7.16797 -16 16 -16s16 7.16797 16 16s-7.16797 16 -16 16zM457.3 374.6l54.6006 -54.5996v-193.5c-2.01758 2.29297 -5.55664 5.74219 -7.90039 7.7002
l-145.6 118.2l26.0996 23.8994c2.72949 2.60938 4.94434 7.79102 4.94434 11.5664c0 8.83203 -7.16797 16 -16 16c-3.32227 0 -8.0459 -1.77734 -10.5439 -3.96582l-79.9004 -73.2002c-0.0996094 -0.100586 -0.299805 -0.100586 -0.400391 -0.200195
c-16.6992 -14.9004 -43.3994 -11.2002 -56.0996 2.7002c-5.80273 6.30371 -10.5127 18.374 -10.5127 26.9414c0 9.53125 5.65039 22.5488 12.6123 29.0586c0.100586 0.0996094 0.200195 0.299805 0.300781 0.399414l98.2998 90
c5.06055 4.63477 14.7373 8.39844 21.5996 8.40039h85.9004h0.0410156c7.30664 0 17.4131 -4.21094 22.5586 -9.40039z" />
    <glyph glyph-name="usd-circle-secondary" unicode="&#x10f2e8;" 
d="M256 440c137 0 248 -111 248 -248s-111 -248 -248 -248s-248 111 -248 248s111 248 248 248zM280 64c37.5996 0.200195 68.2002 32.0996 68 71.4004c0 31.5996 -20.2002 59.7998 -49.2002 68.5996l-72 21.9004c-8.89941 2.7998 -15.2002 12.0996 -15.2002 22.6992
c0 12.9004 9.2002 23.4004 20.5 23.4004h45h0.126953c5.86523 0 14.7227 -2.41895 19.7734 -5.40039c6.40039 -3.7998 14.2998 -3.5 19.7002 1.60059l12 11.2998c7.7002 7.09961 6.39941 19.2998 -2.2998 25.2002c-11.6162 7.8252 -32.4033 14.5898 -46.4004 15.0996
v16.2002c0 8.83203 -7.16797 16 -16 16h-16c-8.83203 0 -16 -7.16797 -16 -16v-16c-37.5996 -0.0996094 -68.2002 -32.0996 -68.2002 -71.4004c0 -31.5996 20.2002 -59.7998 49.2002 -68.5996l72.2002 -21.9004c8.89941 -2.7998 15.2002 -12.0996 15.2002 -22.6992
c0 -12.9004 -9.2002 -23.4004 -20.5 -23.4004h-45h-0.126953c-5.86523 0 -14.7227 2.41895 -19.7734 5.40039c-6.40039 3.7998 -14.2998 3.5 -19.7002 -1.60059l-12 -11.2998c-7.7002 -7.09961 -6.39941 -19.2998 2.2998 -25.2002
c11.6162 -7.8252 32.4033 -14.5898 46.4004 -15.0996v-16.2002c0 -8.83203 7.16797 -16 16 -16h16c8.83203 0 16 7.16797 16 16v16z" />
    <glyph glyph-name="usd-square-secondary" unicode="&#x10f2e9;" horiz-adv-x="448" 
d="M400 416c26.4961 0 48 -21.5039 48 -48v-352c0 -26.4961 -21.5039 -48 -48 -48h-352c-26.4961 0 -48 21.5039 -48 48v352c0 26.4961 21.5039 48 48 48h352zM248 64c37.5996 0.200195 68.2002 32.0996 68 71.4004c0 31.5996 -20.2002 59.7998 -49.2002 68.5996
l-72 21.9004c-8.89941 2.7998 -15.2002 12.0996 -15.2002 22.6992c0 12.9004 9.2002 23.4004 20.5 23.4004h45h0.126953c5.86523 0 14.7227 -2.41895 19.7734 -5.40039c6.40039 -3.7998 14.2998 -3.5 19.7002 1.60059l12 11.2998
c7.7002 7.09961 6.39941 19.2998 -2.2998 25.2002c-11.6162 7.8252 -32.4033 14.5898 -46.4004 15.0996v16.2002c0 8.83203 -7.16797 16 -16 16h-16c-8.83203 0 -16 -7.16797 -16 -16v-16c-37.5996 -0.0996094 -68.2002 -32.0996 -68.2002 -71.4004
c0 -31.5996 20.2002 -59.7998 49.2002 -68.5996l72.2002 -21.9004c8.89941 -2.7998 15.2002 -12.0996 15.2002 -22.6992c0 -12.9004 -9.2002 -23.4004 -20.5 -23.4004h-45h-0.126953c-5.86523 0 -14.7227 2.41895 -19.7734 5.40039
c-6.40039 3.7998 -14.2998 3.5 -19.7002 -1.60059l-12 -11.2998c-7.7002 -7.09961 -6.39941 -19.2998 2.2998 -25.2002c11.6162 -7.8252 32.4033 -14.5898 46.4004 -15.0996v-16.2002c0 -8.83203 7.16797 -16 16 -16h16c8.83203 0 16 7.16797 16 16v16z" />
    <glyph glyph-name="poo-secondary" unicode="&#x10f2fe;" 
d="M451.4 78.9004c33.4287 -5.33984 60.5596 -37.1475 60.5596 -71c0 -39.6895 -32.2119 -71.9004 -71.9004 -71.9004h-0.0595703h-368h-0.0595703c-39.6885 0 -71.9004 32.2109 -71.9004 71.9004c0 33.8525 27.1309 65.6602 60.5596 71
c-15.7832 11.8867 -28.5938 37.5703 -28.5938 57.3301c0 39.6172 32.1533 71.7695 71.7705 71.7695h0.223633h14.0996c-12.2002 10.5264 -22.1016 32.1465 -22.1016 48.2607c0 35.1846 28.5557 63.7402 63.7402 63.7402
c0.0722656 0 0.189453 -0.000976562 0.261719 -0.000976562h16h0.211914c44.0439 0 79.79 35.7461 79.79 79.79c0 14.2393 -6.76562 35.165 -15.1016 46.71c4.13379 0.754883 10.8984 1.42676 15.0996 1.5c52.9922 0 96 -43.0078 96 -96
c-0.0869141 -9.11621 -2.72949 -23.4521 -5.90039 -32h5.90039c0.0722656 0 0.189453 0.000976562 0.261719 0.000976562c35.1846 0 63.7402 -28.5557 63.7402 -63.7402c0 -16.1143 -9.90137 -37.7344 -22.1016 -48.2607h14.0996h0.223633
c39.6172 0 71.7705 -32.1523 71.7705 -71.7695c0 -19.7598 -12.8105 -45.4434 -28.5938 -57.3301zM320 192c-17.6641 0 -32 -14.3359 -32 -32s14.3359 -32 32 -32s32 14.3359 32 32s-14.3359 32 -32 32zM192 192c-17.6641 0 -32 -14.3359 -32 -32s14.3359 -32 32 -32
s32 14.3359 32 32s-14.3359 32 -32 32zM351.5 53c0.272461 0.749023 0.493164 2.00391 0.493164 2.80078c0 4.52637 -3.67383 8.2002 -8.2002 8.2002c-0.0253906 0 -0.0673828 -0.000976562 -0.0927734 -0.000976562h-175.4
c-0.0253906 0 -0.0673828 0.000976562 -0.0927734 0.000976562c-4.52637 0 -8.2002 -3.67383 -8.2002 -8.2002c0 -0.796875 0.220703 -2.05176 0.493164 -2.80078c10.5 -27.9004 58.5 -53 95.5 -53s85 25.0996 95.5 53z" />
    <glyph glyph-name="phone-slash-secondary" unicode="&#x10f3dd;" horiz-adv-x="640" 
d="M377.91 321.49l48 112c3.49121 8.00391 13.4121 14.501 22.1445 14.501c1.49707 0 3.89551 -0.269531 5.35547 -0.601562l104 -24c10.2617 -2.37402 18.5898 -12.8496 18.5898 -23.3818v-0.0078125c0 -0.202148 0.000976562 -0.529297 0.000976562 -0.731445
c0 -88.9268 -44.877 -217.623 -100.171 -287.269l-76 58.7598c14.9688 18.71 35.3984 51.4902 45.5996 73.1699l-60.5996 49.6006c-4.87793 3.96582 -8.83691 12.2871 -8.83691 18.5742c0 2.69824 0.859375 6.90332 1.91699 9.38574zM268.17 66.5898
c11.5 5.41016 22.7002 11.6006 33.5996 18.1006l80 -61.8008c-66.6338 -47.9688 -187.349 -86.8994 -269.453 -86.8994h-0.246094h-0.015625c-10.5371 0 -21.0137 8.33301 -23.3848 18.5996l-24 104c-0.345703 1.48438 -0.626953 3.9248 -0.626953 5.44922
c0 8.72754 6.50781 18.6064 14.5273 22.0508l112 48c2.48828 1.06055 6.7041 1.92188 9.40918 1.92188c6.28613 0 14.6152 -3.95215 18.5908 -8.82129z" />
    <glyph glyph-name="hand-holding-box-secondary" unicode="&#x10f47b;" horiz-adv-x="576" 
d="M352 320l-64 32l-64 -32v128h128v-128zM565.3 119.9c5.91895 -5.26953 10.7236 -15.9775 10.7236 -23.9023c0 -8.49512 -5.38672 -19.6943 -12.0234 -24.998l-151.2 -121c-9.68066 -7.72754 -27.5908 -14 -39.9775 -14h-0.0224609h-356.8c-8.83203 0 -16 7.16797 -16 16
v96c0 8.83203 7.16797 16 16 16h55.4004l46.5 37.7002c17.8789 14.5068 51.0752 26.2891 74.0996 26.2998h160h0.0585938c17.6641 0 32 -14.3359 32 -32c0 -1.50098 -0.205078 -3.91992 -0.458984 -5.40039c-2.59961 -15.6992 -17.3994 -26.5996 -33.2998 -26.5996h-78.2998
c-8.83203 0 -16 -7.16797 -16 -16s7.16797 -16 16 -16h118.3h0.166016c12.3525 0 30.1982 6.27148 39.834 14l92.4004 73.9004c12.3994 10 30.7998 10.6992 42.5996 0z" />
    <glyph glyph-name="hand-receiving-secondary" unicode="&#x10f47c;" horiz-adv-x="640" 
d="M204.8 217.6l57.6006 -76.7998c14.1182 -18.8457 25.5869 -53.252 25.5996 -76.7998v-112c0 -8.83203 -7.16797 -16 -16 -16h-131.7c-0.0458984 -0.000976562 -0.121094 -0.000976562 -0.166992 -0.000976562c-6.63184 0 -13.4111 5.19727 -15.1328 11.6006
c-1.6377 6.58008 -6.29688 16.3018 -10.4004 21.7002l-104.1 134.3c-5.7959 7.25977 -10.5 20.6914 -10.5 29.9805v0.0195312v218.4c0 17.6641 14.3359 32 32 32s32 -14.3359 32 -32v-148.4l89.7998 -107.8c2.63379 -3.21191 8.14258 -5.81836 12.2959 -5.81836
c3.66309 0 8.72754 2.11328 11.3047 4.71875l12.7998 12.7998c2.58789 2.58691 4.68848 7.65625 4.68848 11.3154c0 2.93848 -1.42871 7.23242 -3.18848 9.58496l-38.1006 50.7998c-3.53223 4.70996 -6.39941 13.3115 -6.39941 19.2002c0 17.6641 14.3359 32 32 32
c8.83203 0 20.3008 -5.73438 25.5996 -12.8008zM608 384c17.6641 0 32 -14.3359 32 -32v-218.4v-0.0195312c0 -9.28906 -4.7041 -22.7207 -10.5 -29.9805l-104.1 -134.3c-4.10352 -5.39844 -8.7627 -15.1201 -10.4004 -21.7002
c-1.75195 -6.40332 -8.5625 -11.5996 -15.2012 -11.5996h-0.0986328h-131.7c-8.83203 0 -16 7.16797 -16 16v112c0.0126953 23.5479 11.4814 57.9541 25.5996 76.7998l57.6006 76.7998c5.29883 7.06641 16.7676 12.8008 25.5996 12.8008c17.6641 0 32 -14.3359 32 -32
c0 -5.88867 -2.86719 -14.4902 -6.39941 -19.2002l-38.1006 -50.7998c-1.75977 -2.35254 -3.18848 -6.64648 -3.18848 -9.58496c0 -3.65918 2.10059 -8.72852 4.68848 -11.3154l12.7998 -12.7998c2.59082 -2.5625 7.65039 -4.6416 11.2939 -4.6416
c4.13574 0 9.64941 2.57227 12.3066 5.74121l89.7998 107.8v148.4c0 17.6641 14.3359 32 32 32z" />
    <glyph glyph-name="blanket-secondary" unicode="&#x10f498;" 
d="M512 -16v-32c0 -8.83203 -7.16797 -16 -16 -16h-368c-70.8301 0 -128.41 57.8301 -128 128.75c0.410156 70.6299 58.7803 127.25 129.41 127.25h302.59c44.1621 -0.0478516 80.0029 -35.9287 80.0029 -80.0898c0 -0.193359 -0.000976562 -0.506836 -0.00292969 -0.700195
c-0.429688 -44 -37 -79.21 -81 -79.21h-303h-0.0126953c-17.6641 0 -32 14.3359 -32 32c0 0.248047 0.00585938 0.651367 0.0126953 0.900391c0.480469 17.4297 15.2197 31.0996 32.6602 31.0996h303.34h0.0205078c8.83203 0 16 7.16797 16 16
c0 0.223633 -0.00878906 0.586914 -0.0205078 0.80957c-0.419922 8.59082 -7.83984 15.1904 -16.4404 15.1904h-303.56c-35.332 -0.0292969 -64.0068 -28.7285 -64.0068 -64.0596c0 -0.259766 0.00292969 -0.680664 0.00683594 -0.94043
c0.530273 -35.1201 29.8398 -63 65 -63h367c8.83203 0 16 -7.16797 16 -16z" />
    <glyph glyph-name="box-alt-secondary" unicode="&#x10f49a;" horiz-adv-x="448" 
d="M256 416l32 -128v-112c0 -8.83203 -7.16797 -16 -16 -16h-96c-8.83203 0 -16 7.16797 -16 16v112l32 128h64z" />
    <glyph glyph-name="box-fragile-secondary" unicode="&#x10f49b;" horiz-adv-x="448" 
d="M416 416c17.6641 0 32 -14.3359 32 -32v-384c0 -17.6641 -14.3359 -32 -32 -32h-384c-17.6641 0 -32 14.3359 -32 32v384c0 17.6641 14.3359 32 32 32h384zM320 256v80c0 8.83203 -7.16797 16 -16 16h-160c-8.83203 0 -16 -7.16797 -16 -16v-80
c0.0332031 -44.7383 35.873 -87.0293 80 -94.4004v-97.5996h-40c-4.41602 0 -8 -3.58398 -8 -8v-16c0 -4.41602 3.58398 -8 8 -8h112c4.41602 0 8 3.58398 8 8v16c0 4.41602 -3.58398 8 -8 8h-40v97.5996c45.4004 7.7002 80 46.9004 80 94.4004z" />
    <glyph glyph-name="box-heart-secondary" unicode="&#x10f49d;" horiz-adv-x="448" 
d="M0 256h448v-256c0 -17.6641 -14.3359 -32 -32 -32h-384c-17.6641 0 -32 14.3359 -32 32v256zM305.1 106.8c8.2207 8.06055 14.8926 23.9463 14.8926 35.459c0 13.1553 -8.3291 30.5107 -18.5918 38.7412c-20.6006 16.7002 -51.2002 13.7002 -70 -4.7998l-7.40039 -7.2998
l-7.40039 7.2998c-18.8994 18.5 -49.5 21.5 -70 4.7998c-10.2822 -8.21875 -18.627 -25.5723 -18.627 -38.7363c0 -11.5225 6.6875 -27.4102 14.9277 -35.4639l72.5996 -71.3994c1.95996 -1.9043 5.76758 -3.44922 8.5 -3.44922s6.54004 1.54492 8.5 3.44922z" />
    <glyph glyph-name="box-up-secondary" unicode="&#x10f49f;" horiz-adv-x="448" 
d="M416 416c17.6641 0 32 -14.3359 32 -32v-384c0 -17.6641 -14.3359 -32 -32 -32h-384c-17.6641 0 -32 14.3359 -32 32v384c0 17.6641 14.3359 32 32 32h384zM57.7998 269c-0.96875 -1.20996 -1.75488 -3.4502 -1.75488 -5c0 -4.3916 3.56348 -7.97559 7.95508 -8h32.0996
v-112c0 -8.83203 7.16797 -16 16 -16h32c8.83203 0 16 7.16797 16 16v112h32c4.3916 0.0244141 7.95508 3.6084 7.95508 8c0 1.5498 -0.786133 3.79004 -1.75488 5l-64 80c-1.36621 1.57227 -4.16602 2.84863 -6.25 2.84863c-2.08301 0 -4.88281 -1.27637 -6.25 -2.84863z
M384 40v16c0 4.41602 -3.58398 8 -8 8h-304c-4.41602 0 -8 -3.58398 -8 -8v-16c0 -4.41602 3.58398 -8 8 -8h304c4.41602 0 8 3.58398 8 8zM384 256c4.41699 0.0263672 8.00195 3.63281 8.00195 8.0498c0 1.52734 -0.762695 3.74512 -1.70215 4.9502l-64 80
c-1.36621 1.57227 -4.16602 2.84863 -6.25 2.84863c-2.08301 0 -4.88281 -1.27637 -6.25 -2.84863l-64 -80c-0.96875 -1.20996 -1.75488 -3.4502 -1.75488 -5c0 -4.3916 3.56348 -7.97559 7.95508 -8h32v-112c0 -8.83203 7.16797 -16 16 -16h32c8.83203 0 16 7.16797 16 16
v112h32z" />
    <glyph glyph-name="box-usd-secondary" unicode="&#x10f4a0;" horiz-adv-x="448" 
d="M0 256h448v-256c0 -17.6641 -14.3359 -32 -32 -32h-384c-17.6641 0 -32 14.3359 -32 32v256zM240 32.0996c23.5996 0.600586 42.7002 20.6006 42.7998 45.1006c0 20 -13 37.7998 -31.5996 43.3994l-45 13.5c-5.2002 1.5 -8.7998 6.7002 -8.7998 12.7002
c0 7.2998 5.2998 13.2002 11.7998 13.2002h28.0996c3.82324 -0.0185547 9.55762 -1.67578 12.7998 -3.7002c1.14941 -0.791016 3.21484 -1.43359 4.61035 -1.43359c1.74414 0 4.2041 0.956055 5.49023 2.13379l11.7002 11.2998
c1.36914 1.30566 2.48047 3.89941 2.48047 5.79102c0 2.15723 -1.37988 4.9834 -3.08105 6.30957c-7.72363 5.73828 -21.791 10.8008 -31.3994 11.2998v16.2998c0 4.41602 -3.58398 8 -8 8h-16c-4.41602 0 -8 -3.58398 -8 -8v-16.2002
c-23.7002 -0.700195 -42.7002 -20.5996 -42.7002 -45.0996c0 -20 13 -37.7998 31.5996 -43.4004l45 -13.5c5.2002 -1.5 8.7998 -6.7002 8.7998 -12.7002c0 -7.2998 -5.2998 -13.1992 -11.7998 -13.1992h-28.0996c-3.82324 0.0185547 -9.55762 1.67578 -12.7998 3.69922
c-1.14941 0.791992 -3.21484 1.43359 -4.61035 1.43359c-1.74414 0 -4.2041 -0.955078 -5.49023 -2.13281l-11.7998 -11.2002c-1.36914 -1.30566 -2.48047 -3.89941 -2.48047 -5.79102c0 -2.15723 1.37988 -4.9834 3.08008 -6.30957
c7.72363 -5.73828 21.791 -10.8008 31.4004 -11.2998v-16.2998c0 -4.41602 3.58398 -8 8 -8h16c4.41602 0 8 3.58398 8 8v16.0996z" />
    <glyph glyph-name="boxes-alt-secondary" unicode="&#x10f4a1;" horiz-adv-x="576" 
d="M320 448v-88c0 -4.41602 -3.58398 -8 -8 -8h-48c-4.41602 0 -8 3.58398 -8 8v88h64zM480 160v-88c0 -4.41602 -3.58398 -8 -8 -8h-48c-4.41602 0 -8 3.58398 -8 8v88h64zM160 160v-88c0 -4.41602 -3.58398 -8 -8 -8h-48c-4.41602 0 -8 3.58398 -8 8v88h64z" />
    <glyph glyph-name="comment-alt-check-secondary" unicode="&#x10f4a2;" 
d="M448 448c35.2949 -0.0332031 63.9668 -28.7051 64 -64v-288c-0.0332031 -35.2949 -28.7051 -63.9668 -64 -64h-144l-124.9 -93.7002c-1.74902 -1.2832 -4.92969 -2.3252 -7.09961 -2.3252c-6.62402 0 -12 5.37598 -12 12v0.0253906v84h-96
c-35.2949 0.0332031 -63.9668 28.7051 -64 64v288c0.0332031 35.2949 28.7051 63.9668 64 64h384zM370.1 284.2c1.79102 1.78027 3.24414 5.27441 3.24414 7.7998c0 2.47949 -1.4082 5.92969 -3.14355 7.7002l-25.7998 26
c-1.78516 1.81836 -5.30176 3.29395 -7.85059 3.29395c-2.50195 0 -5.97363 -1.43066 -7.75 -3.19434l-97.2002 -96.3994l-42.0996 42.5c-1.78516 1.81836 -5.30176 3.29395 -7.84961 3.29395c-2.50293 0 -5.97461 -1.43164 -7.75 -3.19434l-26 -25.7998
c-1.81836 -1.78516 -3.29395 -5.30176 -3.29395 -7.84961c0 -2.50293 1.43066 -5.97461 3.19336 -7.75098l75.7002 -76.2998c1.78516 -1.81836 5.30176 -3.29395 7.84961 -3.29395c2.50293 0 5.97461 1.43066 7.75 3.19434z" />
    <glyph glyph-name="comment-alt-dots-secondary" unicode="&#x10f4a3;" 
d="M448 448c35.2949 -0.0332031 63.9668 -28.7051 64 -64v-288c-0.0332031 -35.2949 -28.7051 -63.9668 -64 -64h-144l-124.9 -93.7002c-1.74902 -1.2832 -4.92969 -2.3252 -7.09961 -2.3252c-6.62402 0 -12 5.37598 -12 12v0.0253906v84h-96
c-35.2949 0.0332031 -63.9668 28.7051 -64 64v288c0.0332031 35.2949 28.7051 63.9668 64 64h384zM128 208c17.6641 0 32 14.3359 32 32s-14.3359 32 -32 32s-32 -14.3359 -32 -32s14.3359 -32 32 -32zM256 208c17.6641 0 32 14.3359 32 32s-14.3359 32 -32 32
s-32 -14.3359 -32 -32s14.3359 -32 32 -32zM384 208c17.6641 0 32 14.3359 32 32s-14.3359 32 -32 32s-32 -14.3359 -32 -32s14.3359 -32 32 -32z" />
    <glyph glyph-name="comment-alt-edit-secondary" unicode="&#x10f4a4;" 
d="M448 448c35.2949 -0.0332031 63.9668 -28.7051 64 -64v-288c-0.0332031 -35.2949 -28.7051 -63.9668 -64 -64h-144l-124.9 -93.7002c-1.74902 -1.2832 -4.92969 -2.3252 -7.09961 -2.3252c-6.62402 0 -12 5.37598 -12 12v0.0253906v84h-96
c-35.2949 0.0332031 -63.9668 28.7051 -64 64v288c0.0332031 35.2949 28.7051 63.9668 64 64h384zM215.4 137.4l96.2998 96.2998l-54 54l-96.2998 -96.2998l-5.40039 -48.2002c-0.0322266 -0.299805 -0.0585938 -0.787109 -0.0585938 -1.08887
c0 -5.61328 4.55664 -10.1699 10.1699 -10.1699c0.301758 0 0.789062 0.0263672 1.08887 0.0585938zM366.1 288.1c3.27051 3.26953 5.9248 9.67578 5.9248 14.3008c0 4.62402 -2.6543 11.0303 -5.9248 14.2998l-25.3994 25.3994
c-3.26953 3.27051 -9.67578 5.9248 -14.2998 5.9248c-4.625 0 -11.0312 -2.6543 -14.3008 -5.9248l-31.7998 -31.7998l54 -54z" />
    <glyph glyph-name="comment-alt-exclamation-secondary" unicode="&#x10f4a5;" 
d="M448 448c35.2949 -0.0332031 63.9668 -28.7051 64 -64v-288c-0.0332031 -35.2949 -28.7051 -63.9668 -64 -64h-144l-124.9 -93.7002c-1.74902 -1.2832 -4.92969 -2.3252 -7.09961 -2.3252c-6.62402 0 -12 5.37598 -12 12v0.0253906v84h-96
c-35.2949 0.0332031 -63.9668 28.7051 -64 64v288c0.0332031 35.2949 28.7051 63.9668 64 64h384zM256 112c17.6641 0 32 14.3359 32 32s-14.3359 32 -32 32s-32 -14.3359 -32 -32s14.3359 -32 32 -32zM294.2 350.4c0.0439453 0.44043 0.0800781 1.15723 0.0800781 1.59961
c0 8.82129 -7.15918 15.9893 -15.9805 16h-44.5996c-8.81738 -0.046875 -15.9746 -7.24219 -15.9746 -16.0596c0 -0.426758 0.0332031 -1.11621 0.0742188 -1.54004l12.7998 -128c0.797852 -7.93945 7.92188 -14.3906 15.9004 -14.4004h19
c7.97852 0.00976562 15.1025 6.46094 15.9004 14.4004z" />
    <glyph glyph-name="comment-alt-lines-secondary" unicode="&#x10f4a6;" 
d="M448 448c35.2949 -0.0332031 63.9668 -28.7051 64 -64v-288c-0.0332031 -35.2949 -28.7051 -63.9668 -64 -64h-144l-124.9 -93.7002c-1.74902 -1.2832 -4.92969 -2.3252 -7.09961 -2.3252c-6.62402 0 -12 5.37598 -12 12v0.0253906v84h-96
c-35.2949 0.0332031 -63.9668 28.7051 -64 64v288c0.0332031 35.2949 28.7051 63.9668 64 64h384zM288 184v16c0 4.41602 -3.58398 8 -8 8h-144c-4.41602 0 -8 -3.58398 -8 -8v-16c0 -4.41602 3.58398 -8 8 -8h144c4.41602 0 8 3.58398 8 8zM384 280v16
c0 4.41602 -3.58398 8 -8 8h-240c-4.41602 0 -8 -3.58398 -8 -8v-16c0 -4.41602 3.58398 -8 8 -8h240c4.41602 0 8 3.58398 8 8z" />
    <glyph glyph-name="comment-alt-minus-secondary" unicode="&#x10f4a7;" 
d="M448 448c35.2949 -0.0332031 63.9668 -28.7051 64 -64v-288c-0.0332031 -35.2949 -28.7051 -63.9668 -64 -64h-144l-124.9 -93.7002c-1.74902 -1.2832 -4.92969 -2.3252 -7.09961 -2.3252c-6.62402 0 -12 5.37598 -12 12v0.0253906v84h-96
c-35.2949 0.0332031 -63.9668 28.7051 -64 64v288c0.0332031 35.2949 28.7051 63.9668 64 64h384zM368 232v16c0 8.83203 -7.16797 16 -16 16h-192c-8.83203 0 -16 -7.16797 -16 -16v-16c0 -8.83203 7.16797 -16 16 -16h192c8.83203 0 16 7.16797 16 16z" />
    <glyph glyph-name="comment-alt-plus-secondary" unicode="&#x10f4a8;" 
d="M448 448c35.2949 -0.0332031 63.9668 -28.7051 64 -64v-288c-0.0332031 -35.2949 -28.7051 -63.9668 -64 -64h-144l-124.9 -93.7002c-1.74902 -1.2832 -4.92969 -2.3252 -7.09961 -2.3252c-6.62402 0 -12 5.37598 -12 12v0.0253906v84h-96
c-35.2949 0.0332031 -63.9668 28.7051 -64 64v288c0.0332031 35.2949 28.7051 63.9668 64 64h384zM368 232v16c0 8.83203 -7.16797 16 -16 16h-72v72c0 8.83203 -7.16797 16 -16 16h-16c-8.83203 0 -16 -7.16797 -16 -16v-72h-72c-8.83203 0 -16 -7.16797 -16 -16v-16
c0 -8.83203 7.16797 -16 16 -16h72v-72c0 -8.83203 7.16797 -16 16 -16h16c8.83203 0 16 7.16797 16 16v72h72c8.83203 0 16 7.16797 16 16z" />
    <glyph glyph-name="comment-alt-slash-secondary" unicode="&#x10f4a9;" horiz-adv-x="640" 
d="M75.8896 421.11c10.5576 14.834 33.9033 26.8809 52.1104 26.8896h384c35.2949 -0.0332031 63.9668 -28.7051 64 -64v-288v-0.0419922c0 -15.0928 -8.875 -35.7852 -19.8096 -46.1885zM64 96v172.5l306 -236.5h-2l-124.9 -93.7002
c-1.74902 -1.2832 -4.92969 -2.3252 -7.09961 -2.3252c-6.62402 0 -12 5.37598 -12 12v0.0253906v84h-96c-35.2949 0.0332031 -63.9668 28.7051 -64 64z" />
    <glyph glyph-name="comment-alt-smile-secondary" unicode="&#x10f4aa;" 
d="M448 448c35.2949 -0.0332031 63.9668 -28.7051 64 -64v-288c-0.0332031 -35.2949 -28.7051 -63.9668 -64 -64h-144l-124.9 -93.7002c-1.74902 -1.2832 -4.92969 -2.3252 -7.09961 -2.3252c-6.62402 0 -12 5.37598 -12 12v0.0253906v84h-96
c-35.2949 0.0332031 -63.9668 28.7051 -64 64v288c0.0332031 35.2949 28.7051 63.9668 64 64h384zM320 314.8c-14.7939 0 -26.7998 -12.0059 -26.7998 -26.7998s12.0059 -26.7998 26.7998 -26.7998s26.7998 12.0059 26.7998 26.7998s-12.0059 26.7998 -26.7998 26.7998z
M192 314.8c-14.7939 0 -26.7998 -12.0059 -26.7998 -26.7998s12.0059 -26.7998 26.7998 -26.7998s26.7998 12.0059 26.7998 26.7998s-12.0059 26.7998 -26.7998 26.7998zM356.2 173.9c2.05469 2.4668 3.72266 7.07422 3.72266 10.2852
c0 8.87109 -7.19922 16.0703 -16.0693 16.0703c-4.05566 0 -9.5 -2.48926 -12.1533 -5.55566c-16.5508 -19.1562 -50.5283 -34.7031 -75.8438 -34.7031c-25.2705 0 -59.21 15.502 -75.7568 34.6025c-2.59668 2.64844 -7.71387 4.79785 -11.4229 4.79785
c-8.83203 0 -16 -7.16797 -16 -16c0 -2.90527 1.39941 -7.16016 3.12305 -9.49707c21.8525 -25.3369 66.7422 -45.8994 100.2 -45.8994s78.3477 20.5625 100.2 45.8994z" />
    <glyph glyph-name="comment-alt-times-secondary" unicode="&#x10f4ab;" 
d="M448 448c35.2949 -0.0332031 63.9668 -28.7051 64 -64v-288c-0.0332031 -35.2949 -28.7051 -63.9668 -64 -64h-144l-124.9 -93.7002c-1.74902 -1.2832 -4.92969 -2.3252 -7.09961 -2.3252c-6.62402 0 -12 5.37598 -12 12v0.0253906v84h-96
c-35.2949 0.0332031 -63.9668 28.7051 -64 64v288c0.0332031 35.2949 28.7051 63.9668 64 64h384zM340.9 166.5c2.56543 2.59082 4.64746 7.65332 4.64746 11.2998s-2.08203 8.70898 -4.64746 11.2998l-51 50.9004l50.8994 50.9004
c2.56543 2.59082 4.64844 7.65332 4.64844 11.2998s-2.08301 8.70898 -4.64844 11.2998l-11.2998 11.2998c-2.59082 2.56543 -7.65332 4.64844 -11.2998 4.64844s-8.70898 -2.08301 -11.2998 -4.64844l-50.9004 -50.8994l-50.9004 50.8994
c-2.59082 2.56543 -7.65332 4.64844 -11.2998 4.64844s-8.70898 -2.08301 -11.2998 -4.64844l-11.2998 -11.2998c-2.56543 -2.59082 -4.64844 -7.65332 -4.64844 -11.2998s2.08301 -8.70898 4.64844 -11.2998l50.8994 -50.9004l-50.8994 -50.9004
c-2.56543 -2.59082 -4.64844 -7.65332 -4.64844 -11.2998s2.08301 -8.70898 4.64844 -11.2998l11.2998 -11.2998c2.59082 -2.56543 7.65332 -4.64844 11.2998 -4.64844s8.70898 2.08301 11.2998 4.64844l50.9004 50.8994l51 -50.8994
c2.59082 -2.56543 7.65332 -4.64844 11.2998 -4.64844s8.70898 2.08301 11.2998 4.64844z" />
    <glyph glyph-name="comment-check-secondary" unicode="&#x10f4ac;" 
d="M256 416c141.4 0 256 -93.0996 256 -208s-114.6 -208 -256 -208h-0.359375c-30.5137 0 -78.4678 8.69141 -107.041 19.4004c-24.5996 -19.6006 -74.2998 -51.4004 -140.6 -51.4004h-0.0800781c-2.87305 0 -6.1084 2.15039 -7.21973 4.7998
c-0.373047 0.848633 -0.674805 2.29004 -0.674805 3.2168c0 1.75098 0.973633 4.20801 2.1748 5.4834c0.5 0.5 42.2998 45.4004 54.7998 95.7998c-35.5996 35.7002 -57 81.1006 -57 130.7c0 114.9 114.6 208 256 208zM370.1 252.2
c1.79102 1.78027 3.24414 5.27441 3.24414 7.7998c0 2.47949 -1.4082 5.92969 -3.14355 7.7002l-25.7998 26c-1.78516 1.81836 -5.30176 3.29395 -7.85059 3.29395c-2.50195 0 -5.97363 -1.43066 -7.75 -3.19434l-97.2002 -96.3994l-42.0996 42.5
c-1.78516 1.81836 -5.30176 3.29395 -7.84961 3.29395c-2.50293 0 -5.97461 -1.43164 -7.75 -3.19434l-26 -25.7998c-1.81836 -1.78516 -3.29395 -5.30176 -3.29395 -7.84961c0 -2.50293 1.43066 -5.97461 3.19336 -7.75098l75.7002 -76.2998
c1.78516 -1.81836 5.30176 -3.29395 7.84961 -3.29395c2.50293 0 5.97461 1.43066 7.75 3.19434z" />
    <glyph glyph-name="comment-dots-secondary" unicode="&#x10f4ad;" 
d="M256 416c141.4 0 256 -93.0996 256 -208s-114.6 -208 -256 -208h-0.359375c-30.5137 0 -78.4678 8.69141 -107.041 19.4004c-24.5996 -19.6006 -74.2998 -51.4004 -140.6 -51.4004h-0.0800781c-2.87305 0 -6.1084 2.15039 -7.21973 4.7998
c-0.373047 0.848633 -0.674805 2.29004 -0.674805 3.2168c0 1.75098 0.973633 4.20801 2.1748 5.4834c0.5 0.5 42.2998 45.4004 54.7998 95.7998c-35.5996 35.7002 -57 81.1006 -57 130.7c0 114.9 114.6 208 256 208zM128 176c17.6641 0 32 14.3359 32 32
s-14.3359 32 -32 32s-32 -14.3359 -32 -32s14.3359 -32 32 -32zM256 176c17.6641 0 32 14.3359 32 32s-14.3359 32 -32 32s-32 -14.3359 -32 -32s14.3359 -32 32 -32zM384 176c17.6641 0 32 14.3359 32 32s-14.3359 32 -32 32s-32 -14.3359 -32 -32s14.3359 -32 32 -32z" />
    <glyph glyph-name="comment-edit-secondary" unicode="&#x10f4ae;" 
d="M256 416c141.4 0 256 -93.0996 256 -208s-114.6 -208 -256 -208h-0.359375c-30.5137 0 -78.4678 8.69141 -107.041 19.4004c-24.5996 -19.6006 -74.2998 -51.4004 -140.6 -51.4004h-0.0800781c-2.87305 0 -6.1084 2.15039 -7.21973 4.7998
c-0.373047 0.848633 -0.674805 2.29004 -0.674805 3.2168c0 1.75098 0.973633 4.20801 2.1748 5.4834c0.5 0.5 42.2998 45.4004 54.7998 95.7998c-35.5996 35.7002 -57 81.1006 -57 130.7c0 114.9 114.6 208 256 208zM215.4 105.4l96.2998 96.2998l-54 54l-96.2998 -96.2998
l-5.40039 -48.2002c-0.0322266 -0.299805 -0.0585938 -0.787109 -0.0585938 -1.08887c0 -5.61328 4.55664 -10.1699 10.1699 -10.1699c0.301758 0 0.789062 0.0263672 1.08887 0.0585938zM366.1 256.1c3.27051 3.26953 5.9248 9.67578 5.9248 14.3008
c0 4.62402 -2.6543 11.0303 -5.9248 14.2998l-25.3994 25.3994c-3.26953 3.27051 -9.67578 5.9248 -14.2998 5.9248c-4.625 0 -11.0312 -2.6543 -14.3008 -5.9248l-31.7998 -31.7998l54 -54z" />
    <glyph glyph-name="comment-exclamation-secondary" unicode="&#x10f4af;" 
d="M256 416c141.4 0 256 -93.0996 256 -208s-114.6 -208 -256 -208h-0.359375c-30.5137 0 -78.4678 8.69141 -107.041 19.4004c-24.5996 -19.6006 -74.2998 -51.4004 -140.6 -51.4004h-0.0800781c-2.87305 0 -6.1084 2.15039 -7.21973 4.7998
c-0.373047 0.848633 -0.674805 2.29004 -0.674805 3.2168c0 1.75098 0.973633 4.20801 2.1748 5.4834c0.5 0.5 42.2998 45.4004 54.7998 95.7998c-35.5996 35.7002 -57 81.1006 -57 130.7c0 114.9 114.6 208 256 208zM256 80c17.6641 0 32 14.3359 32 32s-14.3359 32 -32 32
s-32 -14.3359 -32 -32s14.3359 -32 32 -32zM294.2 318.4c0.0439453 0.44043 0.0800781 1.15723 0.0800781 1.59961c0 8.82129 -7.15918 15.9893 -15.9805 16h-44.5996c-8.81738 -0.046875 -15.9746 -7.24219 -15.9746 -16.0596
c0 -0.426758 0.0332031 -1.11621 0.0742188 -1.54004l12.7998 -128c0.797852 -7.93945 7.92188 -14.3906 15.9004 -14.4004h19c7.97852 0.00976562 15.1025 6.46094 15.9004 14.4004z" />
    <glyph glyph-name="comment-lines-secondary" unicode="&#x10f4b0;" 
d="M256 416c141.4 0 256 -93.0996 256 -208s-114.6 -208 -256 -208h-0.359375c-30.5137 0 -78.4678 8.69141 -107.041 19.4004c-24.5996 -19.6006 -74.2998 -51.4004 -140.6 -51.4004h-0.0800781c-2.87305 0 -6.1084 2.15039 -7.21973 4.7998
c-0.373047 0.848633 -0.674805 2.29004 -0.674805 3.2168c0 1.75098 0.973633 4.20801 2.1748 5.4834c0.5 0.5 42.2998 45.4004 54.7998 95.7998c-35.5996 35.7002 -57 81.1006 -57 130.7c0 114.9 114.6 208 256 208zM288 152v16c0 4.41602 -3.58398 8 -8 8h-144
c-4.41602 0 -8 -3.58398 -8 -8v-16c0 -4.41602 3.58398 -8 8 -8h144c4.41602 0 8 3.58398 8 8zM384 248v16c0 4.41602 -3.58398 8 -8 8h-240c-4.41602 0 -8 -3.58398 -8 -8v-16c0 -4.41602 3.58398 -8 8 -8h240c4.41602 0 8 3.58398 8 8z" />
    <glyph glyph-name="comment-minus-secondary" unicode="&#x10f4b1;" 
d="M256 416c141.4 0 256 -93.0996 256 -208s-114.6 -208 -256 -208h-0.359375c-30.5137 0 -78.4678 8.69141 -107.041 19.4004c-24.5996 -19.6006 -74.2998 -51.4004 -140.6 -51.4004h-0.0800781c-2.87305 0 -6.1084 2.15039 -7.21973 4.7998
c-0.373047 0.848633 -0.674805 2.29004 -0.674805 3.2168c0 1.75098 0.973633 4.20801 2.1748 5.4834c0.5 0.5 42.2998 45.4004 54.7998 95.7998c-35.5996 35.7002 -57 81.1006 -57 130.7c0 114.9 114.6 208 256 208zM368 200v16c0 8.83203 -7.16797 16 -16 16h-192
c-8.83203 0 -16 -7.16797 -16 -16v-16c0 -8.83203 7.16797 -16 16 -16h192c8.83203 0 16 7.16797 16 16z" />
    <glyph glyph-name="comment-plus-secondary" unicode="&#x10f4b2;" 
d="M256 416c141.4 0 256 -93.0996 256 -208s-114.6 -208 -256 -208h-0.359375c-30.5137 0 -78.4678 8.69141 -107.041 19.4004c-24.5996 -19.6006 -74.2998 -51.4004 -140.6 -51.4004h-0.0800781c-2.87305 0 -6.1084 2.15039 -7.21973 4.7998
c-0.373047 0.848633 -0.674805 2.29004 -0.674805 3.2168c0 1.75098 0.973633 4.20801 2.1748 5.4834c0.5 0.5 42.2998 45.4004 54.7998 95.7998c-35.5996 35.7002 -57 81.1006 -57 130.7c0 114.9 114.6 208 256 208zM368 200v16c0 8.83203 -7.16797 16 -16 16h-72v72
c0 8.83203 -7.16797 16 -16 16h-16c-8.83203 0 -16 -7.16797 -16 -16v-72h-72c-8.83203 0 -16 -7.16797 -16 -16v-16c0 -8.83203 7.16797 -16 16 -16h72v-72c0 -8.83203 7.16797 -16 16 -16h16c8.83203 0 16 7.16797 16 16v72h72c8.83203 0 16 7.16797 16 16z" />
    <glyph glyph-name="comment-slash-secondary" unicode="&#x10f4b3;" horiz-adv-x="640" 
d="M150.21 363.65c45.1797 32.5596 104.63 52.3496 169.79 52.3496c141.4 0 256 -93.0996 256 -208c0 -49.2305 -21 -94.46 -56.2305 -130.08zM64 208c0.0742188 15.1943 4.04785 39.2207 8.87012 53.6299l325.53 -251.63c-21.2871 -5.51953 -56.4102 -9.99902 -78.4004 -10
h-0.359375c-30.5137 0 -78.4678 8.69141 -107.041 19.4004c-24.5996 -19.6006 -74.2998 -51.4004 -140.6 -51.4004c-4.41113 0.00488281 -7.99023 3.58887 -7.99023 8c0 1.75879 0.981445 4.22266 2.19043 5.5c0.5 0.599609 42.2002 45.5 54.7998 95.7998
c-35.5996 35.7002 -57 81.1006 -57 130.7z" />
    <glyph glyph-name="comment-smile-secondary" unicode="&#x10f4b4;" 
d="M256 416c141.4 0 256 -93.0996 256 -208s-114.6 -208 -256 -208h-0.359375c-30.5137 0 -78.4678 8.69141 -107.041 19.4004c-24.5996 -19.6006 -74.2998 -51.4004 -140.6 -51.4004h-0.0800781c-2.87305 0 -6.1084 2.15039 -7.21973 4.7998
c-0.373047 0.848633 -0.674805 2.29004 -0.674805 3.2168c0 1.75098 0.973633 4.20801 2.1748 5.4834c0.5 0.5 42.2998 45.4004 54.7998 95.7998c-35.5996 35.7002 -57 81.1006 -57 130.7c0 114.9 114.6 208 256 208zM320 282.8
c-14.7939 0 -26.7998 -12.0059 -26.7998 -26.7998s12.0059 -26.7998 26.7998 -26.7998s26.7998 12.0059 26.7998 26.7998s-12.0059 26.7998 -26.7998 26.7998zM192 282.8c-14.7939 0 -26.7998 -12.0059 -26.7998 -26.7998s12.0059 -26.7998 26.7998 -26.7998
s26.7998 12.0059 26.7998 26.7998s-12.0059 26.7998 -26.7998 26.7998zM356.2 141.9c2.05469 2.4668 3.72266 7.07422 3.72266 10.2852c0 8.87109 -7.19922 16.0703 -16.0693 16.0703c-4.05566 0 -9.5 -2.48926 -12.1533 -5.55566
c-16.5508 -19.1562 -50.5283 -34.7031 -75.8438 -34.7031c-25.2705 0 -59.21 15.502 -75.7568 34.6025c-2.64746 3.58984 -8.41602 6.50293 -12.876 6.50293c-8.83203 0 -16 -7.16797 -16 -16c0 -3.60742 2.0498 -8.62695 4.57617 -11.2021
c21.8525 -25.3369 66.7422 -45.8994 100.2 -45.8994s78.3477 20.5625 100.2 45.8994z" />
    <glyph glyph-name="comment-times-secondary" unicode="&#x10f4b5;" 
d="M256 416c141.4 0 256 -93.0996 256 -208s-114.6 -208 -256 -208h-0.359375c-30.5137 0 -78.4678 8.69141 -107.041 19.4004c-24.5996 -19.6006 -74.2998 -51.4004 -140.6 -51.4004h-0.0800781c-2.87305 0 -6.1084 2.15039 -7.21973 4.7998
c-0.373047 0.848633 -0.674805 2.29004 -0.674805 3.2168c0 1.75098 0.973633 4.20801 2.1748 5.4834c0.5 0.5 42.2998 45.4004 54.7998 95.7998c-35.5996 35.7002 -57 81.1006 -57 130.7c0 114.9 114.6 208 256 208zM340.9 134.5
c2.56543 2.59082 4.64746 7.65332 4.64746 11.2998s-2.08203 8.70898 -4.64746 11.2998l-51 50.9004l50.8994 50.9004c2.56543 2.59082 4.64844 7.65332 4.64844 11.2998s-2.08301 8.70898 -4.64844 11.2998l-11.2998 11.2998
c-2.59082 2.56543 -7.65332 4.64844 -11.2998 4.64844s-8.70898 -2.08301 -11.2998 -4.64844l-50.9004 -50.8994l-50.9004 50.8994c-2.59082 2.56543 -7.65332 4.64844 -11.2998 4.64844s-8.70898 -2.08301 -11.2998 -4.64844l-11.2998 -11.2998
c-2.56543 -2.59082 -4.64844 -7.65332 -4.64844 -11.2998s2.08301 -8.70898 4.64844 -11.2998l50.8994 -50.9004l-50.8994 -50.9004c-2.56543 -2.59082 -4.64844 -7.65332 -4.64844 -11.2998s2.08301 -8.70898 4.64844 -11.2998l11.2998 -11.2998
c2.59082 -2.56543 7.65332 -4.64844 11.2998 -4.64844s8.70898 2.08301 11.2998 4.64844l50.9004 50.8994l51 -50.8994c2.59082 -2.56543 7.65332 -4.64844 11.2998 -4.64844s8.70898 2.08301 11.2998 4.64844z" />
    <glyph glyph-name="comments-alt-secondary" unicode="&#x10f4b6;" horiz-adv-x="576" 
d="M352 160.1h-189.7l-82.7998 -62.0996c-1.4248 -1.0625 -4.02246 -1.9248 -5.7998 -1.9248c-5.35449 0 -9.7002 4.3457 -9.7002 9.7002v0.0244141v54.2002c-35.2949 0.0332031 -63.9668 28.7051 -64 64v160c0.0332031 35.2949 28.7051 63.9668 64 64h288
c35.2949 -0.0332031 63.9668 -28.7051 64 -64v-160c-0.00585938 -35.2725 -28.6367 -63.9004 -63.9102 -63.9004h-0.0898438z" />
    <glyph glyph-name="container-storage-secondary" unicode="&#x10f4b7;" horiz-adv-x="640" 
d="M16 352h608v-320h-608v320zM112 64v256h-32v-256h32zM224 64v256h-32v-256h32zM336 64v256h-32v-256h32zM448 64v256h-32v-256h32zM560 64v256h-32v-256h32z" />
    <glyph glyph-name="couch-secondary" unicode="&#x10f4b8;" horiz-adv-x="640" 
d="M96 288h-32c0 52.9922 43.0078 96 96 96h320c52.9922 0 96 -43.0078 96 -96h-32c-35.2949 -0.0332031 -63.9668 -28.7051 -64 -64v-64h-320v64c-0.0332031 35.2949 -28.7051 63.9668 -64 64z" />
    <glyph glyph-name="donate-secondary" unicode="&#x10f4b9;" 
d="M256 32c-114.9 0 -208 93.0996 -208 208s93.0996 208 208 208s208 -93.0996 208 -208s-93.0996 -208 -208 -208zM233.8 350.6c-32.7002 -0.899414 -59 -28.3994 -59.0996 -62.3994c0 -27.7002 18 -52.4004 43.7002 -60.1006l62.2998 -18.6992
c7.09961 -2.10059 12.0996 -9.40039 12.0996 -17.6006c0 -10.0996 -7.2998 -18.2998 -16.2998 -18.2998h-38.9004c-0.0556641 0 -0.145508 -0.000976562 -0.201172 -0.000976562c-5.26562 0 -13.1494 2.28516 -17.5986 5.10059c-4.5 2.80078 -10.2002 2.7002 -14 -1
l-16.2998 -15.5c-1.87793 -1.82227 -3.40234 -5.42676 -3.40234 -8.04395c0 -3.14453 2.06152 -7.20215 4.60254 -9.05566c10.5811 -7.8418 29.8457 -14.7412 43 -15.4004v-17v-0.0400391c0 -9.14062 7.41895 -16.5596 16.5596 -16.5596h0.0400391h11.1006h0.0400391
c9.14062 0 16.5596 7.41895 16.5596 16.5596v0.0400391v16.8008c32.7002 0.899414 59.0996 28.3994 59.0996 62.3994c0 27.7002 -18 52.4004 -43.6992 60.1006l-62.3008 18.6992c-7.09961 2.10059 -12.0996 9.40039 -12.0996 17.6006
c0 10.0996 7.2998 18.2998 16.2998 18.2998h38.9004c0.0556641 0 0.145508 0.000976562 0.201172 0.000976562c5.26562 0 13.1494 -2.28516 17.5986 -5.10059c4.5 -2.80078 10.2002 -2.7002 14 1l16.2998 15.5c1.87891 1.82227 3.40332 5.42676 3.40332 8.04395
c0 3.14453 -2.0625 7.20215 -4.60352 9.05566c-10.5811 7.8418 -29.8457 14.7412 -43 15.4004v17v0.0400391c0 9.14062 -7.41797 16.5596 -16.5596 16.5596h-0.0400391h-11.0996h-0.0400391c-9.1416 0 -16.5605 -7.41895 -16.5605 -16.5596v-0.0400391v-16.8008z" />
    <glyph glyph-name="dove-secondary" unicode="&#x10f4ba;" 
d="M233.92 434.15c5.93652 -38.4385 30.1641 -94.5283 54.0801 -125.2v-28.1006c-42.9521 8.79492 -101.551 42.4395 -130.8 75.1006c9.02051 26.4043 30.9277 65.1562 48.8994 86.5c8.82031 10.5 25.7207 5.2002 27.8203 -8.2998z" />
    <glyph glyph-name="fragile-secondary" unicode="&#x10f4bb;" horiz-adv-x="288" 
d="M192.21 448l30.5996 -63.7002l-85.5 -56l49.4004 -104.3l-121.5 119.7l85.5 56l-32.7998 48.2998h74.2998z" />
    <glyph glyph-name="hand-heart-secondary" unicode="&#x10f4bc;" horiz-adv-x="448" 
d="M416 336c17.6143 -0.0498047 31.9502 -14.3857 32 -32v-176.1c-0.165039 -11.8252 -2.4502 -30.7754 -5.09961 -42.3008l-26.5 -112.699c-4.78418 -20.4248 -25.6904 -37 -46.668 -37h-0.0322266h-197.601c-13.4854 0.0234375 -30.8672 8.89355 -38.7998 19.7998
l-125.6 172.7c-4.23047 5.81055 -7.66406 16.3613 -7.66406 23.5498c0 22.0879 17.9258 40.0137 40.0137 40.0137c11.2412 0 25.7344 -7.37598 32.3506 -16.4639l23.5996 -32.5v241c0 17.6641 14.3359 32 32 32s32 -14.3359 32 -32v-152c0 -4.41602 3.58398 -8 8 -8h16
c4.41602 0 8 3.58398 8 8v184c0 17.6641 14.3359 32 32 32s32 -14.3359 32 -32v-184c0 -4.41602 3.58398 -8 8 -8h16c4.41602 0 8 3.58398 8 8v152c0 17.6641 14.3359 32 32 32s32 -14.3359 32 -32v-152c0 -4.41602 3.58398 -8 8 -8h16c4.41602 0 8 3.58398 8 8v72
c0.0498047 17.6143 14.3857 31.9502 32 32zM353.1 74.7998c8.22754 8.06152 14.876 23.9531 14.876 35.4717c0 13.1484 -8.32227 30.499 -18.5752 38.7285c-20.6006 16.7002 -51.2002 13.7002 -70 -4.7998l-7.40039 -7.2998l-7.40039 7.2998
c-18.8994 18.5 -49.5 21.5 -70 4.7998c-10.2822 -8.21875 -18.627 -25.5723 -18.627 -38.7363c0 -11.5225 6.6875 -27.4102 14.9277 -35.4639l72.5996 -71.3994c1.95996 -1.9043 5.76758 -3.44922 8.5 -3.44922s6.54004 1.54492 8.5 3.44922z" />
    <glyph glyph-name="hand-holding-secondary" unicode="&#x10f4bd;" horiz-adv-x="576" 
d="M564 71l-151.2 -121c-9.68066 -7.72754 -27.5908 -14 -39.9775 -14h-0.0224609h-356.8c-8.83203 0 -16 7.16797 -16 16v96c0 8.83203 7.16797 16 16 16h55.4004l46.5 37.7002c17.8789 14.5068 51.0752 26.2891 74.0996 26.2998h160h0.0585938
c17.6641 0 32 -14.3359 32 -32c0 -1.50098 -0.205078 -3.91992 -0.458984 -5.40039c-2.59961 -15.6992 -17.3994 -26.5996 -33.2998 -26.5996h-78.2998c-8.83203 0 -16 -7.16797 -16 -16s7.16797 -16 16 -16h118.3h0.166016c12.3525 0 30.1982 6.27148 39.834 14
l92.4004 73.9004c12.3994 10 30.7998 10.6992 42.5996 0c5.91895 -5.26953 10.7236 -15.9775 10.7236 -23.9023c0 -8.49512 -5.38672 -19.6943 -12.0234 -24.998z" />
    <glyph glyph-name="hand-holding-heart-secondary" unicode="&#x10f4be;" horiz-adv-x="576" 
d="M564 71l-151.2 -121c-9.68066 -7.72754 -27.5908 -14 -39.9775 -14h-0.0224609h-356.8c-8.83203 0 -16 7.16797 -16 16v96c0 8.83203 7.16797 16 16 16h55.4004l46.5 37.7002c17.8789 14.5068 51.0752 26.2891 74.0996 26.2998h160h0.0585938
c17.6641 0 32 -14.3359 32 -32c0 -1.50098 -0.205078 -3.91992 -0.458984 -5.40039c-2.59961 -15.6992 -17.3994 -26.5996 -33.2998 -26.5996h-78.2998c-8.83203 0 -16 -7.16797 -16 -16s7.16797 -16 16 -16h118.3h0.166016c12.3525 0 30.1982 6.27148 39.834 14
l92.4004 73.9004c12.3994 10 30.7998 10.6992 42.5996 0c5.91895 -5.26953 10.7236 -15.9775 10.7236 -23.9023c0 -8.49512 -5.38672 -19.6943 -12.0234 -24.998z" />
    <glyph glyph-name="hand-holding-seedling-secondary" unicode="&#x10f4bf;" horiz-adv-x="576" 
d="M564 71l-151.2 -121c-9.68066 -7.72754 -27.5908 -14 -39.9775 -14h-0.0224609h-356.8c-8.83203 0 -16 7.16797 -16 16v96c0 8.83203 7.16797 16 16 16h55.4004l46.5 37.7002c17.8789 14.5068 51.0752 26.2891 74.0996 26.2998h160h0.0585938
c17.6641 0 32 -14.3359 32 -32c0 -1.50098 -0.205078 -3.91992 -0.458984 -5.40039c-2.59961 -15.6992 -17.3994 -26.5996 -33.2998 -26.5996h-78.2998c-8.83203 0 -16 -7.16797 -16 -16s7.16797 -16 16 -16h118.3h0.166016c12.3525 0 30.1982 6.27148 39.834 14
l92.4004 73.9004c12.3994 10 30.7998 10.6992 42.5996 0c5.91895 -5.26953 10.7236 -15.9775 10.7236 -23.9023c0 -8.49512 -5.38672 -19.6943 -12.0234 -24.998z" />
    <glyph glyph-name="hand-holding-usd-secondary" unicode="&#x10f4c0;" horiz-adv-x="576" 
d="M564 71l-151.2 -121c-9.68066 -7.72754 -27.5908 -14 -39.9775 -14h-0.0224609h-356.8c-8.80469 0.0273438 -15.9727 7.19531 -16 16v96c0 8.83203 7.16797 16 16 16h55.4004l46.5 37.71c17.8799 14.5039 51.0762 26.2822 74.0996 26.29h160h0.0585938
c17.6641 0 32 -14.3359 32 -32c0 -1.50098 -0.205078 -3.91992 -0.458984 -5.40039c-2.59961 -15.6992 -17.3994 -26.5996 -33.2998 -26.5996h-78.2998c-8.83203 0 -16 -7.16797 -16 -16s7.16797 -16 16 -16h118.3h0.166016c12.3525 0 30.1982 6.27148 39.834 14
l92.4004 73.9004c12.3994 10 30.7998 10.6992 42.5996 0c5.91895 -5.26953 10.7236 -15.9775 10.7236 -23.9023c0 -8.49512 -5.38672 -19.6943 -12.0234 -24.998z" />
    <glyph glyph-name="hand-holding-water-secondary" unicode="&#x10f4c1;" horiz-adv-x="576" 
d="M564 71l-151.2 -121c-9.68066 -7.72754 -27.5908 -14 -39.9775 -14h-0.0224609h-356.8c-8.80469 0.0273438 -15.9727 7.19531 -16 16v96c0 8.83203 7.16797 16 16 16h55.4004l46.5 37.71c17.8799 14.5039 51.0762 26.2822 74.0996 26.29h160h0.0585938
c17.6641 0 32 -14.3359 32 -32c0 -1.50098 -0.205078 -3.91992 -0.458984 -5.40039c-2.59961 -15.6992 -17.3994 -26.5996 -33.2998 -26.5996h-78.2998c-8.83203 0 -16 -7.16797 -16 -16s7.16797 -16 16 -16h118.3h0.166016c12.3525 0 30.1982 6.27148 39.834 14
l92.4004 73.9004c12.3994 10 30.7998 10.6992 42.5996 0c5.91895 -5.26953 10.7236 -15.9775 10.7236 -23.9023c0 -8.49512 -5.38672 -19.6943 -12.0234 -24.998z" />
    </font>
</defs>
</svg>
