<?xml version="1.0" standalone="no"?>
<!--
Font Awesome Pro 5.10.0 by @fontawesome - https://fontawesome.com
License - https://fontawesome.com/license (Commercial License)
-->
<!DOCTYPE svg PUBLIC "-//W3C//DTD SVG 1.1//EN" "http://www.w3.org/Graphics/SVG/1.1/DTD/svg11.dtd" >
<svg xmlns="http://www.w3.org/2000/svg" xmlns:xlink="http://www.w3.org/1999/xlink" version="1.1">
<metadata>
Created by FontForge 20190112 at Mon Jul 29 10:01:40 2019
 By Robert Madole
Copyright (c) Font Awesome
</metadata>
<defs>
<font id="FontAwesome5Duotone-Solid" horiz-adv-x="512" >
  <font-face 
    font-family="Font Awesome 5 Duotone Solid"
    font-weight="900"
    font-stretch="normal"
    units-per-em="512"
    panose-1="2 0 5 3 0 0 0 0 0 0"
    ascent="448"
    descent="-64"
    bbox="-0.0791016 -64.0928 640.06 448.049"
    underline-thickness="25"
    underline-position="-51"
    unicode-range="U+0020-10F89B"
  />
    <missing-glyph />
    <glyph glyph-name="glass-martini-primary" unicode="&#xf000;" 
d="M405.12 384l-149.12 -149.13l-149.16 149.13h298.28z" />
    <glyph glyph-name="tint-primary" unicode="&#xf043;" horiz-adv-x="352" 
d="M176 0c-61.7471 0.0771484 -111.923 50.2529 -112 112c0 8.83203 7.16797 16 16 16s16 -7.16797 16 -16c0.0498047 -44.1104 35.8896 -79.9502 80 -80c8.83203 0 16 -7.16797 16 -16s-7.16797 -16 -16 -16z" />
    <glyph glyph-name="cut-primary" unicode="&#xf0c4;" horiz-adv-x="448" 
d="M444.48 358.43l-259.12 -259.17c3.68945 -9.35742 6.68359 -25.1162 6.68359 -35.1748c0 -52.9365 -42.9629 -95.9004 -95.9004 -95.9004c-52.9365 0 -95.8994 42.9639 -95.8994 95.9004s42.9629 95.9004 95.8994 95.9004c3.66504 0 9.58594 -0.410156 13.2168 -0.915039
l216.33 216.359c13.5801 13.5801 40.1895 24.6016 59.3945 24.6016s45.8145 -11.0215 59.3955 -24.6016c1.94824 -1.94141 3.5293 -5.74902 3.5293 -8.5c0 -2.75 -1.58105 -6.55859 -3.5293 -8.5zM96 32c17.6641 0 32 14.3359 32 32s-14.3359 32 -32 32
s-32 -14.3359 -32 -32s14.3359 -32 32 -32z" />
    <glyph glyph-name="magic-primary" unicode="&#xf0d0;" 
d="M359.44 165.36l-220 -220c-5.17383 -5.17285 -15.3096 -9.37012 -22.625 -9.37012c-7.31641 0 -17.4521 4.19727 -22.625 9.37012l-84.8105 84.8701c-5.17188 5.17285 -9.37012 15.3086 -9.37012 22.625c0 7.31543 4.19824 17.4512 9.37012 22.625l220 220z" />
    <glyph glyph-name="smile-primary" unicode="&#xf118;" 
d="M336 272c17.6641 0 32 -14.3359 32 -32s-14.3359 -32 -32 -32s-32 14.3359 -32 32s14.3359 32 32 32zM176 272c17.6641 0 32 -14.3359 32 -32s-14.3359 -32 -32 -32s-32 14.3359 -32 32s14.3359 32 32 32z" />
    <glyph glyph-name="frown-primary" unicode="&#xf119;" 
d="M176 272c17.6641 0 32 -14.3359 32 -32s-14.3359 -32 -32 -32s-32 14.3359 -32 32s14.3359 32 32 32zM336 272c17.6641 0 32 -14.3359 32 -32s-14.3359 -32 -32 -32s-32 14.3359 -32 32s14.3359 32 32 32z" />
    <glyph glyph-name="meh-primary" unicode="&#xf11a;" 
d="M336 272c17.6641 0 32 -14.3359 32 -32s-14.3359 -32 -32 -32s-32 14.3359 -32 32s14.3359 32 32 32zM176 272c17.6641 0 32 -14.3359 32 -32s-14.3359 -32 -32 -32s-32 14.3359 -32 32s14.3359 32 32 32z" />
    <glyph glyph-name="crop-primary" unicode="&#xf125;" 
d="M416 384c17.6641 0 32 -14.3359 32 -32v-392c0 -13.248 -10.752 -24 -24 -24h-48c-13.248 0 -24 10.752 -24 24v328h-160v96h224zM0 360c0 13.248 10.752 24 24 24h40v-96h-40c-13.248 0 -24 10.752 -24 24v48z" />
    <glyph glyph-name="taxi-primary" unicode="&#xf1ba;" 
d="M462 206.45c27.5996 -6.1875 50 -34.165 50 -62.4502v0v-48c0 -35.3281 -28.6719 -64 -64 -64h-384c-35.3281 0 -64 28.6719 -64 64v48c0 28.2852 22.4004 56.2627 50 62.4502l22 84.75c9.59961 35.2002 41.5996 60.7998 76.7998 60.7998h214.4
c35.2002 0 67.2002 -25.5996 76.7998 -60.7998zM133.75 274.36l-17.2002 -66.3604h278.9l-17.3906 67.1396c-2.01953 7.37988 -9.37988 12.8604 -14.8496 12.8604h-214.4c-5.46973 0 -12.8096 -5.48047 -15.0596 -13.6396zM96 96c17.6641 0 32 14.3359 32 32
s-14.3359 32 -32 32s-32 -14.3359 -32 -32s14.3359 -32 32 -32zM416 96c17.6641 0 32 14.3359 32 32s-14.3359 32 -32 32s-32 -14.3359 -32 -32s14.3359 -32 32 -32z" />
    <glyph glyph-name="eye-dropper-primary" unicode="&#xf1fb;" 
d="M483.9 284.1l-77.1006 -77.0996l13.1006 -13.0996c9.39941 -9.40039 9.39941 -24.6006 0 -33.9004l-41 -41c-9.40039 -9.2998 -24.5 -9.2998 -33.9004 0l-162 162c-9.40039 9.40039 -9.40039 24.5996 0 33.9004l41 41c9.40039 9.39941 24.5996 9.39941 33.9004 0
l13.0996 -13.2002l77.0996 77.0996c37.5 37.5 98.3008 37.5 135.801 0s37.5 -98.2002 0 -135.7z" />
    <glyph glyph-name="paint-brush-primary" unicode="&#xf1fc;" 
d="M255 65.3203c0.410156 -2.50586 0.857422 -6.5957 1 -9.12988c0 -76.4209 -52.1299 -120.19 -128 -120.19c-90.0596 0 -128 72.3799 -128 154.73c9.79004 -6.68066 44.1396 -34.3506 55.25 -34.3506c0.0732422 -0.000976562 0.191406 -0.00195312 0.264648 -0.00195312
c5.88086 0 12.2988 4.48047 14.3252 10.002c20.6602 54.4404 57.0703 69.7197 97.1904 72.2998z" />
    <glyph glyph-name="bus-primary" unicode="&#xf207;" 
d="M488 320c13.248 0 24 -10.752 24 -24v-80c0 -13.248 -10.752 -24 -24 -24h-8v-160c0 -17.6641 -14.3359 -32 -32 -32h-384c-17.6641 0 -32 14.3359 -32 32v160h-8c-13.248 0 -24 10.752 -24 24v80c0 13.248 10.752 24 24 24h8v48c0 44.7998 99.2002 80 224 80
s224 -35.2002 224 -80v-48h8zM96 320v-128c0 -17.6641 14.3359 -32 32 -32h256c17.6641 0 32 14.3359 32 32v128c0 17.6641 -14.3359 32 -32 32h-256c-17.6641 0 -32 -14.3359 -32 -32zM112 48c17.6641 0 32 14.3359 32 32s-14.3359 32 -32 32s-32 -14.3359 -32 -32
s14.3359 -32 32 -32zM400 48c17.6641 0 32 14.3359 32 32s-14.3359 32 -32 32s-32 -14.3359 -32 -32s14.3359 -32 32 -32z" />
    <glyph glyph-name="bed-primary" unicode="&#xf236;" horiz-adv-x="640" 
d="M640 160v-144c0 -8.83203 -7.16797 -16 -16 -16h-32c-8.83203 0 -16 7.16797 -16 16v48h-512v-48c0 -8.83203 -7.16797 -16 -16 -16h-32c-8.83203 0 -16 7.16797 -16 16v352c0 8.83203 7.16797 16 16 16h32c8.83203 0 16 -7.16797 16 -16v-208h576z" />
    <glyph glyph-name="map-primary" unicode="&#xf279;" horiz-adv-x="576" 
d="M0 330.34c0.0195312 11.9395 9.0332 25.2275 20.1201 29.6602l139.88 56v-384l-138.06 -62.8604c-1.5791 -0.630859 -4.24023 -1.14355 -5.94043 -1.14355c-8.83203 0 -16 7.16797 -16 16v0.00390625v346.34zM554.06 414.84
c1.5791 0.631836 4.24023 1.14355 5.94043 1.14355c8.82324 0 15.9912 -7.16016 16 -15.9834v-346.34c-0.000976562 -11.96 -9.01465 -25.2705 -20.1201 -29.71l-139.88 -55.9502v384z" />
    <glyph glyph-name="pen-primary" unicode="&#xf304;" 
d="M12.8496 76.8896l277.931 277.87l128 -128l-278 -278l-114.141 -12.5996c-0.725586 -0.0800781 -1.90723 -0.145508 -2.63672 -0.145508c-13.248 0 -24 10.752 -24 24c0 0.735352 0.0654297 1.9248 0.147461 2.65527z" />
    <glyph glyph-name="pen-alt-primary" unicode="&#xf305;" 
d="M336 309.51l82.7695 -82.7695l-196.77 -196.79c-44.8223 -44.8223 -132.335 -86.8447 -195.34 -93.7998c-0.731445 -0.0820312 -1.92188 -0.148438 -2.6582 -0.148438c-13.2471 0 -24 10.7529 -24 24c0 0.736328 0.0664062 1.92676 0.148438 2.6582v0.229492
c7.00977 62.9385 49.0547 150.348 93.8496 195.11l151.52 151.52l-22.6299 22.6201l-101.819 -101.819c-2.58691 -2.58789 -7.65625 -4.6875 -11.3154 -4.6875s-8.72754 2.09961 -11.3145 4.6875l-22.6309 22.6299c-2.58398 2.58594 -4.68262 7.65332 -4.68262 11.3096
c0 3.65723 2.09863 8.72363 4.68262 11.3105l118.78 118.79c6.4668 6.46484 19.1367 11.7109 28.2803 11.7109s21.8135 -5.24609 28.2803 -11.7109z" />
    <glyph glyph-name="smile-wink-primary" unicode="&#xf4da;" 
d="M396 225.8c1.7002 -11.0996 -11.4004 -18.2998 -19.7998 -10.7998l-9.7002 8.5c-14.7998 13.2002 -46.2002 13.2002 -61 0l-9.5 -8.5c-8.2998 -7.40039 -21.5996 -0.400391 -19.7998 10.7998c4 25.2002 34.2002 42.1006 59.8994 42.1006
c25.7002 0 55.9004 -16.9004 59.9004 -42.1006zM176 272c17.6641 0 32 -14.3359 32 -32s-14.3359 -32 -32 -32s-32 14.3359 -32 32s14.3359 32 32 32z" />
    <glyph glyph-name="wine-glass-primary" unicode="&#xf4e3;" horiz-adv-x="320" 
d="M224.35 194.38c-9.78809 -13.2803 -30.7725 -27.1016 -46.8398 -30.8496c-4.7666 -1.10547 -12.6064 -2.00293 -17.5 -2.00293c-4.89258 0 -12.7334 0.897461 -17.5 2.00293c-16.0664 3.74902 -37.0508 17.5693 -46.8398 30.8496
c-8.65039 11.6748 -15.6709 32.9424 -15.6709 47.4727c0 2.1543 0.170898 5.64355 0.380859 7.78711l12.0098 134.36h135.24l12 -134.36c0.212891 -2.1543 0.385742 -5.66016 0.385742 -7.82422c0 -14.5205 -7.01855 -35.7715 -15.666 -47.4355z" />
    <glyph glyph-name="feather-primary" unicode="&#xf52d;" 
d="M24 -64h-0.0585938c-13.248 0 -24 10.752 -24 24c0 5.50098 3.16211 13.1172 7.05859 17l264 264c3.88672 3.88672 11.5029 7.04199 17 7.04199c13.2705 0 24.042 -10.7715 24.042 -24.042c0 -5.49707 -3.15527 -13.1133 -7.04199 -17l-264 -264
c-3.86719 -3.86426 -11.4414 -7 -16.9082 -7h-0.0917969z" />
    <glyph glyph-name="angry-primary" unicode="&#xf556;" 
d="M212.6 247.33c6.30273 -1.88379 11.4092 -8.75195 11.4092 -15.3301c0 -8.83203 -7.16797 -16 -16 -16h-0.00878906h-1c0.560547 -2.17188 1.01562 -5.75586 1.01562 -7.99902c0 -17.6641 -14.3359 -32 -32 -32s-32 14.3359 -32 32
c0 7.69238 4.57129 18.1895 10.2041 23.4287l-30.8193 9.24023c-6.2959 1.88965 -11.4053 8.75684 -11.4053 15.3301c0 8.83496 7.16992 16.0049 16.0049 16.0049c1.29688 0 3.35742 -0.301758 4.59961 -0.674805zM400.33 260.6
c0.37207 -1.24121 0.674805 -3.30078 0.674805 -4.59766c0 -6.58105 -5.11816 -13.4502 -11.4248 -15.332l-31.5801 -9.46973c5.50879 -5.22461 9.97949 -15.626 9.97949 -23.2188c0 -17.6641 -14.3359 -32 -32 -32s-32 14.3359 -32 32
c0 2.24902 0.457031 5.8418 1.02051 8.01855c-8.82422 0.0078125 -15.9854 7.17578 -15.9854 16c0 6.56348 5.10059 13.4268 11.3857 15.3203l80 24c1.24316 0.374023 3.30664 0.676758 4.60547 0.676758c6.56934 0 13.4346 -5.10547 15.3242 -11.3975z" />
    <glyph glyph-name="archway-primary" unicode="&#xf557;" horiz-adv-x="576" 
d="M576 -16v-32c0 -8.83203 -7.16797 -16 -16 -16h-160c-8.83203 0 -16 7.16797 -16 16v176c0 52.9922 -43.0078 96 -96 96s-96 -43.0078 -96 -96v-176c0 -8.83203 -7.16797 -16 -16 -16h-160c-8.83203 0 -16 7.16797 -16 16v32c0 8.83203 7.16797 16 16 16h16v352h512v-352
h16c8.83203 0 16 -7.16797 16 -16z" />
    <glyph glyph-name="atlas-primary" unicode="&#xf558;" horiz-adv-x="448" 
d="M224 350.69c7.69043 -7.4502 20.7695 -34.4307 23.4404 -78.6904h-46.8701c2.66016 44.2695 15.7393 71.2402 23.4297 78.6904zM318.38 240c-4.625 -27.0684 -28.5029 -58.6123 -53.2998 -70.4102c7.66992 19.0605 12.7197 43.4102 14.21 70.4102h39.0898zM318.38 272
h-39.0898c-1.49023 27 -6.53027 51.3496 -14.21 70.4102c24.7939 -11.7998 48.6729 -43.3438 53.2998 -70.4102zM182.92 169.59c-24.7969 11.7979 -48.6748 43.3418 -53.2998 70.4102h39.0898c1.49023 -27 6.53027 -51.3496 14.21 -70.4102zM247.43 240
c-2.66016 -44.2598 -15.7393 -71.2402 -23.4395 -78.6904c-7.69043 7.4502 -20.7705 34.4307 -23.4307 78.6904h46.8701zM96 64c-16 0 -32 -12.7998 -32 -32s12.7998 -32 32 -32h328c13.248 0 24 -10.752 24 -24v-16c0 -13.248 -10.752 -24 -24 -24h-328
c-52.9922 0 -96 43.0078 -96 96v320c0 52.9922 43.0078 96 96 96h320c17.6641 0 32 -14.3359 32 -32v-328c0 -13.248 -10.752 -24 -24 -24h-328zM224 384c-70.6562 0 -128 -57.3438 -128 -128s57.3438 -128 128 -128s128 57.3438 128 128s-57.3438 128 -128 128z
M182.92 342.41c-7.67969 -19.0605 -12.7197 -43.4102 -14.21 -70.4102h-39.0898c4.625 27.0684 28.5029 58.6123 53.2998 70.4102z" />
    <glyph glyph-name="backspace-primary" unicode="&#xf55a;" horiz-adv-x="640" 
d="M491.31 129.94c2.58789 -2.58691 4.68848 -7.65625 4.68848 -11.3154s-2.10059 -8.72852 -4.68848 -11.3154l-22.6191 -22.6191c-2.58691 -2.58789 -7.65625 -4.68848 -11.3154 -4.68848s-8.72852 2.10059 -11.3154 4.68848l-62.0596 62.0596l-62.0596 -62.0596
c-2.58691 -2.58789 -7.65625 -4.68848 -11.3154 -4.68848s-8.72852 2.10059 -11.3154 4.68848l-22.6191 22.6191c-2.58789 2.58691 -4.68848 7.65625 -4.68848 11.3154s2.10059 8.72852 4.68848 11.3154l62.0596 62.0596l-62.0596 62.0596
c-2.58789 2.58691 -4.68848 7.65625 -4.68848 11.3154s2.10059 8.72852 4.68848 11.3154l22.6191 22.6191c2.58691 2.58789 7.65625 4.68848 11.3154 4.68848s8.72852 -2.10059 11.3154 -4.68848l62.0596 -62.0596l62.0596 62.0596
c2.58691 2.58789 7.65625 4.68848 11.3154 4.68848s8.72852 -2.10059 11.3154 -4.68848l22.6191 -22.6191c2.58789 -2.58691 4.68848 -7.65625 4.68848 -11.3154s-2.10059 -8.72852 -4.68848 -11.3154l-62.0596 -62.0596z" />
    <glyph glyph-name="bezier-curve-primary" unicode="&#xf55b;" horiz-adv-x="640" 
d="M208 360v-72c0.0136719 -7.65039 2.62988 -19.4951 5.83984 -26.4404c-29.6387 -21.0088 -61.4473 -66.5078 -71 -101.56h-49.3994c11.7402 55.2852 60.8232 123.381 109.56 152h-79.75c-8.93164 -22.0801 -35.5117 -40 -59.3291 -40c-35.3281 0 -64 28.6719 -64 64
s28.6719 64 64 64c23.8174 0 50.3975 -17.9199 59.3291 -40h84.75zM576 400h0.0595703c35.3281 0 64 -28.6719 64 -64s-28.6719 -64 -64 -64c-23.8184 0 -50.3975 17.9199 -59.3291 40h-79.7305c48.7227 -28.626 97.7871 -96.7217 109.52 -152h-49.3994
c-9.55273 35.0518 -41.3613 80.5508 -71 101.56c3.21777 6.94336 5.85156 18.7881 5.87988 26.4404v72h84.75c8.9082 22.0684 35.4521 39.9883 59.25 40z" />
    <glyph glyph-name="bong-primary" unicode="&#xf55c;" horiz-adv-x="448" 
d="M443.31 230.63c2.58789 -2.58691 4.68848 -7.65625 4.68848 -11.3145c0 -3.65918 -2.10059 -8.72852 -4.68848 -11.3154l-11.2998 -11.3203c-2.58691 -2.58691 -7.65625 -4.6875 -11.3145 -4.6875c-3.65918 0 -8.72852 2.10059 -11.3154 4.6875l-9.37988 9.37988
l-43.4404 -43.3994c15.1504 -25.1191 27.4463 -69.3115 27.4463 -98.6455c0 -28.2012 -11.4268 -70.9199 -25.5059 -95.3545c-10.2432 -17.9521 -35.3311 -32.584 -56 -32.6602h-221c-20.667 0.0800781 -45.7549 14.7119 -56 32.6602
c-14.0762 24.3652 -25.5 66.9785 -25.5 95.1182v0.22168c0 71 38.6699 132.9 96 166.11v153.89h-16c-8.83203 0 -16 7.16797 -16 16v31.7402c0 8.83203 7.16797 16 16 16l224 0.259766c8.83203 0 16 -7.16797 16 -16v-31.7402c0 -8.83203 -7.16797 -16 -16 -16h-16v-154.16
c11.6992 -6.7959 29.0146 -20.0215 38.6504 -29.5195l39.4092 39.4102l-9.37988 9.37988c-2.58691 2.58691 -4.6875 7.65625 -4.6875 11.3145c0 3.65918 2.10059 8.72852 4.6875 11.3154l11.3105 11.3203c2.58691 2.58691 7.65625 4.6875 11.3145 4.6875
c3.65918 0 8.72852 -2.10059 11.3154 -4.6875zM316.92 -7.37012c10.5312 18.2881 19.0791 50.2666 19.0801 71.3701c0 93.7803 -79.8496 129.09 -96 138.44v181.369h-96v-181.369c-16.1504 -9.35059 -96 -44.6602 -96 -138.44
c0.000976562 -21.1035 8.54883 -53.0723 19.0801 -71.3604c2.6084 -4.67285 9.06836 -8.54395 14.4199 -8.63965h221c5.34961 0.09375 11.8096 3.95996 14.4199 8.62988z" />
    <glyph glyph-name="brush-primary" unicode="&#xf55d;" horiz-adv-x="384" 
d="M0 160h384v-32c0 -35.3281 -28.6719 -64 -64 -64h-64v-64c0 -35.3281 -28.6719 -64 -64 -64s-64 28.6719 -64 64v64h-64c-35.3281 0 -64 28.6719 -64 64v32zM192 -24c13.248 0 24 10.752 24 24s-10.752 24 -24 24s-24 -10.752 -24 -24s10.752 -24 24 -24z" />
    <glyph glyph-name="bus-alt-primary" unicode="&#xf55e;" 
d="M488 320c13.248 0 24 -10.752 24 -24v-80c0 -13.248 -10.752 -24 -24 -24h-8v-160c0 -17.6641 -14.3359 -32 -32 -32h-384c-17.6641 0 -32 14.3359 -32 32v160h-8c-13.248 0 -24 10.752 -24 24v80c0 13.248 10.752 24 24 24h8v48c0 44.7998 99.2002 80 224 80
s224 -35.2002 224 -80v-48h8zM112 48c17.6641 0 32 14.3359 32 32s-14.3359 32 -32 32s-32 -14.3359 -32 -32s14.3359 -32 32 -32zM240 160v160h-112c-17.6641 0 -32 -14.3359 -32 -32v-96c0 -17.6641 14.3359 -32 32 -32h112zM168 352h176c4.41602 0 8 3.58398 8 8v16
c0 4.41602 -3.58398 8 -8 8h-176c-4.41602 0 -8 -3.58398 -8 -8v-16c0 -4.41602 3.58398 -8 8 -8zM272 320v-160h112c17.6641 0 32 14.3359 32 32v96c0 17.6641 -14.3359 32 -32 32h-112zM400 48c17.6641 0 32 14.3359 32 32s-14.3359 32 -32 32s-32 -14.3359 -32 -32
s14.3359 -32 32 -32z" />
    <glyph glyph-name="cannabis-primary" unicode="&#xf55f;" 
d="M272 168v-224c0 -4.41602 -3.58398 -8 -8 -8h-16c-4.41602 0 -8 3.58398 -8 8v224c0 4.41602 3.58398 8 8 8h16c4.41602 0 8 -3.58398 8 -8z" />
    <glyph glyph-name="cocktail-primary" unicode="&#xf561;" horiz-adv-x="576" 
d="M7.26953 277.95c-15.5195 15.5195 -4.5293 42.0498 17.4209 42.0498h366.64c21.9502 0 32.9395 -26.5303 17.4199 -42.0498l-168.75 -168.73v-125.22h56c22.0801 0 40 -17.9199 40 -40c0 -4.41602 -3.58398 -8 -8 -8h-240c-4.41602 0 -8 3.58398 -8 8
c0 22.0801 17.9199 40 40 40h56v125.22z" />
    <glyph glyph-name="concierge-bell-primary" unicode="&#xf562;" 
d="M480 96h-448c0 123.71 100.29 224 224 224s224 -100.29 224 -224z" />
    <glyph glyph-name="cookie-primary" unicode="&#xf563;" 
d="M368 176c17.6641 0 32 -14.3359 32 -32s-14.3359 -32 -32 -32s-32 14.3359 -32 32s14.3359 32 32 32zM208 304c17.6641 0 32 -14.3359 32 -32s-14.3359 -32 -32 -32s-32 14.3359 -32 32s14.3359 32 32 32zM176 144c17.6641 0 32 -14.3359 32 -32s-14.3359 -32 -32 -32
s-32 14.3359 -32 32s14.3359 32 32 32z" />
    <glyph glyph-name="cookie-bite-primary" unicode="&#xf564;" 
d="M368 176c17.6641 0 32 -14.3359 32 -32s-14.3359 -32 -32 -32s-32 14.3359 -32 32s14.3359 32 32 32zM208 304c17.6641 0 32 -14.3359 32 -32s-14.3359 -32 -32 -32s-32 14.3359 -32 32s14.3359 32 32 32zM176 144c17.6641 0 32 -14.3359 32 -32s-14.3359 -32 -32 -32
s-32 14.3359 -32 32s14.3359 32 32 32z" />
    <glyph glyph-name="crop-alt-primary" unicode="&#xf565;" 
d="M416 384c17.6641 0 32 -14.3359 32 -32v-392c0 -13.248 -10.752 -24 -24 -24h-48c-13.248 0 -24 10.752 -24 24v328h-160v96h224zM0 360c0 13.248 10.752 24 24 24h40v-96h-40c-13.248 0 -24 10.752 -24 24v48z" />
    <glyph glyph-name="digital-tachograph-primary" unicode="&#xf566;" horiz-adv-x="640" 
d="M608 352c17.6641 0 32 -14.3359 32 -32v-256c0 -17.6641 -14.3359 -32 -32 -32h-576c-17.6641 0 -32 14.3359 -32 32v256c0 17.6641 14.3359 32 32 32h576zM304 96v8c0 4.41602 -3.58398 8 -8 8h-224c-4.41602 0 -8 -3.58398 -8 -8v-8c0 -4.41602 3.58398 -8 8 -8h224
c4.41602 0 8 3.58398 8 8zM72 160c0 -4.41602 3.58398 -8 8 -8h16c4.41602 0 8 3.58398 8 8v16c0 4.41602 -3.58398 8 -8 8h-16c-4.41602 0 -8 -3.58398 -8 -8v-16zM136 160c0 -4.41602 3.58398 -8 8 -8h16c4.41602 0 8 3.58398 8 8v16c0 4.41602 -3.58398 8 -8 8h-16
c-4.41602 0 -8 -3.58398 -8 -8v-16zM200 160c0 -4.41602 3.58398 -8 8 -8h16c4.41602 0 8 3.58398 8 8v16c0 4.41602 -3.58398 8 -8 8h-16c-4.41602 0 -8 -3.58398 -8 -8v-16zM264 160c0 -4.41602 3.58398 -8 8 -8h16c4.41602 0 8 3.58398 8 8v16c0 4.41602 -3.58398 8 -8 8
h-16c-4.41602 0 -8 -3.58398 -8 -8v-16zM304 224v48c0 8.83203 -7.16797 16 -16 16h-208c-8.83203 0 -16 -7.16797 -16 -16v-48c0 -8.83203 7.16797 -16 16 -16h208c8.83203 0 16 7.16797 16 16zM576 96v8c0 4.41602 -3.58398 8 -8 8h-224c-4.41602 0 -8 -3.58398 -8 -8v-8
c0 -4.41602 3.58398 -8 8 -8h224c4.41602 0 8 3.58398 8 8z" />
    <glyph glyph-name="dizzy-primary" unicode="&#xf567;" 
d="M403.3 227.3c15.2002 -15.2002 -7.89941 -37.3994 -22.5996 -22.5996l-28.7002 28.7002l-28.7002 -28.7002c-14.7998 -14.7998 -37.7998 7.5 -22.5996 22.5996l28.7002 28.7002l-28.7002 28.7002c-15 15 7.7002 37.5996 22.5996 22.5996l28.7002 -28.7002
l28.7002 28.7002c15 15 37.5996 -7.7002 22.5996 -22.5996l-28.7002 -28.7002zM182.6 256l28.7002 -28.7002c15.2002 -15.2002 -7.89941 -37.3994 -22.5996 -22.5996l-28.7002 28.7002l-28.7002 -28.7002c-14.7998 -14.7998 -37.7998 7.5 -22.5996 22.5996l28.7002 28.7002
l-28.7002 28.7002c-15 15 7.7002 37.5996 22.5996 22.5996l28.7002 -28.7002l28.7002 28.7002c15 15 37.5996 -7.7002 22.5996 -22.5996z" />
    <glyph glyph-name="drafting-compass-primary" unicode="&#xf568;" 
d="M457.21 103.25l54.79 -94.9004l-7 -58.25c-0.949219 -7.75879 -8.06445 -14.0557 -15.8818 -14.0557c-1.81445 0 -4.64062 0.581055 -6.30859 1.2959l-53.9492 23l-54.5 94.4004c24.9062 9.90332 62.0234 31.6367 82.8496 48.5098zM340.9 304.7l50.9795 -88.3203
c-19.3242 -19.3828 -56.3516 -41.2676 -82.6494 -48.8496l-50.4902 87.4697h-2.24023c-1.08008 0 -2.15039 0.0595703 -3.21973 0.0595703l-170.11 -294.76l-54 -23c-1.66211 -0.709961 -4.47754 -1.28613 -6.28516 -1.28613c-7.83105 0 -14.9482 6.31055 -15.8848 14.0859
l-7 58.25l171.61 297.23c-6.41113 11.8564 -11.6143 32.4189 -11.6143 45.8984c0 53.2676 43.2314 96.5 96.5 96.5c53.2676 0 96.5 -43.2324 96.5 -96.5c0 -13.7744 -5.41895 -34.7314 -12.0957 -46.7783zM256.5 320c17.3877 0 31.5 14.1123 31.5 31.5
s-14.1123 31.5 -31.5 31.5s-31.5 -14.1123 -31.5 -31.5s14.1123 -31.5 31.5 -31.5z" />
    <glyph glyph-name="drum-primary" unicode="&#xf569;" horiz-adv-x="576" 
d="M576 224v-160c0 -30.4805 -24 -58.46 -64 -80.4404v96.4404c0 17.6641 -14.3359 32 -32 32s-32 -14.3359 -32 -32v-122.43c-37.4004 -11.1299 -81 -18.46 -128 -20.7705v111.2c0 17.6641 -14.3359 32 -32 32s-32 -14.3359 -32 -32v-111.2
c-47 2.31055 -90.5996 9.64062 -128 20.7705v122.43c0 17.6641 -14.3359 32 -32 32s-32 -14.3359 -32 -32v-96.4297c-40 22 -64 50 -64 80.4395v159.99c0 70.6904 128.94 128 288 128c21.8467 -0.0126953 57.167 -2.25195 78.8398 -5l-71.9102 -43.1396
c-2.30957 0 -4.58984 0.120117 -6.92969 0.120117c-132.55 0 -240 -35.8203 -240 -80c0 -44.1807 107.45 -80 240 -80s240 35.8096 240 80c0 30.2695 -50.4502 56.5996 -124.82 70.1895l54.9004 32.9404c71.3799 -23.2803 117.92 -60.7402 117.92 -103.11z" />
    <glyph glyph-name="drum-steelpan-primary" unicode="&#xf56a;" horiz-adv-x="576" 
d="M288 416c159.06 0 288 -57.3096 288 -128v-192c0 -70.6904 -128.94 -128 -288 -128s-288 57.3096 -288 128v192c0 70.6904 128.94 128 288 128zM205 257.64c1.40234 5.18945 2.54004 13.7646 2.54004 19.1396c0 10.9189 -4.45312 27.4414 -9.94043 36.8809
l-25.5996 44.3398c-73.8896 -13.6104 -124 -39.8398 -124 -70c0 -30.7803 52.2305 -57.46 128.69 -70.8398c11.8301 8.36328 24.5127 26.498 28.3096 40.4795zM288 208c21.0801 0 41.4102 1 60.8896 2.7002c-8.05957 26.1299 -32.1494 45.2998 -60.8896 45.2998
s-52.8301 -19.1699 -60.8896 -45.2998c19.4795 -1.7002 39.8096 -2.7002 60.8896 -2.7002zM352 352v13c-20.4004 1.91992 -41.7998 3 -64 3s-43.5996 -1.12012 -64 -3v-13c0 -35.3281 28.6719 -64 64 -64s64 28.6719 64 64zM398.93 217.1
c76.6699 13.3604 129.07 40.0703 129.07 70.9004c0 30.21 -50.2803 56.5 -124.44 70.0996l-25.6299 -44.4199c-5.49512 -9.42383 -9.95508 -25.9268 -9.95508 -36.8359c0 -20.916 13.8682 -47.6816 30.9551 -59.7441z" />
    <glyph glyph-name="feather-alt-primary" unicode="&#xf56b;" 
d="M24 -64h-0.0585938c-13.248 0 -24 10.752 -24 24c0 5.50098 3.16211 13.1172 7.05859 17l264 264c3.88672 3.88672 11.5029 7.04199 17 7.04199c13.2705 0 24.042 -10.7715 24.042 -24.042c0 -5.49707 -3.15527 -13.1133 -7.04199 -17l-264 -264
c-3.86719 -3.86426 -11.4414 -7 -16.9082 -7h-0.0917969z" />
    <glyph glyph-name="file-contract-primary" unicode="&#xf56c;" horiz-adv-x="384" 
d="M246.65 70.5c1.68652 -3.54004 6.23828 -6.45215 10.1592 -6.5h47.1904c8.83203 0 16 -7.16797 16 -16s-7.16797 -16 -16 -16h-47.1904h-0.133789c-14.709 0 -31.959 10.6895 -38.5059 23.8604c-1.625 3.59863 -6.14941 6.51953 -10.0986 6.51953h-0.0712891
c-0.0449219 0.000976562 -0.118164 0.000976562 -0.163086 0.000976562c-3.79102 0 -8.19727 -2.77344 -9.83691 -6.19043l-7.66992 -15.3408c-2.44043 -4.88477 -8.85254 -8.84961 -14.3135 -8.84961h-0.0166016c-0.379883 0 -0.75 0 -1.13965 0.0498047
c-5.87695 0.418945 -12.1484 5.29785 -14 10.8906l-16.8604 50.4697l-10.6104 -31.8799c-5.42773 -16.3008 -23.7773 -29.5303 -40.958 -29.5303h-0.0419922h-12.3896c-8.83203 0 -16 7.16797 -16 16s7.16797 16 16 16h12.3896
c4.44824 0.00878906 9.20215 3.44043 10.6104 7.66016l18.1904 54.6396c3.01367 9.06934 13.2168 16.4307 22.7744 16.4307s19.7607 -7.36133 22.7754 -16.4307l13.8799 -41.6396c19.7998 16.1895 54.0801 9.7002 66.0303 -14.1602z" />
    <glyph glyph-name="file-download-primary" unicode="&#xf56d;" horiz-adv-x="384" 
d="M94.8203 128h65.1797v80c0 8.83203 7.16797 16 16 16h32c8.83203 0 16 -7.16797 16 -16v-80h65.1797c14.2803 0 21.4004 -17.29 11.2705 -27.3604l-96.4502 -95.6992c-2.75098 -2.72656 -8.12695 -4.93848 -12 -4.93848s-9.24902 2.21191 -12 4.93848l-96.4199 95.6992
c-10.1602 10.0703 -3.04004 27.3604 11.2402 27.3604z" />
    <glyph glyph-name="file-invoice-primary" unicode="&#xf570;" horiz-adv-x="384" 
d="M312 32c4.41602 0 8 -3.58398 8 -8v-16c0 -4.41602 -3.58398 -8 -8 -8h-80c-4.41602 0 -8 3.58398 -8 8v16c0 4.41602 3.58398 8 8 8h80zM304 224c8.83203 0 16 -7.16797 16 -16v-96c0 -8.83203 -7.16797 -16 -16 -16h-224c-8.83203 0 -16 7.16797 -16 16v96
c0 8.83203 7.16797 16 16 16h224zM288 128v64h-192v-64h192z" />
    <glyph glyph-name="file-invoice-dollar-primary" unicode="&#xf571;" horiz-adv-x="384" 
d="M176 216c0 4.41602 3.58398 8 8 8h16c4.41602 0 8 -3.58398 8 -8v-24.29c9.61328 -0.492188 23.667 -5.57715 31.3701 -11.3496c1.7041 -1.32617 3.08691 -4.15527 3.08691 -6.31445c0 -1.9082 -1.12695 -4.51855 -2.5166 -5.82617l-11.7607 -11.2197
c-1.29688 -1.18164 -3.77344 -2.14062 -5.52832 -2.14062c-1.38965 0 -3.45117 0.631836 -4.60156 1.41016c-3.24023 2.05469 -8.9834 3.72559 -12.8193 3.73047h-28.1104c-6.5 0 -11.7998 -5.91992 -11.7998 -13.1904c0 -5.94922 3.60938 -11.1895 8.76953 -12.7295
l45 -13.5c18.5898 -5.58008 31.5801 -23.4199 31.5801 -43.3896c0 -24.5303 -19 -44.4404 -42.6699 -45.0703v-24.1201c0 -4.41602 -3.58398 -8 -8 -8h-16c-4.41602 0 -8 3.58398 -8 8v24.29c-9.6123 0.496094 -23.666 5.58105 -31.3701 11.3496
c-1.7041 1.32617 -3.08691 4.15527 -3.08691 6.31445c0 1.9082 1.12695 4.51855 2.5166 5.82617l11.75 11.2197c1.29785 1.18164 3.77441 2.14062 5.5293 2.14062c1.38867 0 3.4502 -0.631836 4.60156 -1.41016c3.24121 -2.05078 8.98438 -3.72168 12.8193 -3.73047h28.1104
c6.5 0 11.7998 5.91992 11.7998 13.1904c0 5.94922 -3.61035 11.1895 -8.76953 12.7295l-45 13.5c-18.5908 5.58008 -31.5801 23.4199 -31.5801 43.3896c0 24.5205 19.0498 44.4404 42.6699 45.0703z" />
    <glyph glyph-name="file-prescription-primary" unicode="&#xf572;" horiz-adv-x="384" 
d="M304 38.6201c2.58496 -2.58691 4.68262 -7.65332 4.68262 -11.3105c0 -3.65625 -2.09766 -8.72266 -4.68262 -11.3096l-11.3096 -11.3203c-2.58691 -2.58691 -7.65625 -4.6875 -11.3154 -4.6875s-8.72852 2.10059 -11.3154 4.6875l-30.0596 30.0703l-30.0596 -30.0596
c-2.58691 -2.58789 -7.65625 -4.68848 -11.3154 -4.68848s-8.72852 2.10059 -11.3154 4.68848l-11.3096 11.3096c-2.58789 2.58691 -4.6875 7.65625 -4.6875 11.3154c0 3.6582 2.09961 8.72754 4.6875 11.3145l30.0596 30.0605l-59.3193 59.3096h-18.7402v-48
c0 -8.83203 -7.16797 -16 -16 -16h-16c-8.83203 0 -16 7.16797 -16 16v160c0 8.83203 7.16797 16 16 16h80h0.192383c35.2178 0 63.8008 -28.582 63.8008 -63.7998c0 -20.9932 -14.9873 -46.1348 -33.4531 -56.1201l33.46 -33.46l29.9004 29.8994
c2.58691 2.58789 7.65527 4.68848 11.3145 4.68848s8.72852 -2.10059 11.3154 -4.68848l11.3096 -11.3096c2.58789 -2.58691 4.6875 -7.65625 4.6875 -11.3154c0 -3.6582 -2.09961 -8.72754 -4.6875 -11.3145l-29.8994 -29.9004zM176 176c8.83203 0 16 7.16797 16 16
s-7.16797 16 -16 16h-48v-32h48z" />
    <glyph glyph-name="file-signature-primary" unicode="&#xf573;" horiz-adv-x="576" 
d="M246.65 70.5c1.59375 -3.2002 5.7832 -6.00488 9.34961 -6.25977v-32.1299c-14.4326 0.196289 -31.3809 10.8359 -37.8301 23.75c-1.625 3.59863 -6.14941 6.51953 -10.0986 6.51953h-0.0712891c-0.0449219 0.000976562 -0.118164 0.000976562 -0.163086 0.000976562
c-3.79102 0 -8.19727 -2.77344 -9.83691 -6.19043l-7.69043 -15.3408c-6.36914 -12.7793 -25.0293 -11.3691 -29.4795 2.09082l-16.8301 50.4697l-10.6104 -31.8799c-5.42773 -16.3008 -23.7773 -29.5303 -40.958 -29.5303h-0.0419922h-12.3896
c-8.83203 0 -16 7.16797 -16 16s7.16797 16 16 16h12.3896c4.44824 0.00878906 9.20215 3.44043 10.6104 7.66016l18.2197 54.6396c3.01465 9.06934 13.2178 16.4307 22.7754 16.4307s19.7607 -7.36133 22.7744 -16.4307l13.8809 -41.6396
c19.75 16.1895 54.0596 9.7002 66 -14.1602zM288 101l162.79 161.66l67.8799 -67.8799l-161.67 -162.78h-69v69zM568.54 280.67c4.12207 -4.11621 7.46777 -12.1846 7.46777 -18.0098c0 -5.82129 -3.34082 -13.8848 -7.45801 -18l-27.25 -27.25l-67.8799 67.8799
l27.25 27.25c4.11719 4.1123 12.1807 7.4502 18 7.4502s13.8828 -3.33789 18 -7.4502z" />
    <glyph glyph-name="file-upload-primary" unicode="&#xf574;" horiz-adv-x="384" 
d="M300.43 123.35c10.1504 -10.0693 3 -27.3594 -11.25 -27.3594h-65.1797v-80c0 -8.83203 -7.16797 -16 -16 -16h-32c-8.83203 0 -16 7.16797 -16 16v80.0098h-65.1797c-14.2803 0 -21.4102 17.29 -11.2705 27.3604l96.4502 95.6396
c2.75098 2.72559 8.12695 4.9375 12 4.9375s9.24902 -2.21191 12 -4.9375z" />
    <glyph glyph-name="fill-primary" unicode="&#xf575;" 
d="M502.63 231c5.17773 -5.1748 9.37988 -15.3145 9.37988 -22.6348c0 -7.3252 -4.20605 -17.4697 -9.38965 -22.6455l-221.57 -221.569c-15.5195 -15.5146 -45.9258 -28.1055 -67.8701 -28.1055s-52.3496 12.5908 -67.8701 28.1055l-117.189 117.189
c-15.5176 15.5205 -28.1104 45.9287 -28.1104 67.875c0 21.9473 12.5928 52.3545 28.1104 67.875l94.7598 94.7598l-86.1895 86.1807c-2.58496 2.58594 -4.68262 7.65332 -4.68262 11.3096c0 3.65723 2.09766 8.72363 4.68262 11.3105l22.6191 22.6191
c2.58691 2.58496 7.65332 4.68262 11.3105 4.68262c3.65625 0 8.72363 -2.09766 11.3096 -4.68262l86.1807 -86.1895l81.5801 81.5801c5.17285 5.17188 15.3086 9.37012 22.625 9.37012c7.31543 0 17.4512 -4.19824 22.625 -9.37012zM235.78 9.38965l198.96 198.96
l-162.42 162.41l-58.9199 -58.9297l58.5996 -58.5996c5.16699 -5.17285 9.36035 -15.3047 9.36035 -22.6152c0 -17.6641 -14.3359 -32 -32 -32c-7.32324 0 -17.4658 4.2041 -22.6406 9.38477l-58.5996 58.5801l-94.75 -94.7402
c-5.16992 -5.17285 -9.36523 -15.3066 -9.36523 -22.6201s4.19531 -17.4463 9.36523 -22.6201l117.189 -117.21c5.17285 -5.16406 15.3018 -9.35449 22.6104 -9.35449s17.4385 4.19043 22.6104 9.35449z" />
    <glyph glyph-name="fill-drip-primary" unicode="&#xf576;" horiz-adv-x="576" 
d="M503.63 231c5.17773 -5.1748 9.37988 -15.3145 9.37988 -22.6348c0 -7.3252 -4.20605 -17.4697 -9.38965 -22.6455l-221.57 -221.569c-15.5195 -15.5146 -45.9258 -28.1055 -67.8701 -28.1055s-52.3496 12.5908 -67.8701 28.1055l-117.189 117.189
c-15.5176 15.5205 -28.1104 45.9287 -28.1104 67.875c0 21.9473 12.5928 52.3545 28.1104 67.875l94.7598 94.7598l-86.1895 86.1807c-2.58496 2.58594 -4.68262 7.65332 -4.68262 11.3096c0 3.65723 2.09766 8.72363 4.68262 11.3105l22.6191 22.6191
c2.58691 2.58496 7.65332 4.68262 11.3105 4.68262c3.65625 0 8.72363 -2.09766 11.3096 -4.68262l86.1807 -86.1895l81.5801 81.5801c5.17285 5.17188 15.3086 9.37012 22.625 9.37012c7.31543 0 17.4512 -4.19824 22.625 -9.37012zM236.78 9.38965l198.96 198.96
l-162.42 162.41l-58.9199 -58.9297l58.5996 -58.5996c5.16699 -5.17285 9.36035 -15.3047 9.36035 -22.6152c0 -17.6641 -14.3359 -32 -32 -32c-7.32324 0 -17.4658 4.2041 -22.6406 9.38477l-58.5996 58.5801l-94.75 -94.7402
c-5.16992 -5.17285 -9.36523 -15.3066 -9.36523 -22.6201s4.19531 -17.4463 9.36523 -22.6201l117.189 -117.21c5.17285 -5.16406 15.3018 -9.35449 22.6104 -9.35449s17.4385 4.19043 22.6104 9.35449z" />
    <glyph glyph-name="fingerprint-primary" unicode="&#xf577;" 
d="M466 335.15c2.66406 -3.53906 4.8252 -10.0049 4.8252 -14.4346c0 -13.248 -10.752 -24 -24 -24c-7.17773 0 -16.1855 4.88086 -20.1055 10.8945c-35.2236 50.0156 -113.453 91.4062 -174.62 92.3896c-56.3398 0.780273 -108.92 -20.0898 -147.659 -58.8701
c-31.0869 -30.8838 -56.3154 -91.5137 -56.3154 -135.333c0 -1.0127 0.015625 -2.65527 0.0351562 -3.66699l-0.160156 -23.6396c-0.375 -12.8623 -11.123 -23.2998 -23.9902 -23.2998h-0.00976562h-0.719727c-12.8564 0.379883 -23.29 11.127 -23.29 23.9893
c0 0.193359 0.00390625 0.506836 0.00976562 0.700195l0.129883 21.4697c-0.0244141 1.25977 -0.0439453 3.30371 -0.0439453 4.5625c0 54.7637 31.5234 130.542 70.3643 169.147c48.0098 48.0303 112.55 73.7607 182.35 72.9404
c74.6885 -1.21094 170.202 -51.7676 213.2 -112.85zM254 365.88c101.12 -1.5 184.63 -83.0801 186.19 -181.88c0.0585938 -3.89844 0.106445 -10.2256 0.106445 -14.124c0 -29.2695 -2.7002 -76.626 -6.02734 -105.706
c-1.06934 -9.22949 -9.85938 -23.0596 -26.5791 -21.1104c-11.7393 1.34668 -21.2666 12.0283 -21.2666 23.8447c0 0.756836 0.0693359 1.9834 0.15625 2.73535c3.13867 27.4941 5.68652 72.2666 5.68652 99.9395c0 3.7793 -0.0478516 9.91211 -0.106445 13.6904
c-1.15039 73.0801 -63.4502 133.45 -138.88 134.58c-0.449219 0.00585938 -1.17676 0.00976562 -1.625 0.00976562c-9.05273 0 -23.5566 -1.65723 -32.375 -3.69922c-1.50586 -0.356445 -3.9834 -0.645508 -5.53027 -0.645508c-13.251 0 -24.0059 10.7539 -24.0059 24.0049
c0 10.4805 8.27734 20.9463 18.4756 23.3604c11.4639 2.78027 30.3398 5.03711 42.1357 5.03711c1.00586 0 2.63867 -0.0166016 3.64453 -0.0371094zM255.22 283.77c56.9697 -0.839844 104.061 -46.9199 104.94 -102.77
c0.0556641 -3.61133 0.100586 -9.47461 0.100586 -13.0869c0 -38.6201 -5.10742 -100.889 -11.4004 -138.993c-0.770508 -4.66992 -7.58008 -23.0996 -27.5801 -19.7695c-11.084 1.83496 -20.0801 12.4424 -20.0801 23.6768c0 1.08496 0.143555 2.83301 0.319336 3.90332
c5.91309 35.8584 10.7119 94.457 10.7119 130.8c0 3.51953 -0.0458984 9.23145 -0.101562 12.75c-0.469727 30.1299 -26.3096 55 -57.6201 55.4697c-34.5293 0.150391 -54.8594 -26.3896 -54.4502 -52.3398c0.0488281 -3.05273 0.0869141 -8.00879 0.0869141 -11.0625
c0 -39.5811 -6.47656 -103.169 -14.4561 -141.938c-2.05762 -10.7607 -12.6182 -19.4941 -23.5732 -19.4941c-13.248 0 -24 10.752 -24 24c0 1.45703 0.256836 3.79199 0.573242 5.21387c7.4248 36.1025 13.4512 95.3174 13.4512 132.176
c0 2.86426 -0.0361328 7.51172 -0.0820312 10.374c-0.839844 54.0205 41.9004 101.16 103.16 101.09z" />
    <glyph glyph-name="fish-primary" unicode="&#xf578;" horiz-adv-x="576" 
d="M327.1 352c137.46 0 248.9 -128 248.9 -160s-111.44 -160 -248.9 -160c-89.9697 0 -168.55 54.7695 -212.279 101.62l-87.3301 -66.0498c-12.1406 -9.16992 -30.2402 0.599609 -27.1406 14.6602l24.1904 109.77l-24.1797 109.71
c-3.10059 14.0596 15.0098 23.8398 27.1396 14.6602l87.3301 -66c43.7295 46.8604 122.27 101.63 212.27 101.63zM414.53 160c17.6641 0 32 14.3359 32 32s-14.3359 32 -32 32s-32 -14.3359 -32 -32s14.3359 -32 32 -32z" />
    <glyph glyph-name="flushed-primary" unicode="&#xf579;" 
d="M160 248h0.0605469c13.2148 0 23.9395 -10.7246 23.9395 -23.9395v-0.0605469c0 -13.248 -10.752 -24 -24 -24s-24 10.752 -24 24s10.752 24 24 24zM352 248h0.0605469c13.2148 0 23.9395 -10.7246 23.9395 -23.9395v-0.0605469c0 -13.248 -10.752 -24 -24 -24
s-24 10.752 -24 24s10.752 24 24 24z" />
    <glyph glyph-name="frown-open-primary" unicode="&#xf57a;" 
d="M176 272c17.6641 0 32 -14.3359 32 -32s-14.3359 -32 -32 -32s-32 14.3359 -32 32s14.3359 32 32 32zM336 272c17.6641 0 32 -14.3359 32 -32s-14.3359 -32 -32 -32s-32 14.3359 -32 32s14.3359 32 32 32z" />
    <glyph glyph-name="glass-martini-alt-primary" unicode="&#xf57b;" 
d="M405.12 384h-298.28l149.16 -149.13zM478.18 448c30.0508 0 45.1006 -36.3398 23.8203 -57.6396l-214 -214v-192.36h56c22.0801 0 40 -17.9199 40 -40c0 -4.41602 -3.58398 -8 -8 -8h-240c-4.41602 0 -8 3.58398 -8 8c0 22.0801 17.9199 40 40 40h56v192.4l-214 214
c-21.3203 21.2598 -6.26953 57.5996 23.7803 57.5996h444.399z" />
    <glyph glyph-name="globe-africa-primary" unicode="&#xf57c;" 
d="M431.5 240c-8.55566 0 -15.5 -6.94434 -15.5 -15.5v-6.92969v-0.00195312c0 -5.28809 -3.83984 -11.4961 -8.57031 -13.8584l-15.4297 -7.70996c-1.7998 -0.896484 -4.89355 -1.62402 -6.9043 -1.62402c-2.60059 0 -6.46484 1.17578 -8.62598 2.62402l-18.1699 12.1201
c-2.15723 1.43652 -6.01074 2.60254 -8.60254 2.60254c-1.3877 0 -3.58105 -0.355469 -4.89746 -0.792969l-2.64941 -0.879883c-5.8584 -1.94043 -10.6123 -8.52344 -10.6123 -14.6943c0 -2.59375 1.16992 -6.44922 2.6123 -8.60547l13.2393 -19.8604
c2.53809 -3.80859 8.31348 -6.89941 12.8906 -6.89941h8.20996c8.55566 0 15.5 -6.94434 15.5 -15.5v-11.3398c-0.000976562 -2.85156 -1.39062 -7.01855 -3.10059 -9.30078l-18.7393 -25c-1.19238 -1.59375 -2.45996 -4.47363 -2.83008 -6.42969l-4.32031 -22.8096
c-0.52832 -2.7998 -2.66113 -6.63477 -4.75977 -8.56055c-7.87598 -7.21191 -19.0762 -20.2754 -25 -29.1602l-13 -19.5498c-4.55078 -6.81152 -14.8916 -12.3398 -23.084 -12.3398c-9.46777 0 -20.5898 6.87207 -24.8262 15.3398
c-4.59863 9.19043 -8.33008 24.9902 -8.33008 35.2666v0.00390625v29.8896c0 8.55566 -6.94434 15.5 -15.5 15.5h-25.8799c-30.1504 0.00585938 -54.6201 24.4795 -54.6201 54.6299v14.0605c0.00390625 15.0742 9.79199 34.6523 21.8496 43.6992l27.5801 20.6904
c8.03906 6.02734 22.7188 10.9199 32.7666 10.9199h0.00390625h0.889648h0.0195312c7.11426 0 18.0498 -2.58496 24.4102 -5.76953l14.7207 -7.36035c1.80566 -0.90332 4.90918 -1.63574 6.92871 -1.63574c1.3877 0 3.58398 0.356445 4.90137 0.795898l47.3096 15.7695
c5.84277 1.9541 10.585 8.53906 10.585 14.7002c0 8.54785 -6.9375 15.4912 -15.4844 15.5h-10.0908h-0.0390625c-3.54395 0 -8.4541 2.03418 -10.9609 4.54004l-6.91992 6.91992c-2.50586 2.50586 -7.41602 4.54004 -10.96 4.54004h-0.0400391h-90
c-8.53906 0.0166016 -15.4697 6.96094 -15.4697 15.5v4.40039c0.0224609 6.6582 5.28223 13.3779 11.7402 15l14.4502 3.60938c3.20801 0.804688 7.30273 3.68945 9.13965 6.44043l8.08008 12.1094c2.52832 3.82617 8.30371 6.93555 12.8896 6.94043h24.21
c8.55078 0.00585938 15.4902 6.94922 15.4902 15.5v0.00976562v70.4404c106 -13.6504 191 -94.1904 211.34 -197.95h-67.8398z" />
    <glyph glyph-name="globe-americas-primary" unicode="&#xf57d;" 
d="M329.39 150.64l13.71 -13.6396c4.92969 -4.93066 8.93066 -14.5918 8.93066 -21.5635v-0.0361328v-0.0195312c0 -10.6777 -6.14648 -25.4531 -13.7207 -32.9805c-3.89941 -3.88086 -7.98926 -7.9502 -11.3096 -11.2803
c-2.5127 -2.49414 -5.30371 -7.29297 -6.23047 -10.71c-1.50977 -5.66016 -2.76953 -11.3799 -4.76953 -16.8701l-14.1201 -57.6396c-1.81934 -7.53125 -9.51172 -14.5918 -17.1699 -15.7607c-1.74023 -0.259766 -3.47949 -0.489258 -5.22949 -0.699219
c-0.682617 -0.0820312 -1.79395 -0.147461 -2.48047 -0.147461c-11.5918 0 -21 9.4082 -21 21v0.00683594v29.0703c1.69043 12.6201 -7.62988 36.25 -22.6299 51.25c-5.17188 5.17285 -9.37012 15.3096 -9.37012 22.625v0.00488281v32v0.0859375
c0 10.3828 -7.37402 22.8887 -16.46 27.9141c-14.3701 7.9502 -34.8096 19.0596 -48.8096 26.1104c-9.54199 4.8291 -23.7217 14.5732 -31.6504 21.75l-0.799805 0.719727c-5.67578 5.12305 -13.7666 14.4141 -18.0605 20.7402
c-7.29004 10.6992 -23.9502 35.3799 -35.6699 52.7695c-4.71777 6.99316 -8.54785 19.5146 -8.5498 27.9502v45.71c18.3906 22.4736 54.3477 51.3516 80.2598 64.46l40.5801 -38.6396c3.95215 -3.7627 11.1201 -8.79883 16 -11.2402
c1.86523 -0.933594 5.07227 -1.69043 7.1582 -1.69043c1.24121 0 3.21875 0.27832 4.41211 0.620117c6.39844 1.94727 11.5908 8.9541 11.5908 15.6426c0 0.0517578 0 0.135742 -0.000976562 0.1875c0.00878906 6.18359 5.00781 11.707 11.1602 12.3301
c2.53027 0.270508 5.0498 0.480469 7.58008 0.650391c0.216797 0.0136719 0.569336 0.0244141 0.787109 0.0244141c2.83398 0 6.75977 -1.62793 8.7627 -3.63477l24.4004 -24.4004c2.58691 -2.58691 4.6875 -7.65527 4.6875 -11.3145s-2.10059 -8.72852 -4.6875 -11.3154
l-4.69043 -4.67969l-10.3301 -10.3496c-1.29199 -1.29395 -2.34082 -3.82715 -2.34082 -5.65527s1.04883 -4.3623 2.34082 -5.65527l4.69043 -4.68945c1.29199 -1.29395 2.34082 -3.82715 2.34082 -5.65527s-1.04883 -4.3623 -2.34082 -5.65527l-8 -8
c-1.29395 -1.29199 -3.82617 -2.33984 -5.6543 -2.33984h-0.00585938h-9c-1.80566 -0.0185547 -4.30566 -1.07227 -5.58008 -2.34961l-9.91992 -9.65039c-1.33398 -1.2998 -2.41602 -3.86621 -2.41602 -5.72949c0 -1.03613 0.374023 -2.63184 0.835938 -3.56055
l15.5898 -31.1904c0.466797 -0.932617 0.845703 -2.53613 0.845703 -3.5791c0 -4.41406 -3.58203 -7.99805 -7.99609 -8h-5.63965c-1.65234 0.00976562 -4 0.90625 -5.24023 2l-9.2793 8.05957c-2.49121 2.16113 -7.18945 3.91602 -10.4873 3.91602
c-1.4375 0 -3.70996 -0.370117 -5.07324 -0.826172l-31.1699 -10.3896c-4.44922 -1.54688 -8.05957 -6.625 -8.05957 -11.335c0 -4.03711 2.91211 -8.81445 6.5 -10.665l11.0801 -5.54004c7.89746 -3.95215 21.4746 -7.16016 30.3057 -7.16016h0.00390625
c10.5195 0 22.5898 -27.29 32 -32h66.7598h0.015625c7.31055 0 17.4424 -4.19336 22.6143 -9.36035zM485.67 285.73c10.1182 -24.9033 18.3301 -66.9297 18.3301 -93.8096c0 -15.751 -2.88965 -40.9873 -6.4502 -56.3311l-55.6396 29.2197l-20.5205 10.1006
c-3.63184 1.55566 -8.35352 5.48926 -10.54 8.78027l-18 27c-2.22363 3.33691 -4.02832 9.2998 -4.02832 13.3096s1.80469 9.97266 4.02832 13.3096l19.5908 29.3809c1.9541 2.9248 6.09375 6.57617 9.23926 8.14941c7.17773 3.58203 19.4883 7.0498 27.4805 7.74023z" />
    <glyph glyph-name="globe-asia-primary" unicode="&#xf57e;" 
d="M268.07 230.28c-0.577148 0.342773 -1.58887 0.621094 -2.25977 0.621094c-1.39551 0 -3.10352 -0.977539 -3.81055 -2.18164l-17.3398 -28.9502c-2.57227 -4.28809 -8.71875 -7.76953 -13.7197 -7.76953h-0.310547h-0.00292969
c-3.65918 0 -8.72949 -2.10156 -11.3174 -4.69043l-5.65918 -5.65918c-1.29297 -1.29395 -2.3418 -3.82715 -2.3418 -5.65527s1.04883 -4.3623 2.3418 -5.65527l5.65918 -5.66016c2.58789 -2.58496 4.68848 -7.65234 4.69043 -11.3096v-9.37012
c0 -8.83203 -7.16797 -16 -16 -16h-6.09961c-5.44824 0.0117188 -11.8457 3.97656 -14.2803 8.84961l-22.6201 45.2305c-1.21875 2.44824 -4.42676 4.43457 -7.16211 4.43457c-1.83887 0 -4.38281 -1.05957 -5.67773 -2.36426l-19.4697 -19.46
c-2.58594 -2.58789 -7.65234 -4.68848 -11.3105 -4.69043h-111.33c-1.13184 8.78809 -2.0498 23.1123 -2.0498 31.9736v0.0263672c0 137 111 248 248 248h0.149414c17.9238 0 46.5293 -3.74121 63.8506 -8.34961v-34.3809v-0.00976562
c0 -7.69336 -4.98145 -17.7021 -11.1201 -22.3398l-41.4102 -31.2695c-1.96484 -1.31152 -3.56055 -4.29297 -3.56055 -6.65527c0 -2.72949 1.98047 -5.93457 4.4209 -7.15527l10.8301 -5.41016c4.87988 -2.44141 8.83984 -8.85156 8.83984 -14.3086v-0.000976562v-78.1201
c0 -4.41602 -3.58398 -8 -8 -8h-3.05957c-2.72754 0.000976562 -5.93066 1.98145 -7.15039 4.41992c-0.323242 0.65332 -1.09375 1.4873 -1.71973 1.86035zM411.31 125.48c2.58789 -2.58594 4.68848 -7.65332 4.69043 -11.3105v-24.5996
c-0.00195312 -3.6582 -2.10254 -8.72461 -4.69043 -11.3105l-9.56934 -9.56934c-2.58594 -2.58789 -7.65234 -4.68848 -11.3105 -4.69043h-15.1602c-3.67969 0.00195312 -8.76953 2.125 -11.3594 4.74023l-13 13c-4.32617 4.30859 -12.793 7.80566 -18.8984 7.80566
c-1.82812 0 -4.74902 -0.361328 -6.52148 -0.805664l-21.2705 -5.32031c-1.05176 -0.264648 -2.78711 -0.479492 -3.87207 -0.479492h-0.0078125h-10.3398c-3.63477 0.0175781 -8.6709 2.11816 -11.2402 4.68945l-11.9102 11.9102
c-1.29102 1.29297 -2.33984 3.82617 -2.33984 5.65332v0.00683594v10.2002v0.0136719c0 2.97656 2.24023 6.2998 5 7.41602l39.3398 15.7402c1.64453 0.655273 4.14941 2.02148 5.59082 3.0498l23.71 16.8896c1.14844 0.817383 3.22559 1.48047 4.63574 1.48047h0.00390625
h12.1396h0.00292969c2.94727 0 6.25684 -2.20898 7.3877 -4.93066l5.34961 -12.8496c0.566406 -1.35742 2.21973 -2.45898 3.69043 -2.45996h3.7998c1.65625 0 3.37598 1.29004 3.83984 2.87988l4.16016 14.4902c0.463867 1.58984 2.18359 2.87988 3.83984 2.87988h6.05957
c2.20801 0 4 -1.79199 4 -4v-12.9502v-0.00585938c0 -1.82812 1.04883 -4.36035 2.34082 -5.6543z" />
    <glyph glyph-name="grimace-primary" unicode="&#xf57f;" 
d="M176 272c17.6641 0 32 -14.3359 32 -32s-14.3359 -32 -32 -32s-32 14.3359 -32 32s14.3359 32 32 32zM336 272c17.6641 0 32 -14.3359 32 -32s-14.3359 -32 -32 -32s-32 14.3359 -32 32s14.3359 32 32 32z" />
    <glyph glyph-name="grin-primary" unicode="&#xf580;" 
d="M176 272c17.6641 0 32 -14.3359 32 -32s-14.3359 -32 -32 -32s-32 14.3359 -32 32s14.3359 32 32 32zM336 272c17.6641 0 32 -14.3359 32 -32s-14.3359 -32 -32 -32s-32 14.3359 -32 32s14.3359 32 32 32z" />
    <glyph glyph-name="grin-alt-primary" unicode="&#xf581;" 
d="M159.7 311.3c3.24512 4.78223 10.5703 8.66309 16.3496 8.66309s13.1045 -3.88086 16.3506 -8.66309c12.3994 -18.3994 15.0996 -36.8994 15.6992 -55.2998c-0.5 -18.4004 -3.2998 -36.9004 -15.6992 -55.2998c-3.24609 -4.78223 -10.5713 -8.66309 -16.3506 -8.66309
s-13.1045 3.88086 -16.3496 8.66309c-12.4004 18.3994 -15.1006 36.8994 -15.7002 55.2998c0.5 18.4004 3.2998 36.9004 15.7002 55.2998zM352.4 311.3c12.3994 -18.3994 15.0996 -36.8994 15.6992 -55.2998c-0.5 -18.4004 -3.2998 -36.9004 -15.6992 -55.2998
c-3.24609 -4.78223 -10.5713 -8.66309 -16.3506 -8.66309s-13.1045 3.88086 -16.3496 8.66309c-12.4004 18.3994 -15.1006 36.8994 -15.7002 55.2998c0.5 18.4004 3.2998 36.9004 15.7002 55.2998c3.24512 4.78223 10.5703 8.66309 16.3496 8.66309
s13.1045 -3.88086 16.3506 -8.66309z" />
    <glyph glyph-name="grin-beam-primary" unicode="&#xf582;" 
d="M176 296c23.7998 0 52.7002 -29.2998 56 -71.4004c0.700195 -8.59961 -10.7998 -11.8994 -14.9004 -4.5l-9.5 17c-7.69922 13.7002 -19.1992 21.6006 -31.5 21.6006c-12.2998 0 -23.7998 -7.90039 -31.5 -21.6006l-9.5 -17c-4.19922 -7.39941 -15.5996 -4 -14.8994 4.5
c3.09961 42.1006 32 71.4004 55.7998 71.4004zM392 224.6c0.700195 -8.59961 -10.7998 -11.8994 -14.9004 -4.5l-9.5 17c-7.69922 13.7002 -19.1992 21.6006 -31.5 21.6006c-12.2998 0 -23.7998 -7.90039 -31.5 -21.6006l-9.5 -17
c-4.09961 -7.2998 -15.5996 -4 -14.8994 4.5c3.09961 42.1006 32 71.4004 55.7998 71.4004s52.7002 -29.2998 56 -71.4004z" />
    <glyph glyph-name="grin-beam-sweat-primary" unicode="&#xf583;" 
d="M466.4 440.77c13.0996 -17.3896 41.5996 -57.7695 41.5996 -77.7695c0 -26 -21.5 -47 -48 -47s-48 21 -48 47c0 20 28.5 60.3799 41.5996 77.7695c1.3252 1.7666 4.19238 3.2002 6.40039 3.2002s5.0752 -1.43359 6.40039 -3.2002zM172 292
c23.7998 0 52.7002 -29.3301 56 -71.4004c0.700195 -8.59961 -10.7998 -12 -14.9004 -4.5l-9.5 17c-7.69922 13.6904 -19.1992 21.5908 -31.5 21.5908c-12.2998 0 -23.7998 -7.90039 -31.5 -21.5908l-9.5 -17c-4.19922 -7.40918 -15.5996 -4 -14.8994 4.5
c3.09961 42.0908 32 71.4004 55.7998 71.4004zM332 292c23.7998 0 52.7002 -29.3301 56 -71.4004c0.700195 -8.59961 -10.7998 -12 -14.9004 -4.5l-9.5 17c-7.69922 13.6904 -19.1992 21.5908 -31.5 21.5908c-12.2998 0 -23.7998 -7.90039 -31.5 -21.5908l-9.5 -17
c-4.09961 -7.40918 -15.5996 -4 -14.8994 4.5c3.09961 42.0908 32 71.4004 55.7998 71.4004z" />
    <glyph glyph-name="grin-hearts-primary" unicode="&#xf584;" 
d="M193.9 319.4c16.6172 -2.50684 30.1035 -18.1797 30.1035 -34.9844c0 -2.67578 -0.583984 -6.93945 -1.30371 -9.51562l-19.4004 -69.9004c-0.963867 -3.47363 -4.67188 -6.29297 -8.27734 -6.29297c-0.624023 0 -1.61914 0.131836 -2.22266 0.292969l-70.2002 18.2002
c-14.6855 3.79785 -26.6035 19.1904 -26.6035 34.3594c0 3.66797 1.07715 9.4209 2.4043 12.8408c6.69922 17.5996 26.6992 26.6992 44.8994 21.8994l7.10059 -1.89941l2 7.09961c5 18.0996 22.7998 30.9004 41.5 27.9004zM413.6 264.5
c1.34082 -3.43066 2.42871 -9.20508 2.42871 -12.8887c0 -15.1738 -11.9297 -30.5449 -26.6279 -34.3115l-70.2002 -18.2002c-0.586914 -0.150391 -1.55469 -0.272461 -2.16016 -0.272461c-3.60449 0 -7.34082 2.81055 -8.33984 6.27246l-19.4004 69.9004
c-0.719727 2.57715 -1.30371 6.83984 -1.30371 9.51562c0 16.8057 13.4863 32.4785 30.1035 34.9844c18.6006 3 36.4004 -9.7998 41.5 -27.9004l2 -7.09961l7.10059 1.90039c18.2002 4.69922 38.2002 -4.30078 44.8994 -21.9004z" />
    <glyph glyph-name="grin-squint-primary" unicode="&#xf585;" 
d="M222.2 250.3c3.22461 -1.92773 5.84277 -6.54199 5.84277 -10.2998s-2.61816 -8.37207 -5.84277 -10.2998l-80 -48c-11.5 -6.7998 -24 7.59961 -15.4004 18l33.6006 40.2998l-33.6006 40.2998c-8.59961 10.2998 3.7998 24.9004 15.4004 18zM385.2 199.7
c8.7002 -10.4004 -3.90039 -24.7998 -15.4004 -18l-80 48c-3.18945 1.94824 -5.77734 6.5625 -5.77734 10.2998s2.58789 8.35156 5.77734 10.2998l80 48c11.6006 6.90039 24 -7.7002 15.4004 -18l-33.6006 -40.2998z" />
    <glyph glyph-name="grin-squint-tears-primary" unicode="&#xf586;" 
d="M102.42 47.9004c0.349609 0.0537109 0.920898 0.0976562 1.27539 0.0976562c4.58691 0 8.31055 -3.72266 8.31055 -8.30957c0 -0.330078 -0.0390625 -0.862305 -0.0859375 -1.18848c-3.2998 -22.5996 -12 -73.5 -26.7998 -88.2998
c-19.2002 -19.2002 -50.6006 -18.9004 -70.2002 0.700195c-19.5996 19.5996 -19.9004 51.0996 -0.799805 70.1992c14.7998 14.8008 65.7002 23.6006 88.2998 26.8008zM196.42 215c0.767578 0.185547 2.03027 0.335938 2.82031 0.335938c6.62402 0 12 -5.37598 12 -12
c0 -0.793945 -0.152344 -2.06445 -0.339844 -2.83594l-22.6006 -90.5c-3.09961 -13.2002 -22.2002 -11.7002 -23.5 1.7002l-4.7998 52.2998l-52.2803 4.7998c-13.3994 1.2002 -14.8994 20.2998 -1.7998 23.6006zM336.42 283.1
c13.4004 -1.19922 14.9004 -20.2998 1.7998 -23.5996l-90.5 -22.5996c-0.772461 -0.188477 -2.0459 -0.341797 -2.84082 -0.341797c-6.62402 0 -12 5.37598 -12 12c0 0.795898 0.152344 2.06836 0.34082 2.8418l22.5 90.5996c3.2998 13.2002 22.4004 11.5 23.6006 -1.7998
l4.7998 -52.2998zM497.22 433.1c19.6006 -19.5996 19.9004 -51 0.700195 -70.1992c-14.7998 -14.8008 -65.7002 -23.6006 -88.2998 -26.8008c-0.349609 -0.0537109 -0.921875 -0.0976562 -1.27539 -0.0976562c-4.58691 0 -8.31055 3.72266 -8.31055 8.30957
c0 0.330078 0.0390625 0.862305 0.0859375 1.18848c3.2998 22.5996 12 73.5 26.7998 88.2998c19.0801 19.2002 50.7002 18.9004 70.2998 -0.700195z" />
    <glyph glyph-name="grin-stars-primary" unicode="&#xf587;" 
d="M217.3 279.1c3.6377 -0.563477 6.58887 -4.00781 6.58887 -7.6875c0 -1.78418 -1.02539 -4.25293 -2.28906 -5.51172l-25.3994 -24.6006l6 -34.8994c0.0693359 -0.375 0.125977 -0.988281 0.125977 -1.36914c0 -4.12891 -3.35059 -7.48047 -7.47949 -7.48047
c-1.0752 0 -2.70801 0.425781 -3.64648 0.949219l-31.2002 16.2002l-31.2998 -16.2998c-0.938477 -0.524414 -2.57227 -0.949219 -3.64648 -0.949219c-4.12891 0 -7.48047 3.35059 -7.48047 7.47949c0 0.381836 0.0566406 0.995117 0.126953 1.36914l6 34.9004
l-25.4004 24.5996c-1.26855 1.26953 -2.29883 3.75586 -2.29883 5.55078c0 3.68945 2.95605 7.16113 6.59863 7.74902l34.9004 5l15.5 31.6006c1.16797 2.39844 4.28125 4.3457 6.9502 4.3457c2.66797 0 5.78125 -1.94727 6.9502 -4.3457l15.5 -31.6006zM409.3 279
c3.69336 -0.484375 6.69043 -3.90039 6.69043 -7.625c0 -1.77539 -1.02637 -4.22852 -2.29004 -5.47461l-25.4004 -24.6006l6 -34.8994c0.0703125 -0.375 0.126953 -0.988281 0.126953 -1.36914c0 -4.12891 -3.35156 -7.48047 -7.48047 -7.48047
c-1.07422 0 -2.70801 0.425781 -3.64648 0.949219l-31.2998 16.2002l-31.2998 -16.2998c-0.938477 -0.524414 -2.57227 -0.949219 -3.64648 -0.949219c-4.12891 0 -7.48047 3.35059 -7.48047 7.47949c0 0.381836 0.0566406 0.995117 0.126953 1.36914l6 34.9004
l-25.4004 24.5996c-1.24512 1.25977 -2.25586 3.71973 -2.25586 5.49121c0 3.66699 2.93652 7.12012 6.55566 7.70898l34.9004 5l15.5 31.5996c1.16797 2.39941 4.28125 4.34668 6.9502 4.34668c2.66797 0 5.78125 -1.94727 6.9502 -4.34668l15.5 -31.5996z" />
    <glyph glyph-name="grin-tears-primary" unicode="&#xf588;" horiz-adv-x="640" 
d="M102.42 191.9c0.349609 0.0537109 0.920898 0.0976562 1.27539 0.0976562c4.58691 0 8.31055 -3.72266 8.31055 -8.30957c0 -0.330078 -0.0390625 -0.862305 -0.0859375 -1.18848c-3.2998 -22.5996 -12 -73.5 -26.7998 -88.2998
c-19.2002 -19.2002 -50.6006 -18.9004 -70.2002 0.700195c-19.5996 19.5996 -19.9004 51.0996 -0.799805 70.1992c14.7998 14.8008 65.7002 23.6006 88.2998 26.8008zM240 296c23.8203 0 52.7197 -29.2998 56 -71.4004c0.700195 -8.59961 -10.7998 -12 -14.9004 -4.5
l-9.5 17c-7.69922 13.7002 -19.1992 21.6006 -31.5 21.6006c-12.2998 0 -23.7998 -7.90039 -31.5 -21.6006l-9.5 -17c-4.19922 -7.39941 -15.5996 -4 -14.8994 4.5c3.09961 42.1006 32 71.4004 55.7998 71.4004zM625.8 165.1
c19.1797 -19.0996 18.7998 -50.6992 -0.799805 -70.2998c-19.5996 -19.5996 -51 -19.8994 -70.2002 -0.700195c-14.7998 14.8008 -23.5996 65.7002 -26.7998 88.3008c-0.0478516 0.331055 -0.0878906 0.87207 -0.0878906 1.20703c0 4.62598 3.75488 8.37988 8.38086 8.37988
c0.334961 0 0.875977 -0.0390625 1.20703 -0.0869141c22.5996 -3.30078 73.5 -12 88.2998 -26.8008zM400 296c23.8203 0 52.7197 -29.2998 56 -71.4004c0.700195 -8.59961 -10.7998 -12 -14.9004 -4.5l-9.5 17c-7.69922 13.7002 -19.1992 21.6006 -31.5 21.6006
c-12.2998 0 -23.7998 -7.90039 -31.5 -21.6006l-9.5 -17c-4.19922 -7.39941 -15.5996 -4 -14.8994 4.5c3.09961 42.1006 32 71.4004 55.7998 71.4004z" />
    <glyph glyph-name="grin-tongue-primary" unicode="&#xf589;" horiz-adv-x="640" 
d="M330.5 59.7998c3.5 15.4004 20.2002 24.1006 34.5996 17.6006c0.800781 -0.400391 -0.5 0.299805 19 -9.30078v-64c-0.0351562 -35.3311 -28.7383 -64.0049 -64.0693 -64.0049c-0.229492 0 -0.601562 0.00195312 -0.830078 0.00488281
c-35.1006 0.400391 -63.1006 29.7002 -63.1006 64.9004v63c19.2002 9.59961 18 9 18.9004 9.40039c14.4004 6.5 31.0996 -2.2002 34.5996 -17.6006l1.80078 -7.7998c2.09961 -9.2002 15.1992 -9.2002 17.2998 0zM272 244c0 -17.6641 -14.3359 -32 -32 -32
s-32 14.3359 -32 32s14.3359 32 32 32s32 -14.3359 32 -32zM400 276c17.6641 0 32 -14.3359 32 -32s-14.3359 -32 -32 -32s-32 14.3359 -32 32s14.3359 32 32 32z" />
    <glyph glyph-name="grin-tongue-squint-primary" unicode="&#xf58a;" 
d="M222.2 254.3c3.18945 -1.94824 5.77734 -6.5625 5.77734 -10.2998s-2.58789 -8.35156 -5.77734 -10.2998l-80 -48c-11.5 -6.7998 -24 7.59961 -15.4004 18l33.6006 40.2998l-33.6006 40.2998c-8.59961 10.2998 3.7998 24.9004 15.4004 18zM266.5 59.7998
c3.5 15.4004 20.2002 24.1006 34.5996 17.6006c0.800781 -0.400391 -0.5 0.299805 19 -9.30078v-64c-0.0351562 -35.3311 -28.7383 -64.0049 -64.0693 -64.0049c-0.229492 0 -0.601562 0.00195312 -0.830078 0.00488281
c-35.1006 0.400391 -63.1006 29.7002 -63.1006 64.9004v63c19.2002 9.59961 18 9 18.9004 9.40039c14.4004 6.5 31.0996 -2.2002 34.5996 -17.6006l1.80078 -7.7998c2.09961 -9.2002 15.1992 -9.2002 17.2998 0zM385.2 203.7
c8.7002 -10.4004 -3.90039 -24.7998 -15.4004 -18l-80 48c-3.22461 1.92773 -5.84277 6.54199 -5.84277 10.2998s2.61816 8.37207 5.84277 10.2998l80 48c11.7002 6.90039 23.9004 -7.7002 15.4004 -18l-33.6006 -40.2998z" />
    <glyph glyph-name="grin-tongue-wink-primary" unicode="&#xf58b;" 
d="M220 229.8c1.59961 -11.0996 -11.5996 -18.2002 -20 -10.7998l-9.5 8.5c-14.7998 13.2002 -46.2002 13.2002 -61 0l-9.5 -8.5c-8.5 -7.40039 -21.5996 -0.299805 -19.7998 10.7998c4 25.2002 34.2002 42.1006 59.8994 42.1006
c25.7002 0 55.9004 -16.9004 59.9004 -42.1006zM266.5 59.7998c3.5 15.4004 20.2002 24.1006 34.5996 17.6006c0.800781 -0.400391 -0.5 0.299805 19 -9.30078v-64c-0.0351562 -35.3311 -28.7383 -64.0049 -64.0693 -64.0049
c-0.229492 0 -0.601562 0.00195312 -0.830078 0.00488281c-35.1006 0.400391 -63.1006 29.7002 -63.1006 64.9004v63c19.2002 9.59961 18 9 18.9004 9.40039c14.4004 6.5 31.0996 -2.2002 34.5996 -17.6006l1.80078 -7.7998c2.09961 -9.2002 15.1992 -9.2002 17.2998 0z
M352 268h0.0605469c13.2148 0 23.9395 -10.7246 23.9395 -23.9395v-0.0605469c0 -13.248 -10.752 -24 -24 -24s-24 10.752 -24 24s10.752 24 24 24z" />
    <glyph glyph-name="grip-horizontal-primary" unicode="&#xf58d;" horiz-adv-x="448" 
d="M416 352c17.6641 0 32 -14.3359 32 -32v-64c0 -17.6641 -14.3359 -32 -32 -32h-64c-17.6641 0 -32 14.3359 -32 32v64c0 17.6641 14.3359 32 32 32h64zM96 352c17.6641 0 32 -14.3359 32 -32v-64c0 -17.6641 -14.3359 -32 -32 -32h-64c-17.6641 0 -32 14.3359 -32 32v64
c0 17.6641 14.3359 32 32 32h64zM256 352c17.6641 0 32 -14.3359 32 -32v-64c0 -17.6641 -14.3359 -32 -32 -32h-64c-17.6641 0 -32 14.3359 -32 32v64c0 17.6641 14.3359 32 32 32h64z" />
    <glyph glyph-name="grip-vertical-primary" unicode="&#xf58e;" horiz-adv-x="320" 
d="M96 96c17.6641 0 32 -14.3359 32 -32v-64c0 -17.6641 -14.3359 -32 -32 -32h-64c-17.6641 0 -32 14.3359 -32 32v64c0 17.6641 14.3359 32 32 32h64zM96 256c17.6641 0 32 -14.3359 32 -32v-64c0 -17.6641 -14.3359 -32 -32 -32h-64c-17.6641 0 -32 14.3359 -32 32v64
c0 17.6641 14.3359 32 32 32h64zM96 416c17.6641 0 32 -14.3359 32 -32v-64c0 -17.6641 -14.3359 -32 -32 -32h-64c-17.6641 0 -32 14.3359 -32 32v64c0 17.6641 14.3359 32 32 32h64z" />
    <glyph glyph-name="headphones-alt-primary" unicode="&#xf58f;" 
d="M160 160c17.6641 0 32 -14.3359 32 -32v-0.0595703v-127.881v-0.0595703c0 -17.6641 -14.3359 -32 -32 -32v0h-16c-35.3281 0.0332031 -64 28.7324 -64 64.0596v0.0605469v63.7598v0.0703125c0 35.3281 28.6719 64.0225 64 64.0498h16zM368 160
c35.3281 -0.0332031 64 -28.7324 64 -64.0596v-0.0605469v-63.7598v-0.0605469c0 -35.3271 -28.6719 -64.0264 -64 -64.0596h-16c-17.6641 0 -32 14.3359 -32 32v0.0595703v127.881v0.0595703c0 17.6641 14.3359 32 32 32v0h16z" />
    <glyph glyph-name="headset-primary" unicode="&#xf590;" 
d="M368 272c35.3281 0 64 -28.6719 64 -64v-48c0 -35.3281 -28.6719 -64 -64 -64h-16c-17.6641 0 -32 14.3359 -32 32v112c0 17.6641 14.3359 32 32 32h16zM160 272c17.6641 0 32 -14.3359 32 -32v-112c0 -17.6641 -14.3359 -32 -32 -32h-16c-35.3281 0 -64 28.6719 -64 64
v48c0 35.3281 28.6719 64 64 64h16z" />
    <glyph glyph-name="highlighter-primary" unicode="&#xf591;" horiz-adv-x="544" 
d="M0 -32l68.3701 70.4502l67 -67l-35.4502 -35.4502zM527.92 368.73c8.89258 -8.87695 16.1104 -26.2773 16.1104 -38.8428c0 -11.4443 -6.14258 -27.7021 -13.71 -36.2881l-170 -199.06l-169.721 169.74l199 170c8.58984 7.57617 24.8564 13.7246 36.3096 13.7246
c12.5488 0 29.9365 -7.20117 38.8105 -16.0752z" />
    <glyph glyph-name="hot-tub-primary" unicode="&#xf593;" 
d="M480 192c17.6641 0 32 -14.3359 32 -32v-160c0 -35.3281 -28.6719 -64 -64 -64h-384c-35.3281 0 -64 28.6719 -64 64v192h480zM128 8v112c0 4.41602 -3.58398 8 -8 8h-16c-4.41602 0 -8 -3.58398 -8 -8v-112c0 -4.41602 3.58398 -8 8 -8h16c4.41602 0 8 3.58398 8 8z
M224 8v112c0 4.41602 -3.58398 8 -8 8h-16c-4.41602 0 -8 -3.58398 -8 -8v-112c0 -4.41602 3.58398 -8 8 -8h16c4.41602 0 8 3.58398 8 8zM320 8v112c0 4.41602 -3.58398 8 -8 8h-16c-4.41602 0 -8 -3.58398 -8 -8v-112c0 -4.41602 3.58398 -8 8 -8h16
c4.41602 0 8 3.58398 8 8zM416 8v112c0 4.41602 -3.58398 8 -8 8h-16c-4.41602 0 -8 -3.58398 -8 -8v-112c0 -4.41602 3.58398 -8 8 -8h16c4.41602 0 8 3.58398 8 8z" />
    <glyph glyph-name="hotel-primary" unicode="&#xf594;" horiz-adv-x="576" 
d="M560 384h-16v-384h16c8.83203 0 16 -7.16797 16 -16v-32c0 -8.83203 -7.16797 -16 -16 -16h-240v96h96c0 70.6562 -57.3438 128 -128 128s-128 -57.3438 -128 -128h96v-96h-240c-8.83203 0 -16 7.16797 -16 16v32c0 8.83203 7.16797 16 16 16h16v384h-16
c-8.83203 0 -16 7.16797 -16 16v32c0 8.83203 7.16797 16 16 16h544c8.83203 0 16 -7.16797 16 -16v-32c0 -8.83203 -7.16797 -16 -16 -16zM192 204.8v38.4004c0 6.39941 -6.40039 12.7998 -12.7998 12.7998h-38.4004c-6.39941 0 -12.7998 -6.40039 -12.7998 -12.7998
v-38.4004c0 -6.39941 6.40039 -12.7998 12.7998 -12.7998h38.4004c6.39941 0 12.7998 6.40039 12.7998 12.7998zM192 300.8v38.4004c0 6.39941 -6.40039 12.7998 -12.7998 12.7998h-38.4004c-6.39941 0 -12.7998 -6.40039 -12.7998 -12.7998v-38.4004
c0 -6.39941 6.40039 -12.7998 12.7998 -12.7998h38.4004c6.39941 0 12.7998 6.40039 12.7998 12.7998zM320 204.8v38.4004c0 6.39941 -6.40039 12.7998 -12.7998 12.7998h-38.4004c-6.39941 0 -12.7998 -6.40039 -12.7998 -12.7998v-38.4004
c0 -6.39941 6.40039 -12.7998 12.7998 -12.7998h38.4004c6.39941 0 12.7998 6.40039 12.7998 12.7998zM320 300.8v38.4004c0 6.39941 -6.40039 12.7998 -12.7998 12.7998h-38.4004c-6.39941 0 -12.7998 -6.40039 -12.7998 -12.7998v-38.4004
c0 -6.39941 6.40039 -12.7998 12.7998 -12.7998h38.4004c6.39941 0 12.7998 6.40039 12.7998 12.7998zM448 204.8v38.4004c0 6.39941 -6.40039 12.7998 -12.7998 12.7998h-38.4004c-6.39941 0 -12.7998 -6.40039 -12.7998 -12.7998v-38.4004
c0 -6.39941 6.40039 -12.7998 12.7998 -12.7998h38.4004c6.39941 0 12.7998 6.40039 12.7998 12.7998zM448 300.8v38.4004c0 6.39941 -6.40039 12.7998 -12.7998 12.7998h-38.4004c-6.39941 0 -12.7998 -6.40039 -12.7998 -12.7998v-38.4004
c0 -6.39941 6.40039 -12.7998 12.7998 -12.7998h38.4004c6.39941 0 12.7998 6.40039 12.7998 12.7998z" />
    <glyph glyph-name="joint-primary" unicode="&#xf595;" horiz-adv-x="640" 
d="M360.89 95.9502h0.0869141c16.249 0 38.0186 -10.0127 48.5938 -22.3506l117.949 -137.6h-88.4492c-16.248 0.000976562 -38.0166 10.0137 -48.5898 22.3496l-117.801 137.431c1.40039 0.0195312 53.8105 0.109375 88.21 0.169922zM195 89
c2.93652 0.491211 7.73633 0.888672 10.7139 0.888672c16.3613 0 38.3477 -10.0254 49.0762 -22.3789l112.72 -131.51h-88.5693c-83.3203 0 -208.285 35.8398 -278.94 80c49.7441 31.0371 137.104 63.7412 195 73zM616 96c13.248 0 24 -10.752 24 -24v-112
c0 -13.248 -10.752 -24 -24 -24h-17.4199c-16.2441 0.00292969 -38.0088 10.0156 -48.5801 22.3496l-118 137.65h184z" />
    <glyph glyph-name="kiss-beam-primary" unicode="&#xf597;" 
d="M392.1 224.6c0.5 -8.5 -10.8994 -12 -15.0996 -4.5l-9.5 17c-7.7002 13.7002 -19.2002 21.6006 -31.5 21.6006s-23.7998 -7.90039 -31.5 -21.6006l-9.5 -17c-4.09961 -7.2998 -15.5996 -4 -14.9004 4.5c3.30078 42.1006 32.2002 71.4004 56 71.4004
c23.8008 0 52.7002 -29.2998 56 -71.4004zM176.1 296c23.8008 0 52.7002 -29.2998 56 -71.4004c0.5 -8.5 -10.8994 -12 -15.0996 -4.5l-9.5 17c-7.7002 13.7002 -19.2002 21.6006 -31.5 21.6006s-23.7998 -7.90039 -31.5 -21.6006l-9.5 -17
c-4.2002 -7.39941 -15.5996 -4 -14.9004 4.5c3.30078 42.1006 32.2002 71.4004 56 71.4004z" />
    <glyph glyph-name="kiss-wink-heart-primary" unicode="&#xf598;" 
d="M505.1 45.5c1.60156 -4.06641 2.90137 -10.9141 2.90137 -15.2842c0 -17.8887 -14.0674 -35.9941 -31.4014 -40.416l-83 -21.5c-0.695312 -0.179688 -1.84277 -0.326172 -2.56152 -0.326172c-4.2627 0 -8.66992 3.32715 -9.83789 7.42676l-22.9004 82.5996
c-0.84668 3.04102 -1.53418 8.07227 -1.53418 11.2295c0 19.8418 15.9189 38.376 35.5342 41.3701c22 3.5 43.1006 -11.5996 49 -33l2.2998 -8.39941l8.40039 2.2002c21.5996 5.59961 45.0996 -5.10059 53.0996 -25.9004zM388.2 231l-9.5 8.5
c-14.7998 13.2002 -46.2002 13.2002 -61 0l-9.7002 -8.5c-8.2998 -7.40039 -21.5996 -0.400391 -19.7998 10.7998c4 25.2002 34.2002 42.1006 59.8994 42.1006c25.7002 0 55.9004 -16.9004 59.9004 -42.1006c0.0751953 -0.493164 0.135742 -1.29883 0.135742 -1.79785
c0 -6.62402 -5.37598 -12 -12 -12c-2.50293 0 -6.05859 1.34277 -7.93555 2.99805zM172 272c17.6641 0 32 -14.3359 32 -32s-14.3359 -32 -32 -32s-32 14.3359 -32 32s14.3359 32 32 32z" />
    <glyph glyph-name="laugh-primary" unicode="&#xf599;" 
d="M336 288c17.6641 0 32 -14.3359 32 -32s-14.3359 -32 -32 -32s-32 14.3359 -32 32s14.3359 32 32 32zM176 288c17.6641 0 32 -14.3359 32 -32s-14.3359 -32 -32 -32s-32 14.3359 -32 32s14.3359 32 32 32z" />
    <glyph glyph-name="laugh-beam-primary" unicode="&#xf59a;" 
d="M392 240.6c0.700195 -8.59961 -10.7998 -11.8994 -14.9004 -4.5l-9.5 17c-7.69922 13.7002 -19.1992 21.6006 -31.5 21.6006c-12.2998 0 -23.7998 -7.90039 -31.5 -21.6006l-9.5 -17c-4.19922 -7.39941 -15.7998 -4.09961 -15.0996 4.5
c3.2998 42.1006 32.2002 71.4004 56 71.4004s52.7002 -29.2998 56 -71.4004zM176 312c23.7998 0 52.7002 -29.2998 56 -71.4004c0.700195 -8.59961 -10.7998 -11.8994 -14.9004 -4.5l-9.5 17c-7.69922 13.7002 -19.1992 21.6006 -31.5 21.6006
c-12.2998 0 -23.7998 -7.90039 -31.5 -21.6006l-9.5 -17c-4.2998 -7.39941 -15.7998 -4 -15.0996 4.5c3.2998 42.1006 32.2002 71.4004 56 71.4004z" />
    <glyph glyph-name="laugh-squint-primary" unicode="&#xf59b;" 
d="M385.2 227.7c8.7002 -10.4004 -3.90039 -24.7998 -15.4004 -18l-80 48c-3.18945 1.94824 -5.77734 6.5625 -5.77734 10.2998s2.58789 8.35156 5.77734 10.2998l80 48c11.6006 6.90039 24 -7.7002 15.4004 -18l-33.6006 -40.2998zM222.2 278.3
c3.22461 -1.92773 5.84277 -6.54199 5.84277 -10.2998s-2.61816 -8.37207 -5.84277 -10.2998l-80 -48c-11.5 -6.7998 -24 7.59961 -15.4004 18l33.6006 40.2998l-33.6006 40.2998c-8.59961 10.2998 3.7998 24.9004 15.4004 18z" />
    <glyph glyph-name="laugh-wink-primary" unicode="&#xf59c;" 
d="M395.9 241.9c1.69922 -11.1006 -11.4004 -18.3008 -19.8008 -10.8008l-9.5 8.5c-14.7998 13.2002 -46.1992 13.2002 -61 0l-9.59961 -8.59961c-1.88574 -1.65039 -5.4502 -2.99023 -7.95605 -2.99023c-6.66895 0 -12.0801 5.41211 -12.0801 12.0801
c0 0.501953 0.0605469 1.31348 0.135742 1.81055c4 25.1992 34.2002 42.0996 59.9004 42.0996s55.9004 -16.9004 59.9004 -42.0996zM176 288c17.6641 0 32 -14.3359 32 -32s-14.3359 -32 -32 -32s-32 14.3359 -32 32s14.3359 32 32 32z" />
    <glyph glyph-name="luggage-cart-primary" unicode="&#xf59d;" horiz-adv-x="640" 
d="M624 64c8.83203 0 16 -7.16797 16 -16v-32c0 -8.83203 -7.16797 -16 -16 -16h-544c-8.83203 0 -16 7.16797 -16 16v368h-48c-8.83203 0 -16 7.16797 -16 16v32c0 8.83203 7.16797 16 16 16h96c8.83203 0 16 -7.16797 16 -16v-368h496zM288 352v-224h-32v224h32zM512 352
v-224h-32v224h32z" />
    <glyph glyph-name="map-marked-primary" unicode="&#xf59f;" horiz-adv-x="576" 
d="M414 322c0 -56.2598 -82.3496 -158.8 -113.9 -196c-2.60938 -3.12207 -8.03027 -5.65625 -12.0996 -5.65625s-9.49023 2.53418 -12.0996 5.65625c-31.5508 37.2002 -113.9 139.74 -113.9 196c0 69.5518 56.4482 126 126 126s126 -56.4482 126 -126z" />
    <glyph glyph-name="map-marked-alt-primary" unicode="&#xf5a0;" horiz-adv-x="576" 
d="M288 448c69.5518 0 126 -56.4482 126 -126c0 -56.2598 -82.3496 -158.8 -113.9 -196c-2.60938 -3.12207 -8.03027 -5.65625 -12.0996 -5.65625s-9.49023 2.53418 -12.0996 5.65625c-31.5508 37.2002 -113.9 139.74 -113.9 196c0 69.5518 56.4482 126 126 126zM288 280
c23.1836 0 42 18.8164 42 42s-18.8164 42 -42 42s-42 -18.8164 -42 -42s18.8164 -42 42 -42z" />
    <glyph glyph-name="marker-primary" unicode="&#xf5a1;" 
d="M485.5 293.47l-165.5 -165.47l-128 128l98.4805 98.4697l-19.6006 19.5898l-87.1494 -87.1494c-2.58789 -2.58789 -7.65625 -4.6875 -11.3154 -4.6875s-8.72852 2.09961 -11.3154 4.6875l-22.6191 22.6201c-2.58789 2.58691 -4.68848 7.65625 -4.68848 11.3145
c0 3.65918 2.10059 8.72852 4.68848 11.3154l104.119 104.12c6.4668 6.46484 19.1367 11.7109 28.2803 11.7109s21.8135 -5.24609 28.2803 -11.7109l36.5596 -36.5498l21.7607 21.7598c14.5371 14.1055 42.7764 25.5527 63.0322 25.5527
c49.9678 0 90.5205 -40.5527 90.5205 -90.5205c0 -20.2559 -11.4482 -48.4941 -25.5527 -63.0322z" />
    <glyph glyph-name="medal-primary" unicode="&#xf5a2;" 
d="M256 288c97.1523 0 176 -78.8477 176 -176s-78.8477 -176 -176 -176s-176 78.8477 -176 176s78.8477 176 176 176zM348.52 130.74c1.92773 1.86816 3.49219 5.56445 3.49219 8.24902c0 5.48926 -4.40918 10.583 -9.8418 11.3711l-52.4297 7.63965l-23.4307 47.5195
c-1.74805 3.53027 -6.36523 6.39551 -10.3047 6.39551s-8.55664 -2.86523 -10.3047 -6.39551l-23.4307 -47.5195l-52.3994 -7.62988c-5.41797 -0.798828 -9.81445 -5.89062 -9.81445 -11.3672c0 -2.67285 1.55176 -6.35645 3.46387 -8.22266l37.9307 -37l-9 -52.2207
c-0.0898438 -0.526367 -0.162109 -1.38867 -0.162109 -1.92285c0 -6.33691 5.14258 -11.4805 11.4795 -11.4805c1.56152 0 3.9502 0.588867 5.33203 1.31348l46.9004 24.6504l46.9404 -24.6904c1.38184 -0.724609 3.77051 -1.31348 5.33203 -1.31348
c6.33691 0 11.4795 5.14355 11.4795 11.4805c0 0.53418 -0.0722656 1.39648 -0.162109 1.92285l-9 52.2207z" />
    <glyph glyph-name="meh-blank-primary" unicode="&#xf5a4;" 
d="M176 272c17.6641 0 32 -14.3359 32 -32s-14.3359 -32 -32 -32s-32 14.3359 -32 32s14.3359 32 32 32zM336 272c17.6641 0 32 -14.3359 32 -32s-14.3359 -32 -32 -32s-32 14.3359 -32 32s14.3359 32 32 32z" />
    <glyph glyph-name="meh-rolling-eyes-primary" unicode="&#xf5a5;" 
d="M383 280c0.551758 -2.15625 1 -5.71191 1 -7.9375c0 -17.6641 -14.3359 -32 -32 -32s-32 14.3359 -32 32c0 2.22559 0.448242 5.78125 1 7.9375c7.98535 4.4209 21.873 8.00879 31 8.00879s23.0146 -3.58789 31 -8.00879zM160 288h0.09375
c9.10156 0 22.9473 -3.58398 30.9062 -8c0.551758 -2.15625 1 -5.71191 1 -7.9375c0 -17.6641 -14.3359 -32 -32 -32s-32 14.3359 -32 32c0 2.22559 0.448242 5.78125 1 7.9375c7.95898 4.41602 21.8047 8 30.9062 8h0.09375z" />
    <glyph glyph-name="monument-primary" unicode="&#xf5a6;" horiz-adv-x="384" 
d="M289.14 347.26l30.8604 -315.26h-256l30.8701 315.26c0.626953 6.27246 4.75293 14.9824 9.20996 19.4404l76.5996 76.6094c2.58691 2.58789 7.65625 4.68848 11.3154 4.68848s8.72754 -2.10059 11.3145 -4.68848l76.6201 -76.6094
c4.45703 -4.45801 8.58301 -13.168 9.20996 -19.4404zM240 140.8v38.4004c0 6.39941 -6.40039 12.7998 -12.7998 12.7998h-70.4004c-6.39941 0 -12.7998 -6.40039 -12.7998 -12.7998v-38.4004c0 -6.39941 6.40039 -12.7998 12.7998 -12.7998h70.4004
c6.39941 0 12.7998 6.40039 12.7998 12.7998z" />
    <glyph glyph-name="mortar-pestle-primary" unicode="&#xf5a7;" 
d="M16 256h480c8.83203 0 16 -7.16797 16 -16v-32c0 -8.83203 -7.16797 -16 -16 -16h-16c0 -81 -50.2002 -150.11 -121.13 -178.32c11.0488 -14.4258 22.2266 -40.7139 24.9502 -58.6797c0.111328 -0.705078 0.202148 -1.85645 0.202148 -2.57031
c0 -8.9834 -7.29004 -16.3438 -16.2725 -16.4297h-223.5c-8.98242 0.0859375 -16.2725 7.44629 -16.2725 16.4297c0 0.713867 0.0908203 1.86523 0.202148 2.57031c2.72949 17.9658 13.9072 44.2588 24.9502 58.6904c-70.9297 28.1992 -121.13 97.3096 -121.13 178.31h-16
c-8.83203 0 -16 7.16797 -16 16v32c0 8.83203 7.16797 16 16 16z" />
    <glyph glyph-name="paint-brush-alt-primary" unicode="&#xf5a9;" 
d="M167.87 138.71l87.0703 -72.5596c0.452148 -2.74316 0.926758 -7.22363 1.05957 -10c0 -76.3809 -52.1396 -120.15 -128 -120.15c-90.0703 0 -128 72.3799 -128 154.73c9.79004 -6.68066 44.1396 -34.3506 55.25 -34.3506
c0.0732422 -0.000976562 0.191406 -0.00195312 0.264648 -0.00195312c5.88086 0 12.2988 4.48047 14.3252 10.002c20.7998 54.7998 57.5801 69.9199 98.0303 72.3301z" />
    <glyph glyph-name="paint-roller-primary" unicode="&#xf5aa;" 
d="M512 320v-64c0 -52.9922 -43.0078 -96 -96 -96h-160v-32c17.6641 0 32 -14.3359 32 -32v-128c0 -17.6641 -14.3359 -32 -32 -32h-64c-17.6641 0 -32 14.3359 -32 32v128c0 17.6641 14.3359 32 32 32v32c0 35.3281 28.6719 64 64 64h160c17.6641 0 32 14.3359 32 32v128
c35.3281 0 64 -28.6719 64 -64z" />
    <glyph glyph-name="passport-primary" unicode="&#xf5ab;" horiz-adv-x="448" 
d="M224 161.31c-7.69043 7.4502 -20.7695 34.4307 -23.4404 78.6904h46.8701c-2.66016 -44.2695 -15.7393 -71.2402 -23.4297 -78.6904zM129.62 240h39.0898c1.49023 -27 6.53027 -51.3496 14.21 -70.4102c-24.7939 11.7998 -48.6729 43.3438 -53.2998 70.4102zM129.62 272
c4.625 27.0684 28.5029 58.6123 53.2998 70.4102c-7.66992 -19.0605 -12.7197 -43.4102 -14.21 -70.4102h-39.0898zM265.08 342.41c24.7969 -11.7979 48.6748 -43.3418 53.2998 -70.4102h-39.0898c-1.49023 27 -6.53027 51.3496 -14.21 70.4102zM200.57 272
c2.66016 44.2598 15.7393 71.2402 23.4395 78.6904c7.69043 -7.4502 20.7705 -34.4307 23.4307 -78.6904h-46.8701zM416 448c17.6641 0 32 -14.3359 32 -32v-448c0 -17.6641 -14.3359 -32 -32 -32h-352c-35.3281 0 -64 28.6719 -64 64v384c0 35.3281 28.6719 64 64 64h352z
M336 32c8.83203 0 16 7.16797 16 16s-7.16797 16 -16 16h-224c-8.83203 0 -16 -7.16797 -16 -16s7.16797 -16 16 -16h224zM224 128c70.6562 0 128 57.3438 128 128s-57.3438 128 -128 128s-128 -57.3438 -128 -128s57.3438 -128 128 -128zM265.08 169.59
c7.67969 19.0605 12.7197 43.4102 14.21 70.4102h39.0898c-4.625 -27.0684 -28.5029 -58.6123 -53.2998 -70.4102z" />
    <glyph glyph-name="pen-fancy-primary" unicode="&#xf5ac;" 
d="M483.48 305.45l-199.48 -183.11l-97.8496 97.8506l183.1 199.489c74.4805 84.2607 199.15 -39.1602 114.23 -114.229z" />
    <glyph glyph-name="pen-nib-primary" unicode="&#xf5ad;" 
d="M497.94 373.83c7.76758 -7.76172 14.0723 -22.9736 14.0723 -33.9551s-6.30469 -26.1934 -14.0723 -33.9551l-56.5508 -56.5498l-128 128l56.5508 56.5498c7.76172 7.76855 22.9736 14.0732 33.9541 14.0732c10.9814 0 26.1934 -6.30469 33.9551 -14.0732z" />
    <glyph glyph-name="pencil-ruler-primary" unicode="&#xf5ae;" 
d="M497.94 388.68c7.78125 -7.76367 14.0977 -22.9873 14.0977 -33.9795c0 -10.9883 -6.31152 -26.207 -14.0879 -33.9697l-46 -46l-113.21 113.199l46 46c7.76855 7.76855 22.9893 14.0723 33.9746 14.0723c10.9863 0 26.207 -6.30371 33.9756 -14.0723zM19.0801 68.3203
l297 296.96l113.21 -113.19l-296.92 -296.93l-107.45 -18.8398c-1.00684 -0.177734 -2.65332 -0.321289 -3.67578 -0.321289c-11.7197 0 -21.2305 9.51172 -21.2305 21.2305c0 1.01465 0.141602 2.65039 0.316406 3.65039z" />
    <glyph glyph-name="plane-arrival-primary" unicode="&#xf5af;" horiz-adv-x="640" 
d="M32.2305 265.59l-0.230469 101.78c0.0537109 9.06543 7.4541 16.4229 16.5195 16.4229c1.17871 0 3.06055 -0.243164 4.2002 -0.542969l39.7305 -10.8301c4.40918 -1.21973 9.33691 -5.66797 11 -9.92969l27.5898 -67.8799l102.2 -27.8408l-47.9004 164.23
c-0.00292969 0.125977 -0.00585938 0.329102 -0.00585938 0.455078c0 9.11328 7.39648 16.5098 16.5098 16.5098c1.18066 0 3.06445 -0.244141 4.20605 -0.544922l65.0898 -17.7295c5.12402 -1.42285 10.3477 -6.75781 11.6602 -11.9102l100.36 -191.851l97.5098 -26.5596
c26.4805 -7.20996 51.5498 -20.1797 70.8301 -40c21.6396 -22.25 27.2002 -40.46 23.3701 -55s-17.5801 -27.3701 -47.25 -35.6699c-26.4404 -7.36035 -54.5205 -5.85059 -81 1.35938l-287.62 78.3506c-7.94727 2.16699 -19.3584 8.40723 -25.4697 13.9297l-88.7402 80
c-6.53027 5.91016 -12.3701 14.3398 -12.5596 23.25z" />
    <glyph glyph-name="prescription-primary" unicode="&#xf5b1;" horiz-adv-x="384" 
d="M379.32 17.9102c2.58691 -2.58691 4.6875 -7.65625 4.6875 -11.3154c0 -3.6582 -2.10059 -8.72754 -4.6875 -11.3145l-22.6299 -22.6299c-2.58691 -2.58789 -7.65625 -4.6875 -11.3154 -4.6875s-8.72852 2.09961 -11.3154 4.6875l-78.0596 78.0596l45.2598 45.2002z
M172 225.22l84 -84l-45.25 -45.2197l-128 128h-18.75v-80c0 -8.83203 -7.16797 -16 -16 -16h-32c-8.83203 0 -16 7.16797 -16 16v256c0 8.83203 7.16797 16 16 16h144c52.9922 0 96 -43.0078 96 -96c0 -48.8896 -36.7305 -88.7803 -84 -94.7803zM64 288h96
c17.6641 0 32 14.3359 32 32s-14.3359 32 -32 32h-96v-64z" />
    <glyph glyph-name="sad-cry-primary" unicode="&#xf5b3;" 
d="M160.1 267.9c25.7002 0 55.9004 -16.9004 59.9004 -42.1006c0.0751953 -0.493164 0.135742 -1.29883 0.135742 -1.79785c0 -6.62402 -5.37598 -12 -12 -12c-2.50293 0 -6.05859 1.34277 -7.93555 2.99805l-9.7002 8.5c-14.7998 13.2002 -46.2002 13.2002 -61 0l-9.5 -8.5
c-1.87793 -1.65527 -5.43262 -2.99805 -7.93555 -2.99805c-6.62402 0 -12 5.37598 -12 12c0 0.499023 0.0605469 1.30469 0.135742 1.79785c4 25.2002 34.2002 42.1006 59.8994 42.1006zM412 225.8c0.0527344 -0.420898 0.0947266 -1.10645 0.0947266 -1.53027
c0 -3.98828 -2.82031 -8.8125 -6.29492 -10.7695c-1.47559 -0.806641 -4.03906 -1.46094 -5.7207 -1.46094c-2.52637 0 -6.10059 1.37109 -7.97949 3.06055l-9.5 8.5c-14.7998 13.2002 -46.1992 13.2002 -61 0l-9.59961 -8.59961
c-1.87793 -1.65527 -5.43262 -2.99805 -7.93555 -2.99805c-6.62402 0 -12 5.37598 -12 12c0 0.499023 0.0605469 1.30469 0.135742 1.79785c4 25.2002 34.2002 42.1006 59.8994 42.1006c25.7002 0 55.9004 -16.9004 59.9004 -42.1006zM368 176c8.83203 0 16 -7.16797 16 -16
v-180.47c-8.50488 -5.13379 -22.8408 -12.4229 -32 -16.2705v196.74c0 8.83203 7.16797 16 16 16zM144 176c8.83203 0 16 -7.16797 16 -16v-196.74c-9.15918 3.84766 -23.4951 11.1367 -32 16.2705v180.47c0 8.83203 7.16797 16 16 16z" />
    <glyph glyph-name="sad-tear-primary" unicode="&#xf5b4;" 
d="M336 272c17.6641 0 32 -14.3359 32 -32s-14.3359 -32 -32 -32s-32 14.3359 -32 32s14.3359 32 32 32zM153.6 156.8c1.3252 1.7666 4.19238 3.2002 6.40039 3.2002s5.0752 -1.43359 6.40039 -3.2002c13.0996 -17.3994 41.5996 -57.7998 41.5996 -77.7998
c0 -26 -21.5 -47 -48 -47s-48 21 -48 47c0 20 28.5 60.4004 41.5996 77.7998zM176 272c17.6641 0 32 -14.3359 32 -32s-14.3359 -32 -32 -32s-32 14.3359 -32 32s14.3359 32 32 32z" />
    <glyph glyph-name="shuttle-van-primary" unicode="&#xf5b6;" horiz-adv-x="640" 
d="M628.88 237.35c6.13672 -7.37109 11.1182 -21.1387 11.1201 -30.7295v-110.62c0 -17.6641 -14.3359 -32 -32 -32h-17.1396c-7.62402 53.0254 -57.29 96.0605 -110.86 96.0605s-103.236 -43.0352 -110.86 -96.0605h-98.2793
c-7.62402 53.0254 -57.29 96.0605 -110.86 96.0605s-103.236 -43.0352 -110.86 -96.0605h-17.1396c-17.6641 0 -32 14.3359 -32 32v288c0 17.6641 14.3359 32 32 32h425.52c12.4092 -0.000976562 28.9268 -7.73828 36.8701 -17.2695zM160 256v96h-96v-96h96zM320 256v96h-96
v-96h96zM384 256h146l-80 96h-66v-96z" />
    <glyph glyph-name="smile-beam-primary" unicode="&#xf5b8;" 
d="M176 296c23.7998 0 52.7002 -29.2998 56 -71.4004c0.700195 -8.59961 -10.7998 -11.8994 -14.9004 -4.5l-9.5 17c-7.69922 13.7002 -19.1992 21.6006 -31.5 21.6006c-12.2998 0 -23.7998 -7.90039 -31.5 -21.6006l-9.5 -17c-4.2998 -7.39941 -15.7998 -4 -15.0996 4.5
c3.2998 42.1006 32.2002 71.4004 56 71.4004zM392.1 224.6c0.600586 -8.59961 -11 -11.8994 -15.0996 -4.5l-9.5 17c-7.7002 13.7002 -19.2002 21.6006 -31.5 21.6006s-23.7998 -7.90039 -31.5 -21.6006l-9.5 -17c-4.09961 -7.2998 -15.5996 -4 -14.9004 4.5
c3.30078 42.1006 32.2002 71.4004 56 71.4004c23.8008 0 52.7002 -29.2998 56 -71.4004z" />
    <glyph glyph-name="smile-plus-primary" unicode="&#xf5b9;" horiz-adv-x="640" 
d="M624 368c8.83203 0 16 -7.16797 16 -16v-32c0 -8.83203 -7.16797 -16 -16 -16h-64v-64c0 -8.83203 -7.16797 -16 -16 -16h-32c-8.83203 0 -16 7.16797 -16 16v64h-64c-8.83203 0 -16 7.16797 -16 16v32c0 8.83203 7.16797 16 16 16h64v64c0 8.83203 7.16797 16 16 16h32
c8.83203 0 16 -7.16797 16 -16v-64h64zM272 218.8c14.7939 0 26.7998 -12.0059 26.7998 -26.7998s-12.0059 -26.7998 -26.7998 -26.7998s-26.7998 12.0059 -26.7998 26.7998s12.0059 26.7998 26.7998 26.7998zM144 218.8c14.7939 0 26.7998 -12.0059 26.7998 -26.7998
s-12.0059 -26.7998 -26.7998 -26.7998s-26.7998 12.0059 -26.7998 26.7998s12.0059 26.7998 26.7998 26.7998z" />
    <glyph glyph-name="solar-panel-primary" unicode="&#xf5ba;" horiz-adv-x="640" 
d="M432 0c8.83203 0 16 -7.16797 16 -16v-31.7402c0 -8.83203 -7.16797 -16 -16 -16l-224 -0.259766c-8.83203 0 -16 7.16797 -16 16v31.7402c0 8.83203 7.16797 16 16 16l48 0.0498047v32.21h128v-32.0498zM380.16 384l9.76953 -96h-139.87l9.77051 96h120.33zM541.75 288
h-102.75l-9.73047 96h96.1904zM394.82 240l11.3994 -112h-172.45l11.4004 112h149.65zM90.0996 240h105.971l-11.4102 -112h-113.561zM210.72 384l-9.71973 -96h-102.76l16.29 96h96.1895zM549.9 240l19.0098 -112h-113.61l-11.3994 112h106z" />
    <glyph glyph-name="spa-primary" unicode="&#xf5bb;" horiz-adv-x="576" 
d="M576 248.18c-0.230469 -27.9199 -7.12988 -126.14 -88.7695 -199.3c-84.04 -81.8799 -167.23 -80.8799 -199.23 -80.8799s-115.21 -1 -199.23 80.8799c-81.6299 73.1201 -88.5391 171.38 -88.7695 199.3c-0.00195312 0.0615234 -0.00292969 0.161133 -0.00292969 0.22168
c0 4.19531 3.4043 7.60059 7.59961 7.60059c0.0419922 0 0.111328 -0.000976562 0.15332 -0.00195312c29 -0.129883 135 -6.16016 213.84 -83c33.1201 -29.6396 53.4102 -63.2998 66.4102 -94.8604c13.0498 31.5605 33.29 65.2207 66.4102 94.8506
c78.8301 76.8398 184.8 82.8701 213.84 83c0.0419922 0.000976562 0.110352 0.000976562 0.15332 0.000976562c4.19531 0 7.59961 -3.4043 7.59961 -7.59961c0 -0.0585938 -0.000976562 -0.15332 -0.00292969 -0.211914z" />
    <glyph glyph-name="splotch-primary" unicode="&#xf5bc;" 
d="M472.29 252.11c48.54 -16.6201 53.8301 -73.8301 8.9502 -96.8008l-62 -31.7393c-17.8301 -9.12988 -29.2803 -25.2002 -30.6299 -43l-4.7002 -61.8604c-2.33984 -30.71 -32.1006 -50.71 -63.25 -50.71
c-0.142578 -0.000976562 -0.373047 -0.00195312 -0.515625 -0.00195312c-12.458 0 -30.6846 6.03125 -40.6846 13.4619l-54.3203 40.8301c-10.1211 7.39746 -28.5098 13.4014 -41.0469 13.4014c-0.141602 0 -0.371094 0 -0.512695 -0.000976562h-0.0175781
c-4.3252 0 -11.2666 -0.749023 -15.4922 -1.6709l-70 -15.2793c-4.34766 -0.955078 -11.4893 -1.73438 -15.9404 -1.74023c-43.2402 0 -75.9199 38.7598 -57.5098 75.5996l28.4297 57c8.18066 16.4004 6.44043 35.1699 -4.58984 50.2402l-38.54 52.4004
c-26.7998 36.46 4.36035 83.0693 52.9502 83.0693c1.99023 0 4 -0.0791016 6.0498 -0.239258l71.8799 -5.62012c1.91992 -0.150391 3.83008 -0.219727 5.74023 -0.219727c18.6201 0 36.46 7.08984 48.46 19.5293l46.0898 47.6699
c12.96 13.3906 30.6699 19.5703 48.1699 19.5703c27.6299 0 54.7402 -15.4004 61.8301 -42.1904l16 -60.4492c4.60059 -17.3799 18.8604 -31.7002 38.1406 -38.3008zM306.89 61c2.26074 29.6699 0.629883 95.25 79.8701 135.87
c-86.2002 29.5195 -94.5898 86.9297 -105.069 126.52c-47.71 -49.29 -68.54 -79.7998 -172.07 -71.71c44.8604 -61.0195 27.6602 -112.399 10.8604 -146.08c103.409 22.5703 123.279 2.86035 186.409 -44.5996z" />
    <glyph glyph-name="spray-can-primary" unicode="&#xf5bd;" 
d="M224 288c52.9922 0 96 -43.0078 96 -96v-224c0 -17.6641 -14.3359 -32 -32 -32h-256c-17.6641 0 -32 14.3359 -32 32v224c0 52.9922 43.0078 96 96 96h128zM160 32c44.1602 0 80 35.8398 80 80s-35.8398 80 -80 80s-80 -35.8398 -80 -80s35.8398 -80 80 -80zM224 416v-96
h-128v96c0 17.6641 14.3359 32 32 32h64c17.6641 0 32 -14.3359 32 -32z" />
    <glyph glyph-name="stamp-primary" unicode="&#xf5bf;" 
d="M32 0h448v-64h-448v64z" />
    <glyph glyph-name="star-half-alt-primary" unicode="&#xf5c0;" horiz-adv-x="544" 
d="M94.9004 -26.5l25 145.5l-105.7 103c-19 18.5 -8.5 50.7998 17.7002 54.5996l146.1 21.2002l65.2998 132.4c4.77734 9.82617 17.5215 17.8008 28.4473 17.8008c0.0693359 0 0.182617 0 0.25293 -0.000976562v-439.6l-130.7 -68.6006
c-23.3994 -12.2998 -50.8994 7.60059 -46.3994 33.7002z" />
    <glyph glyph-name="suitcase-rolling-primary" unicode="&#xf5c1;" horiz-adv-x="384" 
d="M336 288c26.4961 0 48 -21.5039 48 -48v-224c0 -26.4961 -21.5039 -48 -48 -48h-16v-16c0 -8.83203 -7.16797 -16 -16 -16h-32c-8.83203 0 -16 7.16797 -16 16v16h-128v-16c0 -8.83203 -7.16797 -16 -16 -16h-32c-8.83203 0 -16 7.16797 -16 16v16h-16
c-26.4961 0 -48 21.5039 -48 48v224c0 26.4961 21.5039 48 48 48h288zM320 72v16c0 4.41602 -3.58398 8 -8 8h-240c-4.41602 0 -8 -3.58398 -8 -8v-16c0 -4.41602 3.58398 -8 8 -8h240c4.41602 0 8 3.58398 8 8zM320 168v16c0 4.41602 -3.58398 8 -8 8h-240
c-4.41602 0 -8 -3.58398 -8 -8v-16c0 -4.41602 3.58398 -8 8 -8h240c4.41602 0 8 3.58398 8 8z" />
    <glyph glyph-name="surprise-primary" unicode="&#xf5c2;" 
d="M336 272c17.6641 0 32 -14.3359 32 -32s-14.3359 -32 -32 -32s-32 14.3359 -32 32s14.3359 32 32 32zM176 272c17.6641 0 32 -14.3359 32 -32s-14.3359 -32 -32 -32s-32 14.3359 -32 32s14.3359 32 32 32z" />
    <glyph glyph-name="swatchbook-primary" unicode="&#xf5c3;" 
d="M159.68 448c17.6309 -0.0332031 31.9404 -14.3691 31.9404 -32v0v-384c0 -52.8867 -42.9229 -95.8096 -95.8105 -95.8096c-52.8867 0 -95.8096 42.9229 -95.8096 95.8096v384c0 17.6309 14.3096 31.9668 31.9404 32h127.739zM95.8096 8c13.248 0 24 10.752 24 24
s-10.752 24 -24 24s-24 -10.752 -24 -24s10.752 -24 24 -24zM63.8799 192h63.8799v64h-63.8799v-64zM63.8799 320h63.8799v64h-63.8799v-64z" />
    <glyph glyph-name="swimmer-primary" unicode="&#xf5c4;" horiz-adv-x="640" 
d="M640 80v-32c0 -8.83203 -7.16797 -16 -16 -16h-16c-38.6201 0 -72.7197 12.1797 -96 31.8398c-23.2803 -19.6494 -57.3799 -31.8398 -96 -31.8398s-72.7197 12.1797 -96 31.8398c-23.2803 -19.6494 -57.3799 -31.8398 -96 -31.8398s-72.7197 12.1797 -96 31.8398
c-23.2803 -19.6494 -57.3799 -31.8398 -96 -31.8398h-16c-8.83203 0 -16 7.16797 -16 16v32c0 8.83203 7.16797 16 16 16h16c26 0 45.7998 8.41992 56.0703 17.9004c8.89941 8.20996 19.6602 14.0996 31.7695 14.0996h16.2998c12.1104 0 22.8701 -5.88965 31.7705 -14.0996
c10.29 -9.48047 30.0898 -17.9004 56.0898 -17.9004s45.7998 8.41992 56.0703 17.9004c8.89941 8.20996 19.6602 14.0996 31.7695 14.0996h16.2998c12.1104 0 22.8701 -5.88965 31.7705 -14.0996c10.29 -9.48047 30.0898 -17.9004 56.0898 -17.9004
s45.7998 8.41992 56.0703 17.9004c8.89941 8.20996 19.6602 14.0996 31.7695 14.0996h16.2998c12.1104 0 22.8701 -5.88965 31.7705 -14.0996c10.29 -9.48047 30.0898 -17.9004 56.0898 -17.9004h16c8.83203 0 16 -7.16797 16 -16z" />
    <glyph glyph-name="swimming-pool-primary" unicode="&#xf5c5;" horiz-adv-x="640" 
d="M0 -16v32c0 8.83203 7.16797 16 16 16h16c26 0 45.7998 8.41992 56.0703 17.9004c8.89941 8.20996 19.6602 14.0996 31.7695 14.0996h16.2998c12.1104 0 22.8701 -5.88965 31.7705 -14.0996c10.29 -9.48047 30.0898 -17.9004 56.0898 -17.9004
s45.7998 8.41992 56.0703 17.9004c8.89941 8.20996 19.6602 14.0996 31.7695 14.0996h16.2998c12.1104 0 22.8701 -5.88965 31.7705 -14.0996c10.29 -9.48047 30.0898 -17.9004 56.0898 -17.9004s45.7998 8.41992 56.0703 17.9004
c8.89941 8.20996 19.6602 14.0996 31.7695 14.0996h16.2998c12.1104 0 22.8701 -5.88965 31.7705 -14.0996c10.29 -9.48047 30.0898 -17.9004 56.0898 -17.9004h16c8.83203 0 16 -7.16797 16 -16v-32c0 -8.83203 -7.16797 -16 -16 -16h-16
c-38.6201 0 -72.7197 12.1797 -96 31.8398c-23.2803 -19.6494 -57.3799 -31.8398 -96 -31.8398s-72.7197 12.1797 -96 31.8398c-23.2803 -19.6494 -57.3799 -31.8398 -96 -31.8398s-72.7197 12.1797 -96 31.8398c-23.2803 -19.6494 -57.3799 -31.8398 -96 -31.8398h-16
c-8.83203 0 -16 7.16797 -16 16z" />
    <glyph glyph-name="tint-slash-primary" unicode="&#xf5c7;" horiz-adv-x="640" 
d="M636.64 -32.5498l-19.6396 -25.2705c-2.65234 -3.41211 -8.31152 -6.18262 -12.6338 -6.18262c-3.03125 0 -7.43359 1.51172 -9.82617 3.37305l-588.36 454.729c-3.41016 2.65234 -6.17773 8.31055 -6.17773 12.6309c0 3.0293 1.50879 7.42773 3.36816 9.81934
l19.6299 25.2705c2.65234 3.41504 8.31348 6.1875 12.6377 6.1875c3.03418 0 7.43848 -1.51367 9.83203 -3.37793l588.351 -454.729c3.41309 -2.65234 6.18359 -8.3125 6.18359 -12.6357c0 -3.02734 -1.50684 -7.42383 -3.36426 -9.81445z" />
    <glyph glyph-name="tired-primary" unicode="&#xf5c8;" 
d="M222.2 250.3c3.22461 -1.92773 5.84277 -6.54199 5.84277 -10.2998s-2.61816 -8.37207 -5.84277 -10.2998l-80 -48c-11.5 -6.7998 -24 7.59961 -15.4004 18l33.6006 40.2998l-33.6006 40.2998c-8.59961 10.2998 3.7998 24.9004 15.4004 18zM385.2 199.7
c8.7002 -10.4004 -3.90039 -24.7998 -15.4004 -18l-80 48c-3.18945 1.94824 -5.77734 6.5625 -5.77734 10.2998s2.58789 8.35156 5.77734 10.2998l80 48c11.6006 6.90039 24 -7.7002 15.4004 -18l-33.6006 -40.2998z" />
    <glyph glyph-name="tooth-primary" unicode="&#xf5c9;" horiz-adv-x="448" 
 />
    <glyph glyph-name="umbrella-beach-primary" unicode="&#xf5ca;" horiz-adv-x="640" 
d="M247.63 262.94c44.4902 101.979 114.74 171.13 172.76 171.17h0.295898c6.48438 0 16.6973 -1.79199 22.7949 -4c61.3193 -22.3408 78.3799 -132.62 42.6191 -254zM115.38 311.1c-10.0801 3.66992 -14.1104 16.3203 -7.37988 24.7207
c49.5889 61.9141 154.214 112.163 233.539 112.163c4.12891 0 10.8271 -0.166992 14.9512 -0.373047c-52.79 -29.4102 -103.811 -92.1504 -139 -173.69zM521.47 387.5c65.4209 -49.5996 118.517 -156.484 118.517 -238.582
c0 -1.8623 -0.0341797 -4.88574 -0.0761719 -6.74805c-0.259766 -10.7402 -11.4805 -17.8398 -21.5703 -14.1699l-102.62 37.3096c17.5303 58.7705 24.6904 117.11 18.9502 167c-1.72266 15.6924 -7.63574 40.417 -13.2002 55.1904zM560 0c8.83203 0 16 -7.16797 16 -16v-32
c0 -8.83203 -7.16797 -16 -16 -16h-544c-8.83203 0 -16 7.16797 -16 16v32c0 8.83203 7.16797 16 16 16h544z" />
    <glyph glyph-name="vector-square-primary" unicode="&#xf5cb;" 
d="M128 96c17.6641 0 32 -14.3359 32 -32v-96c0 -17.6641 -14.3359 -32 -32 -32h-96c-17.6641 0 -32 14.3359 -32 32v96c0 17.6641 14.3359 32 32 32h96zM96 0v32h-32v-32h32zM480 96c17.6641 0 32 -14.3359 32 -32v-96c0 -17.6641 -14.3359 -32 -32 -32h-96
c-17.6641 0 -32 14.3359 -32 32v96c0 17.6641 14.3359 32 32 32h96zM448 0v32h-32v-32h32zM480 448c17.6641 0 32 -14.3359 32 -32v-96c0 -17.6641 -14.3359 -32 -32 -32h-96c-17.6641 0 -32 14.3359 -32 32v96c0 17.6641 14.3359 32 32 32h96zM448 352v32h-32v-32h32z
M128 448c17.6641 0 32 -14.3359 32 -32v-96c0 -17.6641 -14.3359 -32 -32 -32h-96c-17.6641 0 -32 14.3359 -32 32v96c0 17.6641 14.3359 32 32 32h96zM96 352v32h-32v-32h32z" />
    <glyph glyph-name="weight-hanging-primary" unicode="&#xf5cd;" 
d="M510.28 2.15039c8.33008 -33.3105 -14.6602 -66.1504 -46.2803 -66.1504h-416c-31.6201 0 -54.6104 32.8398 -46.2305 66.1504l73 292.13c3.79004 15.1797 16.4404 25.7197 30.8701 25.7197h300.771c14.4297 0 27.0703 -10.5303 30.8701 -25.7197z" />
    <glyph glyph-name="wine-glass-alt-primary" unicode="&#xf5ce;" horiz-adv-x="320" 
d="M80.3496 249.63l6.31055 70.3701h146.7l6.2998 -70.3604c0.212891 -2.1543 0.384766 -5.66016 0.384766 -7.82422c0 -14.5205 -7.01758 -35.7715 -15.665 -47.4355c-9.78906 -13.2803 -30.7725 -27.1016 -46.8398 -30.8496
c-4.7666 -1.10547 -12.6064 -2.00293 -17.5 -2.00293s-12.7334 0.897461 -17.5 2.00293c-16.0664 3.74902 -37.0508 17.5693 -46.8398 30.8496c-8.67969 11.6875 -15.7236 32.9883 -15.7236 47.5459c0 2.13184 0.167969 5.58301 0.373047 7.7041z" />
    <glyph glyph-name="glass-martini-secondary" unicode="&#x10f000;" 
d="M502 390.4l-214 -214.04v-192.36h56c22.0801 0 40 -17.9199 40 -40c0 -4.41602 -3.58398 -8 -8 -8h-240c-4.41602 0 -8 3.58398 -8 8c0 22.0801 17.9199 40 40 40h56v192.4l-214 214c-21.3203 21.2598 -6.26953 57.5996 23.7803 57.5996h444.399
c30.0508 0 45.1006 -36.3398 23.8203 -57.5996zM256 234.87l149.12 149.13h-298.28z" />
    <glyph glyph-name="tint-secondary" unicode="&#x10f043;" horiz-adv-x="352" 
d="M205.22 425.91c46.9902 -158.48 146.78 -200.07 146.78 -311.82c0 -98.4395 -78.7197 -178.09 -176 -178.09s-176 79.6504 -176 178.09c0 111.19 100 154.061 146.78 311.82c9 30.1201 50.5 28.7803 58.4395 0zM176 0c8.83203 0 16 7.16797 16 16s-7.16797 16 -16 16
c-44.1104 0.0498047 -79.9502 35.8896 -80 80c0 8.83203 -7.16797 16 -16 16s-16 -7.16797 -16 -16c0.0771484 -61.7471 50.2529 -111.923 112 -112z" />
    <glyph glyph-name="cut-secondary" unicode="&#x10f0c4;" horiz-adv-x="448" 
d="M96 224c-52.9756 0.0166016 -95.9697 43.0244 -95.9697 96c0 52.9922 43.0078 96 96 96c52.9912 0 96 -43.0078 96 -96c0 -10.084 -3.00684 -25.8809 -6.70996 -35.2598l24.8496 -24.8604l-67.8799 -67.8799l-32.9297 32.9297
c-3.66992 -0.512695 -9.65527 -0.929688 -13.3604 -0.929688zM96 352c-17.6641 0 -32 -14.3359 -32 -32s14.3359 -32 32 -32s32 14.3359 32 32s-14.3359 32 -32 32zM444.48 25.5703c1.94824 -1.94141 3.5293 -5.75 3.5293 -8.5c0 -2.75098 -1.58105 -6.55859 -3.5293 -8.5
c-13.5811 -13.5801 -40.1904 -24.6016 -59.3955 -24.6016s-45.8145 11.0215 -59.3945 24.6016l-115.521 115.55l67.8896 67.8799z" />
    <glyph glyph-name="magic-secondary" unicode="&#x10f0d0;" 
d="M80 448l26.6602 -53.3301l53.3398 -26.6699l-53.3398 -26.6699l-26.6602 -53.3301l-26.6602 53.3301l-53.3398 26.6699l53.3398 26.6699zM272 400l-32 -16l-16 -32l-16 32l-32 16l32 16l16 32l16 -32zM458.66 106.67l53.3398 -26.6699l-53.3398 -26.6699
l-26.6602 -53.3301l-26.6602 53.3301l-53.3398 26.6699l53.3398 26.6699l26.6602 53.3301zM399 204.93l-39.5098 -39.5693l-39.5898 39.5801l-50.9102 50.9092l-39.6104 39.6104l39.6201 39.5996l86.4902 86.54l17 17c5.17285 5.17285 15.3096 9.37012 22.625 9.37012
s17.4512 -4.19727 22.625 -9.37012l17 -17l50.8594 -50.8594l17 -17c5.17578 -5.17383 9.37598 -15.3125 9.37598 -22.6299c0 -7.31836 -4.2002 -17.4561 -9.37598 -22.6299l-17 -17zM308.5 295.45l50.9502 -50.9102l86.5996 86.5498l-50.9102 50.9102z" />
    <glyph glyph-name="smile-secondary" unicode="&#x10f118;" 
d="M256 440c137 0 248 -111 248 -248s-111 -248 -248 -248s-248 111 -248 248s111 248 248 248zM336 272c-17.6641 0 -32 -14.3359 -32 -32s14.3359 -32 32 -32s32 14.3359 32 32s-14.3359 32 -32 32zM176 272c-17.6641 0 -32 -14.3359 -32 -32s14.3359 -32 32 -32
s32 14.3359 32 32s-14.3359 32 -32 32zM370.8 101.8c13.5 16.2998 -11.2002 36.7002 -24.5996 20.5c-19.4463 -23.2939 -59.8564 -42.1992 -90.2002 -42.1992s-70.7539 18.9053 -90.2002 42.1992c-13.5996 16.2002 -38.2002 -4.2002 -24.5996 -20.5
c24.7256 -29.6982 76.1562 -53.8008 114.8 -53.8008s90.0742 24.1025 114.8 53.8008z" />
    <glyph glyph-name="frown-secondary" unicode="&#x10f119;" 
d="M256 440c137 0 248 -111 248 -248s-111 -248 -248 -248s-248 111 -248 248s111 248 248 248zM336 272c-17.6641 0 -32 -14.3359 -32 -32s14.3359 -32 32 -32s32 14.3359 32 32s-14.3359 32 -32 32zM176 272c-17.6641 0 -32 -14.3359 -32 -32s14.3359 -32 32 -32
s32 14.3359 32 32s-14.3359 32 -32 32zM346.2 53.7998c13.5 -16.2998 38.0996 4.2002 24.5 20.4004c-24.7227 29.6982 -76.1494 53.8018 -114.792 53.8018c-38.5986 0 -89.9873 -24.0586 -114.708 -53.7021c-13.5 -16.2998 11.0996 -36.7998 24.5996 -20.5
c19.4463 23.2939 59.8564 42.1992 90.2002 42.1992s70.7539 -18.9053 90.2002 -42.1992z" />
    <glyph glyph-name="meh-secondary" unicode="&#x10f11a;" 
d="M256 440c137 0 248 -111 248 -248s-111 -248 -248 -248s-248 111 -248 248s111 248 248 248zM176 272c-17.6641 0 -32 -14.3359 -32 -32s14.3359 -32 32 -32s32 14.3359 32 32s-14.3359 32 -32 32zM352 80c21.2002 0 21.2002 32 0 32h-192c-21.2002 0 -21.2002 -32 0 -32
h192zM336 208c17.6641 0 32 14.3359 32 32s-14.3359 32 -32 32s-32 -14.3359 -32 -32s14.3359 -32 32 -32z" />
    <glyph glyph-name="crop-secondary" unicode="&#x10f125;" 
d="M512 72v-48c0 -13.248 -10.752 -24 -24 -24h-40v96h40c13.248 0 24 -10.752 24 -24zM416 384h-13.25l59.3096 59.3096c2.58691 2.58789 7.65625 4.68848 11.3154 4.68848s8.72852 -2.10059 11.3154 -4.68848l22.6191 -22.6191
c2.58789 -2.58691 4.68848 -7.65625 4.68848 -11.3154s-2.10059 -8.72852 -4.68848 -11.3154l-59.3096 -59.3096v13.25c0 17.6641 -14.3359 32 -32 32zM352 242.75l-146.75 -146.75h114.75v-96h-224c-17.6641 0 -32 14.3359 -32 32v392c0 13.248 10.752 24 24 24h48
c13.248 0 24 -10.752 24 -24v-282.75l146.75 146.75h45.25v-45.25z" />
    <glyph glyph-name="taxi-secondary" unicode="&#x10f1ba;" 
d="M352 384v-32h-192v32c0 17.6641 14.3359 32 32 32h128c17.6641 0 32 -14.3359 32 -32zM96 80c17.6641 0 32 -14.3359 32 -32v-48c0 -17.6641 -14.3359 -32 -32 -32h-32c-17.6641 0 -32 14.3359 -32 32v48c0 17.6641 14.3359 32 32 32h32zM448 80
c17.6641 0 32 -14.3359 32 -32v-48c0 -17.6641 -14.3359 -32 -32 -32h-32c-17.6641 0 -32 14.3359 -32 32v48c0 17.6641 14.3359 32 32 32h32zM378.06 275.14l17.3906 -67.1396h-278.9l17.2002 66.3604c2.23047 8.15918 9.58984 13.6396 15.0596 13.6396h214.4
c5.46973 0 12.8496 -5.48047 14.8496 -12.8604z" />
    <glyph glyph-name="eye-dropper-secondary" unicode="&#x10f1fb;" 
d="M32 -64l-32 32l32 56v45.5c0 17 6.7002 33.2998 18.7998 45.2998l126.601 126.601l128 -128l-126.7 -126.7c-12 -12 -28.2998 -18.7002 -45.2002 -18.7002h-45.5z" />
    <glyph glyph-name="paint-brush-secondary" unicode="&#x10f1fc;" 
d="M512 398.45c0 -16.1406 -6.51953 -31.6406 -13.9004 -46c-113.04 -210.98 -149.04 -256.45 -211.1 -256.45c-6.28223 0.0634766 -16.3125 1.40723 -22.3896 3l-63.8203 53.1797c-4.75293 10.1533 -8.66309 27.4902 -8.73047 38.7002c0 53.75 21.2705 58 225.681 240.64
c10.79 9.77051 25 16.4805 40.1602 16.4805c28.0996 0 54.0996 -20.6396 54.0996 -49.5498z" />
    <glyph glyph-name="bus-secondary" unicode="&#x10f207;" 
d="M352 0h96v-32c0 -17.6641 -14.3359 -32 -32 -32h-32c-17.6641 0 -32 14.3359 -32 32v32zM64 -32v32h96v-32c0 -17.6641 -14.3359 -32 -32 -32h-32c-17.6641 0 -32 14.3359 -32 32zM128 160c-17.6641 0 -32 14.3359 -32 32v128c0 17.6641 14.3359 32 32 32h256
c17.6641 0 32 -14.3359 32 -32v-128c0 -17.6641 -14.3359 -32 -32 -32h-256z" />
    <glyph glyph-name="bed-secondary" unicode="&#x10f236;" horiz-adv-x="640" 
d="M528 320c61.8242 0 112 -50.1758 112 -112v-48h-352v144c0 8.83203 7.16797 16 16 16h224zM176 352c44.1602 0 80 -35.8398 80 -80s-35.8398 -80 -80 -80s-80 35.8398 -80 80s35.8398 80 80 80z" />
    <glyph glyph-name="map-secondary" unicode="&#x10f279;" horiz-adv-x="576" 
d="M192 416l192 -64v-384l-192 64v384z" />
    <glyph glyph-name="pen-secondary" unicode="&#x10f304;" 
d="M498 305.92l-56.5996 -56.5498l-128 128l56.5498 56.5498c7.76172 7.76855 22.9736 14.0732 33.9551 14.0732s26.1934 -6.30469 33.9551 -14.0732l60.1396 -60.0898c7.76855 -7.76172 14.0732 -22.9736 14.0732 -33.9551s-6.30469 -26.1934 -14.0732 -33.9551z" />
    <glyph glyph-name="pen-alt-secondary" unicode="&#x10f305;" 
d="M498 373.83c7.76855 -7.76172 14.0732 -22.9736 14.0732 -33.9551s-6.30469 -26.1934 -14.0732 -33.9551l-56.5996 -56.5498l-128 128l56.5498 56.5498c7.76172 7.76855 22.9736 14.0732 33.9551 14.0732s26.1934 -6.30469 33.9551 -14.0732z" />
    <glyph glyph-name="smile-wink-secondary" unicode="&#x10f4da;" 
d="M256 440c137 0 248 -111 248 -248s-111 -248 -248 -248s-248 111 -248 248s111 248 248 248zM176 272c-17.6641 0 -32 -14.3359 -32 -32s14.3359 -32 32 -32s32 14.3359 32 32s-14.3359 32 -32 32zM370.8 101.7c13.5 16.2998 -11 36.7002 -24.5996 20.5
c-19.4463 -23.2939 -59.8564 -42.1992 -90.2002 -42.1992s-70.7539 18.9053 -90.2002 42.1992c-13.3994 16.2998 -38.0996 -4.10059 -24.5996 -20.4004c24.7402 -29.6973 76.1885 -53.7998 114.842 -53.7998c38.6084 0 90.0205 24.0576 114.758 53.7002zM376.2 215
c8.39941 -7.5 21.5 -0.299805 19.7998 10.7998c-4 25.2002 -34.2002 42.1006 -59.9004 42.1006c-25.6992 0 -55.8994 -16.9004 -59.8994 -42.1006c-1.7998 -11.2002 11.5 -18.2002 19.7998 -10.7998l9.5 8.5c14.7998 13.2002 46.2002 13.2002 61 0z" />
    <glyph glyph-name="wine-glass-secondary" unicode="&#x10f4e3;" horiz-adv-x="320" 
d="M227.63 384h-135.24l-12.0098 -134.36c-0.209961 -2.14258 -0.380859 -5.62891 -0.380859 -7.78125c0 -14.5312 7.02051 -35.8018 15.6709 -47.4785c9.78906 -13.2803 30.7734 -27.1006 46.8398 -30.8496c4.7666 -1.10547 12.6074 -2.00293 17.5 -2.00293
c4.89355 0 12.7334 0.897461 17.5 2.00293c16.0674 3.74805 37.0518 17.5693 46.8398 30.8496c8.64746 11.6641 15.666 32.915 15.666 47.4355c0 2.16406 -0.172852 5.66992 -0.385742 7.82422zM271.75 448c7.98438 -0.0742188 14.9951 -6.5918 15.6504 -14.5498
l16 -178.101c0.334961 -3.64648 0.607422 -9.5791 0.607422 -13.2412c0 -63.4648 -50.1797 -126.597 -112.008 -140.918v-117.19h40c22.0801 0 40 -17.9199 40 -40c0 -4.41602 -3.58398 -8 -8 -8h-208c-4.41602 0 -8 3.58398 -8 8c0 22.0801 17.9199 40 40 40h40v117.18
c-61.8447 14.3125 -112.037 77.4473 -112.037 140.926c0 3.66016 0.272461 9.58984 0.607422 13.2344l16 178.11c0.65625 7.98242 7.69043 14.501 15.6992 14.5498h223.48z" />
    <glyph glyph-name="feather-secondary" unicode="&#x10f52d;" 
d="M483.4 203.8l-131.551 -43.7998h97.7803c-9.91992 -10.6797 3.67969 3.07031 -46.2998 -46.8604l-147.58 -49.1396h98.1904c-74.9404 -73.1104 -194.521 -70.6504 -246.82 -54.9404l-0.0605469 0.0507812l197.94 197.89c3.88672 3.88672 7.04199 11.5029 7.04199 17
c0 13.2705 -10.7715 24.042 -24.042 24.042c-5.49707 0 -13.1133 -3.15527 -17 -7.04199l-197.81 -197.87l-0.200195 0.209961c-12.1299 40.3701 -26.1201 166.28 56.1094 248.43c24.7803 24.7402 7.15039 7.14062 85.75 85.6602
c90.6104 90.5107 189.73 88.21 252.28 25.7305c50.5801 -50.5205 61.7002 -124.9 16.2705 -199.36z" />
    <glyph glyph-name="angry-secondary" unicode="&#x10f556;" 
d="M256 440c137 0 248 -111 248 -248s-111 -248 -248 -248s-248 111 -248 248s111 248 248 248zM144 208c0.0351562 -17.6289 14.3711 -31.9375 32 -31.9375c17.6641 0 32 14.3369 32 32c0 2.22559 -0.448242 5.78125 -1 7.9375h1h0.0185547c8.83203 0 16 7.16797 16 16
c0 6.57812 -5.11523 13.4463 -11.4189 15.3301l-80 24c-1.24219 0.373047 -3.30273 0.674805 -4.59961 0.674805c-8.83496 0 -16.0049 -7.16992 -16.0049 -16.0049c0 -6.57324 5.10938 -13.4404 11.4053 -15.3301l30.8193 -9.24023
c-5.6416 -5.2207 -10.2197 -15.6963 -10.2197 -23.3828v-0.046875zM312.32 53.9502c13.4697 -16.04 38.4893 3.97949 24.6602 20.4102c-17.5225 20.79 -53.8105 37.6641 -81 37.6641c-27.1904 0 -63.4785 -16.874 -81 -37.6641
c-13.6602 -16.2305 11.1494 -36.6406 24.7197 -20.4102c28.0303 33.2598 84.6895 33.2598 112.62 0zM389.6 240.67c6.29297 1.88867 11.3906 8.75488 11.3906 15.3252c0 8.83203 -7.16797 16 -16 16c-1.29688 0 -3.3584 -0.302734 -4.60059 -0.674805l-80 -24
c-6.28418 -1.89355 -11.3848 -8.75684 -11.3848 -15.3203c0 -8.8291 7.16602 -15.9971 15.9951 -16c-0.563477 -2.17676 -1.02051 -5.76953 -1.02051 -8.01855c0 -17.6641 14.3359 -32 32 -32s32 14.3359 32 32c0 7.59277 -4.4707 17.9941 -9.97949 23.2188z" />
    <glyph glyph-name="archway-secondary" unicode="&#x10f557;" horiz-adv-x="576" 
d="M576 432v-32c0 -8.83203 -7.16797 -16 -16 -16h-544c-8.83203 0 -16 7.16797 -16 16v32c0 8.83203 7.16797 16 16 16h544c8.83203 0 16 -7.16797 16 -16z" />
    <glyph glyph-name="atlas-secondary" unicode="&#x10f558;" horiz-adv-x="448" 
d="M96 0c-19.2002 0 -32 12.7998 -32 32s16 32 32 32h319.33c-1.92969 -16.2402 -1.75977 -48.3799 0.530273 -64h-319.86z" />
    <glyph glyph-name="backspace-secondary" unicode="&#x10f55a;" horiz-adv-x="640" 
d="M576 384c35.3281 0 64 -28.6719 64 -64v-256c0 -35.3281 -28.6719 -64 -64 -64h-370.75c-14.6328 0.00195312 -34.9043 8.40234 -45.25 18.75l-150.62 150.63c-5.17188 5.17383 -9.37012 15.3096 -9.37012 22.625s4.19824 17.4521 9.37012 22.625l150.62 150.62
c10.3477 10.3496 30.624 18.75 45.2598 18.75v0h370.74zM491.31 129.94l-62.0596 62.0596l62.0596 62.0596c2.58789 2.58691 4.68848 7.65625 4.68848 11.3154s-2.10059 8.72852 -4.68848 11.3154l-22.6191 22.6191c-2.58691 2.58789 -7.65625 4.68848 -11.3154 4.68848
s-8.72852 -2.10059 -11.3154 -4.68848l-62.0596 -62.0596l-62.0596 62.0596c-2.58691 2.58789 -7.65625 4.68848 -11.3154 4.68848s-8.72852 -2.10059 -11.3154 -4.68848l-22.6191 -22.6191c-2.58789 -2.58691 -4.68848 -7.65625 -4.68848 -11.3154
s2.10059 -8.72852 4.68848 -11.3154l62.0596 -62.0596l-62.0596 -62.0596c-2.58789 -2.58691 -4.68848 -7.65625 -4.68848 -11.3154s2.10059 -8.72852 4.68848 -11.3154l22.6191 -22.6191c2.58691 -2.58789 7.65625 -4.68848 11.3154 -4.68848
s8.72852 2.10059 11.3154 4.68848l62.0596 62.0596l62.0596 -62.0596c2.58691 -2.58789 7.65625 -4.68848 11.3154 -4.68848s8.72852 2.10059 11.3154 4.68848l22.6191 22.6191c2.58789 2.58691 4.68848 7.65625 4.68848 11.3154s-2.10059 8.72852 -4.68848 11.3154z" />
    <glyph glyph-name="bezier-curve-secondary" unicode="&#x10f55b;" horiz-adv-x="640" 
d="M368 416c17.6641 0 32 -14.3359 32 -32v-96c0 -17.6641 -14.3359 -32 -32 -32h-96c-17.6641 0 -32 14.3359 -32 32v96c0 17.6641 14.3359 32 32 32h96zM160 128c17.6641 0 32 -14.3359 32 -32v-96c0 -17.6641 -14.3359 -32 -32 -32h-96c-17.6641 0 -32 14.3359 -32 32v96
c0 17.6641 14.3359 32 32 32h96zM576 128c17.6641 0 32 -14.3359 32 -32v-96c0 -17.6641 -14.3359 -32 -32 -32h-96c-17.6641 0 -32 14.3359 -32 32v96c0 17.6641 14.3359 32 32 32h96z" />
    <glyph glyph-name="bong-secondary" unicode="&#x10f55c;" horiz-adv-x="448" 
d="M48 64c0 25.4199 5.87012 46.5303 14.7402 64h258.52c8.87012 -17.4697 14.7402 -38.5801 14.7402 -64c-0.000976562 -21.1035 -8.54883 -53.0723 -19.0801 -71.3604c-2.6084 -4.67285 -9.06836 -8.54395 -14.4199 -8.63965h-221
c-5.35156 0.0957031 -11.8115 3.9668 -14.4199 8.63965c-10.5312 18.2881 -19.0791 50.2568 -19.0801 71.3604z" />
    <glyph glyph-name="brush-secondary" unicode="&#x10f55d;" horiz-adv-x="384" 
d="M384 416v-224h-384v224c0 17.6641 14.3359 32 32 32h320c17.6641 0 32 -14.3359 32 -32z" />
    <glyph glyph-name="bus-alt-secondary" unicode="&#x10f55e;" 
d="M96 288c0 17.6641 14.3359 32 32 32h112v-160h-112c-17.6641 0 -32 14.3359 -32 32v96zM416 192c0 -17.6641 -14.3359 -32 -32 -32h-112v160h112c17.6641 0 32 -14.3359 32 -32v-96zM64 -32v32h96v-32c0 -17.6641 -14.3359 -32 -32 -32h-32
c-17.6641 0 -32 14.3359 -32 32zM352 0h96v-32c0 -17.6641 -14.3359 -32 -32 -32h-32c-17.6641 0 -32 14.3359 -32 32v32z" />
    </font>
</defs>
</svg>
