<?xml version="1.0" standalone="no"?>
<!--
Font Awesome Pro 5.10.0 by @fontawesome - https://fontawesome.com
License - https://fontawesome.com/license (Commercial License)
-->
<!DOCTYPE svg PUBLIC "-//W3C//DTD SVG 1.1//EN" "http://www.w3.org/Graphics/SVG/1.1/DTD/svg11.dtd" >
<svg xmlns="http://www.w3.org/2000/svg" xmlns:xlink="http://www.w3.org/1999/xlink" version="1.1">
<metadata>
Created by FontForge 20190112 at Mon Jul 29 10:01:46 2019
 By Robert Madole
Copyright (c) Font Awesome
</metadata>
<defs>
<font id="FontAwesome5Duotone-Solid" horiz-adv-x="512" >
  <font-face 
    font-family="Font Awesome 5 Duotone Solid"
    font-weight="900"
    font-stretch="normal"
    units-per-em="512"
    panose-1="2 0 5 3 0 0 0 0 0 0"
    ascent="448"
    descent="-64"
    bbox="-0.408203 -65.0293 640.03 448.023"
    underline-thickness="25"
    underline-position="-51"
    unicode-range="U+0020-10F89B"
  />
    <missing-glyph />
    <glyph glyph-name="th-primary" unicode="&#xf00a;" 
d="M488 96c13.248 0 24 -10.752 24 -24v-80c0 -13.248 -10.752 -24 -24 -24h-101.33c-13.248 0 -24 10.752 -24 24v80c0 13.248 10.752 24 24 24h101.33zM306.67 256c13.248 0 24 -10.752 24 -24v-80c0 -13.248 -10.752 -24 -24 -24h-101.34c-13.248 0 -24 10.752 -24 24v80
c0 13.248 10.752 24 24 24h101.34zM488 416c13.248 0 24 -10.752 24 -24v-80c0 -13.248 -10.752 -24 -24 -24h-101.33c-13.248 0 -24 10.752 -24 24v80c0 13.248 10.752 24 24 24h101.33zM125.33 416c13.248 0 24 -10.752 24 -24v-80c0 -13.248 -10.752 -24 -24 -24h-101.33
c-13.248 0 -24 10.752 -24 24v80c0 13.248 10.752 24 24 24h101.33zM125.33 96c13.248 0 24 -10.752 24 -24v-80c0 -13.248 -10.752 -24 -24 -24h-101.33c-13.248 0 -24 10.752 -24 24v80c0 13.248 10.752 24 24 24h101.33z" />
    <glyph glyph-name="home-primary" unicode="&#xf015;" horiz-adv-x="576" 
d="M573.32 179.65l-25.5 -31c-1.9873 -2.4209 -6.14258 -4.38477 -9.27441 -4.38477c-2.375 0 -5.79199 1.22461 -7.62598 2.73438l-235.229 193.79c-1.84863 1.49023 -5.27637 2.69922 -7.65039 2.69922s-5.80176 -1.20898 -7.65039 -2.69922l-235.22 -193.79
c-1.83301 -1.50684 -5.24707 -2.72949 -7.62012 -2.72949c-3.12988 0 -7.28223 1.96191 -9.26953 4.37988l-25.5 31c-1.51562 1.83594 -2.74609 5.25781 -2.74609 7.63965c0 3.11914 1.95117 7.2627 4.35547 9.25l253.101 208.46c7.33594 6.03613 21 10.9355 30.5 10.9355
s23.1641 -4.89941 30.5 -10.9355l89.5098 -73.6104v72.6104c0 6.62402 5.37598 12 12 12h56c6.62402 0 12 -5.37598 12 -12v-138.51l83.5996 -68.9102c2.45215 -1.98828 4.44141 -6.16406 4.44141 -9.32031c0 -2.36914 -1.21875 -5.77832 -2.7207 -7.60938z" />
    <glyph glyph-name="eye-primary" unicode="&#xf06e;" horiz-adv-x="576" 
d="M380.66 167.13c-10.5137 -39.1631 -51.9551 -70.9473 -92.5049 -70.9473c-52.8711 0 -95.7803 42.9092 -95.7803 95.7803c0 7.12305 1.53027 18.4785 3.41504 25.3467c6.9834 -5.13867 19.6895 -9.30957 28.3604 -9.30957c26.4131 0 47.8496 21.4365 47.8496 47.8496
c0 8.6709 -4.1709 21.377 -9.30957 28.3604c7.07812 2.02051 18.7969 3.66016 26.1582 3.66016c52.6055 0 95.2998 -42.6943 95.2998 -95.2998c0 -7.15137 -1.5498 -18.5488 -3.45801 -25.4404h-0.0302734z" />
    <glyph glyph-name="eye-slash-primary" unicode="&#xf070;" horiz-adv-x="640" 
d="M636.64 -32.5498l-19.6396 -25.2705c-2.65234 -3.40625 -8.30859 -6.1709 -12.625 -6.1709c-3.03125 0 -7.43262 1.50977 -9.8252 3.37109l-588.37 454.72c-3.41016 2.65234 -6.17773 8.31055 -6.17773 12.6309c0 3.0293 1.50879 7.42773 3.36816 9.81934
l19.6299 25.2705c2.65234 3.40625 8.30859 6.1709 12.625 6.1709c3.03125 0 7.43262 -1.50977 9.8252 -3.37109l588.37 -454.72c3.41309 -2.65234 6.18359 -8.3125 6.18359 -12.6357c0 -3.02734 -1.50684 -7.42383 -3.36426 -9.81445z" />
    <glyph glyph-name="calendar-alt-primary" unicode="&#xf073;" horiz-adv-x="448" 
d="M448 336v-48h-448v48c0 26.4961 21.5039 48 48 48h48v48c0 8.83203 7.16797 16 16 16h32c8.83203 0 16 -7.16797 16 -16v-48h128v48c0 8.83203 7.16797 16 16 16h32c8.83203 0 16 -7.16797 16 -16v-48h48c26.4961 0 48 -21.5039 48 -48z" />
    <glyph glyph-name="flag-checkered-primary" unicode="&#xf11e;" 
d="M120 392v-0.0800781c0 -16.1357 -10.752 -36.708 -24 -45.9199v-388c0 -12.1436 -9.85645 -22 -22 -22h-20c-12.1436 0 -22 9.85645 -22 22v388c-13.248 9.22461 -24 29.8135 -24 45.9561c0 30.9121 25.0879 56 56 56c30.8877 0 55.9756 -25.0684 56 -55.9561z" />
    <glyph glyph-name="rocket-primary" unicode="&#xf135;" 
d="M505 428.9c7 -32.2002 7 -57.4004 6.90039 -82.5605c0 -75.2295 -29.7402 -128.68 -74.1904 -170.08c-19.8037 -18.3359 -55.9082 -42.0801 -80.5898 -53l-133.12 -59.4199l-22.5303 -22.4697c-5.17285 -5.17285 -15.3096 -9.37012 -22.625 -9.37012
s-17.4512 4.19727 -22.625 9.37012l-50.8994 50.9102c-5.17285 5.17285 -9.37012 15.3096 -9.37012 22.625s4.19727 17.4512 9.37012 22.625l22.4697 22.4697l59.3896 133.41c10.873 24.6738 34.541 60.7773 52.8301 80.5898c41.2998 44.4102 94.7402 74 170.3 74
c25.1006 0 50.29 0 82.4902 -6.90039c5.54199 -1.19238 11.0078 -6.65723 12.2002 -12.1992zM384 280c22.0801 0 40 17.9199 40 40s-17.9199 40 -40 40s-40 -17.9199 -40 -40s17.9199 -40 40 -40z" />
    <glyph glyph-name="file-archive-primary" unicode="&#xf1c6;" horiz-adv-x="384" 
d="M96.2305 288h32v-32h-32v32zM127.9 416v-32h-32v32h32zM160 448v-32h-32v32h32zM96.2305 352h32v-32h-32v32zM160.23 256v-32h-32v32h32zM179.43 94.5996c0.551758 -2.78516 1 -7.35059 1 -10.1895c0 -28.9414 -23.4883 -52.4307 -52.4297 -52.4307
s-52.4307 23.4893 -52.4307 52.4307c0 2.9248 0.475586 7.62402 1.06055 10.4902l19.6006 97.0996v32h32v-32h22.0996c5.43848 -0.0234375 10.7246 -4.36914 11.7998 -9.7002zM128.33 58c17.9004 0 32.4004 12.0996 32.4004 27s-14.6006 27 -32.5 27
c-17.9004 0 -32.4004 -12 -32.4004 -27s14.5996 -27 32.5 -27zM160.23 384v-32h-32v32h32zM160.23 320v-32h-32v32h32z" />
    <glyph glyph-name="tty-primary" unicode="&#xf1e4;" 
d="M509.22 321.5l-43.2197 -69.1396c-2.96875 -4.78027 -9.94434 -8.66016 -15.5713 -8.66016c-1.93945 0 -4.97656 0.582031 -6.77832 1.2998l-86.4307 34.5703c-6.35938 2.5498 -11.5205 10.1797 -11.5205 17.0312c0 0.50293 0.0410156 1.31738 0.0908203 1.81836
l5.9502 59.5801c-25.624 9.19922 -68.5156 16.665 -95.7402 16.665s-70.1162 -7.46582 -95.7402 -16.665l6 -59.5303c0.0498047 -0.5 0.0908203 -1.31543 0.0908203 -1.81836c0 -6.85156 -5.16113 -14.4814 -11.5205 -17.0312l-86.4805 -34.6201
c-1.80078 -0.71582 -4.83594 -1.29688 -6.77441 -1.29688c-5.62695 0 -12.6045 3.87793 -15.5752 8.65723l-43.21 69.1396c-1.54102 2.46191 -2.79102 6.81641 -2.79102 9.7207c0 4.19043 2.40625 9.99707 5.37109 12.959c138.53 138.53 362.939 138.32 501.26 0
c2.96582 -2.96484 5.37207 -8.77539 5.37207 -12.9688c0 -2.90039 -1.24609 -7.25098 -2.78223 -9.71094z" />
    <glyph glyph-name="trash-primary" unicode="&#xf1f8;" horiz-adv-x="448" 
d="M0 368v32c0 8.83203 7.16797 16 16 16h120l9.40039 18.7002c3.58984 7.3418 13.1357 13.2998 21.3086 13.2998h0.0908203h114.3h0.0175781c8.20215 0 17.8262 -5.95801 21.4824 -13.2998l9.40039 -18.7002h120c8.83203 0 16 -7.16797 16 -16v-32
c0 -8.83203 -7.16797 -16 -16 -16h-416c-8.83203 0 -16 7.16797 -16 16z" />
    <glyph glyph-name="phone-volume-primary" unicode="&#xf2a0;" horiz-adv-x="384" 
d="M84.3799 265.76c-8.62793 -24.0225 -15.6299 -64.2344 -15.6299 -89.7598s7.00195 -65.7373 15.6299 -89.7598l55.8105 5.58008c0.472656 0.046875 1.24414 0.0859375 1.71973 0.0859375c6.41895 0 13.5645 -4.83691 15.9502 -10.7959l32.3994 -81
c0.679688 -1.69629 1.23047 -4.55664 1.23047 -6.38379c0 -5.25781 -3.62012 -11.7832 -8.08008 -14.5664l-64.8105 -40.5498c-2.31152 -1.44922 -6.40234 -2.62402 -9.13086 -2.62402c-3.92188 0 -9.36035 2.24609 -12.1387 5.01367c-129.87 129.91 -129.68 340.29 0 470
c2.78027 2.77832 8.22656 5.03223 12.1572 5.03223c2.72168 0 6.80469 -1.16992 9.1123 -2.6123l64.8105 -40.5098c4.46777 -2.78418 8.09375 -9.31641 8.09375 -14.5811c0 -1.83789 -0.556641 -4.71387 -1.24414 -6.41895l-32.4102 -81
c-2.38281 -5.96484 -9.53027 -10.8047 -15.9531 -10.8047c-0.47168 0 -1.23633 0.0380859 -1.70605 0.0849609z" />
    <glyph glyph-name="trash-alt-primary" unicode="&#xf2ed;" horiz-adv-x="448" 
d="M432 416c8.83203 0 16 -7.16797 16 -16v-32c0 -8.83203 -7.16797 -16 -16 -16h-416c-8.83203 0 -16 7.16797 -16 16v32c0 8.83203 7.16797 16 16 16h120l9.40039 18.7002c3.58984 7.3418 13.1357 13.2998 21.3086 13.2998h0.0908203h114.3h0.0175781
c8.20215 0 17.8262 -5.95801 21.4824 -13.2998l9.40039 -18.7002h120zM128 256c8.83203 0 16 -7.16797 16 -16v-224c0 -8.83203 -7.16797 -16 -16 -16s-16 7.16797 -16 16v224c0 8.83203 7.16797 16 16 16zM224 256c8.83203 0 16 -7.16797 16 -16v-224
c0 -8.83203 -7.16797 -16 -16 -16s-16 7.16797 -16 16v224c0 8.83203 7.16797 16 16 16zM320 256c8.83203 0 16 -7.16797 16 -16v-224c0 -8.83203 -7.16797 -16 -16 -16s-16 7.16797 -16 16v224c0 8.83203 7.16797 16 16 16z" />
    <glyph glyph-name="battery-slash-primary" unicode="&#xf377;" horiz-adv-x="640" 
d="M633.83 -10.1104c3.41504 -2.65137 6.1875 -8.31348 6.1875 -12.6377c0 -3.0332 -1.51367 -7.43848 -3.37793 -9.83203l-19.6396 -25.2695c-2.65234 -3.40918 -8.30957 -6.17578 -12.6279 -6.17578c-3.03809 0 -7.44727 1.5166 -9.8418 3.38574l-588.351 454.729
c-3.41016 2.65234 -6.17773 8.31055 -6.17773 12.6309c0 3.02832 1.50879 7.42773 3.36816 9.81934l19.6299 25.29c2.65234 3.4082 8.30957 6.1748 12.6279 6.1748c3.03809 0 7.44727 -1.5166 9.8418 -3.38477z" />
    <glyph glyph-name="diagnoses-primary" unicode="&#xf470;" horiz-adv-x="640" 
d="M112 192c-8.83203 0 -16 7.16797 -16 16s7.16797 16 16 16s16 -7.16797 16 -16s-7.16797 -16 -16 -16zM496 192c-8.83203 0 -16 7.16797 -16 16s7.16797 16 16 16s16 -7.16797 16 -16s-7.16797 -16 -16 -16zM624 0c8.83203 0 16 -7.16797 16 -16v-32
c0 -8.83203 -7.16797 -16 -16 -16h-608c-8.83203 0 -16 7.16797 -16 16v32c0 8.83203 7.16797 16 16 16h608z" />
    <glyph glyph-name="box-full-primary" unicode="&#xf49c;" horiz-adv-x="640" 
d="M194.24 304.3l-65.54 8.2998c-0.100586 2.5 -0.700195 4.90039 -0.700195 7.40039c0 70.6562 57.3438 128 128 128c69.7402 0 126 -55.7002 127.74 -125l41.7002 114.4c2.10742 5.82812 8.84766 10.5576 15.0459 10.5576c1.55176 0 3.99512 -0.428711 5.4541 -0.958008
l55.46 -20.2002c5.82812 -2.10742 10.5576 -8.84863 10.5576 -15.0459c0 -1.55176 -0.428711 -3.99512 -0.958008 -5.4541l-35.6602 -98.2998l-155.34 -19.7002l-8.2002 1c4.47754 7.88184 8.15137 21.6357 8.2002 30.7002c0 35.3281 -28.6719 64 -64 64
s-64 -28.6719 -64 -64c0.0712891 -4.41113 1.07422 -11.4453 2.24023 -15.7002zM638.34 176.2c0.933594 -1.89746 1.69043 -5.15332 1.69043 -7.26855c0 -6.85059 -5.34473 -13.9434 -11.9307 -15.832l-197.899 -56.5
c-1.2041 -0.337891 -3.19531 -0.612305 -4.44531 -0.612305c-5.1084 0 -11.4053 3.54492 -14.0547 7.91309l-91.7002 152.1l250.14 31.9004c0.575195 0.0742188 1.51172 0.133789 2.09082 0.133789c5.57422 0 12.1191 -4.04688 14.6094 -9.03418zM53.2402 279
c2.49414 4.97949 9.03906 9.02148 14.6094 9.02148c0.551758 0 1.44336 -0.0546875 1.99023 -0.121094l250.16 -31.9004l-91.7598 -152c-2.65039 -4.36719 -8.94727 -7.91211 -14.0557 -7.91211c-1.25 0 -3.24121 0.274414 -4.44434 0.612305l-197.9 56.5
c-6.53418 1.85938 -11.8369 8.88281 -11.8369 15.6768c0 2.13477 0.77832 5.41602 1.7373 7.32324z" />
    <glyph glyph-name="box-open-primary" unicode="&#xf49e;" horiz-adv-x="640" 
d="M638.34 304.16c0.923828 -1.88965 1.67383 -5.12988 1.67383 -7.2334c0 -6.84277 -5.33789 -13.9336 -11.9141 -15.8271l-197.899 -56.5c-1.2041 -0.337891 -3.19531 -0.612305 -4.44531 -0.612305c-5.1084 0 -11.4053 3.54492 -14.0547 7.91309l-91.7002 152.1
l250.14 31.9004c0.575195 0.0742188 1.51172 0.133789 2.09082 0.133789c5.57422 0 12.1191 -4.04688 14.6094 -9.03418zM53.2402 407c2.5 4.95898 9.03613 8.98438 14.5908 8.98438c0.556641 0 1.45605 -0.0556641 2.00879 -0.124023l250.16 -31.8604l-91.7598 -152.04
c-2.65039 -4.36719 -8.94727 -7.91211 -14.0557 -7.91211c-1.25 0 -3.24121 0.274414 -4.44434 0.612305l-197.9 56.5c-6.53418 1.85938 -11.8369 8.88281 -11.8369 15.6768c0 2.13477 0.77832 5.41602 1.7373 7.32324z" />
    <glyph glyph-name="home-heart-primary" unicode="&#xf4c9;" horiz-adv-x="576" 
d="M378.21 162.93c12.082 -10.0312 21.8887 -30.9189 21.8887 -46.623c0 -13.6904 -7.79004 -32.7246 -17.3887 -42.4863l-84.7002 -85.5898c-2.25781 -2.27832 -6.69238 -4.12695 -9.89941 -4.12695s-7.64258 1.84863 -9.90039 4.12695l-84.7002 85.5898
c-9.63184 9.77637 -17.4492 28.8486 -17.4492 42.5732c0 15.6494 9.74316 36.498 21.749 46.5361c24 20 59.7002 16.3906 81.6006 -5.80957l8.59961 -8.69043l8.60059 8.69043c22 22.2002 57.6992 25.8096 81.5996 5.80957zM570.81 211.73
c2.93652 -2.64941 5.31836 -8.00781 5.31836 -11.9619c0 -3.4082 -1.84961 -8.2334 -4.12793 -10.7686l-21.4004 -23.79c-2.63184 -2.93066 -7.96484 -5.30957 -11.9043 -5.30957c-3.38574 0 -8.17676 1.83691 -10.6953 4.09961l-229.29 202.32
c-2.51367 2.19434 -7.2627 3.97461 -10.5996 3.97461c-3.33789 0 -8.08594 -1.78027 -10.6006 -3.97461l-229.399 -202.2c-2.51953 -2.26562 -7.3125 -4.10449 -10.7002 -4.10449c-3.9375 0 -9.26855 2.37598 -11.9004 5.30469l-21.3994 23.7998
c-2.26855 2.51953 -4.10938 7.31543 -4.10938 10.7061c0 3.93848 2.37793 9.27148 5.30859 11.9043l256 226c6.29688 5.66309 18.2812 10.2598 26.75 10.2598c8.46973 0 20.4541 -4.59668 26.75 -10.2598l101.301 -89.4307v51.7002c0 8.83203 7.16797 16 16 16h64
c8.83203 0 16 -7.16797 16 -16v-136.48z" />
    <glyph glyph-name="file-export-primary" unicode="&#xf56e;" horiz-adv-x="576" 
d="M571.05 115.95l-95.71 -96.4004c-10.0996 -10.0996 -27.4102 -3 -27.4102 11.2998v65.1006h-239.93c-8.83203 0 -16 7.16797 -16 16v32c0 8.83203 7.16797 16 16 16h240v65.2002c0 14.2998 17.3096 21.3994 27.4102 11.2998l95.6094 -96.5
c2.74609 -2.74805 4.97363 -8.13086 4.97363 -12.0156c0 -3.87012 -2.21484 -9.23926 -4.94336 -11.9844z" />
    <glyph glyph-name="file-import-primary" unicode="&#xf56f;" 
d="M378.56 116l-95.5596 -96.1699c-10.0898 -10.0703 -27.3701 -3 -27.3701 11.2695v64.9004h-239.63c-8.83203 0 -16 7.16797 -16 16v31.9102c0 8.83203 7.16797 16 16 16h239.7v65c0 14.2598 17.2803 21.3398 27.3701 11.2695l95.4893 -96.25
c2.71875 -2.74316 4.92383 -8.10352 4.92383 -11.9648s-2.20508 -9.22168 -4.92383 -11.9648z" />
    <glyph glyph-name="gopuram-primary" unicode="&#xf664;" horiz-adv-x="640" 
d="M560 96c8.83203 0 16 -7.16797 16 -16v-128c0 -8.83203 -7.16797 -16 -16 -16h-80v160h-32v128h-32v96h-32v-96h32v-128h32v-160h-80v80c0 8.83203 -7.16797 16 -16 16h-64c-8.83203 0 -16 -7.16797 -16 -16v-80h-80v160h32v128h32v96h-32v-96h-32v-128h-32v-160h-80
c-8.83203 0 -16 7.16797 -16 16v128c0 8.83203 7.16797 16 16 16h16v112c0 8.83203 7.16797 16 16 16h16v80c0 8.83203 7.16797 16 16 16h16v112c0 8.83203 7.16797 16 16 16s16 -7.16797 16 -16v-16h64v16c0 8.83203 7.16797 16 16 16s16 -7.16797 16 -16v-16h64v16
c0 8.83203 7.16797 16 16 16s16 -7.16797 16 -16v-16h64v16c0 8.83203 7.16797 16 16 16s16 -7.16797 16 -16v-112h16c8.83203 0 16 -7.16797 16 -16v-80h16c8.83203 0 16 -7.16797 16 -16v-112h16zM296 272v-48h48v48c0 8.83203 -7.16797 16 -16 16h-16
c-8.83203 0 -16 -7.16797 -16 -16zM352 96v64c0 8.83203 -7.16797 16 -16 16h-32c-8.83203 0 -16 -7.16797 -16 -16v-64h64z" />
    <glyph glyph-name="drumstick-primary" unicode="&#xf6d6;" 
d="M160.1 256c0 64 27.6006 107 63.1006 142.4c66.0996 66.0996 173.2 66 239.3 0s66 -173.2 0 -239.301c-35.5 -35.3994 -78.5 -63.0996 -142.4 -63.0996h-96.0996c-35.2998 0 -64 28.7002 -64 64z" />
    <glyph glyph-name="drumstick-bite-primary" unicode="&#xf6d7;" 
d="M160.06 256c0 64 27.7002 107 63.1807 142.43c27.3965 27.3604 81.0557 49.5664 119.774 49.5664c38.7197 0 92.3789 -22.2061 119.775 -49.5664c34.3203 -34.2793 50.4404 -79.5996 49.1396 -124.56c-42 22.6602 -94.3799 17.5596 -128.77 -16.7998
c-40.8799 -40.8398 -40.6904 -107.17 -1.0498 -151.07c-16.2314 -5.52344 -43.3193 -10.0059 -60.4648 -10.0059c-0.396484 0 -1.03906 0.00292969 -1.43555 0.00585938h-96.21c-35.3281 0 -64 28.6719 -64 64z" />
    <glyph glyph-name="kite-primary" unicode="&#xf6f4;" horiz-adv-x="640" 
d="M154.69 220c15.9492 10.5098 37.3096 -0.830078 37.3096 -19.8398v-80.3604c0 -19.0098 -21.3604 -30.3496 -37.3096 -19.7998l-58.6904 38.8398l-58.6904 -38.7598c-15.9492 -10.5498 -37.3096 0.799805 -37.3096 19.7998v80.3203
c0 19.0098 21.3096 30.3496 37.3096 19.7998l58.6904 -38.8398zM608 448c17.6641 0 32 -14.3359 32 -32v-262.5v-0.0205078c0 -14.0498 -11.1104 -28.0186 -24.7998 -31.1797l-353.78 -81.6602c-1.46973 -0.338867 -3.88574 -0.613281 -5.39355 -0.613281
c-13.248 0 -24 10.752 -24 24c0 1.50781 0.274414 3.92383 0.613281 5.39355l81.6602 353.78c3.18555 13.6709 17.1631 24.7812 31.2002 24.7998h262.5zM592 166.2l-116.9 116.899l116.9 116.9h-233.8l116.8 -117l-187 -187z" />
    <glyph glyph-name="pie-primary" unicode="&#xf705;" horiz-adv-x="576" 
d="M544 208c17.6641 0 32 -14.3359 32 -32s-14.3359 -32 -32 -32c-32 0 -49.9404 13.4805 -61.7998 22.4199c-9.04004 6.77051 -12.7402 9.58008 -23.3799 9.58008c-10.6406 0 -14.3906 -2.80957 -23.4404 -9.58984c-11.8896 -8.92969 -29.8398 -22.4102 -61.8398 -22.4102
s-49.9697 13.4902 -61.8604 22.4102c-9.0498 6.78027 -12.79 9.58984 -23.4395 9.58984c-10.6504 0 -14.4502 -2.80957 -23.4502 -9.58984c-11.8799 -8.92969 -29.8604 -22.4102 -61.8799 -22.4102c-32.0205 0 -50 13.4697 -61.9102 22.3896
c-9.08008 6.80078 -12.8496 9.61035 -23.5498 9.61035s-14.4502 -2.80957 -23.5303 -9.61035c-11.9199 -8.91992 -29.9199 -22.3896 -61.9199 -22.3896c-17.6641 0 -32 14.3359 -32 32s14.3359 32 32 32c6.4502 0 10.3799 1.16992 14.4502 3.4502
c34.5498 100.34 129.479 172.55 241.55 172.55s206.93 -72.1699 241.53 -172.48c4.09961 -2.31934 8.0293 -3.51953 14.4697 -3.51953zM206.31 296.84c9.4707 18.9404 -19.0898 33.1602 -28.6191 14.3105l-16 -32c-9.55078 -19.1006 19.1797 -33.1406 28.6191 -14.3105z
M304 272v32c0 21.1797 -32 21.1699 -32 0v-32c0 -21.1797 32 -21.1699 32 0zM385.69 264.84c9.44922 -18.8398 38.1494 -4.74023 28.6191 14.3105l-16 32c-9.48926 18.8799 -38.0996 4.63965 -28.6191 -14.3105z" />
    <glyph glyph-name="scythe-primary" unicode="&#xf710;" horiz-adv-x="640" 
d="M510 256h-510c64 128 192 192 338.87 192h211z" />
    <glyph glyph-name="turkey-primary" unicode="&#xf725;" horiz-adv-x="640" 
d="M639.38 305.42c-4.41992 -29 -23.9102 -45.46 -52.1104 -44.1396c-0.949219 0 -1.90918 0.109375 -2.86914 0.189453c-7.95215 0.714844 -20.1465 4.29883 -27.2207 8c-4.67383 2.52637 -12.7744 4.81152 -18.0801 5.10059
c-11.2998 0.529297 -23.4492 -3.93066 -36.0996 -13.2705c-11.8799 -8.75977 -23.9297 -21.5498 -35.8203 -38c-23 -31.7998 -37.71 -66.6797 -41.2295 -78.5898c-13.7598 -46.5 -50.9004 -80.1396 -94.5605 -85.7002
c-4.38867 -0.573242 -11.543 -1.03809 -15.9688 -1.03809c-1.55273 0 -4.07031 0.0576172 -5.62109 0.12793c-28.0146 1.17969 -65.1631 19.75 -82.9199 41.4502c-25.8701 31.2598 -33.6494 73.3604 -20.7998 112.601c9.35742 28.0869 39.4277 59.3799 67.1201 69.8496
c16.4297 6.32031 35.0693 9.37988 55.3799 9.09961c14.2002 -0.189453 41.3799 3.11035 71.2598 13c30.5801 10.1309 54.4697 24.29 67.2705 39.8906c10 12.2197 13.3994 25.21 10.2793 39.7295c-0.634766 3.01465 -1.15039 7.95996 -1.15039 11.04
c0 14.9482 9.77148 34.2705 21.8105 43.1299c7.51172 5.58105 21.2021 10.1113 30.5605 10.1113c0.6875 0 1.80273 -0.0273438 2.48926 -0.0605469c12.9951 -0.621094 30.248 -9.28125 38.5107 -19.3301c9.55957 -11.6406 13.54 -26.5703 11.21 -42v-0.169922
c-1.08398 -6.67578 -5.11621 -16.585 -9 -22.1201c4.31641 1.41113 11.5049 2.55664 16.0459 2.55664c0.669922 0 1.75488 -0.0253906 2.42383 -0.0566406c1.66016 -0.0800781 3.33008 -0.240234 5 -0.480469h0.139648c28.5703 -4.43945 48.3604 -31.7295 43.9502 -60.9199z
" />
    <glyph glyph-name="ball-pile-primary" unicode="&#xf77e;" horiz-adv-x="576" 
d="M80 96c44.1602 0 80 -35.8398 80 -80s-35.8398 -80 -80 -80s-80 35.8398 -80 80s35.8398 80 80 80zM288 448c44.1602 0 80 -35.8398 80 -80s-35.8398 -80 -80 -80s-80 35.8398 -80 80s35.8398 80 80 80zM288 96c44.1602 0 80 -35.8398 80 -80s-35.8398 -80 -80 -80
s-80 35.8398 -80 80s35.8398 80 80 80zM496 96c44.1602 0 80 -35.8398 80 -80s-35.8398 -80 -80 -80s-80 35.8398 -80 80s35.8398 80 80 80z" />
    <glyph glyph-name="biohazard-primary" unicode="&#xf780;" horiz-adv-x="576" 
d="M575.53 164.53c0.251953 -0.727539 0.457031 -1.94336 0.457031 -2.71387c0 -2.55957 -1.77246 -5.72168 -3.95703 -7.05664c-1.0332 -0.626953 -2.85059 -1.13574 -4.05859 -1.13574c-1.9873 0 -4.64941 1.22559 -5.94141 2.73633
c-9.40039 10.79 -19 18.9893 -29.2002 25.0898c-57.3105 33.8799 -130.82 13.6797 -163.92 -45c-33.1006 -58.6807 -13.4004 -133.95 43.8994 -167.84c10.21 -6.10059 21.9102 -10.5 35.8105 -13.4004c3.5332 -0.780273 6.40137 -4.34961 6.40137 -7.96777
c0 -0.0371094 -0.000976562 -0.0957031 -0.00195312 -0.131836c0.000976562 -0.0234375 0.000976562 -0.0615234 0.000976562 -0.0839844c0 -3.6582 -2.91211 -7.20508 -6.50098 -7.91602c-8.69922 -1.72363 -22.958 -3.12207 -31.8262 -3.12207
c-24.7363 0 -62.0918 10.2197 -83.3838 22.8115c-18.0098 10.6006 -32.9092 24.4902 -45.3096 40.0898c-12.4004 -15.5996 -27.3096 -29.4893 -45.3096 -40.0898c-21.2959 -12.5977 -58.6592 -22.8223 -83.4014 -22.8223c-8.85547 0 -23.0918 1.39453 -31.7793 3.1123
c-3.58789 0.711914 -6.5 4.25781 -6.5 7.91602v0.0839844v0.0439453c0 3.62695 2.86719 7.23633 6.40039 8.05664c13.8096 3 25.5996 7.2998 35.8096 13.3994c57.2998 33.8398 77 109.15 43.9004 167.84c-33.1006 58.6904 -106.61 78.8906 -163.92 45
c-10.2002 -6 -19.7998 -14.2998 -29.2002 -25.0898c-1.29199 -1.50977 -3.9541 -2.73535 -5.94141 -2.73535c-1.20801 0 -3.02637 0.508789 -4.05859 1.13574c-2.17773 1.3457 -3.94531 4.5166 -3.94531 7.07617c0 0.770508 0.204102 1.98535 0.455078 2.71387
c13.2998 39.0898 39.7002 71.8799 74.2998 92.3701c14.2598 8.28809 39.0391 17.2031 55.3105 19.8994c-6.10059 17.6904 -10 36.3906 -10 56.1807c0.0419922 35.0771 18.4102 85.3242 41 112.159c1.30176 1.57715 4.01758 2.85742 6.0625 2.85742
c1.16504 0 2.92871 -0.473633 3.9375 -1.05664c2.21875 -1.32812 4.02051 -4.50391 4.02051 -7.08887c0 -0.737305 -0.188477 -1.90234 -0.420898 -2.60156c-4.39941 -13.7998 -6.59961 -26.3896 -6.59961 -38.4902c0 -67.7793 53.7998 -122.859 120 -122.859
s120 55.0801 120 122.859c0 12.2002 -2.10059 24.6904 -6.60059 38.4902c-0.231445 0.699219 -0.419922 1.86426 -0.419922 2.60156c0 2.58496 1.80078 5.76074 4.02051 7.08887c1.00879 0.586914 2.77441 1.0625 3.94238 1.0625
c2.04492 0 4.75879 -1.28223 6.05762 -2.86328c22.6318 -26.8174 41 -77.0635 41 -112.155v-0.00390625c0 -19.79 -4 -38.4902 -10 -56.1807c16.2764 -2.68262 41.0557 -11.5977 55.3096 -19.8994c34.6006 -20.3701 61 -53.2803 74.1006 -92.3701zM288 127.95
c26.4961 0 48 21.5039 48 48s-21.5039 48 -48 48s-48 -21.5039 -48 -48s21.5039 -48 48 -48z" />
    <glyph glyph-name="bacon-primary" unicode="&#xf7e5;" horiz-adv-x="576" 
d="M252.88 77.6602c-39.79 -39.7803 -69 -50.7305 -97.2998 -61.3203c-23.8604 -9 -46.5996 -17.6602 -76.71 -45.3301l-45.3301 45.1602c35.1699 32.5996 62.1699 43 88.1699 52.7305c26.2598 9.83984 51.0498 19.1191 85.9102 54
c34.8604 34.8799 44.2002 59.6992 54.0498 86c10.6104 28.29 21.5898 57.54 61.3701 97.3398s69 50.7695 97.3398 61.3799c23.8799 9 46.6396 17.6797 76.79 45.3701l45.3105 -45.2002c-35.1904 -32.6396 -62.1709 -43 -88.2402 -52.7998
c-26.2598 -9.85059 -51.0605 -19.1602 -85.9502 -54s-44.1904 -59.6904 -54 -86c-10.6396 -28.3203 -21.6201 -57.5498 -61.4102 -97.3301z" />
    <glyph glyph-name="book-medical-primary" unicode="&#xf7e6;" horiz-adv-x="448" 
d="M96 64c-16 0 -32 -12.7998 -32 -32s12.7998 -32 32 -32h328c13.248 0 24 -10.752 24 -24v-16c0 -13.248 -10.752 -24 -24 -24h-328c-52.9922 0 -96 43.0078 -96 96v320c0 52.9922 43.0078 96 96 96h320c17.6641 0 32 -14.3359 32 -32v-328c0 -13.248 -10.752 -24 -24 -24
h-328zM144 280v-48c0 -4.41602 3.58398 -8 8 -8h56v-56c0 -4.41602 3.58398 -8 8 -8h48c4.41602 0 8 3.58398 8 8v56h56c4.41602 0 8 3.58398 8 8v48c0 4.41602 -3.58398 8 -8 8h-56v56c0 4.41602 -3.58398 8 -8 8h-48c-4.41602 0 -8 -3.58398 -8 -8v-56h-56
c-4.41602 0 -8 -3.58398 -8 -8z" />
    <glyph glyph-name="book-user-primary" unicode="&#xf7e7;" horiz-adv-x="448" 
d="M96 64c-16 0 -32 -12.7998 -32 -32s12.7998 -32 32 -32h328c13.248 0 24 -10.752 24 -24v-16c0 -13.248 -10.752 -24 -24 -24h-328c-52.9922 0 -96 43.0078 -96 96v320c0 52.9922 43.0078 96 96 96h320c17.6641 0 32 -14.3359 32 -32v-328c0 -13.248 -10.752 -24 -24 -24
h-328zM240 384c-35.3281 0 -64 -28.6719 -64 -64s28.6719 -64 64 -64s64 28.6719 64 64s-28.6719 64 -64 64zM128 166.4v-19.2002c0 -10.6006 10 -19.2002 22.4004 -19.2002h179.3c12.3994 0 22.3994 8.58984 22.3994 19.2002v19.2002
c0 31.8096 -30.0898 57.5996 -67.1992 57.5996h-5c-10.5557 -4.41699 -28.4082 -8.00293 -39.8506 -8.00293s-29.2949 3.58594 -39.8496 8.00293h-5c-37.1104 0 -67.2002 -25.79 -67.2002 -57.5996z" />
    <glyph glyph-name="books-medical-primary" unicode="&#xf7e8;" horiz-adv-x="640" 
d="M639.18 -30.6104c0.454102 -1.68848 0.822266 -4.47754 0.822266 -6.22559c0 -10.1348 -7.93945 -20.5127 -17.7217 -23.1641l-15.3906 -4.21973c-1.67188 -0.447266 -4.43457 -0.80957 -6.16602 -0.80957c-10.166 0 -20.5166 7.97852 -23.1035 17.8096l-126.8 459.8
c-0.458008 1.69531 -0.829102 4.49707 -0.829102 6.25391c0 10.1387 7.94238 20.5166 17.7285 23.166l15.3906 4.19043c1.67188 0.446289 4.43457 0.80957 6.16602 0.80957c10.166 0 20.5166 -7.97949 23.1035 -17.8096zM224 31v32h128v-32h-128zM383.38 429.19
l126.8 -459.771c0.458008 -1.69531 0.829102 -4.49707 0.829102 -6.25391c0 -10.1387 -7.94238 -20.5166 -17.7285 -23.166l-15.3799 -4.21973c-1.67285 -0.447266 -4.43555 -0.80957 -6.16699 -0.80957c-10.166 0 -20.5156 7.97852 -23.1035 17.8096l-101 366.189h-123.63
v32h114.82l-17 61.6104c-0.458008 1.69531 -0.829102 4.49707 -0.829102 6.25391c0 10.1387 7.94238 20.5166 17.7285 23.166l15.3906 4.19043c1.67188 0.446289 4.43457 0.80957 6.16602 0.80957c10.166 0 20.5166 -7.97949 23.1035 -17.8096zM128 320
c70.6562 0 128 -57.3438 128 -128s-57.3438 -128 -128 -128s-128 57.3438 -128 128s57.3438 128 128 128zM192 176v32c0 2.94238 -2.3877 5.33008 -5.33008 5.33008h-37.3398v37.3398c0 2.94238 -2.3877 5.33008 -5.33008 5.33008v0h-32
c-2.94238 0 -5.33008 -2.3877 -5.33008 -5.33008v-37.3398h-37.3398c-2.94238 0 -5.33008 -2.3877 -5.33008 -5.33008v-32c0 -2.94238 2.3877 -5.33008 5.33008 -5.33008h37.3398v-37.3398c0 -2.94238 2.3877 -5.33008 5.33008 -5.33008h32
c2.94238 0 5.33008 2.3877 5.33008 5.33008v37.3398h37.3398c2.94238 0 5.33008 2.3877 5.33008 5.33008z" />
    <glyph glyph-name="brackets-primary" unicode="&#xf7e9;" horiz-adv-x="448" 
d="M144 416c8.83203 0 16 -7.16797 16 -16v-32c0 -8.83203 -7.16797 -16 -16 -16h-80v-320h80c8.83203 0 16 -7.16797 16 -16v-32c0 -8.83203 -7.16797 -16 -16 -16h-112c-17.6641 0 -32 14.3359 -32 32v384c0 17.6641 14.3359 32 32 32h112z" />
    <glyph glyph-name="brackets-curly-primary" unicode="&#xf7ea;" horiz-adv-x="576" 
d="M208 416c8.83203 0 16 -7.16797 16 -16v-32c0 -8.83203 -7.16797 -16 -16 -16h-48c-17.6641 0 -32 -14.3359 -32 -32v-37.4805v-0.0146484c0 -21.9473 -12.5938 -52.3545 -28.1104 -67.875l-22.6299 -22.6299l22.6104 -22.6299
c15.5264 -15.5215 28.1289 -45.9355 28.1299 -67.8896v-37.4805c0 -17.6641 14.3359 -32 32 -32h48c8.83203 0 16 -7.16797 16 -16v-32c0 -8.83203 -7.16797 -16 -16 -16h-48c-52.9922 0 -96 43.0078 -96 96v37.4902
c-0.000976562 7.31836 -4.19922 17.4609 -9.37012 22.6396l-45.25 45.25c-5.17188 5.17383 -9.37012 15.3096 -9.37012 22.625s4.19824 17.4521 9.37012 22.625l45.2402 45.2402c5.16992 5.18262 9.37207 15.3301 9.37988 22.6494v37.4805c0 52.9922 43.0078 96 96 96h48z
" />
    <glyph glyph-name="bread-loaf-primary" unicode="&#xf7eb;" horiz-adv-x="640" 
d="M640 256c0 -35.3496 -26.8604 -64 -60 -64h-4v-192c0 -17.6641 -14.3359 -32 -32 -32h-104.9c4.86035 8.16406 8.84766 22.5 8.90039 32v164.54c37.0801 12.4004 64 48.71 64 91.46c0 67.3799 -46.7998 125.61 -119.19 159.76
c2.41016 0 4.76074 0.240234 7.19043 0.240234c132.55 0 240 -71.6299 240 -160z" />
    <glyph glyph-name="bread-slice-primary" unicode="&#xf7ec;" horiz-adv-x="576" 
d="M152 48c13.248 0 24 -10.752 24 -24s-10.752 -24 -24 -24s-24 10.752 -24 24s10.752 24 24 24zM152 144c13.248 0 24 -10.752 24 -24s-10.752 -24 -24 -24s-24 10.752 -24 24s10.752 24 24 24zM248 48c13.248 0 24 -10.752 24 -24s-10.752 -24 -24 -24s-24 10.752 -24 24
s10.752 24 24 24z" />
    <glyph glyph-name="burrito-primary" unicode="&#xf7ed;" 
d="M505.26 294.12c3.71875 -8.47559 6.73828 -22.8652 6.74023 -32.1201c0 -22 -9.37012 -42 -24.29 -56.75c-32.2686 28.0137 -93.1396 50.75 -135.872 50.75h-0.0078125c-9.79102 -0.00683594 -25.5693 -1.35059 -35.2197 -3
c1.75977 9.84277 3.1875 25.9463 3.1875 35.9453c0 42.4873 -22.7578 102.875 -50.7979 134.795c14.7998 14.8896 34.7402 24.2598 56.7998 24.2598h0.0830078c9.25391 0 23.6416 -3.01465 32.1172 -6.73047c8.10449 3.70215 21.9131 6.70605 30.8223 6.70605
c30.1865 0 61.9355 -23.4014 70.8682 -52.2354c28.832 -8.87988 52.2666 -40.5713 52.3096 -70.7402v-0.205078c0 -8.875 -3.01953 -22.6172 -6.74023 -30.6748z" />
    <glyph glyph-name="chart-scatter-primary" unicode="&#xf7ee;" 
d="M160 192c17.6641 0 32 -14.3359 32 -32s-14.3359 -32 -32 -32s-32 14.3359 -32 32s14.3359 32 32 32zM416 352c17.6641 0 32 -14.3359 32 -32s-14.3359 -32 -32 -32s-32 14.3359 -32 32s14.3359 32 32 32zM192 352c17.6641 0 32 -14.3359 32 -32s-14.3359 -32 -32 -32
s-32 14.3359 -32 32s14.3359 32 32 32zM384 192c17.6641 0 32 -14.3359 32 -32s-14.3359 -32 -32 -32s-32 14.3359 -32 32s14.3359 32 32 32zM288 256c17.6641 0 32 -14.3359 32 -32s-14.3359 -32 -32 -32s-32 14.3359 -32 32s14.3359 32 32 32z" />
    <glyph glyph-name="cheese-primary" unicode="&#xf7ef;" 
d="M512 160v-160c0 -17.6641 -14.3359 -32 -32 -32h-448c-17.6641 0 -32 14.3359 -32 32v160h512z" />
    <glyph glyph-name="cheese-swiss-primary" unicode="&#xf7f0;" 
d="M416 160h96v-160c0 -17.6641 -14.3359 -32 -32 -32h-448c-17.6641 0 -32 14.3359 -32 32v160h320c0 -26.4961 21.5039 -48 48 -48s48 21.5039 48 48zM176 16c26.4961 0 48 21.5039 48 48s-21.5039 48 -48 48s-48 -21.5039 -48 -48s21.5039 -48 48 -48z" />
    <glyph glyph-name="clinic-medical-primary" unicode="&#xf7f2;" horiz-adv-x="576" 
d="M570.7 211.71c2.93359 -2.63184 5.31543 -7.96777 5.31543 -11.9092c0 -3.38379 -1.83496 -8.17285 -4.0957 -10.6904l-21.4004 -23.8203c-2.63086 -2.92773 -7.96191 -5.30469 -11.8994 -5.30469c-3.3877 0 -8.18164 1.83887 -10.7002 4.10449l-229.32 202.271
c-2.50391 2.20898 -7.24512 4.00098 -10.585 4.00098c-3.33887 0 -8.08105 -1.79199 -10.585 -4.00098l-229.33 -202.271c-2.5166 -2.26074 -7.30566 -4.09473 -10.6895 -4.09473c-3.9375 0 -9.26855 2.37695 -11.9004 5.30469l-21.4102 23.8203
c-2.25977 2.51758 -4.09473 7.30664 -4.09473 10.6895c0 3.9375 2.37695 9.26855 5.30469 11.9004l256 226c6.2832 5.67969 18.2559 10.29 26.7256 10.29s20.4424 -4.61035 26.7246 -10.29zM376 128c4.41602 0 8 -3.58398 8 -8v-48c0 -4.41602 -3.58398 -8 -8 -8h-56v-56
c0 -4.41602 -3.58398 -8 -8 -8h-48c-4.41602 0 -8 3.58398 -8 8v56h-56c-4.41602 0 -8 3.58398 -8 8v48c0 4.41602 3.58398 8 8 8h56v56c0 4.41602 3.58398 8 8 8h48c4.41602 0 8 -3.58398 8 -8v-56h56z" />
    <glyph glyph-name="clipboard-user-primary" unicode="&#xf7f3;" horiz-adv-x="384" 
d="M236.9 96c37.0996 0 67.1992 -25.79 67.1992 -57.5996l-0.0996094 -19.2002c0 -10.6104 -10 -19.2002 -22.4004 -19.2002h-179.199c-12.4004 0 -22.4004 8.59961 -22.4004 19.2002v19.2002c0 31.8096 30.0898 57.5996 67.2002 57.5996h5
c10.5547 -4.41699 28.4072 -8.00293 39.8496 -8.00293s29.2949 3.58594 39.8506 8.00293h5zM128 192c0 35.3281 28.6719 64 64 64s64 -28.6719 64 -64s-28.6719 -64 -64 -64s-64 28.6719 -64 64zM256 384c35.3281 0 64 -28.6719 64 -64h-256c0 35.3281 28.6719 64 64 64
c0 35.3281 28.6719 64 64 64s64 -28.6719 64 -64zM192 360h0.0605469c13.2148 0 23.9395 10.7246 23.9395 23.9395v0.0605469c0 13.248 -10.752 24 -24 24s-24 -10.752 -24 -24s10.752 -24 24 -24z" />
    <glyph glyph-name="comment-alt-medical-primary" unicode="&#xf7f4;" 
d="M160 264c0 4.41602 3.58398 8 8 8h56v56c0 4.41602 3.58398 8 8 8h48c4.41602 0 8 -3.58398 8 -8v-56h56c4.41602 0 8 -3.58398 8 -8v-48c0 -4.41602 -3.58398 -8 -8 -8h-56v-56c0 -4.41602 -3.58398 -8 -8 -8h-48c-4.41602 0 -8 3.58398 -8 8v56h-56
c-4.41602 0 -8 3.58398 -8 8v48z" />
    <glyph glyph-name="comment-medical-primary" unicode="&#xf7f5;" 
d="M160 232c0 4.41602 3.58398 8 8 8h56v56c0 4.41602 3.58398 8 8 8h48c4.41602 0 8 -3.58398 8 -8v-56h56c4.41602 0 8 -3.58398 8 -8v-48c0 -4.41602 -3.58398 -8 -8 -8h-56v-56c0 -4.41602 -3.58398 -8 -8 -8h-48c-4.41602 0 -8 3.58398 -8 8v56h-56
c-4.41602 0 -8 3.58398 -8 8v48z" />
    <glyph glyph-name="croissant-primary" unicode="&#xf7f6;" 
d="M509.89 267.34c1.14746 -3.02637 2.0791 -8.1084 2.0791 -11.3447c0 -17.6641 -14.3359 -32 -32 -32c-1.46191 0 -3.81738 0.194336 -5.25879 0.43457l-86.7998 14.4707l77.79 99.0996c16.0352 -17.1016 35.832 -48.7568 44.1895 -70.6602zM234.89 425.41l63.9902 -208
c0.770508 -2.52246 1.39648 -6.71094 1.39648 -9.34961c0 -7.32715 -4.20996 -17.4746 -9.39648 -22.6504l-28.3203 -28.3105c-5.17578 -5.18652 -15.3232 -9.39551 -22.6504 -9.39551c-2.6377 0 -6.82617 0.625 -9.34961 1.39551l-208 64
c-12.4316 3.85547 -22.5215 17.5488 -22.5215 30.5645c0 2.18164 0.430664 5.66992 0.961914 7.78613c21.5156 86.415 109.108 174.021 195.52 195.55c2.11914 0.532227 5.61133 0.963867 7.7959 0.963867c13.0312 0 26.7285 -10.1035 30.5742 -22.5537zM209.09 60.0596
l14.4902 -86.7998c0.240234 -1.44141 0.43457 -3.79688 0.43457 -5.25879c0 -17.6641 -14.3359 -32 -32 -32c-3.23633 0 -8.31836 0.931641 -11.3447 2.0791c-21.9102 8.34961 -53.5703 28.1465 -70.6699 44.1895z" />
    <glyph glyph-name="crutch-primary" unicode="&#xf7f7;" 
d="M382.91 251l45.25 -45.2402l-109.68 -109.68c-10.7432 -10.749 -31.4814 -22.2402 -46.29 -25.6504l-120.25 -27.75l-102 -102c-2.58691 -2.58691 -7.65625 -4.6875 -11.3154 -4.6875s-8.72852 2.10059 -11.3154 4.6875l-22.6191 22.6201
c-2.58789 2.58691 -4.68848 7.65625 -4.68848 11.3154c0 3.6582 2.10059 8.72754 4.68848 11.3145l102 102l27.7393 120.261c3.42285 14.8066 14.9229 35.5439 25.6699 46.29l109.67 109.67l45.2305 -45.25l-55.0801 -55.1006l67.8896 -67.9199zM273.24 141.34
l9.30957 9.31055l-67.8896 67.8896l-9.31055 -9.30957c-3.57715 -3.5918 -7.41211 -10.5127 -8.55957 -15.4502l-18.2998 -79.2998l79.2998 18.3193c4.94043 1.13379 11.8623 4.95996 15.4502 8.54004z" />
    <glyph glyph-name="crutches-primary" unicode="&#xf7f8;" horiz-adv-x="640" 
d="M510.84 251l45.25 -45.2598l-109.68 -109.681c-10.7432 -10.749 -31.4805 -22.2402 -46.29 -25.6494l-120.25 -27.75l-102 -102c-2.58691 -2.58789 -7.65625 -4.6875 -11.3154 -4.6875c-3.6582 0 -8.72754 2.09961 -11.3145 4.6875l-22.6201 22.6201
c-2.58789 2.58691 -4.6875 7.65625 -4.6875 11.3145c0 3.65918 2.09961 8.72852 4.6875 11.3154l102 102l27.71 120.26c3.42578 14.8047 14.9258 35.543 25.6699 46.29l109.7 109.67l45.25 -45.2598l-55.1006 -55.1006l67.8906 -67.8896zM401.17 141.32l9.31055 9.30957
l-67.8906 67.8896l-9.30957 -9.30957c-3.57422 -3.59277 -7.40918 -10.5146 -8.56055 -15.4502l-18.2998 -79.2998l79.2998 18.3203c4.94238 1.13086 11.8643 4.95605 15.4502 8.54004z" />
    <glyph glyph-name="debug-primary" unicode="&#xf7f9;" 
d="M256 440c137 0 248 -111 248 -248s-111 -248 -248 -248s-248 111 -248 248s111 248 248 248zM256 8h0.0683594c31.9844 0 79.1641 14.9502 105.312 33.3701l-256 256c-18.4258 -26.1484 -33.3799 -73.3311 -33.3799 -105.319v-0.0507812c0 -101.46 82.54 -184 184 -184z
M406.62 86.6299c18.4258 26.1484 33.3799 73.3311 33.3799 105.319v0.0507812c0 101.46 -82.54 184 -184 184h-0.0751953c-31.9824 0 -79.1592 -14.9502 -105.305 -33.3701z" />
    <glyph glyph-name="disease-primary" unicode="&#xf7fa;" 
d="M304 223.95c-8.83203 0 -16 7.16797 -16 16s7.16797 16 16 16s16 -7.16797 16 -16s-7.16797 -16 -16 -16zM288 159.95c17.6641 0 32 -14.3359 32 -32s-14.3359 -32 -32 -32s-32 14.3359 -32 32s14.3359 32 32 32z" />
    <glyph glyph-name="egg-primary" unicode="&#xf7fb;" horiz-adv-x="384" 
d="M192 448c106 0 192 -214 192 -320s-86 -192 -192 -192s-192 86 -192 192s86 320 192 320zM192 16c61.7578 0.0664062 111.934 50.2422 112 112c0 18.3203 -4.25977 44.4004 -11.6904 71.5596c-6.89941 25.2266 -22.0605 64.6504 -33.8398 88
c-13.9795 27.4502 -29.29 49.8701 -44.29 64.8701l-0.359375 0.360352c-5.00293 4.95703 -14.7783 8.97949 -21.8203 8.97949s-16.8174 -4.02246 -21.8203 -8.97949l-0.359375 -0.360352c-15 -14.9893 -30.29 -37.4199 -44.29 -64.8701
c-11.7793 -23.3496 -26.9404 -62.7734 -33.8398 -88c-7.43066 -27.1592 -11.6904 -53.2393 -11.6904 -71.5596c0.0664062 -61.7578 50.2422 -111.934 112 -112z" />
    <glyph glyph-name="egg-fried-primary" unicode="&#xf7fc;" 
d="M224 320c61.7412 -0.0830078 111.917 -50.2588 112 -112c0 -61.8242 -50.1758 -112 -112 -112s-112 50.1758 -112 112s50.1758 112 112 112zM216 256.22v-0.0800781c8.83203 0 16 7.16797 16 16s-7.16797 16 -16 16c-39.6729 -0.0273438 -71.9287 -32.2471 -72 -71.9199
c0 -8.83203 7.16797 -16 16 -16s16 7.16797 16 16c0 22.0801 17.9199 40 40 40z" />
    <glyph glyph-name="files-medical-primary" unicode="&#xf7fd;" horiz-adv-x="448" 
d="M376 224c4.41602 0 8 -3.58398 8 -8v-48c0 -4.41602 -3.58398 -8 -8 -8h-56v-56c0 -4.41602 -3.58398 -8 -8 -8h-48c-4.41602 0 -8 3.58398 -8 8v56h-56c-4.41602 0 -8 3.58398 -8 8v48c0 4.41602 3.58398 8 8 8h56v56c0 4.41602 3.58398 8 8 8h48
c4.41602 0 8 -3.58398 8 -8v-56h56zM96 56c0.0332031 -30.8789 25.1211 -55.9668 56 -56h168v-40c0 -13.248 -10.752 -24 -24 -24h-272c-13.248 0 -24 10.752 -24 24v368c0 13.248 10.752 24 24 24h72v-296z" />
    <glyph glyph-name="fish-cooked-primary" unicode="&#xf7fe;" horiz-adv-x="640" 
d="M453.63 255l-148.67 -148.62c-1.29297 -1.29199 -3.82617 -2.34082 -5.65527 -2.34082c-1.82812 0 -4.36133 1.04883 -5.6543 2.34082l-11.3105 11.3105c-1.29199 1.29297 -2.34082 3.82617 -2.34082 5.6543s1.04883 4.3623 2.34082 5.65527l148.65 148.67
c1.29297 1.29199 3.82617 2.3418 5.6543 2.3418c1.8291 0 4.3623 -1.0498 5.65527 -2.3418l11.3301 -11.3604c1.29297 -1.29297 2.3418 -3.82617 2.3418 -5.6543s-1.04883 -4.3623 -2.3418 -5.65527zM341.63 271l-84.6699 -84.6201
c-1.29297 -1.29199 -3.82617 -2.34082 -5.65527 -2.34082c-1.82812 0 -4.36133 1.04883 -5.6543 2.34082l-11.3105 11.3105c-1.29199 1.29297 -2.34082 3.82617 -2.34082 5.6543s1.04883 4.3623 2.34082 5.65527l84.6504 84.6699
c1.29297 1.29199 3.82617 2.3418 5.6543 2.3418c1.8291 0 4.3623 -1.0498 5.65527 -2.3418l11.3301 -11.3604c1.29297 -1.29297 2.3418 -3.82617 2.3418 -5.6543s-1.04883 -4.3623 -2.3418 -5.65527zM501.63 186.31c1.31152 -1.2959 2.36621 -3.80469 2.36621 -5.64941
c0 -1.83105 -1.05078 -4.36621 -2.3457 -5.66016l-84.6602 -84.6201c-1.29395 -1.29199 -3.82715 -2.34082 -5.65527 -2.34082s-4.36133 1.04883 -5.65527 2.34082l-11.3096 11.3105c-1.29297 1.29297 -2.3418 3.82617 -2.3418 5.6543s1.04883 4.3623 2.3418 5.65527
l84.6201 84.6699c1.29297 1.29199 3.82617 2.3418 5.6543 2.3418c1.8291 0 4.3623 -1.0498 5.65527 -2.3418z" />
    <glyph glyph-name="flower-daffodil-primary" unicode="&#xf800;" 
d="M368 304c17.6641 -13.248 32 -41.9199 32 -64c0 -44.1602 -35.8398 -80 -80 -80c-22.0801 0 -50.752 14.3359 -64 32c-13.248 -17.6641 -41.9199 -32 -64 -32c-44.1602 0 -80 35.8398 -80 80c0 22.0801 14.3359 50.752 32 64c-17.6641 13.248 -32 41.9199 -32 64
c0 44.1602 35.8398 80 80 80c22.0801 0 50.752 -14.3359 64 -32c13.248 17.6641 41.9199 32 64 32c44.1602 0 80 -35.8398 80 -80c0 -22.0801 -14.3359 -50.752 -32 -64zM256 256c26.4961 0 48 21.5039 48 48s-21.5039 48 -48 48s-48 -21.5039 -48 -48s21.5039 -48 48 -48z
" />
    <glyph glyph-name="flower-tulip-primary" unicode="&#xf801;" 
d="M224 192c-70.6562 0 -128 57.3438 -128 128v96l80 -48l81.1504 80l78.8496 -80l80 48v-96c0 -70.6562 -57.3438 -128 -128 -128h-64z" />
    <glyph glyph-name="folder-tree-primary" unicode="&#xf802;" horiz-adv-x="576" 
d="M544 128c17.6641 0 32 -14.3359 32 -32v-128c0 -17.6641 -14.3359 -32 -32 -32h-224c-17.6641 0 -32 14.3359 -32 32v160c0 17.6641 14.3359 32 32 32h80l32 -32h112zM544 416c17.6641 0 32 -14.3359 32 -32v-128c0 -17.6641 -14.3359 -32 -32 -32h-224
c-17.6641 0 -32 14.3359 -32 32v160c0 17.6641 14.3359 32 32 32h80l32 -32h112z" />
    <glyph glyph-name="french-fries-primary" unicode="&#xf803;" horiz-adv-x="384" 
d="M0 208c0 8.83203 7.16797 16 16 16h34c6.91992 0 13.7002 -4.24023 15.1904 -11c8.59961 -39 62.0898 -69 126.79 -69c64.6992 0 118.189 30 126.789 69c1.49023 6.73047 8.27051 11 15.1904 11h34c8.82715 -0.00488281 15.9912 -7.17285 15.9912 -16
c0 -0.969727 -0.170898 -2.52344 -0.380859 -3.46973l-54.1006 -243.471c-3.06934 -13.8154 -17.0469 -25.043 -31.2002 -25.0596h-212.539h-0.0117188c-14.1709 0 -28.166 11.2266 -31.2383 25.0596l-54.1006 243.471
c-0.208984 0.946289 -0.378906 2.50098 -0.379883 3.46973z" />
    <glyph glyph-name="glass-primary" unicode="&#xf804;" horiz-adv-x="384" 
d="M317.63 384h-251.26l27.4297 -384h196.4zM352 448c0.660156 0 1.33008 -0.0595703 2 -0.0595703c16.5615 -1.03613 30.0029 -15.3438 30.0029 -31.9385c0 -0.552734 -0.0283203 -1.4502 -0.0625 -2.00195l-32 -448c-1.03711 -16.5596 -15.3457 -30 -31.9375 -30
h-0.00292969h-256h-0.00292969c-16.5918 0 -30.9004 13.4404 -31.9375 30l-32 448c-0.0595703 0.669922 -0.0595703 1.33008 -0.0595703 2c0 17.6641 14.3359 32 32 32h320z" />
    <glyph glyph-name="hamburger-primary" unicode="&#xf805;" 
d="M512 144c0 -26.4961 -21.5039 -48 -48 -48h-416c-26.4961 0 -48 21.5039 -48 48s21.5039 48 48 48h416c26.4961 0 48 -21.5039 48 -48z" />
    <glyph glyph-name="hand-middle-finger-primary" unicode="&#xf806;" horiz-adv-x="448" 
 />
    <glyph glyph-name="hard-hat-primary" unicode="&#xf807;" 
d="M320 368v-112l40.8096 81.6201c69.9102 -28.7002 119.19 -97.3701 119.19 -177.62v-64h-448v64c0 80.25 49.2803 148.92 119.19 177.62l40.8096 -81.6201v112c0 8.83203 7.16797 16 16 16h96c8.83203 0 16 -7.16797 16 -16z" />
    <glyph glyph-name="head-side-brain-primary" unicode="&#xf808;" 
d="M66.6104 287.71c6.14062 17.8242 26.4248 32.29 45.2773 32.29h0.112305c0 26.4961 21.5039 48 48 48c6.96387 -0.0390625 17.5059 -2.90625 23.5303 -6.40039c7.74805 12.3643 25.8789 22.3994 40.4697 22.3994s32.7217 -10.0352 40.4697 -22.3994
c6.08789 3.53223 16.7393 6.39844 23.7764 6.39844c18.6748 0 38.751 -14.335 44.8135 -31.998h2.94043c26.4961 0 48 -21.5039 48 -48s-21.5039 -48 -48 -48h-50.9404c1.5791 -4.27539 2.89648 -11.4434 2.94043 -16c0 -26.4961 -21.5039 -48 -48 -48
c-4.55664 0.0439453 -11.7246 1.36133 -16 2.94043v-50.9404h-64v50.9404c-4.27539 -1.5791 -11.4434 -2.89648 -16 -2.94043c-26.4961 0 -48 21.5039 -48 48c0 1 0.230469 1.88965 0.290039 2.84961c-17.8232 6.13867 -32.2891 26.4199 -32.2891 45.2705
c0 4.42383 1.16895 11.4072 2.60938 15.5898z" />
    <glyph glyph-name="head-side-medical-primary" unicode="&#xf809;" 
d="M320 232c0 -4.41602 -3.58398 -8 -8 -8h-56v-56c0 -4.41602 -3.58398 -8 -8 -8h-48c-4.41602 0 -8 3.58398 -8 8v56h-56c-4.41602 0 -8 3.58398 -8 8v48c0 4.41602 3.58398 8 8 8h56v56c0 4.41602 3.58398 8 8 8h48c4.41602 0 8 -3.58398 8 -8v-56h56
c4.41602 0 8 -3.58398 8 -8v-48z" />
    <glyph glyph-name="home-alt-primary" unicode="&#xf80a;" horiz-adv-x="576" 
d="M530.92 147.06l-235.229 193.74c-1.84863 1.49023 -5.27637 2.69922 -7.65039 2.69922s-5.80176 -1.20898 -7.65039 -2.69922l-235.22 -193.74c-1.83398 -1.50879 -5.25 -2.7334 -7.625 -2.7334c-3.12695 0 -7.27734 1.95898 -9.26465 4.37402l-25.5 31
c-1.51562 1.83594 -2.74609 5.25879 -2.74609 7.63965c0 3.11914 1.95117 7.26367 4.35547 9.25l253.101 208.47c7.33594 6.03711 21 10.9365 30.5 10.9365s23.1641 -4.89941 30.5 -10.9365l253.13 -208.47c2.4209 -1.9873 4.38574 -6.14258 4.38574 -9.27441
c0 -2.37109 -1.22168 -5.7832 -2.72559 -7.61523l-25.5 -31c-1.9873 -2.40625 -6.13281 -4.35938 -9.25293 -4.35938c-2.36816 0 -5.77637 1.21777 -7.60742 2.71875z" />
    <glyph glyph-name="home-lg-primary" unicode="&#xf80b;" horiz-adv-x="576" 
d="M527.92 164.12l-229.32 202.27c-2.50391 2.20898 -7.24512 4.00195 -10.585 4.00195c-3.33887 0 -8.08105 -1.79297 -10.585 -4.00195l-229.319 -202.279c-2.51758 -2.26074 -7.30664 -4.0957 -10.6904 -4.0957c-3.93652 0 -9.26855 2.37695 -11.9004 5.30566
l-21.4199 23.79c-2.25977 2.5166 -4.09473 7.30566 -4.09473 10.6895c0 3.9375 2.37695 9.26855 5.30469 11.9004l256 226c6.2832 5.67969 18.2559 10.29 26.7256 10.29s20.4424 -4.61035 26.7246 -10.29l101.24 -89.3701v51.6699c0 8.83203 7.16797 16 16 16h64
c8.83203 0 16 -7.16797 16 -16v-136.43l58.6904 -51.8301c2.93066 -2.63184 5.31055 -7.96582 5.31055 -11.9053c0 -3.38184 -1.83301 -8.16797 -4.09082 -10.6846l-21.4004 -23.8203c-2.63184 -2.92871 -7.96289 -5.30469 -11.9004 -5.30469
c-3.38281 0 -8.17188 1.83398 -10.6895 4.09473z" />
    <glyph glyph-name="home-lg-alt-primary" unicode="&#xf80c;" horiz-adv-x="576" 
d="M527.92 164.09l-229.32 202.271c-2.50391 2.20898 -7.24512 4.00098 -10.585 4.00098c-3.33887 0 -8.08105 -1.79199 -10.585 -4.00098l-229.319 -202.28c-2.51758 -2.26074 -7.30664 -4.09473 -10.6904 -4.09473c-3.93652 0 -9.26855 2.37598 -11.9004 5.30469
l-21.4199 23.8203c-2.25977 2.5166 -4.09473 7.30566 -4.09473 10.6895c0 3.9375 2.37695 9.26855 5.30469 11.9004l256 226c6.2832 5.67969 18.2559 10.29 26.7256 10.29s20.4424 -4.61035 26.7246 -10.29l255.94 -226c2.93164 -2.63184 5.31055 -7.96582 5.31055 -11.9053
c0 -3.38184 -1.83301 -8.16797 -4.09082 -10.6846l-21.4004 -23.8203c-2.63086 -2.92773 -7.96191 -5.30469 -11.8994 -5.30469c-3.3877 0 -8.18164 1.83887 -10.7002 4.10449z" />
    <glyph glyph-name="hospital-user-primary" unicode="&#xf80d;" horiz-adv-x="640" 
d="M528.62 96c61.4824 -0.339844 111.382 -50.5146 111.382 -111.998c0 -0.171875 -0.000976562 -0.450195 -0.00195312 -0.62207c-0.139648 -26.2598 -21.7305 -47.3799 -48 -47.3799h-224c-26.2695 0 -47.8604 21.1201 -48 47.3799v0.620117
c0 61.8242 50.1758 112 112 112h0.0810547c1.9707 0 5.09277 -0.488281 6.96875 -1.08984c10.9795 -3.81348 29.3232 -6.90723 40.9453 -6.90723s29.9658 3.09375 40.9453 6.90723c1.87598 0.601562 4.99902 1.08984 6.96973 1.08984h0.0898438h0.620117zM480 128
c-52.9922 0 -96 43.0078 -96 96s43.0078 96 96 96s96 -43.0078 96 -96s-43.0078 -96 -96 -96zM232 357.33c4.41602 0 8 -3.58398 8 -8v-26.6602c0 -4.41602 -3.58398 -8 -8 -8h-34.6699v-34.6699c0 -4.41602 -3.58398 -8 -8 -8h-26.6602c-4.41602 0 -8 3.58398 -8 8v34.6699
h-34.6699c-4.41602 0 -8 3.58398 -8 8v26.6602c0 4.41602 3.58398 8 8 8h34.6699v34.6699c0 4.41602 3.58398 8 8 8h26.6602c4.41602 0 8 -3.58398 8 -8v-34.6699h34.6699z" />
    <glyph glyph-name="hospitals-primary" unicode="&#xf80e;" horiz-adv-x="640" 
d="M256 352c17.6641 0 32 -14.3359 32 -32v-352c0 -17.6641 -14.3359 -32 -32 -32h-224c-17.6641 0 -32 14.3359 -32 32v352c0 17.6641 14.3359 32 32 32v64c0 17.6641 14.3359 32 32 32h160c17.6641 0 32 -14.3359 32 -32v-64zM128 44v40c0 6.62402 -5.37598 12 -12 12h-40
c-6.62402 0 -12 -5.37598 -12 -12v-40c0 -6.62402 5.37598 -12 12 -12h40c6.62402 0 12 5.37598 12 12zM128 172v40c0 6.62402 -5.37598 12 -12 12h-40c-6.62402 0 -12 -5.37598 -12 -12v-40c0 -6.62402 5.37598 -12 12 -12h40c6.62402 0 12 5.37598 12 12zM130.67 288
h26.6602c4.41602 0 8 3.58398 8 8v34.6699h34.6699c4.41602 0 8 3.58398 8 8v26.6602c0 4.41602 -3.58398 8 -8 8h-34.6699v34.6699c0 4.41602 -3.58398 8 -8 8h-26.6602c-4.41602 0 -8 -3.58398 -8 -8v-34.6699h-34.6699c-4.41602 0 -8 -3.58398 -8 -8v-26.6602
c0 -4.41602 3.58398 -8 8 -8h34.6699v-34.6699c0 -4.41602 3.58398 -8 8 -8zM224 44v40c0 6.62402 -5.37598 12 -12 12h-40c-6.62402 0 -12 -5.37598 -12 -12v-40c0 -6.62402 5.37598 -12 12 -12h40c6.62402 0 12 5.37598 12 12zM224 172v40c0 6.62402 -5.37598 12 -12 12
h-40c-6.62402 0 -12 -5.37598 -12 -12v-40c0 -6.62402 5.37598 -12 12 -12h40c6.62402 0 12 5.37598 12 12zM552 373.33c4.41602 0 8 -3.58398 8 -8v-26.6602c0 -4.41602 -3.58398 -8 -8 -8h-34.6699v-34.6699c0 -4.41602 -3.58398 -8 -8 -8h-26.6602
c-4.41602 0 -8 3.58398 -8 8v34.6699h-34.6699c-4.41602 0 -8 3.58398 -8 8v26.6602c0 4.41602 3.58398 8 8 8h34.6699v34.6699c0 4.41602 3.58398 8 8 8h26.6602c4.41602 0 8 -3.58398 8 -8v-34.6699h34.6699z" />
    <glyph glyph-name="hotdog-primary" unicode="&#xf80f;" 
d="M310.64 428.11l11.54 -11.5508l-290.739 -290.739l-11.5508 11.5498c-24.9893 24.9902 -26.6592 63.8398 -3.71973 86.7803l207.68 207.68c22.9404 22.9395 61.79 21.2803 86.79 -3.71973zM492.11 246.64c24.9893 -25 26.6592 -63.8496 3.71973 -86.79l-207.68 -207.68
c-22.9404 -22.9395 -61.79 -21.2803 -86.79 3.71973l-11.54 11.5508l290.739 290.739zM224 160c-12.4199 -12.4004 -14 -21.75 -16.2305 -34.7002c-2.46973 -14.3994 -5.53906 -32.3301 -25.1396 -51.9199c-19.5996 -19.5898 -37.5303 -22.6797 -51.9297 -25.1494
c-12.9404 -2.23047 -22.2998 -3.83008 -34.7002 -16.2305c-2.58691 -2.58691 -7.65625 -4.68652 -11.3154 -4.68652c-8.83301 0 -16.001 7.16895 -16.001 16.002c0 3.6582 2.09961 8.72754 4.68652 11.3145c19.5996 19.5898 37.5195 22.6699 51.9199 25.1396
c13 2.23047 22.3203 3.82031 34.71 16.2305s14 21.75 16.2002 34.7002c2.47949 14.3994 5.58008 32.3398 25.1797 51.9297c19.6006 19.5898 37.5205 22.6699 51.9199 25.1396c13 2.23047 22.3301 3.84082 34.7002 16.2305s14 21.75 16.2305 34.7002
c2.46973 14.3994 5.53906 32.3301 25.1396 51.9199c19.5996 19.5898 37.5195 22.6797 51.9199 25.1494c12.9502 2.23047 22.2998 3.82031 34.71 16.2305c2.58691 2.58691 7.65625 4.68652 11.3154 4.68652c8.83301 0 16.001 -7.16895 16.001 -16.002
c0 -3.6582 -2.09961 -8.72754 -4.68652 -11.3145c-19.5996 -19.5898 -37.5195 -22.6699 -51.9297 -25.1396c-12.9404 -2.23047 -22.2998 -3.83008 -34.7002 -16.2305s-14 -21.71 -16.2305 -34.71c-2.47949 -14.4004 -5.5498 -32.3301 -25.1494 -51.9199
c-19.6006 -19.5898 -37.5205 -22.6699 -51.9199 -25.1504c-12.9502 -2.21973 -22.2998 -3.81934 -34.7002 -16.2197z" />
    <glyph glyph-name="ice-cream-primary" unicode="&#xf810;" horiz-adv-x="384" 
d="M163.38 -46.1299l-99.3799 205.689h256l-99.3799 -205.689c-4.66504 -10.1094 -17.4863 -18.3135 -28.6201 -18.3135s-23.9551 8.2041 -28.6201 18.3135z" />
    <glyph glyph-name="island-tropical-primary" unicode="&#xf811;" horiz-adv-x="448" 
d="M241.2 96c68.5225 0 132.342 -55.0059 142.439 -122.78c2.89062 -19.5195 -12.0293 -37.2197 -31.7598 -37.2197h-319.76c-19.7305 0 -34.6504 17.7002 -31.7598 37.2197c10.0977 67.7744 73.9053 122.78 142.428 122.78h0.0117188h98.4004zM447.82 334.36
c0.0996094 -0.574219 0.179688 -1.51172 0.179688 -2.09375v-0.0869141c-0.107422 -6.72461 -5.65332 -12.1816 -12.3779 -12.1816c-0.0615234 0 -0.161133 0.000976562 -0.22168 0.00195312h-35.4004l-16 32l-16 -32h-129.11l-92.7598 -92.5303
c-5.36035 -5.35938 -14.1396 -4.25 -18.5 1.9502c-25.0801 35.7002 -19.6699 87.5801 14.54 122.58h-30.1699l-16 32l-16 -32h-35.4004c-0.0537109 -0.000976562 -0.142578 -0.00195312 -0.197266 -0.00195312c-0.550781 0 -1.43848 0.0722656 -1.98242 0.162109
c-5.74121 0.925781 -10.4004 6.39648 -10.4004 12.2119c0 0.552734 0.0712891 1.44336 0.160156 1.98828c8.12988 46.21 54.8203 81.6396 111.29 81.6396c50.25 0 92.3105 -28.29 106.761 -67.0801c20.6396 21.2598 51.4199 35.0801 86.2998 35.0801
c56.4697 0 103.16 -35.4297 111.29 -81.6396z" />
    <glyph glyph-name="laptop-medical-primary" unicode="&#xf812;" horiz-adv-x="640" 
d="M624 32c8.83203 0 16 -7.16797 16 -16v-16c-0.104492 -35.2236 -28.7764 -63.8955 -64 -64h-512c-35.2236 0.104492 -63.8955 28.7764 -64 64v16c0 8.83203 7.16797 16 16 16h239.23c-0.230469 -14.5303 14.0791 -32 32.7695 -32h60.7998
c18.0303 0 32 12.1904 32.7402 32h242.46zM512 384v-256h-384v256h384zM416 232v48c0 4.41602 -3.58398 8 -8 8h-56v56c0 4.41602 -3.58398 8 -8 8h-48c-4.41602 0 -8 -3.58398 -8 -8v-56h-56c-4.41602 0 -8 -3.58398 -8 -8v-48c0 -4.41602 3.58398 -8 8 -8h56v-56
c0 -4.41602 3.58398 -8 8 -8h48c4.41602 0 8 3.58398 8 8v56h56c4.41602 0 8 3.58398 8 8z" />
    <glyph glyph-name="mailbox-primary" unicode="&#xf813;" horiz-adv-x="576" 
d="M144 384c79.4883 0 144 -64.5117 144 -144v-240h-256c-17.6641 0 -32 14.3359 -32 32v208c0 79.4883 64.5117 144 144 144zM224 208v32c0 8.83203 -7.16797 16 -16 16h-128c-8.83203 0 -16 -7.16797 -16 -16v-32c0 -8.83203 7.16797 -16 16 -16h128
c8.83203 0 16 7.16797 16 16zM496 256c8.83203 0 16 -7.16797 16 -16v-64c0 -8.83203 -7.16797 -16 -16 -16h-32c-8.83203 0 -16 7.16797 -16 16v48h-56c-4.41602 0 -8 3.58398 -8 8v16c0 4.41602 3.58398 8 8 8h104z" />
    <glyph glyph-name="meat-primary" unicode="&#xf814;" 
d="M444 379.48c66.6699 -66.6709 86.7197 -154.9 49.2998 -204.33c-1.49121 -2.74121 -4.47461 -6.77344 -6.66016 -9c-38.7295 -38.6904 -113.909 -102.15 -183.8 -102.15h-102.84c-39.7441 0 -72 32.2559 -72 72v2.11035l0.0996094 0.0996094v100.37
c0 69.8203 63.54 144.92 102.261 183.6c1.83398 1.83301 5.10449 4.44043 7.2998 5.82031c16.7002 13.21 37.8301 20 61.4697 20c45.9404 0 100.28 -24.0498 144.87 -68.5195zM452.73 200.09h-0.0703125c24.2998 24.2598 11.1797 91.6104 -42.7002 145.45
c-33.6396 33.5898 -76.0996 54.46 -110.82 54.46c-10.4893 0 -25.0498 -2.0498 -34.7295 -11.7598c-10.9297 -10.9199 -14.4805 -30.7803 -9.74023 -54.4805c6.13965 -30.6797 25.2598 -63.8398 52.4502 -91c33.6299 -33.5996 76.0996 -54.4697 110.82 -54.4697
c10.4893 0 25.0293 2.0498 34.79 11.7998z" />
    <glyph glyph-name="pager-primary" unicode="&#xf815;" 
d="M448 384c35.3281 0 64 -28.6719 64 -64v-256c0 -35.3281 -28.6719 -64 -64 -64h-384c-35.3281 0 -64 28.6719 -64 64v256c0 35.3281 28.6719 64 64 64h384zM160 80v48h-80c-8.83203 0 -16 -7.16797 -16 -16v-16c0 -8.83203 7.16797 -16 16 -16h80zM288 96v16
c0 8.83203 -7.16797 16 -16 16h-80v-48h80c8.83203 0 16 7.16797 16 16zM448 224v64c0 17.6641 -14.3359 32 -32 32h-320c-17.6641 0 -32 -14.3359 -32 -32v-64c0 -17.6641 14.3359 -32 32 -32h320c17.6641 0 32 14.3359 32 32z" />
    <glyph glyph-name="pepper-hot-primary" unicode="&#xf816;" 
d="M362.67 295.14l-74.6699 34.29c22.3398 14 48.3398 22.5898 76.3398 22.5898c16.4678 -0.0185547 42.0752 -5.39453 57.1602 -12c18.4502 37.2207 8.25977 62 1.40039 72.3203c-0.785156 1.14062 -1.42285 3.19043 -1.42285 4.5752
c0 1.82227 1.03613 4.35547 2.3125 5.65527l22.9004 23c0.175781 0.183594 0.480469 0.461914 0.679688 0.620117c1.21484 0.981445 3.46777 1.77832 5.0293 1.77832c2.1084 0 4.89453 -1.33008 6.2207 -2.96875c18.5596 -23.4805 35.2998 -71.9102 3.13965 -131.75
c27.7324 -25.2861 50.2402 -76.2676 50.2402 -113.798v-0.12207c0 -13.6797 -2.2998 -26.6904 -5.55957 -39.3105l-54.6807 56.8809h-89.0898v78.2393z" />
    <glyph glyph-name="pizza-primary" unicode="&#xf817;" horiz-adv-x="576" 
d="M256.25 56c-13.248 0 -24 10.752 -24 24s10.752 24 24 24s24 -10.752 24 -24s-10.752 -24 -24 -24zM208.25 312c13.248 0 24 -10.752 24 -24s-10.752 -24 -24 -24s-24 10.752 -24 24s10.752 24 24 24zM403.25 44.9199l22.0195 -22.0703
c6.46094 -6.45996 6.44043 -17.3896 -0.419922 -23.3896c-112.909 -99.2197 -292.229 -82.0898 -382.229 51.3701c-56.8301 84.29 -56.8301 198.04 0 282.34c89.9697 133.46 269.32 150.59 382.21 51.3701c6.86035 -6.03027 6.87988 -16.9297 0.419922 -23.3896
l-22 -22.0703c-81.8604 81.8896 -215 81.2197 -296 -2.11035c-77 -79.2002 -77 -210.75 0 -289.939c81 -83.3301 214.13 -84.0303 296 -2.11035zM523.25 347.87c29.127 -38.0918 52.7559 -107.925 52.7559 -155.877c0 -47.9463 -23.6348 -117.773 -52.7559 -155.863
c-5.79004 -7.55957 -17.2197 -7.91992 -23.9502 -1.18945l-21.4199 21.4395c66.7002 77.8398 66.7002 193.4 0 271.24l21.4199 21.4395c6.73047 6.73047 18.1602 6.36035 23.9502 -1.18945zM160.25 216c13.248 0 24 -10.752 24 -24s-10.752 -24 -24 -24s-24 10.752 -24 24
s10.752 24 24 24zM424.1 208c13.248 0 24 -10.752 24 -24s-10.752 -24 -24 -24s-24 10.752 -24 24s10.752 24 24 24z" />
    <glyph glyph-name="pizza-slice-primary" unicode="&#xf818;" 
d="M128 96c17.6641 0 32 -14.3359 32 -32s-14.3359 -32 -32 -32s-32 14.3359 -32 32s14.3359 32 32 32zM176 248c17.6641 0 32 -14.3359 32 -32s-14.3359 -32 -32 -32s-32 14.3359 -32 32s14.3359 32 32 32zM511.76 102.14
c1.87012 -16.2197 -7.89941 -31.54 -23.6201 -35.8994l-56.9395 -15.7803c-7.94043 186.39 -134.86 311.54 -322.48 317l14.8105 56.2705c4.12988 15.6992 19.1699 25.6396 35.3301 24.1191c181.909 -17.1699 332.02 -164.93 352.899 -345.71zM280 144
c17.6641 0 32 -14.3359 32 -32s-14.3359 -32 -32 -32s-32 14.3359 -32 32s14.3359 32 32 32z" />
    <glyph glyph-name="popcorn-primary" unicode="&#xf819;" horiz-adv-x="384" 
d="M0 256h81.5596l28 -256h45.0508l-21.5605 256h117.95l-21.6104 -256h45l28 256h81.6104l-43.9102 -292.73c-2.25 -15.0527 -16.4277 -27.2695 -31.6484 -27.2695h-0.000976562h-232.881h-0.00390625c-15.2109 0 -29.3877 12.208 -31.6455 27.25z" />
    <glyph glyph-name="print-search-primary" unicode="&#xf81a;" horiz-adv-x="640" 
d="M635.31 -14.0596c2.58789 -2.58691 4.68848 -7.65625 4.68848 -11.3154s-2.10059 -8.72852 -4.68848 -11.3154l-22.6191 -22.6191c-2.58691 -2.58789 -7.65625 -4.68848 -11.3154 -4.68848s-8.72852 2.10059 -11.3154 4.68848l-77.4092 77.4199
c-19.04 -11.2305 -40.9502 -18.1104 -64.6504 -18.1104c-70.6562 0 -128 57.3438 -128 128s57.3438 128 128 128s128 -57.3438 128 -128c-0.0908203 -19.2168 -8.19922 -48.1797 -18.0996 -64.6504zM448 64c35.3281 0 64 28.6719 64 64s-28.6719 64 -64 64
s-64 -28.6719 -64 -64s28.6719 -64 64 -64z" />
    <glyph glyph-name="rings-wedding-primary" unicode="&#xf81b;" 
d="M199 1.5c-6.31641 -0.832031 -16.6143 -1.50781 -22.9863 -1.50781c-97.1514 0 -176 78.8486 -176 176c0 97.1523 78.8486 176 176 176c97.1523 0 176 -78.8477 176 -176c0 -43.6016 -26.4375 -102.511 -59.0137 -131.492
c-4.06836 2.60645 -10.1436 7.49414 -13.5596 10.9102c-10.0195 9.97168 -20.0186 29.3828 -22.3203 43.3301c17.0527 17.9072 30.8926 52.5098 30.8926 77.2373c0 61.8242 -50.1758 112 -112 112c-61.8232 0 -112 -50.1758 -112 -112
c0 -56.793 45.9277 -106.789 102.518 -111.598c5.38672 -19.2002 19.9336 -47.3711 32.4697 -62.8799z" />
    <glyph glyph-name="sack-primary" unicode="&#xf81c;" 
d="M363 445.31c3.91895 -2.62305 7.09961 -8.5791 7.09961 -13.2959c0 -2.68066 -1.20898 -6.66504 -2.69922 -8.89355l-47.4004 -71.1201h-128l-47.3701 71.1201c-1.48535 2.22559 -2.69043 6.2041 -2.69043 8.87988c0 8.83203 7.16797 16 16 16h0.000976562h196.149
h0.0302734c2.67578 0 6.6543 -1.20508 8.87988 -2.69043z" />
    <glyph glyph-name="sack-dollar-primary" unicode="&#xf81d;" 
d="M285.64 137.28c20.2402 -6 34.3604 -25.2002 34.3906 -46.7402c-0.140625 -26.4004 -20.9199 -47.9404 -46.6006 -48.54v-17.3398c-0.0322266 -4.75879 -3.9209 -8.62012 -8.67969 -8.62012h-0.0195312h-17.4102h-0.0205078
c-4.75879 0 -8.65137 3.86133 -8.68945 8.62012v17.5098c-10.4355 0.532227 -25.7393 5.98438 -34.1602 12.1699c-1.84863 1.41895 -3.34766 4.46094 -3.34766 6.79004c0 1.60352 0.791992 3.9375 1.76758 5.20996c0.229492 0.295898 0.636719 0.744141 0.910156 1
l12.8398 12.0605c1.40723 1.27051 4.08789 2.30176 5.98438 2.30176c1.51465 0 3.76172 -0.691406 5.01562 -1.54199c3.5332 -2.1875 9.77441 -3.97949 13.9297 -4h30.5801c7.07031 0 12.8398 6.34961 12.8398 14.2197c0 6.45996 -3.91992 12.0605 -9.58008 13.6699
l-49 14.54c-20.2393 6 -34.3896 25.2002 -34.3896 46.7402c0 26.3799 20.6797 47.8203 46.46 48.5703v17.4795c0.0380859 4.75879 3.93164 8.62012 8.68945 8.62012h0.0507812h17.4102h0.0195312c4.75879 0 8.64746 -3.86133 8.67969 -8.62012v-17.5498
c10.4385 -0.53125 25.7471 -5.9834 34.1709 -12.1699c1.84668 -1.41699 3.34473 -4.45605 3.34473 -6.78418c0 -1.60645 -0.794922 -3.94336 -1.77539 -5.21582c-0.232422 -0.295898 -0.644531 -0.744141 -0.919922 -1l-12.7295 -12.2002
c-1.40527 -1.27051 -4.08301 -2.30176 -5.97656 -2.30176c-1.51855 0 -3.76953 0.695312 -5.02344 1.55176c-3.53516 2.18359 -9.77539 3.97559 -13.9307 4h-30.5596c-7.07031 0 -12.8398 -6.34961 -12.8398 -14.21c0 -6.45996 3.91992 -12.0596 9.56934 -13.6797z
M363 445.31c3.91895 -2.62305 7.09961 -8.5791 7.09961 -13.2959c0 -2.68066 -1.20898 -6.66504 -2.69922 -8.89355l-47.4004 -71.1201h-128l-47.3701 71.1201c-1.48535 2.22559 -2.69043 6.2041 -2.69043 8.87988c0 8.83203 7.16797 16 16 16h0.000976562h196.149
h0.0302734c2.67578 0 6.6543 -1.20508 8.87988 -2.69043z" />
    <glyph glyph-name="salad-primary" unicode="&#xf81e;" 
d="M384 -20.5195v-11.4805c0 -17.6641 -14.3359 -32 -32 -32h-192c-17.6641 0 -32 14.3359 -32 32v11.2803c-69.7305 24.46 -121.31 87.4795 -127.94 163.85c-0.799805 9.12012 6.94043 16.8701 16.1104 16.8701h479c9.15039 0 16.8896 -7.71973 16.0996 -16.8398
c-6.60938 -76.1602 -57.8691 -139.061 -127.27 -163.68z" />
    <glyph glyph-name="sandwich-primary" unicode="&#xf81f;" 
d="M480 96c17.6641 0 32 -14.3359 32 -32v-64c0 -17.6641 -14.3359 -32 -32 -32h-448c-17.6641 0 -32 14.3359 -32 32v64c0 17.6641 14.3359 32 32 32h192l96 -48l96 48h64zM480 416c17.6641 0 32 -14.3359 32 -32v-96c0 -17.6641 -14.3359 -32 -32 -32h-448
c-17.6641 0 -32 14.3359 -32 32v96c0 17.6641 14.3359 32 32 32h448z" />
    <glyph glyph-name="sausage-primary" unicode="&#xf820;" 
d="M24.1797 79l45.2607 -15.04c-3.00586 -8.55957 -5.44531 -22.8682 -5.44531 -31.9404c0 -9.07129 2.43945 -23.3799 5.44531 -31.9395l-45.2607 -15.0801c-1.55859 -0.518555 -4.15723 -0.939453 -5.7998 -0.939453c-10.1123 0 -18.3467 8.20703 -18.3799 18.3193
v59.2402c0.0136719 1.64355 0.460938 4.2373 1 5.79004c2.31836 6.91113 10.1162 12.5215 17.4072 12.5215c1.63477 0 4.2207 -0.417969 5.77246 -0.931641zM451.41 447c6.88965 -2.32812 12.4824 -10.1211 12.4824 -17.3936
c0 -1.63574 -0.417969 -4.22363 -0.932617 -5.77637l-15 -45.2705c-8.55957 3.00586 -22.8682 5.44531 -31.9404 5.44531c-9.07129 0 -23.3799 -2.43945 -31.9395 -5.44531l-15.0801 45.2607c-0.516602 1.55566 -0.942383 4.15039 -0.950195 5.79004v0.0292969
c0 10.1182 8.21191 18.3438 18.3301 18.3604h59.2402c1.64355 -0.0136719 4.2373 -0.460938 5.79004 -1zM384 304c8.83203 0 16 -7.16797 16 -16c0 -132.34 -107.66 -240 -240 -240c-8.83203 0 -16 7.16797 -16 16s7.16797 16 16 16c114.69 0 208 93.3096 208 208
c0 8.83203 7.16797 16 16 16z" />
    <glyph glyph-name="shish-kebab-primary" unicode="&#xf821;" 
d="M126.55 192.41l129.851 -129.83c4.94629 -4.94824 8.96094 -14.6436 8.96094 -21.6396c0 -6.99707 -4.01465 -16.6924 -8.96094 -21.6406l-42.3008 -42.2998c-4.94824 -4.94629 -14.6426 -8.96094 -21.6396 -8.96094s-16.6914 4.01465 -21.6396 8.96094l-129.82 129.84
c-4.94824 4.94629 -8.96387 14.6387 -8.96387 21.6348c0 6.99707 4.01562 16.6895 8.96387 21.6357l42.2695 42.2998c4.94922 4.94629 14.6436 8.96094 21.6406 8.96094s16.6914 -4.01465 21.6396 -8.96094zM364.6 170.76
c4.94141 -4.94727 8.95117 -14.6377 8.95117 -21.6299c0 -7.00098 -4.01855 -16.7002 -8.9707 -21.6494l-42.2998 -42.3008c-4.94922 -4.94629 -14.6436 -8.96094 -21.6406 -8.96094c-6.99609 0 -16.6914 4.01465 -21.6396 8.96094l-129.82 129.86
c-4.94336 4.94922 -8.95605 14.6445 -8.95605 21.6396c0 6.99609 4.0127 16.6904 8.95605 21.6406l42.3008 42.2998c4.94922 4.94727 14.6465 8.96191 21.6445 8.96191s16.6953 -4.01465 21.6445 -8.96191z" />
    <glyph glyph-name="sickle-primary" unicode="&#xf822;" 
d="M511.82 292.61c1.64941 -8.41016 -9.06055 -13.3799 -14.1406 -6.48047c-10.5781 14.2705 -31.7822 32.8271 -47.3301 41.4199c-44.4697 24.9004 -101 23.2402 -144 -4c-70.7598 -44.7295 -85.4092 -131.8 -46.8799 -196l-35.4697 -35.4199l-31.71 30.0898
c-45.7002 45.6904 -70.1504 111.2 -56.4102 174.34c17.8701 82.1309 88.1201 151.44 184.12 151.44c128 0 181.17 -100.72 191.82 -155.39z" />
    <glyph glyph-name="soup-primary" unicode="&#xf823;" 
d="M32 256h448c17.6641 0 32 -14.3359 32 -32c0 -94.7002 -51.5596 -177.16 -128 -221.45v-34.5498c0 -17.6641 -14.3359 -32 -32 -32h-192c-17.6641 0 -32 14.3359 -32 32v34.5498c-76.4404 44.29 -128 126.75 -128 221.45c0 17.6641 14.3359 32 32 32z" />
    <glyph glyph-name="steak-primary" unicode="&#xf824;" horiz-adv-x="576" 
d="M442.77 308c44.3701 -50.54 49.7803 -133 11.5703 -176.54c-157.34 -179.27 -460.06 -70.1699 -321.26 -9.82031c146.41 63.79 166.92 148.641 173.16 170c10.7295 36.6602 35.3096 60.3604 62.6201 60.3604c22.7598 0 49.0098 -15.5801 73.9092 -44zM384 192.1
c17.6641 0 32 14.3359 32 32s-14.3359 32 -32 32s-32 -14.3359 -32 -32s14.3359 -32 32 -32z" />
    <glyph glyph-name="stretcher-primary" unicode="&#xf825;" horiz-adv-x="640" 
d="M640 288v-32c0 -17.6641 -14.3359 -32 -32 -32h-430.38h-0.00683594c-15.8643 0 -37.293 9.62305 -47.833 21.4805l-121.7 128c-4.45898 5.01855 -8.07812 14.54 -8.07812 21.2539c0 7.93164 4.81055 18.6455 10.7383 23.916l23.9199 21.2695
c5.01953 4.46191 14.5439 8.08301 21.2598 8.08301c7.93359 0 18.6504 -4.8125 23.9199 -10.7432l112.16 -117.26h416c17.6641 0 32 -14.3359 32 -32z" />
    <glyph glyph-name="taco-primary" unicode="&#xf826;" 
d="M112 64c8.83203 0 16 -7.16797 16 -16s-7.16797 -16 -16 -16s-16 7.16797 -16 16s7.16797 16 16 16zM176 128c8.83203 0 16 -7.16797 16 -16s-7.16797 -16 -16 -16s-16 7.16797 -16 16s7.16797 16 16 16zM508.91 223.71c6.83984 -18.0596 0.979492 -37.71 -4.16016 -55
c-0.0341797 -0.0673828 -0.0703125 -0.18457 -0.0800781 -0.259766c-2.11816 -7.61328 -4.14746 -20.1973 -4.53027 -28.0898c-52.1396 89.1201 -143.05 147.64 -244.14 147.64s-192 -58.5098 -244.12 -147.62c-0.389648 7.90527 -2.41992 20.5117 -4.53027 28.1396
c-0.0205078 0.0302734 -0.0371094 0.0839844 -0.0371094 0.120117c0 0.0371094 0.0166016 0.0908203 0.0371094 0.120117c-5.15918 17.2998 -10.9697 36.9199 -4.15918 55c7.14941 19.0703 24.8096 29.3604 40.2695 38.46c9.49023 5.53027 19.3203 11.29 23.71 17.5303
c4.74023 6.71973 7.33008 18.54 9.83008 30c4 18.0801 8.48047 38.5801 23.6797 50.6396c15.6807 12.4502 36 11.0508 54 9.81055c10.79 -0.759766 21.96 -1.5 29.1807 1.09961c6.88965 2.50977 15.0801 10.1406 23 17.5098
c47.7197 44.46 69.3301 27.0205 98.3799 -0.0498047c7.87988 -7.37012 16.0693 -15 23 -17.5098c7.17969 -2.59961 18.3896 -1.86035 29.1797 -1.09961c18 1.18945 38.3105 2.63965 54 -9.81055c15.2002 -12.0596 19.6904 -32.5596 23.6396 -50.6396
c2.5 -11.4902 5.09082 -23.3105 9.83008 -30c4.39062 -6.24023 14.2207 -11.9902 23.71 -17.5303c15.5508 -9.09961 33.1602 -19.4004 40.3105 -38.46z" />
    <glyph glyph-name="tanakh-primary" unicode="&#xf827;" horiz-adv-x="448" 
d="M224 360.62l16.7998 -28.0605h-33.5801zM164.89 308.56l-17.4199 -29.1699l-17.4697 29.1699h34.8896zM318 308.56l-17.4199 -29.1895l-17.4805 29.1895h34.9004zM130 203.44l17.4199 29.1895l17.4805 -29.1895h-34.9004zM352 448c52.9922 0 96 -43.0078 96 -96v-320
c0 -52.9922 -43.0078 -96 -96 -96h-328c-13.248 0 -24 10.752 -24 24v16c0 13.248 10.752 24 24 24h328c19.2002 0 32 12.7998 32 32s-16 32 -32 32h-328c-13.248 0 -24 10.752 -24 24v328c0 17.6641 14.3359 32 32 32h320zM342.59 189.57
c1.45215 2.51172 2.63086 6.9043 2.63086 9.80566c0 3.03516 -1.28125 7.60254 -2.86035 10.1943l-27.79 46.4297l27.6797 46.2695c1.57324 2.62305 2.85059 7.23242 2.85059 10.29c0 11.0352 -8.95605 19.9951 -19.9902 20h-56.3604l-27.7002 46.2803
c-3.15039 5.34375 -10.7412 9.68066 -16.9443 9.68066c-0.015625 0 -0.0400391 0 -0.0556641 -0.000976562c-0.00976562 0 -0.0244141 0.000976562 -0.0341797 0.000976562c-6.29785 0 -14.0098 -4.39941 -17.2158 -9.82031l-27.5898 -46.1201h-56.2998h-0.0244141
c-6.4502 0 -14.2793 -4.54688 -17.4756 -10.1504c-1.45117 -2.51172 -2.62988 -6.9043 -2.62988 -9.80566c0 -3.03516 1.28125 -7.60156 2.85938 -10.1943l27.79 -46.4297l-27.6602 -46.2695c-1.57324 -2.62305 -2.84961 -7.23242 -2.84961 -10.29
c0 -11.0352 8.95508 -19.9951 19.9902 -20h56.3896l27.7002 -46.2803c3.14844 -5.34375 10.7363 -9.68066 16.9385 -9.68066c0.0175781 0 0.0449219 0 0.0615234 0.000976562c6.29199 0.00390625 13.9971 4.40332 17.2002 9.81934l27.5898 46.1201h56.2998h0.0244141
c6.4502 0 14.2793 4.54688 17.4756 10.1504zM224.05 151.37l-16.7998 28.0703h33.5801zM283.14 203.44l17.4404 29.1699l17.4697 -29.1699h-34.9102zM255.14 308.58l31.4502 -52.5801l-31.4102 -52.5596h-62.2998l-31.4697 52.5596l31.4297 52.5801h62.2998z" />
    <glyph glyph-name="tasks-alt-primary" unicode="&#xf828;" 
d="M0 72.1201c0.0332031 13.1816 10.7578 23.8799 23.9395 23.8799h0.0605469h264v-128h-264.12c-13.1816 0.0332031 -23.8799 10.7578 -23.8799 23.9395v0.0605469v80.1201zM24 416h328v-128h-328.12c-13.1816 0.0332031 -23.8799 10.7578 -23.8799 23.9395v0.0605469
v80.1201c0.0332031 13.1816 10.7578 23.8799 23.9395 23.8799h0.0605469zM23.8799 128c-13.1816 0.0332031 -23.8799 10.7578 -23.8799 23.9395v0.0605469v80.1201c0.0332031 13.1816 10.7578 23.8799 23.9395 23.8799h0.0605469h136v-128h-136.12z" />
    <glyph glyph-name="trash-restore-primary" unicode="&#xf829;" horiz-adv-x="448" 
d="M432 416c8.83203 0 16 -7.16797 16 -16v-32c0 -8.83203 -7.16797 -16 -16 -16h-416c-8.83203 0 -16 7.16797 -16 16v32c0 8.83203 7.16797 16 16 16h120l9.40039 18.7002c3.58984 7.3418 13.1357 13.2998 21.3086 13.2998h0.0908203h114.3h0.0175781
c8.20215 0 17.8262 -5.95801 21.4824 -13.2998l9.40039 -18.7002h120zM235.31 251.06l89.3809 -94.2598c10.0791 -10.6201 2.93945 -28.7998 -11.3203 -28.7998h-57.3701v-112c0 -8.83203 -7.16797 -16 -16 -16h-32c-8.83203 0 -16 7.16797 -16 16v112h-57.3701
c-14.2598 0 -21.3994 18.1797 -11.3203 28.7998l89.3809 94.2598c2.52441 2.72949 7.5918 4.94336 11.3096 4.94336c3.33301 0 8.02441 -1.83789 10.4697 -4.10254c0.287109 -0.266602 0.567383 -0.546875 0.839844 -0.84082z" />
    <glyph glyph-name="trash-restore-alt-primary" unicode="&#xf82a;" horiz-adv-x="448" 
d="M432 416c8.83203 0 16 -7.16797 16 -16v-32c0 -8.83203 -7.16797 -16 -16 -16h-416c-8.83203 0 -16 7.16797 -16 16v32c0 8.83203 7.16797 16 16 16h120l9.40039 18.7002c3.58984 7.3418 13.1357 13.2998 21.3086 13.2998h0.0908203h114.3h0.0175781
c8.20215 0 17.8262 -5.95801 21.4824 -13.2998l9.40039 -18.7002h120zM235.31 251.06l89.3809 -94.2598c10.0791 -10.6201 2.93945 -28.7998 -11.3203 -28.7998h-57.3701v-112c0 -8.83203 -7.16797 -16 -16 -16h-32c-8.83203 0 -16 7.16797 -16 16v112h-57.3701
c-14.2598 0 -21.3994 18.1797 -11.3203 28.7998l89.3809 94.2598c2.52441 2.72949 7.5918 4.94336 11.3096 4.94336c3.33301 0 8.02441 -1.83789 10.4697 -4.10254c0.287109 -0.266602 0.567383 -0.546875 0.839844 -0.84082z" />
    <glyph glyph-name="tree-palm-primary" unicode="&#xf82b;" horiz-adv-x="576" 
d="M575.76 275.14c1.87012 -9.92969 -6.49023 -19.1396 -17.7598 -19.1396h-54l-24 48l-24 -48h-192l-154.54 -154.38c-7.9502 -7.94043 -20.3701 -7.33984 -26.0703 1c-35.3896 51.7803 -21.5693 132.38 35.4307 189.38c3.37988 3.38965 7.17969 6 10.6396 9.08008
l-33.46 66.9199l-24 -48h-54c-11.2305 0 -19.5898 9.20996 -17.7402 19.1396c11.6299 61.6201 78.3799 108.86 159 108.86c74.1299 0 135.9 -40.1699 154.521 -94.5c27.9395 18.7598 63.5693 30.5 103 30.5c80.6201 0 147.37 -47.2402 158.979 -108.86z" />
    <glyph glyph-name="user-hard-hat-primary" unicode="&#xf82c;" horiz-adv-x="448" 
d="M313.6 96c74.1895 0 134.4 -60.2109 134.4 -134.4c0 -14.1309 -11.4688 -25.5996 -25.5996 -25.5996v0h-396.801c-14.1309 0 -25.5996 11.4688 -25.5996 25.5996c0 74.1895 60.2109 134.4 134.4 134.4v0h16.6992c19.1523 -8.83105 51.8115 -15.9971 72.9004 -15.9971
s53.748 7.16602 72.9004 15.9971h16.6992zM88 272c-4.41602 0 -8 3.58398 -8 8v32c0 4.41602 3.58398 8 8 8h8v0.0351562c0 40.9902 30.6436 87.208 68.4004 103.165l27.5996 -55.2002v64c0 8.83203 7.16797 16 16 16h32c8.83203 0 16 -7.16797 16 -16v-64l27.5996 55.2002
c37.7568 -15.957 68.4004 -62.1748 68.4004 -103.165v-0.0351562h8c4.41602 0 8 -3.58398 8 -8v-32c0 -4.41602 -3.58398 -8 -8 -8h-272z" />
    <glyph glyph-name="user-headset-primary" unicode="&#xf82d;" horiz-adv-x="448" 
d="M320 96c70.6562 0 128 -57.3438 128 -128c0 -17.6641 -14.3359 -32 -32 -32h-384c-17.6641 0 -32 14.3359 -32 32c0 70.6562 57.3438 128 128 128h23.0996c19.1523 -8.83105 51.8115 -15.9971 72.9004 -15.9971s53.748 7.16602 72.9004 15.9971h23.0996zM144.35 156.53
c-29.25 23.4697 -48.3496 59.0498 -48.3496 99.4697c0 70.6562 57.3438 128 128 128s128 -57.3438 128 -128v-16c-0.0273438 -26.4688 -21.5312 -47.9727 -48 -48h-8.58984c-10.1953 17.6592 -35.0195 31.9951 -55.4102 32h-32
c-35.2891 -0.0380859 -63.9619 -28.7109 -64 -64c0 -1.19043 0.290039 -2.2998 0.349609 -3.46973z" />
    <glyph glyph-name="user-md-chat-primary" unicode="&#xf82e;" horiz-adv-x="640" 
d="M319.8 159.85c70.7432 -3.28711 128.177 -63.4307 128.2 -134.25v-41.5996c0 -26.4961 -21.5039 -48 -48 -48h-352c-26.4961 0 -48 21.5039 -48 48v41.5996c0.0234375 62.6826 50.1992 122.056 112 132.53v-80.7295c-22.0801 -6.58301 -40 -30.626 -40 -53.666
c0 -30.9121 25.0879 -56 56 -56s56 25.0879 56 56c0 23.04 -17.9199 47.083 -40 53.666v82.5996h7.09961c19.1455 -8.83008 51.7939 -15.9971 72.877 -15.9971c18.3125 0 46.9951 5.46875 64.0234 12.207v-70.4102c-28.2002 -7.5 -48 -34.5 -48 -64.5996v-29.2002
c0.0117188 -3.65332 2.11719 -8.71582 4.7002 -11.2998l10.2998 -10.2998c1.29297 -1.29004 3.82422 -2.33691 5.65039 -2.33691c1.8252 0 4.35645 1.04688 5.64941 2.33691l11.2998 11.2998c1.29004 1.29297 2.33691 3.82422 2.33691 5.64941
c0 1.82617 -1.04688 4.35742 -2.33691 5.65039l-5.69922 5.7002v25.2998c0.0585938 17.6826 14.457 32.0332 32.1396 32.0332c1.46191 0 3.81836 -0.194336 5.25977 -0.433594c15.7002 -2.59961 26.6006 -17.3994 26.6006 -33.2998v-23.5996l-5.7002 -5.7002
c-1.29004 -1.29297 -2.33691 -3.82422 -2.33691 -5.65039c0 -1.8252 1.04688 -4.35645 2.33691 -5.64941l11.2998 -11.2998c1.29297 -1.29004 3.82422 -2.33691 5.65039 -2.33691c1.8252 0 4.35645 1.04688 5.64941 2.33691l10.2998 10.2998
c2.58301 2.58398 4.68848 7.64648 4.7002 11.2998v32c-0.0908203 27.2539 -21.5947 54.8506 -48 61.5996v74.25zM104 24v0.0605469c0 13.2148 10.7246 23.9395 23.9395 23.9395h0.0605469c13.248 0 24 -10.752 24 -24s-10.752 -24 -24 -24s-24 10.752 -24 24z" />
    <glyph glyph-name="user-nurse-primary" unicode="&#xf82f;" horiz-adv-x="448" 
d="M319.41 128c71.4902 -3.09961 128.59 -61.5996 128.59 -133.79c0 -32.1318 -26.0781 -58.21 -58.21 -58.21v0h-331.58c-32.1318 0 -58.21 26.0781 -58.21 58.21c0 72.1904 57.0996 130.69 128.59 133.79l95.4102 -95.3896zM352 350.8
c-0.000976562 -0.294922 -0.00195312 -0.774414 -0.00195312 -1.06934c0 -10.4658 1.19727 -27.3691 2.67188 -37.7305h-261.33c1.46973 10.3691 2.66211 27.2852 2.66211 37.7588c0 0.287109 -0.000976562 0.753906 -0.00195312 1.04102v49.2002l128 48l128 -48v-49.2002z
M264 359.67v16.6602c0 2.75977 -2.24023 5 -5 5h-21.6699v21.6699c0 2.75977 -2.24023 5 -5 5h-16.6602c-2.75977 0 -5 -2.24023 -5 -5v-21.6699h-21.6699c-2.75977 0 -5 -2.24023 -5 -5v-16.6602c0 -2.75977 2.24023 -5 5 -5h21.6699v-21.6699c0 -2.75977 2.24023 -5 5 -5
h16.6602c2.75977 0 5 2.24023 5 5v21.6699h21.6699c2.75977 0 5 2.24023 5 5z" />
    <glyph glyph-name="users-medical-primary" unicode="&#xf830;" horiz-adv-x="640" 
d="M352 96c0 -52.5303 25.7803 -98.8096 65 -128h-241c-26.4961 0 -48 21.5039 -48 48v28.7998c0.0166016 63.5742 51.626 115.184 115.2 115.2h8.2998c20.9004 -10 43.9004 -16 68.5 -16c11.8564 0.0673828 30.7129 2.83203 42.0898 6.16992
c-6.16992 -17 -10.0898 -35.0703 -10.0898 -54.1699zM96 224c-35.3281 0 -64 28.6719 -64 64s28.6719 64 64 64s64 -28.6719 64 -64s-28.6719 -64 -64 -64zM173.1 173.4c-36.082 -19.6592 -69.7725 -68.6699 -75.1992 -109.4h-65.9004c-17.6641 0 -32 14.3359 -32 32v32
c0.0332031 35.2949 28.7051 63.9668 64 64h64h0.0693359c14.5488 0 34.7227 -8.33301 45.0303 -18.5996zM319.88 192c-61.7578 0.0332031 -111.88 50.1826 -111.88 111.94c0 61.79 50.1494 111.939 111.94 111.939c61.79 0 111.939 -50.1494 111.939 -111.939
c0 -61.7578 -50.1221 -111.907 -111.88 -111.94h-0.120117z" />
    <glyph glyph-name="walker-primary" unicode="&#xf831;" horiz-adv-x="448" 
d="M352 90.5303v133.47h-224.19l-64.5293 -274.76c-1.28125 -7.30664 -8.3418 -13.2363 -15.7598 -13.2363c-0.761719 0 -1.99023 0.105469 -2.74023 0.236328l-31.54 5.47949c-7.30762 1.28125 -13.2383 8.34082 -13.2383 15.7598
c0 0.764648 0.106445 1.99707 0.238281 2.75098l95.7598 407.77c7.31152 44.1602 49.5742 80.001 94.3359 80.001c0.0888672 0 0.234375 -0.000976562 0.324219 -0.000976562h129.34c52.9922 0 96 -43.0078 96 -96v-261.47c-8.57422 3.01953 -22.9102 5.46973 -32 5.46973
s-23.4258 -2.4502 -32 -5.46973zM142.83 288h209.17v64c0 17.6641 -14.3359 32 -32 32h-129.34h-0.0800781c-14.9629 0 -29.0703 -11.9844 -31.4902 -26.75z" />
    <glyph glyph-name="webcam-primary" unicode="&#xf832;" horiz-adv-x="448" 
d="M401 9.40039c8.28027 -5.19238 15 -17.3379 15 -27.1113v-0.0292969v-14.2598c0 -17.6641 -14.3359 -32 -32 -32h-320c-17.6641 0 -32 14.3359 -32 32v14.2598v0.0292969c0 9.77344 6.71973 21.9189 15 27.1113l49.2305 30.75
c-58.1104 40.46 -96.2305 107.659 -96.2305 183.85c0 123.71 100.29 224 224 224s224 -100.29 224 -224c0 -76.1904 -38.1201 -143.39 -96.1904 -183.85zM224 64c88.3203 0 160 71.6797 160 160s-71.6797 160 -160 160s-160 -71.6797 -160 -160s71.6797 -160 160 -160z" />
    <glyph glyph-name="webcam-slash-primary" unicode="&#xf833;" horiz-adv-x="640" 
d="M636.64 -32.5498l-19.6396 -25.2705c-2.65234 -3.40625 -8.30859 -6.1709 -12.625 -6.1709c-3.03125 0 -7.43262 1.50977 -9.8252 3.37109l-588.37 454.72c-3.41016 2.65234 -6.17773 8.31055 -6.17773 12.6309c0 3.0293 1.50879 7.42773 3.36816 9.81934
l19.6299 25.2705c2.65234 3.40625 8.30859 6.1709 12.625 6.1709c3.03125 0 7.43262 -1.50977 9.8252 -3.37109l588.37 -454.72c3.41309 -2.65234 6.18359 -8.3125 6.18359 -12.6357c0 -3.02734 -1.50684 -7.42383 -3.36426 -9.81445z" />
    <glyph glyph-name="th-secondary" unicode="&#x10f00a;" 
d="M306.67 96c13.248 0 24 -10.752 24 -24v-80c0 -13.248 -10.752 -24 -24 -24h-101.34c-13.248 0 -24 10.752 -24 24v80c0 13.248 10.752 24 24 24h101.34zM488 256c13.248 0 24 -10.752 24 -24v-80c0 -13.248 -10.752 -24 -24 -24h-101.33c-13.248 0 -24 10.752 -24 24v80
c0 13.248 10.752 24 24 24h101.33zM306.67 416c13.248 0 24 -10.752 24 -24v-80c0 -13.248 -10.752 -24 -24 -24h-101.34c-13.248 0 -24 10.752 -24 24v80c0 13.248 10.752 24 24 24h101.34zM125.33 256c13.248 0 24 -10.752 24 -24v-80c0 -13.248 -10.752 -24 -24 -24
h-101.33c-13.248 0 -24 10.752 -24 24v80c0 13.248 10.752 24 24 24h101.33z" />
    <glyph glyph-name="home-secondary" unicode="&#x10f015;" horiz-adv-x="576" 
d="M336 -15.5898v95.5898c0 8.83203 -7.16797 16 -16 16h-64c-8.83203 0 -16 -7.16797 -16 -16v-95.71v0c0 -8.78809 -7.13184 -15.9561 -15.9199 -16l-112.08 -0.290039c-8.83203 0 -16 7.16797 -16 16v163.94l184.39 151.85
c1.84863 1.49023 5.27637 2.69922 7.65039 2.69922s5.80176 -1.20898 7.65039 -2.69922l184.31 -151.79v-164c0 -8.83203 -7.16797 -16 -16 -16l-112 0.30957v0c-8.83203 0 -16 7.16797 -16 16v0.100586z" />
    <glyph glyph-name="eye-secondary" unicode="&#x10f06e;" horiz-adv-x="576" 
d="M572.52 206.6c1.9209 -3.79883 3.47949 -10.3379 3.47949 -14.5947s-1.55859 -10.7959 -3.47949 -14.5947c-54.1992 -105.771 -161.59 -177.41 -284.52 -177.41s-230.29 71.5898 -284.52 177.4c-1.9209 3.79883 -3.47949 10.3379 -3.47949 14.5947
s1.55859 10.7959 3.47949 14.5947c54.1992 105.771 161.59 177.41 284.52 177.41s230.29 -71.5898 284.52 -177.4zM288.14 48c79.4111 0.0390625 143.86 64.5195 143.86 143.93c0 79.4492 -64.4805 143.931 -143.93 143.931s-143.931 -64.4814 -143.931 -143.931
c0 -79.4102 64.4492 -143.891 143.86 -143.93h0.139648z" />
    <glyph glyph-name="eye-slash-secondary" unicode="&#x10f070;" horiz-adv-x="640" 
d="M172.12 346.73c38.1816 20.5723 104.371 37.2695 147.743 37.2695h0.136719c122.93 0 230.29 -71.5898 284.52 -177.4c1.9209 -3.79883 3.47949 -10.3379 3.47949 -14.5947s-1.55859 -10.7959 -3.47949 -14.5947c-16.7119 -32.6924 -52.999 -78.5 -81 -102.25
l-72.8096 56.2695c7.37988 15.9102 13.3701 43.0566 13.3701 60.5957c0 79.4873 -64.5117 144 -144 144c-28.5293 0 -69.5527 -14.7236 -91.5703 -32.8652zM411.12 162l-108.25 83.6396c0.611328 2.78809 1.10645 7.36621 1.10645 10.2207
c0 8.66406 -4.17383 21.3564 -9.31641 28.3301c7.18945 2.0957 19.1035 3.79785 26.5928 3.79785c52.4395 0 95 -42.5605 95 -95c0 -7.28027 -1.61035 -18.874 -3.59277 -25.8779c-0.469727 -1.73047 -0.990234 -3.43066 -1.54004 -5.11035zM320 48
c7.24219 0.0644531 18.8896 1.23438 26 2.61035l51.8896 -40.1504c-25.0195 -6.45996 -50.9795 -10.46 -77.8896 -10.46c-122.93 0 -230.29 71.5898 -284.52 177.4c-1.9209 3.79883 -3.47949 10.3379 -3.47949 14.5947s1.55859 10.7959 3.47949 14.5947
c10.2393 20 22.9297 38.29 36.7197 55.5898l104.899 -81.0693c5.65039 -74.4004 67.0508 -133.11 142.9 -133.11z" />
    <glyph glyph-name="calendar-alt-secondary" unicode="&#x10f073;" horiz-adv-x="448" 
d="M0 256h448v-272c0 -26.4961 -21.5039 -48 -48 -48h-352c-26.4961 0 -48 21.5039 -48 48v272zM128 12v40c0 6.62402 -5.37598 12 -12 12h-40c-6.62402 0 -12 -5.37598 -12 -12v-40c0 -6.62402 5.37598 -12 12 -12h40c6.62402 0 12 5.37598 12 12zM128 140v40
c0 6.62402 -5.37598 12 -12 12h-40c-6.62402 0 -12 -5.37598 -12 -12v-40c0 -6.62402 5.37598 -12 12 -12h40c6.62402 0 12 5.37598 12 12zM256 12v40c0 6.62402 -5.37598 12 -12 12h-40c-6.62402 0 -12 -5.37598 -12 -12v-40c0 -6.62402 5.37598 -12 12 -12h40
c6.62402 0 12 5.37598 12 12zM256 140v40c0 6.62402 -5.37598 12 -12 12h-40c-6.62402 0 -12 -5.37598 -12 -12v-40c0 -6.62402 5.37598 -12 12 -12h40c6.62402 0 12 5.37598 12 12zM384 12v40c0 6.62402 -5.37598 12 -12 12h-40c-6.62402 0 -12 -5.37598 -12 -12v-40
c0 -6.62402 5.37598 -12 12 -12h40c6.62402 0 12 5.37598 12 12zM384 140v40c0 6.62402 -5.37598 12 -12 12h-40c-6.62402 0 -12 -5.37598 -12 -12v-40c0 -6.62402 5.37598 -12 12 -12h40c6.62402 0 12 5.37598 12 12z" />
    <glyph glyph-name="flag-checkered-secondary" unicode="&#x10f11e;" 
d="M511.9 352v-243.1v-0.132812c0 -9.25098 -6.18262 -21.0186 -13.8008 -26.2676c-35.7998 -24.5996 -74.2998 -40.9004 -122.5 -40.9004c-67.3994 0 -111.6 34.8008 -165.199 34.8008c-50.8008 0 -86.1006 -10 -114.4 -22.1006v51.5
c19.7607 7.03223 52.7334 14.4688 73.5996 16.6006v71.2998c-26.0996 -2.40039 -47.3994 -8.10059 -73.5996 -17.4004v66.5c29 10.7002 51.2002 17.7998 73.5996 20.9004v-70c32.8008 3 53.9004 0.599609 73.6006 -3.7998v-68.5
c26.2998 -4.60059 49.7002 -13.9004 73.5996 -21.3008v67.4004c25.7002 -7.09961 46.6006 -9.2998 73.6006 -5.59961v-71.6006c25.0996 2.40039 48.5 11 73.5996 27.1006v70.5c-22.2002 -14.2002 -48.7998 -22.6006 -73.5996 -26v71.0996
c27.2998 4.40039 50 14.0996 73.5996 23.9004v70.5c-21.2998 -8.90039 -46.5996 -17.7002 -73.5996 -22.5v-71.9004c-26 -4.2002 -49.9004 -2.59961 -73.6006 2.7002v-68.1006c-24.2998 6.7002 -47.5 16.4004 -73.5996 22.3008v68.0996
c24.2002 -6.7002 47.5996 -16.4004 73.5996 -22.2002v68.2998c-26.3994 4.60059 -49.8994 13.9004 -73.5996 21.3008v-67.4004c-25.2002 7 -46.6006 9.40039 -73.6006 5.7002v71.5996c-23.5 -2.2002 -40.3994 -9.7998 -73.5996 -22v32.7002
c7.70215 5.38184 16.7334 16.8506 20.1602 25.5996c25.8398 12.4004 48.8398 12.3506 68.1396 12.3506c67.4004 0 111.7 -34.7998 165.2 -34.7998c40.5 0 82.7002 16 117 31.8994c21.2002 9.7998 45.5 -5.7002 45.4004 -29.0498z" />
    <glyph glyph-name="rocket-secondary" unicode="&#x10f135;" 
d="M383.85 136.81l-0.000976562 -106v-0.0332031c0 -16.3525 -11.8721 -35.5566 -26.5 -42.8662l-98.6992 -49.3906c-2.77832 -1.375 -7.5498 -2.49219 -10.6504 -2.49219c-13.2324 0 -23.9844 10.7402 -24 23.9727v103.84l133.12 59.4199
c9.12012 4.08008 18.0303 8.59668 26.7305 13.5498zM187.179 293.4l-59.3906 -133.4h-103.79c-13.2441 0.00390625 -23.9922 10.7559 -23.9922 24c0 3.12012 1.12988 7.91797 2.52246 10.71l49.4697 98.7998c7.31445 14.5918 26.498 26.459 42.8203 26.4902h105.77
c-4.89941 -8.66699 -9.36914 -17.5332 -13.4092 -26.5996z" />
    <glyph glyph-name="file-archive-secondary" unicode="&#x10f1c6;" horiz-adv-x="384" 
d="M224 312c0.0380859 -13.21 10.79 -23.9619 24 -24h136v-328v-0.0605469c0 -13.2148 -10.7246 -23.9395 -23.9395 -23.9395h-0.0605469h-336h-0.0605469c-13.2148 0 -23.9395 10.7246 -23.9395 23.9395v0.0605469v464v0.0605469
c0 13.2148 10.7246 23.9395 23.9395 23.9395h0.0605469h104v-32h32v32h64v-136zM95.9004 416v-32h32v32h-32zM128 32c28.9375 0.00878906 52.4238 23.502 52.4238 52.4404c0 2.83008 -0.445312 7.38184 -0.994141 10.1592l-17.2998 87.7002
c-1.0752 5.33105 -6.36133 9.67676 -11.7998 9.7002h-22.0996v32h32v32h-32v32h32v32h-32v32h32v32h-32v-32h-32v-32h32v-32h-32v-32h32v-32h-32v-32l-19.6309 -97.0996c-0.581055 -2.8584 -1.05371 -7.54395 -1.05371 -10.46c0 -28.9473 23.4932 -52.4404 52.4404 -52.4404
h0.0136719zM384 326.1v-6.09961h-128v128h6.09961h0.0595703c5.47363 0 13.0635 -3.13574 16.9404 -7l97.9004 -98c3.8623 -3.86523 6.99805 -11.4365 7 -16.9004z" />
    <glyph glyph-name="tty-secondary" unicode="&#x10f1e4;" 
d="M468 192c6.62402 0 12 -5.37598 12 -12v-40c0 -6.62402 -5.37598 -12 -12 -12h-40c-6.62402 0 -12 5.37598 -12 12v40c0 6.62402 5.37598 12 12 12h40zM84 0c6.62402 0 12 -5.37598 12 -12v-40c0 -6.62402 -5.37598 -12 -12 -12h-40c-6.62402 0 -12 5.37598 -12 12v40
c0 6.62402 5.37598 12 12 12h40zM372 0c6.62402 0 12 -5.37598 12 -12v-40c0 -6.62402 -5.37598 -12 -12 -12h-232c-6.62402 0 -12 5.37598 -12 12v40c0 6.62402 5.37598 12 12 12h232zM468 0c6.62402 0 12 -5.37598 12 -12v-40c0 -6.62402 -5.37598 -12 -12 -12h-40
c-6.62402 0 -12 5.37598 -12 12v40c0 6.62402 5.37598 12 12 12h40zM140 128c-6.62402 0 -12 5.37598 -12 12v40c0 6.62402 5.37598 12 12 12h40c6.62402 0 12 -5.37598 12 -12v-40c0 -6.62402 -5.37598 -12 -12 -12h-40zM44 128c-6.62402 0 -12 5.37598 -12 12v40
c0 6.62402 5.37598 12 12 12h40c6.62402 0 12 -5.37598 12 -12v-40c0 -6.62402 -5.37598 -12 -12 -12h-40zM368 84c0 6.62402 5.37598 12 12 12h40c6.62402 0 12 -5.37598 12 -12v-40c0 -6.62402 -5.37598 -12 -12 -12h-40c-6.62402 0 -12 5.37598 -12 12v40zM92 96h40
c6.62402 0 12 -5.37598 12 -12v-40c0 -6.62402 -5.37598 -12 -12 -12h-40c-6.62402 0 -12 5.37598 -12 12v40c0 6.62402 5.37598 12 12 12zM284 96h40c6.62402 0 12 -5.37598 12 -12v-40c0 -6.62402 -5.37598 -12 -12 -12h-40c-6.62402 0 -12 5.37598 -12 12v40
c0 6.62402 5.37598 12 12 12zM332 128c-6.62402 0 -12 5.37598 -12 12v40c0 6.62402 5.37598 12 12 12h40c6.62402 0 12 -5.37598 12 -12v-40c0 -6.62402 -5.37598 -12 -12 -12h-40zM188 96h40c6.62402 0 12 -5.37598 12 -12v-40c0 -6.62402 -5.37598 -12 -12 -12h-40
c-6.62402 0 -12 5.37598 -12 12v40c0 6.62402 5.37598 12 12 12zM236 128c-6.62402 0 -12 5.37598 -12 12v40c0 6.62402 5.37598 12 12 12h40c6.62402 0 12 -5.37598 12 -12v-40c0 -6.62402 -5.37598 -12 -12 -12h-40z" />
    <glyph glyph-name="trash-secondary" unicode="&#x10f1f8;" horiz-adv-x="448" 
d="M53.2002 -19l-21.2002 339h384l-21.2002 -339c-1.55469 -24.8369 -23.0146 -44.9971 -47.8994 -45h-245.801c-24.8848 0.00292969 -46.3447 20.1631 -47.8994 45z" />
    <glyph glyph-name="phone-volume-secondary" unicode="&#x10f2a0;" horiz-adv-x="384" 
d="M292.94 398.77c14.9414 -19.1768 27.0693 -54.4717 27.0693 -78.7822c0 -24.3008 -12.1182 -59.584 -27.0498 -78.7568c-1.99902 -2.56836 -6.2627 -4.65234 -9.5166 -4.65234c-2.66992 0 -6.40332 1.49707 -8.33301 3.3418l-5.82031 5.58008
c-2.05469 1.95801 -3.72168 5.84961 -3.72168 8.6875c0 2.22461 1.08887 5.46875 2.43164 7.24219c10.9883 14.2988 19.9062 40.5381 19.9062 58.5703s-8.91797 44.2715 -19.9062 58.5703c-1.34668 1.77539 -2.44043 5.02441 -2.44043 7.25293
c0 2.83301 1.66211 6.71973 3.70996 8.67676l5.82031 5.58008c1.93066 1.84473 5.66309 3.3418 8.33301 3.3418c3.25488 0 7.51855 -2.08398 9.51758 -4.65234zM338.94 443.71c24.8984 -29.6104 45.0752 -85.041 45.0752 -123.728
c0 -38.6729 -20.1943 -94.0869 -45.0752 -123.692c-1.98633 -2.37891 -6.11328 -4.30957 -9.21289 -4.30957c-2.67676 0 -6.41211 1.50977 -8.33789 3.36914l-5.7998 5.56055c-2.05371 1.95703 -3.7207 5.84863 -3.7207 8.68652c0 2.40234 1.25 5.84961 2.79102 7.69336
c20.5635 24.6191 37.252 70.6328 37.252 102.71s-16.6885 78.0908 -37.252 102.71c-1.54102 1.84375 -2.79102 5.29102 -2.79102 7.69336c0 2.83789 1.66699 6.72949 3.7207 8.68652l5.7998 5.56055c1.92578 1.85938 5.66113 3.36914 8.33789 3.36914
c3.09961 0 7.22656 -1.93066 9.21289 -4.30957zM228.44 355.11c1.93262 1.8623 5.64844 3.37402 8.33301 3.37402c3.79688 0 8.44629 -2.6543 10.377 -5.9248c4.89746 -8.30957 8.87207 -22.8838 8.87207 -32.5293c0 -9.64648 -3.97461 -24.2197 -8.87207 -32.5303
c-1.92969 -3.27441 -6.58105 -5.93164 -10.3818 -5.93164c-2.67285 0 -6.40918 1.50195 -8.33887 3.35156l-6 5.73047c-2.03906 1.96777 -3.69336 5.86523 -3.69336 8.69824c0 1.67578 0.642578 4.23438 1.43359 5.71094c2.05176 3.87695 3.71777 10.584 3.71777 14.9707
s-1.66602 11.0928 -3.71777 14.9697c-0.78418 1.4707 -1.41992 4.01758 -1.41992 5.68457c0 2.83203 1.65332 6.72754 3.69043 8.69531z" />
    <glyph glyph-name="trash-alt-secondary" unicode="&#x10f2ed;" horiz-adv-x="448" 
d="M32 -16v336h384v-336c0 -26.4961 -21.5039 -48 -48 -48h-288c-26.4961 0 -48 21.5039 -48 48zM304 240v-224c0 -8.83203 7.16797 -16 16 -16s16 7.16797 16 16v224c0 8.83203 -7.16797 16 -16 16s-16 -7.16797 -16 -16zM208 240v-224c0 -8.83203 7.16797 -16 16 -16
s16 7.16797 16 16v224c0 8.83203 -7.16797 16 -16 16s-16 -7.16797 -16 -16zM112 240v-224c0 -8.83203 7.16797 -16 16 -16s16 7.16797 16 16v224c0 8.83203 -7.16797 16 -16 16s-16 -7.16797 -16 -16z" />
    <glyph glyph-name="battery-slash-secondary" unicode="&#x10f377;" horiz-adv-x="640" 
d="M165.31 352h394.69c26.4961 0 48 -21.5039 48 -48v-16h8c13.248 0 24 -10.752 24 -24v-144c0 -13.248 -10.752 -24 -24 -24h-8v-16v-0.00585938c0 -18.7969 -14.3984 -39.0938 -32.1396 -45.3037l-79.3203 61.3096h47.46v64h32v64h-32v64h-295.88zM64 96h223.19
l82.8096 -64h-322c-26.4961 0 -48 21.5039 -48 48v224c0.0507812 3.52246 0.888672 9.12695 1.87012 12.5098l62.1299 -48v-172.51z" />
    <glyph glyph-name="diagnoses-secondary" unicode="&#x10f470;" horiz-adv-x="640" 
d="M320 272c-48.5049 0.0712891 -87.9287 39.4951 -88 88c0 48.5762 39.4238 88 88 88s88 -39.4238 88 -88s-39.4238 -88 -88 -88zM588 155.7c17.5996 -10.5 18.7998 -31.9004 10 -45.1006l-17.7998 -26.6992c-5.26074 -7.85059 -17.1992 -14.2207 -26.6494 -14.2207
c-4.81738 0 -12.0977 1.98047 -16.251 4.41992c-27.7422 16.2744 -74.917 38.0479 -105.3 48.6006v-90.7002h-224v90.7998c-30.3672 -10.5879 -77.541 -32.3613 -105.3 -48.5996c-4.16113 -2.47852 -11.4697 -4.48926 -16.3125 -4.48926
c-9.45801 0 -21.3691 6.40137 -26.5879 14.2891l-17.7002 26.7002c-8.7998 13.2998 -7.59961 34.5996 10 45.0996c7.40039 4.40039 17.5 10 28.7002 16c31.6006 -27.2998 79 -4.2002 79.2002 36c47.0996 17.7002 103 32.2002 160 32.2002
c45.0996 0 89.2998 -9.2002 129.2 -21.7998c-11.7002 -52.9004 59.5996 -81.2002 87.7002 -35.1006c21.3994 -10.3994 39.1992 -20.2998 51.0996 -27.3994zM272 152h0.0605469c13.2148 0 23.9395 10.7246 23.9395 23.9395v0.0605469c0 13.248 -10.752 24 -24 24
s-24 -10.752 -24 -24s10.752 -24 24 -24zM368 88h0.0605469c13.2148 0 23.9395 10.7246 23.9395 23.9395v0.0605469c0 13.248 -10.752 24 -24 24s-24 -10.752 -24 -24s10.752 -24 24 -24z" />
    <glyph glyph-name="box-full-secondary" unicode="&#x10f49c;" horiz-adv-x="640" 
d="M439 65.9004l137 39.0996v-82c-0.0380859 -13.7402 -10.8799 -27.6279 -24.2002 -31l-216.399 -54.0996c-4.21582 -1.03516 -11.1602 -1.87598 -15.5 -1.87598c-4.34082 0 -11.2852 0.84082 -15.5 1.87598l-216.16 54.0996
c-13.3809 3.30957 -24.2402 17.1826 -24.2402 30.9668v0.0332031v82l137.1 -39.2002c28.6006 -8.2002 48.3008 10.9004 54.7002 21.6006l64.2002 106.6l64.2998 -106.6c6.54004 -10.8008 26.2402 -29.7002 54.7002 -21.5z" />
    <glyph glyph-name="box-open-secondary" unicode="&#x10f49e;" horiz-adv-x="640" 
d="M439 193.86l137 39.1396v-178c-0.0380859 -13.7402 -10.8799 -27.6279 -24.2002 -31l-216.399 -54.0996c-4.21582 -1.03516 -11.1602 -1.87598 -15.5 -1.87598c-4.34082 0 -11.2852 0.84082 -15.5 1.87598l-216.16 54.0996
c-13.3809 3.30957 -24.2402 17.1826 -24.2402 30.9668v0.0332031v178l137 -39.2002c3.53516 -1.04883 9.39746 -1.90039 13.0859 -1.90039c0.0585938 0 0.155273 0 0.213867 0.000976562c15.1025 0.0429688 33.6943 10.5713 41.5 23.5l64.2002 106.6l64.2998 -106.6
c7.79102 -12.8916 26.3379 -23.375 41.4004 -23.4004c0.0957031 -0.000976562 0.250977 -0.000976562 0.34668 -0.000976562c3.64941 0 9.45215 0.833984 12.9531 1.86133z" />
    <glyph glyph-name="home-heart-secondary" unicode="&#x10f4c9;" horiz-adv-x="576" 
d="M64.1104 136.62c6.39941 5.30957 43.8896 37.5 224 196.399c179.3 -158.09 217.3 -190.899 224 -196.399v-184.62c-0.0273438 -8.80469 -7.19531 -15.9727 -16 -16h-416c-8.80469 0.0273438 -15.9727 7.19531 -16 16v184.62zM378.21 162.93
c-23.9004 20 -59.5996 16.3906 -81.6104 -5.80957l-8.59961 -8.69043l-8.59961 8.69043c-21.9004 22.2002 -57.6006 25.8096 -81.6006 5.80957c-12.0059 -10.0381 -21.75 -30.8867 -21.75 -46.5361c0 -13.7246 7.81836 -32.7969 17.4502 -42.5732l84.7002 -85.5898
c2.25781 -2.27832 6.69238 -4.12695 9.89941 -4.12695s7.64258 1.84863 9.90039 4.12695l84.71 85.5898c9.59863 9.76172 17.3887 28.7959 17.3887 42.4863c0 15.7041 -9.80664 36.5918 -21.8887 46.623z" />
    <glyph glyph-name="file-export-secondary" unicode="&#x10f56e;" horiz-adv-x="576" 
d="M384 320h-128v128h6.09961h0.0595703c5.47363 0 13.0635 -3.13574 16.9404 -7l97.9004 -98c3.8623 -3.86523 6.99805 -11.4365 7 -16.9004v-6.09961zM208 95.9502h176v-135.95v-0.0605469c0 -13.2148 -10.7246 -23.9395 -23.9395 -23.9395h-0.0605469h-336h-0.0605469
c-13.2148 0 -23.9395 10.7246 -23.9395 23.9395v0.0605469v464v0.0605469c0 13.2148 10.7246 23.9395 23.9395 23.9395h0.0605469h200v-136c0.0380859 -13.21 10.79 -23.9619 24 -24h136v-128.05h-176c-8.83203 0 -16 -7.16797 -16 -16v-32c0 -8.83203 7.16797 -16 16 -16z
" />
    <glyph glyph-name="file-import-secondary" unicode="&#x10f56f;" 
d="M376 288h136v-328v-0.0605469c0 -13.2148 -10.7246 -23.9395 -23.9395 -23.9395h-0.0605469h-336h-0.0605469c-13.2148 0 -23.9395 10.7246 -23.9395 23.9395v0.0605469v136h127.6v-64.9004c0 -14.2598 17.2803 -21.3398 27.3701 -11.2695l95.5898 96.1699
c2.7207 2.74316 4.92871 8.10645 4.92871 11.9697c0 3.86426 -2.20801 9.22656 -4.92871 11.9707l-95.4893 96.25c-10.0898 10.0693 -27.3701 3 -27.3701 -11.2705v-65h-127.7v264.08v0.0605469c0 13.2148 10.7246 23.9395 23.9395 23.9395h0.0605469h200v-136
c0.0380859 -13.21 10.79 -23.9619 24 -24zM505 343c3.8623 -3.86523 6.99805 -11.4365 7 -16.9004v-6.09961h-128v128h6.09961h0.0595703c5.47363 0 13.0635 -3.13574 16.9404 -7z" />
    <glyph glyph-name="gopuram-secondary" unicode="&#x10f664;" horiz-adv-x="640" 
d="M224 224v96h32v-96h-32zM192 96v128h32v-128h-32zM160 -64v160h32v-160h-32zM416 224h32v-128h-32v128zM384 320h32v-96h-32v96zM448 96h32v-160h-32v160z" />
    <glyph glyph-name="drumstick-secondary" unicode="&#x10f6d6;" 
d="M193.7 55.5c-9.7002 -9.7998 -11.1006 -24 -6 -36.7998c12.3994 -30.9004 -2.60059 -66 -33.6006 -78.4004c-22.3994 -9 -48.0996 -3.7002 -65.1992 13.4004c-15.3008 15.2998 -19.6006 36.5 -15.1006 56.0996c-19.5996 -4.5 -40.7998 -0.200195 -56.0996 15.1006
c-23.6006 23.5 -23.7002 61.6992 -0.200195 85.2998c17.0996 17.2002 42.7002 22.3994 65.2002 13.3994c12.7998 -5.09961 27 -3.69922 36.7998 6l40.5 40.5v-10.0996c0 -35.2998 28.7002 -64 64 -64h10.2002z" />
    <glyph glyph-name="drumstick-bite-secondary" unicode="&#x10f6d7;" 
d="M193.69 55.5c-9.7207 -9.75 -11.0908 -24 -6 -36.75c2.3877 -5.96094 4.3252 -16.0098 4.3252 -22.4307c0 -33.2959 -27.0234 -60.3193 -60.3203 -60.3193c-13.8301 0 -32.9756 7.95215 -42.7354 17.75c-15.2695 15.2695 -19.5801 36.5 -15.0898 56.0996
c-19.6006 -4.48926 -40.8301 -0.179688 -56.1006 15.0908c-9.80566 9.75977 -17.7646 28.9102 -17.7646 42.7461c0 33.291 27.0186 60.3096 60.3096 60.3096c6.42871 0 16.4893 -1.94238 22.4551 -4.33594c12.7607 -5.07031 27.0508 -3.69043 36.7607 6l40.4697 40.4697
v-10.1299c0 -35.3281 28.6719 -64 64 -64h10.2002z" />
    <glyph glyph-name="kite-secondary" unicode="&#x10f6f4;" horiz-adv-x="640" 
d="M288 96l187 187l-116.8 117h233.8l-116.9 -116.9l116.9 -116.899zM261.42 40.6396l6.7002 1.55078l-87.5498 -87.5508c-23.8701 -23.9199 -66.3906 -27.1895 -92.8701 4.34082c-10.7002 12.71 -15.7002 29.1592 -15.7002 45.71v118.31l24 15.8398l24.0098 -15.8398
v-123.43c0.0175781 -8.59375 7.00684 -15.5684 15.6006 -15.5684c3.56641 0 8.50781 2.0459 11.0293 4.56836l87.54 87.54l-1.54004 -6.69043c-0.338867 -1.46973 -0.613281 -3.88574 -0.613281 -5.39355c0 -13.248 10.752 -24 24 -24
c1.50781 0 3.92383 0.274414 5.39355 0.613281zM16 264c-8.83203 0 -16 7.16797 -16 16v16c0 8.83203 7.16797 16 16 16h16c48.5762 0 88 -39.4238 88 -88v-27l-24 -15.8701l-24 15.8701v27c0 22.0801 -17.9199 40 -40 40h-16z" />
    <glyph glyph-name="pie-secondary" unicode="&#x10f705;" horiz-adv-x="576" 
d="M88.75 21.9199l-31 92.8799c32.9102 6.57031 51.2598 23.5 59.5996 29.2002h0.220703c10.1699 -7 36.21 -32 85.3398 -32c50.0898 0 78 27 85.2803 32h0.0791016c10.1104 -7 36.2002 -32 85.2607 -32c49.0596 0 75.1299 25.0596 85.25 32h0.0595703
c7 -4.7998 26.3506 -22.5801 59.46 -29.2002l-31 -92.8799c-4.01465 -12.0957 -17.6152 -21.916 -30.3594 -21.9199h-337.87c-12.7275 0.0205078 -26.3115 9.84082 -30.3203 21.9199z" />
    <glyph glyph-name="scythe-secondary" unicode="&#x10f710;" horiz-adv-x="640" 
d="M639.44 410l-96.2705 -461c-1.37012 -7.17578 -8.41016 -13 -15.7158 -13h-0.00390625h-31.4502c-8.8291 0.00292969 -15.9941 7.1709 -15.9941 16c0 0.821289 0.123047 2.14258 0.274414 2.9502l29.2598 141h-109.54c-8.83203 0 -16 7.16797 -16 16v32.0498
c0 8.83203 7.16797 16 16 16h122.81l59.7402 288h25.4502h0.0078125c17.6641 0 32 -14.3359 32 -32c0 -1.6709 -0.254883 -4.3584 -0.567383 -6z" />
    <glyph glyph-name="turkey-secondary" unicode="&#x10f725;" horiz-adv-x="640" 
d="M491.31 251.45c52.3105 -57.7002 84.6904 -129.88 84.6904 -187.45c0 -114.87 -128.94 -128 -288 -128s-288 13.1299 -288 128s128.94 288 288 288c47.5596 0 92.4199 -15.4805 132 -40.25c-6.30957 -2.75 -13 -5.30957 -20.1104 -7.66016
c-29.8799 -9.88965 -57.0596 -13.1895 -71.2598 -13c-20.3096 0.280273 -38.9502 -2.78027 -55.3799 -9.09961c-27.6836 -10.4619 -57.7539 -41.7373 -67.1201 -69.8105c-12.8496 -39.2393 -5.07031 -81.3398 20.7998 -112.6
c17.7578 -21.6992 54.9062 -40.2686 82.9199 -41.4502c1.55078 -0.0703125 4.06836 -0.12793 5.62109 -0.12793c4.42578 0 11.5801 0.464844 15.9697 1.03809c43.6699 5.55957 80.7998 39.2002 94.5596 85.7002c3.51953 11.9102 18.2402 46.79 41.2305 78.5898
c5.92676 8.37598 16.7148 20.9746 24.0791 28.1201z" />
    <glyph glyph-name="ball-pile-secondary" unicode="&#x10f77e;" horiz-adv-x="576" 
d="M176 280c44.1602 0 80 -35.8398 80 -80s-35.8398 -80 -80 -80s-80 35.8398 -80 80s35.8398 80 80 80zM400 280c44.1602 0 80 -35.8398 80 -80s-35.8398 -80 -80 -80s-80 35.8398 -80 80s35.8398 80 80 80z" />
    <glyph glyph-name="biohazard-secondary" unicode="&#x10f780;" horiz-adv-x="576" 
d="M206 367.17c21.6846 9.32324 58.4404 16.8906 82.0439 16.8906c23.6768 0 60.5361 -7.6123 82.2764 -16.9902c-4.86719 -13.6055 -18.083 -31.835 -29.5 -40.6904c-16.6104 5.7998 -34.3008 9.60059 -52.8105 9.60059s-36 -3.80078 -52.5098 -9.5
c-11.417 8.85547 -24.6338 27.084 -29.5 40.6895zM129.28 161.34c3.37695 -37.167 29.7686 -86.2539 58.9102 -109.57c-3.49805 -13.5859 -14.4736 -32.5762 -24.5 -42.3896c-42.5605 31.7295 -79.8838 100.475 -83.3105 153.45
c6.02441 1.71094 15.9971 3.10059 22.2598 3.10059c0.0664062 0 0.173828 0 0.240234 -0.000976562c7.49121 -0.0888672 19.3184 -2.14551 26.4004 -4.58984zM473.22 165.93c0.0478516 0 0.124023 0.000976562 0.171875 0.000976562
c6.1875 0 16.0518 -1.33105 22.0186 -2.9707c-3.28906 -52.9639 -40.4736 -121.709 -83 -153.45c-10.0283 9.84375 -21.0049 28.8799 -24.5 42.4902c28.9922 23.2773 55.2939 72.2168 58.71 109.24c7.13477 2.46387 19.0518 4.56543 26.5996 4.68945z" />
    <glyph glyph-name="bacon-secondary" unicode="&#x10f7e5;" horiz-adv-x="576" 
d="M9.08984 40.3799c-12.7002 12.6201 -12.0898 33.6201 1.79004 45.0605c36.3301 30 66.2002 41.0996 91.0605 50.3594c9.16992 3.41016 69 19.2598 98.7197 98.0898c8.60938 22.8105 46.3398 134.591 189 187.73c15.8496 5.91016 27.3594 10.2002 41 20.2998
c4.53125 3.34473 12.7793 6.05957 18.4111 6.05957c7.00098 0 16.7354 -3.98242 21.7285 -8.88965l26.3105 -26.1396c-30.1104 -27.6504 -52.8701 -36.3203 -76.7305 -45.3203c-28.2998 -10.6299 -57.5703 -21.6299 -97.3799 -61.3799s-50.7598 -69.0498 -61.3701 -97.3398
c-9.84961 -26.3105 -19.1602 -51.1201 -54.0498 -86s-59.6504 -44.1602 -85.9102 -54c-26 -9.75977 -53 -20.1299 -88.1699 -52.7305zM566.92 343.6c12.7002 -12.5996 12.0801 -33.6494 -1.80957 -45.0498c-36.3701 -30.0098 -66.2402 -41.1396 -91.1104 -50.4199
c-9.20996 -3.43945 -69 -19.3203 -98.7305 -98.1104c-8.92969 -23.5898 -46.7393 -134.699 -188.93 -187.699c-15.8496 -5.90039 -27.3398 -10.1807 -40.9395 -20.2402c-4.53613 -3.35645 -12.7979 -6.08105 -18.4404 -6.08105c-7.00586 0 -16.7451 3.9873 -21.7402 8.90137
l-26.3193 26.1396c30.0898 27.6504 52.8301 36.2998 76.6797 45.2998c28.2998 10.5898 57.5098 21.54 97.2998 61.3203s50.7705 69.0098 61.4102 97.3398c9.80957 26.3096 19.1104 51.1602 54 86s59.6904 44.1504 85.9502 54
c26.0693 9.7998 53.0498 20.1602 88.2402 52.7998z" />
    <glyph glyph-name="book-medical-secondary" unicode="&#x10f7e6;" horiz-adv-x="448" 
d="M96 0c-19.2002 0 -32 12.7998 -32 32s16 32 32 32h319.33c-1.92969 -16.2402 -1.75977 -48.3799 0.530273 -64h-319.86z" />
    <glyph glyph-name="book-user-secondary" unicode="&#x10f7e7;" horiz-adv-x="448" 
d="M96 0c-19.2002 0 -32 12.7998 -32 32s16 32 32 32h319.33c-1.92969 -16.2402 -1.75977 -48.3799 0.530273 -64h-319.86z" />
    <glyph glyph-name="books-medical-secondary" unicode="&#x10f7e8;" horiz-adv-x="640" 
d="M338.81 351h-114.81v64c0 17.6641 14.3359 32 32 32h64h0.0449219c5.29004 0 13.1641 -2.37012 17.5752 -5.29004c-9.18066 -2.96191 -16.6309 -13.1943 -16.6309 -22.8408c0 -1.75781 0.37207 -4.56152 0.831055 -6.25879zM450.81 412.61l122.881 -445.61h-63
c-0.130859 0.799805 -0.300781 1.58984 -0.510742 2.38965l-122.88 445.61h63c0.129883 -0.799805 0.299805 -1.58984 0.509766 -2.38965zM192 338.67c-16.8975 7.3584 -45.5693 13.3301 -64 13.3301s-47.1025 -5.97168 -64 -13.3301v76.3301c0 17.6641 14.3359 32 32 32h64
c17.6641 0 32 -14.3359 32 -32v-76.3301zM224 -33v64h128v-64c0 -17.6641 -14.3359 -32 -32 -32h-64c-17.6641 0 -32 14.3359 -32 32zM347.63 319l4.37012 -15.8301v-240.17h-128v1c35.3223 26.4961 63.9902 83.8369 63.9902 127.993
c0 43.5938 -28.085 100.493 -62.6904 127.007h122.33zM64 45.3301c16.8975 -7.3584 45.5693 -13.3301 64 -13.3301s47.1025 5.97168 64 13.3301v-78.3301c0 -17.6641 -14.3359 -32 -32 -32h-64c-17.6641 0 -32 14.3359 -32 32v78.3301z" />
    <glyph glyph-name="brackets-secondary" unicode="&#x10f7e9;" horiz-adv-x="448" 
d="M448 384v-384c0 -17.6641 -14.3359 -32 -32 -32h-112c-8.83203 0 -16 7.16797 -16 16v32c0 8.83203 7.16797 16 16 16h80v320h-80c-8.83203 0 -16 7.16797 -16 16v32c0 8.83203 7.16797 16 16 16h112c17.6641 0 32 -14.3359 32 -32z" />
    <glyph glyph-name="brackets-curly-secondary" unicode="&#x10f7ea;" horiz-adv-x="576" 
d="M566.64 214.63c5.17285 -5.17285 9.37012 -15.3096 9.37012 -22.625s-4.19727 -17.4512 -9.37012 -22.625l-45.25 -45.25c-5.18164 -5.17383 -9.38867 -15.3164 -9.38965 -22.6396v-37.4902c0 -52.9922 -43.0078 -96 -96 -96h-48c-8.83203 0 -16 7.16797 -16 16v32
c0 8.83203 7.16797 16 16 16h48c17.6641 0 32 14.3359 32 32v37.4805c0.000976562 21.9541 12.6035 52.3682 28.1299 67.8896l22.6299 22.6299l-22.6201 22.6201c-15.5332 15.5234 -28.1396 45.9443 -28.1396 67.9043v0.00585938v37.4697c0 17.6641 -14.3359 32 -32 32h-48
c-8.83203 0 -16 7.16797 -16 16v32c0 8.83203 7.16797 16 16 16h48c52.9922 0 96 -43.0078 96 -96v-37.4805v-0.0146484c0 -7.32031 4.20215 -17.4609 9.37988 -22.6348l45.25 -45.2402h0.00976562z" />
    <glyph glyph-name="bread-loaf-secondary" unicode="&#x10f7eb;" horiz-adv-x="640" 
d="M420 192h-4v-192c0 -17.6641 -14.3359 -32 -32 -32h-288c-17.6641 0 -32 14.3359 -32 32v192h-4c-33.1396 0 -60 28.6504 -60 64c0 88.3701 107.45 160 240 160s240 -71.6299 240 -160c0 -35.3496 -26.8604 -64 -60 -64z" />
    </font>
</defs>
</svg>
