<?xml version="1.0" standalone="no"?>
<!--
Font Awesome Pro 5.11.1 by @fontawesome - https://fontawesome.com
License - https://fontawesome.com/license (Commercial License)
-->
<!DOCTYPE svg PUBLIC "-//W3C//DTD SVG 1.1//EN" "http://www.w3.org/Graphics/SVG/1.1/DTD/svg11.dtd" >
<svg xmlns="http://www.w3.org/2000/svg" xmlns:xlink="http://www.w3.org/1999/xlink" version="1.1">
<metadata>
Created by FontForge 20190801 at Wed Sep 18 17:46:54 2019
 By Robert Madole
Copyright (c) Font Awesome
</metadata>
<defs>
<font id="FontAwesome5Duotone-Solid" horiz-adv-x="496" >
  <font-face 
    font-family="Font Awesome 5 Duotone Solid"
    font-weight="900"
    font-stretch="normal"
    units-per-em="512"
    panose-1="2 0 5 3 0 0 0 0 0 0"
    ascent="448"
    descent="-64"
    bbox="-0.0327063 -64.0189 640.007 448.094"
    underline-thickness="25"
    underline-position="-50"
    unicode-range="U+0020-10F8F2"
  />
    <missing-glyph />
    <glyph glyph-name="times-primary" unicode="&#xf00d;" horiz-adv-x="352" 
d="M342.79 91.9297c5.08301 -5.08594 9.20898 -15.0488 9.20898 -22.2393c0 -7.19141 -4.12598 -17.1543 -9.20898 -22.2402l-22.2402 -22.2402c-5.08594 -5.08301 -15.0488 -9.20898 -22.2402 -9.20898c-7.19043 0 -17.1533 4.12598 -22.2393 9.20898l-266.86 266.86
c-5.08301 5.08594 -9.20898 15.0488 -9.20898 22.2393c0 7.19141 4.12598 17.1543 9.20898 22.2402l22.2402 22.2402c5.08594 5.08301 15.0488 9.20898 22.2402 9.20898c7.19043 0 17.1533 -4.12598 22.2393 -9.20898z" />
    <glyph glyph-name="step-backward-primary" unicode="&#xf048;" horiz-adv-x="448" 
d="M384 384v-384c0 -27.4004 -31.9004 -41.7002 -52.5 -24.5996l-187.5 174.26v84.6895l187.5 174.24c20.5996 17.1006 52.5 2.7998 52.5 -24.5898z" />
    <glyph glyph-name="step-forward-primary" unicode="&#xf051;" horiz-adv-x="448" 
d="M64 0v384c0 27.4004 31.9004 41.7002 52.5 24.5996l187.5 -174.26v-84.6895l-187.5 -174.24c-20.5996 -17.1006 -52.5 -2.7998 -52.5 24.5898z" />
    <glyph glyph-name="globe-primary" unicode="&#xf0ac;" 
d="M376 192v-0.211914c0 -17.6553 -1.50977 -46.2314 -3.37012 -63.7881h115c-2.4043 -9.04004 -7.29688 -23.376 -10.9199 -32h-108.38c-9.86035 -59.5303 -28.6201 -109.68 -52.75 -142.68c-18.2412 -5.14453 -48.4277 -9.32031 -67.3809 -9.32031h-0.199219
c8.94043 0 18.3799 4.48047 28.0498 13.4805c11.96 11.0596 23.4902 28.2891 33.3398 49.8291c10.71 23.4102 19.1299 50.9307 25.1299 81.7803c0.44043 2.29004 0.870117 4.60059 1.28027 6.91016h-175.6c0.410156 -2.30957 0.839844 -4.62012 1.28027 -6.91016
c5.96973 -30.8496 14.4199 -58.3701 25.1299 -81.7803c9.84961 -21.54 21.3398 -38.7695 33.3398 -49.8291c9.66992 -8.9502 19.1094 -13.4805 28.0498 -13.4805h-0.199219c-18.9531 0 -49.1396 4.17578 -67.3809 9.32031c-24.1299 33 -42.8896 83.1494 -52.75 142.68
h-108.38c-3.62305 8.62402 -8.51562 22.96 -10.9199 32h115c-1.84668 17.6162 -3.34473 46.2881 -3.34473 64s1.49805 46.3838 3.34473 64h-115c2.4043 9.04004 7.29688 23.376 10.9199 32h108.38c9.86035 59.5303 28.6201 109.68 52.75 142.68
c18.2412 5.14453 48.4277 9.32031 67.3809 9.32031h0.199219c-8.94043 0 -18.3799 -4.53027 -28 -13.4805c-12 -11.0596 -23.54 -28.2891 -33.3896 -49.8291c-10.71 -23.4102 -19.1299 -50.9307 -25.1299 -81.7803c-0.44043 -2.29004 -0.870117 -4.60059 -1.28027 -6.91016
h175.6c-0.410156 2.30957 -0.839844 4.62012 -1.28027 6.91016c-5.96973 30.8496 -14.4199 58.3701 -25.1299 81.7803c-9.84961 21.54 -21.3398 38.7695 -33.3398 49.8291c-9.66992 8.9502 -19.1094 13.4805 -28.0498 13.4805h0.199219
c18.9531 0 49.1396 -4.17578 67.3809 -9.32031c24.1299 -33 42.8896 -83.1494 52.75 -142.68h108.41c3.62305 -8.62402 8.51465 -22.96 10.9199 -32h-115c1.84375 -17.5166 3.33984 -46.0293 3.33984 -63.6426v-0.357422zM340.46 128
c1.95898 17.5527 3.54004 46.1338 3.54004 63.7959v0.204102v0.204102c0 17.6621 -1.59082 46.2432 -3.5498 63.7959h-184.9c-1.95801 -17.6094 -3.54688 -46.2812 -3.54688 -64s1.58887 -46.3906 3.54688 -64h184.91z" />
    <glyph glyph-name="filter-primary" unicode="&#xf0b0;" horiz-adv-x="512" 
 />
    <glyph glyph-name="smile-primary" unicode="&#xf118;" 
d="M328 272c17.6641 0 32 -14.3359 32 -32s-14.3359 -32 -32 -32s-32 14.3359 -32 32s14.3359 32 32 32zM168 272c17.6641 0 32 -14.3359 32 -32s-14.3359 -32 -32 -32s-32 14.3359 -32 32s14.3359 32 32 32z" />
    <glyph glyph-name="frown-primary" unicode="&#xf119;" 
d="M168 272c17.6641 0 32 -14.3359 32 -32s-14.3359 -32 -32 -32s-32 14.3359 -32 32s14.3359 32 32 32zM328 272c17.6641 0 32 -14.3359 32 -32s-14.3359 -32 -32 -32s-32 14.3359 -32 32s14.3359 32 32 32z" />
    <glyph glyph-name="meh-primary" unicode="&#xf11a;" 
d="M328 272c17.6641 0 32 -14.3359 32 -32s-14.3359 -32 -32 -32s-32 14.3359 -32 32s14.3359 32 32 32zM168 272c17.6641 0 32 -14.3359 32 -32s-14.3359 -32 -32 -32s-32 14.3359 -32 32s14.3359 32 32 32z" />
    <glyph glyph-name="level-up-primary" unicode="&#xf148;" horiz-adv-x="352" 
d="M345 269.24l-22 -22.1699c-3.87402 -3.90234 -11.4814 -7.06836 -16.9805 -7.06836c-5.43848 0 -12.9873 3.1084 -16.8496 6.93848l-0.120117 0.129883c-0.209961 0.209961 -0.419922 0.429688 -0.620117 0.649414l-96.4297 104.2l-96.4697 -104.21
c-0.200195 -0.219727 -0.410156 -0.44043 -0.620117 -0.650391c-3.875 -3.90137 -11.4814 -7.06738 -16.9805 -7.06738c-5.43848 0 -12.9873 3.1084 -16.8496 6.9375c-0.0292969 0.0429688 -0.0878906 0.100586 -0.129883 0.129883l-21.9502 22.1807
c-3.84668 3.90332 -6.96875 11.5195 -6.96875 17s3.12207 13.0957 6.96875 17l135.91 137.63c0.0429688 0.0341797 0.105469 0.0966797 0.139648 0.139648c3.88965 3.85742 11.4922 6.98828 16.9697 6.98828c5.48242 0 13.0898 -3.13574 16.9805 -6.99805
l0.139648 -0.139648l135.86 -137.58c3.84668 -3.9043 6.96875 -11.5195 6.96875 -17s-3.12207 -13.0967 -6.96875 -17v-0.0400391z" />
    <glyph glyph-name="compass-primary" unicode="&#xf14e;" 
d="M348 318.15c16.5996 7.59961 33.75 -9.55078 26.2002 -26.2002l-66 -144.351c-2.72949 -5.98047 -9.79492 -13.0586 -15.7705 -15.7998l-144.34 -66c-16.6494 -7.60938 -33.8096 9.5498 -26.2002 26.2002l66 144.38c2.73145 5.97461 9.7959 13.0391 15.7705 15.7705z
M270.63 169.38c5.17285 5.17383 9.37012 15.3096 9.37012 22.625s-4.19727 17.4521 -9.37012 22.625v0c-5.17383 5.1748 -15.3115 9.375 -22.6299 9.375c-17.6641 0 -32 -14.3359 -32 -32s14.3359 -32 32 -32c7.31836 0 17.4561 4.2002 22.6299 9.375z" />
    <glyph glyph-name="dollar-sign-primary" unicode="&#xf155;" horiz-adv-x="288" 
d="M281.72 72.9004c-15.3994 -44.1006 -59.1094 -71.8008 -105.72 -72.7002l-64 -0.200195c-26.7109 0.108398 -65.4668 13.5488 -86.5098 30c-7.90039 6.09961 -8.90039 17.5996 -1.7998 24.5l34.8096 34c2.51855 2.49902 7.44043 4.52637 10.9883 4.52637
c2.55664 0 6.36914 -1.13184 8.51172 -2.52637c8.54785 -5.79199 23.8652 -10.4951 34.1904 -10.5h66.3096h0.0419922c16.2783 0 29.4893 13.2119 29.4893 29.4902c0 12.208 -9.51172 24.8906 -21.2314 28.3096l-102.52 30c-44.4004 13 -79.6104 50.5 -83.8105 96.6006
c-0.253906 2.76172 -0.459961 7.25586 -0.459961 10.0293c0 55.1777 44.5938 104.06 99.54 109.11v0c3.2998 0.299805 6.61035 0.459961 9.91992 0.459961h66.5303c26.7129 -0.109375 65.4736 -13.5498 86.5195 -30c7.90039 -6.09961 8.90039 -17.5996 1.80078 -24.5
l-34.8105 -34c-2.51758 -2.49902 -7.44043 -4.52637 -10.9883 -4.52637c-2.55566 0 -6.36914 1.13184 -8.51172 2.52637c-8.55371 5.79004 -23.8799 10.4941 -34.21 10.5h-66.3096h-0.0419922c-16.2783 0 -29.4902 -13.2119 -29.4902 -29.4902
c0 -12.208 9.51172 -24.8906 21.2324 -28.3096l108 -31.6006c57.9297 -16.8994 94.04 -80.0996 72.5293 -141.699z" />
    <glyph glyph-name="moon-primary" unicode="&#xf186;" horiz-adv-x="512" 
d="M32 192c0 141.49 112.29 256 250.64 256h0.0263672c12.7441 0 33.251 -1.91699 45.7744 -4.28027c10.7695 -2 13.1592 -16.7197 3.66992 -22.2295c-61.5205 -35.7598 -99.3701 -102.17 -99.3701 -174.391c0 -125.38 111.67 -220.609 233.279 -197
c10.6904 2.08008 18.2402 -10.6396 11.3203 -19.3496c-46.7803 -58.8301 -117.34 -94.75 -194.7 -94.75c-138.529 0 -250.64 114.69 -250.64 256z" />
    <glyph glyph-name="university-primary" unicode="&#xf19c;" horiz-adv-x="512" 
d="M491.06 327.39c2.72656 -1.12793 4.93945 -4.43945 4.94043 -7.38965v-16c0 -4.41602 -3.58398 -8 -8 -8h-24v-12c0 -6.62402 -5.37598 -12 -12 -12h-392c-6.62402 0 -12 5.37598 -12 12v12h-24c-4.41602 0 -8 3.58398 -8 8v16
c0.000976562 2.9502 2.21387 6.26172 4.94043 7.38965l232 88c0.810547 0.335938 2.18164 0.608398 3.05957 0.608398s2.24902 -0.272461 3.05957 -0.608398zM472 16c13.248 0 24 -10.752 24 -24v-16c0 -4.41602 -3.58398 -8 -8 -8h-464c-4.41602 0 -8 3.58398 -8 8v16
c0 13.248 10.752 24 24 24h432z" />
    <glyph glyph-name="wifi-primary" unicode="&#xf1eb;" horiz-adv-x="640" 
d="M320 96c35.2998 0 64 -28.7002 64 -64s-28.7002 -64 -64 -64s-64 28.7002 -64 64s28.7002 64 64 64zM522.7 179.6l0.700195 -0.699219c6.09961 -6.30078 5.89941 -16.3008 -0.300781 -22.4004l-34.3994 -34c-6 -6 -15.6006 -6.2998 -22 -0.799805
c-83.7998 72.3994 -209.5 72.5996 -293.5 0c-6.40039 -5.5 -16 -5.10059 -22 0.799805l-34.4004 34c-0.299805 0.200195 -0.5 0.5 -0.799805 0.799805c-5.7002 6.5 -5.09961 16.5 1.40039 22.2998c115.1 101.801 290 101.9 405.3 0zM635.4 292.6
c6.19922 -6.2998 6.09961 -16.2998 -0.300781 -22.5l-34.1992 -34c-6.2002 -6.09961 -16 -6.2998 -22.4004 -0.399414c-145.9 133.7 -371.3 133.7 -517.2 0c-6.39941 -5.7998 -16.2002 -5.7002 -22.3994 0.399414l-34.2002 34
c-0.200195 0.100586 -0.299805 0.300781 -0.5 0.5c-5.90039 6.5 -5.5 16.5 0.899414 22.5c177.101 163.801 452.601 163.9 629.801 0c0.0996094 -0.199219 0.299805 -0.299805 0.5 -0.5z" />
    <glyph glyph-name="ship-primary" unicode="&#xf21a;" horiz-adv-x="640" 
d="M574.56 158.18c-1.31152 -4.06152 -4.82324 -9.80957 -7.83984 -12.8301l-92.5 -89.25c-13.168 -12.8779 -38.8027 -23.5 -57.2197 -23.71h-0.5c-21.2305 0 -40.79 6.12012 -53.6396 16.7705c-9.84668 8.19238 -28.2344 14.8418 -41.0439 14.8418
c-0.145508 0 -0.380859 -0.000976562 -0.526367 -0.00195312c-14.1113 -0.103516 -34.4951 -7.35645 -45.5 -16.1904c-12.3799 -9.7998 -31.1201 -15.4199 -51.4404 -15.4199h-0.509766c-18.8223 0.209961 -45.0215 11.0605 -58.4795 24.2207l-92 88.7393
c-5.1709 5.17383 -9.36719 15.3086 -9.36719 22.6221c0 12.8809 9.95312 26.5303 22.2168 30.4688l224 72c2.63574 0.848633 7.02148 1.53711 9.79004 1.53711s7.1543 -0.688477 9.79004 -1.53711l224 -72c12.2715 -3.93457 22.2305 -17.5859 22.2305 -30.4727
c0 -2.76465 -0.685547 -7.14551 -1.53027 -9.77734v0z" />
    <glyph glyph-name="venus-primary" unicode="&#xf221;" horiz-adv-x="288" 
d="M288 272c0 -63.4092 -50.1758 -126.309 -112 -140.4v-51.5996h36c6.62402 0 12 -5.37598 12 -12v-40c0 -6.62402 -5.37598 -12 -12 -12h-36v-36c0 -6.62402 -5.37598 -12 -12 -12h-40c-6.62402 0 -12 5.37598 -12 12v36h-36c-6.62402 0 -12 5.37598 -12 12v40
c0 6.62402 5.37598 12 12 12h36v51.5996c-61.8242 14.0918 -112 76.9902 -112 140.399c0 79.4883 64.5117 144 144 144c79.4873 0 144 -64.5117 144 -143.999zM144 192c44.1602 0 80 35.8398 80 80s-35.8398 80 -80 80s-80 -35.8398 -80 -80s35.8398 -80 80 -80z" />
    <glyph glyph-name="genderless-primary" unicode="&#xf22d;" horiz-adv-x="288" 
d="M144 336c79.4883 0 144 -64.5117 144 -144s-64.5117 -144 -144 -144s-144 64.5117 -144 144s64.5117 144 144 144zM144 112c44.1602 0 80 35.8398 80 80s-35.8398 80 -80 80s-80 -35.8398 -80 -80s35.8398 -80 80 -80z" />
    <glyph glyph-name="user-circle-primary" unicode="&#xf2bd;" 
d="M248 168c-48.5762 0 -88 39.4238 -88 88s39.4238 88 88 88s88 -39.4238 88 -88s-39.4238 -88 -88 -88zM296 128c42.9004 0 79.7002 -24.4004 98.5 -59.7998c-5.86523 -6.96875 -16.2812 -17.3848 -23.25 -23.25c-80.9102 -68.0703 -201.68 -57.6602 -269.75 23.25
c18.7998 35.3994 55.5996 59.7998 98.5 59.7998c2.00391 -0.0166016 5.18457 -0.508789 7.09961 -1.09961c10.9678 -3.80957 29.291 -6.90039 40.9004 -6.90039s29.9326 3.09082 40.9004 6.90039c1.91504 0.59082 5.0957 1.08301 7.09961 1.09961z" />
    <glyph glyph-name="usd-circle-primary" unicode="&#xf2e8;" 
d="M224 320v16c0 8.83203 7.16797 16 16 16h16c8.83203 0 16 -7.16797 16 -16v-16.2002c13.998 -0.505859 34.7852 -7.27148 46.4004 -15.0996c8.69922 -5.90039 10 -18.1006 2.2998 -25.2002l-12 -11.2998c-5.40039 -5.10059 -13.2998 -5.40039 -19.7002 -1.60059
c-5.05078 2.98145 -13.9111 5.40039 -19.7754 5.40039h-0.125h-45c-11.2998 0 -20.5 -10.5 -20.5 -23.4004c0 -10.5996 6.30078 -19.8994 15.2002 -22.6992l72 -21.9004c29 -8.7998 49.2002 -37 49.2002 -68.5996c0.200195 -39.3008 -30.4004 -71.2002 -68 -71.4004v-16
c0 -8.83203 -7.16797 -16 -16 -16h-16c-8.83203 0 -16 7.16797 -16 16v16.2002c-13.998 0.505859 -34.7852 7.27148 -46.4004 15.0996c-8.69922 5.90039 -10 18.1006 -2.2998 25.2002l12 11.2998c5.40039 5.10059 13.2998 5.40039 19.7002 1.60059
c5.05078 -2.98145 13.9111 -5.40039 19.7754 -5.40039h0.125h45c11.2998 0 20.5 10.5 20.5 23.4004c0 10.5996 -6.30078 19.8994 -15.2002 22.6992l-72.2002 21.9004c-29 8.7998 -49.2002 37 -49.2002 68.5996c0 39.3008 30.6006 71.3008 68.2002 71.4004z" />
    <glyph glyph-name="scrubber-primary" unicode="&#xf2f8;" 
d="M248 128c-35.3281 0 -64 28.6719 -64 64s28.6719 64 64 64s64 -28.6719 64 -64s-28.6719 -64 -64 -64z" />
    <glyph glyph-name="arrow-alt-down-primary" unicode="&#xf354;" horiz-adv-x="448" 
d="M408.93 151l-167.93 -176c-3.8916 -3.87598 -11.5078 -7.02148 -17 -7.02148s-13.1084 3.14551 -17 7.02148l-167.93 176c-15.1104 15.0898 -4.40039 41 17 41h335.859c21.4199 0 32.0703 -25.7598 17 -41z" />
    <glyph glyph-name="arrow-alt-up-primary" unicode="&#xf357;" horiz-adv-x="448" 
d="M39.0498 233l167.95 176c3.89062 3.87793 11.5068 7.02539 17 7.02539s13.1094 -3.14746 17 -7.02539l167.92 -176c15.1104 -15.0898 4.40039 -41 -17 -41h-335.87c-21.4199 0 -32.0498 25.7002 -17 41z" />
    <glyph glyph-name="baseball-ball-primary" unicode="&#xf433;" 
d="M98.1699 97.5498l0.110352 0.160156l28.7598 -14l-0.0898438 -0.19043c-10.6533 -21.8457 -33.5596 -53.2061 -51.1299 -70c-6.36914 6.15234 -16.0283 16.7559 -21.5605 23.6709c15.0684 14.5137 34.7402 41.5547 43.9102 60.3594zM97.5098 287.1
c-9.16113 18.4834 -28.6895 45.0635 -43.5898 59.3301c5.51855 6.92676 15.1592 17.5488 21.5205 23.71c17.3652 -16.5029 40.0879 -47.3213 50.7197 -68.79zM397.79 286.48l-0.129883 -0.19043l-28.75 14l0.0898438 0.19043
c10.666 21.8779 33.6123 53.2744 51.2197 70.0791c6.37207 -6.14844 16.0352 -16.748 21.5703 -23.6592c-15.1084 -14.5176 -34.8203 -41.5859 -44 -60.4199zM376 192.56h-0.110352c0.000976562 -19.8037 5.24707 -51.0693 11.71 -69.79l-30.2598 -10.3994
c-7.41699 21.4746 -13.4355 57.3438 -13.4355 80.0635c0 22.1309 5.71875 57.1182 12.7656 78.0967l30.3301 -10.2002c-6.07227 -18.1162 -11 -48.3252 -11 -67.4316v-0.338867zM398.5 96.9297c9.15723 -18.5098 28.6543 -45.1172 43.5801 -59.3896
c-5.51758 -6.92188 -15.1543 -17.5391 -21.5098 -23.7002c-17.3867 16.5117 -40.1318 47.3516 -50.7705 68.8398zM108.32 261.27l30.25 10.4307c7.41309 -21.4883 13.4297 -57.376 13.4297 -80.1064v-0.0839844v-0.191406c0 -22.0527 -5.7168 -56.9111 -12.7598 -77.8086
l-30.3301 10.2002c6.12109 18.1797 11.0898 48.5029 11.0898 67.6865v0.0839844c-0.00195312 19.8008 -5.23438 51.0664 -11.6797 69.7891z" />
    <glyph glyph-name="basketball-ball-primary" unicode="&#xf434;" 
d="M280 -54c-8.67383 -1.10449 -22.8086 -2 -31.5527 -2h-0.447266v2c-0.000976562 0.191406 -0.000976562 0.50293 -0.000976562 0.694336c0 50.9717 27.3779 123.354 61.1113 161.565l-61.1104 61.1104l-163.67 -163.67
c-6.64844 5.84375 -16.7861 15.9814 -22.6299 22.6299l163.67 163.67l-61.1104 61.1104c-38.2119 -33.7334 -110.594 -61.1113 -161.565 -61.1113c-0.191406 0 -0.50293 0 -0.694336 0.000976562h-2v0.0566406c0 8.85254 0.917969 23.1631 2.0498 31.9434
c0.162109 0 0.424805 -0.000976562 0.586914 -0.000976562c43.6768 0 105.928 23.1982 138.953 51.7812l-79.8896 79.8896c5.84375 6.64844 15.9814 16.7861 22.6299 22.6299l79.8896 -79.8896c28.583 33.0254 51.7812 95.2764 51.7812 138.953
c0 0.162109 -0.000976562 0.424805 -0.000976562 0.586914c8.78027 1.13184 23.0908 2.0498 31.9434 2.0498h0.0566406v-2c0.000976562 -0.191406 0.000976562 -0.50293 0.000976562 -0.694336c0 -50.9717 -27.3779 -123.354 -61.1113 -161.565l61.1104 -61.1104
l163.67 163.67c6.64844 -5.84375 16.7861 -15.9814 22.6299 -22.6299l-163.67 -163.67l61.1104 -61.1104c38.2178 33.7334 110.608 61.1113 161.584 61.1113c0.186523 0 0.489258 0 0.675781 -0.000976562h2v-0.447266c0 -8.74414 -0.895508 -22.8789 -2 -31.5527
c-0.162109 0 -0.424805 0.000976562 -0.586914 0.000976562c-43.6768 0 -105.928 -23.1982 -138.953 -51.7812l79.8896 -79.8896c-5.84375 -6.64844 -15.9814 -16.7861 -22.6299 -22.6299l-79.8896 79.8896c-28.6104 -33.04 -51.8311 -95.3271 -51.8311 -139.033
c0 -0.15332 0.000976562 -0.40332 0.000976562 -0.556641z" />
    <glyph glyph-name="bowling-ball-primary" unicode="&#xf436;" 
d="M248 440c137 0 248 -111 248 -248s-111 -248 -248 -248s-248 111 -248 248s111 248 248 248zM120 256c17.6641 0 32 14.3359 32 32s-14.3359 32 -32 32s-32 -14.3359 -32 -32s14.3359 -32 32 -32zM184 352c0 -17.6641 14.3359 -32 32 -32s32 14.3359 32 32
s-14.3359 32 -32 32s-32 -14.3359 -32 -32zM232 208c17.6641 0 32 14.3359 32 32s-14.3359 32 -32 32s-32 -14.3359 -32 -32s14.3359 -32 32 -32z" />
    <glyph glyph-name="football-ball-primary" unicode="&#xf44e;" 
d="M14.5 -3.7002c-13.0303 49.4404 -14.5 88.1904 -14.5 121.76l174.06 -174.06c-33.7695 0 -72.96 1.7002 -122.26 14.9004c-16.2578 4.375 -32.9678 21.1299 -37.2998 37.3994zM481.5 387.7c13.0303 -49.4404 14.5 -88.1904 14.5 -121.76l-174.06 174.06
c33.7695 -0.0498047 72.96 -1.7002 122.26 -14.9004c16.2578 -4.375 32.9678 -21.1299 37.2998 -37.3994zM5.75 180.19c24.5703 128.35 125.71 229.489 254.06 254.06l230.44 -230.44c-24.5703 -128.35 -125.71 -229.489 -254.06 -254.06zM294.66 261.88l-29.21 29.2197
c-1.33789 1.32617 -3.95215 2.40137 -5.83496 2.40137c-1.88379 0 -4.49707 -1.0752 -5.83496 -2.40137l-11.6602 -11.6699c-1.3252 -1.33594 -2.40039 -3.94824 -2.40039 -5.83008s1.0752 -4.49316 2.40039 -5.83008l29.21 -29.2197l-23.3301 -23.3193l-29.21 29.21
c-1.33789 1.3252 -3.95215 2.40039 -5.83496 2.40039s-4.49707 -1.0752 -5.83496 -2.40039l-11.6602 -11.6709c-1.3252 -1.33594 -2.40039 -3.94727 -2.40039 -5.8291s1.0752 -4.49414 2.40039 -5.83008l29.21 -29.21l-23.3301 -23.3301l-29.21 29.21
c-1.33789 1.3252 -3.95215 2.40137 -5.83496 2.40137s-4.49707 -1.07617 -5.83496 -2.40137l-11.6602 -11.6602c-1.3252 -1.33789 -2.40137 -3.95215 -2.40137 -5.83496c0 -1.88379 1.07617 -4.49707 2.40137 -5.83496l29.2002 -29.1104l-29.2002 -29.21
c-1.3252 -1.33789 -2.40137 -3.95215 -2.40137 -5.83496s1.07617 -4.49707 2.40137 -5.83496l11.6602 -11.6602c1.33789 -1.3252 3.95215 -2.40137 5.83496 -2.40137s4.49707 1.07617 5.83496 2.40137l29.21 29.2002l29.21 -29.2002
c1.33789 -1.3252 3.95215 -2.40137 5.83496 -2.40137c1.88379 0 4.49707 1.07617 5.83496 2.40137l11.6602 11.6602c1.3252 1.33789 2.40137 3.95215 2.40137 5.83496s-1.07617 4.49707 -2.40137 5.83496l-29.21 29.21l23.3301 23.3301l29.21 -29.21
c1.33789 -1.3252 3.95215 -2.40137 5.83496 -2.40137s4.49707 1.07617 5.83496 2.40137l11.6602 11.6602c1.3252 1.33789 2.40137 3.95215 2.40137 5.83496s-1.07617 4.49707 -2.40137 5.83496l-29.21 29.21l23.3398 23.4297l29.21 -29.21
c1.33789 -1.3252 3.95215 -2.40137 5.83496 -2.40137c1.88379 0 4.49707 1.07617 5.83496 2.40137l11.6602 11.6602c1.3252 1.33789 2.40137 3.95215 2.40137 5.83496c0 1.88379 -1.07617 4.49707 -2.40137 5.83496l-29.21 29.21l29.2002 29.21
c1.3252 1.33789 2.40137 3.95215 2.40137 5.83496c0 1.88379 -1.07617 4.49805 -2.40137 5.83496l-11.6602 11.6602c-1.33789 1.32617 -3.95215 2.40137 -5.83496 2.40137s-4.49707 -1.0752 -5.83496 -2.40137z" />
    <glyph glyph-name="tennis-ball-primary" unicode="&#xf45e;" 
d="M424.9 163c27.8994 -0.900391 52.3994 5.59961 71 18.4004c-5.80078 -137.301 -116.4 -232.301 -237.4 -237.4c12.9004 18.7002 19.4004 43.2002 18.5 71.0996c-2.40039 77.5 76.4004 150.5 147.9 147.9zM71.0996 221.1c-28 1.2002 -52.3994 -5.5 -71.0996 -18.3994
c5.7998 134.7 113.8 232.1 237.4 237.3c-12.8008 -18.7002 -19.3008 -43.2002 -18.4004 -71.0996c2.2002 -71.2002 -69 -149.7 -147.9 -147.801zM287.7 152.3c-37.1006 -37.0996 -60.2002 -91.5996 -58.7002 -138.7c0.599609 -19.5996 -3.2002 -64.6992 -55 -58.6992
c-68.7061 21.3252 -141.774 94.3936 -163.1 163.1c-6.2002 51.9004 39.0996 55.5 58.6992 55c47.4004 -1.7998 101.601 21.5 138.7 58.7998c37.1006 37.1006 60.2002 91.6006 58.7002 138.7c-0.599609 19.5 3.09961 64.7002 54.7998 58.7002
c68.7578 -21.3838 141.916 -94.543 163.3 -163.3c6.10059 -51.7002 -39.2998 -55.2002 -58.6992 -54.8008c-46.8008 1.90039 -101.5 -21.5996 -138.7 -58.7998z" />
    <glyph glyph-name="heart-circle-primary" unicode="&#xf4c7;" 
d="M371.5 167.7l-110.6 -114.2c-2.91797 -3.06445 -8.71973 -5.55176 -12.9502 -5.55176c-3.94727 0 -9.47168 2.20996 -12.3301 4.93164v0c-0.209961 0.200195 -0.419922 0.410156 -0.620117 0.620117l-110.5 114.2c-32.0996 33.2002 -30.2002 88.2002 5.7002 118.8
c31.2998 26.7002 77.8994 21.9004 106.6 -7.7002l11.2998 -11.5996l11.3008 11.5996c28.6992 29.6006 75.2998 34.4004 106.6 7.7002c35.7998 -30.5996 37.7002 -85.5996 5.5 -118.8z" />
    <glyph glyph-name="smile-wink-primary" unicode="&#xf4da;" 
d="M388 225.8c1.7002 -11.0996 -11.4004 -18.2998 -19.7998 -10.7998l-9.7002 8.5c-14.7998 13.2002 -46.2002 13.2002 -61 0l-9.5 -8.5c-8.2998 -7.40039 -21.5996 -0.400391 -19.7998 10.7998c4 25.2002 34.2002 42.1006 59.8994 42.1006
c25.7002 0 55.9004 -16.9004 59.9004 -42.1006zM168 272c17.6641 0 32 -14.3359 32 -32s-14.3359 -32 -32 -32s-32 14.3359 -32 32s14.3359 32 32 32z" />
    <glyph glyph-name="wine-glass-primary" unicode="&#xf4e3;" horiz-adv-x="288" 
d="M211.63 384h-135.21l-12.0098 -134.36c-0.209961 -2.14258 -0.380859 -5.62891 -0.380859 -7.78125c0 -14.5312 7.02051 -35.8018 15.6709 -47.4785c9.78125 -13.2812 30.7568 -27.1025 46.8193 -30.8496c4.76758 -1.10547 12.6074 -2.00293 17.5 -2.00293
c4.89355 0 12.7334 0.897461 17.5 2.00293c16.0674 3.74512 37.0469 17.5664 46.8301 30.8496c8.64844 11.6621 15.666 32.9111 15.666 47.4297c0 2.16602 -0.172852 5.6748 -0.385742 7.83008zM255.74 448c7.98438 -0.0742188 14.9951 -6.5918 15.6494 -14.5498
l16 -178.101c0.334961 -3.64258 0.606445 -9.56934 0.606445 -13.2275c0 -63.4619 -50.1738 -126.6 -111.996 -140.932v-117.19h40c22.0801 0 40 -17.9199 40 -40c0 -4.41602 -3.58398 -8 -8 -8h-208c-4.41602 0 -8 3.58398 -8 8c0 22.0801 17.9199 40 40 40h40v117.18
c-61.8223 14.333 -111.996 77.4707 -111.996 140.933c0 3.6582 0.271484 9.58398 0.606445 13.2275l16 178.11c0.65625 7.98242 7.69043 14.501 15.6992 14.5498h223.431z" />
    <glyph glyph-name="compact-disc-primary" unicode="&#xf51f;" 
d="M248 288c52.9922 0 96 -43.0078 96 -96s-43.0078 -96 -96 -96s-96 43.0078 -96 96s43.0078 96 96 96zM248 160c17.6641 0 32 14.3359 32 32s-14.3359 32 -32 32s-32 -14.3359 -32 -32s14.3359 -32 32 -32z" />
    <glyph glyph-name="store-primary" unicode="&#xf54e;" horiz-adv-x="616" 
d="M602 329.4c33.5996 -53.6006 3.7998 -128 -59 -136.4c-3.73145 -0.49707 -9.81543 -0.900391 -13.5801 -0.900391h-0.120117c-24.4561 0.0263672 -57.5234 14.8555 -73.8096 33.1006c-16.2715 -18.2617 -49.3291 -33.082 -73.7881 -33.082
c-20.7598 0 -50.1943 11.2002 -65.7021 25.002c-2.3623 2.09766 -5.98242 5.7168 -8.08008 8.08008c-16.2812 -18.2568 -49.3486 -33.0732 -73.8105 -33.0732c-20.7998 0 -50.2822 11.2324 -65.8096 25.0732c-2.33594 2.0791 -5.91992 5.66309 -8 8
c-16.2607 -18.2715 -49.3086 -33.1006 -73.7676 -33.1006h-0.0419922h-0.0078125c-3.7959 0 -9.92969 0.40332 -13.6924 0.900391c-62.6699 8.5 -92.3701 82.9004 -58.79 136.4l64.8301 103.6c5.19238 8.28027 17.3379 15 27.1104 15h0.0595703h404
c9.75879 -0.0126953 21.8857 -6.73242 27.0703 -15z" />
    <glyph glyph-name="angry-primary" unicode="&#xf556;" 
d="M204.6 247.33c6.30273 -1.88379 11.4092 -8.75195 11.4092 -15.3301c0 -8.83203 -7.16797 -16 -16 -16h-0.00878906h-1c0.560547 -2.17188 1.01562 -5.75586 1.01562 -7.99902c0 -17.6641 -14.3359 -32 -32 -32s-32 14.3359 -32 32
c0 7.69238 4.57129 18.1895 10.2041 23.4287l-30.8193 9.24023v0c-6.2959 1.88965 -11.4053 8.75684 -11.4053 15.3301c0 8.83496 7.16992 16.0049 16.0049 16.0049c1.29688 0 3.35742 -0.301758 4.59961 -0.674805zM392.33 260.6l0.00976562 -0.0292969
c0.368164 -1.23438 0.666016 -3.28027 0.666016 -4.56836c0 -6.58105 -5.11914 -13.4502 -11.4258 -15.332l-31.5801 -9.46973c5.50879 -5.22461 9.97949 -15.626 9.97949 -23.2188c0 -17.6641 -14.3359 -32 -32 -32s-32 14.3359 -32 32
c0 2.24902 0.457031 5.8418 1.02051 8.01855c-8.82422 0.0078125 -15.9854 7.17578 -15.9854 16c0 6.56348 5.10059 13.4268 11.3857 15.3203l80 24v0c1.24316 0.374023 3.30664 0.676758 4.60547 0.676758c6.56934 0 13.4346 -5.10547 15.3242 -11.3975z" />
    <glyph glyph-name="dizzy-primary" unicode="&#xf567;" 
d="M395.3 227.3c15.2002 -15.2002 -7.89941 -37.3994 -22.5996 -22.5996l-28.7002 28.7002l-28.7002 -28.7002c-14.7998 -14.7998 -37.7998 7.5 -22.5996 22.5996l28.7002 28.7002l-28.7002 28.7002c-15 15 7.7002 37.5996 22.5996 22.5996l28.7002 -28.7002
l28.7002 28.7002c15 15 37.5996 -7.7002 22.5996 -22.5996l-28.7002 -28.7002zM174.6 256l28.7002 -28.7002c15.2002 -15.2002 -7.89941 -37.3994 -22.5996 -22.5996l-28.7002 28.7002l-28.7002 -28.7002c-14.7998 -14.7998 -37.7998 7.5 -22.5996 22.5996l28.7002 28.7002
l-28.7002 28.7002c-15 15 7.7002 37.5996 22.5996 22.5996l28.7002 -28.7002l28.7002 28.7002c15 15 37.5996 -7.7002 22.5996 -22.5996z" />
    <glyph glyph-name="flushed-primary" unicode="&#xf579;" 
d="M152 248h0.120117c13.1816 -0.0332031 23.8799 -10.7578 23.8799 -23.9395c0 -13.2158 -10.7256 -23.9404 -23.9404 -23.9404s-23.9395 10.7246 -23.9395 23.9404c0 13.1816 10.6982 23.9062 23.8799 23.9395zM344 248h0.120117
c13.1816 -0.0332031 23.8799 -10.7578 23.8799 -23.9395c0 -13.2158 -10.7256 -23.9404 -23.9404 -23.9404s-23.9395 10.7246 -23.9395 23.9404c0 13.1816 10.6982 23.9062 23.8799 23.9395z" />
    <glyph glyph-name="frown-open-primary" unicode="&#xf57a;" 
d="M168 272c17.6641 0 32 -14.3359 32 -32s-14.3359 -32 -32 -32s-32 14.3359 -32 32s14.3359 32 32 32zM328 272c17.6641 0 32 -14.3359 32 -32s-14.3359 -32 -32 -32s-32 14.3359 -32 32s14.3359 32 32 32z" />
    <glyph glyph-name="globe-africa-primary" unicode="&#xf57c;" 
d="M423.5 240c-8.55566 0 -15.5 -6.94434 -15.5 -15.5v0v-6.92969v-0.00195312c0 -5.28809 -3.83984 -11.4961 -8.57031 -13.8584l-15.4297 -7.70996c-1.7998 -0.896484 -4.89355 -1.62402 -6.9043 -1.62402c-2.60059 0 -6.46484 1.17578 -8.62598 2.62402l-18.1699 12.1201
c-2.15723 1.43652 -6.01074 2.60254 -8.60254 2.60254c-1.3877 0 -3.58105 -0.355469 -4.89746 -0.792969l-2.64941 -0.879883c-5.86133 -1.93652 -10.6172 -8.5166 -10.6172 -14.6885c0 -1.37988 0.352539 -3.5625 0.787109 -4.87109
c0.368164 -1.09961 1.1875 -2.77539 1.83008 -3.74023l13.2393 -19.8604c2.53809 -3.80859 8.31348 -6.89941 12.8906 -6.89941h8.20996c8.55566 0 15.5 -6.94434 15.5 -15.5v-11.3398c-0.000976562 -2.85156 -1.39062 -7.01855 -3.10059 -9.30078l-18.7393 -25
c-1.19238 -1.59375 -2.45996 -4.47363 -2.83008 -6.42969l-4.32031 -22.8096c-0.52832 -2.7998 -2.66113 -6.63477 -4.75977 -8.56055c-7.87598 -7.21191 -19.0762 -20.2754 -25 -29.1602l-13 -19.5498c-4.55273 -6.80566 -14.8936 -12.3301 -23.082 -12.3301
c-9.46582 0 -20.5879 6.86816 -24.8281 15.3301c-4.59863 9.19043 -8.33008 24.9902 -8.33008 35.2666v0.00390625v29.8896c0 8.55566 -6.94434 15.5 -15.5 15.5h-25.8799c-30.1504 0.00585938 -54.6201 24.4795 -54.6201 54.6299v14.0605
c0.00390625 15.0742 9.79199 34.6523 21.8496 43.6992l27.5801 20.6904c8.03711 6.02734 22.7139 10.9199 32.7607 10.9199h0.00976562h0.889648h0.0195312c7.11426 0 18.0498 -2.58496 24.4102 -5.76953l14.7207 -7.36035
c1.80566 -0.90332 4.90918 -1.63574 6.92871 -1.63574c1.3877 0 3.58398 0.356445 4.90137 0.795898l47.3096 15.7695c5.84277 1.9541 10.585 8.53906 10.585 14.7002c0 8.54785 -6.9375 15.4912 -15.4844 15.5h-10.0908h-0.0390625
c-3.54395 0 -8.4541 2.03418 -10.9609 4.54004l-6.91992 6.91992c-2.50586 2.50586 -7.41602 4.54004 -10.96 4.54004h-0.0400391h-90c-8.53906 0.0166016 -15.4697 6.96094 -15.4697 15.5v4.40039c0.0224609 6.6582 5.28223 13.3779 11.7402 15l14.4502 3.60938
c3.20801 0.804688 7.30273 3.68945 9.13965 6.44043l8.08008 12.1094c2.52832 3.82617 8.30371 6.93555 12.8896 6.94043h24.21c8.55078 0.00585938 15.4902 6.94922 15.4902 15.5v0.00976562v70.4404c106 -13.6504 191 -94.1904 211.34 -197.95h-67.8398z" />
    <glyph glyph-name="globe-americas-primary" unicode="&#xf57d;" 
d="M321.39 150.64l13.71 -13.6396c4.92969 -4.92969 8.93066 -14.5879 8.93066 -21.5596v-0.0400391v-0.0361328c0 -10.6748 -6.14648 -25.4424 -13.7207 -32.9639c-3.89941 -3.88086 -7.98926 -7.9502 -11.3096 -11.2803
c-2.5127 -2.49414 -5.30371 -7.29297 -6.23047 -10.71c-1.50977 -5.66016 -2.76953 -11.3799 -4.76953 -16.8701l-14.1104 -57.6299c-1.81934 -7.53027 -9.51074 -14.5908 -17.1699 -15.7598c-1.73926 -0.260742 -3.47949 -0.490234 -5.22949 -0.700195
c-0.68457 -0.0820312 -1.80078 -0.148438 -2.49023 -0.148438c-11.5908 0 -20.999 9.40723 -21 20.998v29.0703c1.69043 12.6201 -7.62988 36.25 -22.6299 51.25c-5.17188 5.17285 -9.37012 15.3096 -9.37012 22.625v0.00488281v32v0.0859375
c0 10.3828 -7.37402 22.8887 -16.46 27.9141c-14.3701 7.9502 -34.8096 19.0596 -48.8096 26.1104c-9.54199 4.8291 -23.7217 14.5732 -31.6504 21.75l-0.799805 0.719727c-5.67578 5.12305 -13.7666 14.4141 -18.0605 20.7402
c-7.29004 10.6992 -23.9502 35.3799 -35.6699 52.7695c-4.71777 6.99316 -8.54785 19.5146 -8.5498 27.9502v45.71c18.3926 22.4707 54.3496 51.3486 80.2598 64.46l40.5801 -38.6396c3.95215 -3.7627 11.1201 -8.79883 16 -11.2402
c1.86523 -0.933594 5.07227 -1.69043 7.1582 -1.69043c1.24121 0 3.21875 0.27832 4.41211 0.620117c6.39844 1.94727 11.5908 8.9541 11.5908 15.6426c0 0.0517578 0 0.135742 -0.000976562 0.1875c0.00878906 6.18359 5.00781 11.707 11.1602 12.3301
c2.53027 0.270508 5.0498 0.480469 7.58008 0.650391c0.216797 0.0136719 0.569336 0.0244141 0.787109 0.0244141c2.83398 0 6.75977 -1.62793 8.7627 -3.63477l24.4004 -24.4004v0c2.58691 -2.58691 4.6875 -7.65527 4.6875 -11.3145s-2.10059 -8.72852 -4.6875 -11.3154
l-4.69043 -4.67969l-10.3301 -10.3496c-1.29199 -1.29395 -2.34082 -3.82715 -2.34082 -5.65527s1.04883 -4.3623 2.34082 -5.65527l4.69043 -4.68945c1.29199 -1.29395 2.34082 -3.82715 2.34082 -5.65527s-1.04883 -4.3623 -2.34082 -5.65527l-8 -8
c-1.29395 -1.29199 -3.82617 -2.33984 -5.6543 -2.33984h-0.00585938h-9c-1.80566 -0.0185547 -4.30566 -1.07227 -5.58008 -2.34961l-9.91992 -9.65039c-1.33398 -1.2998 -2.41602 -3.86621 -2.41602 -5.72949c0 -1.03613 0.374023 -2.63184 0.835938 -3.56055
l15.5898 -31.1904c0.466797 -0.932617 0.845703 -2.53613 0.845703 -3.5791c0 -4.41406 -3.58203 -7.99805 -7.99609 -8h-5.63965c-1.65234 0.00976562 -4 0.90625 -5.24023 2l-9.2793 8.05957c-2.49121 2.16113 -7.18945 3.91602 -10.4873 3.91602
c-1.4375 0 -3.70996 -0.370117 -5.07324 -0.826172l-31.1699 -10.3896c-4.44922 -1.54688 -8.05957 -6.625 -8.05957 -11.335c0 -4.03711 2.91211 -8.81445 6.5 -10.665l11.0801 -5.54004c7.89746 -3.95215 21.4746 -7.16016 30.3057 -7.16016h0.00390625
c10.5195 0 22.5898 -27.29 32 -32h66.7598h0.015625c7.31055 0 17.4424 -4.19336 22.6143 -9.36035zM477.67 285.73c10.1182 -24.9033 18.3301 -66.9297 18.3301 -93.8096c0 -15.751 -2.88965 -40.9873 -6.4502 -56.3311l-55.6396 29.2197l-20.5205 10.1006
c-3.63184 1.55566 -8.35352 5.48926 -10.54 8.78027l-18 27c-2.22363 3.33691 -4.02832 9.2998 -4.02832 13.3096s1.80469 9.97266 4.02832 13.3096l19.5908 29.3809c1.9541 2.9248 6.09375 6.57617 9.23926 8.14941c7.17773 3.58203 19.4883 7.0498 27.4805 7.74023z" />
    <glyph glyph-name="globe-asia-primary" unicode="&#xf57e;" 
d="M260.07 230.28c-0.572266 0.336914 -1.59668 0.619141 -2.25977 0.619141c-1.39648 0 -3.10352 -0.976562 -3.81055 -2.17969l-17.3398 -28.9502c-2.57227 -4.28809 -8.71875 -7.76953 -13.7197 -7.76953h-0.310547h-0.00292969
c-3.65918 0 -8.72949 -2.10156 -11.3174 -4.69043l-5.65918 -5.65918c-1.29297 -1.29395 -2.3418 -3.82715 -2.3418 -5.65527s1.04883 -4.3623 2.3418 -5.65527l5.65918 -5.66016c2.58789 -2.58496 4.68848 -7.65234 4.69043 -11.3096v-9.37012
c0 -8.83203 -7.16797 -16 -16 -16h-6.09961c-5.44824 0.0117188 -11.8457 3.97656 -14.2803 8.84961l-22.6201 45.2305c-1.21875 2.44824 -4.42676 4.43457 -7.16211 4.43457c-1.83887 0 -4.38281 -1.05957 -5.67773 -2.36426l-19.4697 -19.46
c-2.58594 -2.58789 -7.65234 -4.68848 -11.3105 -4.69043h-111.33c-1.13184 8.78027 -2.0498 23.0908 -2.0498 31.9434v0.0566406c0 137 111 248 248 248h0.158203c17.9219 0 46.5234 -3.74121 63.8418 -8.34961v-34.3809v-0.00976562
c0 -7.69336 -4.98145 -17.7021 -11.1201 -22.3398l-41.4102 -31.2695c-1.96484 -1.31152 -3.56055 -4.29297 -3.56055 -6.65527c0 -2.72949 1.98047 -5.93457 4.4209 -7.15527l10.8301 -5.41016c4.87988 -2.44141 8.83984 -8.85156 8.83984 -14.3086v-0.000976562v-78.1201
c0 -4.41602 -3.58398 -8 -8 -8h-3.05957c-2.72754 0.000976562 -5.93066 1.98145 -7.15039 4.41992c-0.323242 0.65332 -1.09375 1.4873 -1.71973 1.86035zM403.31 125.48c2.58789 -2.58594 4.68848 -7.65332 4.69043 -11.3105v-24.5996
c-0.00195312 -3.6582 -2.10254 -8.72461 -4.69043 -11.3105l-9.56934 -9.56934c-2.58594 -2.58789 -7.65234 -4.68848 -11.3105 -4.69043h-15.1602c-3.67969 0.00195312 -8.76953 2.125 -11.3594 4.74023l-13 13c-4.32617 4.30859 -12.793 7.80566 -18.8984 7.80566
c-1.82812 0 -4.74902 -0.361328 -6.52148 -0.805664l-21.2705 -5.32031c-1.05176 -0.264648 -2.78711 -0.479492 -3.87207 -0.479492h-0.0078125h-10.3398c-3.63477 0.0175781 -8.6709 2.11816 -11.2402 4.68945l-11.9102 11.9102
c-1.29102 1.29297 -2.33984 3.82617 -2.33984 5.65332v0.00683594v10.2002v0.0136719c0 2.97656 2.24023 6.2998 5 7.41602l39.3398 15.7402c1.64551 0.65332 4.15039 2.02051 5.59082 3.0498l23.71 16.8896c1.14844 0.817383 3.22559 1.48047 4.63574 1.48047h0.00390625
h12.1396h0.00292969c2.94727 0 6.25684 -2.20898 7.3877 -4.93066l5.34961 -12.8496c0.566406 -1.35742 2.21973 -2.45898 3.69043 -2.45996h3.7998c1.65625 0 3.37598 1.29004 3.83984 2.87988l4.16016 14.4902c0.463867 1.58984 2.18359 2.87988 3.83984 2.87988h6.05957
c2.20801 0 4 -1.79199 4 -4v-12.9502v-0.00585938c0 -1.82812 1.04883 -4.36035 2.34082 -5.6543z" />
    <glyph glyph-name="grimace-primary" unicode="&#xf57f;" 
d="M168 272c17.6641 0 32 -14.3359 32 -32s-14.3359 -32 -32 -32s-32 14.3359 -32 32s14.3359 32 32 32zM328 272c17.6641 0 32 -14.3359 32 -32s-14.3359 -32 -32 -32s-32 14.3359 -32 32s14.3359 32 32 32z" />
    <glyph glyph-name="grin-primary" unicode="&#xf580;" 
d="M168 272c17.6641 0 32 -14.3359 32 -32s-14.3359 -32 -32 -32s-32 14.3359 -32 32s14.3359 32 32 32zM328 272c17.6641 0 32 -14.3359 32 -32s-14.3359 -32 -32 -32s-32 14.3359 -32 32s14.3359 32 32 32z" />
    <glyph glyph-name="grin-alt-primary" unicode="&#xf581;" 
d="M151.7 311.3c3.24512 4.78223 10.5703 8.66309 16.3496 8.66309s13.1045 -3.88086 16.3506 -8.66309c12.3994 -18.3994 15.0996 -36.8994 15.6992 -55.2998c-0.5 -18.4004 -3.2998 -36.9004 -15.6992 -55.2998c-3.24609 -4.78223 -10.5713 -8.66309 -16.3506 -8.66309
s-13.1045 3.88086 -16.3496 8.66309c-12.4004 18.3994 -15.1006 36.8994 -15.7002 55.2998c0.5 18.4004 3.2998 36.9004 15.7002 55.2998zM344.4 311.3c12.3994 -18.3994 15.0996 -36.8994 15.6992 -55.2998c-0.5 -18.4004 -3.2998 -36.9004 -15.6992 -55.2998
c-3.24609 -4.78223 -10.5713 -8.66309 -16.3506 -8.66309s-13.1045 3.88086 -16.3496 8.66309c-12.4004 18.3994 -15.1006 36.8994 -15.7002 55.2998c0.5 18.4004 3.2998 36.9004 15.7002 55.2998c3.24512 4.78223 10.5703 8.66309 16.3496 8.66309
s13.1045 -3.88086 16.3506 -8.66309z" />
    <glyph glyph-name="grin-beam-primary" unicode="&#xf582;" 
d="M168 296c23.7998 0 52.7002 -29.2998 56 -71.4004c0.700195 -8.59961 -10.7998 -11.8994 -14.9004 -4.5l-9.5 17c-7.69922 13.7002 -19.1992 21.6006 -31.5 21.6006c-12.2998 0 -23.7998 -7.90039 -31.5 -21.6006l-9.5 -17c-4.19922 -7.39941 -15.5996 -4 -14.8994 4.5
c3.09961 42.1006 32 71.4004 55.7998 71.4004zM384 224.6c0.700195 -8.59961 -10.7998 -11.8994 -14.9004 -4.5l-9.5 17c-7.69922 13.7002 -19.1992 21.6006 -31.5 21.6006c-12.2998 0 -23.7998 -7.90039 -31.5 -21.6006l-9.5 -17
c-4.09961 -7.2998 -15.5996 -4 -14.8994 4.5c3.09961 42.1006 32 71.4004 55.7998 71.4004s52.7002 -29.2998 56 -71.4004z" />
    <glyph glyph-name="grin-beam-sweat-primary" unicode="&#xf583;" horiz-adv-x="504" 
d="M462.4 444.8c13.0996 -17.3896 41.5996 -57.7998 41.5996 -77.7998c0 -26 -21.5 -47 -48 -47s-48 21 -48 47c0 20 28.5 60.4102 41.5996 77.7998c0.375 0.508789 1.0918 1.22559 1.60059 1.60059v0c1.17773 0.882812 3.32812 1.59961 4.7998 1.59961
c2.20801 0 5.0752 -1.43359 6.40039 -3.2002zM168 296c23.7998 0 52.7002 -29.3301 56 -71.4004c0.700195 -8.59961 -10.7998 -12 -14.9004 -4.5l-9.5 17c-7.69922 13.6904 -19.1992 21.5908 -31.5 21.5908c-12.2998 0 -23.7998 -7.90039 -31.5 -21.5908l-9.5 -17
c-4.19922 -7.40918 -15.5996 -4 -14.8994 4.5c3.09961 42.0908 32 71.4004 55.7998 71.4004zM328 296c23.7998 0 52.7002 -29.3096 56 -71.4004c0.700195 -8.59961 -10.7998 -12 -14.9004 -4.5l-9.5 17c-7.69922 13.6904 -19.1992 21.5908 -31.5 21.5908
c-12.2998 0 -23.7998 -7.90039 -31.5 -21.5908l-9.5 -17c-4.09961 -7.40918 -15.5996 -4 -14.8994 4.5c3.09961 42.0908 32 71.4004 55.7998 71.4004z" />
    <glyph glyph-name="grin-hearts-primary" unicode="&#xf584;" 
d="M185.9 319.4c1.18555 -0.180664 3.10449 -0.588867 4.25977 -0.910156v0c14.2656 -3.99316 25.8447 -19.2568 25.8447 -34.0713c0 -2.67676 -0.584961 -6.94141 -1.30469 -9.51855l-19.4004 -69.9004c-0.963867 -3.47363 -4.67188 -6.29297 -8.27734 -6.29297
c-0.624023 0 -1.61914 0.131836 -2.22266 0.292969l-70.2002 18.2002c-1.11035 0.288086 -2.87988 0.856445 -3.94922 1.26953c-12.5039 4.85449 -22.6523 19.6807 -22.6523 33.0938c0 3.66699 1.07617 9.41797 2.40234 12.8369
c6.69922 17.5996 26.6992 26.6992 44.8994 21.8994l7.10059 -1.89941l2 7.09961c5 18.0996 22.7998 30.9004 41.5 27.9004zM405.6 264.5c0.430664 -1.11035 1.02246 -2.9668 1.32031 -4.12012v0c0.611328 -2.38574 1.10742 -6.32129 1.10742 -8.78418
c0 -15.1719 -11.9287 -30.5361 -26.627 -34.2959l-70.2002 -18.2002c-0.586914 -0.150391 -1.55469 -0.272461 -2.16016 -0.272461c-3.60449 0 -7.34082 2.81055 -8.33984 6.27246l-19.4004 69.9004c-0.321289 1.15527 -0.729492 3.05469 -0.910156 4.24023v0
c-0.217773 1.44727 -0.395508 3.81055 -0.395508 5.27539c0 16.8057 13.4873 32.4785 30.1055 34.9844c18.6006 3 36.4004 -9.7998 41.5 -27.9004l2 -7.09961l7.10059 1.90039c18.2002 4.69922 38.2002 -4.30078 44.8994 -21.9004z" />
    <glyph glyph-name="grin-squint-primary" unicode="&#xf585;" 
d="M214.2 250.3c3.22461 -1.92773 5.84277 -6.54199 5.84277 -10.2998s-2.61816 -8.37207 -5.84277 -10.2998l-80 -48c-11.5 -6.7998 -24 7.59961 -15.4004 18l33.6006 40.2998l-33.6006 40.2998c-8.59961 10.2998 3.7998 24.9004 15.4004 18zM377.2 199.7
c8.7002 -10.4004 -3.90039 -24.7998 -15.4004 -18l-80 48c-3.18945 1.94824 -5.77734 6.5625 -5.77734 10.2998s2.58789 8.35156 5.77734 10.2998l80 48c11.6006 6.90039 24 -7.7002 15.4004 -18l-33.6006 -40.2998z" />
    <glyph glyph-name="grin-stars-primary" unicode="&#xf587;" 
d="M209.3 279.1c3.6377 -0.563477 6.58887 -4.00781 6.58887 -7.6875c0 -1.78418 -1.02539 -4.25293 -2.28906 -5.51172l-25.3994 -24.6006l6 -34.8994c0.0693359 -0.375 0.125977 -0.988281 0.125977 -1.36914c0 -4.12891 -3.35059 -7.48047 -7.47949 -7.48047
c-1.0752 0 -2.70801 0.425781 -3.64648 0.949219l-31.2002 16.2002l-31.2998 -16.2998c-0.938477 -0.524414 -2.57227 -0.949219 -3.64648 -0.949219c-4.12891 0 -7.48047 3.35059 -7.48047 7.47949c0 0.381836 0.0566406 0.995117 0.126953 1.36914l6 34.9004
l-25.4004 24.5996c-1.26855 1.26953 -2.29883 3.75586 -2.29883 5.55078c0 3.68945 2.95605 7.16113 6.59863 7.74902l34.9004 5l15.5 31.6006c1.16797 2.39844 4.28125 4.3457 6.9502 4.3457c2.66797 0 5.78125 -1.94727 6.9502 -4.3457l15.5 -31.6006zM401.3 279
c3.69922 -0.474609 6.70215 -3.8877 6.70215 -7.61719c0 -1.78027 -1.03125 -4.23633 -2.30176 -5.48242l-25.4004 -24.6006l6 -34.8994c0.0703125 -0.375 0.126953 -0.988281 0.126953 -1.36914c0 -4.12891 -3.35156 -7.48047 -7.48047 -7.48047
c-1.07422 0 -2.70801 0.425781 -3.64648 0.949219l-31.2998 16.2002l-31.3096 -16.3398c-0.938477 -0.524414 -2.57227 -0.949219 -3.64648 -0.949219c-4.12891 0 -7.48047 3.35059 -7.48047 7.47949c0 0.381836 0.0566406 0.995117 0.126953 1.36914l6 34.9004
l-25.4004 24.5996c-0.964844 0.982422 -1.93262 2.88184 -2.16016 4.24023v0.0498047c-0.0546875 0.339844 -0.0986328 0.895508 -0.0986328 1.23926c0 3.67285 2.94238 7.12695 6.56836 7.71094l34.9004 5l15.5 31.5996c1.16797 2.39941 4.28125 4.34668 6.9502 4.34668
c2.66797 0 5.78125 -1.94727 6.9502 -4.34668l15.5 -31.5996z" />
    <glyph glyph-name="grin-tongue-primary" unicode="&#xf589;" 
d="M258.5 55.7197c3.5 15.3994 20.1904 24.0801 34.5898 17.5801c0.799805 -0.399414 -0.5 0.299805 19 -9.2998v-64.7695c-0.421875 -34.9014 -29.0918 -63.2266 -63.9951 -63.2266c-0.24707 0 -0.647461 0.00292969 -0.894531 0.00585938
c-35.1006 0.400391 -63.1006 29.7002 -63.1006 64.9102v63c19.2002 9.59961 18 9 18.9004 9.40039c14.4004 6.5 31.0996 -2.2002 34.5996 -17.6006l1.80078 -7.7998c2.09961 -9.20996 15.1992 -9.20996 17.2998 0zM200 240c0 -17.6641 -14.3359 -32 -32 -32
s-32 14.3359 -32 32s14.3359 32 32 32s32 -14.3359 32 -32zM328 272c17.6641 0 32 -14.3359 32 -32s-14.3359 -32 -32 -32s-32 14.3359 -32 32s14.3359 32 32 32z" />
    <glyph glyph-name="grin-tongue-squint-primary" unicode="&#xf58a;" 
d="M214.2 250.25c3.19922 -1.94238 5.7959 -6.5166 5.7959 -10.2598s-2.59668 -8.35742 -5.7959 -10.2998l-80 -48c-11.5 -6.80078 -24 7.59961 -15.4004 18l33.6006 40.3096l-33.6006 40.25c-8.59961 10.2998 3.7998 24.9004 15.4004 18zM258.5 55.7197
c3.5 15.3994 20.2002 24.1104 34.5898 17.5801c0.799805 -0.399414 -0.5 0.299805 19 -9.2998v-64.7695c-0.421875 -34.9014 -29.0918 -63.2266 -63.9951 -63.2266c-0.24707 0 -0.647461 0.00292969 -0.894531 0.00585938
c-35.1006 0.400391 -63.1006 29.7002 -63.1006 64.9102v63c19.2002 9.59961 18 9 18.9004 9.40039c14.4004 6.5 31.0996 -2.2002 34.5996 -17.6006l1.80078 -7.7998c2.09961 -9.20996 15.1992 -9.20996 17.2998 0zM377.2 199.64v0.0800781
c8.7002 -10.3994 -3.90039 -24.7998 -15.4004 -18l-80 48c-3.22461 1.92871 -5.84277 6.54297 -5.84277 10.2998c0 3.75781 2.61816 8.37207 5.84277 10.3008l80 48c11.7002 6.89941 23.9004 -7.7002 15.4004 -18l-33.6006 -40.3203z" />
    <glyph glyph-name="grin-tongue-wink-primary" unicode="&#xf58b;" 
d="M212 225.74v0.0595703c1.59961 -11.0996 -11.5996 -18.2002 -20 -10.7998l-9.5 8.44043c-14.7998 13.1992 -46.2002 13.1992 -61 0l-9.5 -8.5c-8.5 -7.40039 -21.5996 -0.300781 -19.7998 10.7998c4 25.2598 34.2002 42.1094 59.8994 42.1094
c25.7002 0 55.9004 -16.9092 59.9004 -42.1094zM258.5 55.7402c3.5 15.3994 20.2002 24.0596 34.5898 17.5596c0.799805 -0.399414 -0.5 0.299805 19 -9.2998v-64.75c-0.421875 -34.9014 -29.0918 -63.2266 -63.9951 -63.2266
c-0.24707 0 -0.647461 0.00292969 -0.894531 0.00683594c-35.1006 0.399414 -63.1006 29.7002 -63.1006 64.9102v63c19.2002 9.59961 18 9 18.9004 9.39941c14.4004 6.5 31.0996 -2.2002 34.5996 -17.5996l1.80078 -7.7998c2.09961 -9.2207 15.1992 -9.2207 17.2998 0z
M344 264h0.120117c13.1816 -0.0332031 23.8799 -10.7578 23.8799 -23.9395c0 -13.2158 -10.7256 -23.9404 -23.9404 -23.9404s-23.9395 10.7246 -23.9395 23.9404c0 13.1816 10.6982 23.9062 23.8799 23.9395z" />
    <glyph glyph-name="grin-wink-primary" unicode="&#xf58c;" 
d="M168 272c17.6641 0 32 -14.3359 32 -32s-14.3359 -32 -32 -32s-32 14.3359 -32 32s14.3359 32 32 32zM388 225.8c1.59961 -11 -11.5 -18.2002 -20 -10.7998l-9.5 8.5c-14.7998 13.2002 -46.2002 13.2002 -61 0l-9.5 -8.5
c-8.2998 -7.40039 -21.5996 -0.400391 -19.7998 10.7998c4 25.2002 34.2002 42.1006 59.8994 42.1006c25.7002 0 55.9004 -16.9004 59.9004 -42.1006z" />
    <glyph glyph-name="kiss-primary" unicode="&#xf596;" 
d="M328 272c17.6641 0 32 -14.3359 32 -32s-14.3359 -32 -32 -32s-32 14.3359 -32 32s14.3359 32 32 32zM168 272c17.6641 0 32 -14.3359 32 -32s-14.3359 -32 -32 -32s-32 14.3359 -32 32s14.3359 32 32 32z" />
    <glyph glyph-name="kiss-beam-primary" unicode="&#xf597;" 
d="M384.1 224.6c0.5 -8.5 -10.8994 -12 -15.0996 -4.5l-9.5 17c-7.7002 13.7002 -19.2002 21.6006 -31.5 21.6006s-23.7998 -7.90039 -31.5 -21.6006l-9.5 -17c-4.09961 -7.2998 -15.5996 -4 -14.9004 4.5c3.30078 42.1006 32.2002 71.4004 56 71.4004
c23.8008 0 52.7002 -29.2998 56 -71.4004zM168.1 296c23.8008 0 52.7002 -29.2998 56 -71.4004c0.5 -8.5 -10.8994 -12 -15.0996 -4.5l-9.5 17c-7.7002 13.7002 -19.2002 21.6006 -31.5 21.6006s-23.7998 -7.90039 -31.5 -21.6006l-9.5 -17
c-4.2002 -7.39941 -15.5996 -4 -14.9004 4.5c3.30078 42.1006 32.2002 71.4004 56 71.4004z" />
    <glyph glyph-name="kiss-wink-heart-primary" unicode="&#xf598;" horiz-adv-x="504" 
d="M501.09 45.5c1.59766 -4.06348 2.89453 -10.8877 2.89453 -15.2549c0 -17.8887 -14.0645 -36.0078 -31.3945 -40.4453l-83 -21.5c-0.695312 -0.179688 -1.84277 -0.326172 -2.56152 -0.326172c-4.2627 0 -8.66992 3.32715 -9.83789 7.42676l-22.9004 82.5996
c-0.844727 3.03711 -1.5293 8.06055 -1.5293 11.2129c0 19.8408 15.917 38.3828 35.5293 41.3867c22 3.5 43.0996 -11.5996 49 -33l2.2998 -8.39941l8.40039 2.2002c21.5996 5.59961 45.0996 -5.10059 53.0996 -25.9004zM384.19 231l-9.49023 8.5
c-14.7998 13.2002 -46.2002 13.2002 -61 0l-9.7002 -8.5c-8.2998 -7.40039 -21.5996 -0.400391 -19.7998 10.7998c4 25.2002 34.2002 42.1006 59.8994 42.1006c25.7002 0 55.9004 -16.9004 59.9004 -42.1006c0.0751953 -0.496094 0.136719 -1.30664 0.136719 -1.80859
c0 -6.62402 -5.37598 -12 -12 -12c-2.50781 0 -6.06738 1.34766 -7.94629 3.00879zM168 272c17.6641 0 32 -14.3359 32 -32s-14.3359 -32 -32 -32s-32 14.3359 -32 32s14.3359 32 32 32z" />
    <glyph glyph-name="laugh-primary" unicode="&#xf599;" 
d="M328 288c17.6641 0 32 -14.3359 32 -32s-14.3359 -32 -32 -32s-32 14.3359 -32 32s14.3359 32 32 32zM168 288c17.6641 0 32 -14.3359 32 -32s-14.3359 -32 -32 -32s-32 14.3359 -32 32s14.3359 32 32 32z" />
    <glyph glyph-name="laugh-beam-primary" unicode="&#xf59a;" 
d="M384 240.6c0.700195 -8.59961 -10.7998 -11.8994 -14.9004 -4.5l-9.5 17c-7.69922 13.7002 -19.1992 21.6006 -31.5 21.6006c-12.2998 0 -23.7998 -7.90039 -31.5 -21.6006l-9.5 -17c-4.19922 -7.39941 -15.7998 -4.09961 -15.0996 4.5
c3.2998 42.1006 32.2002 71.4004 56 71.4004s52.7002 -29.2998 56 -71.4004zM168 312c23.7998 0 52.7002 -29.2998 56 -71.4004c0.700195 -8.59961 -10.7998 -11.8994 -14.9004 -4.5l-9.5 17c-7.69922 13.7002 -19.1992 21.6006 -31.5 21.6006
c-12.2998 0 -23.7998 -7.90039 -31.5 -21.6006l-9.5 -17c-4.2998 -7.39941 -15.7998 -4 -15.0996 4.5c3.2998 42.1006 32.2002 71.4004 56 71.4004z" />
    <glyph glyph-name="laugh-squint-primary" unicode="&#xf59b;" 
d="M377.2 227.7c8.7002 -10.4004 -3.90039 -24.7998 -15.4004 -18l-80 48c-3.18945 1.94824 -5.77734 6.5625 -5.77734 10.2998s2.58789 8.35156 5.77734 10.2998l80 48c11.6006 6.90039 24 -7.7002 15.4004 -18l-33.6006 -40.2998zM214.2 278.3
c3.22461 -1.92773 5.84277 -6.54199 5.84277 -10.2998s-2.61816 -8.37207 -5.84277 -10.2998l-80 -48c-11.5 -6.7998 -24 7.59961 -15.4004 18l33.6006 40.2998l-33.6006 40.2998c-8.59961 10.2998 3.7998 24.9004 15.4004 18z" />
    <glyph glyph-name="laugh-wink-primary" unicode="&#xf59c;" 
d="M387.9 241.9c1.69922 -11.1006 -11.4004 -18.3008 -19.8008 -10.8008l-9.5 8.5c-14.7998 13.2002 -46.1992 13.2002 -61 0l-9.59961 -8.59961c-1.88574 -1.65039 -5.4502 -2.99023 -7.95605 -2.99023c-6.66895 0 -12.0801 5.41211 -12.0801 12.0801
c0 0.501953 0.0605469 1.31348 0.135742 1.81055c4 25.1992 34.2002 42.0996 59.9004 42.0996s55.9004 -16.9004 59.9004 -42.0996zM168 288c17.6641 0 32 -14.3359 32 -32s-14.3359 -32 -32 -32s-32 14.3359 -32 32s14.3359 32 32 32z" />
    <glyph glyph-name="meh-blank-primary" unicode="&#xf5a4;" 
d="M168 272c17.6641 0 32 -14.3359 32 -32s-14.3359 -32 -32 -32s-32 14.3359 -32 32s14.3359 32 32 32zM328 272c17.6641 0 32 -14.3359 32 -32s-14.3359 -32 -32 -32s-32 14.3359 -32 32s14.3359 32 32 32z" />
    <glyph glyph-name="meh-rolling-eyes-primary" unicode="&#xf5a5;" 
d="M375 280c0.551758 -2.15625 1 -5.71191 1 -7.9375c0 -17.6641 -14.3359 -32 -32 -32s-32 14.3359 -32 32c0 2.22559 0.448242 5.78125 1 7.9375c7.98535 4.4209 21.873 8.00879 31 8.00879s23.0146 -3.58789 31 -8.00879zM152 288h0.103516
c9.09961 0 22.9404 -3.58398 30.8965 -8c0.551758 -2.15625 1 -5.71191 1 -7.9375c0 -17.6641 -14.3359 -32 -32 -32s-32 14.3359 -32 32c0 2.22559 0.448242 5.78125 1 7.9375c7.95605 4.41602 21.7969 8 30.8965 8h0.103516z" />
    <glyph glyph-name="sad-cry-primary" unicode="&#xf5b3;" 
d="M152.1 267.9c25.7002 0 55.9004 -16.9004 59.9004 -42.1006c0.0751953 -0.493164 0.135742 -1.29883 0.135742 -1.79785c0 -6.62402 -5.37598 -12 -12 -12c-2.50293 0 -6.05859 1.34277 -7.93555 2.99805l-9.7002 8.5c-14.7998 13.2002 -46.2002 13.2002 -61 0l-9.5 -8.5
c-1.87793 -1.65527 -5.43262 -2.99805 -7.93555 -2.99805c-6.62402 0 -12 5.37598 -12 12c0 0.499023 0.0605469 1.30469 0.135742 1.79785c4 25.2002 34.2002 42.1006 59.8994 42.1006zM404 225.8c0.0527344 -0.420898 0.0947266 -1.10645 0.0947266 -1.53027
c0 -3.98828 -2.82031 -8.8125 -6.29492 -10.7695c-1.47559 -0.807617 -4.03906 -1.46289 -5.72168 -1.46289c-2.52637 0 -6.10059 1.37207 -7.97852 3.0625l-9.5 8.5c-14.7998 13.2002 -46.1992 13.2002 -61 0l-9.59961 -8.59961
c-1.87793 -1.65527 -5.43262 -2.99805 -7.93555 -2.99805c-6.62402 0 -12 5.37598 -12 12c0 0.499023 0.0605469 1.30469 0.135742 1.79785c4 25.2002 34.2002 42.1006 59.8994 42.1006c25.7002 0 55.9004 -16.9004 59.9004 -42.1006zM360 176c8.83203 0 16 -7.16797 16 -16
v-180.47c-8.50488 -5.13379 -22.8408 -12.4229 -32 -16.2705v196.74c0 8.83203 7.16797 16 16 16zM136 176c8.83203 0 16 -7.16797 16 -16v-196.74c-9.15918 3.84766 -23.4951 11.1367 -32 16.2705v180.47c0 8.83203 7.16797 16 16 16z" />
    <glyph glyph-name="sad-tear-primary" unicode="&#xf5b4;" 
d="M328 272c17.6641 0 32 -14.3359 32 -32s-14.3359 -32 -32 -32s-32 14.3359 -32 32s14.3359 32 32 32zM145.6 156.8c0.375 0.508789 1.0918 1.22559 1.60059 1.60059c1.17773 0.882812 3.32812 1.59961 4.7998 1.59961c2.20801 0 5.0752 -1.43359 6.40039 -3.2002
c13.0996 -17.3994 41.5996 -57.7998 41.5996 -77.7998c0 -26 -21.5 -47 -48 -47s-48 21 -48 47c0 20 28.5 60.4004 41.5996 77.7998zM168 272c17.6641 0 32 -14.3359 32 -32s-14.3359 -32 -32 -32s-32 14.3359 -32 32s14.3359 32 32 32z" />
    <glyph glyph-name="smile-beam-primary" unicode="&#xf5b8;" 
d="M168 296c23.7998 0 52.7002 -29.2998 55.9805 -71.3799c0.699219 -8.60059 -10.8008 -11.9004 -14.9004 -4.5l-9.5 17c-7.7002 13.7002 -19.2002 21.5996 -31.5 21.5996s-23.7803 -7.89941 -31.4805 -21.5996l-9.5 -17c-4.2998 -7.40039 -15.7998 -4 -15.0996 4.5
c3.32031 42.0996 32.2197 71.3799 56 71.3799zM384.08 224.6c0.599609 -8.59961 -11.0098 -11.8994 -15.1201 -4.5l-9.5 17c-7.7002 13.7002 -19.1797 21.6006 -31.4795 21.6006c-12.3008 0 -23.8008 -7.90039 -31.5 -21.6006l-9.5 -17
c-4.10059 -7.2998 -15.6006 -4 -14.9004 4.5c3.2998 42.1006 32.2002 71.3809 56 71.3809s52.7002 -29.2803 56 -71.3809z" />
    <glyph glyph-name="star-half-alt-primary" unicode="&#xf5c0;" horiz-adv-x="536" 
d="M90.4805 -26.5l25 145.5l-105.78 103c-19 18.5 -8.50977 50.7998 17.7197 54.5996l146.24 21.2002l65.3398 132.4c4.78613 9.82617 17.542 17.8008 28.4717 17.8008c0.0771484 0 0.201172 0 0.27832 -0.000976562v-439.6l-130.82 -68.6006
c-23.4199 -12.2998 -50.9297 7.60059 -46.4492 33.7002z" />
    <glyph glyph-name="surprise-primary" unicode="&#xf5c2;" 
d="M328 272c17.6641 0 32 -14.3359 32 -32s-14.3359 -32 -32 -32s-32 14.3359 -32 32s14.3359 32 32 32zM168 272c17.6641 0 32 -14.3359 32 -32s-14.3359 -32 -32 -32s-32 14.3359 -32 32s14.3359 32 32 32z" />
    <glyph glyph-name="swatchbook-primary" unicode="&#xf5c3;" horiz-adv-x="512" 
d="M160 448c17.6641 0 32 -14.3359 32 -32v-384c0 -52.9922 -43.0078 -96 -96 -96s-96 43.0078 -96 96v384c0 17.6641 14.3359 32 32 32h128zM96 8c13.248 0 24 10.752 24 24s-10.752 24 -24 24s-24 -10.752 -24 -24s10.752 -24 24 -24zM128 192v64h-64v-64h64zM128 320v64
h-64v-64h64z" />
    <glyph glyph-name="tired-primary" unicode="&#xf5c8;" 
d="M214.2 250.3c3.22461 -1.92773 5.84277 -6.54199 5.84277 -10.2998s-2.61816 -8.37207 -5.84277 -10.2998l-80 -48c-11.5 -6.7998 -24 7.59961 -15.4004 18l33.6006 40.2998l-33.6006 40.2998c-8.59961 10.2998 3.7998 24.9004 15.4004 18zM377.2 199.7
c8.7002 -10.4004 -3.90039 -24.7998 -15.4004 -18l-80 48c-3.18945 1.94824 -5.77734 6.5625 -5.77734 10.2998s2.58789 8.35156 5.77734 10.2998l80 48c11.6006 6.90039 24 -7.7002 15.4004 -18l-33.6006 -40.2998z" />
    <glyph glyph-name="wine-glass-alt-primary" unicode="&#xf5ce;" horiz-adv-x="288" 
d="M211.63 384h-135.21l-12.0098 -134.36c-0.209961 -2.14258 -0.380859 -5.62891 -0.380859 -7.78125c0 -14.5312 7.02051 -35.8018 15.6709 -47.4785c9.78125 -13.2812 30.7568 -27.1025 46.8193 -30.8496c4.76758 -1.10547 12.6074 -2.00293 17.5 -2.00293
c4.89355 0 12.7334 0.897461 17.5 2.00293c16.0674 3.74512 37.0469 17.5664 46.8301 30.8496c8.64844 11.6621 15.666 32.9111 15.666 47.4297c0 2.16602 -0.172852 5.6748 -0.385742 7.83008zM255.74 448c7.98438 -0.0742188 14.9951 -6.5918 15.6494 -14.5498
l16 -178.101c0.334961 -3.64258 0.606445 -9.56934 0.606445 -13.2275c0 -63.4619 -50.1738 -126.6 -111.996 -140.932v-117.19h40c22.0801 0 40 -17.9199 40 -40c0 -4.41602 -3.58398 -8 -8 -8h-208c-4.41602 0 -8 3.58398 -8 8c0 22.0801 17.9199 40 40 40h40v117.18
c-61.8223 14.333 -111.996 77.4707 -111.996 140.933c0 3.6582 0.271484 9.58398 0.606445 13.2275l16 178.11c0.65625 7.98242 7.69043 14.501 15.6992 14.5498h223.431z" />
    <glyph glyph-name="car-alt-primary" unicode="&#xf5de;" horiz-adv-x="480" 
d="M438.66 235.67c22.7812 -8.59082 41.3008 -35.3232 41.3398 -59.6699v-48c0 -35.3281 -28.6719 -64 -64 -64h-352c-35.3281 0 -64 28.6719 -64 64v48c0.0390625 24.3467 18.5586 51.0791 41.3398 59.6699l31.1602 77.9297
c15.4014 38.8613 61.8271 70.4014 103.629 70.4014c0.102539 0 0.268555 -0.000976562 0.371094 -0.000976562h127c0.0996094 0 0.261719 0.000976562 0.361328 0.000976562c41.8018 0 88.2275 -31.54 103.629 -70.4014zM131.93 289.83l-19.9297 -49.8301h256
l-19.9297 49.8301c-6.66309 16.6533 -26.6289 30.1699 -44.5654 30.1699h-0.00488281h-127h-0.00488281c-17.9365 0 -37.9023 -13.5166 -44.5654 -30.1699zM80 128.2c19.2002 0 48 -3.19043 48 15.9502c0 19.1396 -28.7998 47.8496 -48 47.8496s-32 -12.7598 -32 -31.9004
c0 -19.1396 12.7998 -31.8994 32 -31.8994zM400 128.2c19.2002 0 32 12.7598 32 31.8994c0 19.1406 -12.7998 31.9004 -32 31.9004s-48 -28.71 -48 -47.8496c0 -19.1406 28.7998 -15.9502 48 -15.9502z" />
    <glyph glyph-name="car-wash-primary" unicode="&#xf5e6;" horiz-adv-x="464" 
d="M424.49 155.09c21.7949 -9.02734 39.4951 -35.499 39.5098 -59.0898v-32c0 -35.3281 -28.6719 -64 -64 -64h-336c-35.3281 0 -64 28.6719 -64 64v32c0.0107422 23.5947 17.7109 50.0713 39.5098 59.0996l5.07031 12.6699l19.9102 49.8203
c15.3955 38.8613 61.8154 70.4004 103.614 70.4004h0.385742h127h0.371094c41.8018 0 88.2275 -31.5391 103.629 -70.4004l19.9297 -49.8301zM123.93 193.82l-13.5293 -33.8203h243.199l-13.5293 33.8301c-6.66309 16.6533 -26.6289 30.1699 -44.5654 30.1699h-0.00488281
h-127v0c-17.9424 0 -37.9092 -13.5205 -44.5703 -30.1797zM72 48.2002c19.2002 0 48 -3.19043 48 15.9502c0 19.1396 -28.7998 47.8496 -48 47.8496s-32 -12.7598 -32 -31.9004c0 -19.1396 12.7998 -31.8994 32 -31.8994zM424 80.0996
c0 19.1406 -12.7998 31.9004 -32 31.9004s-48 -28.71 -48 -47.8496c0 -19.1406 28.7998 -15.9502 48 -15.9502s32 12.7598 32 31.8994z" />
    <glyph glyph-name="do-not-enter-primary" unicode="&#xf5ec;" 
d="M248 440c137 0 248 -111 248 -248s-111 -248 -248 -248s-248 111 -248 248s111 248 248 248zM424 144c8.83203 0 16 7.16797 16 16v64c0 8.83203 -7.16797 16 -16 16h-352c-8.83203 0 -16 -7.16797 -16 -16v-64c0 -8.83203 7.16797 -16 16 -16h352z" />
    <glyph glyph-name="location-circle-primary" unicode="&#xf602;" 
d="M118.36 206.3l207.89 95.9502c19.2002 8 40 -12.7998 32 -32l-96 -207.88c-11.2002 -24 -46.3799 -16 -46.3799 9.58984v88.04h-87.8701c-25.6396 0 -33.6299 35.1396 -9.63965 46.3398v-0.0400391z" />
    <glyph glyph-name="parking-circle-primary" unicode="&#xf615;" 
d="M280 304c44.1602 0 80 -35.8398 80 -80s-35.8398 -80 -80 -80h-48v-48c0 -8.83203 -7.16797 -16 -16 -16h-32c-8.83203 0 -16 7.16797 -16 16v192c0 8.83203 7.16797 16 16 16h96zM280 208c8.83203 0 16 7.16797 16 16s-7.16797 16 -16 16h-48v-32h48z" />
    <glyph glyph-name="parking-circle-slash-primary" unicode="&#xf616;" 
d="M248 440c137 0 248 -111 248 -248s-111 -248 -248 -248s-248 111 -248 248s111 248 248 248zM248 8c39.2559 0.0166016 94.6104 21.5469 123.56 48.0596l-286.39 221.351c-11.6855 -22.1094 -21.1699 -60.3486 -21.1699 -85.3564v-0.0537109
c0 -101.46 82.54 -184 184 -184zM410.83 106.59c11.6855 22.1094 21.1699 60.3486 21.1699 85.3564v0.0537109c0 101.46 -82.54 184 -184 184c-39.2559 -0.0166016 -94.6104 -21.5469 -123.56 -48.0596z" />
    <glyph glyph-name="steering-wheel-primary" unicode="&#xf622;" 
d="M248 376c-101.568 0 -184 -82.4316 -184 -184s82.4316 -184 184 -184s184 82.4316 184 184s-82.4316 184 -184 184zM248 440c137 0 248 -111 248 -248s-111 -248 -248 -248s-248 111 -248 248s111 248 248 248z" />
    <glyph glyph-name="bullseye-arrow-primary" unicode="&#xf648;" 
d="M310 370.3l63.6797 63.7002c3.32227 3.31152 9.8252 5.99902 14.5156 5.99902c8.15332 0 16.8828 -6.27148 19.4844 -13.999l18.5508 -55.6504l55.6592 -18.5498c7.72754 -2.60156 13.999 -11.3311 13.999 -19.4844c0 -4.69043 -2.6875 -11.1934 -5.99902 -14.5156
l-63.5898 -63.7998c-3.32812 -3.33105 -9.84961 -6.03418 -14.5586 -6.03418c-1.82324 0 -4.70898 0.463867 -6.44141 1.03418l-49.7002 16.5703l-90.5996 -90.5703c-3.88672 -3.88672 -11.5029 -7.04199 -17 -7.04199c-13.2705 0 -24.042 10.7715 -24.042 24.042
c0 5.49707 3.15527 13.1133 7.04199 17l90.5898 90.5898l-16.5898 49.7002c-0.572266 1.73438 -1.03613 4.62305 -1.03613 6.44922c0 4.70898 2.7041 11.2324 6.03613 14.5605z" />
    <glyph glyph-name="bullseye-pointer-primary" unicode="&#xf649;" 
d="M242.21 207.35c1.26855 0.361328 3.36719 0.65332 4.68555 0.65332c9.45605 0 17.1299 -7.67383 17.1299 -17.1299c0 -1.32031 -0.293945 -3.42285 -0.655273 -4.69336l-60.8604 -214.18c-4.30957 -15.1699 -25.0801 -17 -31.9102 -2.73047l-32.8799 68.4707
l-89.1494 -89.1504c-2.50879 -2.51172 -7.42578 -4.55078 -10.9756 -4.55078s-8.4668 2.03906 -10.9746 4.55078h-0.0498047l-22 22c-2.53711 2.51367 -4.59668 7.45312 -4.59668 11.0254c0 3.54883 2.03711 8.46582 4.5459 10.9746v0h0.0507812l89.1494 89.1504
l-68.3594 32.8096c-14.25 6.82031 -12.4404 27.6104 2.73926 31.9199l214.131 60.8799h-0.0205078z" />
    <glyph glyph-name="peace-primary" unicode="&#xf67c;" 
d="M248 440c137 0 248 -111 248 -248s-111 -248 -248 -248s-248 111 -248 248s111 248 248 248zM378.11 61.8896l0.399414 0.400391c71.75 71.9697 71.5498 188.479 -0.410156 260.22s-188.47 71.5898 -260.21 -0.410156
c-29.7627 -29.7412 -53.918 -88.0283 -53.918 -130.104s24.1553 -100.363 53.918 -130.105v0c29.749 -29.75 88.0381 -53.8945 130.11 -53.8945s100.361 24.1445 130.11 53.8945z" />
    <glyph glyph-name="star-of-david-primary" unicode="&#xf69a;" horiz-adv-x="464" 
d="M91 137.45l-20 -33.4502h216.85l-33.2793 -56h-217.46c-28.5908 0 -46.4102 30.3799 -32 54.5898l53.21 89.4102zM127.86 199.28l-4.36035 -7.28027l-32.6201 54.6797l109.12 183.32c6.03613 9.93848 20.3721 18.0039 32 18.0039s25.9639 -8.06543 32 -18.0039
l55.9404 -94h-65.1602l-22.7803 38.2197l-22.7402 -38.2393h0.129883l-33.3896 -56h-0.139648zM458.92 102.59c14.4199 -24.21 -3.42969 -54.5898 -32.0303 -54.5898h-107.109l33.2197 56h40l-60.9297 102.07l-44 73.9297h65.21z" />
    <glyph glyph-name="wifi-1-primary" unicode="&#xf6aa;" horiz-adv-x="640" 
d="M320 96c35.2998 0 64 -28.7002 64 -64s-28.7002 -64 -64 -64s-64 28.7002 -64 64s28.7002 64 64 64z" />
    <glyph glyph-name="wifi-2-primary" unicode="&#xf6ab;" horiz-adv-x="640" 
d="M320 96c35.2998 0 64 -28.7002 64 -64s-28.7002 -64 -64 -64s-64 28.7002 -64 64s28.7002 64 64 64zM523.5 178.8c6.09961 -6.2998 6 -16.2998 -0.400391 -22.2998l-34.3994 -34c-6 -6 -15.6006 -6.2998 -22 -0.799805c-83.7998 72.3994 -209.5 72.5996 -293.5 0
c-6.40039 -5.5 -16 -5.10059 -22 0.799805l-34.4004 34c-0.299805 0.200195 -0.5 0.5 -0.799805 0.799805c-5.7002 6.5 -5.09961 16.5 1.40039 22.2998c115.1 101.801 290 101.9 405.3 0z" />
    <glyph glyph-name="yin-yang-primary" unicode="&#xf6ad;" 
d="M248 288c-17.6641 0 -32 14.3359 -32 32s14.3359 32 32 32s32 -14.3359 32 -32s-14.3359 -32 -32 -32zM248 440c137 0 248 -111 248 -248s-111 -248 -248 -248c-68.4482 0 -124 55.5518 -124 124s55.5518 124 124 124s124 55.5518 124 124s-55.5518 124 -124 124zM248 32
c17.6641 0 32 14.3359 32 32s-14.3359 32 -32 32s-32 -14.3359 -32 -32s14.3359 -32 32 -32z" />
    <glyph glyph-name="globe-europe-primary" unicode="&#xf7a2;" 
d="M187.4 290.9c-1.83398 -1.82031 -5.41797 -3.29785 -8 -3.30078h-16c-6.24121 0.00292969 -11.3057 5.07031 -11.3057 11.3105c0 2.58203 1.48047 6.16211 3.30566 7.99023l25.3994 25.3994c1.82812 1.82422 5.40723 3.30566 7.99023 3.30566
c6.24023 0 11.3076 -5.06543 11.3096 -11.3057v-16c-0.00195312 -2.58301 -1.48047 -6.16699 -3.2998 -8zM418.78 100.82c13.2197 -11.8799 21.2197 -28.4404 21.2197 -46.1904v-19.6299c-34.3701 -42.0977 -106.006 -81.9434 -159.9 -88.9404v53.54
c0 8.83203 -7.16797 16 -16 16h-20.1992c-10.8008 0 -26.7002 5.30078 -35.4004 11.8008l-22.2002 16.6992c-10.0459 7.52148 -18.2002 23.8105 -18.2002 36.3604v0.0400391v23.9004v0.000976562c0 14.2197 9.90137 31.6914 22.1006 38.999l42.8994 25.6992
c5.96973 3.55664 16.4521 6.46875 23.4004 6.5h31.2002h0.0078125c9.27539 0 22.5322 -4.88281 29.5918 -10.8994l43.2002 -37.1006h18.2998c7.31152 -0.0117188 17.4365 -4.22363 22.6006 -9.39941l17.2998 -17.2998zM317.62 430.08
c103.09 -30.0801 178.38 -125.26 178.38 -238.08v-0.138672c0 -18.0439 -3.79004 -46.833 -8.45996 -64.2617h-48.6396h-0.0585938c-3.69043 0 -8.77246 2.15039 -11.3418 4.80078l-32 32.5996c-1.85645 1.91406 -3.36328 5.63184 -3.36328 8.29883
c0 2.71289 1.55176 6.47656 3.46289 8.40137l12.5 12.5v8.7002c-0.00195312 2.58203 -1.48047 6.16602 -3.2998 8l-9.39941 9.39941c-1.83398 1.81934 -5.41797 3.29785 -8 3.2998h-16c-6.24121 0.00292969 -11.3057 5.07031 -11.3057 11.3105
c0 2.58203 1.48047 6.16211 3.30566 7.99023l9.39941 9.39941c1.83301 1.81934 5.41699 3.29785 8 3.2998h32c6.21094 0.0273438 11.2725 5.08984 11.2998 11.3008v9.39941c-0.0273438 6.21094 -5.08887 11.2725 -11.2998 11.2998h-36.7002c-8.83203 0 -16 -7.16797 -16 -16
v-4.5v-0.0341797c0 -6.34766 -4.88281 -13.1416 -10.8994 -15.165l-31.6006 -10.5c-3.03516 -0.999023 -5.5 -4.40332 -5.5 -7.59961v-0.000976562v-2.2002c0 -4.41602 -3.58398 -8 -8 -8h-16c-4.41602 0 -8 3.58398 -8 8s-3.58398 8 -8 8h-3.09961
c-2.72363 -0.00976562 -5.94922 -1.98047 -7.2002 -4.39941l-9.39941 -18.7002c-2.43359 -4.85742 -8.81836 -8.7998 -14.252 -8.7998h-0.0488281h-22.0996c-8.83203 0 -16 7.16797 -16 16v25.2998c0.00585938 3.65527 2.1123 8.71777 4.7002 11.2998l20.0996 20.1006
c3.97461 3.99902 7.2002 11.8213 7.2002 17.46v0.0400391v0c0 3.19629 2.46387 6.60059 5.5 7.59961l40 13.2998c1.38379 0.469727 3.35449 1.67969 4.40039 2.7002l26.7998 26.7998c1.82422 1.82812 3.30469 5.40723 3.30469 7.99023
c0 6.24023 -5.06445 11.3076 -11.3047 11.3096h-20.7002l-16 -16v-8c0 -4.41602 -3.58398 -8 -8 -8h-16c-4.41602 0 -8 3.58398 -8 8v20c0.00683594 2.20508 1.44043 5.07227 3.2002 6.40039z" />
    <glyph glyph-name="grip-lines-vertical-primary" unicode="&#xf7a5;" horiz-adv-x="256" 
d="M96 432v-480c0 -8.83203 -7.16797 -16 -16 -16h-32c-8.83203 0 -16 7.16797 -16 16v480c0 8.83203 7.16797 16 16 16h32c8.83203 0 16 -7.16797 16 -16z" />
    <glyph glyph-name="radiation-primary" unicode="&#xf7b9;" 
d="M125.23 -4l80.3994 128.48c10.6992 -6.84375 29.6895 -12.3975 42.3896 -12.3975c12.7012 0 31.6914 5.55371 42.3906 12.3975l80.3799 -128.48c4.7998 -7.59961 2.40039 -18.0996 -5.59961 -22.4004c-30.2783 -16.3398 -82.7744 -29.6016 -117.181 -29.6016
c-34.4053 0 -86.9023 13.2617 -117.18 29.6016c-8 4.30078 -10.4004 14.7002 -5.59961 22.4004zM16.2305 192.18c-9.10059 0 -16.8301 7.7002 -16.2305 16.7002c5.13965 75.79 44.4404 142.18 102.53 184.18c7.39941 5.40039 17.8994 2.90039 22.7002 -4.7998
l80.3896 -128.39c-22.6006 -14.2002 -37.7998 -39.1006 -37.7998 -67.6904h-151.59zM328.23 192.18c0 28.5898 -15.2207 53.5205 -37.8203 67.8203l80.3896 128.36c4.7998 7.69922 15.2998 10.0996 22.7002 4.7998c58.0898 -42 97.3896 -108.391 102.49 -184.18
c0.589844 -9.10059 -7.10059 -16.8008 -16.2002 -16.8008h-151.56z" />
    <glyph glyph-name="radiation-alt-primary" unicode="&#xf7ba;" 
d="M104.9 192c-9.2002 0 -17 7.7002 -15.9004 16.9004c3.94824 36.6494 30.6123 84.957 59.5195 107.83c0.425781 0.348633 1.14746 0.873047 1.61035 1.16992v0c2.19531 1.39453 6.08691 2.52637 8.6875 2.52637c4.91895 0 11.0488 -3.37207 13.6826 -7.52637
l41.7002 -66.8008c-16.6357 -10.2979 -30.165 -34.5342 -30.2002 -54.0996h-79.0996zM312 192c-0.0263672 19.5205 -13.5107 43.7119 -30.0996 54l41.6992 66.7998c0.298828 0.461914 0.823242 1.18359 1.16992 1.61035c2.68652 3.25488 8.29102 5.89648 12.5107 5.89648
c3.21582 0 7.83887 -1.66113 10.3193 -3.70703c32.5 -26 54.9004 -64.1992 59.5 -107.8c0.900391 -9.09961 -6.7998 -16.7998 -16 -16.7998h-79.0996zM172.4 71l41.7998 66.9004c8.54297 -5.46484 23.708 -9.90039 33.8496 -9.90039s25.3066 4.43555 33.8506 9.90039
l41.7998 -66.9004c4.7998 -7.7998 2.39941 -18.4004 -5.7998 -22.5c-18.2031 -9.1084 -49.4961 -16.5 -69.8506 -16.5s-51.6465 7.3916 -69.8496 16.5c-8.2002 4.09961 -10.7002 14.7002 -5.7998 22.5z" />
    <glyph glyph-name="flower-primary" unicode="&#xf7ff;" horiz-adv-x="512" 
d="M336 192c0 -44.1602 -35.8398 -80 -80 -80s-80 35.8398 -80 80s35.8398 80 80 80s80 -35.8398 80 -80z" />
    <glyph glyph-name="french-fries-primary" unicode="&#xf803;" horiz-adv-x="512" 
d="M64 208c0 8.83203 7.16797 16 16 16h34c6.91992 0 13.7002 -4.24023 15.1904 -11c8.59961 -39 62.0898 -69 126.79 -69c64.6992 0 118.199 30 126.8 69c1.48926 6.73047 8.26953 11 15.1895 11h34c8.83203 0 16 -7.16797 16 -16
c-0.000976562 -0.966797 -0.171875 -2.5166 -0.379883 -3.45996l-54.1094 -243.54c-3.0918 -13.7891 -17.0693 -24.9893 -31.2002 -25h-212.55h-0.0253906c-14.1426 0 -28.1318 11.2002 -31.2246 25l-54.1006 243.52
c-0.208984 0.949219 -0.379883 2.50879 -0.379883 3.48047z" />
    <glyph glyph-name="hand-middle-finger-primary" unicode="&#xf806;" horiz-adv-x="512" 
d="M479.93 130.84l0.0703125 -82.8398v0c0 -61.7969 -50.1533 -111.973 -111.95 -112h-215c-25.6074 0.00292969 -61.084 14.7012 -79.1895 32.8096l-30.9307 30.9102c-6.0332 6.03223 -10.9297 17.8525 -10.9297 26.3848v0.00585938v73.4492v0.0429688
c0 12.7383 9.24707 27.7002 20.6396 33.3975l27.3604 15v-76c0 -4.41602 3.58398 -8 8 -8s8 3.58398 8 8v147c0 15.2598 12.8701 28.3799 30.8701 31.3799l30.6797 5.12012c17.8203 3 34.4502 -8.38965 34.4502 -23.54v-32c0 -4.41602 3.58398 -8 8 -8s8 3.58398 8 8v201.5
c0.770508 25.7021 22.2646 46.5625 47.9785 46.5625c0.40332 0 1.05859 -0.00976562 1.46191 -0.0224609v0c26.3096 -0.860352 46.5596 -23.7803 46.5596 -50v-198c0 -4.41602 3.58398 -8 8 -8s8 3.58398 8 8v32c0 15.1396 16.6299 26.4902 34.4502 23.5303
l38.3994 -6.40039c13.46 -2.29004 23.1504 -12.1299 23.1504 -23.5801v-49.5498l35.6504 -9c15.583 -3.89746 28.252 -20.0967 28.2793 -36.1602z" />
    <glyph glyph-name="ice-cream-primary" unicode="&#xf810;" horiz-adv-x="448" 
d="M195.39 -45.6904l-99.3398 205.521h255.95l-99.3896 -205.521c-4.66895 -10.0967 -17.4863 -18.292 -28.6104 -18.292s-23.9414 8.19531 -28.6104 18.292z" />
    <glyph glyph-name="popcorn-primary" unicode="&#xf819;" horiz-adv-x="512" 
d="M64 256h81.5596l28 -256h45.0508l-21.5605 256h117.95l-21.6104 -256h45l28 256h81.6104l-43.9102 -292.73c-2.25 -15.0527 -16.4277 -27.2695 -31.6484 -27.2695h-0.000976562h-232.881h-0.00390625c-15.2109 0 -29.3877 12.208 -31.6455 27.25z" />
    <glyph glyph-name="tree-palm-primary" unicode="&#xf82b;" horiz-adv-x="640" 
d="M607.74 275.14c1.87012 -9.92969 -6.49023 -19.1396 -17.7402 -19.1396h-54l-24 48l-24 -48h-192l-154.55 -154.38c-7.9502 -7.94043 -20.3701 -7.33984 -26.0703 1c-35.3799 51.7803 -21.5596 132.38 35.4404 189.38c3.37988 3.38965 7.17969 6 10.6396 9.08008
l-33.46 66.9199l-24 -48h-54c-11.2305 0 -19.5898 9.20996 -17.75 19.1396c11.6396 61.6201 78.3799 108.86 159 108.86c74.1299 0 135.9 -40.1699 154.51 -94.5c27.9502 18.7598 63.5703 30.5 103 30.5c80.6201 0 147.37 -47.2402 158.98 -108.86z" />
    <glyph glyph-name="send-backward-primary" unicode="&#xf87f;" horiz-adv-x="514" 
d="M160 96h-112c-26.4961 0 -48 21.5039 -48 48v256c0 26.4961 21.5039 48 48 48h256c26.4961 0 48 -21.5039 48 -48v-112h-144c-26.4961 0 -48 -21.5039 -48 -48v-144z" />
    <glyph glyph-name="skull-cow-primary" unicode="&#xf8de;" horiz-adv-x="640" 
d="M416 352c35.3281 0 64 -28.6719 64 -64v-128c0 -35.3281 -28.6719 -64 -64 -64l-26.9004 -134.28c-2.84082 -14.1973 -16.8984 -25.7197 -31.377 -25.7197h-0.00292969h-75.5293h-0.0107422c-14.4834 0 -28.542 11.5273 -31.3799 25.7305l-26.7998 134.27
c-35.3281 0 -64 28.6719 -64 64v128c0 35.3281 28.6719 64 64 64h192zM240 160c17.6641 0 32 14.3359 32 32s-14.3359 32 -32 32s-32 -14.3359 -32 -32s14.3359 -32 32 -32zM400 160c17.6641 0 32 14.3359 32 32s-14.3359 32 -32 32s-32 -14.3359 -32 -32
s14.3359 -32 32 -32z" />
    <glyph glyph-name="wagon-covered-primary" unicode="&#xf8ee;" horiz-adv-x="640" 
d="M560 192c8.83203 0 16 -7.16797 16 -16v-32c0 -8.83203 -7.16797 -16 -16 -16h-17.79c-18.002 17.6641 -53.0811 31.999 -78.3018 31.999c-25.5869 0 -61.0273 -14.6934 -79.1084 -32.7988c-25.9502 -25.96 -36.1201 -61.46 -31.2695 -95.2002h-67.0605
c4.85059 33.7402 -5.31934 69.2002 -31.2695 95.2002c-18.0811 18.1055 -53.5215 32.7988 -79.1084 32.7988c-25.2207 0 -60.2998 -14.335 -78.3018 -31.999h-17.79c-8.83203 0 -16 7.16797 -16 16v32c0 8.83203 7.16797 16 16 16h480zM416 408v-184h-32v184
c0 4.41602 3.58398 8 8 8h16c4.41602 0 8 -3.58398 8 -8zM256 408v-184h-32v184c0 4.41602 3.58398 8 8 8h16c4.41602 0 8 -3.58398 8 -8z" />
    <glyph glyph-name="times-secondary" unicode="&#x10f00d;" horiz-adv-x="352" 
d="M9.20996 91.9297l100.07 100.07l66.7197 -66.7197l-100.07 -100.07c-5.08594 -5.08301 -15.0488 -9.20898 -22.2393 -9.20898c-7.19141 0 -17.1543 4.12598 -22.2402 9.20898l-22.2402 22.2402c-5.08301 5.08594 -9.20898 15.0488 -9.20898 22.2402
c0 7.19043 4.12598 17.1533 9.20898 22.2393zM342.79 336.55c5.08301 -5.08594 9.20898 -15.0488 9.20898 -22.2402c0 -7.19043 -4.12598 -17.1533 -9.20898 -22.2393l-100.07 -100.07l-66.7197 66.7197l100.07 100.07c5.08594 5.08301 15.0488 9.20898 22.2393 9.20898
c7.19141 0 17.1543 -4.12598 22.2402 -9.20898z" />
    <glyph glyph-name="step-backward-secondary" unicode="&#x10f048;" horiz-adv-x="448" 
d="M144 155.29v-171.29c0 -8.83203 -7.16797 -16 -16 -16h-48c-8.83203 0 -16 7.16797 -16 16v416c0 8.83203 7.16797 16 16 16h48c8.83203 0 16 -7.16797 16 -16v-244.7v-0.00976562z" />
    <glyph glyph-name="step-forward-secondary" unicode="&#x10f051;" horiz-adv-x="448" 
d="M304 228.71v171.29c0 8.83203 7.16797 16 16 16h48c8.83203 0 16 -7.16797 16 -16v-416c0 -8.83203 -7.16797 -16 -16 -16h-48c-8.83203 0 -16 7.16797 -16 16v244.7v0.00976562z" />
    <glyph glyph-name="globe-secondary" unicode="&#x10f0ac;" 
d="M340.45 128h-184.9c-1.95801 17.6094 -3.54688 46.2812 -3.54688 64s1.58887 46.3906 3.54688 64h184.9c1.95898 -17.5527 3.5498 -46.1338 3.5498 -63.7959v-0.204102v-0.204102c0 -17.6621 -1.59082 -46.2432 -3.5498 -63.7959zM160.2 288
c0.410156 2.30957 0.799805 4.62012 1.33008 6.91016c5.96973 30.8496 14.4697 58.3701 25.1299 81.7803c9.84961 21.54 21.3398 38.7695 33.3398 49.8291c9.62012 8.9502 19.0596 13.4805 28 13.4805s18.3799 -4.53027 28.0498 -13.4805
c11.9502 -11.0596 23.4902 -28.2891 33.3398 -49.8291c10.71 -23.4102 19.1299 -50.9307 25.1299 -81.7803c0.44043 -2.29004 0.870117 -4.60059 1.28027 -6.91016h-175.6zM120 192v-0.262695c0 -17.6396 1.50098 -46.1943 3.34961 -63.7373h-115
c-4.60742 17.3633 -8.34668 46.0352 -8.34668 64s3.73926 46.6367 8.34668 64h114.99c-1.84375 -17.5166 -3.33984 -46.0293 -3.33984 -63.6426v-0.357422zM487.62 256c4.60742 -17.3633 8.3877 -46.0352 8.3877 -64s-3.74023 -46.6367 -8.34766 -64h-115
c1.84375 17.5166 3.33984 46.0293 3.33984 63.6426v0.357422c-0.000976562 17.7129 -1.51465 46.3848 -3.37988 64h115zM476.7 288h-108.37c-9.86035 59.5303 -28.6201 109.68 -52.75 142.68c63.376 -18.0293 135.558 -81.9492 161.12 -142.68zM315.58 -46.6797
c24.1299 33 42.8896 83.1494 52.75 142.68h108.38c-25.5615 -60.7354 -97.7471 -124.656 -161.13 -142.68zM335.8 96c-0.410156 -2.30957 -0.799805 -4.62012 -1.28027 -6.91016c-5.96973 -30.8496 -14.4199 -58.3701 -25.1299 -81.7803
c-9.84961 -21.54 -21.3398 -38.7695 -33.3398 -49.8291c-9.66992 -8.9502 -19.1094 -13.4805 -28.0498 -13.4805s-18.3799 4.48047 -28.0498 13.4805c-11.96 11.0596 -23.4902 28.2891 -33.3398 49.8291c-10.71 23.4102 -19.1299 50.9307 -25.1299 81.7803
c-0.44043 2.29004 -0.870117 4.60059 -1.28027 6.91016h175.6zM180.42 430.68c-24.1299 -33 -42.8896 -83.1494 -52.75 -142.68h-108.38c25.5615 60.7354 97.7471 124.656 161.13 142.68zM19.29 96h108.38c9.86035 -59.5303 28.6201 -109.68 52.75 -142.68
c-63.3828 18.0234 -135.568 81.9443 -161.13 142.68z" />
    <glyph glyph-name="filter-secondary" unicode="&#x10f0b0;" horiz-adv-x="512" 
d="M505 407l-185 -184.93v-262.07c0 -19.5098 -22 -30.71 -37.7598 -19.6602l-80 56c-5.65137 3.95508 -10.2393 12.7627 -10.2402 19.6602v206l-185 185c-15 15.1299 -4.30957 41 17 41h464c21.3301 0 32 -25.9004 17 -41z" />
    <glyph glyph-name="smile-secondary" unicode="&#x10f118;" 
d="M248 440c137 0 248 -111 248 -248s-111 -248 -248 -248s-248 111 -248 248s111 248 248 248zM328 272c-17.6641 0 -32 -14.3359 -32 -32s14.3359 -32 32 -32s32 14.3359 32 32s-14.3359 32 -32 32zM168 272c-17.6641 0 -32 -14.3359 -32 -32s14.3359 -32 32 -32
s32 14.3359 32 32s-14.3359 32 -32 32zM362.8 101.8c13.5 16.2998 -11.2002 36.7002 -24.5996 20.5c-19.4463 -23.2939 -59.8564 -42.1992 -90.2002 -42.1992s-70.7539 18.9053 -90.2002 42.1992c-13.5996 16.2002 -38.2002 -4.2002 -24.5996 -20.5
c24.7256 -29.6982 76.1562 -53.8008 114.8 -53.8008s90.0742 24.1025 114.8 53.8008z" />
    <glyph glyph-name="frown-secondary" unicode="&#x10f119;" 
d="M248 440c137 0 248 -111 248 -248s-111 -248 -248 -248s-248 111 -248 248s111 248 248 248zM328 272c-17.6641 0 -32 -14.3359 -32 -32s14.3359 -32 32 -32s32 14.3359 32 32s-14.3359 32 -32 32zM168 272c-17.6641 0 -32 -14.3359 -32 -32s14.3359 -32 32 -32
s32 14.3359 32 32s-14.3359 32 -32 32zM338.2 53.7998c13.5 -16.2998 38.0996 4.2002 24.5 20.4004c-24.7197 29.7051 -76.1465 53.8135 -114.792 53.8135c-38.6016 0 -89.9902 -24.0635 -114.708 -53.7139c-13.5 -16.2998 11.0996 -36.7998 24.5996 -20.5
c19.4463 23.2939 59.8564 42.1992 90.2002 42.1992s70.7539 -18.9053 90.2002 -42.1992z" />
    <glyph glyph-name="meh-secondary" unicode="&#x10f11a;" 
d="M248 440c137 0 248 -111 248 -248s-111 -248 -248 -248s-248 111 -248 248s111 248 248 248zM168 272c-17.6641 0 -32 -14.3359 -32 -32s14.3359 -32 32 -32s32 14.3359 32 32s-14.3359 32 -32 32zM344 80c21.2002 0 21.2002 32 0 32h-192c-21.2002 0 -21.2002 -32 0 -32
h192zM328 208c17.6641 0 32 14.3359 32 32s-14.3359 32 -32 32s-32 -14.3359 -32 -32s14.3359 -32 32 -32z" />
    <glyph glyph-name="level-up-secondary" unicode="&#x10f148;" horiz-adv-x="352" 
d="M68 16h84v292.69l40 43.2295l40 -43.21v-348.71c0 -13.248 -10.752 -24 -24 -24h-196c-6.61816 0.00585938 -11.9893 5.38184 -11.9893 12c0 2.74121 1.57227 6.54004 3.50879 8.48047l56 56c1.93848 1.94043 5.7373 3.51758 8.48047 3.51953z" />
    <glyph glyph-name="compass-secondary" unicode="&#x10f14e;" 
d="M248 440c137 0 248 -111 248 -248s-111 -248 -248 -248s-248 111 -248 248s111 248 248 248zM374.14 291.95c7.60938 16.6494 -9.56934 33.7998 -26.2295 26.2002l-144.34 -66c-5.97461 -2.73145 -13.0391 -9.7959 -15.7705 -15.7705l-66 -144.35
c-7.60938 -16.6504 9.5498 -33.8105 26.2002 -26.2002l144.37 66c5.97363 2.73047 13.0391 9.7959 15.7695 15.7695z" />
    <glyph glyph-name="dollar-sign-secondary" unicode="&#x10f155;" horiz-adv-x="288" 
d="M176 384h-64v48c0 8.83203 7.16797 16 16 16h32c8.83203 0 16 -7.16797 16 -16v-48zM112 0h64v-48c0 -8.83203 -7.16797 -16 -16 -16h-32c-8.83203 0 -16 7.16797 -16 16v48z" />
    <glyph glyph-name="moon-secondary" unicode="&#x10f186;" horiz-adv-x="512" 
 />
    <glyph glyph-name="university-secondary" unicode="&#x10f19c;" horiz-adv-x="512" 
d="M160 256v-192h64v192h64v-192h64v192h64v-192h36c6.62402 0 12 -5.37598 12 -12v-20h-416v20c0 6.62402 5.37598 12 12 12h36v192h64z" />
    <glyph glyph-name="wifi-secondary" unicode="&#x10f1eb;" horiz-adv-x="640" 
 />
    <glyph glyph-name="ship-secondary" unicode="&#x10f21a;" horiz-adv-x="640" 
d="M594.3 0.110352h-0.0595703c8.09961 -0.900391 13.8994 -8.32031 13.7402 -16.3203v-31.6299c0 -9.10059 -7.60059 -16.7998 -16.7002 -16c-23.4893 2.0791 -58.9443 13.6465 -79.1406 25.8203c-55 -34.1309 -135.489 -34.6309 -192 0
c-55 -34.1309 -135.479 -34.6309 -192 0c-23.3193 -14.5107 -50.6299 -23.4209 -79.4395 -25.9209c-9.10059 -0.80957 -16.7002 6.89062 -16.7002 16v32.2305c0 7.91016 5.7002 14.9199 13.5996 15.7197c21.7207 2.2998 42.2207 10.21 57.7207 22.4199
c13.8096 10.9102 33.6201 13.21 47.1201 2c38.3193 -31.6992 107.25 -31.8301 145.25 -1.69922c13.71 10.9092 33.21 13.0098 46.71 1.7998c38.5098 -31.9307 107.84 -31.9307 145.75 -1.5c5.84473 4.6416 16.6455 8.4082 24.1094 8.4082s18.2656 -3.7666 24.1104 -8.4082
c15.7998 -12.4102 36.3994 -20.5205 57.9297 -22.9199zM192 320v-87.5303l-64 -20.5801v140.11c0 17.6641 14.3359 32 32 32h64v40c0 13.248 10.752 24 24 24h144c13.248 0 24 -10.752 24 -24v-40h64c17.6641 0 32 -14.3359 32 -32v-140.11l-64 20.5801v87.5303h-256z" />
    <glyph glyph-name="venus-secondary" unicode="&#x10f221;" horiz-adv-x="288" 
d="M144 192c-44.1602 0 -80 35.8398 -80 80s35.8398 80 80 80s80 -35.8398 80 -80s-35.8398 -80 -80 -80z" />
    <glyph glyph-name="genderless-secondary" unicode="&#x10f22d;" horiz-adv-x="288" 
d="M144 112c-44.1602 0 -80 35.8398 -80 80s35.8398 80 80 80s80 -35.8398 80 -80s-35.8398 -80 -80 -80z" />
    <glyph glyph-name="user-circle-secondary" unicode="&#x10f2bd;" 
d="M248 440c137 0 248 -111 248 -248s-111 -248 -248 -248s-248 111 -248 248s111 248 248 248zM248 344c-48.5762 0 -88 -39.4238 -88 -88s39.4238 -88 88 -88s88 39.4238 88 88s-39.4238 88 -88 88zM248 0c49.1875 0.0195312 114.819 30.5732 146.5 68.2002
c-18.7998 35.3994 -55.5996 59.7998 -98.5 59.7998c-2.00391 -0.0166016 -5.18457 -0.508789 -7.09961 -1.09961c-10.9678 -3.80957 -29.291 -6.90039 -40.9004 -6.90039s-29.9326 3.09082 -40.9004 6.90039c-1.91504 0.59082 -5.0957 1.08301 -7.09961 1.09961
c-42.9004 0 -79.7002 -24.4004 -98.5 -59.7998c31.6807 -37.627 97.3125 -68.1807 146.5 -68.2002z" />
    <glyph glyph-name="usd-circle-secondary" unicode="&#x10f2e8;" 
d="M248 440c137 0 248 -111 248 -248s-111 -248 -248 -248s-248 111 -248 248s111 248 248 248zM272 64c37.5996 0.200195 68.2002 32.0996 68 71.4004c0 31.5996 -20.2002 59.7998 -49.2002 68.5996l-72 21.9004c-8.89941 2.7998 -15.2002 12.0996 -15.2002 22.6992
c0 12.9004 9.2002 23.4004 20.5 23.4004h45h0.125c5.86426 0 14.7246 -2.41895 19.7754 -5.40039c6.40039 -3.7998 14.2998 -3.5 19.7002 1.60059l12 11.2998c7.7002 7.09961 6.39941 19.2998 -2.2998 25.2002c-11.6152 7.82812 -32.4023 14.5938 -46.4004 15.0996v16.2002
c0 8.83203 -7.16797 16 -16 16h-16c-8.83203 0 -16 -7.16797 -16 -16v-16c-37.5996 -0.0996094 -68.2002 -32.0996 -68.2002 -71.4004c0 -31.5996 20.2002 -59.7998 49.2002 -68.5996l72.2002 -21.9004c8.89941 -2.7998 15.2002 -12.0996 15.2002 -22.6992
c0 -12.9004 -9.2002 -23.4004 -20.5 -23.4004h-45h-0.125c-5.86426 0 -14.7246 2.41895 -19.7754 5.40039c-6.40039 3.7998 -14.2998 3.5 -19.7002 -1.60059l-12 -11.2998c-7.7002 -7.09961 -6.39941 -19.2998 2.2998 -25.2002
c11.6152 -7.82812 32.4023 -14.5938 46.4004 -15.0996v-16.2002c0 -8.83203 7.16797 -16 16 -16h16c8.83203 0 16 7.16797 16 16v16z" />
    <glyph glyph-name="scrubber-secondary" unicode="&#x10f2f8;" 
d="M248 440c137 0 248 -111 248 -248s-111 -248 -248 -248s-248 111 -248 248s111 248 248 248zM248 128c35.3281 0 64 28.6719 64 64s-28.6719 64 -64 64s-64 -28.6719 -64 -64s28.6719 -64 64 -64z" />
    <glyph glyph-name="arrow-alt-down-secondary" unicode="&#x10f354;" horiz-adv-x="448" 
d="M288 392v-200h-128.12v200c0 13.248 10.752 24 24 24h80.1201c13.248 0 24 -10.752 24 -24z" />
    <glyph glyph-name="arrow-alt-up-secondary" unicode="&#x10f357;" horiz-adv-x="448" 
d="M160 -8v200h128.11v-200c0 -13.248 -10.752 -24 -24 -24h-80.1104c-13.248 0 -24 10.752 -24 24z" />
    <glyph glyph-name="baseball-ball-secondary" unicode="&#x10f433;" 
d="M441.77 346.9h-0.109375c29.9746 -37.4961 54.3027 -106.889 54.3027 -154.894c0 -47.8359 -24.1758 -117.037 -53.9629 -154.467c-14.9141 14.2812 -34.4424 40.8975 -43.5898 59.4102l-28.6504 -14.25c10.6377 -21.4844 33.3779 -52.3203 50.7598 -68.8301
c-96.0195 -93.04 -248.529 -93.1797 -344.729 -0.320312c17.5703 16.792 40.4717 48.1523 51.1201 70l0.0898438 0.19043l-28.7197 14.0498l-0.110352 -0.240234c-9.16211 -18.8105 -28.834 -45.8516 -43.9102 -60.3594c-29.9502 37.4805 -54.2588 106.839 -54.2588 154.816
c0 47.8145 24.1602 116.986 53.9287 154.403c14.9023 -14.2578 34.4258 -40.8291 43.5801 -59.3105l28.6104 14.2002c-10.6318 21.4688 -33.3545 52.2871 -50.7197 68.79c96 93.0498 248.51 93.2402 344.729 0.410156
c-17.5811 -16.8096 -40.4912 -48.2012 -51.1396 -70.0703l-0.0898438 -0.189453l28.75 -14l0.119141 0.240234c9.17969 18.834 28.8916 45.9023 44 60.4199zM139.25 113.51c7.03809 20.8965 12.75 55.751 12.75 77.7998v0.170898v0.0830078
c0 22.7314 -6.0166 58.6191 -13.4297 80.1064l-30.2607 -10.4004c6.45312 -18.7207 11.6904 -49.9873 11.6904 -69.7891v-0.116211c0 -19.1729 -4.96387 -49.4824 -11.0801 -67.6543zM357.38 112.37l30.2197 10.3994c-6.45312 18.6855 -11.6904 49.8936 -11.6904 69.6611
c0 19.2402 4.96875 49.6592 11.0908 67.8994l-30.29 10.2002c-7.04688 -20.9785 -12.7656 -55.9658 -12.7656 -78.0967c0 -22.7197 6.01855 -58.5889 13.4355 -80.0635z" />
    <glyph glyph-name="basketball-ball-secondary" unicode="&#x10f434;" 
d="M216 437.95c0 -0.162109 0.000976562 -0.424805 0.000976562 -0.586914c0 -43.6768 -23.1982 -105.928 -51.7812 -138.953l-79.8896 79.8896c31.3027 27.584 90.291 54.3076 131.67 59.6504zM186.89 275.74c33.7334 38.2119 61.1113 110.594 61.1113 161.565
c0 0.191406 0 0.50293 -0.000976562 0.694336v2h0.351562c51.5088 0 124.676 -27.6416 163.318 -61.7002l-163.67 -163.67zM280 -54c-0.000976562 0.170898 -0.000976562 0.447266 -0.000976562 0.618164c0 43.6816 23.1982 105.94 51.7812 138.972l79.8896 -79.8896
c-31.2979 -27.5996 -90.2861 -54.3457 -131.67 -59.7002zM434.3 355.67c34.0586 -38.6426 61.7002 -111.81 61.7002 -163.318v-0.351562h-2c-0.186523 0.000976562 -0.489258 0.000976562 -0.675781 0.000976562c-50.9756 0 -123.366 -27.3779 -161.584 -61.1113
l-61.1104 61.1104zM434.3 28.3301l-79.8398 79.8896c33.0254 28.583 95.2764 51.7812 138.953 51.7812c0.162109 0 0.424805 -0.000976562 0.586914 -0.000976562c-5.35449 -41.3838 -32.1006 -100.372 -59.7002 -131.67zM309.11 108.26
c-33.7334 -38.2119 -61.1113 -110.594 -61.1113 -161.565c0 -0.191406 0 -0.50293 0.000976562 -0.694336v-2h-0.351562c-51.5088 0 -124.676 27.6416 -163.318 61.7002l163.67 163.67zM61.7002 355.67l79.8896 -79.8896
c-33.0254 -28.583 -95.2764 -51.7812 -138.953 -51.7812c-0.162109 0 -0.424805 0.000976562 -0.586914 0.000976562c5.34277 41.3789 32.0664 100.367 59.6504 131.67zM164.26 253.11l61.1104 -61.1104l-163.67 -163.67c-34.0586 38.6426 -61.7002 111.81 -61.7002 163.318
v0.351562h2c0.191406 -0.000976562 0.50293 -0.000976562 0.694336 -0.000976562c50.9717 0 123.354 27.3779 161.565 61.1113z" />
    <glyph glyph-name="bowling-ball-secondary" unicode="&#x10f436;" 
d="M232 208c-17.6641 0 -32 14.3359 -32 32s14.3359 32 32 32s32 -14.3359 32 -32s-14.3359 -32 -32 -32zM216 384c17.6641 0 32 -14.3359 32 -32s-14.3359 -32 -32 -32s-32 14.3359 -32 32s14.3359 32 32 32zM120 256c-17.6641 0 -32 14.3359 -32 32s14.3359 32 32 32
s32 -14.3359 32 -32s-14.3359 -32 -32 -32z" />
    <glyph glyph-name="football-ball-secondary" unicode="&#x10f44e;" 
d="M0 119.59c0 16.8633 2.57617 44.0381 5.75 60.6006l230.44 -230.44c-16.5625 -3.17383 -43.6904 -5.75 -60.5537 -5.75h-0.046875h-1.53027l-174.06 174.06v1.53027zM496 265.94v-1.53027v-0.046875c0 -16.8633 -2.57617 -43.9912 -5.75 -60.5537l-230.44 230.44
c16.5625 3.17383 43.6904 5.75 60.5537 5.75h0.046875h1.53027z" />
    <glyph glyph-name="tennis-ball-secondary" unicode="&#x10f45e;" 
d="M267 370.5c1.5 -47.0996 -21.5996 -101.6 -58.7002 -138.7c-37.0996 -37.2998 -91.2998 -60.5996 -138.7 -58.7998c-19.3799 0.490234 -63.8994 -3 -58.8799 -53.3096c-5.91699 19.4717 -10.7197 51.792 -10.7197 72.1436v0.166016
c0 3.63965 0.0996094 7.25977 0.25 10.8604c18.6699 12.79 42.9697 19.4297 70.8496 18.2393c78.9004 -1.89941 150.101 76.6006 147.9 147.801c-0.900391 27.7793 5.5498 52.1797 18.2402 70.8496c3.56934 0.160156 7.14941 0.25 10.7598 0.25h0.18457
c20.2344 0 52.377 -4.75293 71.7451 -10.6104c-49.9297 4.7002 -53.5195 -39.6299 -52.9297 -58.8896zM485.26 264.37c5.92871 -19.4785 10.7402 -51.8125 10.7402 -72.1729v-0.197266c0 -3.58008 -0.0898438 -7.15039 -0.240234 -10.6904
c-18.5898 -12.7393 -43.0293 -19.21 -70.8594 -18.3096c-71.5 2.59961 -150.301 -70.4004 -147.9 -147.9c0.900391 -27.7793 -5.5498 -52.1895 -18.3398 -70.8594c-3.54004 -0.150391 -7.08984 -0.240234 -10.6602 -0.240234h-0.180664
c-20.3564 0 -52.6836 4.80664 -72.1592 10.7305c50.21 -4.85059 53.9297 39.4795 53.3398 58.8691c-1.5 47.1006 21.5 101.5 58.7002 138.7s91.8994 60.7002 138.7 58.7998c19.21 -0.399414 63.8594 3.04004 58.8594 53.2705z" />
    <glyph glyph-name="heart-circle-secondary" unicode="&#x10f4c7;" 
d="M248 440c137 0 248 -111 248 -248s-111 -248 -248 -248s-248 111 -248 248s111 248 248 248zM371.5 167.7c32.2002 33.2002 30.2998 88.2002 -5.5 118.8c-31.2998 26.7002 -77.9004 21.9004 -106.6 -7.7002l-11.3008 -11.5996l-11.2998 11.5996
c-28.7002 29.6006 -75.2998 34.4004 -106.6 7.7002c-35.9004 -30.5996 -37.7998 -85.5996 -5.7002 -118.8l110.5 -114.2c0.200195 -0.209961 0.410156 -0.419922 0.620117 -0.620117v0c2.8584 -2.72168 8.38281 -4.93164 12.3301 -4.93164
c4.23047 0 10.0322 2.4873 12.9502 5.55176z" />
    <glyph glyph-name="smile-wink-secondary" unicode="&#x10f4da;" 
d="M248 440c137 0 248 -111 248 -248s-111 -248 -248 -248s-248 111 -248 248s111 248 248 248zM168 272c-17.6641 0 -32 -14.3359 -32 -32s14.3359 -32 32 -32s32 14.3359 32 32s-14.3359 32 -32 32zM362.8 101.7c13.5 16.2998 -11 36.7002 -24.5996 20.5
c-19.4463 -23.2939 -59.8564 -42.1992 -90.2002 -42.1992s-70.7539 18.9053 -90.2002 42.1992c-13.3994 16.2998 -38.0996 -4.10059 -24.5996 -20.4004c24.7412 -29.6943 76.1904 -53.7949 114.842 -53.7949c38.6074 0 90.0186 24.0557 114.758 53.6953zM368.2 215
c8.39941 -7.5 21.5 -0.299805 19.7998 10.7998c-4 25.2002 -34.2002 42.1006 -59.9004 42.1006c-25.6992 0 -55.8994 -16.9004 -59.8994 -42.1006c-1.7998 -11.2002 11.5 -18.2002 19.7998 -10.7998l9.5 8.5c14.7998 13.2002 46.2002 13.2002 61 0z" />
    <glyph glyph-name="wine-glass-secondary" unicode="&#x10f4e3;" horiz-adv-x="288" 
d="M208.35 194.38c-9.7832 -13.2832 -30.7627 -27.1045 -46.8301 -30.8496c-4.7666 -1.10547 -12.6064 -2.00293 -17.5 -2.00293c-4.89258 0 -12.7324 0.897461 -17.5 2.00293c-16.0625 3.74707 -37.0381 17.5684 -46.8193 30.8496
c-8.65039 11.6768 -15.6709 32.9473 -15.6709 47.4785c0 2.15234 0.170898 5.63867 0.380859 7.78125l12.0098 134.36h135.21l12 -134.36c0.212891 -2.15527 0.385742 -5.66406 0.385742 -7.83008c0 -14.5186 -7.01758 -35.7676 -15.666 -47.4297z" />
    <glyph glyph-name="compact-disc-secondary" unicode="&#x10f51f;" 
d="M248 440c137 0 248 -111 248 -248s-111 -248 -248 -248s-248 111 -248 248s111 248 248 248zM88 192c0 88.2002 71.7998 160 160 160v32c-105.9 0 -192 -86.0996 -192 -192h32zM248 96c52.9922 0 96 43.0078 96 96s-43.0078 96 -96 96s-96 -43.0078 -96 -96
s43.0078 -96 96 -96z" />
    <glyph glyph-name="store-secondary" unicode="&#x10f54e;" horiz-adv-x="616" 
d="M547.69 161.2c4.6084 0.620117 11.9551 2.23242 16.3994 3.59961v-196.8c0 -17.6641 -14.3359 -32 -32 -32h-448.09c-17.6641 0 -32 14.3359 -32 32v196.8c4.45996 -1.2959 11.8076 -2.90918 16.4004 -3.59961c4.94336 -0.662109 13.0039 -1.2002 17.9922 -1.2002
h0.0078125c8.2627 0.130859 21.4834 1.83301 29.5098 3.7998v-99.7998h384.09v99.7998c8.02148 -2.00879 21.2412 -3.71094 29.5098 -3.7998c5.04004 0 13.1846 0.538086 18.1807 1.2002z" />
    <glyph glyph-name="angry-secondary" unicode="&#x10f556;" 
d="M248 440c137 0 248 -111 248 -248s-111 -248 -248 -248s-248 111 -248 248s111 248 248 248zM136 208c0.0351562 -17.6289 14.3711 -31.9375 32 -31.9375c17.6641 0 32 14.3369 32 32c0 2.22559 -0.448242 5.78125 -1 7.9375h1h0.0185547c8.83203 0 16 7.16797 16 16
c0 6.57812 -5.11523 13.4463 -11.4189 15.3301l-80 24c-1.24219 0.373047 -3.30273 0.674805 -4.59961 0.674805c-8.83496 0 -16.0049 -7.16992 -16.0049 -16.0049c0 -6.57324 5.10938 -13.4404 11.4053 -15.3301l30.8193 -9.24023
c-5.6416 -5.22168 -10.2197 -15.6992 -10.2197 -23.3867v-0.0429688zM304.32 53.9502c13.4697 -16.04 38.4893 3.97949 24.6602 20.4102c-17.5225 20.79 -53.8105 37.6641 -81 37.6641c-27.1904 0 -63.4785 -16.874 -81 -37.6641
c-13.6602 -16.2305 11.1494 -36.6406 24.7197 -20.4102c28.0303 33.2598 84.6895 33.2598 112.62 0zM381.6 240.67h-0.00976562c6.29297 1.88867 11.4004 8.75488 11.4004 15.3252c0 8.83203 -7.16797 16 -16 16c-1.29688 0 -3.3584 -0.302734 -4.60059 -0.674805l-80 -24
c-6.28418 -1.89355 -11.3848 -8.75684 -11.3848 -15.3203c0 -8.8291 7.16602 -15.9971 15.9951 -16c-0.563477 -2.17676 -1.02051 -5.76953 -1.02051 -8.01855c0 -17.6641 14.3359 -32 32 -32s32 14.3359 32 32c0 7.59277 -4.4707 17.9941 -9.97949 23.2188z" />
    <glyph glyph-name="dizzy-secondary" unicode="&#x10f567;" 
d="M248 440c137 0 248 -111 248 -248s-111 -248 -248 -248s-248 111 -248 248s111 248 248 248zM152 233.4l28.7002 -28.7002c14.7002 -14.7998 37.7998 7.39941 22.5996 22.5996l-28.7002 28.7002l28.7002 28.7002c15 14.8994 -7.59961 37.5996 -22.5996 22.5996
l-28.7002 -28.7002l-28.7002 28.7002c-14.8994 15 -37.5996 -7.59961 -22.5996 -22.5996l28.7002 -28.7002l-28.7002 -28.7002c-15.2002 -15.0996 7.7998 -37.3994 22.5996 -22.5996zM248 32c35.3281 0 64 28.6719 64 64s-28.6719 64 -64 64s-64 -28.6719 -64 -64
s28.6719 -64 64 -64zM372.7 204.7c14.7002 -14.7998 37.7998 7.39941 22.5996 22.5996l-28.7002 28.7002l28.7002 28.7002c15 14.8994 -7.59961 37.5996 -22.5996 22.5996l-28.7002 -28.7002l-28.7002 28.7002c-14.8994 15 -37.5996 -7.59961 -22.5996 -22.5996
l28.7002 -28.7002l-28.7002 -28.7002c-15.2002 -15.0996 7.7998 -37.3994 22.5996 -22.5996l28.7002 28.7002z" />
    <glyph glyph-name="flushed-secondary" unicode="&#x10f579;" 
d="M248 440c137 0 248 -111 248 -248s-111 -248 -248 -248s-248 111 -248 248s111 248 248 248zM80 224c0 -39.7441 32.2559 -72 72 -72s72 32.2559 72 72s-32.2559 72 -72 72s-72 -32.2559 -72 -72zM312 48c21.2002 0 21.2002 32 0 32h-128c-21.2002 0 -21.2002 -32 0 -32
h128zM344 152c39.7441 0 72 32.2559 72 72s-32.2559 72 -72 72s-72 -32.2559 -72 -72s32.2559 -72 72 -72z" />
    <glyph glyph-name="frown-open-secondary" unicode="&#x10f57a;" 
d="M248 440c137 0 248 -111 248 -248s-111 -248 -248 -248s-248 111 -248 248s111 248 248 248zM136 240c0 -17.6641 14.3359 -32 32 -32s32 14.3359 32 32s-14.3359 32 -32 32s-32 -14.3359 -32 -32zM323.3 56.7002c1.28125 -0.398438 3.40918 -0.72168 4.75098 -0.72168
c8.83203 0 16 7.16797 16 16c0 0.785156 -0.112305 2.04883 -0.250977 2.82129c-7 39.9004 -60.0996 61.2002 -95.7998 61.2002s-88.7998 -21.2002 -95.7998 -61.2002c-0.138672 -0.772461 -0.250977 -2.03613 -0.250977 -2.82129c0 -8.83203 7.16797 -16 16 -16
c1.3418 0 3.46973 0.323242 4.75098 0.72168c31.2002 9.59961 59.3994 15.2998 75.2998 15.2998s44.0996 -5.7002 75.2998 -15.2998zM328 208c17.6641 0 32 14.3359 32 32s-14.3359 32 -32 32s-32 -14.3359 -32 -32s14.3359 -32 32 -32z" />
    <glyph glyph-name="globe-africa-secondary" unicode="&#x10f57c;" 
d="M491.33 240c2.5752 -13.123 4.66699 -34.627 4.66992 -48c0 -137 -111 -248 -248 -248s-248 111 -248 248s111 248 248 248h0.0566406c8.85254 0 23.1631 -0.917969 31.9434 -2.0498v-70.4404v-0.00976562c0 -8.55078 -6.93945 -15.4941 -15.4902 -15.5h-24.21
c-4.58594 -0.00488281 -10.3613 -3.11426 -12.8896 -6.94043l-8.08008 -12.1094c-1.83691 -2.75098 -5.93164 -5.63574 -9.13965 -6.44043l-14.4502 -3.60938c-6.45801 -1.62207 -11.7178 -8.3418 -11.7402 -15v-4.40039c0 -8.53906 6.93066 -15.4834 15.4697 -15.5h90
h0.0400391c3.54395 0 8.4541 -2.03418 10.96 -4.54004l6.91992 -6.91992c2.50684 -2.50586 7.41699 -4.54004 10.9609 -4.54004h0.0390625h10.0908c8.54688 -0.00878906 15.4844 -6.95215 15.4844 -15.5c0 -6.16113 -4.74219 -12.7461 -10.585 -14.7002l-47.3096 -15.7695
c-1.31738 -0.439453 -3.51367 -0.795898 -4.90137 -0.795898c-2.01953 0 -5.12305 0.732422 -6.92871 1.63574l-14.7207 7.36035c-6.36035 3.18457 -17.2959 5.76953 -24.4102 5.76953h-0.0195312h-0.889648h-0.00976562c-10.0469 0 -24.7236 -4.89258 -32.7607 -10.9199
l-27.5801 -20.6904c-12.0576 -9.04688 -21.8457 -28.625 -21.8496 -43.6992v-14.0605c0 -30.1504 24.4697 -54.624 54.6201 -54.6299h25.8799c8.55566 0 15.5 -6.94434 15.5 -15.5v-29.8896v-0.00390625c0 -10.2764 3.73145 -26.0762 8.33008 -35.2666
c4.24023 -8.46191 15.3623 -15.3301 24.8281 -15.3301c8.18848 0 18.5293 5.52441 23.082 12.3301l13 19.5498c5.92383 8.88477 17.124 21.9482 25 29.1602c2.09863 1.92578 4.23145 5.76074 4.75977 8.56055l4.32031 22.8096
c0.370117 1.95605 1.6377 4.83594 2.83008 6.42969l18.7393 25c1.70996 2.28223 3.09961 6.44922 3.10059 9.30078v11.3398c0 8.55566 -6.94434 15.5 -15.5 15.5h-8.20996c-4.57715 0 -10.3525 3.09082 -12.8906 6.89941l-13.2393 19.8604
c-0.642578 0.964844 -1.46191 2.64062 -1.83008 3.74023c-0.43457 1.30859 -0.787109 3.49121 -0.787109 4.87109c0 6.17188 4.75586 12.752 10.6172 14.6885l2.64941 0.879883c1.31641 0.4375 3.50977 0.792969 4.89746 0.792969
c2.5918 0 6.44531 -1.16602 8.60254 -2.60254l18.1699 -12.1201c2.16113 -1.44824 6.02539 -2.62402 8.62598 -2.62402c2.01074 0 5.10449 0.727539 6.9043 1.62402l15.4297 7.70996c4.73047 2.3623 8.57031 8.57031 8.57031 13.8584v0.00195312v6.92969v0
c0 8.55566 6.94434 15.5 15.5 15.5h67.8301z" />
    <glyph glyph-name="globe-americas-secondary" unicode="&#x10f57d;" 
d="M489.55 135.59c-25.5498 -109.81 -123.96 -191.59 -241.55 -191.59c-137 0 -248 111 -248 248v0.385742c0 48.752 25.0879 118.915 56 156.614v-45.71c0.00195312 -8.43555 3.83203 -20.957 8.5498 -27.9502c11.7197 -17.3896 28.3799 -42.0703 35.6699 -52.7695
c4.29395 -6.32617 12.3848 -15.6172 18.0605 -20.7402l0.799805 -0.719727c7.92871 -7.17676 22.1084 -16.9209 31.6504 -21.75c14 -7.05078 34.4395 -18.1602 48.8096 -26.1104c9.08594 -5.02539 16.46 -17.5312 16.46 -27.9141v-0.0859375v-32v-0.00488281
c0 -7.31543 4.19824 -17.4521 9.37012 -22.625c15 -15 24.3203 -38.6299 22.6299 -51.25v-29.0703c0.000976562 -11.5908 9.40918 -20.998 21 -20.998c0.689453 0 1.80566 0.0664062 2.49023 0.148438c1.75 0.209961 3.49023 0.439453 5.22949 0.700195
c7.65918 1.16895 15.3506 8.22949 17.1699 15.7598l14.1104 57.6299c2 5.49023 3.25977 11.21 4.76953 16.8701c0.926758 3.41699 3.71777 8.21582 6.23047 10.71c3.32031 3.33008 7.41016 7.39941 11.3096 11.2803c7.57422 7.52148 13.7207 22.2891 13.7207 32.9639
v0.0361328v0.0400391c0 6.97168 -4.00098 16.6299 -8.93066 21.5596l-13.71 13.6699c-5.16895 5.15039 -15.2871 9.33008 -22.584 9.33008h-0.0458984h-66.7598c-9.41016 4.70996 -21.4805 32 -32 32h-0.00390625c-8.83105 0 -22.4082 3.20801 -30.3057 7.16016
l-11.0801 5.54004c-3.58789 1.85059 -6.5 6.62793 -6.5 10.665c0 4.70996 3.61035 9.78809 8.05957 11.335l31.1699 10.3896c1.36328 0.456055 3.63574 0.826172 5.07324 0.826172c3.29785 0 7.99609 -1.75488 10.4873 -3.91602l9.2793 -8.05957
c1.24023 -1.09375 3.58789 -1.99023 5.24023 -2h5.63965c4.41406 0.00195312 7.99609 3.58594 7.99609 8c0 1.04297 -0.378906 2.64648 -0.845703 3.5791l-15.5898 31.1904c-0.461914 0.928711 -0.835938 2.52441 -0.835938 3.56055
c0 1.86328 1.08203 4.42969 2.41602 5.72949l9.91992 9.65039c1.27441 1.27734 3.77441 2.33105 5.58008 2.34961h9h0.00585938c1.82812 0 4.36035 1.04785 5.6543 2.33984l8 8c1.29199 1.29297 2.34082 3.82715 2.34082 5.65527s-1.04883 4.36133 -2.34082 5.65527
l-4.69043 4.68945c-1.29199 1.29297 -2.34082 3.82715 -2.34082 5.65527s1.04883 4.36133 2.34082 5.65527l10.3301 10.3496l4.69043 4.67969c2.58691 2.58691 4.6875 7.65625 4.6875 11.3154s-2.10059 8.72754 -4.6875 11.3145v0l-24.4004 24.4004
c-2.00293 2.00684 -5.92871 3.63477 -8.7627 3.63477c-0.217773 0 -0.570312 -0.0107422 -0.787109 -0.0244141c-2.53027 -0.169922 -5.0498 -0.379883 -7.58008 -0.650391c-6.15234 -0.623047 -11.1514 -6.14648 -11.1602 -12.3301
c0.000976562 -0.0517578 0.000976562 -0.135742 0.000976562 -0.1875c0 -6.68848 -5.19238 -13.6953 -11.5908 -15.6426c-1.19336 -0.341797 -3.1709 -0.620117 -4.41211 -0.620117c-2.08594 0 -5.29297 0.756836 -7.1582 1.69043
c-4.87988 2.44141 -12.0479 7.47754 -16 11.2402l-40.5801 38.6396c28.9971 14.6504 78.8975 26.54 111.385 26.54h0.355469c103.83 0 192.71 -63.7598 229.67 -154.27l-36.5098 -3.15039c-7.99219 -0.69043 -20.3027 -4.1582 -27.4805 -7.74023
c-3.14551 -1.57324 -7.28516 -5.22461 -9.23926 -8.14941l-19.5908 -29.3809c-2.22363 -3.33691 -4.02832 -9.2998 -4.02832 -13.3096s1.80469 -9.97266 4.02832 -13.3096l18 -27c2.18652 -3.29102 6.9082 -7.22461 10.54 -8.78027l20.5205 -10.1006z" />
    <glyph glyph-name="globe-asia-secondary" unicode="&#x10f57e;" 
d="M312 431.65c106 -28.21 184 -124.78 184 -239.65c0 -137 -111 -248 -248 -248c-126.16 0 -230.26 94.1201 -245.95 216h111.33h0.00292969c3.66016 0 8.73047 2.10156 11.3174 4.69043l19.4697 19.46c0.513672 0.516602 1.45898 1.20215 2.11035 1.5293v0
c0.927734 0.460938 2.52148 0.834961 3.55762 0.834961c2.73535 0 5.94336 -1.98633 7.16211 -4.43457l22.6201 -45.2305c2.43457 -4.87305 8.83203 -8.83789 14.2803 -8.84961h6.09961c8.83203 0 16 7.16797 16 16v9.37012
c-0.00195312 3.65723 -2.10254 8.72461 -4.69043 11.3096l-5.65918 5.66016c-1.29297 1.29297 -2.3418 3.82715 -2.3418 5.65527s1.04883 4.36133 2.3418 5.65527l5.65918 5.65918c2.58789 2.58887 7.6582 4.69043 11.3174 4.69043h0.00292969h0.310547h0.0263672
c4.98926 0 11.1279 3.46777 13.7031 7.74023l17.3398 29v0c0.708984 1.19336 2.41211 2.16113 3.7998 2.16113c0.670898 0 1.68359 -0.27832 2.26074 -0.621094c0.625977 -0.373047 1.39648 -1.20703 1.71973 -1.86035c1.21973 -2.43848 4.42285 -4.41895 7.15039 -4.41992
h3.05957c4.41602 0 8 3.58398 8 8v78.1201v0.000976562c0 5.45703 -3.95996 11.8672 -8.83984 14.3086l-10.8301 5.41016c-2.44043 1.2207 -4.4209 4.42578 -4.4209 7.15527c0 2.3623 1.5957 5.34375 3.56055 6.65527l41.4102 31.2695
c6.13867 4.6377 11.1201 14.6465 11.1201 22.3398v0.00976562v34.3809zM408 89.5703v24.5996c-0.0126953 3.6416 -2.11426 8.68555 -4.69043 11.2598l-11.9092 11.9102c-1.29199 1.29297 -2.34082 3.82617 -2.34082 5.6543v0.00585938v13c0 2.20801 -1.79199 4 -4 4
h-6.05957c-1.65625 0 -3.37598 -1.29004 -3.83984 -2.87988l-4.16016 -14.4902c-0.463867 -1.58984 -2.18359 -2.87988 -3.83984 -2.87988h-3.7998c-1.4707 0.000976562 -3.12402 1.10254 -3.69043 2.45996l-5.34961 12.8496
c-1.13086 2.72168 -4.44043 4.93066 -7.3877 4.93066h-0.00292969h-12.1396h-0.00390625c-1.41016 0 -3.4873 -0.663086 -4.63574 -1.48047l-23.71 -16.8896c-1.44043 -1.0293 -3.94531 -2.39648 -5.59082 -3.0498l-39.3398 -15.7402
c-2.75977 -1.11621 -5 -4.43945 -5 -7.41602v-0.0136719v-10.2002v-0.00683594c0 -1.82715 1.04883 -4.36035 2.33984 -5.65332l11.9102 -11.9102c2.56934 -2.57129 7.60547 -4.67188 11.2402 -4.68945h10.3398h0.0078125c1.08496 0 2.82031 0.214844 3.87207 0.479492
l21.2705 5.32031c1.77246 0.444336 4.69336 0.805664 6.52148 0.805664c6.10547 0 14.5723 -3.49707 18.8984 -7.80566l13 -13c2.58984 -2.61523 7.67969 -4.73828 11.3594 -4.74023h15.1602c3.6582 0.00195312 8.72461 2.10254 11.3105 4.69043l9.56934 9.56934
c2.58789 2.58594 4.68848 7.65234 4.69043 11.3105z" />
    <glyph glyph-name="grimace-secondary" unicode="&#x10f57f;" 
d="M248 440c137 0 248 -111 248 -248s-111 -248 -248 -248s-248 111 -248 248s111 248 248 248zM144 48v40h-40v-8c0 -17.6641 14.3359 -32 32 -32h8zM144 104v40h-8c-17.6641 0 -32 -14.3359 -32 -32v-8h40zM136 240c0 -17.6641 14.3359 -32 32 -32s32 14.3359 32 32
s-14.3359 32 -32 32s-32 -14.3359 -32 -32zM208 48v40h-48v-40h48zM208 104v40h-48v-40h48zM272 48v40h-48v-40h48zM272 104v40h-48v-40h48zM336 48v40h-48v-40h48zM336 104v40h-48v-40h48zM328 208c17.6641 0 32 14.3359 32 32s-14.3359 32 -32 32s-32 -14.3359 -32 -32
s14.3359 -32 32 -32zM392 80v8h-40v-40h8c17.6641 0 32 14.3359 32 32zM392 104v8c0 17.6641 -14.3359 32 -32 32h-8v-40h40z" />
    <glyph glyph-name="grin-secondary" unicode="&#x10f580;" 
d="M248 440c137 0 248 -111 248 -248s-111 -248 -248 -248s-248 111 -248 248s111 248 248 248zM328 272c-17.6641 0 -32 -14.3359 -32 -32s14.3359 -32 32 -32s32 14.3359 32 32s-14.3359 32 -32 32zM168 272c-17.6641 0 -32 -14.3359 -32 -32s14.3359 -32 32 -32
s32 14.3359 32 32s-14.3359 32 -32 32zM391.8 109.3c1.90039 11.7998 -9.39941 21.6006 -20.7002 17.9004c-30.1992 -9.7002 -75.0996 -15.2002 -123.1 -15.2002s-92.9004 5.5 -123.1 15.2002c-1.32617 0.428711 -3.53223 0.776367 -4.92578 0.776367
c-8.83203 0 -16 -7.16797 -16 -16c0 -0.743164 0.100586 -1.94336 0.225586 -2.67676c9.2998 -55 83.2002 -93.2998 143.8 -93.2998s134.5 38.2998 143.8 93.2998z" />
    <glyph glyph-name="grin-alt-secondary" unicode="&#x10f581;" 
d="M248 440c137 0 248 -111 248 -248s-111 -248 -248 -248s-248 111 -248 248s111 248 248 248zM311.7 311.3c-12.4004 -18.3994 -15.2002 -36.8994 -15.7002 -55.2998c0.599609 -18.4004 3.2998 -36.9004 15.7002 -55.2998
c3.24512 -4.78223 10.5703 -8.66309 16.3496 -8.66309s13.1045 3.88086 16.3506 8.66309c12.3994 18.3994 15.1992 36.8994 15.6992 55.2998c-0.599609 18.4004 -3.2998 36.9004 -15.6992 55.2998c-3.24609 4.78223 -10.5713 8.66309 -16.3506 8.66309
s-13.1045 -3.88086 -16.3496 -8.66309zM151.7 311.3c-12.4004 -18.3994 -15.2002 -36.8994 -15.7002 -55.2998c0.599609 -18.4004 3.2998 -36.9004 15.7002 -55.2998c3.24512 -4.78223 10.5703 -8.66309 16.3496 -8.66309s13.1045 3.88086 16.3506 8.66309
c12.3994 18.3994 15.1992 36.8994 15.6992 55.2998c-0.599609 18.4004 -3.2998 36.9004 -15.6992 55.2998c-3.24609 4.78223 -10.5713 8.66309 -16.3506 8.66309s-13.1045 -3.88086 -16.3496 -8.66309zM391.8 109.3c0.125 0.733398 0.225586 1.93359 0.225586 2.67676
c0 8.83203 -7.16797 16 -16 16c-1.39355 0 -3.59961 -0.347656 -4.92578 -0.776367c-30.1992 -9.7002 -75.0996 -15.2002 -123.1 -15.2002s-92.9004 5.5 -123.1 15.2002c-1.32617 0.428711 -3.53223 0.776367 -4.92578 0.776367c-8.83203 0 -16 -7.16797 -16 -16
c0 -0.743164 0.100586 -1.94336 0.225586 -2.67676c9.2998 -55 83.2002 -93.2998 143.8 -93.2998s134.5 38.2998 143.8 93.2998z" />
    </font>
</defs>
</svg>
