<?xml version="1.0" standalone="no"?>
<!--
Font Awesome Pro 5.10.0 by @fontawesome - https://fontawesome.com
License - https://fontawesome.com/license (Commercial License)
-->
<!DOCTYPE svg PUBLIC "-//W3C//DTD SVG 1.1//EN" "http://www.w3.org/Graphics/SVG/1.1/DTD/svg11.dtd" >
<svg xmlns="http://www.w3.org/2000/svg" xmlns:xlink="http://www.w3.org/1999/xlink" version="1.1">
<metadata>
Created by FontForge 20190112 at Mon Jul 29 10:01:46 2019
 By Robert Madole
Copyright (c) Font Awesome
</metadata>
<defs>
<font id="FontAwesome5Pro-Light" horiz-adv-x="448" >
  <font-face 
    font-family="Font Awesome 5 Pro Light"
    font-weight="300"
    font-stretch="normal"
    units-per-em="512"
    panose-1="2 0 3 3 0 0 0 0 0 0"
    ascent="448"
    descent="-64"
    bbox="-7.14551 -71.1455 640.144 449"
    underline-thickness="25"
    underline-position="-51"
    unicode-range="U+0020-F89D"
  />
    <missing-glyph />
    <glyph glyph-name="font" unicode="&#xf031;" 
d="M424 0c4.41602 0 8 -3.58398 8 -8v-16c0 -4.41602 -3.58398 -8 -8 -8h-112c-4.41602 0 -8 3.58398 -8 8v16c0 4.41602 3.58398 8 8 8h41.5303l-44.3105 128h-170.439l-44.2998 -128h41.5195c4.41602 0 8 -3.58398 8 -8v-16c0 -4.41602 -3.58398 -8 -8 -8h-112
c-4.41602 0 -8 3.58398 -8 8v16c0 4.41602 3.58398 8 8 8h36.5996l140.28 405.23c2.05664 5.94434 8.83008 10.7695 15.1201 10.7695h16h0.00878906c6.29102 0 13.0654 -4.8252 15.1211 -10.7695l140.271 -405.23h36.5996zM149.86 160h148.279l-74.1396 214.2z" />
    <glyph glyph-name="bold" unicode="&#xf032;" horiz-adv-x="384" 
d="M306 213.88c43.1211 -18.2471 78.1172 -71.0576 78.1172 -117.88c0 -70.6562 -57.3438 -128 -128 -128h-0.117188h-216c-4.41602 0 -8 3.58398 -8 8v16c0 4.41602 3.58398 8 8 8h24v384h-24c-4.41602 0 -8 3.58398 -8 8v16c0 4.41602 3.58398 8 8 8h200
c61.8242 0 112 -50.1758 112 -112c0 -37.1104 -18.2598 -69.7402 -46 -90.1201zM96 384v-160h144c44.1602 0 80 35.8398 80 80s-35.8398 80 -80 80h-144zM256 0c52.9922 0 96 43.0078 96 96s-43.0078 96 -96 96h-160v-192h160z" />
    <glyph glyph-name="italic" unicode="&#xf033;" horiz-adv-x="320" 
d="M320 408v-16c0 -4.41602 -3.58398 -8 -8 -8h-87.5l-96 -384h87.5c4.41602 0 8 -3.58398 8 -8v-16c0 -4.41602 -3.58398 -8 -8 -8h-208c-4.41602 0 -8 3.58398 -8 8v16c0 4.41602 3.58398 8 8 8h87.5l96 384h-87.5c-4.41602 0 -8 3.58398 -8 8v16c0 4.41602 3.58398 8 8 8
h208c4.41602 0 8 -3.58398 8 -8z" />
    <glyph glyph-name="text-height" unicode="&#xf034;" horiz-adv-x="576" 
d="M560 80c15.6396 0 20.6396 -18 11.3203 -27.3203l-80 -80c-2.58691 -2.58691 -7.65625 -4.6875 -11.3154 -4.6875s-8.72754 2.10059 -11.3145 4.6875l-80 80c-10.0205 10 -3 27.3203 11.3096 27.3203h64v224h-64c-15.6396 0 -20.6396 18 -11.3203 27.3096l80 80
c2.58691 2.58789 7.65625 4.68848 11.3154 4.68848s8.72754 -2.10059 11.3145 -4.68848l80 -80c10.0205 -10 3 -27.3096 -11.3096 -27.3096h-64v-224h64zM438.63 336h82.7305l-41.3604 41.3799zM480 6.63965l41.3799 41.3604h-82.7402zM304 416
c8.83203 0 16 -7.16797 16 -16v-72c0 -4.41602 -3.58398 -8 -8 -8h-16c-4.41602 0 -8 3.58398 -8 8v56h-112v-384h72c4.41602 0 8 -3.58398 8 -8v-16c0 -4.41602 -3.58398 -8 -8 -8h-176c-4.41602 0 -8 3.58398 -8 8v16c0 4.41602 3.58398 8 8 8h72v384h-112v-56
c0 -4.41602 -3.58398 -8 -8 -8h-16c-4.41602 0 -8 3.58398 -8 8v72c0 8.83203 7.16797 16 16 16h288z" />
    <glyph glyph-name="text-width" unicode="&#xf035;" 
d="M362.31 155.31l80 -79.9795c2.58789 -2.58691 4.68848 -7.65625 4.68848 -11.3154c0 -3.6582 -2.10059 -8.72754 -4.68848 -11.3145l-80 -80c-2.53906 -2.59473 -7.5459 -4.7002 -11.1768 -4.7002h-0.00292969
c-0.0361328 0 -0.09375 -0.000976562 -0.129883 -0.000976562c-8.83203 0 -16 7.16797 -16 16v0.000976562v64h-224v-64c0 -10.3096 -7.83008 -16 -15.8301 -16c-0.0351562 0 -0.0917969 -0.000976562 -0.125977 -0.000976562c-3.66211 0 -8.74805 2.08887 -11.3535 4.66113
l-80 80c-2.58789 2.58691 -4.68848 7.65625 -4.68848 11.3145c0 3.65918 2.10059 8.72852 4.68848 11.3154l80 80c2.53809 2.59961 7.54785 4.70996 11.1826 4.70996h0.00683594h0.120117c8.83203 0 16 -7.16797 16 -16v0v-64h224v64c0 10.3096 7.83008 16 15.8301 16
h0.112305c3.67188 0 8.76465 -2.10059 11.3672 -4.69043zM79 80v25.3604l-41.3701 -41.3604l41.3701 -41.3701v57.3701zM367 22.6396l41.3701 41.3604l-41.3701 41.3701v-82.7305zM431 416c8.83203 0 16 -7.16797 16 -16v-72c0 -4.41602 -3.58398 -8 -8 -8h-16
c-4.41602 0 -8 3.58398 -8 8v56h-176v-192h40c4.41602 0 8 -3.58398 8 -8v-16c0 -4.41602 -3.58398 -8 -8 -8h-112c-4.41602 0 -8 3.58398 -8 8v16c0 4.41602 3.58398 8 8 8h40v192h-176v-56c0 -4.41602 -3.58398 -8 -8 -8h-16c-4.41602 0 -8 3.58398 -8 8v72
c0 8.83203 7.16797 16 16 16h416z" />
    <glyph glyph-name="align-left" unicode="&#xf036;" 
d="M280 400c4.41602 0 8 -3.58398 8 -8v-16c0 -4.41602 -3.58398 -8 -8 -8h-272c-4.41602 0 -8 3.58398 -8 8v16c0 4.41602 3.58398 8 8 8h272zM440 16c4.41602 0 8 -3.58398 8 -8v-16c0 -4.41602 -3.58398 -8 -8 -8h-432c-4.41602 0 -8 3.58398 -8 8v16
c0 4.41602 3.58398 8 8 8h432zM280 144c4.41602 0 8 -3.58398 8 -8v-16c0 -4.41602 -3.58398 -8 -8 -8h-272c-4.41602 0 -8 3.58398 -8 8v16c0 4.41602 3.58398 8 8 8h272zM440 272c4.41602 0 8 -3.58398 8 -8v-16c0 -4.41602 -3.58398 -8 -8 -8h-432
c-4.41602 0 -8 3.58398 -8 8v16c0 4.41602 3.58398 8 8 8h432z" />
    <glyph glyph-name="align-center" unicode="&#xf037;" 
d="M344 400c4.41602 0 8 -3.58398 8 -8v-16c0 -4.41602 -3.58398 -8 -8 -8h-240c-4.41602 0 -8 3.58398 -8 8v16c0 4.41602 3.58398 8 8 8h240zM440 16c4.41602 0 8 -3.58398 8 -8v-16c0 -4.41602 -3.58398 -8 -8 -8h-432c-4.41602 0 -8 3.58398 -8 8v16
c0 4.41602 3.58398 8 8 8h432zM344 144c4.41602 0 8 -3.58398 8 -8v-16c0 -4.41602 -3.58398 -8 -8 -8h-240c-4.41602 0 -8 3.58398 -8 8v16c0 4.41602 3.58398 8 8 8h240zM440 272c4.41602 0 8 -3.58398 8 -8v-16c0 -4.41602 -3.58398 -8 -8 -8h-432
c-4.41602 0 -8 3.58398 -8 8v16c0 4.41602 3.58398 8 8 8h432z" />
    <glyph glyph-name="align-right" unicode="&#xf038;" 
d="M440 400c4.41602 0 8 -3.58398 8 -8v-16c0 -4.41602 -3.58398 -8 -8 -8h-272c-4.41602 0 -8 3.58398 -8 8v16c0 4.41602 3.58398 8 8 8h272zM440 16c4.41602 0 8 -3.58398 8 -8v-16c0 -4.41602 -3.58398 -8 -8 -8h-432c-4.41602 0 -8 3.58398 -8 8v16
c0 4.41602 3.58398 8 8 8h432zM440 144c4.41602 0 8 -3.58398 8 -8v-16c0 -4.41602 -3.58398 -8 -8 -8h-272c-4.41602 0 -8 3.58398 -8 8v16c0 4.41602 3.58398 8 8 8h272zM440 272c4.41602 0 8 -3.58398 8 -8v-16c0 -4.41602 -3.58398 -8 -8 -8h-432
c-4.41602 0 -8 3.58398 -8 8v16c0 4.41602 3.58398 8 8 8h432z" />
    <glyph glyph-name="align-justify" unicode="&#xf039;" 
d="M439 400c4.41602 0 8 -3.58398 8 -8v-16c0 -4.41602 -3.58398 -8 -8 -8h-432c-4.41602 0 -8 3.58398 -8 8v16c0 4.41602 3.58398 8 8 8h432zM439 16c4.41602 0 8 -3.58398 8 -8v-16c0 -4.41602 -3.58398 -8 -8 -8h-432c-4.41602 0 -8 3.58398 -8 8v16
c0 4.41602 3.58398 8 8 8h432zM439 144c4.41602 0 8 -3.58398 8 -8v-16c0 -4.41602 -3.58398 -8 -8 -8h-432c-4.41602 0 -8 3.58398 -8 8v16c0 4.41602 3.58398 8 8 8h432zM439 272c4.41602 0 8 -3.58398 8 -8v-16c0 -4.41602 -3.58398 -8 -8 -8h-432
c-4.41602 0 -8 3.58398 -8 8v16c0 4.41602 3.58398 8 8 8h432z" />
    <glyph glyph-name="list" unicode="&#xf03a;" horiz-adv-x="512" 
d="M88 392c8.83203 0 16 -7.16797 16 -16v-48c0 -8.83203 -7.16797 -16 -16 -16h-48c-8.83203 0 -16 7.16797 -16 16v48c0 8.83203 7.16797 16 16 16h48zM88 232c8.83203 0 16 -7.16797 16 -16v-48c0 -8.83203 -7.16797 -16 -16 -16h-48c-8.83203 0 -16 7.16797 -16 16v48
c0 8.83203 7.16797 16 16 16h48zM88 72c8.83203 0 16 -7.16797 16 -16v-48c0 -8.83203 -7.16797 -16 -16 -16h-48c-8.83203 0 -16 7.16797 -16 16v48c0 8.83203 7.16797 16 16 16h48zM504 48c4.41602 0 8 -3.58398 8 -8v-16c0 -4.41602 -3.58398 -8 -8 -8h-336
c-4.41602 0 -8 3.58398 -8 8v16c0 4.41602 3.58398 8 8 8h336zM504 368c4.41602 0 8 -3.58398 8 -8v-16c0 -4.41602 -3.58398 -8 -8 -8h-336c-4.41602 0 -8 3.58398 -8 8v16c0 4.41602 3.58398 8 8 8h336zM504 208c4.41602 0 8 -3.58398 8 -8v-16
c0 -4.41602 -3.58398 -8 -8 -8h-336c-4.41602 0 -8 3.58398 -8 8v16c0 4.41602 3.58398 8 8 8h336z" />
    <glyph glyph-name="outdent" unicode="&#xf03b;" 
d="M100.69 84.71l-96 95.9697c-2.58496 2.58691 -4.68262 7.65332 -4.68262 11.3105c0 3.65625 2.09766 8.72363 4.68262 11.3096l96 96c2.54004 2.59375 7.54883 4.69922 11.1797 4.7002c0.0361328 0 0.09375 0.000976562 0.129883 0.000976562
c8.83203 0 16 -7.16797 16 -16v-0.000976562v-192c-0.00488281 -8.82715 -7.17285 -15.9902 -16 -15.9902h-0.139648c-3.62891 0.000976562 -8.63281 2.10645 -11.1699 4.7002zM96 249.36l-57.3701 -57.3604l57.3701 -57.3604v114.721zM440 400c4.41602 0 8 -3.58398 8 -8
v-16c0 -4.41602 -3.58398 -8 -8 -8h-432c-4.41602 0 -8 3.58398 -8 8v16c0 4.41602 3.58398 8 8 8h432zM440 16c4.41602 0 8 -3.58398 8 -8v-16c0 -4.41602 -3.58398 -8 -8 -8h-432c-4.41602 0 -8 3.58398 -8 8v16c0 4.41602 3.58398 8 8 8h432zM440 144
c4.41602 0 8 -3.58398 8 -8v-16c0 -4.41602 -3.58398 -8 -8 -8h-240c-4.41602 0 -8 3.58398 -8 8v16c0 4.41602 3.58398 8 8 8h240zM440 272c4.41602 0 8 -3.58398 8 -8v-16c0 -4.41602 -3.58398 -8 -8 -8h-240c-4.41602 0 -8 3.58398 -8 8v16c0 4.41602 3.58398 8 8 8h240z
" />
    <glyph glyph-name="indent" unicode="&#xf03c;" 
d="M27.3096 299.3l96 -95.9795c2.58496 -2.58691 4.68262 -7.65332 4.68262 -11.3105c0 -3.65625 -2.09766 -8.72363 -4.68262 -11.3096l-96 -96c-2.53027 -2.59473 -7.52637 -4.7002 -11.1514 -4.7002h-0.0283203
c-0.0361328 0 -0.09375 -0.000976562 -0.129883 -0.000976562c-8.83203 0 -16 7.16797 -16 16v0.000976562v192v0.000976562c0 8.83203 7.16797 16 16 16c0.0390625 0 0.101562 -0.000976562 0.139648 -0.000976562c3.62891 -0.000976562 8.63281 -2.10645 11.1699 -4.7002z
M32 134.64l57.3701 57.3604l-57.3701 57.3604v-114.721zM440 400c4.41602 0 8 -3.58398 8 -8v-16c0 -4.41602 -3.58398 -8 -8 -8h-432c-4.41602 0 -8 3.58398 -8 8v16c0 4.41602 3.58398 8 8 8h432zM440 16c4.41602 0 8 -3.58398 8 -8v-16c0 -4.41602 -3.58398 -8 -8 -8
h-432c-4.41602 0 -8 3.58398 -8 8v16c0 4.41602 3.58398 8 8 8h432zM440 144c4.41602 0 8 -3.58398 8 -8v-16c0 -4.41602 -3.58398 -8 -8 -8h-240c-4.41602 0 -8 3.58398 -8 8v16c0 4.41602 3.58398 8 8 8h240zM440 272c4.41602 0 8 -3.58398 8 -8v-16
c0 -4.41602 -3.58398 -8 -8 -8h-240c-4.41602 0 -8 3.58398 -8 8v16c0 4.41602 3.58398 8 8 8h240z" />
    <glyph glyph-name="tasks" unicode="&#xf0ae;" horiz-adv-x="512" 
d="M145.35 241l11.3105 -11.3398c1.29492 -1.29395 2.3457 -3.8291 2.3457 -5.66016s-1.05078 -4.36621 -2.3457 -5.66016l-88 -88c-1.29297 -1.29199 -3.82715 -2.34082 -5.65527 -2.34082s-4.36133 1.04883 -5.65527 2.34082l-56 56
c-1.29492 1.29395 -2.3457 3.8291 -2.3457 5.66016s1.05078 4.36621 2.3457 5.66016l11.3408 11.3398c1.29297 1.29199 3.82617 2.34082 5.6543 2.34082s4.3623 -1.04883 5.65527 -2.34082l39 -39l71 71c1.29492 1.30371 3.83789 2.36133 5.6748 2.36133
c1.83789 0 4.37988 -1.05762 5.6748 -2.36133zM62.9297 64c17.6641 0 32 -14.3359 32 -32s-14.3359 -32 -32 -32c-17.6699 0 -32.3994 14.3301 -32.3994 32s14.7295 32 32.3994 32zM145.35 401l11.3105 -11.3398c1.29492 -1.29395 2.3457 -3.8291 2.3457 -5.66016
s-1.05078 -4.36621 -2.3457 -5.66016l-88 -88c-1.29297 -1.29199 -3.82715 -2.34082 -5.65527 -2.34082s-4.36133 1.04883 -5.65527 2.34082l-56 56c-1.29492 1.29395 -2.3457 3.8291 -2.3457 5.66016s1.05078 4.36621 2.3457 5.66016l11.3408 11.3398
c1.29297 1.29199 3.82617 2.34082 5.6543 2.34082s4.3623 -1.04883 5.65527 -2.34082l39 -39l71 71c1.29492 1.30371 3.83789 2.36133 5.6748 2.36133c1.83789 0 4.37988 -1.05762 5.6748 -2.36133zM503 48c4.41602 0 8 -3.58398 8 -8v-16c0 -4.41602 -3.58398 -8 -8 -8
h-304c-4.41602 0 -8 3.58398 -8 8v16c0 4.41602 3.58398 8 8 8h304zM503 368c4.41602 0 8 -3.58398 8 -8v-16c0 -4.41602 -3.58398 -8 -8 -8h-304c-4.41602 0 -8 3.58398 -8 8v16c0 4.41602 3.58398 8 8 8h304zM503 208c4.41602 0 8 -3.58398 8 -8v-16
c0 -4.41602 -3.58398 -8 -8 -8h-304c-4.41602 0 -8 3.58398 -8 8v16c0 4.41602 3.58398 8 8 8h304z" />
    <glyph glyph-name="list-ul" unicode="&#xf0ca;" horiz-adv-x="512" 
d="M32.3896 224c17.6641 0 32 -14.3359 32 -32s-14.3359 -32 -32 -32c-17.6592 0 -32.3896 14.3301 -32.3896 32s14.7305 32 32.3896 32zM32.3896 384c17.6641 0 32 -14.3359 32 -32s-14.3359 -32 -32 -32c-17.6592 0 -32.3896 14.3301 -32.3896 32s14.7305 32 32.3896 32z
M32.3896 64c17.6641 0 32 -14.3359 32 -32s-14.3359 -32 -32 -32c-17.6592 0 -32.3896 14.3301 -32.3896 32s14.7305 32 32.3896 32zM504 368c4.41602 0 8 -3.58398 8 -8v-16c0 -4.41602 -3.58398 -8 -8 -8h-368c-4.41602 0 -8 3.58398 -8 8v16c0 4.41602 3.58398 8 8 8h368
zM504 208c4.41602 0 8 -3.58398 8 -8v-16c0 -4.41602 -3.58398 -8 -8 -8h-368c-4.41602 0 -8 3.58398 -8 8v16c0 4.41602 3.58398 8 8 8h368zM504 48c4.41602 0 8 -3.58398 8 -8v-16c0 -4.41602 -3.58398 -8 -8 -8h-368c-4.41602 0 -8 3.58398 -8 8v16
c0 4.41602 3.58398 8 8 8h368z" />
    <glyph glyph-name="list-ol" unicode="&#xf0cb;" horiz-adv-x="512" 
d="M61.7695 47c19.6104 -5.12012 28.7002 -20.5 28.7305 -34.8799c0 -21.3701 -14.3398 -44.1201 -48.5 -44.1201c-16.6104 0 -29.29 4.75 -37 9.44043c-5.82031 4.21973 -6.34961 9.80957 -2.62012 15.9395l5.58984 9.31055c3.86035 6.61914 9.11035 7 15.6006 3.11914
c4.10254 -1.68652 11.0332 -3.08496 15.4697 -3.11914c10.1602 0 14.3604 3.5 14.3604 8.21973c0 6.64941 -5.61035 9.08984 -15.9404 9.08984h-4.72949c-5.9502 0 -9.25 2.12012 -12.25 7.87988l-1.05078 1.92969c-2.44922 4.75 -1.19922 9.81055 2.80078 14.8809
l5.60938 7c2.85449 3.55957 7.7832 9.07422 11 12.3096h-22.8398c-4.41602 0 -8 3.58398 -8 8v16c0 4.41602 3.58398 8 8 8h57c7.5 0 11.3398 -4 11.3398 -11.3496v-3.31055c0.0107422 -0.245117 0.0205078 -0.644531 0.0205078 -0.890625
c0 -4.20801 -2.28027 -10.166 -5.09082 -13.2988zM12.0996 128c-7.01953 0 -12.0996 4 -12.0996 11.4102v4c0 47.2803 51 56.3994 50.9697 69.1201c0 7.18945 -5.9502 8.75 -9.2793 8.75h-0.0605469c-3.02539 0 -7.23145 -1.7207 -9.38965 -3.83984
c-5.12988 -4.91016 -10.5205 -7 -16.1299 -2.44043l-8.58008 6.87988c-5.79004 4.53027 -7.16992 9.78027 -2.79004 15.3701c6.64941 8.75 19.0898 18.75 40.4502 18.75c19.4697 0 44.4697 -10.5 44.4697 -39.5596c0 -37.7607 -45.0498 -46.1504 -48.3301 -56.4404h38.6699
c4.41602 0 8 -3.58398 8 -8v-16c0 -4.41602 -3.58398 -8 -8 -8h-67.9004zM16 288c-4.41602 0 -8 3.58398 -8 8v16c0 4.41602 3.58398 8 8 8h16v64h-8c-4.4082 0.0078125 -7.98535 3.5918 -7.98535 8c0 1.04297 0.378906 2.64746 0.845703 3.58008l8 16
c1.21777 2.43457 4.41699 4.41504 7.13965 4.41992h24c4.41602 0 8 -3.58398 8 -8v-88h16c4.41602 0 8 -3.58398 8 -8v-16c0 -4.41602 -3.58398 -8 -8 -8h-64zM504 368c4.41602 0 8 -3.58398 8 -8v-16c0 -4.41602 -3.58398 -8 -8 -8h-336c-4.41602 0 -8 3.58398 -8 8v16
c0 4.41602 3.58398 8 8 8h336zM504 48c4.41602 0 8 -3.58398 8 -8v-16c0 -4.41602 -3.58398 -8 -8 -8h-336c-4.41602 0 -8 3.58398 -8 8v16c0 4.41602 3.58398 8 8 8h336zM504 208c4.41602 0 8 -3.58398 8 -8v-16c0 -4.41602 -3.58398 -8 -8 -8h-336
c-4.41602 0 -8 3.58398 -8 8v16c0 4.41602 3.58398 8 8 8h336z" />
    <glyph glyph-name="strikethrough" unicode="&#xf0cc;" horiz-adv-x="512" 
d="M361.36 128h40.4297c7.87402 -13.4824 14.2637 -37.0957 14.2637 -52.709c0 -3.86523 -0.417969 -10.1104 -0.933594 -13.9414c-4.83984 -36.2598 -29.46 -67.8398 -63 -82.4395c-13.7598 -5.99902 -37.1094 -10.8867 -52.1201 -10.9102h-66
c-0.108398 0 -0.28418 -0.000976562 -0.392578 -0.000976562c-44.7646 0 -91.9248 34.6807 -105.268 77.4111c-0.166992 0.59082 -0.302734 1.56836 -0.302734 2.18164c0 3.56055 2.82324 7.06348 6.30273 7.81836l15.6504 3.64941
c0.464844 0.100586 1.22754 0.182617 1.70312 0.182617c3.30957 0 6.77148 -2.57227 7.72656 -5.74219c9.88281 -29.5322 43.1777 -53.5 74.3193 -53.5h0.260742h65.9404c11.333 0.0166016 28.9619 3.70801 39.3496 8.24023c21.5195 9.38965 38.21 28.5195 43.0703 51.5195
c0.933594 4.24609 1.69141 11.2197 1.69141 15.5674c0 17.2354 -10.166 40.833 -22.6914 52.6729zM169.25 224c-23.4053 16.8701 -42.4004 53.9766 -42.4004 82.8271v0.232422c0 41.3906 22.1807 77.3506 57.9004 95.21c15.1631 7.55566 41.2188 13.7061 58.1602 13.7305
h47.8594c46.7725 -0.0478516 102.485 -33.6387 124.36 -74.9805c0.478516 -0.945312 0.866211 -2.57422 0.866211 -3.63477c0 -2.89062 -2.14453 -6.19043 -4.78613 -7.36523l-14.5996 -6.61914c-0.84668 -0.370117 -2.28223 -0.670898 -3.20605 -0.670898
c-2.70312 0 -5.89453 1.95312 -7.12402 4.36035c-17.0283 31.3701 -59.8174 56.8652 -95.5107 56.9102h-47.8594c-12.7617 -0.0166016 -32.3887 -4.64941 -43.8105 -10.3398c-21.7354 -10.7285 -39.7588 -39.1055 -40.2295 -63.3398
c-0.709961 -29.25 14.5098 -54.3799 39.29 -66.71l39.3701 -19.6104h-68.2803zM504 192c4.41602 0 8 -3.58398 8 -8v-16c0 -4.41602 -3.58398 -8 -8 -8h-496c-4.41602 0 -8 3.58398 -8 8v16c0 4.41602 3.58398 8 8 8h496z" />
    <glyph glyph-name="underline" unicode="&#xf0cd;" 
d="M440 448c4.41602 0 8 -3.58398 8 -8v-16c0 -4.41602 -3.58398 -8 -8 -8h-56v-224c0 -88.2197 -71.7803 -160 -160 -160s-160 71.7803 -160 160v224h-56c-4.41602 0 -8 3.58398 -8 8v16c0 4.41602 3.58398 8 8 8h144c4.41602 0 8 -3.58398 8 -8v-16
c0 -4.41602 -3.58398 -8 -8 -8h-56v-224c0 -70.6562 57.3438 -128 128 -128s128 57.3438 128 128v224h-56c-4.41602 0 -8 3.58398 -8 8v16c0 4.41602 3.58398 8 8 8h144zM440 -32c4.41602 0 8 -3.58398 8 -8v-16c0 -4.41602 -3.58398 -8 -8 -8h-432
c-4.41602 0 -8 3.58398 -8 8v16c0 4.41602 3.58398 8 8 8h432z" />
    <glyph glyph-name="superscript" unicode="&#xf12b;" horiz-adv-x="512" 
d="M344 384c4.41602 0 8 -3.58398 8 -8v-16c0 -4.41602 -3.58398 -8 -8 -8h-47.2197l-101.78 -160l101.78 -160h47.2197c4.41602 0 8 -3.58398 8 -8v-16c0 -4.41602 -3.58398 -8 -8 -8h-56c-4.84473 0.00292969 -10.8887 3.32227 -13.4902 7.41016l-98.5098 154.79
l-98.5 -154.79c-2.60254 -4.09082 -8.65039 -7.41016 -13.499 -7.41016h-0.000976562h-56c-4.41602 0 -8 3.58398 -8 8v16c0 4.41602 3.58398 8 8 8h47.2197l101.78 160l-101.78 160h-47.2197c-4.41602 0 -8 3.58398 -8 8v16c0 4.41602 3.58398 8 8 8h56h0.000976562
c4.84863 0 10.8965 -3.31934 13.499 -7.41016l98.5 -154.79l98.5098 154.79c2.60156 4.08789 8.64551 7.40723 13.4902 7.41016h56zM504 256c4.41602 0 8 -3.58398 8 -8v-16c0 -4.41602 -3.58398 -8 -8 -8h-112c-4.41602 0 -8 3.58398 -8 8v16c0 4.41602 3.58398 8 8 8h40
v128h-16c-8.82422 0.0078125 -15.9863 7.17578 -15.9863 16c0 2.08984 0.759766 5.30176 1.69629 7.16992l16 32c2.44141 4.87012 8.84277 8.8252 14.29 8.83008h16c8.83203 0 16 -7.16797 16 -16v-176h40z" />
    <glyph glyph-name="subscript" unicode="&#xf12c;" horiz-adv-x="512" 
d="M344 384c4.41602 0 8 -3.58398 8 -8v-16c0 -4.41602 -3.58398 -8 -8 -8h-47.2197l-101.78 -160l101.78 -160h47.2197c4.41602 0 8 -3.58398 8 -8v-16c0 -4.41602 -3.58398 -8 -8 -8h-56c-4.84473 0.00292969 -10.8887 3.32227 -13.4902 7.41016l-98.5098 154.79
l-98.5 -154.79c-2.60254 -4.09082 -8.65039 -7.41016 -13.499 -7.41016h-0.000976562h-56c-4.41602 0 -8 3.58398 -8 8v16c0 4.41602 3.58398 8 8 8h47.2197l101.78 160l-101.78 160h-47.2197c-4.41602 0 -8 3.58398 -8 8v16c0 4.41602 3.58398 8 8 8h56h0.000976562
c4.84863 0 10.8965 -3.31934 13.499 -7.41016l98.5 -154.79l98.5098 154.79c2.60156 4.08789 8.64551 7.40723 13.4902 7.41016h56zM504 -32c4.41602 0 8 -3.58398 8 -8v-16c0 -4.41602 -3.58398 -8 -8 -8h-112c-4.41602 0 -8 3.58398 -8 8v16c0 4.41602 3.58398 8 8 8h40
v128h-16c-8.82422 0.0078125 -15.9863 7.17578 -15.9863 16c0 2.08984 0.759766 5.30176 1.69629 7.16992l16 32c2.44141 4.87012 8.84277 8.8252 14.29 8.83008h16c8.83203 0 16 -7.16797 16 -16v-176h40z" />
    <glyph glyph-name="sort-alpha-down" unicode="&#xf15d;" 
d="M432 160c4.41602 0 8 -3.58398 8 -8v-10.9297c-0.000976562 -2.79785 -1.30859 -6.92383 -2.91992 -9.20996l-92.8896 -131.86h87.8096c4.41602 0 8 -3.58398 8 -8v-16c0 -4.41602 -3.58398 -8 -8 -8h-128c-4.41602 0 -8 3.58398 -8 8v10.9297
c0.000976562 2.79785 1.30859 6.92383 2.91992 9.20996l92.7598 131.79l-87.6797 0.0703125c-4.41602 0 -8 3.58398 -8 8v16c0 4.41602 3.58398 8 8 8h128zM447.29 240.06c0.390625 -1.08594 0.708008 -2.90527 0.708008 -4.06055
c0 -6.55664 -5.32129 -11.9326 -11.8779 -11.999h-11.4199c-4.66016 0.0107422 -9.67773 3.59473 -11.2002 8l-15.3398 44.3604h-60.8506l-15.0996 -44.2705c-1.49219 -4.45215 -6.51465 -8.07617 -11.21 -8.08984h-11.1201
c-6.55664 0.0664062 -11.8779 5.44238 -11.8779 11.999c0 1.15527 0.317383 2.97461 0.708008 4.06055l59.7598 168c1.53223 4.36719 6.53223 7.9248 11.1602 7.94043h16.7402c4.62793 -0.015625 9.62793 -3.57324 11.1602 -7.94043zM347.39 307.42h40.7402
s-19.3701 56.8604 -20.2402 60c-0.879883 -3.12988 -20.5 -60 -20.5 -60zM198.93 76.4199l5.58984 -5.62988c1.92383 -1.9375 3.48535 -5.72559 3.48535 -8.45508c0 -2.77148 -1.60156 -6.59961 -3.5752 -8.54492l-84 -82.3203
c-1.92969 -1.92578 -5.70801 -3.48926 -8.43457 -3.48926s-6.50586 1.56348 -8.43555 3.48926l-84.0596 82.2998c-1.94824 1.94238 -3.5293 5.75 -3.5293 8.5c0 2.75098 1.58105 6.55859 3.5293 8.5l5.63965 5.66016c1.93848 1.92676 5.72852 3.49023 8.45996 3.49023
c2.73242 0 6.52246 -1.56348 8.45996 -3.49023l53.9404 -52.3496v383.92c0 4.41602 3.58398 8 8 8h16.0195c4.41602 0 8 -3.58398 8 -8v-384.16l54 52.6699c1.92676 1.91504 5.69434 3.46875 8.41113 3.46875c2.75684 0 6.56445 -1.59375 8.49902 -3.55859z" />
    <glyph glyph-name="sort-alpha-up" unicode="&#xf15e;" 
d="M120.44 412.49l84.0596 -82.2598c1.94824 -1.94238 3.5293 -5.75 3.5293 -8.5c0 -2.75098 -1.58105 -6.55859 -3.5293 -8.5l-5.63965 -5.66016c-1.93848 -1.92676 -5.72852 -3.49023 -8.45996 -3.49023c-2.73242 0 -6.52246 1.56348 -8.45996 3.49023l-53.9404 52.3496
v-383.92c0 -4.41602 -3.58398 -8 -8 -8h-16c-4.41602 0 -8 3.58398 -8 8v384.14l-54 -52.7393c-1.92676 -1.91504 -5.69434 -3.46875 -8.41016 -3.46875c-2.75684 0 -6.56543 1.59375 -8.5 3.55859l-5.60938 5.67969c-1.92383 1.9375 -3.48535 5.72559 -3.48535 8.45508
c0 2.77148 1.60156 6.59961 3.5752 8.54492l84 82.3203c1.92969 1.92578 5.70801 3.48926 8.43457 3.48926s6.50586 -1.56348 8.43555 -3.48926zM447.29 240.06c0.390625 -1.08594 0.708008 -2.90527 0.708008 -4.06055c0 -6.55664 -5.32129 -11.9326 -11.8779 -11.999
h-11.4199c-4.66016 0.0107422 -9.67773 3.59473 -11.2002 8l-15.3398 44.3604h-60.8506l-15.0996 -44.2705c-1.49219 -4.45215 -6.51465 -8.07617 -11.21 -8.08984h-11.1201c-6.55664 0.0664062 -11.8779 5.44238 -11.8779 11.999
c0 1.15527 0.317383 2.97461 0.708008 4.06055l59.7598 168c1.53223 4.36719 6.53223 7.9248 11.1602 7.94043h16.7402c4.62793 -0.015625 9.62793 -3.57324 11.1602 -7.94043zM347.39 307.42h40.7402s-19.3701 56.8604 -20.2402 60c-0.879883 -3.12988 -20.5 -60 -20.5 -60
zM432 160c4.41602 0 8 -3.58398 8 -8v-10.9297c-0.000976562 -2.79785 -1.30859 -6.92383 -2.91992 -9.20996l-92.8896 -131.86h87.8096c4.41602 0 8 -3.58398 8 -8v-16c0 -4.41602 -3.58398 -8 -8 -8h-128c-4.41602 0 -8 3.58398 -8 8v10.9297
c0.000976562 2.79785 1.30859 6.92383 2.91992 9.20996l92.7598 131.79l-87.6797 0.0703125c-4.41602 0 -8 3.58398 -8 8v16c0 4.41602 3.58398 8 8 8h128z" />
    <glyph glyph-name="sort-amount-down" unicode="&#xf160;" horiz-adv-x="512" 
d="M376 160c4.41602 0 8 -3.58398 8 -8v-16c0 -4.41602 -3.58398 -8 -8 -8h-112c-4.41602 0 -8 3.58398 -8 8v16c0 4.41602 3.58398 8 8 8h112zM312 64c4.41602 0 8 -3.58398 8 -8v-16c0 -4.41602 -3.58398 -8 -8 -8h-48c-4.41602 0 -8 3.58398 -8 8v16
c0 4.41602 3.58398 8 8 8h48zM504 352c4.41602 0 8 -3.58398 8 -8v-16c0 -4.41602 -3.58398 -8 -8 -8h-240c-4.41602 0 -8 3.58398 -8 8v16c0 4.41602 3.58398 8 8 8h240zM440 256c4.41602 0 8 -3.58398 8 -8v-16c0 -4.41602 -3.58398 -8 -8 -8h-176
c-4.41602 0 -8 3.58398 -8 8v16c0 4.41602 3.58398 8 8 8h176zM198.93 76.4404l5.58984 -5.65039c1.92383 -1.9375 3.48535 -5.72559 3.48535 -8.45508c0 -2.77148 -1.60156 -6.59961 -3.5752 -8.54492l-84 -82.3203c-1.92969 -1.92578 -5.70801 -3.48926 -8.43457 -3.48926
s-6.50586 1.56348 -8.43555 3.48926l-84.0596 82.2998c-1.94824 1.94238 -3.5293 5.75 -3.5293 8.5c0 2.75098 1.58105 6.55859 3.5293 8.5l5.63965 5.66016c1.93848 1.92676 5.72852 3.49023 8.45996 3.49023c2.73242 0 6.52246 -1.56348 8.45996 -3.49023
l53.9404 -52.3496v383.92c0 4.41602 3.58398 8 8 8h16.0195c4.41602 0 8 -3.58398 8 -8v-384.14l54 52.6699c1.92676 1.91406 5.69434 3.46875 8.41113 3.46875c2.75684 0 6.56445 -1.59473 8.49902 -3.55859z" />
    <glyph glyph-name="sort-amount-up" unicode="&#xf161;" horiz-adv-x="512" 
d="M312 64c4.41602 0 8 -3.58398 8 -8v-16c0 -4.41602 -3.58398 -8 -8 -8h-48c-4.41602 0 -8 3.58398 -8 8v16c0 4.41602 3.58398 8 8 8h48zM376 160c4.41602 0 8 -3.58398 8 -8v-16c0 -4.41602 -3.58398 -8 -8 -8h-112c-4.41602 0 -8 3.58398 -8 8v16
c0 4.41602 3.58398 8 8 8h112zM504 352c4.41602 0 8 -3.58398 8 -8v-16c0 -4.41602 -3.58398 -8 -8 -8h-240c-4.41602 0 -8 3.58398 -8 8v16c0 4.41602 3.58398 8 8 8h240zM440 256c4.41602 0 8 -3.58398 8 -8v-16c0 -4.41602 -3.58398 -8 -8 -8h-176
c-4.41602 0 -8 3.58398 -8 8v16c0 4.41602 3.58398 8 8 8h176zM120.44 412.49l84.0596 -82.2598c1.94824 -1.94238 3.5293 -5.75 3.5293 -8.5c0 -2.75098 -1.58105 -6.55859 -3.5293 -8.5l-5.63965 -5.66016c-1.93848 -1.92676 -5.72852 -3.49023 -8.45996 -3.49023
c-2.73242 0 -6.52246 1.56348 -8.45996 3.49023l-53.9404 52.3496v-383.92c0 -4.41602 -3.58398 -8 -8 -8h-16c-4.41602 0 -8 3.58398 -8 8v384.14l-54 -52.7393c-1.92676 -1.91504 -5.69434 -3.46875 -8.41016 -3.46875c-2.75684 0 -6.56543 1.59375 -8.5 3.55859
l-5.60938 5.67969c-1.92383 1.9375 -3.48535 5.72559 -3.48535 8.45508c0 2.77148 1.60156 6.59961 3.5752 8.54492l84 82.3203c1.92969 1.92578 5.70801 3.48926 8.43457 3.48926s6.50586 -1.56348 8.43555 -3.48926z" />
    <glyph glyph-name="sort-numeric-down" unicode="&#xf162;" 
d="M344.49 190.52c4.19531 0.916016 11.0859 1.65918 15.3799 1.65918c39.7656 0 72.0801 -32.2734 72.1299 -72.0391v-40c-0.0839844 -57.2793 -46.5059 -107.303 -103.62 -111.659c-0.104492 -0.00585938 -0.275391 -0.00976562 -0.379883 -0.00976562
c-4.41602 0 -8 3.58398 -8 8v0.0595703v16.0693c0.0683594 4.11719 3.45996 7.66602 7.57031 7.91992c33.1602 3.14062 60.2393 26.7803 69.0801 58c-9.51074 -5.77832 -26.2598 -10.4678 -37.3887 -10.4678c-39.7432 0 -72 32.2559 -72 72
c0 32.2764 25.6387 63.8457 57.2285 70.4678zM360 80.1396c22.0801 0 40 17.9199 40 40s-17.9199 40 -40 40s-40 -17.9199 -40 -40s17.9199 -40 40 -40zM424 256c4.41602 0 8 -3.58398 8 -8v-16c0 -4.41602 -3.58398 -8 -8 -8h-112c-4.41602 0 -8 3.58398 -8 8v16
c0 4.41602 3.58398 8 8 8h40v96h-16h-0.00195312c-8.83203 0 -16 7.16797 -16 16c0 2.5332 1.08984 6.33203 2.43164 8.48047l20 32c2.59473 4.15039 8.67285 7.51953 13.5684 7.51953h0.00195312h12c8.83203 0 16 -7.16797 16 -16v-144h40zM198.93 76.4404
l5.58984 -5.65039c1.92383 -1.9375 3.48535 -5.72559 3.48535 -8.45508c0 -2.77148 -1.60156 -6.59961 -3.5752 -8.54492l-84 -82.3203c-1.92969 -1.92578 -5.70801 -3.48926 -8.43457 -3.48926s-6.50586 1.56348 -8.43555 3.48926l-84.0596 82.2998
c-1.94824 1.94238 -3.5293 5.75 -3.5293 8.5c0 2.75098 1.58105 6.55859 3.5293 8.5l5.63965 5.66016c1.93848 1.92676 5.72852 3.49023 8.45996 3.49023c2.73242 0 6.52246 -1.56348 8.45996 -3.49023l53.9404 -52.3496v383.92c0 4.41602 3.58398 8 8 8h16.0195
c4.41602 0 8 -3.58398 8 -8v-384.14l54 52.6699c1.92676 1.91406 5.69434 3.46875 8.41113 3.46875c2.75684 0 6.56445 -1.59473 8.49902 -3.55859z" />
    <glyph glyph-name="sort-numeric-up" unicode="&#xf163;" 
d="M424 256c4.41602 0 8 -3.58398 8 -8v-16c0 -4.41602 -3.58398 -8 -8 -8h-112c-4.41602 0 -8 3.58398 -8 8v16c0 4.41602 3.58398 8 8 8h40v96h-16h-0.00195312c-8.83203 0 -16 7.16797 -16 16c0 2.5332 1.08984 6.33203 2.43164 8.48047l20 32
c2.59473 4.15039 8.67285 7.51953 13.5684 7.51953h0.00195312h12c8.83203 0 16 -7.16797 16 -16v-144h40zM344.49 190.52c4.19531 0.916016 11.0859 1.65918 15.3799 1.65918c39.7656 0 72.0801 -32.2734 72.1299 -72.0391v-40
c-0.0839844 -57.2793 -46.5059 -107.303 -103.62 -111.659c-0.104492 -0.00585938 -0.275391 -0.00976562 -0.379883 -0.00976562c-4.41602 0 -8 3.58398 -8 8v0.0595703v16.0693c0.0683594 4.11719 3.45996 7.66602 7.57031 7.91992
c33.1602 3.14062 60.2393 26.7803 69.0801 58c-9.51074 -5.77832 -26.2598 -10.4678 -37.3887 -10.4678c-39.7432 0 -72 32.2559 -72 72c0 32.2764 25.6387 63.8457 57.2285 70.4678zM360 80.1396c22.0801 0 40 17.9199 40 40s-17.9199 40 -40 40s-40 -17.9199 -40 -40
s17.9199 -40 40 -40zM120.44 412.49l84.0596 -82.2598c1.94824 -1.94238 3.5293 -5.75 3.5293 -8.5c0 -2.75098 -1.58105 -6.55859 -3.5293 -8.5l-5.63965 -5.66016c-1.93848 -1.92676 -5.72852 -3.49023 -8.45996 -3.49023c-2.73242 0 -6.52246 1.56348 -8.45996 3.49023
l-53.9404 52.3496v-383.92c0 -4.41602 -3.58398 -8 -8 -8h-16c-4.41602 0 -8 3.58398 -8 8v384.14l-54 -52.7393c-1.92676 -1.91504 -5.69434 -3.46875 -8.41016 -3.46875c-2.75684 0 -6.56543 1.59375 -8.5 3.55859l-5.60938 5.67969
c-1.92383 1.9375 -3.48535 5.72559 -3.48535 8.45508c0 2.77148 1.60156 6.59961 3.5752 8.54492l84 82.3203c1.92969 1.92578 5.70801 3.48926 8.43457 3.48926s6.50586 -1.56348 8.43555 -3.48926z" />
    <glyph glyph-name="heading" unicode="&#xf1dc;" horiz-adv-x="512" 
d="M416 384v-384h56c4.41602 0 8 -3.58398 8 -8v-16c0 -4.41602 -3.58398 -8 -8 -8h-144c-4.41602 0 -8 3.58398 -8 8v16c0 4.41602 3.58398 8 8 8h56v176h-256v-176h56c4.41602 0 8 -3.58398 8 -8v-16c0 -4.41602 -3.58398 -8 -8 -8h-144c-4.41602 0 -8 3.58398 -8 8v16
c0 4.41602 3.58398 8 8 8h56v384h-56c-4.41602 0 -8 3.58398 -8 8v16c0 4.41602 3.58398 8 8 8h144c4.41602 0 8 -3.58398 8 -8v-16c0 -4.41602 -3.58398 -8 -8 -8h-56v-176h256v176h-56c-4.41602 0 -8 3.58398 -8 8v16c0 4.41602 3.58398 8 8 8h144
c4.41602 0 8 -3.58398 8 -8v-16c0 -4.41602 -3.58398 -8 -8 -8h-56z" />
    <glyph glyph-name="paragraph" unicode="&#xf1dd;" 
d="M440 416c4.41602 0 8 -3.58398 8 -8v-16c0 -4.41602 -3.58398 -8 -8 -8h-56v-408c0 -4.41602 -3.58398 -8 -8 -8h-16c-4.41602 0 -8 3.58398 -8 8v408h-64v-408c0 -4.41602 -3.58398 -8 -8 -8h-16c-4.41602 0 -8 3.58398 -8 8v120h-26.5195
c-85.2207 0 -159.631 64.3496 -165.131 149.35c-0.195312 2.93652 -0.354492 7.70801 -0.354492 10.6504c0 88.3203 71.6797 160 160 160h0.00488281h216zM256 128v256h-32c-70.6562 0 -128 -57.3438 -128 -128s57.3438 -128 128 -128h32z" />
    <glyph glyph-name="h1" unicode="&#xf313;" horiz-adv-x="576" 
d="M312 352c4.41602 0 8 -3.58398 8 -8v-16c0 -4.41602 -3.58398 -8 -8 -8h-40v-256h40c4.41602 0 8 -3.58398 8 -8v-16c0 -4.41602 -3.58398 -8 -8 -8h-112c-4.41602 0 -8 3.58398 -8 8v16c0 4.41602 3.58398 8 8 8h40v112h-160v-112h40c4.41602 0 8 -3.58398 8 -8v-16
c0 -4.41602 -3.58398 -8 -8 -8h-112c-4.41602 0 -8 3.58398 -8 8v16c0 4.41602 3.58398 8 8 8h40v256h-40c-4.41602 0 -8 3.58398 -8 8v16c0 4.41602 3.58398 8 8 8h112c4.41602 0 8 -3.58398 8 -8v-16c0 -4.41602 -3.58398 -8 -8 -8h-40v-112h160v112h-40
c-4.41602 0 -8 3.58398 -8 8v16c0 4.41602 3.58398 8 8 8h112zM568 64c4.41602 0 8 -3.58398 8 -8v-16c0 -4.41602 -3.58398 -8 -8 -8h-176c-4.41602 0 -8 3.58398 -8 8v16c0 4.41602 3.58398 8 8 8h73.6299v249.38l-31 -31
c-1.29395 -1.29492 -3.8291 -2.3457 -5.66016 -2.3457c-1.83008 0 -4.36621 1.05078 -5.66016 2.3457l-11.3096 11.3105c-1.29199 1.29297 -2.34082 3.82617 -2.34082 5.6543s1.04883 4.3623 2.34082 5.65527l42.3496 42.3096
c2.58594 2.58789 7.65234 4.68848 11.3105 4.69043h16c8.83203 0 16 -7.16797 16 -16v-272h70.3398z" />
    <glyph glyph-name="h2" unicode="&#xf314;" horiz-adv-x="576" 
d="M312 352c4.41602 0 8 -3.58398 8 -8v-16c0 -4.41602 -3.58398 -8 -8 -8h-40v-256h40c4.41602 0 8 -3.58398 8 -8v-16c0 -4.41602 -3.58398 -8 -8 -8h-112c-4.41602 0 -8 3.58398 -8 8v16c0 4.41602 3.58398 8 8 8h40v112h-160v-112h40c4.41602 0 8 -3.58398 8 -8v-16
c0 -4.41602 -3.58398 -8 -8 -8h-112c-4.41602 0 -8 3.58398 -8 8v16c0 4.41602 3.58398 8 8 8h40v256h-40c-4.41602 0 -8 3.58398 -8 8v16c0 4.41602 3.58398 8 8 8h112c4.41602 0 8 -3.58398 8 -8v-16c0 -4.41602 -3.58398 -8 -8 -8h-40v-112h160v112h-40
c-4.41602 0 -8 3.58398 -8 8v16c0 4.41602 3.58398 8 8 8h112zM552 64c4.41602 0 8 -3.58398 8 -8v-16.0303c0 -4.41602 -3.58398 -8 -8 -8h-171.47h-0.0722656c-5.93652 0 -11.2803 4.78906 -11.9277 10.6904c-0.310547 3.37012 -0.5 6.95996 -0.5 11.1797
c0 110.311 161.12 124.97 161.12 207.311c0 33.9795 -26.0605 57.6992 -63.3701 57.6992c-25.5605 0 -48.7803 -14.7598 -63.2803 -33.7598c-2.00391 -2.67285 -6.3418 -4.84277 -9.68262 -4.84277c-2.00586 0 -4.99316 0.897461 -6.66699 2.00293l-7.15039 4.75
c-2.93066 1.93652 -5.30957 6.3584 -5.30957 9.87012c0 2.0166 0.922852 5.00488 2.05957 6.66992c18.8096 27.6904 53.3096 48.46 91.8096 48.46c60.8203 0 97.75 -39.0596 97.75 -89.0596c0 -104.311 -155.399 -120.181 -159.239 -198.94h145.93z" />
    <glyph glyph-name="h3" unicode="&#xf315;" horiz-adv-x="576" 
d="M476.8 224.36c53.2998 -4.4502 98.2998 -35.7705 98.2002 -93.0703c0 -55.71 -47.2598 -99.29 -107.53 -99.2803c-37.4395 0 -73.7998 16.46 -96.4395 36.46c-2.20215 1.9082 -3.98926 5.82227 -3.98926 8.73633c0 2.29492 1.18652 5.59473 2.64941 7.36426
l6.43945 7.89941c2.07227 2.48535 6.37988 4.50195 9.61523 4.50195c2.55566 0 6.2041 -1.34961 8.14453 -3.01172c32.1602 -28.0195 87.2207 -43.29 124.16 -9.62988c11.2188 10.2178 20.4209 30.8262 20.54 46c-0.0195312 41.3799 -36.3398 64.29 -78.7803 64.29h-15.1094
c-0.0322266 0 -0.0849609 -0.000976562 -0.117188 -0.000976562c-4.4082 0 -9.42773 3.27539 -11.2031 7.31055l-2.75 6.41992c-0.505859 1.20117 -0.916992 3.23438 -0.916992 4.53809c0 2.43555 1.30664 5.89551 2.91699 7.72266l76.3203 86.4395
c4.76953 5.39062 9.14941 9.82031 12.4199 12.9502h-130.37c-4.41602 0 -8 3.58398 -8 8v16c0 4.41602 3.58398 8 8 8h167.26c0.0507812 0.000976562 0.131836 0.000976562 0.182617 0.000976562c6.54883 0 11.9688 -5.31348 12.0977 -11.8613v-6.70996
c-0.00195312 -2.47266 -1.3457 -5.97168 -3 -7.80957zM311 352c4.41602 0 8 -3.58398 8 -8v-16c0 -4.41602 -3.58398 -8 -8 -8h-40v-256h40c4.41602 0 8 -3.58398 8 -8v-16c0 -4.41602 -3.58398 -8 -8 -8h-112c-4.41602 0 -8 3.58398 -8 8v16c0 4.41602 3.58398 8 8 8h40
v112h-160v-112h40c4.41602 0 8 -3.58398 8 -8v-16c0 -4.41602 -3.58398 -8 -8 -8h-112c-4.41602 0 -8 3.58398 -8 8v16c0 4.41602 3.58398 8 8 8h40v256h-40c-4.41602 0 -8 3.58398 -8 8v16c0 4.41602 3.58398 8 8 8h112c4.41602 0 8 -3.58398 8 -8v-16
c0 -4.41602 -3.58398 -8 -8 -8h-40v-112h160v112h-40c-4.41602 0 -8 3.58398 -8 8v16c0 4.41602 3.58398 8 8 8h112z" />
    <glyph glyph-name="alarm-clock" unicode="&#xf34e;" horiz-adv-x="512" 
d="M32 336c0.0839844 -10.7852 4.29492 -27.249 9.40039 -36.75c-5.41992 -8.39258 -13.2158 -22.5674 -17.4004 -31.6396c-14.8301 18.9795 -24 42.5293 -24 68.3896c0.0771484 61.7471 50.2529 111.923 112 112c33.8604 0 63.8896 -15.4199 84.4404 -39.2002
c-9.71875 -2.30176 -25.1484 -7.13965 -34.4404 -10.7998c-12.0312 9.88086 -34.4316 17.9443 -50 18c-44.1104 -0.0498047 -79.9502 -35.8896 -80 -80zM400 448c61.7471 -0.0771484 111.923 -50.2529 112 -112c0 -25.8604 -9.20996 -49.3896 -24 -68.3896
c-4.17578 9.05664 -11.9531 23.209 -17.3604 31.5898c5.09375 9.50391 9.28711 25.9678 9.36035 36.75c-0.0498047 44.1104 -35.8896 79.9502 -80 80c-15.5684 -0.0556641 -37.9688 -8.12012 -50 -18c-9.29199 3.66016 -24.7217 8.49805 -34.4404 10.7998
c20.5508 23.8301 50.5801 39.25 84.4404 39.25zM256 384c123.71 0 224 -100.29 224 -224v-0.0839844c0 -46.0957 -24.582 -111.708 -54.8701 -146.456l52.5 -52.4902c1.29492 -1.29297 2.34668 -3.8291 2.34668 -5.66016c0 -1.83008 -1.05176 -4.36621 -2.34668 -5.65918
l-11.3096 -11.3105c-1.29395 -1.29492 -3.83008 -2.3457 -5.66016 -2.3457c-1.83105 0 -4.36621 1.05078 -5.66016 2.3457l-52.46 52.5303c-34.7812 -30.2715 -100.431 -54.8389 -146.54 -54.8389s-111.759 24.5674 -146.54 54.8389l-52.4902 -52.5
c-1.29297 -1.29492 -3.8291 -2.34668 -5.66016 -2.34668c-1.83008 0 -4.36621 1.05176 -5.65918 2.34668l-11.3105 11.3096c-1.29492 1.29395 -2.3457 3.83008 -2.3457 5.66016c0 1.83105 1.05078 4.36621 2.3457 5.66016l52.5 52.46
c-30.2715 34.7432 -54.8398 100.34 -54.8398 146.421v0.119141c0 123.71 100.29 224 224 224zM256 -32c105.87 0 192 86.1299 192 192s-86.1299 192 -192 192s-192 -86.1299 -192 -192s86.1299 -192 192 -192zM270.38 151.69l67.75 -54.1709
c1.65918 -1.3252 3.00586 -4.125 3.00586 -6.24902c0 -1.5498 -0.787109 -3.79004 -1.75586 -5.00098l-10 -12.5c-1.32617 -1.6582 -4.12598 -3.00488 -6.24902 -3.00488c-1.55078 0 -3.79102 0.786133 -5.00098 1.75488l-73.75 59
c-3.30957 2.65039 -5.99707 8.24121 -6 12.4805v136c0 4.41602 3.58398 8 8 8h16c4.41602 0 8 -3.58398 8 -8v-128.31z" />
    <glyph glyph-name="chess" unicode="&#xf439;" horiz-adv-x="512" 
d="M400 128v-32h-32v32c0 8.83203 7.16797 16 16 16s16 -7.16797 16 -16zM503.16 12.4297c4.87988 -2.44141 8.83984 -8.85156 8.83984 -14.3086v-0.000976562v-46.1201c0 -8.83203 -7.16797 -16 -16 -16h-224c-8.83203 0 -16 7.16797 -16 16
c0 -8.83203 -7.16797 -16 -16 -16h-223.97c-8.83203 0 -16 7.16797 -16 16v46.1104c0 1.30957 0.700195 2.39941 1 3.63965c1.10938 4.49023 3.55957 8.5498 7.80957 10.6797l23.1602 11.5703v24c0 8.83203 7.16797 16 16 16h6.40039
c6.04004 30.1602 9.59961 60.7598 9.59961 91.4697v36.5303h-24c-4.41602 0 -8 3.58398 -8 8v16c0 4.41602 3.58398 8 8 8h16.9102l-31.8203 84.75c-1.12793 3.00293 -2.04297 8.04297 -2.04297 11.25c0 17.6641 14.3359 32 32 32h0.0429688h56.9102v32h-24
c-4.41602 0 -8 3.58398 -8 8v16c0 4.41602 3.58398 8 8 8h24v24c0 4.41602 3.58398 8 8 8h16c4.41602 0 8 -3.58398 8 -8v-24h24c4.41602 0 8 -3.58398 8 -8v-16c0 -4.41602 -3.58398 -8 -8 -8h-24v-32h56.9102h0.03125c17.6641 0 32 -14.3359 32 -32
c0 -3.19824 -0.910156 -8.22461 -2.03125 -11.2197l-31.8105 -84.7803h16.9004c4.41602 0 8 -3.58398 8 -8v-16c0 -4.41602 -3.58398 -8 -8 -8h-24v-36.5303c0 -30.7197 3.59961 -61.3096 9.59961 -91.4697h6.40039c8.83203 0 16 -7.16797 16 -16v-24l23.1602 -11.5703
c4.87988 -2.44141 8.83984 -8.85156 8.83984 -14.3086v-0.000976562c0.000976562 5.45898 3.96582 11.8701 8.84961 14.3096l23.1504 11.5703v24c0 8.83203 7.16797 16 16 16h1.09961l2.82031 82.2402l-24.5703 20.7598c-6.25293 5.28223 -11.3379 16.2139 -11.3496 24.4004
v80.5996c0 8.83203 7.16797 16 16 16h192c8.83203 0 16 -7.16797 16 -16v-80.54v-0.03125c0 -8.19238 -5.07617 -19.1367 -11.3301 -24.4287l-24.5996 -20.79l2.83008 -82.21h1.09961c8.83203 0 16 -7.16797 16 -16v-24zM55.0898 320l36 -96h73.8506l36 96h-145.851z
M168.88 64c-4.78516 25.0195 -8.7627 65.998 -8.87988 91.4697v36.5303h-64v-36.5303c-0.117188 -25.4717 -4.09473 -66.4502 -8.87988 -91.4697h81.7598zM224 -32v20.2197l-32 16v27.7803h-128v-27.7803l-32 -16v-20.2197h192zM304 191.4l24.5801 -20.7803l11.8604 -10
l-0.530273 -15.5205l-2.79004 -81.0996h93.7598l-2.79004 81.1396l-0.530273 15.5l11.8408 10l24.5996 20.8203v64.54h-32v-32h-32v32h-32v-32h-32v32h-32v-64.5996zM480 -32v20.2197l-32 16v27.7803h-128v-27.7803l-32 -16v-20.2197h192z" />
    <glyph glyph-name="chess-bishop" unicode="&#xf43a;" horiz-adv-x="320" 
d="M64 48c-33.8604 10.7598 -64 44.3604 -64 96c0 72.6396 66.4297 194.57 119 240h82c52.5703 -45.4297 119 -167.36 119 -240c0 -51.6396 -30.1396 -85.2402 -64 -96v-48h-32v71.4102l22.3096 7.08984c20.1504 6.40039 41.6904 26.9805 41.6904 65.5
c0 25.6504 -10.9102 60.2305 -26.54 94.8096l-76.4297 -76.4395c-1.29395 -1.29492 -3.83008 -2.34668 -5.66016 -2.34668c-1.83105 0 -4.36621 1.05176 -5.66016 2.34668l-11.3096 11.3096c-1.2959 1.29395 -2.34668 3.83008 -2.34668 5.66016
c0 1.83105 1.05078 4.36621 2.34668 5.66016l84 84c-17.8105 33 -38.71 63.5195 -58 83h-56.8008c-44.8799 -45.3301 -99.5996 -149.71 -99.5996 -208c0 -38.5195 21.54 -59.0996 41.6904 -65.5l22.3096 -7.08984v-71.4102h-32v48zM312 -32c4.41602 0 8 -3.58398 8 -8v-16
c0 -4.41602 -3.58398 -8 -8 -8h-304c-4.41602 0 -8 3.58398 -8 8v16c0 4.41602 3.58398 8 8 8h304zM112 416c-8.83203 0 -16 7.16797 -16 16s7.16797 16 16 16h96c8.83203 0 16 -7.16797 16 -16s-7.16797 -16 -16 -16h-96z" />
    <glyph glyph-name="chess-bishop-alt" unicode="&#xf43b;" horiz-adv-x="256" 
d="M247.16 12.4199c4.87988 -2.44141 8.83984 -8.85156 8.83984 -14.3086v-0.000976562v-46.1104c0 -8.83203 -7.16797 -16 -16 -16h-224c-8.83203 0 -16 7.16797 -16 16v46.1104c0.000976562 5.45898 3.96582 11.8701 8.84961 14.3096l23.1504 11.5801v16
c0 13.248 10.752 24 24 24h-1.41016c5.04199 26.2559 9.21289 69.2646 9.31055 96h-23.9004c-4.41602 0 -8 3.58398 -8 8v16c0 4.41602 3.58398 8 8 8h9.4502c-19.6504 21.4297 -17.1006 51.8203 -17.1006 52.5195c0 49.1406 36.4404 117.48 70.7402 139.48h1.07031
c-8.83203 0 -16 7.16797 -16 16s7.16797 16 16 16h48c8.83203 0 16 -7.16797 16 -16s-7.16797 -16 -16 -16h1.09961c34.1504 -21.9102 70.5898 -89.9902 70.5898 -139.39c0 -0.860352 2.57031 -31.25 -17.0596 -52.6104h9.20996c4.41602 0 8 -3.58398 8 -8v-16
c0 -4.41602 -3.58398 -8 -8 -8h-23.9004c0.0976562 -26.7354 4.26855 -69.7441 9.31055 -96h-1.41016c13.248 0 24 -10.752 24 -24v-16zM128.16 359.11c-20 0 -63.6904 -68.8701 -63.6904 -114.561c0 -34.5498 19.2803 -36.9199 31.6904 -40.5498v-12.0303h64v12
c12.5898 3.73047 31.6895 6.12988 31.6895 40.5498c0 12.9609 -4 29.6504 -10.6895 46.5703l-37.5 -38.8896c-0.962891 -0.993164 -2.86719 -1.79883 -4.25 -1.79883s-3.28711 0.805664 -4.25 1.79883l-14.0898 14.6094
c-0.960938 1.02832 -1.74023 3.00391 -1.74023 4.41016c0 1.40723 0.779297 3.38281 1.74023 4.41016l44.6797 46.3398c-15.9004 26.0605 -31 37.1406 -37.5898 37.1406zM168.84 64c-4.73438 26.2842 -8.6543 69.293 -8.75 96h-64.1797
c-0.0957031 -26.707 -4.01562 -69.7158 -8.75 -96h81.6797zM224 -32v20.2197l-32 16v27.7803h-128v-27.7803l-32 -16v-20.2197h192z" />
    <glyph glyph-name="chess-board" unicode="&#xf43c;" horiz-adv-x="512" 
d="M320.07 0v64h64v-64h-64zM192.12 0v64h64v-64h-64zM64.1797 191.9h64v-64h-64v64zM192.12 383.83v-64h-64v64h64zM448 191.9h-64v64h64v-64zM448 383.83v-64h-64v64h64zM448 63.9502h-64v64h64v-64zM320 383.83v-64h-64v64h64zM64.1104 319.83h64v-64h-64v64zM320 191.83
h-64v64h64v-64zM256 255.83h-64v64h64v-64zM192 255.83v-64h-64v64h64zM128 63.9004v-64h-64v64h64zM192 127.9v-64h-64v64h64zM384.05 255.88h-64v64h64v-64zM256.1 191.88v-64h-64v64h64zM256.1 127.88h64v-64h-64v64zM320.1 127.88v64h64v-64h-64zM480 448
c17.6641 0 32 -14.3359 32 -32v-448c0 -17.6641 -14.3359 -32 -32 -32h-448c-17.6641 0 -32 14.3359 -32 32v448c0 17.6641 14.3359 32 32 32h448zM480 -32v448h-448v-448h448z" />
    <glyph glyph-name="chess-clock" unicode="&#xf43d;" horiz-adv-x="640" 
d="M464 32c-61.8242 0 -112 50.1758 -112 112s50.1758 112 112 112s112 -50.1758 112 -112s-50.1758 -112 -112 -112zM464 224h-0.0634766c-44.1211 0 -79.9297 -35.8086 -79.9297 -79.9297c0 -44.1221 35.8086 -79.9307 79.9297 -79.9307s79.9297 35.8086 79.9297 79.9307
c0 13.2832 -5.95215 33.0537 -13.2861 44.1299l-56.5996 -56.6006c-1.94238 -1.94824 -5.75 -3.5293 -8.5 -3.5293c-2.75098 0 -6.55859 1.58105 -8.5 3.5293l-5.65039 5.65039c-1.94824 1.94141 -3.5293 5.74902 -3.5293 8.5s1.58105 6.55859 3.5293 8.5l56.5195 56.5303
c-11.0039 7.29297 -30.6484 13.2158 -43.8496 13.2197zM176 32c-61.8242 0 -112 50.1758 -112 112s50.1758 112 112 112s112 -50.1758 112 -112s-50.1758 -112 -112 -112zM160 222.37c-35.3281 -7.21094 -64 -42.3271 -64 -78.3838c0 -44.1602 35.8398 -80 80 -80
s80 35.8398 80 80c0 36.0566 -28.6719 71.1729 -64 78.3838v-82.3701c0 -6.62402 -5.37598 -12 -12 -12h-8c-6.62402 0 -12 5.37598 -12 12v82.3701zM608 320c17.6641 0 32 -14.3359 32 -32v-288c0 -17.6641 -14.3359 -32 -32 -32h-576c-17.6641 0 -32 14.3359 -32 32v288
c0 17.6641 14.3359 32 32 32h128v64h-56c-4.41602 0 -8 3.58398 -8 8v16c0 4.41602 3.58398 8 8 8h144c4.41602 0 8 -3.58398 8 -8v-16c0 -4.41602 -3.58398 -8 -8 -8h-56v-64h200c-4.41602 0 -8 3.58398 -8 8v16c0 4.41602 3.58398 8 8 8h144c4.41602 0 8 -3.58398 8 -8
v-16c0 -4.41602 -3.58398 -8 -8 -8h72zM608 0v288h-576v-288h576z" />
    <glyph glyph-name="chess-clock-alt" unicode="&#xf43e;" horiz-adv-x="640" 
d="M464 32c-61.8242 0 -112 50.1758 -112 112s50.1758 112 112 112s112 -50.1758 112 -112s-50.1758 -112 -112 -112zM448 222.37c-35.3281 -7.21094 -64 -42.3271 -64 -78.3838c0 -44.1602 35.8398 -80 80 -80s80 35.8398 80 80c0 36.0566 -28.6719 71.1729 -64 78.3838
v-82.3701c0 -6.62402 -5.37598 -12 -12 -12h-8c-6.62402 0 -12 5.37598 -12 12v82.3701zM608 320c17.6641 0 32 -14.3359 32 -32v-288c0 -17.6641 -14.3359 -32 -32 -32h-576c-17.6641 0 -32 14.3359 -32 32v288c0 17.6641 14.3359 32 32 32h72c-4.41602 0 -8 3.58398 -8 8
v16c0 4.41602 3.58398 8 8 8h144c4.41602 0 8 -3.58398 8 -8v-16c0 -4.41602 -3.58398 -8 -8 -8h200v64h-56c-4.41602 0 -8 3.58398 -8 8v16c0 4.41602 3.58398 8 8 8h144c4.41602 0 8 -3.58398 8 -8v-16c0 -4.41602 -3.58398 -8 -8 -8h-56v-64h128zM608 0v288h-576v-288
h576zM176 32c-61.8242 0 -112 50.1758 -112 112s50.1758 112 112 112s112 -50.1758 112 -112s-50.1758 -112 -112 -112zM176 224h-0.0634766c-44.1211 0 -79.9297 -35.8086 -79.9297 -79.9297c0 -44.1221 35.8086 -79.9307 79.9297 -79.9307
s79.9297 35.8086 79.9297 79.9307c0 13.2832 -5.95215 33.0537 -13.2861 44.1299l-56.5996 -56.6006c-1.94238 -1.94824 -5.75 -3.5293 -8.5 -3.5293c-2.75098 0 -6.55859 1.58105 -8.5 3.5293l-5.65039 5.65039c-1.94824 1.94141 -3.5293 5.74902 -3.5293 8.5
s1.58105 6.55859 3.5293 8.5l56.5195 56.5303c-11.0039 7.29297 -30.6484 13.2158 -43.8496 13.2197z" />
    <glyph glyph-name="chess-king" unicode="&#xf43f;" 
d="M408 -32c4.41602 0 8 -3.58398 8 -8v-16c0 -4.41602 -3.58398 -8 -8 -8h-368c-4.41602 0 -8 3.58398 -8 8v16c0 4.41602 3.58398 8 8 8h368zM439.34 269.88c4.81641 -6.4668 8.70703 -18.2607 8.70703 -26.3252c0 -3.75098 -0.916992 -9.69824 -2.04688 -13.2744
l-77 -230.28h-33.7998l80.3096 240.12c1.66992 5.5 -1.42969 15.8799 -12 15.8799h-359.05h-0.0263672c-6.85547 0 -12.4199 -5.56445 -12.4199 -12.4199c0 -1.05664 0.257812 -2.73242 0.576172 -3.74023l80.1602 -239.84h-33.75l-76.8799 230
c-1.16602 3.64648 -2.1123 9.71191 -2.1123 13.54c0 24.5371 19.915 44.4551 44.4521 44.46h163.54v64h-56c-4.41602 0 -8 3.58398 -8 8v16c0 4.41602 3.58398 8 8 8h56v56c0 4.41602 3.58398 8 8 8h16c4.41602 0 8 -3.58398 8 -8v-56h56c4.41602 0 8 -3.58398 8 -8v-16
c0 -4.41602 -3.58398 -8 -8 -8h-56v-64h163.51c0.0683594 0 0.177734 0.000976562 0.246094 0.000976562c12.3682 0 28.3096 -8.11816 35.584 -18.1211z" />
    <glyph glyph-name="chess-king-alt" unicode="&#xf440;" horiz-adv-x="320" 
d="M295.16 12.4199c4.87988 -2.44141 8.83984 -8.85156 8.83984 -14.3086v-0.000976562v-46.1104c0 -8.83203 -7.16797 -16 -16 -16h-256c-8.83203 0 -16 7.16797 -16 16v46.1104c0.000976562 5.45898 3.96582 11.8701 8.84961 14.3096l23.1504 11.5801v16
c0 13.248 10.752 24 24 24h13.0898c5.95605 27.1309 10.8428 71.6934 10.9102 99.4697v28.5303h-24c-4.41602 0 -8 3.58398 -8 8v16c0 4.41602 3.58398 8 8 8h16.9102l-31.8203 84.75c-1.12793 3.00293 -2.04297 8.04297 -2.04297 11.25c0 17.6641 14.3359 32 32 32
h0.0429688h56.9102v32h-24c-4.41602 0 -8 3.58398 -8 8v16c0 4.41602 3.58398 8 8 8h24v24c0 4.41602 3.58398 8 8 8h16c4.41602 0 8 -3.58398 8 -8v-24h24c4.41602 0 8 -3.58398 8 -8v-16c0 -4.41602 -3.58398 -8 -8 -8h-24v-32h56.9102h0.03125
c17.6641 0 32 -14.3359 32 -32c0 -3.19824 -0.910156 -8.22461 -2.03125 -11.2197l-31.8105 -84.7803h16.9004c4.41602 0 8 -3.58398 8 -8v-16c0 -4.41602 -3.58398 -8 -8 -8h-24v-28.5303c0.0673828 -27.7764 4.9541 -72.3389 10.9102 -99.4697h13.0898
c13.248 0 24 -10.752 24 -24v-16zM87.0898 320l36 -96h73.8506l36 96h-145.851zM128 163.47c-0.0332031 -27.7334 -4.55859 -72.2959 -10.0996 -99.4697h84.1992c-5.54102 27.1738 -10.0664 71.7363 -10.0996 99.4697v28.5303h-64v-28.5303zM272 -32v20.2197l-32 16v27.7803
h-160v-27.7803l-32 -16v-20.2197h224z" />
    <glyph glyph-name="chess-knight" unicode="&#xf441;" horiz-adv-x="384" 
d="M35.4805 146.36c-19.5566 8.70508 -35.4512 33.1436 -35.4805 54.5498v119v0.125977c0 8.11719 3.41797 20.335 7.62988 27.2734l-2.68945 5.39062c-2.71973 5.44727 -4.93359 14.8105 -4.94043 20.8994c0.0273438 23.3779 19.0225 42.373 42.4004 42.4004h85.5996
c123.51 0 224 -100.49 224 -224v-192h-32v192c0 106 -86 192 -192 192h-85.5996c-7.2207 0 -13.5205 -7.66992 -8.85059 -17l12.3105 -24.5596c-7.41992 -7.43066 -13.8604 -12.0908 -13.8604 -22.4902v-119c0.000976562 -9.95312 7.38379 -21.3105 16.4805 -25.3506
l35.1992 -15.6191c2.96875 -1.32324 8.01562 -2.39648 11.2646 -2.39648c2.94727 0 7.55957 0.889648 10.2959 1.98633l11.0801 4.42969c6.84668 2.73438 14.1357 10.6826 16.2695 17.7402l8 26.5693c1.2793 5.12207 6.14941 11.1973 10.8701 13.5605l16.1602 9.58984
v-62.25c-0.00488281 -14.1914 -10.3086 -30.8613 -23 -37.21l-42.3105 -24.8203c-21.1416 -10.582 -38.3047 -38.3574 -38.3096 -62v-45.1797h-32v45.1797c0 0.0986328 -0.000976562 0.258789 -0.000976562 0.357422c0 29.3369 19.6543 66.585 43.8711 83.1426
c-3.60059 1.20996 -2.38965 0.780273 -40.3896 17.6807zM64 284c0 11.04 8.95996 20 20 20s20 -8.95996 20 -20s-8.95996 -20 -20 -20s-20 8.95996 -20 20zM376 -32c4.41602 0 8 -3.58398 8 -8v-16c0 -4.41602 -3.58398 -8 -8 -8h-368c-4.41602 0 -8 3.58398 -8 8v16
c0 4.41602 3.58398 8 8 8h368z" />
    <glyph glyph-name="chess-knight-alt" unicode="&#xf442;" horiz-adv-x="320" 
d="M91.7305 277.33c0 -8.20801 -6.66211 -14.9082 -14.8701 -14.9297c-8.20898 0 -14.8701 6.66113 -14.8701 14.8691c0 8.20898 6.66211 14.8701 14.8701 14.8701c8.1748 0 14.8369 -6.63477 14.8701 -14.8096zM311.16 12.4199
c4.87988 -2.44141 8.83984 -8.85156 8.83984 -14.3086v-0.000976562v-46.1104c0 -8.83203 -7.16797 -16 -16 -16h-288c-8.83203 0 -16 7.16797 -16 16v46.1104c0.000976562 5.45898 3.96582 11.8701 8.84961 14.3096l23.1504 11.5801v16
c0.0195312 5.70117 3.42383 13.4785 7.59961 17.3604c-16.9795 46.8594 -1.86914 79.3193 18.6904 101.42l-26.6797 11.9102c-17.4355 7.79492 -31.5967 29.6211 -31.6104 48.7197v83.3701v0.0703125c0 6.13965 2.19531 15.5967 4.90039 21.1094l-0.360352 0.740234
c-2.49805 5.0332 -4.53223 13.6797 -4.54004 19.2998c0 22.0801 17.9199 40 40 40h86.1201c89.2598 0 161.88 -72.6201 161.88 -161.88v-112.86v-0.173828c0 -14.5967 -8.39941 -34.7949 -18.75 -45.0859l-0.879883 -0.879883
c11.0898 -2.12012 19.6299 -11.4102 19.6299 -23.1201v-16zM44.6504 199.91l26.8994 -12c2.26953 -1.01562 6.12891 -1.83984 8.61523 -1.83984c2.25781 0 5.79004 0.685547 7.88477 1.5293l8.48047 3.40039c5.26074 2.10547 10.8467 8.2207 12.4697 13.6504
l6.08984 20.3496c0.959961 3.95215 4.6875 8.64258 8.32031 10.4697l21.2598 5.06055v-42.7305c0 -38.3301 -108.939 -47.1699 -73.6201 -133.8h152.95l22.6299 22.6299c5.17188 5.17383 9.37012 15.3096 9.37012 22.625v0.00488281v112.86
c0 71.4297 -58.4502 129.88 -129.84 129.88h-86.1602c-4.41602 0 -8 -3.58398 -8 -8c0.00585938 -1.45703 0.539062 -3.69629 1.19043 -5l9.46973 -18.9297l-6 -6c-2.57227 -2.58496 -4.66016 -7.6416 -4.66016 -11.2881v-0.00195312v-83.3701
c0.000976562 -7.64648 5.66797 -16.3818 12.6504 -19.5zM288 -32v20.2197l-14.3096 7.16016l-17.6904 8.83984v27.7803h-192v-27.7803l-17.6904 -8.83984l-14.3096 -7.16016v-20.2197h256z" />
    <glyph glyph-name="chess-pawn" unicode="&#xf443;" horiz-adv-x="320" 
d="M312 -32c4.41602 0 8 -3.58398 8 -8v-16c0 -4.41602 -3.58398 -8 -8 -8h-304c-4.41602 0 -8 3.58398 -8 8v16c0 4.41602 3.58398 8 8 8h304zM56 192c-4.41602 0 -8 3.58398 -8 8v16c0 4.41602 3.58398 8 8 8h25.7803c-18.6465 18.1953 -33.7803 54.1074 -33.7803 80.1602
c0 61.8242 50.1758 112 112 112s112 -50.1758 112 -112c0 -26.0527 -15.1338 -61.9648 -33.7803 -80.1602h25.7803c4.41602 0 8 -3.58398 8 -8v-16c0 -4.41602 -3.58398 -8 -8 -8h-40v-32c0 -73.6201 11.4004 -128.34 33 -160h-36.7998
c-18.6602 37.54 -28.2002 91 -28.2002 160v32h-64v-32c0 -69 -9.54004 -122.46 -28.2002 -160h-36.7998c21.6396 31.6602 33 86.3799 33 160v32h-40zM80 304c0.0498047 -44.1104 35.8896 -79.9502 80 -80c44.1602 0 80 35.8398 80 80s-35.8398 80 -80 80
s-80 -35.8398 -80 -80z" />
    <glyph glyph-name="chess-pawn-alt" unicode="&#xf444;" horiz-adv-x="256" 
d="M247.16 12.4199c4.87988 -2.44141 8.83984 -8.85156 8.83984 -14.3086v-0.000976562v-46.1104c0 -8.83203 -7.16797 -16 -16 -16h-224c-8.83203 0 -16 7.16797 -16 16v46.1104c0.000976562 5.45898 3.96582 11.8701 8.84961 14.3096l23.1504 11.5801v16
c0 13.248 10.752 24 24 24h-1.41016c5.04199 26.2559 9.21289 69.2646 9.31055 96h-23.9004c-4.41602 0 -8 3.58398 -8 8v16c0 4.41602 3.58398 8 8 8h16.9102c-13.6982 15.0088 -24.8584 43.6807 -24.9102 64v0.151367c0 52.915 42.9453 95.8604 95.8604 95.8604
c52.9141 0 95.8594 -42.9453 95.8594 -95.8604c0 -20.3154 -11.0342 -49.0557 -24.6299 -64.1514h16.9102c4.41602 0 8 -3.58398 8 -8v-16c0 -4.41602 -3.58398 -8 -8 -8h-23.9004c0.0976562 -26.7354 4.26855 -69.7441 9.31055 -96h-1.41016c13.248 0 24 -10.752 24 -24
v-16zM160.09 160h-64.1797c-0.0957031 -26.707 -4.01562 -69.7158 -8.75 -96h81.6797c-4.73438 26.2842 -8.6543 69.293 -8.75 96zM128 320c-35.2891 -0.0380859 -63.9619 -28.7109 -64 -64c0 -35.3281 28.6719 -64 64 -64s64 28.6719 64 64s-28.6719 64 -64 64zM224 -32
v20.2197l-32 16v27.7803h-128v-27.7803l-32 -16v-20.2197h192z" />
    <glyph glyph-name="chess-queen" unicode="&#xf445;" horiz-adv-x="512" 
d="M256 336c-30.9121 0 -56 25.0879 -56 56s25.0879 56 56 56s56 -25.0879 56 -56s-25.0879 -56 -56 -56zM256 416c-13.248 0 -24 -10.752 -24 -24s10.752 -24 24 -24s24 10.752 24 24s-10.752 24 -24 24zM440 -32c4.41602 0 8 -3.58398 8 -8v-16
c0 -4.41602 -3.58398 -8 -8 -8h-368c-4.41602 0 -8 3.58398 -8 8v16c0 4.41602 3.58398 8 8 8h368zM504.87 263.84c3.93457 -2.62109 7.12891 -8.58691 7.12891 -13.3154c0 -2.08496 -0.756836 -5.29004 -1.68945 -7.1543l-115.76 -243.37h-35.4395l115.96 243.82
l-4.07031 2.26953c-12.6406 -12.1934 -37.1533 -22.0908 -54.7168 -22.0908c-0.078125 0 -0.205078 0.000976562 -0.283203 0.000976562c-4.1748 0.00488281 -10.8955 0.62793 -15 1.38965c-31.6797 5.87012 -56.0498 30.9502 -63 62.6104h-8.67969
c-11.5645 -26.4941 -44.4121 -47.9971 -73.3203 -47.9971s-61.7559 21.5029 -73.3203 47.9971h-8.72949c-7.78027 -34.71 -36.8301 -61.4004 -72.46 -63.8096c-1.83984 -0.130859 -3.68066 -0.19043 -5.49023 -0.19043
c-0.0791016 0 -0.208008 -0.000976562 -0.287109 -0.000976562c-17.5625 0 -42.0742 9.89746 -54.7129 22.0908l-4.12012 -2.26953l116 -243.82h-35.4297l-115.76 243.33c-0.932617 1.86426 -1.68945 5.06934 -1.68945 7.1543c0 4.72852 3.19434 10.6943 7.12891 13.3154
l28.5703 16c2.12012 1.42969 5.91699 2.58984 8.47461 2.58984h0.00488281c4.74121 -0.0878906 10.8389 -3.28223 13.6104 -7.12988c7.85547 -10.6309 24.96 -19.2598 38.1787 -19.2598h0.03125c1.09961 0 2.20996 0.0400391 3.33008 0.110352
c25.6699 1.73926 44.6699 24.7998 44.6699 50.4893c0 7.39746 6.00293 13.4004 13.4004 13.4004v0h38.7695c6.04004 0 11.6104 -3.99023 12.8604 -9.91016c4.42969 -21.0361 25.4717 -38.1094 46.9697 -38.1094s42.54 17.0732 46.9697 38.1094
c1.25 5.91016 6.86035 9.91016 12.8604 9.91016h38.7695c7.39746 0 13.4004 -6.00293 13.4004 -13.4004c0 -23.5293 15.7002 -45.46 38.8398 -49.75c2.50684 -0.463867 6.61035 -0.844727 9.16016 -0.849609h0.0205078c13.1416 0 30.1885 8.54785 38.0498 19.0801
c2.82422 3.90137 9.02441 7.1582 13.8398 7.26953c2.55078 0 6.33691 -1.16016 8.4502 -2.58984z" />
    <glyph glyph-name="chess-queen-alt" unicode="&#xf446;" horiz-adv-x="256" 
d="M128 400c-13.248 0 -24 10.752 -24 24s10.752 24 24 24s24 -10.752 24 -24s-10.752 -24 -24 -24zM247.16 12.4199c4.87988 -2.44141 8.83984 -8.85156 8.83984 -14.3086v-0.000976562v-46.1104c0 -8.83203 -7.16797 -16 -16 -16h-224c-8.83203 0 -16 7.16797 -16 16
v46.1104c0.000976562 5.45898 3.96582 11.8701 8.84961 14.3096l23.1504 11.5801v16c0.0898438 11.5781 9.49805 22.0527 21 23.3799c6.01758 27.2969 10.9453 72.1377 11 100.09v28.5303h-24c-4.41602 0 -8 3.58398 -8 8v16c0 4.41602 3.58398 8 8 8h22.3896
l-50.9199 124.23c-0.436523 0.871094 -0.791016 2.36816 -0.791016 3.34277c0 2.2041 1.48828 4.98438 3.32129 6.20703l11.1504 7.46973c0.995117 0.667969 2.77539 1.20996 3.97363 1.20996h0.0263672c2.21289 -0.0400391 5.05762 -1.53223 6.34961 -3.33008
c3.66895 -4.96777 11.6582 -9 17.834 -9h0.00585938c0.549805 0 1.03027 0.0498047 1.5498 0.0498047c11.96 0.810547 20.8506 11.5605 20.8506 23.5605c0 3.45508 2.80469 6.25977 6.25977 6.25977v0h18.0703
c0.0439453 0.000976562 0.116211 0.00195312 0.160156 0.00195312c2.62109 0 5.2373 -2.07031 5.83984 -4.62207c2.06641 -9.82324 11.8906 -17.7969 21.9297 -17.7969s19.8633 7.97363 21.9297 17.7969c0.602539 2.55176 3.21875 4.62207 5.83984 4.62207
c0.0439453 0 0.116211 -0.000976562 0.160156 -0.00195312h18.0703h0.00976562c3.45605 0 6.25977 -2.80469 6.25977 -6.25977v0c0 -10.9805 7.33008 -21.21 18.1309 -23.21c1.16797 -0.219727 3.08105 -0.398438 4.26953 -0.400391h0.00976562
c6.13477 0 14.0957 3.9873 17.7705 8.90039c1.3125 1.82422 4.20215 3.34766 6.4502 3.39941c1.18945 -0.00195312 2.9541 -0.543945 3.93945 -1.20996l11.1602 -7.43945c1.83789 -1.22266 3.3291 -4.00488 3.3291 -6.21191
c0 -0.972656 -0.353516 -2.46875 -0.789062 -3.33789l-50.9297 -124.23h22.3896c4.41602 0 8 -3.58398 8 -8v-16c0 -4.41602 -3.58398 -8 -8 -8h-24v-28.5303c0.0683594 -27.9541 5.01855 -72.7939 11.0498 -100.09c11.4775 -1.34961 20.8633 -11.8232 20.9502 -23.3799v-16
zM56.7002 322.23l40.2998 -98.2305h62l40.2998 98.1602c-1.86328 0.116211 -4.86426 0.488281 -6.7002 0.830078c-10.375 1.94043 -24.2988 10.0801 -31.0801 18.1699c-8.13965 -6.41992 -23.1592 -11.6289 -33.5254 -11.6289c-10.4014 0 -25.46 5.24121 -33.6143 11.6992
c-8.08594 -9.61426 -24.8184 -18.126 -37.3496 -19h-0.330078zM170.1 64c-5.54102 27.1738 -10.0664 71.7363 -10.0996 99.4697v28.5303h-64v-28.5303c-0.0332031 -27.7334 -4.55859 -72.2959 -10.0996 -99.4697h84.1992zM224 -32v20.2197l-32 16v27.7803h-128v-27.7803
l-32 -16v-20.2197h192z" />
    <glyph glyph-name="chess-rook" unicode="&#xf447;" horiz-adv-x="384" 
d="M376 -32c4.41602 0 8 -3.58398 8 -8v-16c0 -4.41602 -3.58398 -8 -8 -8h-368c-4.41602 0 -8 3.58398 -8 8v16c0 4.41602 3.58398 8 8 8h368zM352 416c17.6641 0 32 -14.3359 32 -32v-167.34l-56 -48c0 -42.71 -1.57031 -93.4297 10.6504 -168.66h-32.4707
c-11.5898 74.3398 -10.1797 120.71 -10.1797 183.34l56 48v152.66h-80v-64h-32v64h-95.9102v-64h-32l-0.0898438 64h-80v-152.66l56 -48c0 -61.9297 1.44043 -108.82 -10.1797 -183.34h-32.4707c12.2207 75.2695 10.6504 126 10.6504 168.66l-56 48v167.34
c0 17.6641 14.3359 32 32 32h320zM192 256c26.4688 -0.0273438 47.9727 -21.5312 48 -48v-80h-96v80c0.0273438 26.4688 21.5312 47.9727 48 48zM208 160v48c0 8.83203 -7.16797 16 -16 16s-16 -7.16797 -16 -16v-48h32z" />
    <glyph glyph-name="chess-rook-alt" unicode="&#xf448;" horiz-adv-x="320" 
d="M311.16 20.4199c4.87988 -2.44141 8.83984 -8.85156 8.83984 -14.3086v-0.000976562v-54.1104c0 -8.83203 -7.16797 -16 -16 -16h-288c-8.83203 0 -16 7.16797 -16 16v54.1104c0.000976562 5.45898 3.96582 11.8701 8.84961 14.3096l23.1504 11.5801v16
c0 8.83203 7.16797 16 16 16h0.389648l7.27051 145.32l-30.3906 30.6797c-5.10645 5.15332 -9.25977 15.2246 -9.26953 22.4805v97.5195c0.0380859 13.21 10.79 23.9619 24 24h240c13.21 -0.0380859 23.9619 -10.79 24 -24v-97.4199
c-0.000976562 -7.25488 -4.14062 -17.3301 -9.24023 -22.4902l-30.4199 -30.7803l7.27051 -145.31h0.389648c8.83203 0 16 -7.16797 16 -16v-16zM48 262.5l40.3398 -40.7197l-7.92969 -157.78h159.18l-7.92969 157.81l40.3398 40.75v89.4404h-48v-48h-32v48h-64v-48h-32v48
h-48v-89.5zM288 -32v28.2197l-14.3096 7.16016l-17.6904 8.83984v19.7803h-192v-19.7803l-17.6904 -8.83984l-14.3096 -7.16016v-28.2197h256zM183.59 216.41v-47.1797h-47.1797v47.1797c0 13.0215 10.5684 23.5898 23.5898 23.5898s23.5898 -10.5684 23.5898 -23.5898z" />
    <glyph glyph-name="user-lock" unicode="&#xf502;" horiz-adv-x="640" 
d="M48 -32h273.6c2.0459 -9.77539 8.67578 -24.1113 14.8008 -32h-288.4c-26.4961 0 -48 21.5039 -48 48v41.5996c0 74.2002 60.2002 134.4 134.3 134.4c28.7998 0 42.5 -16 89.6006 -16c47.0996 0 60.8994 16 89.5996 16
c5.87012 -0.111328 15.3232 -1.05273 21.0996 -2.09961c-5.43555 -7.69629 -11.3047 -21.4502 -13.0996 -30.7002c-2.59961 0.200195 -5.2002 0.799805 -7.90039 0.799805c-19.5996 0 -39.0996 -16 -89.5996 -16s-70 16 -89.5996 16
c-56.4863 -0.0380859 -102.362 -45.9141 -102.4 -102.4v-41.5996c0 -8.83203 7.16797 -16 16 -16zM224 192c-70.6562 0 -128 57.3438 -128 128s57.3438 128 128 128s128 -57.3438 128 -128s-57.3438 -128 -128 -128zM224 416c-52.9092 -0.0820312 -95.918 -43.0908 -96 -96
c0 -52.9922 43.0078 -96 96 -96s96 43.0078 96 96s-43.0078 96 -96 96zM496 80c17.6641 0 32 -14.3359 32 -32s-14.3359 -32 -32 -32s-32 14.3359 -32 32s14.3359 32 32 32zM592 160c26.4961 0 48 -21.5039 48 -48v-128c0 -26.4961 -21.5039 -48 -48 -48h-192
c-26.4961 0 -48 21.5039 -48 48v128c0 26.4961 21.5039 48 48 48h16v48c0 44.1602 35.8398 80 80 80s80 -35.8398 80 -80v-48h16zM448 208v-48h96v48c0 26.4961 -21.5039 48 -48 48s-48 -21.5039 -48 -48zM608 -16v128c0 8.83203 -7.16797 16 -16 16h-192
c-8.83203 0 -16 -7.16797 -16 -16v-128c0 -8.83203 7.16797 -16 16 -16h192c8.83203 0 16 7.16797 16 16z" />
    <glyph glyph-name="brain" unicode="&#xf5dc;" horiz-adv-x="544" 
d="M509.6 217.7c21.5 -17.1006 34.4004 -43.1006 34.5 -70.7002c0 -32.7002 -17.3994 -62.2998 -45.2998 -78.5c2.2998 -48.0996 -36.7002 -88.5996 -84.8994 -87.4004c-14.2002 -27.3994 -42.5 -45 -74 -45c-27.9004 0 -52.6006 13.8008 -67.8008 34.8008
c-15.2998 -21 -39.8994 -34.8008 -67.7998 -34.8008c-31.5 0 -59.8994 17.6006 -74.0996 45c-48.2002 -1.2998 -87.2002 39.2002 -84.9004 87.4004c-27.8994 16.0996 -45.2998 45.7998 -45.2998 78.5c0 27.5996 12.9004 53.5996 34.2998 70.7002
c-17.5 54.3994 20.1006 93.0996 41.1006 105.3c-2.60059 37.7002 25.8994 74.2998 66.6992 79.4004c12 27.3994 39.1006 45.5996 69.7002 45.5996c24.6006 0 46.2002 -11.9004 60.2002 -29.9004c14 18 35.5996 29.9004 60.2002 29.9004
c30.5996 0 57.7998 -18.2002 69.5996 -45.5996c40.7998 -5.10059 69.4004 -41.7002 66.7002 -79.4004c21 -12.0996 58.5996 -50.7998 41.0996 -105.3zM255.9 19.5h0.0996094v352.5c0 24.2998 -19.9004 44 -44.2002 44c-30.7998 0 -39.8994 -22.5996 -45.7998 -45.5
l-12.7002 0.299805h-0.399414c-25.9004 0 -45.5 -19.7002 -45.5 -43.7998c0 -6.2002 1.69922 -11.9004 4.19922 -22.7998c-27.5 -11.2002 -49.3994 -25.7998 -49.3994 -59.7002c0 -10 0.200195 -13.5 12.7998 -39.2002
c-19.9004 -11.3994 -42.9004 -24.3994 -42.9004 -58.2998c0 -35.2998 23.4004 -49 48.8008 -59.5c-2.80078 -13.9004 -3.7002 -16.7998 -3.7002 -23c0 -28.4004 23.2002 -51.5 51.7002 -51.5c3.89941 0 5.89941 0.5 22.1992 3.2002
c8.90039 -26.4004 21.2002 -48.2002 53.1006 -48.2002c28.5 0 51.7002 23.0996 51.7002 51.5zM463 87.5c25.5 10.5 48.9004 24.2002 48.9004 59.5c0 33.7998 -23 46.9004 -42.9004 58.2998c12.5996 25.7998 12.7998 29.2002 12.7998 39.2002
c0 33.9004 -21.8994 48.5 -49.3994 59.7002c2.5 10.8994 4.19922 16.5996 4.19922 22.7998c0 24.0996 -19.5996 43.7998 -45.5 43.7998h-0.399414l-12.7002 -0.299805c-5.90039 23 -15.0996 45.5 -45.7998 45.5c-24.4004 0 -44.2002 -19.7002 -44.2002 -44v-352.5
c0 -28.4004 23.2002 -51.5 51.7002 -51.5c31.8994 0 44.2002 21.7998 53.0996 48.2002c16.2998 -2.7002 18.2998 -3.2002 22.2002 -3.2002c28.5 0 51.7002 23.0996 51.7002 51.5c0 6.2002 -0.900391 9.2002 -3.7002 23z" />
    <glyph glyph-name="mind-share" unicode="&#xf677;" horiz-adv-x="640" 
d="M288.1 175.4c-12.0996 -9.10059 -23.0996 -19.7002 -32.0996 -31.8008v228.4c0 24.2998 -19.9004 44 -44.2002 44c-30.7998 0 -39.8994 -22.5996 -45.7998 -45.5l-12.7002 0.299805h-0.399414c-25.9004 0 -45.5 -19.7002 -45.5 -43.7998
c0 -6.2002 1.69922 -11.9004 4.19922 -22.7998c-27.5 -11.2002 -49.3994 -25.7998 -49.3994 -59.7002c0 -10 0.200195 -13.5 12.7998 -39.2002c-19.9004 -11.3994 -42.9004 -24.3994 -42.9004 -58.2998c0 -35.2998 23.4004 -49 49 -59.4004
c-2.7998 -13.8994 -3.69922 -16.7998 -3.69922 -23c0 -28.3994 23.1992 -51.5 51.6992 -51.5c3.90039 0 5.90039 0.5 22.2002 3.2002c8.90039 -26.3994 21.2002 -48.2002 53.1006 -48.2002c13.1992 0 25.1992 5.10059 34.2998 13.3008
c4.39941 -9.7002 9.89941 -18.9004 16.2002 -27.6006c-14.1006 -10.8994 -31.5 -17.7002 -50.6006 -17.7002c-31.5 0 -59.8994 17.6006 -74.0996 45c-48.2002 -1.2998 -87.2002 39.2002 -84.9004 87.4004c-27.8994 16.0996 -45.2998 45.7998 -45.2998 78.5
c0 27.5996 12.9004 53.5996 34.2998 70.7002c-17.5 54.3994 20.1006 93.0996 41.1006 105.3c-2.60059 37.7002 25.8994 74.2998 66.6992 79.4004c12 27.3994 39.1006 45.5996 69.7002 45.5996c24.6006 0 46.2002 -11.9004 60.2002 -29.9004
c14 18 35.5996 29.9004 60.2002 29.9004c30.5996 0 57.7998 -18.2002 69.7998 -45.5996c40.7998 -5.10059 69.4004 -41.7002 66.7002 -79.4004c13.2998 -7.59961 33 -25.9004 41.5 -52c-3.7998 -0.0996094 -7.60059 -0.5 -11.2998 -1.2998
c-3.80078 -0.799805 -7.5 -1.90039 -11.1006 -3.40039c-3.09961 -1.2998 -5.5 -3.2998 -8.2998 -5c-6.2002 22.2002 -24.5996 33.7998 -47 42.9004c2.5 10.8994 4.2002 16.5996 4.2002 22.7998c0 24.0996 -19.6006 43.7998 -45.5 43.7998h-0.400391l-12.7002 -0.299805
c-5.89941 23 -15.0996 45.5 -45.7998 45.5c-24.3994 0 -44.2002 -19.7002 -44.2002 -44v-196.6zM630.3 134.8c6.2998 -6.2998 9.7002 -14.7998 9.7002 -23.7002c0 -8.89941 -3.5 -17.2998 -9.7002 -23.5l-96 -95.1992c-9.2002 -9.2002 -22.3994 -11.8008 -34.2998 -6.80078
c-12.0996 5.10059 -19.9004 17 -19.9004 30.4004v31.2002h-80c-17.2998 0 -29.5996 -5.5 -37.6992 -16.7002c-12.3008 -17.2998 -11.7002 -44.0996 -7.40039 -56.9004c6.2998 -18.6992 -7.59961 -37.5996 -26.2998 -37.5996c-5.40039 0 -10.7998 1.59961 -15.6006 4.7998
c-42 27.9004 -63.5996 78.5 -55.1992 128.8c0.0996094 0.200195 0.199219 0.5 0.199219 0.700195c9.2002 53.2998 52.9004 96 106.7 103.9c6.10059 1 12 1.09961 18.1006 1h97.1992v31.2002c0 13.3994 7.80078 25.2998 19.9004 30.3994
c11.9004 4.90039 25.0996 2.40039 34.2998 -6.7998zM512 16l95.7998 96l-96 95.2002l0.299805 -64.1006h-128c-6 0 -10.2998 0.100586 -14.6992 -0.599609c-40.4004 -5.90039 -73.3008 -38 -80 -78.2002c-5.7002 -34.0996 6.89941 -68.2998 32.3994 -90.0996
c-3.7998 20.5996 -2.5 51.2998 14.5 75c9.90039 13.7002 28.9004 30 63.7002 30h112v-63.2002z" />
    <glyph glyph-name="torah" unicode="&#xf6a0;" horiz-adv-x="640" 
d="M210.64 193l-33.5693 56.0801c-1.90137 3.12695 -3.44531 8.63574 -3.44531 12.2959c0 3.49707 1.41797 8.79492 3.16504 11.8242c3.86035 6.76758 13.3164 12.2598 21.1074 12.2598h0.0224609h68l33.3105 55.6797c3.86133 6.54688 13.165 11.8604 20.7656 11.8604
h0.0634766h0.0527344c7.48633 0 16.6426 -5.2373 20.4375 -11.6904l33.4502 -55.8691h68.0703c13.3232 -0.0136719 24.1367 -10.8369 24.1367 -24.1602c0 -3.69043 -1.54004 -9.25488 -3.4375 -12.4199l-33.4199 -55.8604l33.5703 -56.0596
c1.90625 -3.13086 3.45312 -8.64648 3.45312 -12.3115c0 -3.50195 -1.4209 -8.80566 -3.17285 -11.8389c-3.86328 -6.76172 -13.3203 -12.25 -21.1074 -12.25h-0.0224609h-68l-33.3105 -55.6797c-3.8623 -6.54199 -13.1631 -11.8545 -20.7598 -11.8604h-0.117188
c-7.4873 0 -16.6455 5.2373 -20.4424 11.6904l-33.4404 55.8691h-68.0596c-13.3184 0.0185547 -24.127 10.8428 -24.127 24.1602c0 3.69043 1.53906 9.25488 3.43652 12.4199zM206.5 129.54h42.0996l-21.0996 35.2402zM320.06 66.6699l20.2607 33.8896h-40.5508z
M433.55 129.54l-21.0898 35.2197l-21.0596 -35.2197h42.1494zM433.49 256.46h-42.1104l21.1104 -35.2402zM320 319.31l-20.3203 -33.8691h40.54zM282.35 256.48l-37.9297 -63.4805l38 -63.46h75.2305l37.9199 63.46l-38 63.4805h-75.2207zM248.59 256.48h-42.0996
l21.0996 -35.2207zM576 449c35.8799 0 64 -21.0801 64 -48v-416c0 -26.9199 -28.1201 -48 -64 -48c-28.3203 0 -51.5703 13.2197 -60.2002 32h-391.6c-8.62988 -18.7803 -31.8799 -32 -60.2002 -32c-35.8799 0 -64 21.0801 -64 48v416c0 26.9199 28.1201 48 64 48
c28.3203 0 51.5703 -13.2197 60.2002 -32h391.6c8.62988 18.7803 31.8799 32 60.2002 32zM96 385v16c0 6.37012 -12.75 16 -32 16s-32 -9.62988 -32 -16v-416c0 -6.37988 12.75 -16 32 -16s32 9.62012 32 16v400zM512 1v384h-384v-384h384zM608 -15v416
c0 6.37012 -12.75 16 -32 16s-32 -9.62988 -32 -16v-416c0 -6.37988 12.75 -16 32 -16s32 9.62012 32 16z" />
    <glyph glyph-name="alarm-exclamation" unicode="&#xf843;" horiz-adv-x="512" 
d="M256 96c13.248 0 24 -10.752 24 -24s-10.752 -24 -24 -24s-24 10.752 -24 24s10.752 24 24 24zM247.5 120c-4.14844 0 -7.74121 3.36035 -8 7.5l-7 136c-0.00878906 0.137695 -0.015625 0.362305 -0.015625 0.5c0 4.41602 3.58398 8 8 8h0.015625h31h0.015625
c4.41602 0 8 -3.58398 8 -8c0 -0.137695 -0.00683594 -0.362305 -0.015625 -0.5l-7 -136c-0.321289 -4.08203 -3.90527 -7.44238 -8 -7.5h-17zM32 336c0.0839844 -10.7852 4.29492 -27.249 9.40039 -36.75c-5.41992 -8.39258 -13.2158 -22.5674 -17.4004 -31.6396
c-14.8301 18.9795 -24 42.5293 -24 68.3896c0.0771484 61.7471 50.2529 111.923 112 112c33.8604 0 63.8896 -15.4199 84.4404 -39.2002c-9.71875 -2.30176 -25.1484 -7.13965 -34.4404 -10.7998c-12.0312 9.88086 -34.4316 17.9443 -50 18
c-44.1104 -0.0498047 -79.9502 -35.8896 -80 -80zM400 448c61.7471 -0.0771484 111.923 -50.2529 112 -112c0 -25.8604 -9.20996 -49.3896 -24 -68.3896c-4.17578 9.05664 -11.9531 23.209 -17.3604 31.5898c5.09375 9.50391 9.28711 25.9678 9.36035 36.75
c-0.0498047 44.1104 -35.8896 79.9502 -80 80c-15.5684 -0.0556641 -37.9688 -8.12012 -50 -18c-9.29199 3.66016 -24.7217 8.49805 -34.4404 10.7998c20.5508 23.8301 50.5801 39.25 84.4404 39.25zM256 384c123.71 0 224 -100.29 224 -224v-0.0839844
c0 -46.0957 -24.582 -111.708 -54.8701 -146.456l52.5 -52.4902c1.29492 -1.29297 2.34668 -3.8291 2.34668 -5.66016c0 -1.83008 -1.05176 -4.36621 -2.34668 -5.65918l-11.3096 -11.3105c-1.29395 -1.29492 -3.83008 -2.3457 -5.66016 -2.3457
c-1.83105 0 -4.36621 1.05078 -5.66016 2.3457l-52.46 52.5303c-34.7812 -30.2715 -100.431 -54.8389 -146.54 -54.8389s-111.759 24.5674 -146.54 54.8389l-52.4902 -52.5c-1.29297 -1.29492 -3.8291 -2.34668 -5.66016 -2.34668
c-1.83008 0 -4.36621 1.05176 -5.65918 2.34668l-11.3105 11.3096c-1.29492 1.29395 -2.3457 3.83008 -2.3457 5.66016c0 1.83105 1.05078 4.36621 2.3457 5.66016l52.5 52.46c-30.2715 34.7432 -54.8398 100.34 -54.8398 146.421v0.119141c0 123.71 100.29 224 224 224z
M256 -32c105.87 0 192 86.1299 192 192s-86.1299 192 -192 192s-192 -86.1299 -192 -192s86.1299 -192 192 -192z" />
    <glyph glyph-name="alarm-plus" unicode="&#xf844;" horiz-adv-x="512" 
d="M344 176c4.41602 0 8 -3.58398 8 -8v-16c0 -4.41602 -3.58398 -8 -8 -8h-72v-72c0 -4.41602 -3.58398 -8 -8 -8h-16c-4.41602 0 -8 3.58398 -8 8v72h-72c-4.41602 0 -8 3.58398 -8 8v16c0 4.41602 3.58398 8 8 8h72v72c0 4.41602 3.58398 8 8 8h16
c4.41602 0 8 -3.58398 8 -8v-72h72zM32 336c0.0839844 -10.7852 4.29492 -27.249 9.40039 -36.75c-5.41992 -8.39258 -13.2158 -22.5674 -17.4004 -31.6396c-14.8301 18.9795 -24 42.5293 -24 68.3896c0.0771484 61.7471 50.2529 111.923 112 112
c33.8604 0 63.8896 -15.4199 84.4404 -39.2002c-9.71875 -2.30176 -25.1484 -7.13965 -34.4404 -10.7998c-12.0312 9.88086 -34.4316 17.9443 -50 18c-44.1104 -0.0498047 -79.9502 -35.8896 -80 -80zM400 448c61.7471 -0.0771484 111.923 -50.2529 112 -112
c0 -25.8604 -9.20996 -49.3896 -24 -68.3896c-4.17578 9.05664 -11.9531 23.209 -17.3604 31.5898c5.09375 9.50391 9.28711 25.9678 9.36035 36.75c-0.0498047 44.1104 -35.8896 79.9502 -80 80c-15.5684 -0.0556641 -37.9688 -8.12012 -50 -18
c-9.29199 3.66016 -24.7217 8.49805 -34.4404 10.7998c20.5508 23.8301 50.5801 39.25 84.4404 39.25zM256 384c123.71 0 224 -100.29 224 -224v-0.0839844c0 -46.0957 -24.582 -111.708 -54.8701 -146.456l52.5 -52.4902
c1.29492 -1.29297 2.34668 -3.8291 2.34668 -5.66016c0 -1.83008 -1.05176 -4.36621 -2.34668 -5.65918l-11.3096 -11.3105c-1.29395 -1.29492 -3.83008 -2.3457 -5.66016 -2.3457c-1.83105 0 -4.36621 1.05078 -5.66016 2.3457l-52.46 52.5303
c-34.7812 -30.2715 -100.431 -54.8389 -146.54 -54.8389s-111.759 24.5674 -146.54 54.8389l-52.4902 -52.5c-1.29297 -1.29492 -3.8291 -2.34668 -5.66016 -2.34668c-1.83008 0 -4.36621 1.05176 -5.65918 2.34668l-11.3105 11.3096
c-1.29492 1.29395 -2.3457 3.83008 -2.3457 5.66016c0 1.83105 1.05078 4.36621 2.3457 5.66016l52.5 52.46c-30.2715 34.7432 -54.8398 100.34 -54.8398 146.421v0.119141c0 123.71 100.29 224 224 224zM256 -32c105.87 0 192 86.1299 192 192s-86.1299 192 -192 192
s-192 -86.1299 -192 -192s86.1299 -192 192 -192z" />
    <glyph glyph-name="alarm-snooze" unicode="&#xf845;" horiz-adv-x="512" 
d="M328 96c4.41602 0 8 -3.58398 8 -8v-16c0 -4.41602 -3.58398 -8 -8 -8h-136h-0.00976562c-8.83203 0 -16 7.16797 -16 16c0 3.09961 1.57227 7.58008 3.50977 10l107.22 134h-102.72c-4.41602 0 -8 3.58398 -8 8v16c0 4.41602 3.58398 8 8 8h136h0.00976562
c8.83203 0 16 -7.16797 16 -16c0 -3.09961 -1.57227 -7.58008 -3.50977 -10l-107.22 -134h102.72zM32 336c0.0839844 -10.7852 4.29492 -27.249 9.40039 -36.75c-5.41992 -8.39258 -13.2158 -22.5674 -17.4004 -31.6396c-14.8301 18.9795 -24 42.5293 -24 68.3896
c0.0771484 61.7471 50.2529 111.923 112 112c33.8604 0 63.8896 -15.4199 84.4404 -39.2002c-9.71875 -2.30176 -25.1484 -7.13965 -34.4404 -10.7998c-12.0312 9.88086 -34.4316 17.9443 -50 18c-44.1104 -0.0498047 -79.9502 -35.8896 -80 -80zM400 448
c61.7471 -0.0771484 111.923 -50.2529 112 -112c0 -25.8604 -9.20996 -49.3896 -24 -68.3896c-4.17578 9.05664 -11.9531 23.209 -17.3604 31.5898c5.09375 9.50391 9.28711 25.9678 9.36035 36.75c-0.0498047 44.1104 -35.8896 79.9502 -80 80
c-15.5684 -0.0556641 -37.9688 -8.12012 -50 -18c-9.29199 3.66016 -24.7217 8.49805 -34.4404 10.7998c20.5508 23.8301 50.5801 39.25 84.4404 39.25zM256 384c123.71 0 224 -100.29 224 -224v-0.0839844c0 -46.0957 -24.582 -111.708 -54.8701 -146.456l52.5 -52.4902
c1.29492 -1.29297 2.34668 -3.8291 2.34668 -5.66016c0 -1.83008 -1.05176 -4.36621 -2.34668 -5.65918l-11.3096 -11.3105c-1.29395 -1.29492 -3.83008 -2.3457 -5.66016 -2.3457c-1.83105 0 -4.36621 1.05078 -5.66016 2.3457l-52.46 52.5303
c-34.7812 -30.2715 -100.431 -54.8389 -146.54 -54.8389s-111.759 24.5674 -146.54 54.8389l-52.4902 -52.5c-1.29297 -1.29492 -3.8291 -2.34668 -5.66016 -2.34668c-1.83008 0 -4.36621 1.05176 -5.65918 2.34668l-11.3105 11.3096
c-1.29492 1.29395 -2.3457 3.83008 -2.3457 5.66016c0 1.83105 1.05078 4.36621 2.3457 5.66016l52.5 52.46c-30.2715 34.7432 -54.8398 100.34 -54.8398 146.421v0.119141c0 123.71 100.29 224 224 224zM256 -32c105.87 0 192 86.1299 192 192s-86.1299 192 -192 192
s-192 -86.1299 -192 -192s86.1299 -192 192 -192z" />
    <glyph glyph-name="align-slash" unicode="&#xf846;" horiz-adv-x="640" 
d="M536 144c4.41602 0 8 -3.58398 8 -8v-16c0 -4.41602 -3.58398 -8 -8 -8h-36.9297l-40.6406 32h77.5703zM544 264v-16c0 -4.41602 -3.58398 -8 -8 -8h-199.48l-40.6299 32h240.11c4.41602 0 8 -3.58398 8 -8zM536 368h-362l-40.6602 32h402.66c4.41602 0 8 -3.58398 8 -8
v-16c0 -4.41602 -3.58398 -8 -8 -8zM96 120v16c0 4.41602 3.58398 8 8 8h199.36l40.6396 -32h-240c-4.41602 0 -8 3.58398 -8 8zM637 -37.3203c1.65527 -1.29785 2.99902 -4.05859 2.99902 -6.16211c0 -1.56641 -0.814453 -3.81445 -1.81934 -5.01758l-10 -12.5
c-1.31055 -1.65332 -4.08789 -2.99609 -6.19824 -2.99609c-1.54785 0 -3.7793 0.791016 -4.98145 1.76562l-614 483.521c-1.65332 1.3125 -2.99414 4.09082 -2.99414 6.20215c0 1.55762 0.798828 3.80078 1.78418 5.00781l10 12.5
c1.30273 1.66309 4.0752 3.01367 6.1875 3.01367c1.56738 0 3.81738 -0.8125 5.02246 -1.81348zM104 16h361.91l40.6396 -32h-402.55c-4.41602 0 -8 3.58398 -8 8v16c0 4.41602 3.58398 8 8 8zM104 240c-4.41602 0 -8 3.58398 -8 8v16c0 4.41602 3.58398 8 8 8h36.8096
l40.6406 -32h-77.4502z" />
    <glyph glyph-name="bags-shopping" unicode="&#xf847;" horiz-adv-x="576" 
d="M544 192c17.6641 0 32 -14.3359 32 -32v-192c0 -17.6641 -14.3359 -32 -32 -32h-320c-17.6641 0 -32 14.3359 -32 32v192c0 17.6641 14.3359 32 32 32h320zM544 -32v192h-320v-192h320zM371.37 0.80957c-48.3701 6.19043 -83.3701 49.7402 -83.3701 98.5303v20.6602
c0 4.41602 3.58398 8 8 8h16c4.41602 0 8 -3.58398 8 -8v-21.1602c0 -33.4102 24.3701 -63.2998 57.6201 -66.5303c1.7373 -0.171875 4.56445 -0.311523 6.30957 -0.311523c35.3291 0 64.0322 28.6729 64.0703 64.002v24c0 4.41602 3.58398 8 8 8h16
c4.41602 0 8 -3.58398 8 -8v-24c-0.0615234 -52.9961 -43.124 -96.0078 -96.1201 -96.0078c-3.46777 0 -9.07227 0.366211 -12.5098 0.817383zM32 256v-256h128v-32h-128c-17.6641 0 -32 14.3359 -32 32v256c0 17.6641 14.3359 32 32 32h96v64c0 52.9922 43.0078 96 96 96
s96 -43.0078 96 -96v-64h96c17.6641 0 32 -14.3359 32 -32v-32h-32v32h-384zM160 352v-64h128v64c0 35.3281 -28.6719 64 -64 64s-64 -28.6719 -64 -64z" />
    <glyph glyph-name="bell-exclamation" unicode="&#xf848;" 
d="M433.37 113.19c8.06641 -7.5957 14.6133 -22.7529 14.6133 -33.833c0 -4.9707 -1.50684 -12.7461 -3.36328 -17.3574c-6.60938 -16.5605 -26.4443 -30.001 -44.2744 -30.001c-0.0957031 0 -0.25 0 -0.345703 0.000976562h-352
c-0.0986328 -0.000976562 -0.259766 -0.000976562 -0.358398 -0.000976562c-17.8105 0 -37.6396 13.418 -44.2617 29.9512c-1.86133 4.61621 -3.37207 12.4023 -3.37207 17.3799c0 11.0928 6.55957 26.2627 14.6426 33.8604c27.9395 26.6191 49.3496 54.5 49.3496 148.899
c0 79.6006 63.3496 144.5 144.03 152.351v17.5596c0 8.83203 7.16797 16 16 16s16 -7.16797 16 -16v-17.5498c80.6299 -7.86035 144 -72.7598 144 -152.36c0 -94.4199 21.3398 -122.28 49.3398 -148.899zM400 64c14.1602 0 21.3701 16.4404 11.2803 26.0195
c-35.0605 33.3906 -59.2803 70.7305 -59.2803 172.07c0 67.3906 -57.2197 121.91 -128 121.91s-128 -54.5303 -128 -121.91c0 -101.75 -24.46 -138.89 -59.3203 -172.09c-10.0293 -9.53027 -2.89941 -26 11.3203 -26h352zM224 -32c17.6641 0 32 14.3359 32 32h32
c0 -35.3281 -28.6719 -64 -64 -64s-64 28.6719 -64 64h32c0 -17.6641 14.3359 -32 32 -32zM215.5 192c-4.14844 0 -7.74121 3.36035 -8 7.5l-7 112c-0.00878906 0.137695 -0.015625 0.362305 -0.015625 0.5c0 4.41602 3.58398 8 8 8h0.015625h31h0.015625
c4.41602 0 8 -3.58398 8 -8c0 -0.137695 -0.00683594 -0.362305 -0.015625 -0.5l-7 -112c-0.317383 -4.08691 -3.90137 -7.44629 -8 -7.5h-17zM224 168c13.248 0 24 -10.752 24 -24s-10.752 -24 -24 -24s-24 10.752 -24 24s10.752 24 24 24z" />
    <glyph glyph-name="bell-plus" unicode="&#xf849;" 
d="M224 -32c17.6641 0 32 14.3359 32 32h32c0 -35.3281 -28.6719 -64 -64 -64s-64 28.6719 -64 64h32c0 -17.6641 14.3359 -32 32 -32zM433.37 113.19c8.06641 -7.5957 14.6133 -22.7529 14.6133 -33.833c0 -4.9707 -1.50684 -12.7461 -3.36328 -17.3574
c-6.60938 -16.5605 -26.4443 -30.001 -44.2744 -30.001c-0.0957031 0 -0.25 0 -0.345703 0.000976562h-352c-0.0986328 -0.000976562 -0.259766 -0.000976562 -0.358398 -0.000976562c-17.8105 0 -37.6396 13.418 -44.2617 29.9512
c-1.86133 4.61621 -3.37207 12.4023 -3.37207 17.3799c0 11.0928 6.55957 26.2627 14.6426 33.8604c27.9395 26.6191 49.3496 54.5 49.3496 148.899c0 79.6006 63.3496 144.5 144.03 152.351v17.5596c0 8.83203 7.16797 16 16 16s16 -7.16797 16 -16v-17.5498
c80.6299 -7.86035 144 -72.7598 144 -152.36c0 -94.4199 21.3398 -122.28 49.3398 -148.899zM400 64c14.1602 0 21.3701 16.4404 11.2803 26.0195c-35.0605 33.3906 -59.2803 70.7305 -59.2803 172.07c0 67.3906 -57.2197 121.91 -128 121.91s-128 -54.5303 -128 -121.91
c0 -101.75 -24.46 -138.89 -59.3203 -172.09c-10.0293 -9.53027 -2.89941 -26 11.3203 -26h352zM296 224c4.41602 0 8 -3.58398 8 -8v-16c0 -4.41602 -3.58398 -8 -8 -8h-56v-56c0 -4.41602 -3.58398 -8 -8 -8h-16c-4.41602 0 -8 3.58398 -8 8v56h-56
c-4.41602 0 -8 3.58398 -8 8v16c0 4.41602 3.58398 8 8 8h56v56c0 4.41602 3.58398 8 8 8h16c4.41602 0 8 -3.58398 8 -8v-56h56z" />
    <glyph glyph-name="biking" unicode="&#xf84a;" horiz-adv-x="640" 
d="M120 176c66.2402 0 120 -53.7598 120 -120s-53.7598 -120 -120 -120s-120 53.7598 -120 120s53.7598 120 120 120zM120 -32c48.5205 0.0546875 87.9453 39.4795 88 88c0 48.5762 -39.4238 88 -88 88s-88 -39.4238 -88 -88s39.4238 -88 88 -88zM520 176
c66.2402 0 120 -53.7598 120 -120s-53.7598 -120 -120 -120s-120 53.7598 -120 120s53.7598 120 120 120zM520 -32c48.5205 0.0546875 87.9453 39.4795 88 88c0 48.5762 -39.4238 88 -88 88s-88 -39.4238 -88 -88s39.4238 -88 88 -88zM374.31 202.21l-24.4697 19.4199
l-16.5 -12.7197l13.3301 -9c11.7744 -7.85156 21.3301 -25.709 21.3301 -39.8604v-0.0498047v-112c0 -26.4961 -21.5039 -48 -48 -48s-48 21.5039 -48 48v86.3096l-74.6699 49.8301c-11.0137 7.30469 -20.5293 23.9434 -21.2402 37.1406
c-0.879883 15.1299 5.21973 29.4297 17.5703 39.9395l99.25 79c7.28906 6.3916 21.0732 11.5791 30.7676 11.5791c5.14355 0 13.1729 -1.60352 17.9219 -3.5791c-3.08984 7.37598 -5.59766 19.8535 -5.59766 27.8506c0 39.7822 32.2871 72.0693 72.0693 72.0693
c39.7832 0 72.0703 -32.2871 72.0703 -72.0693c0 -39.7832 -32.2871 -72.0703 -72.0703 -72.0703h-0.0712891c-2.2959 0.09375 -6.00098 0.46582 -8.26953 0.830078l21.3193 -17.0498h42.9502c26.4961 0 48 -21.5039 48 -48s-21.5039 -48 -48 -48h-59.7998
c-9.25098 0.00976562 -22.6416 4.68262 -29.8906 10.4297zM408 416c-22.0801 0 -40 -17.9199 -40 -40s17.9199 -40 40 -40s40 17.9199 40 40s-17.9199 40 -40 40zM328.88 173.31l-50.2002 33.8604l71.4307 55.1104l44.0898 -35c2.41797 -1.93262 6.89258 -3.5 9.9873 -3.5
h0.0126953h59.7998c8.83203 0 16 7.16797 16 16s-7.16797 16 -16 16h-54.1797l-75.6201 60.5c-2.41797 1.93164 -6.89258 3.5 -9.98828 3.5c-3.27051 0 -7.94043 -1.72949 -10.4219 -3.86035l-100.2 -79.7803c-3.08203 -2.64355 -5.58301 -8.08398 -5.58301 -12.1445
c0 -4.72168 3.18652 -10.6826 7.11328 -13.3047l88.8799 -59.25v-103.44c0 -8.83203 7.16797 -16 16 -16s16 7.16797 16 16v112v0c0 4.72461 -3.18945 10.6875 -7.12012 13.3096z" />
    <glyph glyph-name="biking-mountain" unicode="&#xf84b;" horiz-adv-x="640" 
d="M153.18 269.55l-34.6797 45.0205c-10.0596 13 -8.03027 31.8701 4.5 42l53.4102 41.6396c12.2578 9.8291 34.958 17.8057 50.6699 17.8057c2.66992 0 6.98926 -0.257812 9.63965 -0.575195c20.0674 -2.4082 46.2578 -17.4385 58.46 -33.5508l-25.3096 -19.5596
c-7.67969 10.2021 -24.1973 19.7588 -36.8701 21.3301c-1.66211 0.208008 -4.37109 0.375977 -6.0459 0.375977c-9.5332 0 -23.2793 -4.87207 -30.6846 -10.876l-53.3994 -41.6602l35.6201 -42.3896zM374.33 202.21l-24.4902 19.4199l-16.5 -12.7197l13.3301 -9
c11.7744 -7.85156 21.3301 -25.709 21.3301 -39.8604v-0.0498047v-112c0 -26.4961 -21.5039 -48 -48 -48s-48 21.5039 -48 48v86.3096l-74.6602 49.8301c-11.0137 7.30469 -20.5293 23.9434 -21.2402 37.1406c-0.879883 15.1299 5.2207 29.4297 17.5703 39.9395l99.25 79
c7.28711 6.3916 21.0684 11.5791 30.7607 11.5791c5.14355 0 13.1709 -1.60352 17.9189 -3.5791c-3.08984 7.37598 -5.59766 19.8535 -5.59766 27.8506c0 39.7822 32.2871 72.0693 72.0693 72.0693c39.7832 0 72.0703 -32.2871 72.0703 -72.0693
c0 -39.7832 -32.2871 -72.0703 -72.0703 -72.0703h-0.0712891c-2.29297 0.0947266 -5.99414 0.466797 -8.25977 0.830078l21.3193 -17.0498h42.9404c26.4961 0 48 -21.5039 48 -48s-21.5039 -48 -48 -48h-59.79c-9.24805 0.00976562 -22.6348 4.68262 -29.8799 10.4297z
M408 416c-22.0801 0 -40 -17.9199 -40 -40s17.9199 -40 40 -40s40 17.9199 40 40s-17.9199 40 -40 40zM328.89 173.31l-50.1895 33.8301l71.4102 55.1406l44.0898 -35c2.41797 -1.93262 6.89258 -3.5 9.9873 -3.5h0.0126953h59.7998c8.83203 0 16 7.16797 16 16
s-7.16797 16 -16 16h-54.1797l-75.6299 60.5c-2.41797 1.92969 -6.88965 3.49609 -9.9834 3.49609c-3.26855 0 -7.93555 -1.72754 -10.417 -3.85645l-100.2 -79.7803c-3.0791 -2.64258 -5.5791 -8.08203 -5.5791 -12.1406c0 -4.72461 3.18945 -10.6865 7.11914 -13.3086
l88.8701 -59.25v-103.44c0 -8.83203 7.16797 -16 16 -16s16 7.16797 16 16v112v0.00683594c0 4.7207 -3.18555 10.6807 -7.11035 13.3027zM128 120c30.8789 -0.0332031 55.9668 -25.1211 56 -56c0 -30.9121 -25.0879 -56 -56 -56s-56 25.0879 -56 56s25.0879 56 56 56z
M128 40c13.248 0 24 10.752 24 24s-10.752 24 -24 24s-24 -10.752 -24 -24s10.752 -24 24 -24zM617 107.17c12.6953 -3.0459 22.999 -16.1143 23 -29.1699v-28c-0.0341797 -13.0127 -10.3252 -26.0674 -22.9697 -29.1396
c-0.0556641 -0.166016 -0.166992 -0.426758 -0.25 -0.580078c2.42285 -3.97852 4.38965 -10.9873 4.38965 -15.6445c0 -6.85449 -3.92383 -16.3584 -8.75977 -21.2158l-19.7803 -19.7998c-4.86328 -4.84082 -14.3799 -8.76953 -21.2412 -8.76953
c-4.65527 0 -11.6611 1.96191 -15.6387 4.37988l-0.589844 -0.230469c-3.04492 -12.6904 -16.1094 -22.9951 -29.1602 -23h-28c-13.0273 0.0146484 -26.0771 10.3057 -29.1299 22.9697l-0.589844 0.230469c-3.97656 -2.41309 -10.9785 -4.37109 -15.6299 -4.37109
c-6.85938 0 -16.375 3.9248 -21.2402 8.76074l-19.79 19.7998c-4.84277 4.86133 -8.77344 14.376 -8.77344 21.2373c0 4.65039 1.95898 11.6494 4.37305 15.623c-0.0595703 0.19043 -0.160156 0.389648 -0.219727 0.580078c-12.668 3.06738 -22.9717 16.1357 -23 29.1699v28
c0.0410156 13.0098 10.3359 26.0557 22.9805 29.1201c0.0576172 0.164062 0.169922 0.424805 0.25 0.580078c-2.42285 3.97754 -4.3877 10.9854 -4.3877 15.6426c0 6.85352 3.92285 16.3594 8.75684 21.2168l19.79 19.8008c4.86523 4.83594 14.3818 8.76074 21.2412 8.76074
c4.65137 0 11.6523 -1.95801 15.6289 -4.37109l0.589844 0.25c3.04492 12.6865 16.1035 22.9902 29.1504 23h28c13.0273 -0.0146484 26.0771 -10.3057 29.1299 -22.9697l0.560547 -0.230469c3.97461 2.34473 10.9453 4.24707 15.5605 4.24707
c6.84961 0 16.4004 -3.86914 21.3193 -8.63672l19.8096 -19.7998c4.84766 -4.85059 8.78223 -14.3516 8.78223 -21.209c0 -4.66602 -1.97656 -11.6816 -4.41211 -15.6611c0.0996094 -0.19043 0.160156 -0.379883 0.25 -0.570312zM593.6 52h16.4004l-1.83984 24h-14.6602
l-3.41016 11.4404c-1.30566 4.37891 -4.11914 11.2021 -6.28027 15.2295l-5.68945 10.5205l11.6797 11.6396l-19.8398 16.9502l-0.30957 -3.16992l-8.41016 -8.48047l-10.5303 5.65039c-4.04883 2.17871 -10.9082 5.02344 -15.3096 6.34961l-11.4004 3.41992v16.4502l-26 -2
l2.03027 -2.5498v-11.9199l-11.4404 -3.40039c-4.38379 -1.30273 -11.2021 -4.13477 -15.2197 -6.32031l-10.5 -5.69922l-11.6504 11.6699l-17 -19.79l3.19043 -0.360352l8.5 -8.43945l-5.71973 -10.5303c-2.17383 -4.03906 -5.01855 -10.8809 -6.35059 -15.2705
l-3.42969 -11.3896h-16.4102l2 -26l2.54004 2h11.8799l3.48047 -11.3701c1.31445 -4.38379 4.14551 -11.2119 6.31934 -15.2402l5.78027 -10.5498l-11.7998 -11.6699l19.7998 -16.9502l0.410156 3.2207l8.42969 8.43945l10.4697 -5.67969
c4.04004 -2.1748 10.8848 -5.00586 15.2803 -6.32031l11.4102 -3.42969v-16.4502l26 2l-2 2.5498v11.9004l11.3701 3.42969c4.39062 1.30176 11.2227 4.12891 15.25 6.31055l10.5 5.69922l11.6602 -11.6699l17 19.7998l-3.18066 0.360352l-8.5 8.42969l5.7207 10.5303
c2.16699 4.04102 5.00781 10.8818 6.33984 15.2705zM233.05 107.16c12.5918 -3.09668 22.874 -16.1338 22.9502 -29.1006v-28.0596c-0.03125 -13.0156 -10.3213 -26.0703 -22.9697 -29.1396c-0.0605469 -0.164062 -0.171875 -0.423828 -0.25 -0.580078
c2.42188 -3.97852 4.3877 -10.9863 4.3877 -15.6436c0 -6.85352 -3.92383 -16.3584 -8.75781 -21.2168l-19.8203 -19.7998c-9.64941 -9.65039 -25.5898 -11.29 -36.8398 -4.38965l-0.589844 -0.230469c-3.04492 -12.6904 -16.1094 -22.9951 -29.1602 -23h-28
c-13.0273 0.0146484 -26.0771 10.3057 -29.1299 22.9697c-0.166992 0.0595703 -0.431641 0.171875 -0.589844 0.25c-3.98047 -2.42871 -10.9961 -4.40039 -15.6592 -4.40039c-6.85742 0 -16.3643 3.92969 -21.2207 8.77051l-19.8105 19.7998
c-4.8418 4.8584 -8.77148 14.3682 -8.77148 21.2275c0 4.66406 1.97168 11.6816 4.40137 15.6631c-0.078125 0.144531 -0.175781 0.390625 -0.219727 0.549805c-12.6777 3.05957 -22.9824 16.1279 -23 29.1699v28c0.0146484 13.0459 10.3232 26.1006 23.0098 29.1396
c0.0605469 0.19043 0.160156 0.379883 0.220703 0.550781c-2.43164 3.98145 -4.4043 10.999 -4.4043 15.6641c0 6.85938 3.93066 16.3682 8.77344 21.2256l19.8105 19.7998c4.86328 4.84082 14.3799 8.76953 21.2412 8.76953c4.65527 0 11.6611 -1.96191 15.6387 -4.37988
l0.55957 0.230469c3.04492 12.6865 16.1035 22.9902 29.1504 23h28c13.0361 -0.00683594 26.0957 -10.2969 29.1504 -22.9697l0.589844 -0.230469c11.3096 6.91992 27.25 5.25977 36.8701 -4.38965l19.79 -19.7998c4.83691 -4.86621 8.7627 -14.3828 8.7627 -21.2432
c0 -4.64746 -1.95508 -11.6436 -4.36328 -15.6172c0.0605469 -0.166992 0.171875 -0.430664 0.25 -0.589844zM209.52 52h16.4805l-1.82031 24h-14.5996l-3.41992 11.3896c-1.33008 4.3916 -4.16113 11.2412 -6.32031 15.29l-5.64941 10.4707l11.5596 11.6299l-19.75 17
l-0.410156 -3.2207l-8.42969 -8.42969l-10.4697 5.66992c-4.03223 2.17285 -10.8643 5.00879 -15.25 6.33008l-11.4404 3.40039v16.4697l-26 -2l1.99023 -2.54004v-11.9004l-11.4004 -3.41992c-4.39746 -1.31152 -11.2432 -4.14746 -15.2803 -6.33008l-10.5293 -5.68945
l-11.6299 11.7197l-16.9307 -19.8398l3.18066 -0.370117l8.43945 -8.41016l-5.62012 -10.5c-2.17773 -4.05469 -5.02246 -10.9229 -6.34961 -15.3301l-3.42969 -11.3896h-16.4404l2 -26l2.55957 2h11.8809l3.42969 -11.3701
c1.3291 -4.39258 4.15625 -11.2471 6.30957 -15.2998l5.69043 -10.5205l-11.6797 -11.6396l19.8096 -16.9502l0.30957 3.16992l8.41016 8.49023l10.5303 -5.66016c4.04785 -2.17773 10.9072 -5.01758 15.3096 -6.33984l11.4404 -3.41016v-16.4697l26 2l-2 2.5498v11.9004
l11.4004 3.42969c4.38965 1.30371 11.2217 4.12988 15.25 6.31055l10.5 5.69922l11.6494 -11.6699l17 19.7998l-3.17969 0.360352l-8.5 8.42969l5.70996 10.5303c2.16602 4.01953 4.97949 10.833 6.28027 15.21zM512 120c30.8789 -0.0332031 55.9668 -25.1211 56 -56
c0 -30.9121 -25.0879 -56 -56 -56s-56 25.0879 -56 56s25.0879 56 56 56zM512 40c13.248 0 24 10.752 24 24s-10.752 24 -24 24s-24 -10.752 -24 -24s10.752 -24 24 -24z" />
    <glyph glyph-name="border-all" unicode="&#xf84c;" 
d="M432 416c8.83203 0 16 -7.16797 16 -16v-416c0 -8.83203 -7.16797 -16 -16 -16h-416c-8.83203 0 -16 7.16797 -16 16v416c0 8.83203 7.16797 16 16 16h416zM32 384v-176h176v176h-176zM32 0h176v176h-176v-176zM416 0v176h-176v-176h176zM416 208v176h-176v-176h176z" />
    <glyph glyph-name="border-bottom" unicode="&#xf84d;" 
d="M440 0c4.41602 0 8 -3.58398 8 -8v-16c0 -4.41602 -3.58398 -8 -8 -8h-432c-4.41602 0 -8 3.58398 -8 8v16c0 4.41602 3.58398 8 8 8h432zM216 168c-8.83203 0 -16 7.16797 -16 16v16c0 8.83203 7.16797 16 16 16h16c8.83203 0 16 -7.16797 16 -16v-16
c0 -8.83203 -7.16797 -16 -16 -16h-16zM216 72c-8.83203 0 -16 7.16797 -16 16v16c0 8.83203 7.16797 16 16 16h16c8.83203 0 16 -7.16797 16 -16v-16c0 -8.83203 -7.16797 -16 -16 -16h-16zM120 168c-8.83203 0 -16 7.16797 -16 16v16c0 8.83203 7.16797 16 16 16h16
c8.83203 0 16 -7.16797 16 -16v-16c0 -8.83203 -7.16797 -16 -16 -16h-16zM120 368c-8.83203 0 -16 7.16797 -16 16v16c0 8.83203 7.16797 16 16 16h16c8.83203 0 16 -7.16797 16 -16v-16c0 -8.83203 -7.16797 -16 -16 -16h-16zM312 168c-8.83203 0 -16 7.16797 -16 16v16
c0 8.83203 7.16797 16 16 16h16c8.83203 0 16 -7.16797 16 -16v-16c0 -8.83203 -7.16797 -16 -16 -16h-16zM312 368c-8.83203 0 -16 7.16797 -16 16v16c0 8.83203 7.16797 16 16 16h16c8.83203 0 16 -7.16797 16 -16v-16c0 -8.83203 -7.16797 -16 -16 -16h-16zM216 264
c-8.83203 0 -16 7.16797 -16 16v16c0 8.83203 7.16797 16 16 16h16c8.83203 0 16 -7.16797 16 -16v-16c0 -8.83203 -7.16797 -16 -16 -16h-16zM216 368c-8.83203 0 -16 7.16797 -16 16v16c0 8.83203 7.16797 16 16 16h16c8.83203 0 16 -7.16797 16 -16v-16
c0 -8.83203 -7.16797 -16 -16 -16h-16zM16 368c-8.83203 0 -16 7.16797 -16 16v16c0 8.83203 7.16797 16 16 16h16c8.83203 0 16 -7.16797 16 -16v-16c0 -8.83203 -7.16797 -16 -16 -16h-16zM432 312c8.83203 0 16 -7.16797 16 -16v-16c0 -8.83203 -7.16797 -16 -16 -16h-16
c-8.83203 0 -16 7.16797 -16 16v16c0 8.83203 7.16797 16 16 16h16zM432 416c8.83203 0 16 -7.16797 16 -16v-16c0 -8.83203 -7.16797 -16 -16 -16h-16c-8.83203 0 -16 7.16797 -16 16v16c0 8.83203 7.16797 16 16 16h16zM432 216c8.83203 0 16 -7.16797 16 -16v-16
c0 -8.83203 -7.16797 -16 -16 -16h-16c-8.83203 0 -16 7.16797 -16 16v16c0 8.83203 7.16797 16 16 16h16zM432 120c8.83203 0 16 -7.16797 16 -16v-16c0 -8.83203 -7.16797 -16 -16 -16h-16c-8.83203 0 -16 7.16797 -16 16v16c0 8.83203 7.16797 16 16 16h16zM16 264
c-8.83203 0 -16 7.16797 -16 16v16c0 8.83203 7.16797 16 16 16h16c8.83203 0 16 -7.16797 16 -16v-16c0 -8.83203 -7.16797 -16 -16 -16h-16zM16 168c-8.83203 0 -16 7.16797 -16 16v16c0 8.83203 7.16797 16 16 16h16c8.83203 0 16 -7.16797 16 -16v-16
c0 -8.83203 -7.16797 -16 -16 -16h-16zM16 72c-8.83203 0 -16 7.16797 -16 16v16c0 8.83203 7.16797 16 16 16h16c8.83203 0 16 -7.16797 16 -16v-16c0 -8.83203 -7.16797 -16 -16 -16h-16z" />
    <glyph glyph-name="border-inner" unicode="&#xf84e;" 
d="M439 208c4.41602 0 8 -3.58398 8 -8v-16c0 -4.41602 -3.58398 -8 -8 -8h-200v-200c0 -4.41602 -3.58398 -8 -8 -8h-16c-4.41602 0 -8 3.58398 -8 8v200h-200c-4.41602 0 -8 3.58398 -8 8v16c0 4.41602 3.58398 8 8 8h200v200c0 4.41602 3.58398 8 8 8h16
c4.41602 0 8 -3.58398 8 -8v-200h200zM15 264c-8.83203 0 -16 7.16797 -16 16v16c0 8.83203 7.16797 16 16 16h16c8.83203 0 16 -7.16797 16 -16v-16c0 -8.83203 -7.16797 -16 -16 -16h-16zM31 16c8.83203 0 16 -7.16797 16 -16v-16c0 -8.83203 -7.16797 -16 -16 -16h-16
c-8.83203 0 -16 7.16797 -16 16v16c0 8.83203 7.16797 16 16 16h16zM15 368c-8.83203 0 -16 7.16797 -16 16v16c0 8.83203 7.16797 16 16 16h16c8.83203 0 16 -7.16797 16 -16v-16c0 -8.83203 -7.16797 -16 -16 -16h-16zM31 120c8.83203 0 16 -7.16797 16 -16v-16
c0 -8.83203 -7.16797 -16 -16 -16h-16c-8.83203 0 -16 7.16797 -16 16v16c0 8.83203 7.16797 16 16 16h16zM311 368c-8.83203 0 -16 7.16797 -16 16v16c0 8.83203 7.16797 16 16 16h16c8.83203 0 16 -7.16797 16 -16v-16c0 -8.83203 -7.16797 -16 -16 -16h-16zM119 368
c-8.83203 0 -16 7.16797 -16 16v16c0 8.83203 7.16797 16 16 16h16c8.83203 0 16 -7.16797 16 -16v-16c0 -8.83203 -7.16797 -16 -16 -16h-16zM431 312c8.83203 0 16 -7.16797 16 -16v-16c0 -8.83203 -7.16797 -16 -16 -16h-16c-8.83203 0 -16 7.16797 -16 16v16
c0 8.83203 7.16797 16 16 16h16zM135 16c8.83203 0 16 -7.16797 16 -16v-16c0 -8.83203 -7.16797 -16 -16 -16h-16c-8.83203 0 -16 7.16797 -16 16v16c0 8.83203 7.16797 16 16 16h16zM431 416c8.83203 0 16 -7.16797 16 -16v-16c0 -8.83203 -7.16797 -16 -16 -16h-16
c-8.83203 0 -16 7.16797 -16 16v16c0 8.83203 7.16797 16 16 16h16zM431 120c8.83203 0 16 -7.16797 16 -16v-16c0 -8.83203 -7.16797 -16 -16 -16h-16c-8.83203 0 -16 7.16797 -16 16v16c0 8.83203 7.16797 16 16 16h16zM327 16c8.83203 0 16 -7.16797 16 -16v-16
c0 -8.83203 -7.16797 -16 -16 -16h-16c-8.83203 0 -16 7.16797 -16 16v16c0 8.83203 7.16797 16 16 16h16zM431 16c8.83203 0 16 -7.16797 16 -16v-16c0 -8.83203 -7.16797 -16 -16 -16h-16c-8.83203 0 -16 7.16797 -16 16v16c0 8.83203 7.16797 16 16 16h16z" />
    <glyph glyph-name="border-left" unicode="&#xf84f;" 
d="M24 416c4.41602 0 8 -3.58398 8 -8v-432c0 -4.41602 -3.58398 -8 -8 -8h-16c-4.41602 0 -8 3.58398 -8 8v432c0 4.41602 3.58398 8 8 8h16zM232 416c8.83203 0 16 -7.16797 16 -16v-16c0 -8.83203 -7.16797 -16 -16 -16h-16c-8.83203 0 -16 7.16797 -16 16v16
c0 8.83203 7.16797 16 16 16h16zM232 120c8.83203 0 16 -7.16797 16 -16v-16c0 -8.83203 -7.16797 -16 -16 -16h-16c-8.83203 0 -16 7.16797 -16 16v16c0 8.83203 7.16797 16 16 16h16zM232 312c8.83203 0 16 -7.16797 16 -16v-16c0 -8.83203 -7.16797 -16 -16 -16h-16
c-8.83203 0 -16 7.16797 -16 16v16c0 8.83203 7.16797 16 16 16h16zM232 216c8.83203 0 16 -7.16797 16 -16v-16c0 -8.83203 -7.16797 -16 -16 -16h-16c-8.83203 0 -16 7.16797 -16 16v16c0 8.83203 7.16797 16 16 16h16zM136 416c8.83203 0 16 -7.16797 16 -16v-16
c0 -8.83203 -7.16797 -16 -16 -16h-16c-8.83203 0 -16 7.16797 -16 16v16c0 8.83203 7.16797 16 16 16h16zM136 16c8.83203 0 16 -7.16797 16 -16v-16c0 -8.83203 -7.16797 -16 -16 -16h-16c-8.83203 0 -16 7.16797 -16 16v16c0 8.83203 7.16797 16 16 16h16zM136 216
c8.83203 0 16 -7.16797 16 -16v-16c0 -8.83203 -7.16797 -16 -16 -16h-16c-8.83203 0 -16 7.16797 -16 16v16c0 8.83203 7.16797 16 16 16h16zM232 16c8.83203 0 16 -7.16797 16 -16v-16c0 -8.83203 -7.16797 -16 -16 -16h-16c-8.83203 0 -16 7.16797 -16 16v16
c0 8.83203 7.16797 16 16 16h16zM432 216c8.83203 0 16 -7.16797 16 -16v-16c0 -8.83203 -7.16797 -16 -16 -16h-16c-8.83203 0 -16 7.16797 -16 16v16c0 8.83203 7.16797 16 16 16h16zM432 312c8.83203 0 16 -7.16797 16 -16v-16c0 -8.83203 -7.16797 -16 -16 -16h-16
c-8.83203 0 -16 7.16797 -16 16v16c0 8.83203 7.16797 16 16 16h16zM432 416c8.83203 0 16 -7.16797 16 -16v-16c0 -8.83203 -7.16797 -16 -16 -16h-16c-8.83203 0 -16 7.16797 -16 16v16c0 8.83203 7.16797 16 16 16h16zM328 16c8.83203 0 16 -7.16797 16 -16v-16
c0 -8.83203 -7.16797 -16 -16 -16h-16c-8.83203 0 -16 7.16797 -16 16v16c0 8.83203 7.16797 16 16 16h16zM432 120c8.83203 0 16 -7.16797 16 -16v-16c0 -8.83203 -7.16797 -16 -16 -16h-16c-8.83203 0 -16 7.16797 -16 16v16c0 8.83203 7.16797 16 16 16h16zM432 16
c8.83203 0 16 -7.16797 16 -16v-16c0 -8.83203 -7.16797 -16 -16 -16h-16c-8.83203 0 -16 7.16797 -16 16v16c0 8.83203 7.16797 16 16 16h16zM328 216c8.83203 0 16 -7.16797 16 -16v-16c0 -8.83203 -7.16797 -16 -16 -16h-16c-8.83203 0 -16 7.16797 -16 16v16
c0 8.83203 7.16797 16 16 16h16zM328 416c8.83203 0 16 -7.16797 16 -16v-16c0 -8.83203 -7.16797 -16 -16 -16h-16c-8.83203 0 -16 7.16797 -16 16v16c0 8.83203 7.16797 16 16 16h16z" />
    <glyph glyph-name="border-none" unicode="&#xf850;" 
d="M432 416c8.83203 0 16 -7.16797 16 -16v-16c0 -8.83203 -7.16797 -16 -16 -16h-16c-8.83203 0 -16 7.16797 -16 16v16c0 8.83203 7.16797 16 16 16h16zM32 416c8.83203 0 16 -7.16797 16 -16v-16c0 -8.83203 -7.16797 -16 -16 -16h-16c-8.83203 0 -16 7.16797 -16 16v16
c0 8.83203 7.16797 16 16 16h16zM432 16c8.83203 0 16 -7.16797 16 -16v-16c0 -8.83203 -7.16797 -16 -16 -16h-16c-8.83203 0 -16 7.16797 -16 16v16c0 8.83203 7.16797 16 16 16h16zM432 312c8.83203 0 16 -7.16797 16 -16v-16c0 -8.83203 -7.16797 -16 -16 -16h-16
c-8.83203 0 -16 7.16797 -16 16v16c0 8.83203 7.16797 16 16 16h16zM432 120c8.83203 0 16 -7.16797 16 -16v-16c0 -8.83203 -7.16797 -16 -16 -16h-16c-8.83203 0 -16 7.16797 -16 16v16c0 8.83203 7.16797 16 16 16h16zM432 216c8.83203 0 16 -7.16797 16 -16v-16
c0 -8.83203 -7.16797 -16 -16 -16h-16c-8.83203 0 -16 7.16797 -16 16v16c0 8.83203 7.16797 16 16 16h16zM328 216c8.83203 0 16 -7.16797 16 -16v-16c0 -8.83203 -7.16797 -16 -16 -16h-16c-8.83203 0 -16 7.16797 -16 16v16c0 8.83203 7.16797 16 16 16h16zM32 312
c8.83203 0 16 -7.16797 16 -16v-16c0 -8.83203 -7.16797 -16 -16 -16h-16c-8.83203 0 -16 7.16797 -16 16v16c0 8.83203 7.16797 16 16 16h16zM232 312c8.83203 0 16 -7.16797 16 -16v-16c0 -8.83203 -7.16797 -16 -16 -16h-16c-8.83203 0 -16 7.16797 -16 16v16
c0 8.83203 7.16797 16 16 16h16zM232 120c8.83203 0 16 -7.16797 16 -16v-16c0 -8.83203 -7.16797 -16 -16 -16h-16c-8.83203 0 -16 7.16797 -16 16v16c0 8.83203 7.16797 16 16 16h16zM232 216c8.83203 0 16 -7.16797 16 -16v-16c0 -8.83203 -7.16797 -16 -16 -16h-16
c-8.83203 0 -16 7.16797 -16 16v16c0 8.83203 7.16797 16 16 16h16zM32 120c8.83203 0 16 -7.16797 16 -16v-16c0 -8.83203 -7.16797 -16 -16 -16h-16c-8.83203 0 -16 7.16797 -16 16v16c0 8.83203 7.16797 16 16 16h16zM32 216c8.83203 0 16 -7.16797 16 -16v-16
c0 -8.83203 -7.16797 -16 -16 -16h-16c-8.83203 0 -16 7.16797 -16 16v16c0 8.83203 7.16797 16 16 16h16zM136 216c8.83203 0 16 -7.16797 16 -16v-16c0 -8.83203 -7.16797 -16 -16 -16h-16c-8.83203 0 -16 7.16797 -16 16v16c0 8.83203 7.16797 16 16 16h16zM32 16
c8.83203 0 16 -7.16797 16 -16v-16c0 -8.83203 -7.16797 -16 -16 -16h-16c-8.83203 0 -16 7.16797 -16 16v16c0 8.83203 7.16797 16 16 16h16zM136 16c8.83203 0 16 -7.16797 16 -16v-16c0 -8.83203 -7.16797 -16 -16 -16h-16c-8.83203 0 -16 7.16797 -16 16v16
c0 8.83203 7.16797 16 16 16h16zM328 16c8.83203 0 16 -7.16797 16 -16v-16c0 -8.83203 -7.16797 -16 -16 -16h-16c-8.83203 0 -16 7.16797 -16 16v16c0 8.83203 7.16797 16 16 16h16zM232 16c8.83203 0 16 -7.16797 16 -16v-16c0 -8.83203 -7.16797 -16 -16 -16h-16
c-8.83203 0 -16 7.16797 -16 16v16c0 8.83203 7.16797 16 16 16h16zM136 416c8.83203 0 16 -7.16797 16 -16v-16c0 -8.83203 -7.16797 -16 -16 -16h-16c-8.83203 0 -16 7.16797 -16 16v16c0 8.83203 7.16797 16 16 16h16zM328 416c8.83203 0 16 -7.16797 16 -16v-16
c0 -8.83203 -7.16797 -16 -16 -16h-16c-8.83203 0 -16 7.16797 -16 16v16c0 8.83203 7.16797 16 16 16h16zM232 416c8.83203 0 16 -7.16797 16 -16v-16c0 -8.83203 -7.16797 -16 -16 -16h-16c-8.83203 0 -16 7.16797 -16 16v16c0 8.83203 7.16797 16 16 16h16z" />
    <glyph glyph-name="border-outer" unicode="&#xf851;" 
d="M216 263c-8.83203 0 -16 7.16797 -16 16v16c0 8.83203 7.16797 16 16 16h16c8.83203 0 16 -7.16797 16 -16v-16c0 -8.83203 -7.16797 -16 -16 -16h-16zM312 167c-8.83203 0 -16 7.16797 -16 16v16c0 8.83203 7.16797 16 16 16h16c8.83203 0 16 -7.16797 16 -16v-16
c0 -8.83203 -7.16797 -16 -16 -16h-16zM216 167c-8.83203 0 -16 7.16797 -16 16v16c0 8.83203 7.16797 16 16 16h16c8.83203 0 16 -7.16797 16 -16v-16c0 -8.83203 -7.16797 -16 -16 -16h-16zM120 167c-8.83203 0 -16 7.16797 -16 16v16c0 8.83203 7.16797 16 16 16h16
c8.83203 0 16 -7.16797 16 -16v-16c0 -8.83203 -7.16797 -16 -16 -16h-16zM216 71c-8.83203 0 -16 7.16797 -16 16v16c0 8.83203 7.16797 16 16 16h16c8.83203 0 16 -7.16797 16 -16v-16c0 -8.83203 -7.16797 -16 -16 -16h-16zM432 415c8.83203 0 16 -7.16797 16 -16v-416
c0 -8.83203 -7.16797 -16 -16 -16h-416c-8.83203 0 -16 7.16797 -16 16v416c0 8.83203 7.16797 16 16 16h416zM416 -1v384h-384v-384h384z" />
    <glyph glyph-name="border-right" unicode="&#xf852;" 
d="M440 416c4.41602 0 8 -3.58398 8 -8v-432c0 -4.41602 -3.58398 -8 -8 -8h-16c-4.41602 0 -8 3.58398 -8 8v432c0 4.41602 3.58398 8 8 8h16zM136 16c8.83203 0 16 -7.16797 16 -16v-16c0 -8.83203 -7.16797 -16 -16 -16h-16c-8.83203 0 -16 7.16797 -16 16v16
c0 8.83203 7.16797 16 16 16h16zM32 416c8.83203 0 16 -7.16797 16 -16v-16c0 -8.83203 -7.16797 -16 -16 -16h-16c-8.83203 0 -16 7.16797 -16 16v16c0 8.83203 7.16797 16 16 16h16zM136 416c8.83203 0 16 -7.16797 16 -16v-16c0 -8.83203 -7.16797 -16 -16 -16h-16
c-8.83203 0 -16 7.16797 -16 16v16c0 8.83203 7.16797 16 16 16h16zM136 216c8.83203 0 16 -7.16797 16 -16v-16c0 -8.83203 -7.16797 -16 -16 -16h-16c-8.83203 0 -16 7.16797 -16 16v16c0 8.83203 7.16797 16 16 16h16zM32 120c8.83203 0 16 -7.16797 16 -16v-16
c0 -8.83203 -7.16797 -16 -16 -16h-16c-8.83203 0 -16 7.16797 -16 16v16c0 8.83203 7.16797 16 16 16h16zM32 16c8.83203 0 16 -7.16797 16 -16v-16c0 -8.83203 -7.16797 -16 -16 -16h-16c-8.83203 0 -16 7.16797 -16 16v16c0 8.83203 7.16797 16 16 16h16zM32 216
c8.83203 0 16 -7.16797 16 -16v-16c0 -8.83203 -7.16797 -16 -16 -16h-16c-8.83203 0 -16 7.16797 -16 16v16c0 8.83203 7.16797 16 16 16h16zM32 312c8.83203 0 16 -7.16797 16 -16v-16c0 -8.83203 -7.16797 -16 -16 -16h-16c-8.83203 0 -16 7.16797 -16 16v16
c0 8.83203 7.16797 16 16 16h16zM232 312c8.83203 0 16 -7.16797 16 -16v-16c0 -8.83203 -7.16797 -16 -16 -16h-16c-8.83203 0 -16 7.16797 -16 16v16c0 8.83203 7.16797 16 16 16h16zM328 216c8.83203 0 16 -7.16797 16 -16v-16c0 -8.83203 -7.16797 -16 -16 -16h-16
c-8.83203 0 -16 7.16797 -16 16v16c0 8.83203 7.16797 16 16 16h16zM328 416c8.83203 0 16 -7.16797 16 -16v-16c0 -8.83203 -7.16797 -16 -16 -16h-16c-8.83203 0 -16 7.16797 -16 16v16c0 8.83203 7.16797 16 16 16h16zM328 16c8.83203 0 16 -7.16797 16 -16v-16
c0 -8.83203 -7.16797 -16 -16 -16h-16c-8.83203 0 -16 7.16797 -16 16v16c0 8.83203 7.16797 16 16 16h16zM232 416c8.83203 0 16 -7.16797 16 -16v-16c0 -8.83203 -7.16797 -16 -16 -16h-16c-8.83203 0 -16 7.16797 -16 16v16c0 8.83203 7.16797 16 16 16h16zM232 16
c8.83203 0 16 -7.16797 16 -16v-16c0 -8.83203 -7.16797 -16 -16 -16h-16c-8.83203 0 -16 7.16797 -16 16v16c0 8.83203 7.16797 16 16 16h16zM232 120c8.83203 0 16 -7.16797 16 -16v-16c0 -8.83203 -7.16797 -16 -16 -16h-16c-8.83203 0 -16 7.16797 -16 16v16
c0 8.83203 7.16797 16 16 16h16zM232 216c8.83203 0 16 -7.16797 16 -16v-16c0 -8.83203 -7.16797 -16 -16 -16h-16c-8.83203 0 -16 7.16797 -16 16v16c0 8.83203 7.16797 16 16 16h16z" />
    </font>
</defs>
</svg>
