<?xml version="1.0" standalone="no"?>
<!--
Font Awesome Pro 5.10.0 by @fontawesome - https://fontawesome.com
License - https://fontawesome.com/license (Commercial License)
-->
<!DOCTYPE svg PUBLIC "-//W3C//DTD SVG 1.1//EN" "http://www.w3.org/Graphics/SVG/1.1/DTD/svg11.dtd" >
<svg xmlns="http://www.w3.org/2000/svg" xmlns:xlink="http://www.w3.org/1999/xlink" version="1.1">
<metadata>
Created by FontForge 20190112 at Mon Jul 29 10:01:35 2019
 By Robert Madole
Copyright (c) Font Awesome
</metadata>
<defs>
<font id="FontAwesome5Pro-Light" horiz-adv-x="512" >
  <font-face 
    font-family="Font Awesome 5 Pro Light"
    font-weight="300"
    font-stretch="normal"
    units-per-em="512"
    panose-1="2 0 3 3 0 0 0 0 0 0"
    ascent="448"
    descent="-64"
    bbox="-0.0875453 -64.1171 640.075 448.1"
    underline-thickness="25"
    underline-position="-51"
    unicode-range="U+0020-F89D"
  />
    <missing-glyph />
    <glyph glyph-name="search" unicode="&#xf002;" 
d="M508.5 -33.5996c4.7002 -4.7002 4.7002 -12.3008 0 -17l-9.90039 -9.90039c-4.69922 -4.7002 -12.2998 -4.7002 -17 0l-129 129c-2.19922 2.2998 -3.5 5.2998 -3.5 8.5v10.2002c-37.0996 -34.2002 -86.5996 -55.2002 -141.1 -55.2002c-114.9 0 -208 93.0996 -208 208
s93.0996 208 208 208s208 -93.0996 208 -208c0 -54.5 -21 -104 -55.2998 -141.1h10.2998c3.2002 0 6.2002 -1.2002 8.5 -3.5zM208 64c97.2998 0 176 78.7002 176 176s-78.7002 176 -176 176s-176 -78.7002 -176 -176s78.7002 -176 176 -176z" />
    <glyph glyph-name="star" unicode="&#xf005;" horiz-adv-x="576" 
d="M528.1 276.5c26.2002 -3.7998 36.7002 -36.0996 17.7002 -54.5996l-105.7 -103l25 -145.5c4.5 -26.3008 -23.1992 -45.9004 -46.3994 -33.7002l-130.7 68.7002l-130.7 -68.7002c-23.2002 -12.2998 -50.8994 7.39941 -46.3994 33.7002l25 145.5l-105.7 103
c-19 18.5 -8.5 50.7998 17.7002 54.5996l146.1 21.2998l65.2998 132.4c11.7998 23.8994 45.7002 23.5996 57.4004 0l65.2998 -132.4zM405.8 130.1l117.7 114.801l-162.7 23.5996l-72.7998 147.5l-72.7998 -147.5l-162.7 -23.5996l117.8 -114.9l-27.7998 -162l145.5 76.5
l145.6 -76.4004z" />
    <glyph glyph-name="film" unicode="&#xf008;" 
d="M488 384c13.2998 0 24 -10.7002 24 -24v-336c0 -13.2998 -10.7002 -24 -24 -24h-8v20c0 6.59961 -5.40039 12 -12 12h-40c-6.59961 0 -12 -5.40039 -12 -12v-20h-320v20c0 6.59961 -5.40039 12 -12 12h-40c-6.59961 0 -12 -5.40039 -12 -12v-20h-8
c-13.2998 0 -24 10.7002 -24 24v336c0 13.2998 10.7002 24 24 24h8v-20c0 -6.59961 5.40039 -12 12 -12h40c6.59961 0 12 5.40039 12 12v20h320v-20c0 -6.59961 5.40039 -12 12 -12h40c6.59961 0 12 5.40039 12 12v20h8zM96 76v40c0 6.59961 -5.40039 12 -12 12h-40
c-6.59961 0 -12 -5.40039 -12 -12v-40c0 -6.59961 5.40039 -12 12 -12h40c6.59961 0 12 5.40039 12 12zM96 172v40c0 6.59961 -5.40039 12 -12 12h-40c-6.59961 0 -12 -5.40039 -12 -12v-40c0 -6.59961 5.40039 -12 12 -12h40c6.59961 0 12 5.40039 12 12zM96 268v40
c0 6.59961 -5.40039 12 -12 12h-40c-6.59961 0 -12 -5.40039 -12 -12v-40c0 -6.59961 5.40039 -12 12 -12h40c6.59961 0 12 5.40039 12 12zM384 44v120c0 6.59961 -5.40039 12 -12 12h-232c-6.59961 0 -12 -5.40039 -12 -12v-120c0 -6.59961 5.40039 -12 12 -12h232
c6.59961 0 12 5.40039 12 12zM384 220v120c0 6.59961 -5.40039 12 -12 12h-232c-6.59961 0 -12 -5.40039 -12 -12v-120c0 -6.59961 5.40039 -12 12 -12h232c6.59961 0 12 5.40039 12 12zM480 76v40c0 6.59961 -5.40039 12 -12 12h-40c-6.59961 0 -12 -5.40039 -12 -12v-40
c0 -6.59961 5.40039 -12 12 -12h40c6.59961 0 12 5.40039 12 12zM480 172v40c0 6.59961 -5.40039 12 -12 12h-40c-6.59961 0 -12 -5.40039 -12 -12v-40c0 -6.59961 5.40039 -12 12 -12h40c6.59961 0 12 5.40039 12 12zM480 268v40c0 6.59961 -5.40039 12 -12 12h-40
c-6.59961 0 -12 -5.40039 -12 -12v-40c0 -6.59961 5.40039 -12 12 -12h40c6.59961 0 12 5.40039 12 12z" />
    <glyph glyph-name="th-large" unicode="&#xf009;" 
d="M0 368c0 26.5098 21.4902 48 48 48h416c26.5098 0 48 -21.4902 48 -48v-352c0 -26.5098 -21.4902 -48 -48 -48h-416c-26.5098 0 -48 21.4902 -48 48v352zM240 384h-192c-8.83691 0 -16 -7.16309 -16 -16v-160h208v176zM32 16c0 -8.83691 7.16309 -16 16 -16h192v176h-208
v-160zM272 0h192c8.83691 0 16 7.16309 16 16v160h-208v-176zM480 208v160c0 8.83691 -7.16309 16 -16 16h-192v-176h208z" />
    <glyph glyph-name="th-list" unicode="&#xf00b;" 
d="M0 368c0 26.5098 21.4902 48 48 48h416c26.5098 0 48 -21.4902 48 -48v-352c0 -26.5098 -21.4902 -48 -48 -48h-416c-26.5098 0 -48 21.4902 -48 48v352zM480 368c0 8.83691 -7.16309 16 -16 16h-272v-106.667h288v90.667zM480 138.667v106.666h-288v-106.666h288z
M32 245.333v-106.667h128v106.667h-128zM160 384h-112c-8.83691 0 -16 -7.16309 -16 -16v-90.667h128v106.667zM32 16c0 -8.83691 7.16309 -16 16 -16h112v106.667h-128v-90.667zM192 0h272c8.83691 0 16 7.16309 16 16v90.667h-288v-106.667z" />
    <glyph glyph-name="check" unicode="&#xf00c;" horiz-adv-x="448" 
d="M413.505 356.049c4.68652 4.68652 12.2842 4.68652 16.9697 0l11.3145 -11.3135c4.68555 -4.6875 4.68555 -12.2852 0 -16.9717l-299.813 -299.812c-4.68652 -4.68652 -12.2842 -4.68652 -16.9707 0l-118.794 118.794c-4.68555 4.68652 -4.68555 12.2852 0 16.9707
l11.3135 11.3135c4.68652 4.68555 12.2842 4.68555 16.9707 0l98.9951 -98.9951z" />
    <glyph glyph-name="search-plus" unicode="&#xf00e;" 
d="M319.8 244v-8c0 -6.59961 -5.39941 -12 -12 -12h-84v-84c0 -6.59961 -5.39941 -12 -12 -12h-8c-6.59961 0 -12 5.40039 -12 12v84h-84c-6.59961 0 -12 5.40039 -12 12v8c0 6.59961 5.40039 12 12 12h84v84c0 6.59961 5.40039 12 12 12h8c6.60059 0 12 -5.40039 12 -12
v-84h84c6.60059 0 12 -5.40039 12 -12zM508.3 -49l-11.2998 -11.2998c-4.7002 -4.7002 -12.2998 -4.7002 -17 0l-129 129c-2.2998 2.2998 -3.5 5.2998 -3.5 8.5v8.5c-36.9004 -33.4004 -85.7998 -53.7002 -139.5 -53.7002c-114.2 0 -206.5 91.0996 -208 205.3
c-1.5 117 93.7002 212.2 210.7 210.7c114.2 -1.5 205.3 -93.7998 205.3 -208c0 -53.7002 -20.2998 -102.6 -53.7002 -139.5h8.5c3.2002 0 6.2002 -1.2998 8.5 -3.5l129 -129c4.7002 -4.7002 4.7002 -12.2998 0 -17zM384 240c0 97.2998 -78.7002 176 -176 176
s-176 -78.7002 -176 -176s78.7002 -176 176 -176s176 78.7002 176 176z" />
    <glyph glyph-name="power-off" unicode="&#xf011;" 
d="M388.5 401.7c69.4004 -44 115.5 -121.5 115.5 -209.7c0 -136.8 -110.8 -247.7 -247.5 -248c-136.5 -0.299805 -248.3 111 -248.5 247.6c-0.0996094 88.4004 46 166.101 115.5 210.101c5.7998 3.7002 13.5 1.7998 16.9004 -4.2002l3.89941 -7
c3.10059 -5.59961 1.2998 -12.5996 -4.09961 -16c-60.2998 -38.5 -100.2 -106.1 -100.2 -182.5c0 -119.9 97.2998 -216 216 -216c119.9 0 216 97.2998 216 216c0 77 -40.0996 144.2 -100.3 182.4c-5.40039 3.39941 -7.2002 10.5 -4.10059 16l3.90039 7
c3.40039 6.09961 11.2002 7.89941 17 4.2998zM272 172c0 -6.59961 -5.40039 -12 -12 -12h-8c-6.59961 0 -12 5.40039 -12 12v264c0 6.59961 5.40039 12 12 12h8c6.59961 0 12 -5.40039 12 -12v-264z" />
    <glyph glyph-name="cog" unicode="&#xf013;" 
d="M482.696 148.724c9.57617 -5.52832 14.1943 -16.9014 11.0459 -27.501c-11.2139 -37.748 -31.1748 -71.7275 -57.5352 -99.5947c-7.63379 -8.07129 -19.8174 -9.83691 -29.4375 -4.2832l-32.5615 18.7979c-10.8281 -8.23926 -29.7959 -19.2061 -42.3389 -24.4785
v-37.6143c0 -11.1309 -7.65332 -20.8037 -18.4844 -23.3672c-37.6514 -8.90918 -77.125 -8.9082 -114.77 0c-10.832 2.56348 -18.4844 12.2373 -18.4844 23.3672v37.6143c-12.5439 5.27246 -31.5117 16.2383 -42.3389 24.4785l-32.5615 -18.7979
c-9.62012 -5.55273 -21.8037 -3.78711 -29.4375 4.2832c-26.3604 27.8672 -46.3213 61.8467 -57.5352 99.5947c-3.14844 10.5996 1.46973 21.9736 11.0459 27.501l32.6104 18.8271c-0.848633 6.72168 -1.53711 17.6748 -1.53711 24.4502
c0 6.77441 0.688477 17.7275 1.53711 24.4492l-32.6104 18.8271c-9.57617 5.52832 -14.1943 16.9014 -11.0459 27.501c11.2139 37.748 31.1748 71.7275 57.5352 99.5947c7.63281 8.07031 19.8164 9.83594 29.4375 4.28223l32.5615 -18.7979
c10.8271 8.24023 29.7949 19.207 42.3389 24.4795v37.6143c0 11.1309 7.65332 20.8037 18.4844 23.3672c37.6514 8.90918 77.126 8.9082 114.77 0c10.832 -2.56348 18.4844 -12.2373 18.4844 -23.3672v-37.6143c12.543 -5.27246 31.5107 -16.2393 42.3389 -24.4795
l32.5615 18.7979c9.62012 5.55371 21.8037 3.78809 29.4375 -4.28223c26.3604 -27.8672 46.3213 -61.8457 57.5352 -99.5947c3.14844 -10.5996 -1.46973 -21.9736 -11.0459 -27.501l-32.6104 -18.8271c0.848633 -6.72168 1.53711 -17.6748 1.53711 -24.4492
c0 -6.77539 -0.688477 -17.7285 -1.53711 -24.4502zM417.217 48.2627c19.71 22.0889 34.6895 47.9893 43.9297 75.957l-46.3291 26.7402c6.53809 35.4346 6.53516 46.6533 0 82.0791l46.3291 26.7402c-9.24023 27.9697 -24.2207 53.8701 -43.9297 75.9688l-46.3086 -26.7598
c-27.374 23.4316 -37.0615 29.0635 -71.0391 41.0684v53.4795c-11.9814 2.47559 -31.6348 4.48438 -43.8691 4.48438s-31.8877 -2.00879 -43.8691 -4.48438v-53.4785c-33.9756 -12.0039 -43.6621 -17.6348 -71.0391 -41.0684l-46.3086 26.7598
c-19.709 -22.0996 -34.6895 -48 -43.9297 -75.9688l46.3291 -26.7402c-6.53809 -35.4346 -6.53418 -46.6621 0 -82.0791l-46.3291 -26.7402c9.24023 -27.9688 24.2197 -53.8682 43.9297 -75.958l46.3086 26.7402c27.6846 -23.6641 37.418 -29.1797 71.0391 -41.0586
v-53.4795c11.9814 -2.47168 31.6348 -4.47754 43.8691 -4.47754s31.8877 2.00586 43.8691 4.47754v53.4795c34.4795 12.1826 44.0508 17.9873 71.0391 41.0586zM256 288c52.9346 0 96 -43.0654 96 -96s-43.0654 -96 -96 -96s-96 43.0654 -96 96s43.0654 96 96 96zM256 128
c35.29 0 64 28.71 64 64s-28.71 64 -64 64s-64 -28.71 -64 -64s28.71 -64 64 -64z" />
    <glyph glyph-name="clock" unicode="&#xf017;" 
d="M256 440c137 0 248 -111 248 -248s-111 -248 -248 -248s-248 111 -248 248s111 248 248 248zM472 192c0 119.9 -97.2998 216 -216 216c-119.9 0 -216 -97.2998 -216 -216c0 -119.9 97.2998 -216 216 -216c119.9 0 216 97.2998 216 216zM323.1 103.7l-81.1992 59
c-3.10059 2.2998 -4.90039 5.89941 -4.90039 9.7002v159.6c0 6.59961 5.40039 12 12 12h14c6.59961 0 12 -5.40039 12 -12v-146.3l70.5 -51.2998c5.40039 -3.90039 6.5 -11.4004 2.59961 -16.8008l-8.19922 -11.2998c-3.90039 -5.2998 -11.4004 -6.5 -16.8008 -2.59961z" />
    <glyph glyph-name="download" unicode="&#xf019;" 
d="M452 16c0 -11 -9 -20 -20 -20s-20 9 -20 20s9 20 20 20s20 -9 20 -20zM368 36c11 0 20 -9 20 -20s-9 -20 -20 -20s-20 9 -20 20s9 20 20 20zM512 84v-104c0 -24.2998 -19.7002 -44 -44 -44h-424c-24.2998 0 -44 19.7002 -44 44v104c0 24.2998 19.7002 44 44 44h99.4004
l-56.4004 56.4004c-25.2002 25.1992 -7.2998 68.2998 28.2998 68.2998h52.7002v155.3c0 22.0996 17.9004 40 40 40h96c22.0996 0 40 -17.9004 40 -40v-155.3h52.7002c35.5996 0 53.3994 -43.1006 28.2998 -68.2998l-56.4004 -56.4004h99.4004c24.2998 0 44 -19.7002 44 -44z
M250.3 66.2998c3.10059 -3.09961 8.2002 -3.09961 11.2998 0l140.7 140.7c5 5 1.5 13.7002 -5.7002 13.7002h-84.5996v187.3c0 4.40039 -3.59961 8 -8 8h-96c-4.40039 0 -8 -3.59961 -8 -8v-187.3h-84.7002c-7.09961 0 -10.7002 -8.60059 -5.7002 -13.7002zM480 84
c0 6.59961 -5.40039 12 -12 12h-131.4l-52.2998 -52.2998c-15.5996 -15.6006 -41 -15.6006 -56.5996 0l-52.2998 52.2998h-131.4c-6.59961 0 -12 -5.40039 -12 -12v-104c0 -6.59961 5.40039 -12 12 -12h424c6.59961 0 12 5.40039 12 12v104z" />
    <glyph glyph-name="inbox" unicode="&#xf01c;" horiz-adv-x="576" 
d="M566.819 220.623c5.06738 -6.96777 9.18066 -19.6152 9.18066 -28.2314v-0.000976562v-144.391c0 -26.5098 -21.4902 -48 -48 -48h-480c-26.5098 0 -48 21.4902 -48 48v144.391v0.000976562c0 8.61621 4.11328 21.2637 9.18066 28.2314l104.443 143.609
c7.93555 10.9111 25.3262 19.7676 38.8184 19.7676h0.000976562h271.113c13.4932 0 30.8848 -8.85645 38.8203 -19.7676zM139.503 345.411l-88.2988 -121.411h136.573l32 -64h136.445l32 64h136.573l-88.2979 121.411c-3.00098 4.12598 -7.83789 6.58887 -12.9404 6.58887
h-271.114c-4.49414 -0.00683594 -10.291 -2.95898 -12.9404 -6.58887zM544 176c0 8.83691 -7.16309 16 -16 16h-120l-32 -64h-176l-32 64h-120c-8.83691 0 -16 -7.16309 -16 -16v-128c0 -8.82324 7.17773 -16 16 -16h480c8.82227 0 16 7.17676 16 16v128z" />
    <glyph glyph-name="list-alt" unicode="&#xf022;" 
d="M464 384h-416c-8.82324 0 -16 -7.17773 -16 -16v-352c0 -8.82227 7.17676 -16 16 -16h416c8.82324 0 16 7.17773 16 16v352c0 8.82227 -7.17676 16 -16 16zM464 416c26.5098 0 48 -21.4902 48 -48v-352c0 -26.5098 -21.4902 -48 -48 -48h-416
c-26.5098 0 -48 21.4902 -48 48v352c0 26.5098 21.4902 48 48 48h416zM128 320c17.6729 0 32 -14.3271 32 -32s-14.3271 -32 -32 -32s-32 14.3271 -32 32s14.3271 32 32 32zM128 224c17.6729 0 32 -14.3271 32 -32s-14.3271 -32 -32 -32s-32 14.3271 -32 32
s14.3271 32 32 32zM128 128c17.6729 0 32 -14.3271 32 -32s-14.3271 -32 -32 -32s-32 14.3271 -32 32s14.3271 32 32 32zM416 276c0 -3.31152 -2.68848 -6 -6 -6h-212c-3.31152 0 -6 2.68848 -6 6v24c0 3.31152 2.68848 6 6 6h212c3.31152 0 6 -2.68848 6 -6v-24zM416 180
c0 -3.31152 -2.68848 -6 -6 -6h-212c-3.31152 0 -6 2.68848 -6 6v24c0 3.31152 2.68848 6 6 6h212c3.31152 0 6 -2.68848 6 -6v-24zM416 84c0 -3.31152 -2.68848 -6 -6 -6h-212c-3.31152 0 -6 2.68848 -6 6v24c0 3.31152 2.68848 6 6 6h212c3.31152 0 6 -2.68848 6 -6v-24z
" />
    <glyph glyph-name="lock" unicode="&#xf023;" horiz-adv-x="448" 
d="M400 224c26.5 0 48 -21.5 48 -48v-192c0 -26.5 -21.5 -48 -48 -48h-352c-26.5 0 -48 21.5 -48 48v192c0 26.5 21.5 48 48 48h16v64c0 88.4004 72 160.3 160.5 160c88.4004 -0.299805 159.5 -73.0996 159.5 -161.5v-62.5h16zM96 288v-64h256v64
c0 70.5996 -57.4004 128 -128 128s-128 -57.4004 -128 -128zM400 -32c8.7998 0 16 7.2002 16 16v192c0 8.7998 -7.2002 16 -16 16h-352c-8.7998 0 -16 -7.2002 -16 -16v-192c0 -8.7998 7.2002 -16 16 -16h352z" />
    <glyph glyph-name="flag" unicode="&#xf024;" 
d="M344.348 373.333c47.2676 0 96.75 19.8223 133.53 36.9062c15.916 7.3916 34.1221 -4.21094 34.1221 -21.7607v-261.667c0 -7.9502 -3.9248 -15.4092 -10.5137 -19.8594c-38.0752 -25.7148 -78.6982 -42.9531 -130.009 -42.9531
c-69.9238 0 -115.22 34.667 -171.825 34.667c-63.5859 0 -104.229 -14.5254 -135.652 -29.0645v-121.602c0 -6.62695 -5.37305 -12 -12 -12h-8c-6.62695 0 -12 5.37305 -12 12v406.742c-19.4473 6.87598 -33.1465 25.918 -31.9238 47.9863
c1.35645 24.5215 21.4561 44.2725 45.9951 45.2334c29.7363 1.16504 53.4814 -24.6748 49.4854 -54.4111c23.29 9.12695 48.4785 14.4492 76.9658 14.4492c69.9238 0 115.22 -34.667 171.825 -34.667zM48 420c-11.0283 0 -20 -8.97168 -20 -20s8.97168 -20 20 -20
s20 8.97168 20 20s-8.97168 20 -20 20zM480 130.667v245.333c-33.4346 -15.8535 -89.7324 -34.667 -135.652 -34.667c-63.5791 0 -108.211 34.667 -171.825 34.667c-43.9746 0 -85.4053 -17.9707 -108.522 -34.667v-236.666c33.373 15.8145 89.6357 26 135.652 26
c63.5791 0 108.211 -34.667 171.825 -34.667c43.9746 0 85.4053 17.9697 108.522 34.667z" />
    <glyph glyph-name="headphones" unicode="&#xf025;" 
d="M256 416c141.503 0 256 -114.518 256 -256v-51.4277c0 -5.19043 -3.67969 -11.4521 -8.21289 -13.9785l-23.8037 -13.2617c0.00488281 -0.444336 0.0166016 -0.886719 0.0166016 -1.33203c0 -61.8564 -50.1436 -112 -112 -112h-24c-13.2549 0 -24 10.7451 -24 24v176
c0 13.2549 10.7451 24 24 24h24c49.6758 0 91.79 -32.3428 106.453 -77.1172l5.54688 3.08984v42.0273c0 123.816 -100.204 224 -224 224c-123.816 0 -224 -100.205 -224 -224v-42.0273l5.54688 -3.09082c14.6631 44.7754 56.7783 77.1182 106.453 77.1182h24
c13.2549 0 24 -10.7451 24 -24v-176c0 -13.2549 -10.7451 -24 -24 -24h-24c-61.8564 0 -112 50.1436 -112 112c0 0.445312 0.0117188 0.887695 0.0166016 1.33105l-23.8037 13.2617c-4.5332 2.52637 -8.21289 8.78906 -8.21289 13.9785v51.4287
c0 141.503 114.517 256 256 256zM144 160c-44.1123 0 -80 -35.8877 -80 -80s35.8877 -80 80 -80h16v160h-16zM368 0c44.1123 0 80 35.8877 80 80s-35.8877 80 -80 80h-16v-160h16z" />
    <glyph glyph-name="qrcode" unicode="&#xf029;" horiz-adv-x="448" 
d="M0 224v192h192v-192h-192zM32 384v-128h128v128h-128zM256 416h192v-192h-192v192zM416 256v128h-128v-128h128zM0 -32v192h192v-192h-192zM32 128v-128h128v128h-128zM64 352h64v-64h-64v64zM384 288h-64v64h64v-64zM64 96h64v-64h-64v64zM416 160h32v-128h-128v32h-32
v-96h-32v192h96v-32h64v32zM416 0h32v-32h-32v32zM352 0h32v-32h-32v32z" />
    <glyph glyph-name="barcode" unicode="&#xf02a;" 
d="M0 0v384h18v-384h-18zM26.8574 0.273438v383.727h9.14258v-383.727h-9.14258zM54 0.273438v383.727h8.85742v-383.727h-8.85742zM98.8574 0.273438v383.727h8.85645v-383.727h-8.85645zM134.857 0.273438v383.727h17.7139v-383.727h-17.7139zM179.714 0.273438v383.727
h8.85742v-383.727h-8.85742zM197.714 0.273438v383.727h8.85742v-383.727h-8.85742zM215.714 0.273438v383.727h8.85742v-383.727h-8.85742zM251.429 0.273438v383.727h18v-383.727h-18zM296.286 0.273438v383.727h18v-383.727h-18zM332.285 0.273438v383.727h18.001
v-383.727h-18.001zM368.286 0.273438v383.727h18.001v-383.727h-18.001zM395.143 0.273438v383.727h18v-383.727h-18zM440.286 0.273438v383.727h26.8564v-383.727h-26.8564zM476 0.273438v383.727h9.14258v-383.727h-9.14258zM494 0v384h18v-384h-18z" />
    <glyph glyph-name="tag" unicode="&#xf02b;" 
d="M497.941 222.059c18.7441 -18.7441 18.7441 -49.1367 0 -67.8818l-204.118 -204.118c-18.7451 -18.7451 -49.1377 -18.7441 -67.8818 0l-211.883 211.883c-7.75977 7.75977 -14.0586 22.9658 -14.0586 33.9404v204.118c0 26.5098 21.4902 48 48 48h204.118
c10.9746 0 26.1807 -6.29883 33.9404 -14.0586zM475.314 176.804c6.2373 6.23828 6.2373 16.3896 0 22.6279l-211.883 211.883c-3.02148 3.02148 -7.04004 4.68555 -11.3135 4.68555h-204.118c-8.82227 0 -16 -7.17773 -16 -16v-204.117v-0.0439453
c0 -3.64844 2.09961 -8.69727 4.68555 -11.2695l211.884 -211.884c6.25195 -6.25293 16.3838 -6.24219 22.627 0zM144 324c-11.0283 0 -20 -8.97168 -20 -20s8.97168 -20 20 -20s20 8.97168 20 20s-8.97168 20 -20 20zM144 352c26.5098 0 48 -21.4902 48 -48
s-21.4902 -48 -48 -48s-48 21.4902 -48 48s21.4902 48 48 48z" />
    <glyph glyph-name="tags" unicode="&#xf02c;" horiz-adv-x="640" 
d="M625.941 154.177l-204.118 -204.118c-18.7461 -18.7451 -49.1387 -18.7441 -67.8818 0l-1.77539 1.77539l22.627 22.627l1.77539 -1.77539c6.25293 -6.25293 16.3838 -6.24219 22.627 0l204.118 204.118c6.2373 6.23926 6.2373 16.3896 0 22.627l-211.883 211.884
c-2.57227 2.58594 -7.62109 4.68555 -11.2695 4.68555h-0.0439453h-19.5488l-32 32h51.5488c10.9746 0 26.1807 -6.29883 33.9404 -14.0586l211.883 -211.883c18.7451 -18.7441 18.7451 -49.1367 0.000976562 -67.8818zM252.118 416h-204.118
c-8.82227 0 -16 -7.17773 -16 -16v-204.118c0 -4.27344 1.66406 -8.29199 4.68555 -11.3135l211.883 -211.883c6.25293 -6.25293 16.3838 -6.24219 22.627 0l204.118 204.118c6.2373 6.23926 6.2373 16.3896 0 22.627l-211.883 211.884
c-2.57227 2.58594 -7.62109 4.68555 -11.2695 4.68555h-0.0429688zM252.118 448c10.9746 0 26.1807 -6.29883 33.9404 -14.0586l211.883 -211.883c18.7441 -18.7441 18.7441 -49.1367 0 -67.8818l-204.118 -204.118c-18.7461 -18.7451 -49.1387 -18.7441 -67.8818 0
l-211.883 211.883c-7.75977 7.75977 -14.0586 22.9658 -14.0586 33.9404v204.118c0 26.5098 21.4902 48 48 48h204.118zM144 324c-11.0283 0 -20 -8.97168 -20 -20s8.97168 -20 20 -20s20 8.97168 20 20s-8.97168 20 -20 20zM144 352c26.5098 0 48 -21.4902 48 -48
s-21.4902 -48 -48 -48s-48 21.4902 -48 48s21.4902 48 48 48z" />
    <glyph glyph-name="book" unicode="&#xf02d;" horiz-adv-x="448" 
d="M356 288h-168c-6.59961 0 -12 5.40039 -12 12v8c0 6.59961 5.40039 12 12 12h168c6.59961 0 12 -5.40039 12 -12v-8c0 -6.59961 -5.40039 -12 -12 -12zM368 236c0 -6.59961 -5.40039 -12 -12 -12h-168c-6.59961 0 -12 5.40039 -12 12v8c0 6.59961 5.40039 12 12 12h168
c6.59961 0 12 -5.40039 12 -12v-8zM432.7 -32h3.2998c6.59961 0 12 -5.40039 12 -12v-8c0 -6.59961 -5.40039 -12 -12 -12h-356c-44.2002 0 -80 35.7998 -80 80v352c0 44.2002 35.7998 80 80 80h344c13.2998 0 24 -10.7002 24 -24v-368
c0 -10 -6.2002 -18.5996 -14.9004 -22.2002c-3.59961 -16.0996 -4.39941 -45.5996 -0.399414 -65.7998zM128 64h288v352h-288v-352zM32 48c13.4004 10 30 16 48 16h16v352h-16c-26.5 0 -48 -21.5 -48 -48v-320zM404.3 -32c-3.09961 20.4004 -2.89941 45.2002 0 64h-324.3
c-64 0 -64 -64 0 -64h324.3z" />
    <glyph glyph-name="bookmark" unicode="&#xf02e;" horiz-adv-x="384" 
d="M336 448c26.5098 0 48 -21.4902 48 -48v-464l-192 112l-192 -112v464c0 26.5098 21.4902 48 48 48h288zM352 -8.28711v408.287c0 8.82227 -7.17773 16 -16 16h-288c-8.82227 0 -16 -7.17773 -16 -16v-408.287l160 93.333z" />
    <glyph glyph-name="camera" unicode="&#xf030;" 
d="M324.3 384h-131c-6.7002 0 -12.7002 -4.2002 -15 -10.4004l-20.0996 -53.5996h-110.2c-8.7998 0 -16 -7.2002 -16 -16v-288c0 -8.7998 7.2002 -16 16 -16h416c8.7998 0 16 7.2002 16 16v288c0 8.7998 -7.2002 16 -16 16h-110.1l-22.1006 58.7998
c-1.2002 3.10059 -4.2002 5.2002 -7.5 5.2002zM324.3 416c16.7002 0 31.6006 -10.2998 37.4004 -26l14.2998 -38h88c26.5 0 48 -21.5 48 -48v-288c0 -26.5 -21.5 -48 -48 -48h-416c-26.5 0 -48 21.5 -48 48v288c0 26.5 21.5 48 48 48h88l12.4004 32.9004
c7 18.6992 24.8994 31.0996 44.8994 31.0996h131zM256 40c-66.2002 0 -120 53.7998 -120 120s53.7998 120 120 120s120 -53.7998 120 -120s-53.7998 -120 -120 -120zM256 248c-48.5 0 -88 -39.5 -88 -88s39.5 -88 88 -88s88 39.5 88 88s-39.5 88 -88 88z" />
    <glyph glyph-name="image" unicode="&#xf03e;" 
d="M464 384c26.5098 0 48 -21.4902 48 -48v-288c0 -26.5098 -21.4902 -48 -48 -48h-416c-26.5098 0 -48 21.4902 -48 48v288c0 26.5098 21.4902 48 48 48h416zM480 48v288c0 8.82227 -7.17773 16 -16 16h-416c-8.82227 0 -16 -7.17773 -16 -16v-288
c0 -8.82227 7.17773 -16 16 -16h416c8.82227 0 16 7.17773 16 16zM112 216c-30.9277 0 -56 25.0723 -56 56s25.0723 56 56 56s56 -25.0723 56 -56s-25.0723 -56 -56 -56zM112 296c-13.2344 0 -24 -10.7656 -24 -24s10.7656 -24 24 -24s24 10.7656 24 24s-10.7656 24 -24 24z
M319.029 272.971c9.37305 9.37207 24.5684 9.37207 33.9414 0l88 -88c4.5 -4.50098 7.0293 -10.6055 7.0293 -16.9707v-92c0 -6.62695 -5.37305 -12 -12 -12h-360c-6.62695 0 -12 5.37305 -12 12v28c0 5.4873 3.14941 13.0898 7.03027 16.9697l88 88
c9.37207 9.37305 24.5674 9.37305 33.9404 0l31.0293 -31.0283zM416 96v68.6855l-80 80l-112 -112l-48 48l-80 -80v-4.68555h320z" />
    <glyph glyph-name="pencil" unicode="&#xf040;" 
d="M493.255 391.764c24.9932 -24.9922 24.9932 -65.5156 0.000976562 -90.5098l-352.417 -352.417l-114.184 -12.6865c-15.2842 -1.69922 -28.2021 11.2178 -26.5039 26.5039l12.6865 114.184l352.417 352.416c24.9951 24.9941 65.5176 24.9932 90.5098 0zM398.059 251.314
l-82.7441 82.7441l-224.06 -224.059h34.7451v-48h48v-34.7451zM126.147 -20.5977l19.8525 19.8525v34.7451h-48v48h-34.7451l-19.8525 -19.8525l-6.55566 -58.9951l30.3057 -30.3057zM470.627 323.882c12.5068 12.5078 12.5059 32.749 0 45.2549l-37.4902 37.4902
c-12.5068 12.5068 -32.75 12.5049 -45.2549 0l-49.9404 -49.9414l82.7441 -82.7441z" />
    <glyph glyph-name="map-marker" unicode="&#xf041;" horiz-adv-x="384" 
d="M192 448c106.039 0 192 -85.9609 192 -192c0 -77.4131 -26.9697 -99.0312 -172.267 -309.67c-9.53613 -13.7744 -29.9316 -13.7725 -39.4658 0c-145.298 210.639 -172.268 232.257 -172.268 309.67c0 106.039 85.9609 192 192 192zM192 -25.9307
c139.308 201.461 160 217.44 160 281.931c0 42.7383 -16.6426 82.917 -46.8633 113.137c-30.2197 30.2207 -70.3984 46.8633 -113.137 46.8633s-82.917 -16.6426 -113.137 -46.8633c-30.2207 -30.2197 -46.8633 -70.3984 -46.8633 -113.137
c0 -64.4941 20.7051 -80.4883 160 -281.931z" />
    <glyph glyph-name="adjust" unicode="&#xf042;" 
d="M256 408c-118.663 0 -216 -96.0547 -216 -216c0 -118.663 96.0547 -216 216 -216c118.663 0 216 96.0547 216 216c0 118.663 -96.0547 216 -216 216zM256 440c136.967 0 248 -111.033 248 -248s-111.033 -248 -248 -248s-248 111.033 -248 248s111.033 248 248 248z
M224 315.99c-53.8555 -13.7998 -96 -63 -96 -123.99c0 -60.9893 42.1445 -110.19 96 -123.99v247.98zM256 352v-320c-88.3662 0 -160 71.6338 -160 160s71.6338 160 160 160z" />
    <glyph glyph-name="edit" unicode="&#xf044;" horiz-adv-x="576" 
d="M417.8 132.5l20 20c3.7998 3.7998 10.2002 1.09961 10.2002 -4.2002v-164.3c0 -26.5 -21.5 -48 -48 -48h-352c-26.5 0 -48 21.5 -48 48v352c0 26.5 21.5 48 48 48h292.3c5.2998 0 8 -6.5 4.2002 -10.2002l-20 -20c-1.09961 -1.09961 -2.7002 -1.7998 -4.2002 -1.7998
h-272.3c-8.7998 0 -16 -7.2002 -16 -16v-352c0 -8.7998 7.2002 -16 16 -16h352c8.7998 0 16 7.2002 16 16v144.3c0 1.60059 0.599609 3.10059 1.7998 4.2002zM563.7 323.7l-312.5 -312.5l-99.9004 -11.1006c-13.3994 -1.5 -24.7002 9.80078 -23.2002 23.2002
l11.1006 99.9004l312.5 312.5c16.3994 16.3994 43 16.3994 59.3994 0l52.6006 -52.6006c16.3994 -16.3994 16.3994 -43 0 -59.3994zM470.1 275.3l-66.6992 66.7002l-233.601 -233.5l-8.2998 -75.0996l75.0996 8.2998zM541.1 360.5l-52.5996 52.5996
c-3.7998 3.80078 -10.2002 4 -14.0996 0l-48.4004 -48.3994l66.7002 -66.7002l48.3994 48.4004c3.90039 3.7998 3.90039 10.1992 0 14.0996z" />
    <glyph glyph-name="arrows" unicode="&#xf047;" 
d="M337.782 13.2959l-73.2969 -73.7822c-4.68652 -4.68555 -12.2842 -4.68555 -16.9717 0l-73.2959 73.7822c-4.68555 4.68652 -4.68555 12.2842 0 16.9697l7.07031 7.07031c4.68555 4.68652 12.2842 4.68652 16.9707 0l40.7412 -41.2227h1v179.887h-179.887v-1
l41.2236 -40.7412c4.68652 -4.68555 4.68652 -12.2842 0 -16.9707l-7.07129 -7.07031c-4.68555 -4.68555 -12.2832 -4.68555 -16.9697 0l-73.7812 73.2969c-4.68555 4.68652 -4.68555 12.2842 0 16.9717l73.7822 73.2969c4.68652 4.68555 12.2842 4.68555 16.9707 0
l7.07129 -7.07129c4.68652 -4.68555 4.68652 -12.2842 0 -16.9707l-41.2256 -40.7412v-1h179.887v179.887h-1l-40.7412 -41.2236c-4.68555 -4.68652 -12.2842 -4.68652 -16.9707 0l-7.07031 7.07129c-4.68555 4.68555 -4.68652 12.2832 0 16.9697l73.2969 73.7822
c4.68652 4.68555 12.2842 4.68555 16.9717 0l73.2969 -73.7822c4.68555 -4.68652 4.68555 -12.2842 0 -16.9707l-7.07129 -7.07129c-4.68555 -4.68652 -12.2842 -4.68652 -16.9707 0l-40.7412 41.2246h-1v-179.887h179.887v1l-41.2236 40.7412
c-4.68652 4.68555 -4.68652 12.2842 0 16.9707l7.07129 7.07031c4.68555 4.68555 12.2832 4.68555 16.9697 0l73.7822 -73.2969c4.68652 -4.68652 4.68555 -12.2842 0 -16.9717l-73.7822 -73.2969c-4.68652 -4.68555 -12.2842 -4.68555 -16.9697 0l-7.07129 7.07031
c-4.68652 4.68555 -4.68652 12.2842 0 16.9707l41.2236 40.7422v1h-179.887v-179.887h1l40.7412 41.2236c4.68555 4.68652 12.2842 4.68652 16.9707 0l7.07031 -7.07129c4.68555 -4.68457 4.68555 -12.2822 0 -16.9697z" />
    <glyph glyph-name="step-backward" unicode="&#xf048;" horiz-adv-x="448" 
d="M76 -31c-6.59961 0 -12 5.40039 -12 12v424c0 6.59961 5.40039 12 12 12h8c6.59961 0 12 -5.40039 12 -12v-191.4c1.09961 1.2002 2.2002 2.30078 3.5 3.40039l232 192.6c20.5996 17.2002 52.5 2.80078 52.5 -24.5996v-383.9
c0 -27.3994 -31.9004 -41.7998 -52.5 -24.5996l-232 191.4c-1.2998 1 -2.40039 2.19922 -3.5 3.39941v-190.3c0 -6.59961 -5.40039 -12 -12 -12h-8zM116.5 192.4l235.2 -191.2l0.200195 -0.100586l0.0996094 -0.0996094v384l-0.0996094 -0.0996094l-0.100586 -0.100586z" />
    <glyph glyph-name="fast-backward" unicode="&#xf049;" 
d="M12 1c-6.59961 0 -12 5.40039 -12 12v360c0 6.59961 5.40039 12 12 12h8c6.59961 0 12 -5.40039 12 -12v-158.9c0.900391 1 1.90039 2 3 2.90039l200.5 160.5c20.5996 17.2002 52.5 2.7998 52.5 -24.5996v-118.801l171.5 143.5
c20.5996 17.2002 52.5 2.80078 52.5 -24.5996v-320c0 -27.4004 -31.9004 -41.7998 -52.5 -24.5996l-171.5 142.399v-117.8c0 -27.4004 -31.9004 -41.7998 -52.5 -24.5996l-200.5 159.399c-1.09961 0.900391 -2.09961 1.90039 -3 2.90039v-157.7
c0 -6.59961 -5.40039 -12 -12 -12h-8zM292.5 192.4l0.0996094 -0.100586l0.100586 -0.0996094l187.3 -159.2v320l-187.1 -160.4l-0.200195 -0.0996094zM61 192.8v-0.799805l194.8 -158.8l0.100586 -0.100586l0.0996094 -0.0996094v320l-0.0996094 -0.0996094
l-0.100586 -0.100586z" />
    <glyph glyph-name="backward" unicode="&#xf04a;" 
d="M267.5 166.9c-15.2998 12.6992 -15.2998 36.2998 0 49.0996l192 160.6c20.5996 17.2002 52.5 2.80078 52.5 -24.5996v-319.9c0 -27.3994 -31.9004 -41.7998 -52.5 -24.5996zM288 191.4l192 -159.4v320zM11.5 166.9c-15.2998 12.6992 -15.2998 36.2998 0 49.0996
l192 160.6c20.5996 17.2002 52.5 2.80078 52.5 -24.5996v-319.9c0 -27.3994 -31.9004 -41.7998 -52.5 -24.5996zM32 191.4l192 -159.4v320z" />
    <glyph glyph-name="play" unicode="&#xf04b;" horiz-adv-x="448" 
d="M424.4 233.3c31.5 -18.5 31.3994 -64.0996 0 -82.5996l-352 -208c-31.7002 -18.7998 -72.4004 3.7998 -72.4004 41.2998v416.1c0 41.8008 43.7998 58.2002 72.4004 41.3008zM408.2 178.2c10.3994 6.2002 10.3994 21.3994 -0.100586 27.5996l-352 208.101
c-7.69922 4.59961 -24.0996 2.5 -24.0996 -13.8008v-416.1c0 -12.5996 13.5996 -19.9004 24.2002 -13.7998z" />
    <glyph glyph-name="pause" unicode="&#xf04c;" horiz-adv-x="448" 
d="M48 -31c-26.5 0 -48 21.5 -48 48v352c0 26.5 21.5 48 48 48h96c26.5 0 48 -21.5 48 -48v-352c0 -26.5 -21.5 -48 -48 -48h-96zM32 369v-352c0 -8.7998 7.2002 -16 16 -16h96c8.7998 0 16 7.2002 16 16v352c0 8.7998 -7.2002 16 -16 16h-96c-8.7998 0 -16 -7.2002 -16 -16
zM304 -31c-26.5 0 -48 21.5 -48 48v352c0 26.5 21.5 48 48 48h96c26.5 0 48 -21.5 48 -48v-352c0 -26.5 -21.5 -48 -48 -48h-96zM288 369v-352c0 -8.7998 7.2002 -16 16 -16h96c8.7998 0 16 7.2002 16 16v352c0 8.7998 -7.2002 16 -16 16h-96c-8.7998 0 -16 -7.2002 -16 -16
z" />
    <glyph glyph-name="stop" unicode="&#xf04d;" horiz-adv-x="448" 
d="M400 416c26.5 0 48 -21.5 48 -48v-352c0 -26.5 -21.5 -48 -48 -48h-352c-26.5 0 -48 21.5 -48 48v352c0 26.5 21.5 48 48 48h352zM416 16v352c0 8.7998 -7.2002 16 -16 16h-352c-8.7998 0 -16 -7.2002 -16 -16v-352c0 -8.7998 7.2002 -16 16 -16h352
c8.7998 0 16 7.2002 16 16z" />
    <glyph glyph-name="forward" unicode="&#xf04e;" 
d="M244.5 217.1c15.2998 -12.6992 15.2998 -36.2998 0 -49.1992l-192 -160.5c-20.5996 -17.2002 -52.5 -2.80078 -52.5 24.5996v320c0 27.4004 31.9004 41.7002 52.5 24.5996zM224 192.6l-192 159.4v-320zM500.5 217.1c15.2998 -12.6992 15.2998 -36.2998 0 -49.1992
l-192 -160.5c-20.5996 -17.2002 -52.5 -2.80078 -52.5 24.5996v320c0 27.4004 31.9004 41.7002 52.5 24.5zM480 192.6l-192 159.4v-320z" />
    <glyph glyph-name="fast-forward" unicode="&#xf050;" 
d="M500 385c6.59961 0 12 -5.40039 12 -12v-360c0 -6.59961 -5.40039 -12 -12 -12h-8c-6.59961 0 -12 5.40039 -12 12v158.9c-0.900391 -1 -1.90039 -2 -3 -2.90039l-200.5 -160.6c-20.5996 -17.2002 -52.5 -2.80078 -52.5 24.5996v118.8l-171.5 -143.399
c-20.5996 -17.2002 -52.5 -2.80078 -52.5 24.5996v320c0 27.4004 31.9004 41.7002 52.5 24.5996l171.5 -142.399v117.8c0 27.4004 31.9004 41.7002 52.5 24.5996l200.5 -159.399c1.09961 -0.900391 2.09961 -1.90039 3 -2.90039v157.7c0 6.59961 5.40039 12 12 12h8z
M219.5 193.6l-0.0996094 0.100586l-0.100586 0.0996094l-187.3 159.2v-320l187.1 160.4l0.200195 0.0996094zM451 193.1v0.900391l-194.8 158.8l-0.100586 0.100586l-0.0996094 0.0996094v-320h0.0996094l0.100586 0.0996094z" />
    <glyph glyph-name="step-forward" unicode="&#xf051;" horiz-adv-x="448" 
d="M372 417c6.59961 0 12 -5.40039 12 -12v-424c0 -6.59961 -5.40039 -12 -12 -12h-8c-6.59961 0 -12 5.40039 -12 12v191.4c-1.09961 -1.2002 -2.2002 -2.30078 -3.5 -3.40039l-232 -192.6c-20.5996 -17.2002 -52.5 -2.80078 -52.5 24.5996v384
c0 27.4004 31.9004 41.7002 52.5 24.5l232 -191.4c1.2998 -1 2.40039 -2.19922 3.5 -3.39941v190.3c0 6.59961 5.40039 12 12 12h8zM331.5 193.6l-235.2 191.2l-0.200195 0.100586l-0.0996094 0.0996094v-384l0.0996094 0.0996094l0.100586 0.100586z" />
    <glyph glyph-name="eject" unicode="&#xf052;" horiz-adv-x="448" 
d="M435.322 208.435c28.1973 -30.7607 6.26758 -80.4346 -35.3828 -80.4346h-351.887c-41.7285 0 -63.5273 49.7324 -35.3828 80.4346l175.946 192.008c19.0156 20.7441 51.7529 20.7422 70.7666 0zM399.939 160c13.8691 0 21.1641 16.5889 11.7939 26.8115
l-175.943 192.013c-6.33691 6.91309 -17.2617 6.8916 -23.585 -0.00488281l-175.943 -192.003c-9.37793 -10.2314 -2.0752 -26.8164 11.791 -26.8164h351.887zM448 48v-32c0 -26.5098 -21.4902 -48 -48 -48h-352c-26.5098 0 -48 21.4902 -48 48v32
c0 26.5098 21.4902 48 48 48h352c26.5098 0 48 -21.4902 48 -48zM400 64h-352c-8.82227 0 -16 -7.17773 -16 -16v-32c0 -8.82324 7.17773 -16 16 -16h352c8.82227 0 16 7.17676 16 16v32c0 8.82227 -7.17773 16 -16 16z" />
    <glyph glyph-name="chevron-left" unicode="&#xf053;" horiz-adv-x="256" 
d="M238.475 -27.5352c-4.68555 -4.68652 -12.2832 -4.68652 -16.9697 -0.000976562l-211.051 211.05c-4.68652 4.6875 -4.68652 12.2852 0 16.9717l211.051 211.05c4.68652 4.68555 12.2842 4.68555 16.9697 0l7.07129 -7.07031
c4.68652 -4.68652 4.68652 -12.2852 0 -16.9707l-195.493 -195.494l195.493 -195.494c4.68652 -4.68652 4.68652 -12.2852 0 -16.9707z" />
    <glyph glyph-name="chevron-right" unicode="&#xf054;" horiz-adv-x="256" 
d="M17.5254 411.535c4.68555 4.68652 12.2832 4.68652 16.9697 0l211.051 -211.049c4.68652 -4.6875 4.68652 -12.2852 0 -16.9717l-211.051 -211.05c-4.68652 -4.68555 -12.2842 -4.68555 -16.9697 0l-7.07129 7.07031c-4.68652 4.68652 -4.68652 12.2852 0 16.9707
l195.493 195.494l-195.493 195.494c-4.68652 4.68652 -4.68652 12.2852 0 16.9707z" />
    <glyph glyph-name="plus-circle" unicode="&#xf055;" 
d="M384 198v-12c0 -6.59961 -5.40039 -12 -12 -12h-98v-98c0 -6.59961 -5.40039 -12 -12 -12h-12c-6.59961 0 -12 5.40039 -12 12v98h-98c-6.59961 0 -12 5.40039 -12 12v12c0 6.59961 5.40039 12 12 12h98v98c0 6.59961 5.40039 12 12 12h12c6.59961 0 12 -5.40039 12 -12
v-98h98c6.59961 0 12 -5.40039 12 -12zM504 192c0 -137 -111 -248 -248 -248s-248 111 -248 248s111 248 248 248s248 -111 248 -248zM472 192c0 119.9 -97.2998 216 -216 216c-119.9 0 -216 -97.2998 -216 -216c0 -119.9 97.2998 -216 216 -216
c119.9 0 216 97.2998 216 216z" />
    <glyph glyph-name="minus-circle" unicode="&#xf056;" 
d="M140 174c-6.59961 0 -12 5.40039 -12 12v12c0 6.59961 5.40039 12 12 12h232c6.59961 0 12 -5.40039 12 -12v-12c0 -6.59961 -5.40039 -12 -12 -12h-232zM504 192c0 -137 -111 -248 -248 -248s-248 111 -248 248s111 248 248 248s248 -111 248 -248zM472 192
c0 119.9 -97.2998 216 -216 216c-119.9 0 -216 -97.2998 -216 -216c0 -119.9 97.2998 -216 216 -216c119.9 0 216 97.2998 216 216z" />
    <glyph glyph-name="times-circle" unicode="&#xf057;" 
d="M256 440c137 0 248 -111 248 -248s-111 -248 -248 -248s-248 111 -248 248s111 248 248 248zM256 -24c119.9 0 216 97.2998 216 216c0 119.9 -97.2998 216 -216 216c-119.9 0 -216 -97.2998 -216 -216c0 -119.9 97.2998 -216 216 -216zM350.8 261.3l-69.2998 -69.2998
l69.2998 -69.2998c4.7002 -4.7002 4.7002 -12.2998 0 -17l-8.5 -8.5c-4.7002 -4.7002 -12.2998 -4.7002 -17 0l-69.2998 69.2998l-69.2998 -69.2998c-4.7002 -4.7002 -12.2998 -4.7002 -17 0l-8.5 8.5c-4.7002 4.7002 -4.7002 12.2998 0 17l69.2998 69.2998
l-69.2998 69.2998c-4.7002 4.7002 -4.7002 12.2998 0 17l8.5 8.5c4.7002 4.7002 12.2998 4.7002 17 0l69.2998 -69.2998l69.2998 69.2998c4.7002 4.7002 12.2998 4.7002 17 0l8.5 -8.5c4.60059 -4.7002 4.60059 -12.2998 0 -17z" />
    <glyph glyph-name="check-circle" unicode="&#xf058;" 
d="M256 440c136.967 0 248 -111.033 248 -248s-111.033 -248 -248 -248s-248 111.033 -248 248s111.033 248 248 248zM256 -24c119.945 0 216 97.3369 216 216c0 119.945 -97.3359 216 -216 216c-119.945 0 -216 -97.3369 -216 -216c0 -119.945 97.3359 -216 216 -216z
M397.63 250.961l-180.479 -179.032c-4.70508 -4.66699 -12.3037 -4.63672 -16.9707 0.0683594l-85.8779 86.5723c-4.66699 4.70508 -4.63672 12.3027 0.0683594 16.9697l8.51953 8.45117c4.70508 4.66699 12.3037 4.63672 16.9707 -0.0683594l68.9756 -69.5332
l163.441 162.13c4.70508 4.66699 12.3027 4.6377 16.9697 -0.0673828l8.45117 -8.52051c4.66797 -4.70508 4.63672 -12.3027 -0.0683594 -16.9697z" />
    <glyph glyph-name="question-circle" unicode="&#xf059;" 
d="M256 108c15.4639 0 28 -12.5361 28 -28s-12.5361 -28 -28 -28s-28 12.5361 -28 28s12.5361 28 28 28zM263.67 132h-16c-6.62695 0 -12 5.37305 -12 12v0.380859c0 70.3428 77.4404 63.6191 77.4404 107.408c0 20.0156 -17.7617 40.2109 -57.4404 40.2109
c-29.1436 0 -44.2646 -9.64941 -59.2109 -28.6924c-3.9082 -4.97949 -11.0537 -5.99414 -16.248 -2.37598l-13.1338 9.15039c-5.625 3.91895 -6.86035 11.7705 -2.64551 17.1768c21.2266 27.2275 46.4102 44.7412 91.2383 44.7412
c52.3203 0 97.4404 -29.751 97.4404 -80.2109c0 -67.4141 -77.4404 -63.8486 -77.4404 -107.408v-0.380859c0 -6.62695 -5.37305 -12 -12 -12zM256 408c-119.398 0 -216 -96.7969 -216 -216c0 -119.438 96.7559 -216 216 -216c119.39 0 216 96.709 216 216
c0 119.925 -97.3789 216 -216 216zM256 440c136.957 0 248 -111.083 248 -248c0 -136.997 -111.043 -248 -248 -248s-248 111.003 -248 248c0 136.917 111.043 248 248 248z" />
    <glyph glyph-name="info-circle" unicode="&#xf05a;" 
d="M256 408c-119.398 0 -216 -96.7969 -216 -216c0 -119.438 96.7559 -216 216 -216c119.39 0 216 96.709 216 216c0 119.925 -97.3789 216 -216 216zM256 440c136.957 0 248 -111.083 248 -248c0 -136.997 -111.043 -248 -248 -248s-248 111.003 -248 248
c0 136.917 111.043 248 248 248zM220 96h12v120h-12c-6.62695 0 -12 5.37305 -12 12v8c0 6.62695 5.37305 12 12 12h48c6.62695 0 12 -5.37305 12 -12v-140h12c6.62695 0 12 -5.37305 12 -12v-8c0 -6.62695 -5.37305 -12 -12 -12h-72c-6.62695 0 -12 5.37305 -12 12v8
c0 6.62695 5.37305 12 12 12zM256 336c17.6729 0 32 -14.3271 32 -32s-14.3271 -32 -32 -32s-32 14.3271 -32 32s14.3271 32 32 32z" />
    <glyph glyph-name="crosshairs" unicode="&#xf05b;" 
d="M506 208c3.31152 0 6 -2.68848 6 -6v-20c0 -3.31152 -2.68848 -6 -6 -6h-34.5908c-7.80078 -106.538 -92.8711 -191.608 -199.409 -199.409v-34.5908c0 -3.31152 -2.68848 -6 -6 -6h-20c-3.31152 0 -6 2.68848 -6 6v34.5908
c-106.538 7.80078 -191.608 92.8711 -199.409 199.409h-34.5908c-3.31152 0 -6 2.68848 -6 6v20c0 3.31152 2.68848 6 6 6h34.5908c7.80078 106.538 92.8711 191.608 199.409 199.409v34.5908c0 3.31152 2.68848 6 6 6h20c3.31152 0 6 -2.68848 6 -6v-34.5908
c106.538 -7.80078 191.608 -92.8711 199.409 -199.409h34.5908zM272 8.69531c89.0312 7.62109 159.711 78.5869 167.305 167.305h-65.3047c-3.31152 0 -6 2.68848 -6 6v20c0 3.31152 2.68848 6 6 6h65.3047c-7.62012 89.0312 -78.5869 159.711 -167.305 167.305v-65.3047
c0 -3.31152 -2.68848 -6 -6 -6h-20c-3.31152 0 -6 2.68848 -6 6v65.3047c-89.0312 -7.62109 -159.711 -78.5869 -167.305 -167.305h65.3047c3.31152 0 6 -2.68848 6 -6v-20c0 -3.31152 -2.68848 -6 -6 -6h-65.3047c7.62012 -89.0312 78.5869 -159.711 167.305 -167.305
v65.3047c0 3.31152 2.68848 6 6 6h20c3.31152 0 6 -2.68848 6 -6v-65.3047zM280 192c0 -13.2549 -10.7451 -24 -24 -24s-24 10.7451 -24 24s10.7451 24 24 24s24 -10.7451 24 -24z" />
    <glyph glyph-name="ban" unicode="&#xf05e;" 
d="M256 440c136.967 0 248 -111.033 248 -248s-111.033 -248 -248 -248s-248 111.033 -248 248s111.033 248 248 248zM103.265 39.2646c80.6064 -80.6055 208.94 -84.1641 293.744 -10.8994l-304.644 304.643c-73.249 -84.7861 -69.7227 -213.121 10.8994 -293.743z
M419.635 50.9922c73.249 84.7861 69.7227 213.122 -10.8994 293.743c-80.6064 80.6045 -208.939 84.1631 -293.743 10.8994z" />
    <glyph glyph-name="arrow-left" unicode="&#xf060;" horiz-adv-x="448" 
d="M231.536 -27.5352c-4.68652 -4.68652 -12.2842 -4.68652 -16.9697 -0.000976562l-211.052 211.05c-4.68555 4.6875 -4.68555 12.2852 0 16.9717l211.052 211.05c4.68555 4.68555 12.2832 4.68555 16.9697 0l7.07129 -7.07031
c4.68555 -4.68652 4.68555 -12.2852 0 -16.9707l-178.494 -178.494h375.887c6.62695 0 12 -5.37305 12 -12v-10c0 -6.62695 -5.37305 -12 -12 -12h-375.887l178.494 -178.494c4.68555 -4.68652 4.68555 -12.2852 0 -16.9707z" />
    <glyph glyph-name="arrow-right" unicode="&#xf061;" horiz-adv-x="448" 
d="M216.464 411.535c4.68652 4.68652 12.2842 4.68652 16.9697 0l211.052 -211.049c4.68555 -4.6875 4.68555 -12.2852 0 -16.9717l-211.052 -211.05c-4.68555 -4.68555 -12.2832 -4.68555 -16.9697 0l-7.07129 7.07031c-4.68555 4.68652 -4.68555 12.2852 0 16.9707
l178.494 178.494h-375.887c-6.62695 0 -12 5.37305 -12 12v10c0 6.62695 5.37305 12 12 12h375.887l-178.494 178.494c-4.68555 4.68652 -4.68555 12.2852 0 16.9707z" />
    <glyph glyph-name="arrow-up" unicode="&#xf062;" horiz-adv-x="448" 
d="M4.46484 184.464c-4.68652 4.68652 -4.68652 12.2842 0 16.9697l211.049 211.052c4.6875 4.68555 12.2852 4.68555 16.9717 0l211.05 -211.051c4.68555 -4.68555 4.68555 -12.2832 0 -16.9697l-7.07031 -7.07129c-4.68652 -4.68555 -12.2852 -4.68555 -16.9707 0
l-178.494 178.493v-375.887c0 -6.62695 -5.37305 -12 -12 -12h-10c-6.62695 0 -12 5.37305 -12 12v375.887l-178.494 -178.494c-4.68652 -4.68555 -12.2852 -4.68555 -16.9707 0z" />
    <glyph glyph-name="arrow-down" unicode="&#xf063;" horiz-adv-x="448" 
d="M443.5 199.5c4.7002 -4.7002 4.7002 -12.2002 -0.0996094 -17l-211 -211.1c-4.7002 -4.7002 -12.3008 -4.7002 -17 0l-211 211.1c-4.7002 4.7002 -4.7002 12.2998 0 17l7.09961 7.09961c4.7002 4.7002 12.2998 4.7002 17 0l178.5 -178.5v375.9
c0 6.59961 5.40039 12 12 12h10c6.59961 0 12 -5.40039 12 -12v-375.9l178.4 178.5c4.69922 4.7002 12.2998 4.7002 17 0z" />
    <glyph glyph-name="share" unicode="&#xf064;" horiz-adv-x="576" 
d="M564.907 251.65c14.791 -15.4707 14.791 -39.8301 0.000976562 -55.3008l-175.998 -184c-24.7197 -25.8438 -68.9102 -8.58887 -68.9102 27.6504v87.8398c-154.425 -1.81152 -219.063 -16.7266 -181.19 -151.091c8.3418 -29.5176 -25.4463 -52.2324 -49.6797 -34.5098
c-33.29 24.3398 -89.1299 79.5908 -89.1299 174.57c0 171.088 154.548 201.035 320 203.021v88.1543c0 36.2695 44.2158 53.4658 68.9102 27.6494zM541.78 218.47c1.22949 1.2793 2.22754 3.75586 2.22754 5.53027s-0.998047 4.25098 -2.22754 5.53027l-176 184
c-4.92969 5.16016 -13.7803 1.73145 -13.7803 -5.53027v-120c-157.114 0 -320 -11.1797 -320 -171.19c0 -74.3994 40 -122.17 76.0195 -148.51c-51.333 181.993 72.584 191.7 243.98 191.7v-120c0 -7.25977 8.84668 -10.6904 13.7803 -5.53027z" />
    <glyph glyph-name="expand" unicode="&#xf065;" horiz-adv-x="448" 
d="M0 268v124c0 13.2998 10.7002 24 24 24h124c6.59961 0 12 -5.40039 12 -12v-8c0 -6.59961 -5.40039 -12 -12 -12h-116v-116c0 -6.59961 -5.40039 -12 -12 -12h-8c-6.59961 0 -12 5.40039 -12 12zM300 416h124c13.2998 0 24 -10.7002 24 -24v-124
c0 -6.59961 -5.40039 -12 -12 -12h-8c-6.59961 0 -12 5.40039 -12 12v116h-116c-6.59961 0 -12 5.40039 -12 12v8c0 6.59961 5.40039 12 12 12zM448 116v-124c0 -13.2998 -10.7002 -24 -24 -24h-124c-6.59961 0 -12 5.40039 -12 12v8c0 6.59961 5.40039 12 12 12h116v116
c0 6.59961 5.40039 12 12 12h8c6.59961 0 12 -5.40039 12 -12zM148 -32h-124c-13.2998 0 -24 10.7002 -24 24v124c0 6.59961 5.40039 12 12 12h8c6.59961 0 12 -5.40039 12 -12v-116h116c6.59961 0 12 -5.40039 12 -12v-8c0 -6.59961 -5.40039 -12 -12 -12z" />
    <glyph glyph-name="compress" unicode="&#xf066;" horiz-adv-x="448" 
d="M436 256h-124c-13.2998 0 -24 10.7002 -24 24v124c0 6.59961 5.40039 12 12 12h8c6.59961 0 12 -5.40039 12 -12v-116h116c6.59961 0 12 -5.40039 12 -12v-8c0 -6.59961 -5.40039 -12 -12 -12zM160 280c0 -13.2998 -10.7002 -24 -24 -24h-124
c-6.59961 0 -12 5.40039 -12 12v8c0 6.59961 5.40039 12 12 12h116v116c0 6.59961 5.40039 12 12 12h8c6.59961 0 12 -5.40039 12 -12v-124zM160 -20c0 -6.59961 -5.40039 -12 -12 -12h-8c-6.59961 0 -12 5.40039 -12 12v116h-116c-6.59961 0 -12 5.40039 -12 12v8
c0 6.59961 5.40039 12 12 12h124c13.2998 0 24 -10.7002 24 -24v-124zM320 -20c0 -6.59961 -5.40039 -12 -12 -12h-8c-6.59961 0 -12 5.40039 -12 12v124c0 13.2998 10.7002 24 24 24h124c6.59961 0 12 -5.40039 12 -12v-8c0 -6.59961 -5.40039 -12 -12 -12h-116v-116z" />
    <glyph glyph-name="minus" unicode="&#xf068;" horiz-adv-x="384" 
d="M376 216c4.41992 0 8 -3.58008 8 -8v-32c0 -4.41992 -3.58008 -8 -8 -8h-368c-4.41992 0 -8 3.58008 -8 8v32c0 4.41992 3.58008 8 8 8h368z" />
    <glyph glyph-name="asterisk" unicode="&#xf069;" 
d="M475.31 83.8564c5.73926 -3.31348 7.70605 -10.6523 4.39258 -16.3926l-4 -6.92773c-3.31348 -5.73926 -10.6523 -7.70605 -16.3926 -4.39258l-187.31 108.144v-216.287c0 -6.62695 -5.37305 -12 -12 -12h-8c-6.62695 0 -12 5.37305 -12 12v216.287l-187.31 -108.144
c-5.73926 -3.31348 -13.0781 -1.34766 -16.3926 4.39258l-4 6.92773c-3.31348 5.73926 -1.34766 13.0781 4.39258 16.3926l187.31 108.144l-187.31 108.144c-5.73926 3.31348 -7.70605 10.6523 -4.39258 16.3926l4 6.92773c3.31348 5.73926 10.6523 7.70605 16.3926 4.39258
l187.31 -108.144v216.287c0 6.62695 5.37305 12 12 12h8c6.62695 0 12 -5.37305 12 -12v-216.287l187.31 108.144c5.73926 3.31348 13.0781 1.34766 16.3926 -4.39258l4 -6.92773c3.31348 -5.73926 1.34766 -13.0781 -4.39258 -16.3926l-187.31 -108.144z" />
    <glyph glyph-name="exclamation-circle" unicode="&#xf06a;" 
d="M256 408c-119.398 0 -216 -96.7969 -216 -216c0 -119.438 96.7559 -216 216 -216c119.39 0 216 96.709 216 216c0 119.925 -97.3789 216 -216 216zM256 440c136.957 0 248 -111.083 248 -248c0 -136.997 -111.043 -248 -248 -248s-248 111.003 -248 248
c0 136.917 111.043 248 248 248zM244.51 320h22.9795c6.82227 0 12.2734 -5.68164 11.9893 -12.5l-7 -168c-0.267578 -6.42773 -5.55566 -11.5 -11.9893 -11.5h-8.97949c-6.43262 0 -11.7217 5.07324 -11.9902 11.5l-7 168c-0.282227 6.81836 5.16699 12.5 11.9902 12.5z
M256 108c15.4639 0 28 -12.5361 28 -28s-12.5361 -28 -28 -28s-28 12.5361 -28 28s12.5361 28 28 28z" />
    <glyph glyph-name="random" unicode="&#xf074;" 
d="M0 320v8c0 6.59961 5.40039 12 12 12h105.8c3.2998 0 6.5 -1.40039 8.7998 -3.90039l89.7002 -97l-21.7998 -23.5996l-85.5 92.5h-97c-6.59961 0 -12 5.40039 -12 12zM502.6 41.4004l-64 -64c-20.0996 -20.1006 -54.5996 -5.80078 -54.5996 22.5996v44h-25.7002
c-3.2998 0 -6.5 1.40039 -8.7998 3.90039l-89.7002 97l21.7998 23.5996l85.4004 -92.5h17v52c0 28.5 34.5 42.7002 54.5996 22.5996l64 -64c12.5 -12.5 12.5 -32.6992 0 -45.1992zM482.8 66.7998l-64 64c-2.5 2.5 -6.7998 0.700195 -6.7998 -2.7998v-128
c0 -3.59961 4.2998 -5.40039 6.7998 -2.7998l64 64c1.60059 1.5 1.60059 4.09961 0 5.59961zM502.6 297.4l-64 -64c-20.0996 -20.1006 -54.5996 -5.80078 -54.5996 22.5996v52h-17l-240.4 -260.1c-2.2998 -2.5 -5.5 -3.90039 -8.7998 -3.90039h-105.8
c-6.59961 0 -12 5.40039 -12 12v8c0 6.59961 5.40039 12 12 12h97l240.4 260.1c2.2998 2.5 5.5 3.90039 8.7998 3.90039h25.7998v44c0 28.5 34.5 42.7002 54.5996 22.5996l64 -64c12.5 -12.5 12.5 -32.6992 0 -45.1992zM482.8 322.8l-64 64
c-2.5 2.5 -6.7998 0.700195 -6.7998 -2.7998v-128c0 -3.59961 4.2998 -5.40039 6.7998 -2.7998l64 64c1.60059 1.5 1.60059 4.09961 0 5.59961z" />
    <glyph glyph-name="chevron-up" unicode="&#xf077;" horiz-adv-x="448" 
d="M4.46484 81.5254c-4.68652 4.68555 -4.68652 12.2832 0 16.9697l211.049 211.051c4.6875 4.68652 12.2852 4.68652 16.9717 0l211.05 -211.051c4.68555 -4.68652 4.68555 -12.2842 0 -16.9697l-7.07031 -7.07129c-4.68652 -4.68652 -12.2852 -4.68652 -16.9707 0
l-195.494 195.493l-195.494 -195.493c-4.68652 -4.68652 -12.2852 -4.68652 -16.9707 0z" />
    <glyph glyph-name="chevron-down" unicode="&#xf078;" horiz-adv-x="448" 
d="M443.5 285.4c4.7002 -4.7002 4.7002 -12.3008 -0.0996094 -17l-211 -211.101c-4.7002 -4.7002 -12.3008 -4.7002 -17 0l-211 211.101c-4.7002 4.69922 -4.7002 12.2998 0 17l7.09961 7.09961c4.7002 4.7002 12.2998 4.7002 17 0l195.5 -195.5l195.4 195.5
c4.69922 4.7002 12.2998 4.7002 17 0z" />
    <glyph glyph-name="retweet" unicode="&#xf079;" horiz-adv-x="640" 
d="M634.828 84.2012l-98.3428 -98.3428c-4.68652 -4.68652 -12.2842 -4.68652 -16.9717 0l-98.3428 98.3428c-4.68555 4.68555 -4.68555 12.2842 0 16.9707l5.65625 5.65625c4.68555 4.68555 12.2842 4.68555 16.9707 0l68.2021 -68.2002v281.372h-251.976h-0.00195312
c-2.74316 0 -6.54395 1.5752 -8.4834 3.51465l-8 8c-7.56055 7.56055 -2.20605 20.4854 8.48535 20.4854h267.976c13.2549 0 24 -10.7451 24 -24v-289.372l68.2012 68.2012c4.68555 4.68555 12.2842 4.68555 16.9707 0l5.65625 -5.65625
c4.68555 -4.68652 4.68555 -12.2852 0 -16.9717zM388.461 60.4854l8 -8c7.56055 -7.55957 2.20605 -20.4854 -8.48535 -20.4854h-267.976c-13.2549 0 -24 10.7451 -24 24v289.372l-68.2012 -68.2012c-4.68555 -4.68555 -12.2842 -4.68555 -16.9697 0l-5.65723 5.65723
c-4.68555 4.68555 -4.68555 12.2852 0 16.9707l98.3418 98.3438c4.6875 4.68652 12.2852 4.68652 16.9717 0l98.3428 -98.3428c4.68652 -4.68652 4.68555 -12.2852 0 -16.9707l-5.65723 -5.65723c-4.68555 -4.68555 -12.2842 -4.68555 -16.9697 0l-68.2012 68.2002v-281.372
h251.976c2.74414 0 6.54492 -1.5752 8.48535 -3.51465z" />
    <glyph glyph-name="shopping-cart" unicode="&#xf07a;" horiz-adv-x="576" 
d="M551.991 384c15.2236 0 26.6006 -13.9912 23.4971 -28.8945l-43.3311 -208c-2.31934 -11.1299 -12.1279 -19.1055 -23.4961 -19.1055h-331.381l12 -64h296.048c11.4316 0 20.6943 -7.89062 23.2852 -18.1318c11.9531 -11.6279 19.3877 -27.875 19.3877 -45.8682
c0 -35.3457 -28.6543 -64 -64 -64s-64 28.6543 -64 64v0.0703125c0 9.44922 3.84473 23.7539 8.58301 31.9297h-145.167c4.73828 -8.17578 8.58301 -22.4805 8.58301 -31.9297v-0.0703125c0 -35.3457 -28.6543 -64 -64 -64s-64 28.6543 -64 64
c0 16.5801 6.30469 31.6855 16.6475 43.0537l-69.9277 372.946h-78.7197c-6.62695 0 -12 5.37305 -12 12v8c0 6.62695 5.37305 12 12 12h85.3623c11.5488 0 21.46 -8.22559 23.5889 -19.5771l8.3291 -44.4229h422.711zM240 0c0 17.6445 -14.3555 32 -32 32
s-32 -14.3555 -32 -32s14.3555 -32 32 -32s32 14.3555 32 32zM464 -32c17.6445 0 32 14.3555 32 32s-14.3555 32 -32 32s-32 -14.3555 -32 -32s14.3555 -32 32 -32zM502.156 160l40 192h-406.876l36 -192h330.876z" />
    <glyph glyph-name="folder-open" unicode="&#xf07c;" horiz-adv-x="576" 
d="M527.95 224c37.335 0 60.29 -40.8115 41.1592 -72.6963l-67.4531 -112.464c-14.4639 -24.1064 -40.5312 -38.8398 -68.5996 -38.8398h-385.057c-26.5098 0 -48 21.4902 -48 48v288c0 26.5098 21.4902 48 48 48h160l64 -64h160c26.5098 0 48 -21.4902 48 -48v-48h47.9502z
M48 352c-8.83691 0 -16 -7.16309 -16 -16v-268.47l70.5781 117.63c14.4639 24.1064 40.5312 38.8398 68.5986 38.8398h276.823v48c0 8.83691 -7.16309 16 -16 16h-173.255l-64 64h-146.745zM541.695 167.768c6.39844 10.6641 -1.2832 24.2324 -13.7207 24.2324h-359.975v0
c-15.002 0 -33.4414 -10.4404 -41.1602 -23.3037l-82.0166 -136.696h388.233h0.00195312c15.001 0 33.4395 10.4404 41.1572 23.3037z" />
    <glyph glyph-name="arrows-v" unicode="&#xf07d;" horiz-adv-x="192" 
d="M181.415 48.041l7.07129 -7.07031c4.68555 -4.68555 4.68555 -12.2842 0 -16.9697l-84 -84.4854c-4.6875 -4.68652 -12.2852 -4.68652 -16.9717 0l-84 84.4854c-4.68555 4.68555 -4.68555 12.2842 0 16.9697l7.07031 7.07129c4.6875 4.68555 12.2852 4.68555 16.9707 0
l51.4443 -51.9277v391.772l-51.4443 -51.9277c-4.68652 -4.68555 -12.2842 -4.68555 -16.9707 0l-7.07031 7.07129c-4.68555 4.68555 -4.68555 12.2842 0 16.9697l83.999 84.4854c4.6875 4.68555 12.2852 4.68555 16.9717 0l84 -84.4854
c4.68555 -4.68555 4.68555 -12.2842 0 -16.9697l-7.07031 -7.07129c-4.6875 -4.68555 -12.2852 -4.68555 -16.9707 0l-51.4443 51.9277v-391.773l51.4443 51.9277c4.68652 4.68555 12.2842 4.68555 16.9707 0z" />
    <glyph glyph-name="arrows-h" unicode="&#xf07e;" 
d="M399.959 277.415l7.07031 7.07129c4.68555 4.68555 12.2842 4.68555 16.9697 0l84.4854 -84c4.68652 -4.6875 4.68652 -12.2852 0 -16.9717l-84.4854 -84c-4.68555 -4.68555 -12.2842 -4.68555 -16.9697 0l-7.07129 7.07031c-4.68555 4.6875 -4.68555 12.2852 0 16.9707
l51.9277 51.4443h-391.772l51.9277 -51.4453c4.68555 -4.68652 4.68555 -12.2852 0 -16.9707l-7.07129 -7.07031c-4.68555 -4.68555 -12.2842 -4.68555 -16.9697 0l-84.4854 84c-4.68555 4.6875 -4.68555 12.2852 0 16.9717l84.4854 84
c4.68555 4.68555 12.2842 4.68555 16.9697 0l7.07129 -7.07031c4.68555 -4.6875 4.68555 -12.2852 0 -16.9707l-51.9277 -51.4443h391.773l-51.9277 51.4443c-4.68555 4.68652 -4.68555 12.2842 0 16.9707z" />
    <glyph glyph-name="camera-retro" unicode="&#xf083;" 
d="M32 390v20c0 3.2998 2.7002 6 6 6h116c3.2998 0 6 -2.7002 6 -6v-20c0 -3.2998 -2.7002 -6 -6 -6h-116c-3.2998 0 -6 2.7002 -6 6zM376 160c0 -66.2002 -53.7998 -120 -120 -120s-120 53.7998 -120 120s53.7998 120 120 120s120 -53.7998 120 -120zM344 160
c0 48.5 -39.5 88 -88 88s-88 -39.5 -88 -88s39.5 -88 88 -88s88 39.5 88 88zM224 160c0 -8.7998 -7.2002 -16 -16 -16s-16 7.2002 -16 16c0 35.2998 28.7002 64 64 64c8.7998 0 16 -7.2002 16 -16s-7.2002 -16 -16 -16c-17.5996 0 -32 -14.4004 -32 -32zM512 368v-352
c0 -26.5 -21.5 -48 -48 -48h-416c-26.5 0 -48 21.5 -48 48v288c0 26.5 21.5 48 48 48h136l33.5996 44.7998c9.10059 12.1006 23.3008 19.2002 38.4004 19.2002h208c26.5 0 48 -21.5 48 -48zM224 352h240c5.59961 0 11 -1 16 -2.7002v18.7002c0 8.7998 -7.2002 16 -16 16
h-208c-5 0 -9.7998 -2.40039 -12.7998 -6.40039zM480 304c0 8.7998 -7.2002 16 -16 16h-416c-8.7998 0 -16 -7.2002 -16 -16v-288c0 -8.7998 7.2002 -16 16 -16h416c8.7998 0 16 7.2002 16 16v288z" />
    <glyph glyph-name="key" unicode="&#xf084;" 
d="M336 416c-79.5293 0 -144 -64.4707 -144 -144c0 -18.9678 3.6748 -37.0762 10.3389 -53.6611l-170.339 -170.339v-80h96v64h64v64h48l42.3389 42.3389c16.585 -6.66406 34.6934 -10.3389 53.6611 -10.3389c79.5293 0 144 64.4707 144 144s-64.4707 144 -144 144zM336 448
c97.2314 0 176 -78.8164 176 -176c0 -97.2314 -78.8164 -176 -176 -176c-15.3066 0 -30.3516 1.94531 -44.9463 5.79785l-30.7686 -30.7686c-4.50098 -4.5 -10.6064 -7.0293 -16.9707 -7.0293h-19.3145v-40c0 -13.2549 -10.7451 -24 -24 -24h-40v-40
c0 -13.2549 -10.7451 -24 -24 -24h-112c-13.2549 0 -24 10.7451 -24 24v91.3145c0 5.48633 3.14941 13.0889 7.0293 16.9697l158.769 158.769c-3.85254 14.5957 -5.79785 29.6406 -5.79785 44.9473c0 97.2314 78.8164 176 176 176zM384 340c-11.0283 0 -20 -8.97168 -20 -20
s8.97168 -20 20 -20s20 8.97168 20 20s-8.97168 20 -20 20zM384 368c26.5098 0 48 -21.4902 48 -48s-21.4902 -48 -48 -48s-48 21.4902 -48 48s21.4902 48 48 48z" />
    <glyph glyph-name="cogs" unicode="&#xf085;" horiz-adv-x="640" 
d="M538.6 251.6l-2.5 3.90039c-4.09961 -0.299805 -8.09961 -0.299805 -12.1992 0l-2.5 -4c-5.80078 -9.2002 -17.1006 -13.4004 -27.5 -10.0996c-13.8008 4.2998 -23 8.7998 -34.3008 18.0996c-9 7.40039 -11.1992 20.2998 -5.39941 30.4004l2.5 4.2998
c-2.2998 3.39941 -4.2998 6.89941 -6.10059 10.5996h-9.09961c-11.5996 0 -21.4004 8.2002 -23.5996 19.6006c-2.60059 13.6992 -2.7002 24.1992 0.0996094 38.5c2.09961 11.2998 12.0996 19.5 23.5996 19.5h9c1.80078 3.69922 3.80078 7.19922 6.10059 10.5996
l-2.60059 4.5c-5.7998 10 -3.59961 22.7002 5.2002 30.2998c10.6006 9.10059 19.7002 14.2998 33.5 19c10.7998 3.7002 22.7002 -0.700195 28.5 -10.5996l2.60059 -4.40039c4.09961 0.299805 8.09961 0.299805 12.1992 0l2.60059 4.40039
c5.7998 9.89941 17.7002 14.2998 28.5996 10.5c13.2998 -4.5 22.2998 -9.60059 33.5 -19.1006c8.7998 -7.5 10.9004 -20.1992 5.10059 -30.1992l-2.60059 -4.40039c2.2998 -3.40039 4.2998 -6.90039 6.10059 -10.5996h5.09961c11.5996 0 21.4004 -8.2002 23.5996 -19.6006
c2.60059 -13.7002 2.7002 -24.2002 -0.0996094 -38.5c-2.09961 -11.2998 -12.0996 -19.5 -23.5996 -19.5h-5c-1.80078 -3.7002 -3.80078 -7.2002 -6.10059 -10.5996l2.5 -4.2998c5.90039 -10.2002 3.5 -23.1006 -5.5 -30.5
c-10.7002 -8.80078 -19.8994 -13.4004 -34 -17.9004c-10.5 -3.2998 -21.8994 0.799805 -27.7002 10.0996zM550.8 286.1l10.6006 -18.2998c6.69922 2.7998 12.8994 6.40039 18.6992 10.7998l-10.5996 18.3008l6.40039 7.5c4.7998 5.69922 8.59961 12.0996 11 19.0996
l3.2998 9.2998h21.0996c0.900391 7.10059 0.900391 14.4004 0 21.5h-21.0996l-3.2998 9.2998c-2.5 7 -6.2002 13.4004 -11 19.1006l-6.40039 7.5l10.5 18.3994c-5.7002 4.40039 -12 8 -18.7002 10.8008l-10.5996 -18.3008l-9.7002 1.80078
c-7.2998 1.39941 -14.7998 1.39941 -22.0996 0l-9.7002 -1.80078l-10.6006 18.3008c-6.59961 -2.7002 -12.8994 -6.40039 -18.5996 -10.8008l10.5996 -18.2998l-6.39941 -7.5c-4.7998 -5.7002 -8.60059 -12.0996 -11 -19.0996l-3.2998 -9.2998h-21.1006
c-0.899414 -7.10059 -0.899414 -14.4004 0 -21.5h21.1006l3.2998 -9.30078c2.5 -7 6.2002 -13.3994 11 -19.0996l6.39941 -7.5l-10.5996 -18.4004c5.7002 -4.39941 12 -8 18.7002 -10.7998l10.5996 18.2998l9.7002 -1.7998c7.2998 -1.39941 14.7998 -1.39941 22.0996 0z
M145.3 -6.40039v31.6006c-12.8994 5.5 -25.0996 12.5996 -36.3994 21.0996l-27.5 -15.8994c-9.80078 -5.60059 -22.1006 -3.7002 -29.7002 4.59961c-24.2002 26.2998 -38.5 49.5 -50.6006 88.0996c-3.39941 10.7002 1.10059 22.3008 10.8008 28l27.2998 15.9004
c-1.7002 14 -1.7002 28.0996 0 42.0996l-27.2998 15.8008c-9.7002 5.59961 -14.2002 17.2998 -10.8008 28c12.1006 38.3994 26.2002 61.5996 50.6006 88.0996c7.59961 8.2998 20 10.2002 29.7002 4.59961l27.3994 -15.8994c11.2998 8.5 23.5 15.5 36.4004 21.0996v31.6006
c0 11.2998 7.7998 21 18.7998 23.3994c34.7002 7.7998 62 8.7002 101.7 0c11 -2.39941 18.8994 -12.2002 18.8994 -23.3994v-31.6006c12.9004 -5.5 25.1006 -12.5996 36.4004 -21l27.4004 15.7998c9.7998 5.60059 22.1992 3.7002 29.7998 -4.59961
c26.8994 -29.5996 41.5 -55.9004 52.0996 -88.5c3.40039 -10.5 -0.799805 -21.9004 -10.2002 -27.7002l-25 -15.7998c1.7002 -14 1.7002 -28.0996 0 -42.0996l28.1006 -17.5c8.59961 -5.40039 13 -15.6006 10.7998 -25.5c-6.90039 -31.3008 -33 -64.6006 -55.9004 -89.2002
c-7.59961 -8.2002 -19.8994 -10 -29.5996 -4.40039l-27.5 15.9004c-11.2998 -8.5 -23.5 -15.5 -36.4004 -21.1006v-31.5996c0 -11.2002 -7.7998 -21 -18.7998 -23.4004c-37.5 -8.2998 -64.8994 -8.19922 -101.899 0c-10.8008 2.5 -18.6006 12.3008 -18.6006 23.5z
M177.3 -0.200195c24.7998 -5 50.5 -5 75.2998 0v47.7002l10.7002 3.7998c16.7998 5.90039 32.2998 14.9004 45.9004 26.5l8.59961 7.40039l41.4004 -23.9004c16.7998 19.1006 34 41.2998 42.0996 65.2002l-41.3994 23.9004l2.09961 11.0996
c3.2002 17.5996 3.2002 35.5 0 53.0996l-2.09961 11.1006l41.3994 23.8994c-8.09961 23.9004 -25.2998 46.2002 -42.0996 65.2002l-41.4004 -23.8994l-8.59961 7.39941c-13.6006 11.7002 -29 20.6006 -45.9004 26.5l-10.7002 3.7998v47.6006c-24.7998 5 -50.5 5 -75.2998 0
v-47.7002l-10.7002 -3.7998c-16.7998 -5.90039 -32.2998 -14.9004 -45.8994 -26.5l-8.60059 -7.40039l-41.3994 23.9004c-14.001 -15.916 -30.8906 -45.126 -37.7002 -65.2002l41.4004 -23.9004l-2.10059 -11.0996c-3.2002 -17.5996 -3.2002 -35.5 0 -53.0996
l2.10059 -11.1006l-41.4004 -23.8994c8.09961 -23.9004 20.9004 -46.2002 37.7002 -65.2002l41.3994 23.8994l8.60059 -7.39941c13.5996 -11.7002 29 -20.6006 45.8994 -26.5l10.7002 -3.7998v-47.6006zM215.7 105.1c-45.7002 0 -82.9004 37.2002 -82.9004 82.9004
s37.2002 82.9004 82.9004 82.9004s82.8994 -37.2002 82.8994 -82.9004s-37.1992 -82.9004 -82.8994 -82.9004zM215.7 238.9c-28 0 -50.9004 -22.8008 -50.9004 -50.9004s22.7998 -50.9004 50.9004 -50.9004c28 0 50.8994 22.8008 50.8994 50.9004
s-22.7998 50.9004 -50.8994 50.9004zM538.6 -52.7998l-2.5 3.89941c-4.09961 -0.299805 -8.09961 -0.299805 -12.1992 0l-2.5 -4c-5.80078 -9.19922 -17.1006 -13.3994 -27.5 -10.0996c-13.8008 4.2998 -23 8.7998 -34.3008 18.0996
c-9 7.40039 -11.1992 20.3008 -5.39941 30.4004l2.5 4.2998c-2.2998 3.40039 -4.2998 6.90039 -6.10059 10.6006h-9.09961c-11.5996 0 -21.4004 8.19922 -23.5996 19.5996c-2.60059 13.7002 -2.7002 24.2002 0.0996094 38.5c2.09961 11.2998 12.0996 19.5 23.5996 19.5h9
c1.80078 3.7002 3.80078 7.2002 6.10059 10.5996l-2.60059 4.5c-5.7998 10 -3.59961 22.7002 5.2002 30.3008c10.6006 9.09961 19.7002 14.2998 33.5 19c10.7998 3.69922 22.7002 -0.700195 28.5 -10.6006l2.60059 -4.39941c4.09961 0.299805 8.09961 0.299805 12.1992 0
l2.60059 4.39941c5.7998 9.90039 17.7002 14.2998 28.5996 10.5c13.2998 -4.5 22.2998 -9.59961 33.5 -19.0996c8.7998 -7.5 10.9004 -20.2002 5.10059 -30.2002l-2.60059 -4.40039c2.2998 -3.39941 4.2998 -6.89941 6.10059 -10.5996h5.09961
c11.5996 0 21.4004 -8.2002 23.5996 -19.5996c2.60059 -13.7002 2.7002 -24.2002 -0.0996094 -38.5c-2.09961 -11.3008 -12.0996 -19.5 -23.5996 -19.5h-5c-1.80078 -3.7002 -3.80078 -7.2002 -6.10059 -10.6006l2.5 -4.2998c5.90039 -10.2002 3.5 -23.0996 -5.5 -30.5
c-10.7002 -8.7998 -19.8994 -13.4004 -34 -17.9004c-10.5 -3.19922 -21.8994 0.900391 -27.7002 10.1006zM550.8 -18.2002l10.6006 -18.2998c6.69922 2.7998 12.8994 6.40039 18.6992 10.7998l-10.5996 18.2998l6.40039 7.5c4.7998 5.7002 8.59961 12.1006 11 19.1006
l3.2998 9.2998h21.0996c0.900391 7.09961 0.900391 14.4004 0 21.5h-21.0996l-3.2998 9.2998c-2.5 7 -6.2002 13.4004 -11 19.1006l-6.40039 7.5l10.5996 18.2998c-5.69922 4.39941 -12 8 -18.6992 10.7998l-10.6006 -18.2998l-9.7002 1.7998
c-7.2998 1.40039 -14.7998 1.40039 -22.0996 0l-9.7002 -1.7998l-10.5996 18.2998c-6.7002 -2.7998 -12.9004 -6.40039 -18.7002 -10.7998l10.5996 -18.2998l-6.39941 -7.5c-4.7998 -5.7002 -8.60059 -12.1006 -11 -19.1006l-3.2998 -9.2998h-21.1006
c-0.899414 -7.09961 -0.899414 -14.4004 0 -21.5h21.1006l3.2998 -9.2998c2.5 -7 6.2002 -13.4004 11 -19.1006l6.39941 -7.5l-10.5996 -18.2998c5.7002 -4.39941 12 -8 18.7002 -10.7998l10.5996 18.2998l9.7002 -1.7998c7.2998 -1.40039 14.7998 -1.40039 22.0996 0z
M560 40c0 -17.7002 -14.2998 -32 -32 -32s-32 14.2998 -32 32s14.2998 32 32 32s32 -14.2998 32 -32zM560 344.3c0 -17.5996 -14.2998 -32 -32 -32s-32 14.2998 -32 32s14.2998 32 32 32s32 -14.2998 32 -32z" />
    <glyph glyph-name="star-half" unicode="&#xf089;" horiz-adv-x="576" 
d="M288 44.5996v-36.1992l-130.7 -68.6006c-23.3994 -12.2998 -50.8994 7.60059 -46.3994 33.7002l25 145.5l-105.7 103c-19 18.5 -8.5 50.7998 17.7002 54.5996l146.1 21.2002l65.2998 132.4c5.90039 11.8994 17.2998 17.7998 28.7002 17.7998v-32l-72.7998 -147.5
l-162.7 -23.5996l117.8 -114.801l-27.7998 -162z" />
    <glyph glyph-name="sign-out" unicode="&#xf08b;" 
d="M48 384h132c6.59961 0 12 -5.40039 12 -12v-8c0 -6.59961 -5.40039 -12 -12 -12h-132c-8.7998 0 -16 -7.2002 -16 -16v-288c0 -8.7998 7.2002 -16 16 -16h132c6.59961 0 12 -5.40039 12 -12v-8c0 -6.59961 -5.40039 -12 -12 -12h-132c-26.5 0 -48 21.5 -48 48v288
c0 26.5 21.5 48 48 48zM327 364.5c4.7002 4.7002 12.2998 4.7002 17 0l164.6 -164c4.7002 -4.7002 4.7002 -12.2998 0 -17l-164.5 -164c-4.69922 -4.7002 -12.2998 -4.7002 -17 0l-7.09961 7.09961c-4.7002 4.7002 -4.7002 12.3008 0 17l131.9 131.4h-279.9
c-6.59961 0 -12 5.40039 -12 12v10c0 6.59961 5.40039 12 12 12h279.9l-132 131.4c-4.7002 4.69922 -4.7002 12.2998 0 17z" />
    <glyph glyph-name="thumbtack" unicode="&#xf08d;" horiz-adv-x="384" 
d="M300.8 244.1c48.2998 -27.5996 83.2002 -74.5 83.1006 -131.3c0 -8.7998 -7.2002 -16 -16 -16h-160v-120.8c0 -0.599609 0 -1.2998 -0.200195 -1.90039l-8 -32c-2 -8.09961 -13.5 -8 -15.5 0l-8 32c-0.100586 0.600586 -0.200195 1.2002 -0.200195 1.90039v120.8h-160
c-8.7998 0 -16 7.2002 -16 16c0 56.7998 34.9004 103.7 83.2002 131.3l10.0996 75.9004h-37.2998c-13.2002 0 -24 10.7998 -24 24v80c0 13.2002 10.7998 24 24 24h272c13.2002 0 24 -10.7998 24 -24v-80c0 -13.2002 -10.7998 -24 -24 -24h-37.2998zM33.2998 128.8
v-0.0996094h317.5c-6.7998 42.7002 -39.5 76.2998 -79.5 94.5l-15.2998 128.8h64v64h-256v-64h64l-15.2002 -128.7c-39.8994 -18.0996 -72.7002 -51.5996 -79.5 -94.5z" />
    <glyph glyph-name="external-link" unicode="&#xf08e;" horiz-adv-x="576" 
d="M195.515 73.1719c-4.68555 4.68652 -4.68555 12.2842 0 16.9707l323.15 323.15l-0.707031 0.707031l-89.958 -0.341797c-6.62695 0 -12 5.37305 -12 12v9.99902c0 6.62793 5.37207 12 12 12l136 0.342773c6.62695 0 12 -5.37207 12 -12l-0.342773 -136
c0 -6.62695 -5.37305 -12 -12 -12h-9.99902c-6.62695 0 -12 5.37305 -12 12l0.341797 89.958l-0.707031 0.707031l-323.15 -323.15c-4.68555 -4.68555 -12.2832 -4.68555 -16.9707 0zM427.515 228.805c7.55957 7.55957 20.4854 2.20508 20.4854 -8.48535v-236.319
c0 -26.5098 -21.4902 -48 -48 -48h-352c-26.5098 0 -48 21.4902 -48 48v352c0 26.5098 21.4902 48 48 48h347.976c10.6914 0 16.0459 -12.9248 8.48535 -20.4854l-8 -8c-2.25 -2.25098 -5.30176 -3.51465 -8.48535 -3.51465h-339.976c-8.83594 0 -16 -7.16309 -16 -16v-352
c0 -8.83691 7.16406 -16 16 -16h352c8.83594 0 16 7.16309 16 16v228.32c0 2.74316 1.5752 6.54492 3.51465 8.48438z" />
    <glyph glyph-name="sign-in" unicode="&#xf090;" 
d="M184 364.5l164.5 -164c4.7002 -4.7002 4.7002 -12.2998 0 -17l-164.5 -164c-4.7002 -4.7002 -12.2998 -4.7002 -17 0l-7.09961 7.09961c-4.7002 4.7002 -4.7002 12.3008 0 17l132 131.4h-279.9c-6.59961 0 -12 5.40039 -12 12v10c0 6.59961 5.40039 12 12 12h279.9
l-131.9 131.4c-4.7002 4.69922 -4.7002 12.2998 0 17l7.09961 7.09961c4.60059 4.7002 12.2002 4.7002 16.9004 0zM512 48c0 -26.5 -21.5 -48 -48 -48h-132c-6.59961 0 -12 5.40039 -12 12v8c0 6.59961 5.40039 12 12 12h132c8.7998 0 16 7.2002 16 16v288
c0 8.7998 -7.2002 16 -16 16h-132c-6.59961 0 -12 5.40039 -12 12v8c0 6.59961 5.40039 12 12 12h132c26.5 0 48 -21.5 48 -48v-288z" />
    <glyph glyph-name="trophy" unicode="&#xf091;" horiz-adv-x="576" 
d="M448 384h116c6.59961 0 12 -5.40039 12 -12v-61.5996c0 -62 -68 -134.4 -160.7 -148.101c-29.3994 -60.7002 -73.5996 -90.2998 -111.3 -96.8994v-97.4004h86c14.4004 0 26 -11.7002 26 -26.0996c0 -3.30078 -2.7002 -5.90039 -6 -5.90039h-244
c-3.2998 0 -6 2.59961 -6 5.90039c0 14.3994 11.5996 26.0996 26 26.0996h86v97.4004c-37.5996 6.59961 -81.9004 36.1992 -111.3 96.8994c-92.6006 13.7002 -160.7 86 -160.7 148.101v61.5996c0 6.59961 5.40039 12 12 12h116v52c0 6.59961 5.40039 12 12 12h296
c6.59961 0 12 -5.40039 12 -12v-52zM32 310.4c0 -40.4004 45.9004 -94.9004 114.5 -112.601c-11.5 35.2998 -18.5 78.4004 -18.5 130.2v24h-96v-41.5996zM288 96c72 0 128 104 128 232v88h-256v-88c0 -128 56 -232 128 -232zM544 310.4v41.5996h-96v-24
c0 -51.7998 -7 -94.9004 -18.5 -130.2c68.5 17.7002 114.5 72.2002 114.5 112.601z" />
    <glyph glyph-name="upload" unicode="&#xf093;" 
d="M452 16c0 -11 -9 -20 -20 -20s-20 9 -20 20s9 20 20 20s20 -9 20 -20zM368 36c11 0 20 -9 20 -20s-9 -20 -20 -20s-20 9 -20 20s9 20 20 20zM512 84v-104c0 -24.2998 -19.7002 -44 -44 -44h-424c-24.2998 0 -44 19.7002 -44 44v104c0 24.2998 19.7002 44 44 44h124
v99.2998h-52.7002c-35.5996 0 -53.3994 43.1006 -28.2998 68.2998l140.7 140.7c15.5996 15.6006 40.8994 15.6006 56.5996 0l140.7 -140.7c25.2002 -25.1992 7.2998 -68.2998 -28.2998 -68.2998h-52.7002v-99.2998h124c24.2998 0 44 -19.7002 44 -44zM200 259.3v-187.3
c0 -4.40039 3.59961 -8 8 -8h96c4.40039 0 8 3.59961 8 8v187.3h84.7002c7.09961 0 10.7002 8.60059 5.7002 13.7002l-140.7 140.7c-3.10059 3.09961 -8.2002 3.09961 -11.2998 0l-140.7 -140.7c-5 -5 -1.5 -13.7002 5.7002 -13.7002h84.5996zM480 84
c0 6.59961 -5.40039 12 -12 12h-124v-24c0 -22.0996 -17.9004 -40 -40 -40h-96c-22.0996 0 -40 17.9004 -40 40v24h-124c-6.59961 0 -12 -5.40039 -12 -12v-104c0 -6.59961 5.40039 -12 12 -12h424c6.59961 0 12 5.40039 12 12v104z" />
    <glyph glyph-name="lemon" unicode="&#xf094;" 
d="M489.038 425.037c23.0938 -23.0938 28.8916 -54.3906 16.833 -75.0928c-34.3115 -58.9043 53.0781 -181.248 -86.7461 -321.071c-139.823 -139.824 -262.166 -52.4326 -321.068 -86.7432c-20.7168 -12.0664 -52.0146 -6.24805 -75.0947 16.832
c-23.0928 23.0938 -28.8916 54.3906 -16.833 75.0928c34.3125 58.9043 -53.0771 181.248 86.7451 321.071c139.828 139.828 262.161 52.4297 321.073 86.7451c7.02637 4.09375 15.2725 6.12891 24.0068 6.12891c16.9941 0 35.8301 -7.70898 51.084 -22.9629zM478.22 366.05
c12.2725 21.0684 -28.1885 59.8076 -48.167 48.1699c-76.5293 -44.5791 -183.11 49.7197 -314.551 -81.7227c-131.388 -131.387 -37.1738 -238.075 -81.7207 -314.55c-11.957 -20.5273 27.6426 -60.123 48.1709 -48.167c76.5176 44.5713 183.113 -49.7139 314.547 81.7197
c131.387 131.387 37.1748 238.075 81.7207 314.55zM259.471 336.381c-31.8896 -7.08594 -64.9727 -26.5107 -93.1562 -54.6943c-28.1846 -28.1846 -47.6084 -61.2676 -54.6943 -93.1562c-1.65723 -7.45703 -8.27148 -12.5332 -15.6045 -12.5332
c-1.14844 0 -2.31543 0.125 -3.48438 0.384766c-8.62598 1.91699 -14.0654 10.4639 -12.1484 19.0898c8.3916 37.7559 30.8721 76.4102 63.3066 108.844c32.4326 32.4336 71.0869 54.915 108.843 63.3057c8.62793 1.91895 17.1729 -3.52246 19.0898 -12.1484
s-3.52539 -17.1748 -12.1514 -19.0918z" />
    <glyph glyph-name="phone" unicode="&#xf095;" 
d="M487.8 423.9c14.2002 -3.2002 24.2002 -15.8008 24.2002 -30.4004c0 -253.3 -205.3 -457.5 -457.5 -457.5c-14.5996 0 -27.2002 10 -30.5 24.2998l-23.2002 100.7c-3.39941 14.7002 4.2002 29.7002 18.1006 35.7002l108.399 46.5
c12.7002 5.5 27.7002 1.7998 36.5 -8.90039l44.1006 -53.8994c69.2998 34 125.6 90.3994 159.6 159.6l-53.9004 44.0996c-10.6992 8.80078 -14.3994 23.8008 -8.89941 36.5l46.5 108.5c6 13.9004 21.0996 21.5 35.7998 18.1006zM55.0996 -32
c234.5 0.299805 424.601 190.3 424.801 424.8l-99.6006 23l-46 -107.399l72.7998 -59.5c-48.3994 -103.2 -104.5 -159.5 -208.1 -208.101l-59.5 72.7998l-107.4 -46z" />
    <glyph glyph-name="phone-square" unicode="&#xf098;" horiz-adv-x="448" 
d="M400 416c26.5098 0 48 -21.4902 48 -48v-352c0 -26.5098 -21.4902 -48 -48 -48h-352c-26.5098 0 -48 21.4902 -48 48v352c0 26.5098 21.4902 48 48 48h352zM416 16v352c0 8.82227 -7.17773 16 -16 16h-352c-8.82227 0 -16 -7.17773 -16 -16v-352
c0 -8.82227 7.17773 -16 16 -16h352c8.82227 0 16 7.17773 16 16zM361.133 337.745c13.4639 -3.10645 22.8672 -14.9268 22.8672 -28.7451c0 -153.181 -123.967 -277 -277 -277c-13.8164 0 -25.6367 9.40332 -28.7432 22.8672l-13.4941 58.501
c-3.21484 13.9238 3.9873 28.1182 17.125 33.748l62.9922 26.998c12.0127 5.14648 26.1797 1.67969 34.4531 -8.43555l19.7402 -24.127c26.8145 14.793 60.583 48.5605 75.376 75.375l-24.1289 19.7422c-10.1133 8.27246 -13.5811 22.4395 -8.43555 34.4512l27.001 62.9951
c4.22266 9.87109 16.3623 17.8828 27.0986 17.8828c1.85938 0 4.83789 -0.34082 6.64941 -0.759766zM108.987 64.0078c133.948 1.05859 241.949 109.303 243.007 243.007l-54.5186 12.5791l-25.4355 -59.3477l42.29 -34.6025
c-29.7881 -63.4863 -62.0801 -94.9355 -123.973 -123.971l-34.6016 42.2881l-59.3477 -25.4346z" />
    <glyph glyph-name="unlock" unicode="&#xf09c;" horiz-adv-x="384" 
d="M336 192c26.5 0 48 -21.5 48 -48v-160c0 -26.5 -21.5 -48 -48 -48h-288c-26.5 0 -48 21.5 -48 48v160c0 26.5 21.5 48 48 48h16v96c0 88.4004 40 160.3 128.5 160c88.4004 -0.299805 127.5 -73.0996 127.5 -161.5v-18.5c0 -6.59961 -5.40039 -12 -12 -12h-8
c-6.59961 0 -12 5.40039 -12 12v20c0 70.5996 -25.4004 128 -96 128s-96 -57.4004 -96 -128v-96h240zM352 -16v160c0 8.7998 -7.2002 16 -16 16h-288c-8.7998 0 -16 -7.2002 -16 -16v-160c0 -8.7998 7.2002 -16 16 -16h288c8.7998 0 16 7.2002 16 16z" />
    <glyph glyph-name="credit-card" unicode="&#xf09d;" horiz-adv-x="576" 
d="M528 416c26.5 0 48 -21.5 48 -48v-352c0 -26.5 -21.5 -48 -48 -48h-480c-26.5 0 -48 21.5 -48 48v352c0 26.5 21.5 48 48 48h480zM48 384c-8.7998 0 -16 -7.2002 -16 -16v-48h512v48c0 8.7998 -7.2002 16 -16 16h-480zM528 0c8.7998 0 16 7.2002 16 16v208h-512v-208
c0 -8.7998 7.2002 -16 16 -16h480zM192 84v-8c0 -6.59961 -5.40039 -12 -12 -12h-72c-6.59961 0 -12 5.40039 -12 12v8c0 6.59961 5.40039 12 12 12h72c6.59961 0 12 -5.40039 12 -12zM384 84v-8c0 -6.59961 -5.40039 -12 -12 -12h-136c-6.59961 0 -12 5.40039 -12 12v8
c0 6.59961 5.40039 12 12 12h136c6.59961 0 12 -5.40039 12 -12z" />
    <glyph glyph-name="rss" unicode="&#xf09e;" horiz-adv-x="448" 
d="M80 96c-26.4668 0 -48 -21.5332 -48 -48s21.5332 -48 48 -48s48 21.5332 48 48s-21.5332 48 -48 48zM80 128c44.1826 0 80 -35.8174 80 -80s-35.8174 -80 -80 -80s-80 35.8174 -80 80s35.8174 80 80 80zM447.996 -19.6152
c0.182617 -6.77539 -5.22363 -12.3848 -12.002 -12.3848h-8.00684c-6.48242 0 -11.8164 5.14648 -11.9941 11.626c-6.04785 220.454 -183.558 398.317 -404.367 404.367c-6.47949 0.177734 -11.626 5.51172 -11.626 11.9941v8.00586
c0 6.77832 5.60938 12.1855 12.3857 12.002c237.55 -6.44629 429.162 -197.762 435.61 -435.61zM303.751 -19.5654c0.273438 -6.79199 -5.2002 -12.4346 -11.998 -12.4346h-8.00488c-6.45801 0 -11.7197 5.11426 -11.9893 11.5674
c-5.89062 141.112 -119.058 254.301 -260.191 260.191c-6.45312 0.269531 -11.5674 5.53027 -11.5674 11.9893v8.00488c0 6.79688 5.64258 12.2715 12.4346 11.998c158.109 -6.3457 284.97 -133.184 291.316 -291.316z" />
    <glyph glyph-name="hdd" unicode="&#xf0a0;" horiz-adv-x="576" 
d="M566.819 220.623c5.06738 -6.96777 9.18066 -19.6152 9.18066 -28.2314v-0.000976562v-144.391c0 -26.5098 -21.4902 -48 -48 -48h-480c-26.5098 0 -48 21.4902 -48 48v144.391v0.000976562c0 8.61621 4.11328 21.2637 9.18066 28.2314l104.443 143.609
c7.93555 10.9111 25.3262 19.7676 38.8184 19.7676h0.000976562h271.113c13.4932 0 30.8848 -8.85645 38.8203 -19.7676zM139.503 345.411l-88.2988 -121.411h473.592l-88.2979 121.411c-3.00098 4.12598 -7.83789 6.58887 -12.9404 6.58887h-271.114
c-4.49414 -0.00683594 -10.291 -2.95898 -12.9404 -6.58887zM544 176c0 8.83691 -7.16309 16 -16 16h-480c-8.83691 0 -16 -7.16309 -16 -16v-128c0 -8.82324 7.17773 -16 16 -16h480c8.82227 0 16 7.17676 16 16v128zM488 112c0 -13.2549 -10.7451 -24 -24 -24
s-24 10.7451 -24 24s10.7451 24 24 24s24 -10.7451 24 -24zM424 112c0 -13.2549 -10.7451 -24 -24 -24s-24 10.7451 -24 24s10.7451 24 24 24s24 -10.7451 24 -24z" />
    <glyph glyph-name="certificate" unicode="&#xf0a3;" 
d="M495.768 175.708c30.0391 -28.7861 16.251 -79.5381 -23.8311 -89.3672l-22.7666 -5.81055l6.46387 -22.6982c11.1494 -39.9414 -25.9766 -76.5361 -65.4492 -65.4502l-22.6719 6.46094l-5.80664 -22.7666c-9.89844 -40.4258 -61.1953 -53.6465 -89.4521 -23.7461
l-16.2539 16.6201l-16.3389 -16.708c-28.501 -29.7734 -79.4365 -16.7422 -89.3662 23.8359l-5.80664 22.7666l-22.6719 -6.46094c-39.1943 -10.9785 -76.6699 25.2471 -65.4492 65.4502l6.46387 22.6982l-22.7676 5.81055
c-40.0811 9.82812 -53.8701 60.5791 -23.8301 89.3652l16.7188 16.3623l-16.7197 16.3623c-30.0391 28.7861 -16.25 79.5381 23.8311 89.3652l22.7666 5.81152l-6.46387 22.6973c-11.2285 40.2266 26.3086 76.4424 65.4492 65.4502l22.6719 -6.46094l5.80664 22.7686
c9.87012 40.3066 61.082 53.4395 89.4053 23.793l16.3008 -16.791l16.2988 16.792c28.5908 29.9277 79.627 16.0898 89.4043 -23.7832l5.80859 -22.7783l22.6719 6.46094c39.334 11.0176 76.6816 -25.4541 65.4492 -65.4512l-6.46387 -22.6973l22.7676 -5.81152
c40.0811 -9.82812 53.8701 -60.5791 23.8301 -89.3652l-16.7188 -16.3613zM464.201 117.395c15.7383 3.76465 21.3203 23.9463 9.33105 35.2979l-40.2373 39.3789l40.2373 39.3789c11.9951 11.3535 6.40137 31.5342 -9.33105 35.2959l-54.8193 13.9912l15.4531 54.2627
c4.36719 15.6084 -10.3496 30.3301 -25.9531 25.9619l-54.2451 -15.458l-13.9854 54.8369c-3.70215 15.4863 -24.1064 21.1504 -35.2852 9.33398l-39.3662 -40.5479l-39.3662 40.5479c-11.0518 11.6826 -31.542 6.33008 -35.2852 -9.33398l-13.9854 -54.8369
l-54.2451 15.458c-15.6074 4.37012 -30.3193 -10.3564 -25.9531 -25.9619l15.4531 -54.2637l-54.8193 -13.9912c-15.7383 -3.76367 -21.3203 -23.9463 -9.33105 -35.2959l40.2373 -39.3789l-40.2373 -39.3789c-11.9951 -11.3555 -6.40137 -31.5352 9.33105 -35.2979
l54.8193 -13.9902l-15.4531 -54.2637c-4.36719 -15.6074 10.3496 -30.3301 25.9531 -25.9619l54.2451 15.458l13.9854 -54.8369c3.88574 -16.2529 24.2344 -21.0146 35.2852 -9.33398l39.3662 40.251l39.3652 -40.25c10.9375 -11.8018 31.4883 -6.5498 35.2852 9.33398
l13.9863 54.8369l54.2451 -15.458c15.6074 -4.37012 30.3193 10.3574 25.9531 25.9619l-15.4531 54.2637z" />
    <glyph glyph-name="hand-point-right" unicode="&#xf0a4;" 
d="M441.6 300.8c37.6309 0 70.4004 -32.2393 70.4004 -70.3994c0 -38.4844 -32.0635 -70.4004 -70.4004 -70.4004h-56.8154c-0.00878906 -0.350586 -0.0205078 -0.703125 -0.0332031 -1.05371c-0.537109 -14.1875 -4.65625 -27.7266 -11.8848 -39.582
c4.64355 -23.3389 -2.33496 -48.3867 -16.6348 -65.4941c1.625 -49.7861 -29.0254 -85.8701 -88.6318 -85.8701h-23.2354c-54.1104 0 -90.4531 34.2812 -125.103 42.0381c-5.83398 -6.17676 -14.0947 -10.0381 -23.2617 -10.0381h-64c-17.6729 0 -32 14.3271 -32 32v224
c0 17.6729 14.3271 32 32 32h64c11.6201 0 21.792 -6.19434 27.3984 -15.459c18.0498 10.0752 49.8564 49.3828 60.9189 67.1436c13.8828 22.4629 23.1367 76.3154 71.6826 76.3154c41.3145 0 73.5996 -29.9219 73.5996 -70.4004
c0 -17.79 -4.35352 -32.6104 -9.79102 -44.7998h121.791zM32 256v-224h64v224h-64zM441.6 192c20.7002 0 38.4004 17.7002 38.4004 38.4004c0 20.3994 -18.2998 38.3994 -38.4004 38.3994h-172.8c0 18.9004 28.7998 38.4004 28.7998 76.7998
c0 22.4004 -17.5996 38.4004 -41.5996 38.4004s-28.7041 -35.6855 -44.502 -61.2002c-14.5957 -23.4434 -53.665 -72.5557 -83.5 -83.2617v-198.677c39.6797 -9.59473 72.0273 -40.8613 116.364 -40.8613h23.2354c44.208 0 62.3174 24.2148 55.2012 66.9004
c15.9414 8.72852 26.3477 37.0684 14.1006 58.5c21.126 19.8818 19.4033 50.5967 5.39941 66.5996h99.3008zM84 64c0 -11.0459 -8.9541 -20 -20 -20s-20 8.9541 -20 20s8.9541 20 20 20s20 -8.9541 20 -20z" />
    <glyph glyph-name="hand-point-left" unicode="&#xf0a5;" 
d="M0 230.4c0 38.1602 32.7695 70.3994 70.4004 70.3994h121.791c-5.4375 12.1895 -9.79102 27.0098 -9.79102 44.7998c0 40.4785 32.2861 70.4004 73.5996 70.4004c48.5459 0 57.7998 -53.8525 71.6836 -76.3154c11.0615 -17.7598 42.8682 -57.0684 60.9189 -67.1436
c5.60547 9.26465 15.7773 15.459 27.3975 15.459h64c17.6729 0 32 -14.3271 32 -32v-224c0 -17.6729 -14.3271 -32 -32 -32h-64c-9.16699 0 -17.4277 3.86133 -23.2607 10.0381c-34.6504 -7.75684 -70.9922 -42.0381 -125.103 -42.0381h-23.2354
c-59.6055 0 -90.2568 36.084 -88.6318 85.8701c-14.2998 17.1074 -21.2783 42.1553 -16.6348 65.4941c-7.22949 11.8545 -11.3486 25.3945 -11.8848 39.582c-0.0126953 0.350586 -0.0244141 0.703125 -0.0332031 1.05371h-56.8164
c-38.3369 0 -70.4004 31.916 -70.4004 70.4004zM480 32v224h-64v-224h64zM32 230.4c0 -20.7002 17.7002 -38.4004 38.4004 -38.4004h99.2988c-14.0039 -16.0029 -15.7256 -46.7178 5.39941 -66.5996c-12.2471 -21.4326 -1.83984 -49.7725 14.1006 -58.5
c-7.11621 -42.6855 10.9932 -66.9004 55.2012 -66.9004h23.2354c44.3379 0 76.6846 31.2666 116.364 40.8613v198.677c-29.835 10.7061 -68.9053 59.8193 -83.5 83.2617c-15.7959 25.5146 -20.5 61.2002 -44.5 61.2002s-41.5996 -16 -41.5996 -38.4004
c0 -38.3994 28.7998 -57.8994 28.7998 -76.7998h-172.8c-20.1006 0 -38.4004 -18 -38.4004 -38.3994zM448 84c11.0459 0 20 -8.9541 20 -20s-8.9541 -20 -20 -20s-20 8.9541 -20 20s8.9541 20 20 20z" />
    <glyph glyph-name="hand-point-up" unicode="&#xf0a6;" horiz-adv-x="448" 
d="M115.2 377.6c0 37.6309 32.2393 70.4004 70.3994 70.4004c38.4844 0 70.4004 -32.0635 70.4004 -70.4004v-56.8154c0.291016 -0.0078125 0.762695 -0.0224609 1.05371 -0.0332031c14.1875 -0.537109 27.7266 -4.65625 39.582 -11.8848
c23.3389 4.64355 48.3867 -2.33496 65.4941 -16.6348c49.7861 1.625 85.8701 -29.0254 85.8701 -88.6318v-23.2354c0 -54.1104 -34.2812 -90.4531 -42.0381 -125.103c6.17676 -5.83398 10.0381 -14.0947 10.0381 -23.2617v-64c0 -17.6729 -14.3271 -32 -32 -32h-224
c-17.6729 0 -32 14.3271 -32 32v64c0 11.6201 6.19434 21.792 15.459 27.3984c-10.0752 18.0498 -49.3828 49.8564 -67.1436 60.9189c-22.4629 13.8828 -76.3154 23.1367 -76.3154 71.6826c0 41.3135 29.9219 73.5996 70.4004 73.5986
c17.79 0 32.6104 -4.35352 44.7998 -9.79102v121.792zM160 -32h224v64h-224v-64zM224 377.6c0 20.7002 -17.7002 38.4004 -38.4004 38.4004c-20.3994 0 -38.3994 -18.2998 -38.3994 -38.4004v-172.8c-18.9004 0 -38.4004 28.7998 -76.7998 28.7998
c-22.4004 0 -38.4004 -17.5996 -38.4004 -41.5996s35.6855 -28.7041 61.2002 -44.502c23.4434 -14.5957 72.5557 -53.665 83.2617 -83.5h198.677c9.59473 39.6797 40.8613 72.0273 40.8613 116.364v23.2354c0 44.208 -24.2148 62.3174 -66.9004 55.2012
c-8.72852 15.9414 -37.0684 26.3477 -58.5 14.1006c-19.8818 21.126 -50.5967 19.4033 -66.5996 5.39941v99.3008zM352 20c11.0459 0 20 -8.9541 20 -20s-8.9541 -20 -20 -20s-20 8.9541 -20 20s8.9541 20 20 20z" />
    <glyph glyph-name="hand-point-down" unicode="&#xf0a7;" horiz-adv-x="448" 
d="M185.6 -64c-38.1602 0 -70.3994 32.7695 -70.3994 70.4004v121.791c-12.1895 -5.4375 -27.0098 -9.79102 -44.7998 -9.79102c-40.4785 0 -70.4004 32.2861 -70.4004 73.5996c0 48.5459 53.8525 57.7998 76.3154 71.6836c17.7598 11.0615 57.0684 42.8691 67.1436 60.9189
c-9.26465 5.60547 -15.459 15.7773 -15.459 27.3975v64c0 17.6729 14.3271 32 32 32h224c17.6729 0 32 -14.3271 32 -32v-64c0 -9.16699 -3.86133 -17.4277 -10.0381 -23.2607c7.75684 -34.6504 42.0381 -70.9922 42.0381 -125.103v-23.2354
c0 -59.6055 -36.084 -90.2568 -85.8701 -88.6318c-17.1074 -14.2998 -42.1553 -21.2783 -65.4941 -16.6348c-11.8545 -7.22949 -25.3945 -11.3486 -39.582 -11.8848c-0.350586 -0.0126953 -0.703125 -0.0244141 -1.05371 -0.0332031v-56.8164
c0 -38.3369 -31.916 -70.4004 -70.4004 -70.4004zM384 416h-224v-64h224v64zM185.6 -32c20.7002 0 38.4004 17.7002 38.4004 38.4004v99.2988c16.0029 -14.0039 46.7178 -15.7256 66.5996 5.39941c21.4326 -12.2471 49.7725 -1.83984 58.5 14.1006
c42.6855 -7.11621 66.9004 10.9932 66.9004 55.2012v23.2354c0 44.3379 -31.2666 76.6846 -40.8613 116.364h-198.677c-10.7061 -29.835 -59.8193 -68.9053 -83.2617 -83.5c-25.5146 -15.7959 -61.2002 -20.5 -61.2002 -44.5s16 -41.5996 38.4004 -41.5996
c38.3994 0 57.8994 28.7998 76.7998 28.7998v-172.8c0 -20.1006 18 -38.4004 38.3994 -38.4004zM332 384c0 11.0459 8.9541 20 20 20s20 -8.9541 20 -20s-8.9541 -20 -20 -20s-20 8.9541 -20 20z" />
    <glyph glyph-name="arrow-circle-left" unicode="&#xf0a8;" 
d="M504 192c0 -137 -111 -248 -248 -248s-248 111 -248 248s111 248 248 248s248 -111 248 -248zM256 -24c119.9 0 216 97.2998 216 216c0 119.9 -97.2998 216 -216 216c-119.9 0 -216 -97.2998 -216 -216c0 -119.9 97.2998 -216 216 -216zM243.5 68.5l-115.1 115
c-4.7002 4.7002 -4.7002 12.2998 0 17l115.1 115c4.7002 4.7002 12.2998 4.7002 17 0l6.90039 -6.90039c4.69922 -4.69922 4.69922 -12.5 -0.200195 -17.0996l-85.5 -82.5h190.3c6.59961 0 12 -5.40039 12 -12v-10c0 -6.59961 -5.40039 -12 -12 -12h-190.3l85.5996 -82.5
c4.7998 -4.7002 4.90039 -12.4004 0.200195 -17.0996l-6.90039 -6.90039c-4.7998 -4.7002 -12.3994 -4.7002 -17.0996 0z" />
    <glyph glyph-name="arrow-circle-right" unicode="&#xf0a9;" 
d="M8 192c0 137 111 248 248 248s248 -111 248 -248s-111 -248 -248 -248s-248 111 -248 248zM256 408c-119.9 0 -216 -97.2998 -216 -216c0 -119.9 97.2998 -216 216 -216c119.9 0 216 97.2998 216 216c0 119.9 -97.2998 216 -216 216zM268.5 315.5l115.1 -115
c4.7002 -4.7002 4.7002 -12.2998 0 -17l-115.1 -115c-4.7002 -4.7002 -12.2998 -4.7002 -17 0l-6.90039 6.90039c-4.69922 4.69922 -4.69922 12.5 0.200195 17.0996l85.6006 82.5h-190.4c-6.59961 0 -12 5.40039 -12 12v10c0 6.59961 5.40039 12 12 12h190.3l-85.5996 82.5
c-4.7998 4.7002 -4.90039 12.4004 -0.200195 17.0996l6.90039 6.90039c4.7998 4.7002 12.3994 4.7002 17.0996 0z" />
    <glyph glyph-name="arrow-circle-up" unicode="&#xf0aa;" 
d="M256 -56c-137 0 -248 111 -248 248s111 248 248 248s248 -111 248 -248s-111 -248 -248 -248zM40 192c0 -119.9 97.2998 -216 216 -216c119.9 0 216 97.2998 216 216c0 119.9 -97.2998 216 -216 216c-119.9 0 -216 -97.2998 -216 -216zM132.5 204.5l115 115.1
c4.7002 4.7002 12.2998 4.7002 17 0l115 -115.1c4.7002 -4.7002 4.7002 -12.2998 0 -17l-6.90039 -6.90039c-4.69922 -4.69922 -12.5 -4.69922 -17.0996 0.200195l-82.5 85.5v-190.3c0 -6.59961 -5.40039 -12 -12 -12h-10c-6.59961 0 -12 5.40039 -12 12v190.3
l-82.5 -85.5996c-4.7002 -4.7998 -12.4004 -4.90039 -17.0996 -0.200195l-6.90039 6.90039c-4.7002 4.7998 -4.7002 12.3994 0 17.0996z" />
    <glyph glyph-name="arrow-circle-down" unicode="&#xf0ab;" 
d="M256 440c137 0 248 -111 248 -248s-111 -248 -248 -248s-248 111 -248 248s111 248 248 248zM472 192c0 119.9 -97.2998 216 -216 216c-119.9 0 -216 -97.2998 -216 -216c0 -119.9 97.2998 -216 216 -216c119.9 0 216 97.2998 216 216zM379.5 196.5
c4.7002 -4.7002 4.7002 -12.2998 0 -16.9004l-115 -115.1c-4.7002 -4.7002 -12.2998 -4.7002 -17 0l-115 115.1c-4.7002 4.7002 -4.7002 12.3008 0 17l6.90039 6.90039c4.69922 4.7002 12.3994 4.59961 17.0996 -0.200195l82.5 -85.5996v190.3c0 6.59961 5.40039 12 12 12
h10c6.59961 0 12 -5.40039 12 -12v-190.3l82.5 85.5c4.59961 4.89941 12.4004 4.89941 17.0996 0.200195z" />
    <glyph glyph-name="filter" unicode="&#xf0b0;" 
d="M479.968 448c28.4824 0 42.7275 -34.5283 22.627 -54.627l-182.595 -182.628v-242.729c0 -27.7617 -32.6338 -41.9648 -53.0723 -24.082l-64 55.9834c-6.03223 5.27734 -10.9277 16.0654 -10.9277 24.0811v0.000976562v186.745l-182.59 182.628
c-20.1387 20.1396 -5.79688 54.627 22.6279 54.627h447.93zM288 224l192 192h-448l192 -192v-200l64 -56v256z" />
    <glyph glyph-name="arrows-alt" unicode="&#xf0b2;" 
d="M502.3 215.3c12.9004 -12.8994 12.9004 -33.7002 0.100586 -46.5996l-66.5 -66.5c-20.8008 -20.7998 -56.3008 -6 -56.3008 23.2998v50.5h-107.6v-107.6h50.5c29.2998 0 44 -35.6006 23.2998 -56.3008l-66.5 -66.5c-12.7998 -12.8994 -33.7002 -12.8994 -46.5996 0
l-66.5 66.5c-20.7998 20.8008 -6 56.3008 23.2998 56.3008h50.5v107.6h-107.5v-50.5c0 -29.2998 -35.5996 -44 -56.2998 -23.2998l-66.5 66.5c-12.9004 12.7998 -12.9004 33.7002 0 46.5996l66.3994 66.5c20.8008 20.7998 56.3008 6 56.3008 -23.2998v-50.5h107.6v107.5
h-50.5c-29.2998 0 -44 35.5996 -23.2998 56.2998l66.5 66.5c12.7998 12.9004 33.7002 12.9004 46.5996 0l66.5 -66.3994c20.7998 -20.8008 6 -56.3008 -23.2998 -56.3008h-50.5v-107.6h107.5v50.5c0 29.2998 35.5996 44 56.2998 23.2998zM103.6 125.5v133
c0 3.59961 -4.39941 5.5 -7 2.90039l-66.5 -66.5c-1.59961 -1.60059 -1.59961 -4.2002 0 -5.80078l66.5 -66.5c2.60059 -2.59961 7 -0.799805 7 2.90039zM322.5 39.5996h-133c-3.59961 0 -5.5 -4.39941 -2.90039 -7l66.5 -66.5c1.60059 -1.59961 4.2002 -1.59961 5.80078 0
l66.5 66.5c2.59961 2.60059 0.799805 7 -2.90039 7zM189.5 344.4h133c3.59961 0 5.5 4.39941 2.90039 7l-66.5 66.5c-1.60059 1.59961 -4.2002 1.59961 -5.80078 0l-66.5 -66.5c-2.59961 -2.60059 -0.799805 -7 2.90039 -7zM481.9 189.1
c1.69922 1.60059 1.69922 4.2002 0 5.7002l-66.5 66.5c-2.60059 2.60059 -7 0.799805 -7 -2.89941v-132.9c0 -3.59961 4.39941 -5.5 7 -2.90039z" />
    <glyph glyph-name="link" unicode="&#xf0c1;" 
d="M301.148 53.2979l-79.2002 -79.1895c-50.7783 -50.7998 -133.037 -50.8242 -183.84 0c-50.7998 50.7773 -50.8242 133.036 0 183.84l79.1895 79.2002c0.958008 0.957031 2.54004 2.48145 3.53223 3.40234c7.5498 7.00488 19.7949 2.00391 20.208 -8.28613
c0.193359 -4.80664 0.597656 -9.60645 1.21582 -14.3838c0.481445 -3.7168 -0.746094 -7.44727 -3.39648 -10.0957c-16.4805 -16.4688 -75.1426 -75.1279 -75.3008 -75.2861c-36.7373 -36.7588 -36.7305 -96.1885 0 -132.94c36.7598 -36.7373 96.1885 -36.7305 132.94 0
l79.2002 79.2002l0.359375 0.360352c36.3018 36.6719 36.1406 96.0703 -0.370117 132.58c-8.21387 8.21387 -17.5762 14.5801 -27.585 19.1084c-4.56543 2.06641 -7.42578 6.66699 -7.13379 11.6699c0.250977 4.30957 1.5166 11.1465 2.82617 15.2598
c2.10352 6.60059 9.53125 9.96094 15.9189 7.2793c15.0732 -6.32324 29.1875 -15.6191 41.4355 -27.8672c50.6875 -50.6895 50.6787 -133.171 0 -183.852zM210.852 146.852c-50.6875 50.6885 -50.6787 133.17 0 183.852l79.2002 79.1895
c50.7783 50.7998 133.038 50.8242 183.84 0c50.7998 -50.7773 50.8242 -133.036 0 -183.84l-79.1895 -79.2002c-0.957031 -0.957031 -2.54004 -2.48145 -3.53223 -3.40234c-7.54883 -7.00488 -19.7949 -2.00488 -20.208 8.28613
c-0.160156 3.98438 -0.704102 10.4287 -1.21582 14.3838c-0.481445 3.7168 0.746094 7.44629 3.39648 10.0957c16.4814 16.4688 75.1436 75.1289 75.3008 75.2861c36.7373 36.7588 36.7305 96.1885 0 132.94c-36.7598 36.7373 -96.1885 36.7305 -132.94 0l-79.2002 -79.2002
l-0.359375 -0.360352c-36.3018 -36.6719 -36.1406 -96.0703 0.370117 -132.58c8.21387 -8.21484 17.5762 -14.5811 27.585 -19.1084c4.56445 -2.06641 7.42578 -6.66699 7.13379 -11.6699c-0.250977 -4.30957 -1.5166 -11.1465 -2.82617 -15.2598
c-2.10352 -6.59961 -9.53125 -9.95996 -15.9189 -7.2793c-15.0732 6.32324 -29.1875 15.6191 -41.4355 27.8672z" />
    <glyph glyph-name="flask" unicode="&#xf0c3;" horiz-adv-x="448" 
d="M434.9 37.2998c31.6992 -41.5 2.19922 -101.3 -50 -101.3h-321.801c-52.0996 0 -81.6992 59.7998 -50 101.3l146.9 192.101v186.6h-26c-3.2998 0 -6 2.7002 -6 6v20c0 3.2998 2.7002 6 6 6h180c3.2998 0 6 -2.7002 6 -6v-20c0 -3.2998 -2.7002 -6 -6 -6h-26v-186.6z
M384.9 -32c25.7998 0 40.1992 29.4004 24.5996 49.7998l-150.2 196.5c-2.09961 2.7998 -3.2998 6.2002 -3.2998 9.7002v192h-64v-192c0 -3.5 -1.2002 -6.90039 -3.2998 -9.7002l-150.2 -196.5c-15.7002 -20.3994 -1.09961 -49.7998 24.5996 -49.7998h321.801z" />
    <glyph glyph-name="copy" unicode="&#xf0c5;" horiz-adv-x="448" 
d="M433.941 382.059c7.75977 -7.75977 14.0586 -22.9658 14.0586 -33.9404v-268.118c0 -26.5098 -21.4902 -48 -48 -48h-80v-48c0 -26.5098 -21.4902 -48 -48 -48h-224c-26.5098 0 -48 21.4902 -48 48v320c0 26.5098 21.4902 48 48 48h80v48c0 26.5098 21.4902 48 48 48
h172.118c10.9746 0 26.1807 -6.29883 33.9404 -14.0586zM352 415.509v-63.5088h63.5078c-0.585938 2.37402 -2.46484 5.70312 -4.19434 7.43066l-51.8828 51.8838c-1.72754 1.72949 -5.05664 3.6084 -7.43066 4.19434zM288 -16v48h-112c-26.5098 0 -48 21.4902 -48 48v240
h-80c-8.82227 0 -16 -7.17773 -16 -16v-320c0 -8.82227 7.17773 -16 16 -16h224c8.82227 0 16 7.17773 16 16zM416 80v240h-72c-13.2002 0 -24 10.7998 -24 24v72h-144c-8.82227 0 -16 -7.17773 -16 -16v-320c0 -8.82227 7.17773 -16 16 -16h224c8.82227 0 16 7.17773 16 16
z" />
    <glyph glyph-name="paperclip" unicode="&#xf0c6;" 
d="M149.106 -64c-33.0762 0 -66.1533 12.5898 -91.333 37.7715c-50.3643 50.3604 -50.3643 132.305 -0.00195312 182.664l262.07 262.066c39.3311 39.3311 103.328 39.3311 142.66 0c39.3311 -39.332 39.3311 -103.327 0 -142.657l-222.63 -222.626
c-28.2969 -28.3008 -74.3467 -28.3027 -102.65 0c-28.2998 28.3008 -28.2998 74.3496 0 102.649l170.302 170.298c4.68555 4.68555 12.2832 4.68555 16.9697 0l5.66113 -5.66113c4.68555 -4.68555 4.68555 -12.2842 0 -16.9707l-170.301 -170.297
c-15.8203 -15.8213 -15.8203 -41.5635 0.00195312 -57.3857c15.8203 -15.8193 41.5635 -15.8193 57.3848 0l222.63 222.626c26.8506 26.8516 26.8506 70.541 0 97.3945c-26.8555 26.8506 -70.5439 26.8486 -97.3955 0l-262.07 -262.068
c-37.8818 -37.8818 -37.8818 -99.5186 0 -137.4c37.8838 -37.8809 99.5225 -37.8818 137.403 -0.000976562l217.743 217.738c4.68652 4.68652 12.2842 4.68652 16.9707 0l5.66016 -5.66016c4.68652 -4.68652 4.68652 -12.2842 0 -16.9717l-217.741 -217.737
c-25.1807 -25.1816 -58.2578 -37.7715 -91.334 -37.7715z" />
    <glyph glyph-name="save" unicode="&#xf0c7;" horiz-adv-x="448" 
d="M433.941 318.059c7.75977 -7.75977 14.0586 -22.9658 14.0586 -33.9404v-268.118c0 -26.5098 -21.4902 -48 -48 -48h-352c-26.5098 0 -48 21.4902 -48 48v352c0 26.5098 21.4902 48 48 48h268.118c10.9746 0 26.1807 -6.29883 33.9404 -14.0586zM288 384h-192v-96h192v96
zM416 16v268.118v0.0439453c0 3.64844 -2.09961 8.69727 -4.68555 11.2695l-83.8828 83.8828c-1.72852 1.72949 -5.05762 3.6084 -7.43164 4.19434v-103.509c0 -13.2549 -10.7451 -24 -24 -24h-208c-13.2549 0 -24 10.7451 -24 24v104h-16c-8.82227 0 -16 -7.17773 -16 -16
v-352c0 -8.82227 7.17773 -16 16 -16h352c8.82227 0 16 7.17773 16 16zM224 216c48.5234 0 88 -39.4766 88 -88s-39.4766 -88 -88 -88s-88 39.4766 -88 88s39.4766 88 88 88zM224 72c30.8789 0 56 25.1211 56 56s-25.1211 56 -56 56s-56 -25.1211 -56 -56
s25.1211 -56 56 -56z" />
    <glyph glyph-name="square" unicode="&#xf0c8;" horiz-adv-x="448" 
d="M400 416c26.5 0 48 -21.5 48 -48v-352c0 -26.5 -21.5 -48 -48 -48h-352c-26.5 0 -48 21.5 -48 48v352c0 26.5 21.5 48 48 48h352zM416 16v352c0 8.7998 -7.2002 16 -16 16h-352c-8.7998 0 -16 -7.2002 -16 -16v-352c0 -8.7998 7.2002 -16 16 -16h352
c8.7998 0 16 7.2002 16 16z" />
    <glyph glyph-name="bars" unicode="&#xf0c9;" horiz-adv-x="448" 
d="M442 334h-436c-3.31152 0 -6 2.68848 -6 6v24c0 3.31152 2.68848 6 6 6h436c3.31152 0 6 -2.68848 6 -6v-24c0 -3.31152 -2.68848 -6 -6 -6zM442 174h-436c-3.31152 0 -6 2.68848 -6 6v24c0 3.31152 2.68848 6 6 6h436c3.31152 0 6 -2.68848 6 -6v-24
c0 -3.31152 -2.68848 -6 -6 -6zM442 14h-436c-3.31152 0 -6 2.68848 -6 6v24c0 3.31152 2.68848 6 6 6h436c3.31152 0 6 -2.68848 6 -6v-24c0 -3.31152 -2.68848 -6 -6 -6z" />
    <glyph glyph-name="table" unicode="&#xf0ce;" 
d="M464 416c26.5098 0 48 -21.4902 48 -48v-352c0 -26.5098 -21.4902 -48 -48 -48h-416c-26.5098 0 -48 21.4902 -48 48v352c0 26.5098 21.4902 48 48 48h416zM160 0v96h-128v-80c0 -8.83691 7.16309 -16 16 -16h112zM160 128v96h-128v-96h128zM160 256v96h-128v-96h128z
M320 0v96h-128v-96h128zM320 128v96h-128v-96h128zM320 256v96h-128v-96h128zM480 96h-128v-96h112c8.83691 0 16 7.16309 16 16v80zM480 128v96h-128v-96h128zM480 256v96h-128v-96h128z" />
    <glyph glyph-name="caret-down" unicode="&#xf0d7;" horiz-adv-x="320" 
d="M287.968 288c28.4824 0 42.7275 -34.5283 22.6279 -54.627l-127.968 -128c-12.4971 -12.4971 -32.7588 -12.4961 -45.2549 0l-127.962 128c-20.1396 20.1387 -5.79785 54.627 22.627 54.627h255.93zM160 128l128 128h-256z" />
    <glyph glyph-name="caret-up" unicode="&#xf0d8;" horiz-adv-x="320" 
d="M32.0322 96c-28.4824 0 -42.7275 34.5283 -22.6279 54.627l127.968 128c12.4971 12.4971 32.7588 12.4961 45.2549 0l127.962 -128c20.1396 -20.1387 5.79785 -54.627 -22.627 -54.627h-255.93zM160 256l-128 -128h256z" />
    <glyph glyph-name="caret-left" unicode="&#xf0d9;" horiz-adv-x="192" 
d="M192 64.0322c0 -28.4824 -34.5283 -42.7275 -54.627 -22.6279l-128 127.968c-12.4971 12.4971 -12.4961 32.7588 0 45.2549l128 127.962c20.1387 20.1396 54.627 5.79785 54.627 -22.627v-255.93zM32 192l128 -128v256z" />
    <glyph glyph-name="caret-right" unicode="&#xf0da;" horiz-adv-x="192" 
d="M0 319.968c0 28.4824 34.5283 42.7275 54.627 22.6279l128 -127.968c12.4971 -12.4971 12.4961 -32.7588 0 -45.2549l-128 -127.962c-20.1387 -20.1396 -54.627 -5.79785 -54.627 22.627v255.93zM160 192l-128 128v-256z" />
    <glyph glyph-name="columns" unicode="&#xf0db;" 
d="M464 416c26.5098 0 48 -21.4902 48 -48v-352c0 -26.5098 -21.4902 -48 -48 -48h-416c-26.5098 0 -48 21.4902 -48 48v352c0 26.5098 21.4902 48 48 48h416zM240 0v352h-208v-336c0 -8.83691 7.16309 -16 16 -16h192zM480 16v336h-208v-352h192
c8.83691 0 16 7.16309 16 16z" />
    <glyph glyph-name="sort" unicode="&#xf0dc;" horiz-adv-x="320" 
d="M288 160c28.4004 0 42.7002 -34.5 22.7002 -54.5996l-128 -128c-12.5 -12.5 -32.7998 -12.5 -45.2998 0l-128 128c-20.2002 20.0996 -5.80078 54.5996 22.5996 54.5996h256zM160 0l128 128h-256zM32 224c-28.4004 0 -42.7002 34.5 -22.7002 54.5996l128 128
c12.5 12.5 32.7998 12.5 45.2998 0l128 -128c20.2002 -20.0996 5.80078 -54.5996 -22.5996 -54.5996h-256zM160 384l-128 -128h256z" />
    <glyph glyph-name="sort-down" unicode="&#xf0dd;" horiz-adv-x="320" 
d="M287.968 160c28.4824 0 42.7275 -34.5283 22.6279 -54.627l-127.968 -128c-12.4971 -12.4971 -32.7588 -12.4961 -45.2549 0l-127.962 128c-20.1396 20.1387 -5.79785 54.627 22.627 54.627h255.93zM160 0l128 128h-256z" />
    <glyph glyph-name="sort-up" unicode="&#xf0de;" horiz-adv-x="320" 
d="M32.0322 224c-28.4824 0 -42.7275 34.5283 -22.6279 54.627l127.968 128c12.4971 12.4971 32.7588 12.4961 45.2549 0l127.962 -128c20.1396 -20.1387 5.79785 -54.627 -22.627 -54.627h-255.93zM160 384l-128 -128h256z" />
    <glyph glyph-name="envelope" unicode="&#xf0e0;" 
d="M464 384c26.5 0 48 -21.5 48 -48v-288c0 -26.5 -21.5 -48 -48 -48h-416c-26.5 0 -48 21.5 -48 48v288c0 26.5 21.5 48 48 48h416zM48 352c-8.7998 0 -16 -7.2002 -16 -16v-41.4004c21.9004 -18.5 53.2002 -44 150.6 -121.3
c16.8008 -13.3994 50.2002 -45.7002 73.4004 -45.2998c23.2002 -0.400391 56.5 31.9004 73.4004 45.2998c97.3994 77.2998 128.699 102.8 150.6 121.3v41.4004c0 8.7998 -7.2002 16 -16 16h-416zM464 32c8.7998 0 16 7.2002 16 16v205
c-22.7998 -18.7002 -58.7998 -47.5996 -130.7 -104.7c-21 -16.7998 -56.8994 -52.5996 -93.2998 -52.2998c-36.5996 -0.200195 -72.7998 35.9004 -93.2998 52.2998c-71.9004 57.1006 -107.9 86 -130.7 104.7v-205c0 -8.7998 7.2002 -16 16 -16h416z" />
    <glyph glyph-name="undo" unicode="&#xf0e2;" 
d="M20 440h10c6.62695 0 12 -5.37305 12 -12v-110.625c43.1963 73.5781 123.239 122.91 214.793 122.624c136.387 -0.426758 247.42 -112.008 247.207 -248.396c-0.213867 -136.784 -111.166 -247.604 -248 -247.604c-63.9258 0 -122.202 24.1865 -166.178 63.9082
c-5.11328 4.61816 -5.35449 12.5605 -0.482422 17.4326l7.06934 7.06934c4.50293 4.50293 11.749 4.71387 16.4814 0.454102c37.8916 -34.1025 88.0439 -54.8643 143.109 -54.8643c117.744 0 214 95.3311 214 214c0 117.744 -95.3311 214 -214 214
c-82.8623 0 -154.737 -47.0771 -190.289 -116h114.289c6.62695 0 12 -5.37305 12 -12v-10c0 -6.62695 -5.37305 -12 -12 -12h-160c-6.62695 0 -12 5.37305 -12 12v160c0 6.62695 5.37305 12 12 12z" />
    <glyph glyph-name="gavel" unicode="&#xf0e3;" 
d="M500.892 261.439c14.8125 -14.8115 14.8096 -38.7832 0.000976562 -53.5928l-113.524 -113.532c-14.7764 -14.7764 -38.8154 -14.7764 -53.5908 0l-20.6436 20.6426c-12.6582 12.6582 -14.4707 32.1182 -5.43945 46.7246l-29.6924 29.6924l-58.8027 -58.8027
l8.08105 -8.08105c16.9316 -16.9336 16.9316 -44.4844 0 -61.417l-114.354 -114.374c-16.9346 -16.9336 -44.4854 -16.9326 -61.417 0l-38.8096 38.8105c-16.9326 16.9336 -16.9326 44.4844 0 61.417l114.374 114.354c16.9326 16.9316 44.4834 16.9336 61.417 0
l8.08203 -8.08203l58.8027 58.8027l-29.6924 29.6924c-14.6064 -9.03418 -34.0654 -7.21875 -46.7246 5.43848l-20.6426 20.6445c-14.7744 14.7754 -14.7744 38.8154 0 53.5908l113.532 113.524c14.8115 14.8135 38.7842 14.8086 53.5928 0l20.6416 -20.6348
c12.9131 -12.9111 14.3359 -32.416 5.44824 -46.7305l81.9971 -81.9961c14.3154 8.88867 33.8193 7.46387 46.7314 -5.44824zM204.653 85.7002c4.45508 4.45605 4.45508 11.707 -0.000976562 16.1631l-38.79 38.79c-4.45605 4.45703 -11.7061 4.45605 -16.1621 -0.000976562
l-114.354 -114.353c-4.45605 -4.45605 -4.45605 -11.707 0 -16.1631l38.79 -38.79v0.000976562c4.45605 -4.45703 11.707 -4.45801 16.1631 0zM478.273 230.476c0.953125 0.953125 1.72656 2.82031 1.72656 4.16797s-0.772461 3.21387 -1.72461 4.16602v0.000976562
l-20.6436 20.6436c-0.953125 0.953125 -2.81934 1.72656 -4.16699 1.72656s-3.21484 -0.773438 -4.16797 -1.72656l-16.4766 -16.4727l-125.837 125.837l16.4717 16.4746c0.953125 0.953125 1.72754 2.82031 1.72754 4.16895c0 1.34766 -0.773438 3.21387 -1.72656 4.16699
l-20.6426 20.6445c-0.954102 0.952148 -2.82129 1.72559 -4.16895 1.72559s-3.21582 -0.773438 -4.16895 -1.72559l-113.533 -113.533c-0.952148 -0.954102 -1.72363 -2.82129 -1.72363 -4.16895c0 -1.34668 0.771484 -3.21484 1.72363 -4.16797l20.6426 -20.6436
c0.954102 -0.951172 2.82031 -1.72266 4.16797 -1.72266c1.34668 0 3.21387 0.772461 4.16797 1.72363l16.4736 16.4756l125.843 -125.842l-16.4785 -16.4736c-0.951172 -0.953125 -1.72266 -2.82031 -1.72266 -4.16699c0 -1.34766 0.772461 -3.21484 1.72363 -4.16895
l20.6436 -20.6426c0.953125 -0.953125 2.82031 -1.72656 4.16797 -1.72656s3.21582 0.773438 4.16895 1.72656z" />
    <glyph glyph-name="umbrella" unicode="&#xf0e9;" horiz-adv-x="576" 
d="M575.2 194.2c5.89941 -23.9004 -22.9004 -43.7998 -43.7998 -24.9004c-48.8008 45.2998 -89.2002 28.2002 -125.4 -27.7002c-11.2998 -17.6992 -34.7998 -17 -45.5996 0c-11.6006 17.9004 -26.1006 42.9004 -56.2002 51.2002v-192.899c0 -35.3008 -28.7002 -64 -64 -64
c-27.1006 0 -51.4004 17.1992 -60.4004 42.6992c-3 8.30078 1.40039 17.5 9.7002 20.4004s17.4004 -1.5 20.4004 -9.7998c4.5 -12.7002 16.5996 -21.2998 30.1992 -21.2998c17.7002 0 32 14.2998 32 32v193.1c-25 -6.5 -41 -28 -56.1992 -51.5
c-10.8008 -16.9004 -34.2002 -17.7998 -45.6006 0c-35.5 55.4004 -75.8994 73.7998 -125.399 27.7002c-21.3008 -19 -50.1006 1.2002 -44.1006 25.0996c30.1006 123.8 145.2 199.3 271.2 205.3v32.4004c0 8.7998 7.2002 16 16 16s16 -7.2002 16 -16v-32.4004
c126.5 -6.09961 241.9 -82.3994 271.2 -205.399zM383.3 165.5c41.7998 60.7002 97.6006 82.7002 155.9 38.7998c-34.2002 104.4 -141.9 163.7 -251.2 163.7c-109.2 0 -215.9 -58.7002 -250.8 -163.2c48.5996 38.2002 114.5 28.5 156.1 -39.2998
c23.1006 34.5 50.2002 61.5 94.7002 61.5c37.4004 0 71 -21.7998 95.2998 -61.5z" />
    <glyph glyph-name="paste" unicode="&#xf0ea;" horiz-adv-x="448" 
d="M433.941 254.059c7.75977 -7.75977 14.0586 -22.9658 14.0586 -33.9404v-236.118c0 -26.5098 -21.4902 -48 -48 -48h-224c-26.5098 0 -48 21.4902 -48 48v48h-80c-26.5098 0 -48 21.4902 -48 48v288c0 26.5098 21.4902 48 48 48h66.752
c6.60547 18.623 24.3896 32 45.248 32s38.6426 -13.377 45.248 -32h66.752c26.5098 0 48 -21.4902 48 -48v-48h28.1182c10.9746 0 26.1807 -6.29883 33.9404 -14.0586zM411.314 231.432l-51.8838 51.8828c-1.72754 1.72949 -5.05664 3.6084 -7.43066 4.19434v-63.5088
h63.5088c-0.585938 2.37402 -2.46484 5.70312 -4.19434 7.43164zM160 418c-9.94141 0 -18 -8.05859 -18 -18s8.05859 -18 18 -18s18 8.05859 18 18s-8.05859 18 -18 18zM48 64h80v208c0 26.5098 21.4902 48 48 48h112v48c0 8.82227 -7.17773 16 -16 16h-66.752
c-6.60547 -18.623 -24.3887 -32 -45.248 -32s-38.6426 13.377 -45.248 32h-66.752c-8.82227 0 -16 -7.17773 -16 -16v-288c0 -8.82227 7.17773 -16 16 -16zM400 -32c8.82227 0 16 7.17773 16 16v208h-72c-13.2002 0 -24 10.7998 -24 24v72h-144
c-8.82227 0 -16 -7.17773 -16 -16v-288c0 -8.82227 7.17773 -16 16 -16h224z" />
    <glyph glyph-name="exchange" unicode="&#xf0ec;" 
d="M508.485 263.515l-92.4854 -92c-4.68652 -4.68555 -12.2842 -4.68555 -16.9697 0l-7.07129 7.07031c-4.68652 4.68652 -4.68652 12.2842 0 16.9707l60.9336 60.4443h-440.893c-6.62695 0 -12 5.37305 -12 12v8c0 6.62695 5.37305 12 12 12h440.905l-60.9463 60.4443
c-4.68652 4.68555 -4.68652 12.2832 0 16.9707l7.07031 7.07031c4.68652 4.68555 12.2842 4.68555 16.9707 0l92.4854 -92c4.68652 -4.68652 4.68555 -12.2842 0 -16.9707zM3.51465 103.515c-4.68652 4.68652 -4.68555 12.2842 0 16.9707l92.4854 92
c4.68555 4.68652 12.2842 4.68555 16.9697 0l7.07129 -7.07031c4.68652 -4.6875 4.68652 -12.2852 0 -16.9707l-60.9336 -60.4443h440.893c6.62695 0 12 -5.37305 12 -12v-8c0 -6.62695 -5.37305 -12 -12 -12h-440.905l60.9463 -60.4443
c4.68652 -4.68652 4.68652 -12.2842 0 -16.9707l-7.07031 -7.07031c-4.68652 -4.68555 -12.2842 -4.68555 -16.9707 0z" />
    <glyph glyph-name="coffee" unicode="&#xf0f4;" horiz-adv-x="576" 
d="M517.9 0h-491.801c-24.5 0 -33.0996 32 -20 32h531.801c13.0996 0 4.5 -32 -20 -32zM576 288.9c0.5 -53.4004 -42.7002 -96.9004 -96 -96.9004h-32v-32c0 -53 -43 -96 -96 -96h-192c-53 0 -96 43 -96 96v212c0 6.59961 5.40039 12 12 12h402.8
c52.7998 0 96.7002 -42.2002 97.2002 -95.0996zM416 352h-320v-192c0 -35.2998 28.7002 -64 64 -64h192c35.2998 0 64 28.7002 64 64v192zM544 288c0 35.2998 -28.7002 64 -64 64h-32v-128h32c35.2998 0 64 28.7002 64 64z" />
    <glyph glyph-name="hospital" unicode="&#xf0f8;" horiz-adv-x="448" 
d="M180 96h-40c-6.62695 0 -12 5.37305 -12 12v40c0 6.62695 5.37305 12 12 12h40c6.62695 0 12 -5.37305 12 -12v-40c0 -6.62695 -5.37305 -12 -12 -12zM268 96c-6.62695 0 -12 5.37305 -12 12v40c0 6.62695 5.37305 12 12 12h40c6.62695 0 12 -5.37305 12 -12v-40
c0 -6.62695 -5.37305 -12 -12 -12h-40zM140 192c-6.62695 0 -12 5.37305 -12 12v40c0 6.62695 5.37305 12 12 12h40c6.62695 0 12 -5.37305 12 -12v-40c0 -6.62695 -5.37305 -12 -12 -12h-40zM268 192c-6.62695 0 -12 5.37305 -12 12v40c0 6.62695 5.37305 12 12 12h40
c6.62695 0 12 -5.37305 12 -12v-40c0 -6.62695 -5.37305 -12 -12 -12h-40zM448 -64h-448v20c0 6.62695 5.37305 12 12 12h20v395c0 11.5977 10.7451 21 24 21h88v40c0 13.2549 10.7451 24 24 24h112c13.2549 0 24 -10.7451 24 -24v-40h88c13.2549 0 24 -9.40234 24 -21v-395
h20c6.62695 0 12 -5.37305 12 -12v-20zM64 -32h128v84c0 6.62695 5.37305 12 12 12h40c6.62695 0 12 -5.37305 12 -12v-84h128v384h-80v-40c0 -13.2549 -10.7451 -24 -24 -24h-112c-13.2549 0 -24 10.7451 -24 24v40h-80v-384zM266 384h-26v26c0 3.31152 -2.68848 6 -6 6
h-20c-3.31152 0 -6 -2.68848 -6 -6v-26h-26c-3.31152 0 -6 -2.68848 -6 -6v-20c0 -3.31152 2.68848 -6 6 -6h26v-26c0 -3.31152 2.68848 -6 6 -6h20c3.31152 0 6 2.68848 6 6v26h26c3.31152 0 6 2.68848 6 6v20c0 3.31152 -2.68848 6 -6 6z" />
    <glyph glyph-name="medkit" unicode="&#xf0fa;" 
d="M464 352c26.5098 0 48 -21.4902 48 -48v-288c0 -26.5098 -21.4902 -48 -48 -48h-416c-26.5098 0 -48 21.4902 -48 48v288c0 26.5098 21.4902 48 48 48h112v40c0 13.2549 10.7451 24 24 24h144c13.2549 0 24 -10.7451 24 -24v-40h112zM192 384v-32h128v32h-128zM384 320
h-256v-320h256v320zM32 16c0 -8.82227 7.17773 -16 16 -16h48v320h-48c-8.82227 0 -16 -7.17773 -16 -16v-288zM480 16v288c0 8.82227 -7.17773 16 -16 16h-48v-320h48c8.82227 0 16 7.17773 16 16zM352 176v-32c0 -6.62695 -5.37305 -12 -12 -12h-56v-56
c0 -6.62695 -5.37305 -12 -12 -12h-32c-6.62695 0 -12 5.37305 -12 12v56h-56c-6.62695 0 -12 5.37305 -12 12v32c0 6.62695 5.37305 12 12 12h56v56c0 6.62695 5.37305 12 12 12h32c6.62695 0 12 -5.37305 12 -12v-56h56c6.62695 0 12 -5.37305 12 -12z" />
    </font>
</defs>
</svg>
