<?xml version="1.0" standalone="no"?>
<!--
Font Awesome Pro 5.10.0 by @fontawesome - https://fontawesome.com
License - https://fontawesome.com/license (Commercial License)
-->
<!DOCTYPE svg PUBLIC "-//W3C//DTD SVG 1.1//EN" "http://www.w3.org/Graphics/SVG/1.1/DTD/svg11.dtd" >
<svg xmlns="http://www.w3.org/2000/svg" xmlns:xlink="http://www.w3.org/1999/xlink" version="1.1">
<metadata>
Created by FontForge 20190112 at Mon Jul 29 10:01:35 2019
 By Robert Madole
Copyright (c) Font Awesome
</metadata>
<defs>
<font id="FontAwesome5Pro-Regular" horiz-adv-x="512" >
  <font-face 
    font-family="Font Awesome 5 Pro Regular"
    font-weight="400"
    font-stretch="normal"
    units-per-em="512"
    panose-1="2 0 5 3 0 0 0 0 0 0"
    ascent="448"
    descent="-64"
    bbox="-0.0592957 -64.0996 640.032 448.1"
    underline-thickness="25"
    underline-position="-51"
    unicode-range="U+0020-F89D"
  />
    <missing-glyph />
    <glyph glyph-name="search" unicode="&#xf002;" 
d="M508.5 -20.9004c4.7002 -4.69922 4.7002 -12.2998 0 -17l-22.5996 -22.5996c-4.7002 -4.7002 -12.3008 -4.7002 -17 0l-121.4 121.4c-2.2002 2.2998 -3.5 5.2998 -3.5 8.5v13.1992c-36.5 -31.5 -84 -50.5996 -136 -50.5996c-114.9 0 -208 93.0996 -208 208
s93.0996 208 208 208s208 -93.0996 208 -208c0 -52 -19.0996 -99.5 -50.5996 -136h13.1992c3.2002 0 6.2002 -1.2002 8.5 -3.5zM208 80c88.4004 0 160 71.5996 160 160s-71.5996 160 -160 160s-160 -71.5996 -160 -160s71.5996 -160 160 -160z" />
    <glyph glyph-name="film" unicode="&#xf008;" 
d="M488 384c13.2998 0 24 -10.7002 24 -24v-336c0 -13.2998 -10.7002 -24 -24 -24h-8v20c0 6.59961 -5.40039 12 -12 12h-40c-6.59961 0 -12 -5.40039 -12 -12v-20h-320v20c0 6.59961 -5.40039 12 -12 12h-40c-6.59961 0 -12 -5.40039 -12 -12v-20h-8
c-13.2998 0 -24 10.7002 -24 24v336c0 13.2998 10.7002 24 24 24h8v-20c0 -6.59961 5.40039 -12 12 -12h40c6.59961 0 12 5.40039 12 12v20h320v-20c0 -6.59961 5.40039 -12 12 -12h40c6.59961 0 12 5.40039 12 12v20h8zM96 76v40c0 6.59961 -5.40039 12 -12 12h-40
c-6.59961 0 -12 -5.40039 -12 -12v-40c0 -6.59961 5.40039 -12 12 -12h40c6.59961 0 12 5.40039 12 12zM96 172v40c0 6.59961 -5.40039 12 -12 12h-40c-6.59961 0 -12 -5.40039 -12 -12v-40c0 -6.59961 5.40039 -12 12 -12h40c6.59961 0 12 5.40039 12 12zM96 268v40
c0 6.59961 -5.40039 12 -12 12h-40c-6.59961 0 -12 -5.40039 -12 -12v-40c0 -6.59961 5.40039 -12 12 -12h40c6.59961 0 12 5.40039 12 12zM384 60v96c0 6.59961 -5.40039 12 -12 12h-232c-6.59961 0 -12 -5.40039 -12 -12v-96c0 -6.59961 5.40039 -12 12 -12h232
c6.59961 0 12 5.40039 12 12zM384 228v96c0 6.59961 -5.40039 12 -12 12h-232c-6.59961 0 -12 -5.40039 -12 -12v-96c0 -6.59961 5.40039 -12 12 -12h232c6.59961 0 12 5.40039 12 12zM480 76v40c0 6.59961 -5.40039 12 -12 12h-40c-6.59961 0 -12 -5.40039 -12 -12v-40
c0 -6.59961 5.40039 -12 12 -12h40c6.59961 0 12 5.40039 12 12zM480 172v40c0 6.59961 -5.40039 12 -12 12h-40c-6.59961 0 -12 -5.40039 -12 -12v-40c0 -6.59961 5.40039 -12 12 -12h40c6.59961 0 12 5.40039 12 12zM480 268v40c0 6.59961 -5.40039 12 -12 12h-40
c-6.59961 0 -12 -5.40039 -12 -12v-40c0 -6.59961 5.40039 -12 12 -12h40c6.59961 0 12 5.40039 12 12z" />
    <glyph glyph-name="th-large" unicode="&#xf009;" 
d="M0 368c0 26.5098 21.4902 48 48 48h416c26.5098 0 48 -21.4902 48 -48v-352c0 -26.5098 -21.4902 -48 -48 -48h-416c-26.5098 0 -48 21.4902 -48 48v352zM232 368h-178c-3.31152 0 -6 -2.68848 -6 -6v-146h184v152zM48 168v-146c0 -3.31152 2.68848 -6 6 -6h178v152h-184
zM280 16h178c3.31152 0 6 2.68848 6 6v146h-184v-152zM464 216v146c0 3.31152 -2.68848 6 -6 6h-178v-152h184z" />
    <glyph glyph-name="th-list" unicode="&#xf00b;" 
d="M0 368c0 26.5098 21.4902 48 48 48h416c26.5098 0 48 -21.4902 48 -48v-352c0 -26.5098 -21.4902 -48 -48 -48h-416c-26.5098 0 -48 21.4902 -48 48v352zM472 144v96h-274.667v-96h274.667zM472 104h-274.667v-96h262.667c6.62695 0 12 5.37305 12 12v84zM40 240v-96
h117.333v96h-117.333zM197.333 280h274.667v84c0 6.62695 -5.37305 12 -12 12h-262.667v-96zM157.333 376h-105.333c-6.62695 0 -12 -5.37305 -12 -12v-84h117.333v96zM40 104v-84c0 -6.62695 5.37305 -12 12 -12h105.333v96h-117.333z" />
    <glyph glyph-name="check" unicode="&#xf00c;" 
d="M435.848 364.534c4.68652 4.68555 12.2842 4.68555 16.9707 0l28.2832 -28.2842c4.68652 -4.68652 4.68652 -12.2852 0 -16.9707l-299.812 -299.813c-4.6875 -4.68555 -12.2852 -4.68555 -16.9707 0l-133.421 133.421c-4.68652 4.6875 -4.68652 12.2852 0 16.9717
l28.2832 28.2832c4.6875 4.68652 12.2852 4.68652 16.9717 0l96.6514 -96.6514z" />
    <glyph glyph-name="search-plus" unicode="&#xf00e;" 
d="M312 252v-24c0 -6.59961 -5.40039 -12 -12 -12h-68v-68c0 -6.59961 -5.40039 -12 -12 -12h-24c-6.59961 0 -12 5.40039 -12 12v68h-68c-6.59961 0 -12 5.40039 -12 12v24c0 6.59961 5.40039 12 12 12h68v68c0 6.59961 5.40039 12 12 12h24c6.59961 0 12 -5.40039 12 -12
v-68h68c6.59961 0 12 -5.40039 12 -12zM508.5 -37.9004l-22.5996 -22.5996c-4.7002 -4.7002 -12.3008 -4.7002 -17 0l-121.4 121.4c-2.2998 2.2998 -3.5 5.2998 -3.5 8.5v13.1992c-36.5 -31.5 -84 -50.5996 -136 -50.5996c-114.9 0 -208 93.0996 -208 208
s93.0996 208 208 208s208 -93.0996 208 -208c0 -52 -19.0996 -99.5 -50.5996 -136h13.1992c3.2002 0 6.2002 -1.2998 8.5 -3.5l121.4 -121.4c4.7002 -4.69922 4.7002 -12.2998 0 -17zM368 240c0 88.4004 -71.5996 160 -160 160s-160 -71.5996 -160 -160
s71.5996 -160 160 -160s160 71.5996 160 160z" />
    <glyph glyph-name="power-off" unicode="&#xf011;" 
d="M388.5 401.7c69.4004 -44 115.5 -121.5 115.5 -209.7c0 -136.8 -110.8 -247.7 -247.5 -248c-136.5 -0.299805 -248.3 111 -248.5 247.6c-0.0996094 88.4004 46 166.101 115.5 210.101c5.7998 3.7002 13.5 1.7998 16.9004 -4.2002l11.7998 -20.9004
c3.09961 -5.5 1.39941 -12.5 -3.90039 -15.8994c-55.5 -35.6006 -92.2998 -97.7998 -92.2998 -168.7c0 -110.5 89.5 -200 200 -200s200 89.5 200 200c0 70.9004 -36.7998 133.1 -92.2998 168.6c-5.2998 3.40039 -7 10.4004 -3.90039 15.9004l11.7998 20.9004
c3.30078 6.09961 11.1006 7.89941 16.9004 4.2998zM280 172c0 -6.59961 -5.40039 -12 -12 -12h-24c-6.59961 0 -12 5.40039 -12 12v264c0 6.59961 5.40039 12 12 12h24c6.59961 0 12 -5.40039 12 -12v-264z" />
    <glyph glyph-name="cog" unicode="&#xf013;" 
d="M452.515 211c1.2207 -12.6504 1.2207 -25.3496 0 -38l31.8438 -18.3818c9.42578 -5.44141 13.9951 -16.542 11.1768 -27.0537c-11.4043 -42.5312 -33.8418 -80.5479 -64.0586 -110.798c-7.67969 -7.6875 -19.5742 -9.24512 -28.9844 -3.81055l-31.7852 18.3584
c-8.56934 -6.13281 -23.3086 -14.6533 -32.8994 -19.0195v-36.7529c0 -10.8848 -7.32422 -20.4082 -17.8438 -23.2061c-41.8125 -11.1211 -86.1689 -11.1055 -127.93 0.000976562c-9.84766 2.62012 -17.8408 13.0156 -17.8418 23.2061v36.7529
c-9.59082 4.36621 -24.3301 12.8867 -32.8994 19.0195l-31.7852 -18.3584c-9.41016 -5.43457 -21.3047 -3.87695 -28.9844 3.81055c-30.2168 30.25 -52.6543 68.2666 -64.0586 110.798c-2.81836 10.5117 1.75098 21.6123 11.1768 27.0537l31.8438 18.3818
c-0.505859 5.23145 -0.915039 13.7432 -0.915039 19c0 5.25586 0.40918 13.7676 0.915039 18.999l-31.8438 18.3828c-9.42578 5.44141 -13.9951 16.542 -11.1768 27.0537c11.4043 42.5322 33.8418 80.5479 64.0586 110.798c7.67969 7.6875 19.5742 9.24609 28.9844 3.81055
l31.7852 -18.3584c8.56934 6.13281 23.3086 14.6543 32.8994 19.0205v36.7529c0 10.8848 7.32422 20.4082 17.8438 23.2061c41.8125 11.1201 86.1689 11.1064 127.93 -0.000976562c9.84766 -2.62012 17.8408 -13.0156 17.8418 -23.2061v-36.7529
c9.59082 -4.36621 24.3301 -12.8877 32.8994 -19.0205l31.7852 18.3584c9.41016 5.43457 21.3047 3.87695 28.9844 -3.81055c30.2168 -30.25 52.6543 -68.2666 64.0586 -110.798c2.81836 -10.5117 -1.75098 -21.6123 -11.1768 -27.0537zM399.836 147.981
c7.63379 41.3184 7.63086 46.7363 0 88.0361l43.8193 25.2891c-6.57422 17.7559 -21.7383 43.9766 -33.8496 58.5293l-43.8291 -25.3086c-31.9717 27.3867 -36.6631 30.0791 -76.168 44.0283v50.5996c-9.26367 1.58105 -24.4102 2.86426 -33.8086 2.86426
s-24.5449 -1.2832 -33.8086 -2.86426v-50.5986c-39.5088 -13.9502 -44.1846 -16.6318 -76.168 -44.0283l-43.8291 25.3086c-14.5391 -17.4795 -25.999 -37.2998 -33.8496 -58.5293l43.8193 -25.2891c-7.63379 -41.3184 -7.62988 -46.7383 0 -88.0371l-43.8193 -25.2891
c6.57422 -17.7549 21.7393 -43.9756 33.8496 -58.5283l43.8291 25.3086c31.9717 -27.3867 36.6631 -30.0791 76.168 -44.0283v-50.5996c9.26367 -1.58105 24.4102 -2.86426 33.8086 -2.86426s24.5449 1.2832 33.8086 2.86426v50.5996
c39.5098 13.9521 44.1846 16.6318 76.168 44.0283l43.8291 -25.3086c12.1113 14.5527 27.2754 40.7734 33.8496 58.5283zM256 288c52.9346 0 96 -43.0654 96 -96s-43.0654 -96 -96 -96s-96 43.0654 -96 96s43.0654 96 96 96zM256 144c26.4678 0 48 21.5322 48 48
c0 26.4668 -21.5322 48 -48 48s-48 -21.5332 -48 -48c0 -26.4678 21.5322 -48 48 -48z" />
    <glyph glyph-name="download" unicode="&#xf019;" horiz-adv-x="576" 
d="M528 160c26.5 0 48 -21.5 48 -48v-128c0 -26.5 -21.5 -48 -48 -48h-480c-26.5 0 -48 21.5 -48 48v128c0 26.5 21.5 48 48 48h92.2998l-46.0996 46.0996c-30.2998 30.2002 -8.7002 81.9004 33.8994 81.9004h64v112c0 26.5 21.5 48 48 48h96c26.5 0 48 -21.5 48 -48v-112
h64c42.7002 0 64 -51.7998 33.9004 -81.9004l-46.0996 -46.0996h92.0996zM128 240l160 -160l160 160h-112v160h-96v-160h-112zM528 -16v128h-140.2l-65.8994 -65.9004c-18.8008 -18.6992 -49.1006 -18.7998 -67.9004 0l-65.9004 65.9004h-140.1v-128h480zM440 48
c0 13.2998 10.7002 24 24 24s24 -10.7002 24 -24s-10.7002 -24 -24 -24s-24 10.7002 -24 24z" />
    <glyph glyph-name="inbox" unicode="&#xf01c;" horiz-adv-x="576" 
d="M567.403 212.358c5.59668 -8.04688 8.59668 -17.6113 8.59668 -27.4121v-136.946c0 -26.5098 -21.4902 -48 -48 -48h-480c-26.5098 0 -48 21.4902 -48 48v136.946c0 8.30957 3.85156 20.5898 8.59668 27.4121l105.08 151.053
c7.90625 11.3652 25.5596 20.5889 39.4033 20.5889h0.000976562h269.838h0.000976562c13.8438 0 31.4971 -9.22363 39.4033 -20.5889zM153.081 336l-77.9131 -112h122.498l32 -64h116.668l32 64h122.498l-77.9131 112h-269.838zM528 48v128h-120l-32 -64h-176l-32 64h-120
v-128h480z" />
    <glyph glyph-name="lock" unicode="&#xf023;" horiz-adv-x="448" 
d="M400 256c26.5 0 48 -21.5 48 -48v-224c0 -26.5 -21.5 -48 -48 -48h-352c-26.5 0 -48 21.5 -48 48v224c0 26.5 21.5 48 48 48h32v48c0 79.5 64.7998 144.2 144.4 144c79.5996 -0.200195 143.6 -65.7998 143.6 -145.4v-46.5996h32zM128 304v-48h192v48
c0 52.9004 -43.0996 96 -96 96s-96 -43.0996 -96 -96zM400 -16v224h-352v-224h352z" />
    <glyph glyph-name="headphones" unicode="&#xf025;" 
d="M256 416c141.503 0 256 -114.52 256 -256v-49.7129c0 -7.78418 -5.51855 -17.1768 -12.3193 -20.9658l-19.7021 -10.9775c-0.886719 -61.0918 -50.6768 -110.344 -111.979 -110.344h-24c-13.2549 0 -24 10.7451 -24 24v176c0 13.2549 10.7451 24 24 24h24
c40.7441 0 76.4023 -21.7578 96 -54.2871v22.2871c0 114.691 -93.3086 208 -208 208s-208 -93.3086 -208 -208v-22.2871c19.5977 32.5293 55.2559 54.2871 96 54.2871h24c13.2549 0 24 -10.7451 24 -24v-176c0 -13.2549 -10.7451 -24 -24 -24h-24
c-61.3018 0 -111.092 49.252 -111.979 110.343l-19.7021 10.9775c-6.80078 3.78809 -12.3193 13.1816 -12.3193 20.9658v49.7139c0 141.503 114.52 256 256 256zM144 144c-35.29 0 -64 -28.71 -64 -64s28.71 -64 64 -64v128zM368 16c35.29 0 64 28.71 64 64
s-28.71 64 -64 64v-128z" />
    <glyph glyph-name="qrcode" unicode="&#xf029;" horiz-adv-x="448" 
d="M0 224v192h192v-192h-192zM40 376v-112h112v112h-112zM256 416h192v-192h-192v192zM408 264v112h-112v-112h112zM0 -32v192h192v-192h-192zM40 120v-112h112v112h-112zM72 88h48v-48h-48v48zM72 344h48v-48h-48v48zM376 296h-48v48h48v-48zM416 160h32v-128h-128v32h-32
v-96h-32v192h96v-32h64v32zM416 0h32v-32h-32v32zM352 0h32v-32h-32v32z" />
    <glyph glyph-name="barcode" unicode="&#xf02a;" 
d="M0 0v384h18v-384h-18zM26.8574 0.273438v383.727h9.14258v-383.727h-9.14258zM54 0.273438v383.727h8.85742v-383.727h-8.85742zM98.8574 0.273438v383.727h8.85645v-383.727h-8.85645zM134.857 0.273438v383.727h17.7139v-383.727h-17.7139zM179.714 0.273438v383.727
h8.85742v-383.727h-8.85742zM197.714 0.273438v383.727h8.85742v-383.727h-8.85742zM215.714 0.273438v383.727h8.85742v-383.727h-8.85742zM251.429 0.273438v383.727h18v-383.727h-18zM296.286 0.273438v383.727h18v-383.727h-18zM332.285 0.273438v383.727h18.001
v-383.727h-18.001zM368.286 0.273438v383.727h18.001v-383.727h-18.001zM395.143 0.273438v383.727h18v-383.727h-18zM440.286 0.273438v383.727h26.8564v-383.727h-26.8564zM476 0.273438v383.727h9.14258v-383.727h-9.14258zM494 0v384h18v-384h-18z" />
    <glyph glyph-name="tag" unicode="&#xf02b;" 
d="M497.941 222.059c18.7441 -18.7441 18.7441 -49.1367 0 -67.8818l-204.118 -204.118c-18.7451 -18.7451 -49.1377 -18.7441 -67.8818 0l-211.883 211.883c-7.75977 7.75977 -14.0586 22.9648 -14.0586 33.9404v0v204.118c0 26.5098 21.4902 48 48 48h204.118
c10.9746 0 26.1807 -6.29883 33.9404 -14.0586zM259.886 -15.9961l204.114 204.114l-211.882 211.882h-204.118v-204.118zM192 304c0 -26.5098 -21.4902 -48 -48 -48s-48 21.4902 -48 48s21.4902 48 48 48s48 -21.4902 48 -48z" />
    <glyph glyph-name="tags" unicode="&#xf02c;" horiz-adv-x="640" 
d="M625.941 154.177l-204.118 -204.118c-18.7461 -18.7451 -49.1387 -18.7441 -67.8818 0l-0.360352 0.360352l238.419 237.699l-260.603 259.882h48.7207c10.9746 0 26.1807 -6.29883 33.9404 -14.0586l211.883 -211.883c18.7441 -18.7441 18.7441 -49.1367 0 -67.8818z
M497.941 154.177l-204.118 -204.118c-9.37207 -9.37305 -21.6572 -14.0586 -33.9414 -14.0586s-24.5684 4.68555 -33.9404 14.0586l-211.883 211.883c-7.75977 7.75977 -14.0586 22.9658 -14.0586 33.9404v204.118c0 26.5098 21.4902 48 48 48h204.118v0
c10.9756 0 26.1807 -6.29883 33.9404 -14.0586l211.883 -211.883c18.7441 -18.7441 18.7441 -49.1367 0 -67.8818zM464 188.118l-211.882 211.882h-204.118v-204.118l211.886 -211.878zM144 352c26.5098 0 48 -21.4902 48 -48s-21.4902 -48 -48 -48s-48 21.4902 -48 48
s21.4902 48 48 48z" />
    <glyph glyph-name="book" unicode="&#xf02d;" horiz-adv-x="448" 
d="M128 296v32c0 4.40039 3.59961 8 8 8h208c4.40039 0 8 -3.59961 8 -8v-32c0 -4.40039 -3.59961 -8 -8 -8h-208c-4.40039 0 -8 3.59961 -8 8zM136 208c-4.40039 0 -8 3.59961 -8 8v32c0 4.40039 3.59961 8 8 8h208c4.40039 0 8 -3.59961 8 -8v-32
c0 -4.40039 -3.59961 -8 -8 -8h-208zM435.1 48.2998c-4.19922 -13 -4.19922 -51.5996 0 -64.5996c7.30078 -1.40039 12.9004 -7.90039 12.9004 -15.7002v-16c0 -8.7998 -7.2002 -16 -16 -16h-352c-44.2002 0 -80 35.7998 -80 80v352c0 44.2002 35.7998 80 80 80h352
c8.7998 0 16 -7.2002 16 -16v-368c0 -7.7998 -5.5 -14.2002 -12.9004 -15.7002zM394 48h-314c-17.5996 0 -32 -14.4004 -32 -32c0 -17.7002 14.2998 -32 32 -32h314c-2.7002 17.2998 -2.7002 46.7002 0 64zM400 400h-320c-17.7002 0 -32 -14.2998 -32 -32v-278.7
c9.7998 4.2998 20.5996 6.7002 32 6.7002h320v304z" />
    <glyph glyph-name="camera" unicode="&#xf030;" 
d="M342.7 304l-23.9004 64h-125.5l-24 -64h-121.3v-288h416v288h-121.3zM324.3 416c16.7002 0 31.6006 -10.2998 37.4004 -26l14.2998 -38h88c26.5 0 48 -21.5 48 -48v-288c0 -26.5 -21.5 -48 -48 -48h-416c-26.5 0 -48 21.5 -48 48v288c0 26.5 21.5 48 48 48h88
l12.4004 32.9004c7 18.6992 24.8994 31.0996 44.8994 31.0996h131zM256 40c-66.2002 0 -120 53.7998 -120 120s53.7998 120 120 120s120 -53.7998 120 -120s-53.7998 -120 -120 -120zM256 232c-39.7002 0 -72 -32.2998 -72 -72s32.2998 -72 72 -72s72 32.2998 72 72
s-32.2998 72 -72 72z" />
    <glyph glyph-name="pencil" unicode="&#xf040;" 
d="M491.609 374.375c27.209 -27.208 26.958 -69.7559 0.62793 -96.0869l-315.326 -317.378l-148.995 -24.582c-16.2188 -2.67383 -30.2617 11.3721 -27.5869 27.5869l24.5811 148.996l317.378 315.304c26.3838 26.3818 69.082 26.3779 95.46 -0.000976562zM120.644 146
h41.3564v-48h48v-41.3555l169.154 170.26l-88.251 88.251zM82.1318 -10.1318l73.5859 12.1406l18.2822 18.4014v41.5898h-48v48h-41.5908l-18.4004 -18.2822l-12.1396 -73.5869zM461.117 309.401c9.31055 9.31152 9.25 23.9834 -0.62793 33.8604l-53.8545 53.8545
c-9.25781 9.25781 -24.0889 9.14453 -33.2354 -0.000976562l-0.0507812 -0.0498047l-0.0498047 -0.0507812l-48.3438 -48.0293l88.0303 -88.0303l48.0293 48.3438l0.0517578 0.0507812z" />
    <glyph glyph-name="map-marker" unicode="&#xf041;" horiz-adv-x="384" 
d="M192 448c105.986 0 192 -85.9033 192 -192c0 -71.1025 -23.9248 -93.2344 -151.272 -297.424c-18.7627 -30.083 -62.6719 -30.1191 -81.4561 0c-127.28 204.083 -151.271 226.307 -151.271 297.424c0 105.986 85.9033 192 192 192zM192 -16
c128.834 206.575 144 217.447 144 272c0 79.5293 -64.4707 144 -144 144s-144 -64.4707 -144 -144c0 -54.7881 16.5762 -67.6855 144 -272z" />
    <glyph glyph-name="adjust" unicode="&#xf042;" 
d="M256 392c-110.532 0 -200 -89.4512 -200 -200c0 -110.532 89.4512 -200 200 -200c110.532 0 200 89.4512 200 200c0 110.532 -89.4512 200 -200 200zM256 440c136.967 0 248 -111.033 248 -248s-111.033 -248 -248 -248s-248 111.033 -248 248s111.033 248 248 248z
M256 344v-304c-83.9473 0 -152 68.0527 -152 152s68.0527 152 152 152z" />
    <glyph glyph-name="arrows" unicode="&#xf047;" 
d="M360.549 35.7842l-96.0635 -96.2695c-4.68652 -4.68555 -12.2842 -4.68555 -16.9717 0l-96.0635 96.2695c-4.68652 4.68555 -4.68652 12.2842 0 16.9707l19.626 19.626c4.75293 4.75293 12.4834 4.6748 17.1396 -0.172852l41.7842 -44.9883h2v140.78h-140.78v-2
l44.9863 -41.7832c4.84863 -4.65625 4.92676 -12.3867 0.172852 -17.1396l-19.626 -19.626c-4.68555 -4.68652 -12.2842 -4.68652 -16.9707 0l-96.2676 96.0635c-4.68555 4.68652 -4.68555 12.2842 0 16.9717l96.2695 96.0635c4.68555 4.68652 12.2842 4.68652 16.9697 0
l19.626 -19.626c4.75293 -4.75293 4.6748 -12.4834 -0.172852 -17.1396l-44.9873 -41.7842v-2h140.78v140.78h-2l-41.7832 -44.9863c-4.65625 -4.84863 -12.3867 -4.92676 -17.1396 -0.172852l-19.626 19.626c-4.68652 4.68555 -4.68652 12.2842 0 16.9707l96.0635 96.2695
c4.68652 4.68555 12.2842 4.68555 16.9717 0l96.0635 -96.2695c4.68652 -4.68555 4.68652 -12.2842 0 -16.9707l-19.626 -19.626c-4.75293 -4.75293 -12.4834 -4.6748 -17.1396 0.172852l-41.7842 44.9863h-2v-140.78h140.78v2l-44.9863 41.7832
c-4.84863 4.65625 -4.92676 12.3867 -0.172852 17.1396l19.626 19.626c4.68555 4.68652 12.2842 4.68652 16.9707 0l96.2695 -96.0635c4.68555 -4.68652 4.68555 -12.2842 0 -16.9717l-96.2695 -96.0635c-4.68555 -4.68652 -12.2842 -4.68652 -16.9707 0l-19.626 19.626
c-4.75293 4.75293 -4.6748 12.4834 0.172852 17.1396l44.9863 41.7842v2h-140.78v-140.78h2l41.7832 44.9863c4.65625 4.84863 12.3867 4.92676 17.1396 0.172852l19.626 -19.626c4.6875 -4.68457 4.6875 -12.2832 0 -16.9688z" />
    <glyph glyph-name="step-backward" unicode="&#xf048;" horiz-adv-x="448" 
d="M76 -32c-6.59961 0 -12 5.40039 -12 12v424c0 6.59961 5.40039 12 12 12h24c6.59961 0 12 -5.40039 12 -12v-184.1l219.5 188.699c20.5996 17.2002 52.5 2.80078 52.5 -24.5996v-384c0 -27.4004 -31.9004 -41.7998 -52.5 -24.5996l-219.5 187.6v-183
c0 -6.59961 -5.40039 -12 -12 -12h-24zM336 349.5l-186.7 -158l186.7 -157.1v315.1z" />
    <glyph glyph-name="fast-backward" unicode="&#xf049;" 
d="M12 0c-6.59961 0 -12 5.40039 -12 12v360c0 6.59961 5.40039 12 12 12h24c6.59961 0 12 -5.40039 12 -12v-159.4c1.09961 1.2002 2.2002 2.30078 3.5 3.40039l184 160.5c20.5996 17.2002 52.5 2.7998 52.5 -24.5996v-125l171.5 149.699
c20.5996 17.2002 52.5 2.80078 52.5 -24.5996v-320c0 -27.4004 -31.9004 -41.7998 -52.5 -24.5996l-171.5 148.6v-124c0 -27.4004 -31.9004 -41.7998 -52.5 -24.5996l-184 159.5c-1.2998 1 -2.40039 2.19922 -3.5 3.39941v-158.3c0 -6.59961 -5.40039 -12 -12 -12h-24z
M464 316.8l-143.6 -125.3l143.6 -124.5v249.8zM240 316.8l-143.6 -125.3l143.6 -124.5v249.8z" />
    <glyph glyph-name="backward" unicode="&#xf04a;" 
d="M267.5 166.8c-15.2998 12.7998 -15.2998 36.4004 0 49.2002l192 160.6c20.5996 17.2002 52.5 2.80078 52.5 -24.5996v-320c0 -27.4004 -31.9004 -41.7998 -52.5 -24.5996zM464 317.7l-151 -126.3l151 -125.4v251.7zM11.5 166.8
c-15.2998 12.7998 -15.2998 36.4004 0 49.2002l192 160.6c20.5996 17.2002 52.5 2.80078 52.5 -24.5996v-320c0 -27.4004 -31.9004 -41.7998 -52.5 -24.5996zM208 317.7l-151 -126.3l151 -125.4v251.7z" />
    <glyph glyph-name="play" unicode="&#xf04b;" horiz-adv-x="448" 
d="M424.4 233.3c31.5 -18.5 31.3994 -64.0996 0 -82.5996l-352 -208c-31.7002 -18.7998 -72.4004 3.7998 -72.4004 41.2998v416.1c0 41.8008 43.7998 58.2002 72.4004 41.3008zM48 -5.5c0 -4.59961 5.09961 -7.5 9.09961 -5.2002l334.2 197.601
c3.90039 2.2998 3.90039 8 0 10.2998l-334.2 197.5c-4 2.2998 -9.09961 -0.600586 -9.09961 -5.2002v-395z" />
    <glyph glyph-name="pause" unicode="&#xf04c;" horiz-adv-x="448" 
d="M192 369v-352c0 -26.5 -21.5 -48 -48 -48h-96c-26.5 0 -48 21.5 -48 48v352c0 26.5 21.5 48 48 48h96c26.5 0 48 -21.5 48 -48zM144 23v340c0 3.2998 -2.7002 6 -6 6h-84c-3.2998 0 -6 -2.7002 -6 -6v-340c0 -3.2998 2.7002 -6 6 -6h84c3.2998 0 6 2.7002 6 6zM448 369
v-352c0 -26.5 -21.5 -48 -48 -48h-96c-26.5 0 -48 21.5 -48 48v352c0 26.5 21.5 48 48 48h96c26.5 0 48 -21.5 48 -48zM400 23v340c0 3.2998 -2.7002 6 -6 6h-84c-3.2998 0 -6 -2.7002 -6 -6v-340c0 -3.2998 2.7002 -6 6 -6h84c3.2998 0 6 2.7002 6 6z" />
    <glyph glyph-name="stop" unicode="&#xf04d;" horiz-adv-x="448" 
d="M400 416c26.5 0 48 -21.5 48 -48v-352c0 -26.5 -21.5 -48 -48 -48h-352c-26.5 0 -48 21.5 -48 48v352c0 26.5 21.5 48 48 48h352zM394 16c3.2998 0 6 2.7002 6 6v340c0 3.2998 -2.7002 6 -6 6h-340c-3.2998 0 -6 -2.7002 -6 -6v-340c0 -3.2998 2.7002 -6 6 -6h340z" />
    <glyph glyph-name="forward" unicode="&#xf04e;" 
d="M244.5 217.2c15.2998 -12.7998 15.2998 -36.4004 0 -49.2002l-192 -160.6c-20.5996 -17.2002 -52.5 -2.80078 -52.5 24.5996v320c0 27.4004 31.9004 41.7002 52.5 24.5996zM48 66.2998l151 126.2l-151 125.4v-251.601zM500.5 217.2
c15.2998 -12.7998 15.2998 -36.4004 0 -49.2002l-192 -160.6c-20.5996 -17.2002 -52.5 -2.80078 -52.5 24.5996v320c0 27.4004 31.9004 41.7002 52.5 24.5996zM304 66.2998l151 126.2l-151 125.4v-251.601z" />
    <glyph glyph-name="fast-forward" unicode="&#xf050;" 
d="M500 384c6.59961 0 12 -5.40039 12 -12v-360c0 -6.59961 -5.40039 -12 -12 -12h-24c-6.59961 0 -12 5.40039 -12 12v159.3c-1.09961 -1.2002 -2.2002 -2.2998 -3.5 -3.39941l-184 -160.5c-20.5996 -17.2002 -52.5 -2.80078 -52.5 24.5996v125l-171.5 -149.6
c-20.5996 -17.2002 -52.5 -2.80078 -52.5 24.5996v320c0 27.4004 31.9004 41.7002 52.5 24.5996l171.5 -148.6v124c0 27.4004 31.9004 41.7002 52.5 24.5996l184 -159.5c1.2998 -1 2.40039 -2.19922 3.5 -3.39941v158.3c0 6.59961 5.40039 12 12 12h24zM48 67.2002
l143.6 125.3l-143.6 124.4v-249.7zM272 67.2002l143.6 125.3l-143.6 124.4v-249.7z" />
    <glyph glyph-name="step-forward" unicode="&#xf051;" horiz-adv-x="448" 
d="M372 416c6.59961 0 12 -5.40039 12 -12v-424c0 -6.59961 -5.40039 -12 -12 -12h-24c-6.59961 0 -12 5.40039 -12 12v184.1l-219.5 -188.699c-20.5996 -17.2002 -52.5 -2.80078 -52.5 24.5996v384c0 27.4004 31.9004 41.7002 52.5 24.5996l219.5 -187.6v183
c0 6.59961 5.40039 12 12 12h24zM112 34.5l186.7 158l-186.7 157.1v-315.1z" />
    <glyph glyph-name="eject" unicode="&#xf052;" horiz-adv-x="448" 
d="M400 128c26.5098 0 48 -21.4902 48 -48v-64c0 -26.5098 -21.4902 -48 -48 -48h-352c-26.5098 0 -48 21.4902 -48 48v64c0 26.5098 21.4902 48 48 48h352zM400 16v64h-352v-64h352zM48.0479 144c-42.7227 0 -64.0898 51.792 -33.9404 81.9414l175.951 176
c18.7451 18.7451 49.1377 18.7441 67.8828 0l175.942 -176c30.21 -30.21 8.69629 -81.9414 -33.9404 -81.9414h-351.896zM224 368l-176 -176h352z" />
    <glyph glyph-name="chevron-left" unicode="&#xf053;" horiz-adv-x="256" 
d="M231.293 -25.8994c-4.68555 -4.68652 -12.2842 -4.68652 -16.9707 -0.000976562l-209.414 209.414c-4.68652 4.6875 -4.68652 12.2852 0 16.9717l209.414 209.415c4.68652 4.68555 12.2852 4.68555 16.9707 0l19.7988 -19.7998
c4.68652 -4.68652 4.68652 -12.2842 0 -16.9707l-180.699 -181.13l180.699 -181.129c4.68652 -4.6875 4.68652 -12.2852 0 -16.9707z" />
    <glyph glyph-name="chevron-right" unicode="&#xf054;" horiz-adv-x="256" 
d="M24.707 409.899c4.68555 4.68652 12.2842 4.68652 16.9707 0l209.414 -209.414c4.68652 -4.6875 4.68652 -12.2852 0 -16.9717l-209.414 -209.414c-4.68652 -4.68555 -12.2852 -4.68555 -16.9707 0l-19.7988 19.7998c-4.68652 4.68652 -4.68652 12.2842 0 16.9707
l180.699 181.13l-180.699 181.13c-4.68652 4.6875 -4.68652 12.2852 0 16.9707z" />
    <glyph glyph-name="plus-circle" unicode="&#xf055;" 
d="M384 208v-32c0 -6.59961 -5.40039 -12 -12 -12h-88v-88c0 -6.59961 -5.40039 -12 -12 -12h-32c-6.59961 0 -12 5.40039 -12 12v88h-88c-6.59961 0 -12 5.40039 -12 12v32c0 6.59961 5.40039 12 12 12h88v88c0 6.59961 5.40039 12 12 12h32c6.59961 0 12 -5.40039 12 -12
v-88h88c6.59961 0 12 -5.40039 12 -12zM504 192c0 -137 -111 -248 -248 -248s-248 111 -248 248s111 248 248 248s248 -111 248 -248zM456 192c0 110.5 -89.5 200 -200 200s-200 -89.5 -200 -200s89.5 -200 200 -200s200 89.5 200 200z" />
    <glyph glyph-name="minus-circle" unicode="&#xf056;" 
d="M140 164c-6.59961 0 -12 5.40039 -12 12v32c0 6.59961 5.40039 12 12 12h232c6.59961 0 12 -5.40039 12 -12v-32c0 -6.59961 -5.40039 -12 -12 -12h-232zM504 192c0 -137 -111 -248 -248 -248s-248 111 -248 248s111 248 248 248s248 -111 248 -248zM456 192
c0 110.5 -89.5 200 -200 200s-200 -89.5 -200 -200s89.5 -200 200 -200s200 89.5 200 200z" />
    <glyph glyph-name="info-circle" unicode="&#xf05a;" 
d="M256 440c136.957 0 248 -111.083 248 -248c0 -136.997 -111.043 -248 -248 -248s-248 111.003 -248 248c0 136.917 111.043 248 248 248zM256 -8c110.569 0 200 89.4697 200 200c0 110.529 -89.5088 200 -200 200c-110.528 0 -200 -89.5049 -200 -200
c0 -110.569 89.4678 -200 200 -200zM256 330c23.1963 0 42 -18.8037 42 -42s-18.8037 -42 -42 -42s-42 18.8037 -42 42s18.8037 42 42 42zM312 76c0 -6.62695 -5.37305 -12 -12 -12h-88c-6.62695 0 -12 5.37305 -12 12v24c0 6.62695 5.37305 12 12 12h12v64h-12
c-6.62695 0 -12 5.37305 -12 12v24c0 6.62695 5.37305 12 12 12h64c6.62695 0 12 -5.37305 12 -12v-100h12c6.62695 0 12 -5.37305 12 -12v-24z" />
    <glyph glyph-name="crosshairs" unicode="&#xf05b;" 
d="M500 216c6.62695 0 12 -5.37305 12 -12v-24c0 -6.62695 -5.37305 -12 -12 -12h-29.334c-11.0693 -100.115 -90.5508 -179.597 -190.666 -190.666v-29.334c0 -6.62695 -5.37305 -12 -12 -12h-24c-6.62695 0 -12 5.37305 -12 12v29.334
c-100.115 11.0693 -179.597 90.5508 -190.666 190.666h-29.334c-6.62695 0 -12 5.37305 -12 12v24c0 6.62695 5.37305 12 12 12h29.334c11.0693 100.115 90.5508 179.597 190.666 190.666v29.334c0 6.62695 5.37305 12 12 12h24c6.62695 0 12 -5.37305 12 -12v-29.334
c100.115 -11.0693 179.597 -90.5508 190.666 -190.666h29.334zM280 25.6992c73.5322 10.4551 131.84 68.7275 142.301 142.301h-42.3008c-6.62695 0 -12 5.37305 -12 12v24c0 6.62695 5.37305 12 12 12h42.3008c-10.4551 73.5322 -68.7275 131.84 -142.301 142.301v-42.3008
c0 -6.62695 -5.37305 -12 -12 -12h-24c-6.62695 0 -12 5.37305 -12 12v42.3008c-73.5322 -10.4551 -131.84 -68.7275 -142.301 -142.301h42.3008c6.62695 0 12 -5.37305 12 -12v-24c0 -6.62695 -5.37305 -12 -12 -12h-42.3008
c10.4551 -73.5322 68.7275 -131.84 142.301 -142.301v42.3008c0 6.62695 5.37305 12 12 12h24c6.62695 0 12 -5.37305 12 -12v-42.3008zM288 192c0 -17.6729 -14.3271 -32 -32 -32s-32 14.3271 -32 32s14.3271 32 32 32s32 -14.3271 32 -32z" />
    <glyph glyph-name="ban" unicode="&#xf05e;" 
d="M256 440c136.967 0 248 -111.033 248 -248s-111.033 -248 -248 -248s-248 111.033 -248 248s111.033 248 248 248zM397.421 333.421c-73.1562 73.1572 -187.277 77.0693 -264.865 15.9639l280.829 -280.829c61.0859 77.5645 57.2119 191.69 -15.9639 264.865z
M114.579 50.5791c73.1562 -73.1572 187.277 -77.0693 264.865 -15.9639l-280.829 280.829c-61.0859 -77.5645 -57.2119 -191.69 15.9639 -264.865z" />
    <glyph glyph-name="arrow-left" unicode="&#xf060;" horiz-adv-x="448" 
d="M229.9 -25.8994c-4.6875 -4.68652 -12.2852 -4.68652 -16.9717 -0.000976562l-209.414 209.414c-4.68555 4.6875 -4.68555 12.2852 0 16.9717l209.414 209.414c4.6875 4.68555 12.2852 4.68555 16.9717 0l19.7988 -19.7988c4.68555 -4.68652 4.68555 -12.2842 0 -16.9707
l-155.13 -155.13h341.431c6.62695 0 12 -5.37305 12 -12v-28c0 -6.62695 -5.37305 -12 -12 -12h-341.431l155.13 -155.129c4.68555 -4.6875 4.68555 -12.2852 0 -16.9707z" />
    <glyph glyph-name="arrow-right" unicode="&#xf061;" horiz-adv-x="448" 
d="M218.101 409.899c4.68652 4.68652 12.2842 4.68652 16.9707 0l209.415 -209.414c4.68555 -4.6875 4.68555 -12.2852 0 -16.9717l-209.414 -209.414c-4.6875 -4.68555 -12.2852 -4.68555 -16.9717 0l-19.7988 19.7998c-4.68555 4.68652 -4.68555 12.2842 0 16.9707
l155.13 155.13h-341.432c-6.62695 0 -12 5.37305 -12 12v28c0 6.62695 5.37305 12 12 12h341.432l-155.13 155.129c-4.68555 4.6875 -4.68555 12.2852 0 16.9707z" />
    <glyph glyph-name="arrow-up" unicode="&#xf062;" horiz-adv-x="448" 
d="M6.10059 186.101c-4.68652 4.68652 -4.68652 12.2842 0 16.9707l209.413 209.414c4.6875 4.68555 12.2852 4.68555 16.9717 0l209.415 -209.413c4.68555 -4.6875 4.68555 -12.2852 0 -16.9717l-19.7998 -19.7988c-4.68652 -4.68555 -12.2842 -4.68555 -16.9707 0
l-155.13 155.13v-341.432c0 -6.62695 -5.37305 -12 -12 -12h-28c-6.62695 0 -12 5.37305 -12 12v341.432l-155.129 -155.13c-4.6875 -4.68555 -12.2852 -4.68555 -16.9707 0z" />
    <glyph glyph-name="arrow-down" unicode="&#xf063;" horiz-adv-x="448" 
d="M441.9 197.9c4.69922 -4.7002 4.69922 -12.3008 0 -17l-209.4 -209.4c-4.7002 -4.7002 -12.2998 -4.7002 -17 0l-209.4 209.4c-4.69922 4.69922 -4.69922 12.2998 0 17l19.8008 19.7998c4.69922 4.7002 12.2998 4.7002 17 0l155.1 -155.101v341.4
c0 6.59961 5.40039 12 12 12h28c6.59961 0 12 -5.40039 12 -12v-341.4l155.1 155.101c4.7002 4.7002 12.3008 4.7002 17 0z" />
    <glyph glyph-name="share" unicode="&#xf064;" horiz-adv-x="576" 
d="M561.938 257.94c18.75 -18.7402 18.75 -49.1406 -0.00195312 -67.8809l-175.996 -175.939c-30.21 -30.21 -81.9404 -8.7002 -81.9404 33.9395v78.2803c-146.59 -8.54004 -158.53 -50.1992 -134.18 -127.879c13.6494 -43.5596 -35.0703 -78.8896 -72.1904 -54.46
c-59.6104 39.2305 -97.6299 100.199 -97.6299 173.949c0 170.37 166.04 197.149 304 201.3v80.7031c0 42.7197 51.79 64.0898 81.9404 33.9395zM352 48l176 176l-176 176v-128.03c-143.181 -0.629883 -304 -11.7773 -304 -154.02c0 -66.96 40 -109.95 76.0195 -133.65
c-49.46 157.789 63.459 189.82 227.98 191.61v-127.91z" />
    <glyph glyph-name="expand" unicode="&#xf065;" horiz-adv-x="448" 
d="M0 268v124c0 13.2998 10.7002 24 24 24h124c6.59961 0 12 -5.40039 12 -12v-24c0 -6.59961 -5.40039 -12 -12 -12h-100v-100c0 -6.59961 -5.40039 -12 -12 -12h-24c-6.59961 0 -12 5.40039 -12 12zM288 404c0 6.59961 5.40039 12 12 12h124c13.2998 0 24 -10.7002 24 -24
v-124c0 -6.59961 -5.40039 -12 -12 -12h-24c-6.59961 0 -12 5.40039 -12 12v100h-100c-6.59961 0 -12 5.40039 -12 12v24zM436 128c6.59961 0 12 -5.40039 12 -12v-124c0 -13.2998 -10.7002 -24 -24 -24h-124c-6.59961 0 -12 5.40039 -12 12v24c0 6.59961 5.40039 12 12 12
h100v100c0 6.59961 5.40039 12 12 12h24zM160 -20c0 -6.59961 -5.40039 -12 -12 -12h-124c-13.2998 0 -24 10.7002 -24 24v124c0 6.59961 5.40039 12 12 12h24c6.59961 0 12 -5.40039 12 -12v-100h100c6.59961 0 12 -5.40039 12 -12v-24z" />
    <glyph glyph-name="compress" unicode="&#xf066;" horiz-adv-x="448" 
d="M436 256h-124c-13.2998 0 -24 10.7002 -24 24v124c0 6.59961 5.40039 12 12 12h24c6.59961 0 12 -5.40039 12 -12v-100h100c6.59961 0 12 -5.40039 12 -12v-24c0 -6.59961 -5.40039 -12 -12 -12zM160 280c0 -13.2998 -10.7002 -24 -24 -24h-124
c-6.59961 0 -12 5.40039 -12 12v24c0 6.59961 5.40039 12 12 12h100v100c0 6.59961 5.40039 12 12 12h24c6.59961 0 12 -5.40039 12 -12v-124zM160 -20c0 -6.59961 -5.40039 -12 -12 -12h-24c-6.59961 0 -12 5.40039 -12 12v100h-100c-6.59961 0 -12 5.40039 -12 12v24
c0 6.59961 5.40039 12 12 12h124c13.2998 0 24 -10.7002 24 -24v-124zM336 -20c0 -6.59961 -5.40039 -12 -12 -12h-24c-6.59961 0 -12 5.40039 -12 12v124c0 13.2998 10.7002 24 24 24h124c6.59961 0 12 -5.40039 12 -12v-24c0 -6.59961 -5.40039 -12 -12 -12h-100v-100z
" />
    <glyph glyph-name="minus" unicode="&#xf068;" horiz-adv-x="384" 
d="M368 224c8.83984 0 16 -7.16016 16 -16v-32c0 -8.83984 -7.16016 -16 -16 -16h-352c-8.83984 0 -16 7.16016 -16 16v32c0 8.83984 7.16016 16 16 16h352z" />
    <glyph glyph-name="asterisk" unicode="&#xf069;" 
d="M479.31 90.7842c5.73926 -3.31348 7.70605 -10.6533 4.39258 -16.3926l-12 -20.7832c-3.31445 -5.73926 -10.6523 -7.70605 -16.3926 -4.39258l-175.31 101.215v-202.431c0 -6.62695 -5.37305 -12 -12 -12h-24c-6.62695 0 -12 5.37305 -12 12v202.431l-175.31 -101.215
c-5.73926 -3.31348 -13.0781 -1.34668 -16.3926 4.39258l-12 20.7832c-3.31348 5.73926 -1.34766 13.0781 4.39258 16.3926l175.31 101.216l-175.31 101.216c-5.73926 3.31348 -7.70605 10.6523 -4.39258 16.3926l12 20.7842
c3.31348 5.73926 10.6523 7.70605 16.3926 4.39258l175.31 -101.216v202.431c0 6.62695 5.37305 12 12 12h24c6.62695 0 12 -5.37305 12 -12v-202.431l175.309 101.215c5.73926 3.31348 13.0781 1.34766 16.3926 -4.39258l12 -20.7842
c3.31348 -5.73926 1.34766 -13.0781 -4.39258 -16.3926l-175.31 -101.215z" />
    <glyph glyph-name="exclamation-circle" unicode="&#xf06a;" 
d="M256 440c136.957 0 248 -111.083 248 -248c0 -136.997 -111.043 -248 -248 -248s-248 111.003 -248 248c0 136.917 111.043 248 248 248zM256 -8c110.569 0 200 89.4697 200 200c0 110.529 -89.5088 200 -200 200c-110.528 0 -200 -89.5049 -200 -200
c0 -110.569 89.4678 -200 200 -200zM298 96c0 -23.1592 -18.8408 -42 -42 -42s-42 18.8408 -42 42s18.8408 42 42 42s42 -18.8408 42 -42zM216.63 307.401c-0.342773 6.85352 5.12207 12.5986 11.9854 12.5986h54.7695c6.86328 0 12.3281 -5.74512 11.9854 -12.5986
l-6.7998 -136c-0.319336 -6.3877 -5.5918 -11.4014 -11.9854 -11.4014h-41.1699c-6.39355 0 -11.666 5.01367 -11.9854 11.4014z" />
    <glyph glyph-name="random" unicode="&#xf074;" 
d="M505 48l-79.2002 -72.9004c-15.0996 -15.0996 -41.7998 -4.39941 -41.7998 17v40h-31c-3.2998 0 -6.5 1.40039 -8.7998 3.90039l-89.7998 97.2002l38.0996 41.2998l79.7998 -86.2998h11.7002v48c0 21.3994 26.7002 32.0996 41.7998 17l79.2002 -71
c9.2998 -9.60059 9.2998 -24.7998 0 -34.2002zM12 296c-6.59961 0 -12 5.40039 -12 12.0996v32c0 6.60059 5.40039 12 12 12h111.1c3.30078 0 6.5 -1.39941 8.80078 -3.89941l89.7998 -97.2002l-38.1006 -41.2998l-79.7998 86.2998h-91.7998zM505 337.9
c9.2998 -9.30078 9.2998 -24.5 0 -33.9004l-79.2002 -73c-15.0996 -15.0996 -41.7998 -4.40039 -41.7998 17v48h-11.7998l-240.4 -260.1c-2.2998 -2.5 -5.5 -3.90039 -8.7998 -3.90039h-111c-6.59961 0 -12 5.40039 -12 12v32c0 6.59961 5.40039 12 12 12h91.7998
l240.4 260.1c2.2998 2.5 5.5 3.90039 8.7998 3.90039h31v40c0 21.2998 26.7002 32 41.7998 16.9004z" />
    <glyph glyph-name="chevron-up" unicode="&#xf077;" horiz-adv-x="448" 
d="M6.10059 88.707c-4.68652 4.68555 -4.68652 12.2842 0 16.9707l209.413 209.414c4.6875 4.68652 12.2852 4.68652 16.9717 0l209.415 -209.413c4.68555 -4.68652 4.68555 -12.2852 0 -16.9707l-19.7998 -19.7988c-4.68652 -4.68652 -12.2842 -4.68652 -16.9707 0
l-181.13 180.698l-181.129 -180.699c-4.6875 -4.68652 -12.2852 -4.68652 -16.9707 0z" />
    <glyph glyph-name="chevron-down" unicode="&#xf078;" horiz-adv-x="448" 
d="M441.9 280.7c4.69922 -4.7002 4.69922 -12.2998 0 -17l-209.4 -209.4c-4.7002 -4.7002 -12.2998 -4.7002 -17 0l-209.4 209.4c-4.69922 4.7002 -4.69922 12.2998 0 17l19.8008 19.7998c4.69922 4.7002 12.2998 4.7002 17 0l181.1 -180.7l181.1 180.7
c4.7002 4.7002 12.3008 4.7002 17 0z" />
    <glyph glyph-name="retweet" unicode="&#xf079;" horiz-adv-x="640" 
d="M624.485 94.5439l-104 -104c-4.68652 -4.68555 -12.2842 -4.68555 -16.9717 0l-104 104c-4.68555 4.68652 -4.68555 12.2842 0 16.9707l16.877 16.877c4.72363 4.72363 12.3936 4.68164 17.0645 -0.09375l54.5449 -55.7627v223.465h-203.976h-0.00195312
c-2.74316 0 -6.54395 1.5752 -8.4834 3.51465l-24 24c-7.56055 7.56055 -2.20605 20.4854 8.48535 20.4854h251.976c13.2549 0 24 -10.7451 24 -24v-247.465l54.5449 55.7617c4.6709 4.77539 12.3408 4.81738 17.0645 0.09375l16.877 -16.877
c4.68555 -4.68555 4.68555 -12.2832 -0.000976562 -16.9697zM364.461 84.4854l24 -24c7.56055 -7.55957 2.20605 -20.4854 -8.48535 -20.4854h-251.976c-13.2549 0 -24 10.7451 -24 24v247.465l-54.5439 -55.7617c-4.6709 -4.77539 -12.3408 -4.81738 -17.0645 -0.09375
l-16.877 16.877c-4.68555 4.68652 -4.68555 12.2852 0 16.9707l104 104c4.6875 4.68555 12.2852 4.68555 16.9717 0l104 -104c4.68555 -4.6875 4.68555 -12.2852 0 -16.9707l-16.877 -16.877c-4.72363 -4.72363 -12.3936 -4.68164 -17.0645 0.09375l-54.5449 55.7617
v-223.465h203.976c2.74414 0 6.54492 -1.5752 8.48535 -3.51465z" />
    <glyph glyph-name="shopping-cart" unicode="&#xf07a;" horiz-adv-x="576" 
d="M551.991 384c15.3076 0 26.7041 -14.1387 23.4521 -29.0977l-45.2168 -208c-2.39746 -11.0332 -12.1611 -18.9023 -23.4512 -18.9023h-312.405l9.38965 -48h282.148c15.3096 0 26.7061 -14.1406 23.4521 -29.1006l-1.03516 -4.75781
c12.1201 -11.6455 19.6758 -28.0059 19.6758 -46.1416c0 -35.3457 -28.6543 -64 -64 -64s-64 28.6543 -64 64v0.0703125c0 9.44922 3.84473 23.7539 8.58301 31.9297h-145.167c4.73828 -8.17578 8.58301 -22.4805 8.58301 -31.9297v-0.0703125
c0 -35.3457 -28.6543 -64 -64 -64s-64 28.6543 -64 64c0 17.1982 6.7959 32.7988 17.834 44.2988l-69.5938 355.701h-80.2402c-6.62695 0 -12 5.37305 -12 12v24c0 6.62695 5.37305 12 12 12h100c11.4775 0 21.3496 -8.12793 23.5537 -19.3916l8.72656 -44.6084h407.711z
M208 -24c13.2344 0 24 10.7656 24 24s-10.7656 24 -24 24s-24 -10.7656 -24 -24s10.7656 -24 24 -24zM464 -24c13.2344 0 24 10.7656 24 24s-10.7656 24 -24 24s-24 -10.7656 -24 -24s10.7656 -24 24 -24zM487.438 176l34.7793 160h-368.548l31.3105 -160h302.458z" />
    <glyph glyph-name="arrows-v" unicode="&#xf07d;" horiz-adv-x="320" 
d="M273.1 100.6l19.7002 -19.5996c4.7002 -4.7002 4.7002 -12.2998 0 -17l-124.3 -124.5c-4.7002 -4.7002 -12.2998 -4.7002 -17 0l-124.3 124.5c-4.7002 4.7002 -4.7002 12.2998 0 17l19.5996 19.5996c4.7002 4.7002 12.4004 4.60059 17.1006 -0.199219l70 -73.2002v329.6
l-70 -73.2002c-4.60059 -4.89941 -12.3008 -5 -17.1006 -0.199219l-19.5996 19.5996c-4.7002 4.7002 -4.7002 12.2998 0 17l124.3 124.5c4.7002 4.7002 12.2998 4.7002 17 0l124.2 -124.5c4.7002 -4.7002 4.7002 -12.2998 0 -17l-19.6006 -19.5996
c-4.69922 -4.7002 -12.3994 -4.60059 -17.0996 0.199219l-70 73.2002v-329.6l70 73.2002c4.59961 4.89941 12.2998 5 17.0996 0.199219z" />
    <glyph glyph-name="arrows-h" unicode="&#xf07e;" 
d="M347.404 305.14l19.625 19.626c4.68652 4.68652 12.2852 4.68652 16.9707 0l124.486 -124.279c4.68555 -4.6875 4.68555 -12.2852 0 -16.9717l-124.485 -124.28c-4.68652 -4.68652 -12.2852 -4.68652 -16.9707 0l-19.626 19.626
c-4.75391 4.75293 -4.67676 12.4834 0.172852 17.1396l73.2031 70h-329.561l73.2041 -70c4.84863 -4.65625 4.92578 -12.3867 0.172852 -17.1396l-19.626 -19.626c-4.68652 -4.68652 -12.2852 -4.68652 -16.9707 0l-124.485 124.279
c-4.68555 4.6875 -4.68555 12.2852 0 16.9717l124.484 124.28c4.68652 4.68652 12.2852 4.68652 16.9707 0l19.626 -19.626c4.75391 -4.75293 4.67676 -12.4834 -0.172852 -17.1396l-73.2031 -70h329.561l-73.2031 70c-4.84863 4.65625 -4.92578 12.3867 -0.172852 17.1396z
" />
    <glyph glyph-name="camera-retro" unicode="&#xf083;" 
d="M154 368h-116c-3.2998 0 -6 2.7002 -6 6v36c0 3.2998 2.7002 6 6 6h116c3.2998 0 6 -2.7002 6 -6v-36c0 -3.2998 -2.7002 -6 -6 -6zM512 368v-352c0 -26.5 -21.5 -48 -48 -48h-416c-26.5 0 -48 21.5 -48 48v288c0 26.5 21.5 48 48 48h136l33.5996 44.7998
c9.10059 12.1006 23.3008 19.2002 38.4004 19.2002h208c26.5 0 48 -21.5 48 -48zM464 304h-416v-288h416v288zM464 368h-208l-12 -16h220v16zM376 160c0 -66.2002 -53.7998 -120 -120 -120s-120 53.7998 -120 120s53.7998 120 120 120s120 -53.7998 120 -120zM328 160
c0 39.7002 -32.2998 72 -72 72s-72 -32.2998 -72 -72s32.2998 -72 72 -72s72 32.2998 72 72zM232 160c0 -8.7998 -7.2002 -16 -16 -16s-16 7.2002 -16 16c0 30.9004 25.0996 56 56 56c8.7998 0 16 -7.2002 16 -16s-7.2002 -16 -16 -16c-13.2002 0 -24 -10.7998 -24 -24z" />
    <glyph glyph-name="key" unicode="&#xf084;" 
d="M320 400c-79.5293 0 -144 -64.4707 -144 -144v-0.105469c0 -11.7666 2.76758 -30.4561 6.17676 -41.7178l-134.177 -134.177v-96h96v48h48v48h32l42.3398 42.3389c16.584 -6.66406 34.6924 -10.3389 53.6602 -10.3389c79.5293 0 144 64.4707 144 144
s-64.4707 144 -144 144zM320 448c106.046 0 192 -85.9648 192 -192c0 -106.046 -85.9648 -192 -192 -192c-13.5391 0 -26.8936 1.39648 -39.9512 4.16699l-40.0488 -40.167v-20c0 -13.2549 -10.7451 -24 -24 -24h-24v-24c0 -13.2549 -10.7451 -24 -24 -24h-144
c-13.2549 0 -24 10.7451 -24 24v129.941c0 5.4873 3.14941 13.0898 7.0293 16.9707l122.77 122.77c-1.19727 8.69531 -1.79883 17.4863 -1.79883 26.3184c0 106.046 85.9648 192 192 192zM320 304c0 26.5098 21.4902 48 48 48s48 -21.4902 48 -48s-21.4902 -48 -48 -48
s-48 21.4902 -48 48z" />
    <glyph glyph-name="cogs" unicode="&#xf085;" horiz-adv-x="640" 
d="M217.1 -30.0996c-23.7998 0 -41.5996 3.5 -57.5 7.5c-10.5996 2.69922 -18.0996 12.2998 -18.0996 23.2998v31.7002c-9.40039 4.39941 -18.4004 9.59961 -26.9004 15.5996l-26.6992 -15.4004c-9.60059 -5.59961 -21.9004 -3.7998 -29.5 4.30078
c-35.4004 37.5996 -44.2002 58.5996 -57.2002 98.5c-3.60059 10.8994 1.09961 22.6992 11 28.3994l26.7998 15c-0.900391 10.2998 -0.900391 20.7002 0 31.1006l-26.7998 15.0996c-10 5.59961 -14.6006 17.5 -11 28.4004c13.0996 40 21.8994 60.8994 57.2002 98.5
c7.59961 8.09961 19.7998 9.89941 29.5 4.2998l26.6992 -15.4004c8.5 6 17.5 11.2002 26.9004 15.6006v30.1992c0 11.1006 7.59961 20.8008 18.4004 23.3008c44.1992 10.5 70 10.5 114.3 0c10.7998 -2.60059 18.3994 -12.2002 18.3994 -23.3008v-30.3994
c9.40039 -4.40039 18.4004 -9.60059 26.9004 -15.6006l26.7002 15.4004c9.7002 5.59961 21.8994 3.7002 29.5996 -4.40039c26.1006 -27.8994 48.4004 -58.5 56.7998 -100.3c2 -9.7998 -2.39941 -19.7998 -10.8994 -25.0996l-26.6006 -16.5
c0.900391 -10.2998 0.900391 -20.7002 0 -31.1006l26.6006 -16.5c8.39941 -5.19922 12.8994 -15.1992 10.8994 -24.8994c-8.09961 -40.5 -29.5996 -71.2998 -56.8994 -100.601c-7.60059 -8.09961 -19.7998 -9.89941 -29.5 -4.2998l-26.7002 15.4004
c-8.5 -6 -17.5 -11.2002 -26.9004 -15.6006v-31.6992c0 -11 -7.39941 -20.6006 -18.0996 -23.3008c-15.7998 -3.7998 -33.5996 -7.19922 -57.4004 -7.19922zM189.5 20.5996c18.2998 -2.89941 36.9004 -2.89941 55.0996 0v44.8008l16 5.69922
c15.2002 5.40039 29.1006 13.4004 41.3008 23.9004l12.8994 11l38.7998 -22.4004c11.7002 14.4004 21 30.5 27.6006 47.7002l-38.7998 22.4004l3.09961 16.7002c2.90039 15.8994 2.90039 32 0 47.8994l-3.09961 16.7002l38.7998 22.4004
c-6.60059 17.1992 -15.9004 33.2998 -27.6006 47.6992l-38.7998 -22.3994l-12.8994 11c-12.3008 10.5 -26.2002 18.5996 -41.3008 23.8994l-16 5.7002v44.7002c-18.2998 2.90039 -36.8994 2.90039 -55.0996 0v-44.7998l-16 -5.7002
c-15.2002 -5.40039 -29.0996 -13.4004 -41.2998 -23.9004l-12.9004 -11l-38.7998 22.4004c-11.7002 -14.4004 -21 -30.5 -27.5996 -47.7002l38.7998 -22.3994l-3.10059 -16.7002c-2.89941 -15.9004 -2.89941 -32 0 -47.9004l3.10059 -16.7002l-38.7998 -22.3994
c6.59961 -17.2002 15.8994 -33.4004 27.5996 -47.7002l38.7998 22.4004l12.9004 -11c12.2998 -10.5 26.2002 -18.6006 41.2998 -23.9004l16 -5.7002v-44.7002zM216.6 105.7c-22.5996 0 -45.1992 8.59961 -62.3994 25.7998c-34.4004 34.4004 -34.4004 90.4004 0 124.8
c34.3994 34.4004 90.3994 34.4004 124.8 0c34.4004 -34.3994 34.4004 -90.3994 0 -124.8c-17.2998 -17.2002 -39.9004 -25.7998 -62.4004 -25.7998zM216.6 234.1c-10.2998 0 -20.5996 -3.89941 -28.5 -11.7998c-15.6992 -15.7002 -15.6992 -41.2002 0 -56.8994
c15.7002 -15.7002 41.2002 -15.7002 56.9004 0c15.7002 15.6992 15.7002 41.1992 0 56.8994c-7.7998 7.90039 -18.0996 11.7998 -28.4004 11.7998zM638.5 363c2 -11.7998 2 -24 0.0996094 -36.2002c-0.899414 -5.89941 -6 -10.2002 -11.8994 -10.2002h-16.1006
c-3.5 -9.89941 -8.7998 -19 -15.5 -26.7998l8 -13.8994c3 -5.10059 1.80078 -11.6006 -2.69922 -15.3008c-9.30078 -7.69922 -19.9004 -13.8994 -31.4004 -18.1992c-5.5 -2 -11.7002 0.199219 -14.7002 5.2998l-8 13.8994c-10.2002 -1.89941 -20.7002 -1.89941 -30.8994 0
l-8 -13.8994c-2.90039 -5.2002 -9.2002 -7.40039 -14.7002 -5.2998c-11.5 4.2998 -22.1006 10.5 -31.4004 18.1992c-4.5 3.7002 -5.59961 10.2002 -2.7002 15.3008l8 13.8994c-6.69922 7.7998 -12 16.9004 -15.5 26.7998h-16.0996c-5.90039 0 -10.9004 4.2002 -11.9004 10
c-1.89941 11.7002 -2 24 0 36.2002c0.900391 5.90039 6 10.2002 11.9004 10.2002h16.0996c3.5 9.90039 8.80078 19 15.5 26.7998l-8 13.9004c-3 5.09961 -1.7998 11.5996 2.7002 15.2998c9.2998 7.7002 19.9004 13.9004 31.4004 18.2002
c5.5 2 11.7002 -0.200195 14.7002 -5.2998l8 -13.9004c10.1992 1.90039 20.6992 1.90039 30.8994 0l8 13.9004c2.90039 5.19922 9.2002 7.39941 14.7002 5.2998c11.5 -4.2998 22 -10.5 31.2998 -18.2002c4.5 -3.7002 5.60059 -10.2002 2.7002 -15.2998l-8 -13.9004
c6.7002 -7.7998 12 -16.8994 15.5 -26.7998h16.0996c5.90039 0 10.9004 -4.2002 11.9004 -10zM530.7 312.8c17.7002 0 32 14.2998 32 32s-14.2998 32 -32 32s-32 -14.2998 -32 -32s14.2998 -32 32 -32zM638.5 57.4004c2 -11.8008 2 -24.1006 0 -36.2002
c-0.900391 -5.90039 -6 -10.2002 -11.9004 -10.2002h-16.0996c-3.5 -9.90039 -8.7998 -19 -15.5 -26.7998l8 -13.9004c3 -5.09961 1.7998 -11.5996 -2.7002 -15.2998c-9.2998 -7.7002 -19.8994 -13.9004 -31.3994 -18.2002c-5.5 -2 -11.7002 0.200195 -14.7002 5.2998
l-8 13.9004c-10.2002 -1.90039 -20.7002 -1.90039 -30.9004 0l-8 -13.9004c-2.89941 -5.19922 -9.2002 -7.39941 -14.7002 -5.2998c-11.5 4.2998 -22.0996 10.5 -31.3994 18.2002c-4.5 3.7002 -5.60059 10.2002 -2.7002 15.2998l8 13.9004
c-6.7002 7.7998 -12 16.8994 -15.5 26.7998h-16.0996c-5.90039 0 -10.9004 4.2002 -11.9004 10c-1.90039 11.7002 -2 24 0 36.2002c0.900391 5.89941 6 10.2002 11.9004 10.2002h16.0996c3.5 9.89941 8.7998 19 15.5 26.7998l-8 13.8994
c-3 5.10059 -1.7998 11.6006 2.7002 15.3008c9.2998 7.69922 19.8994 13.8994 31.3994 18.1992c5.5 2 11.7002 -0.199219 14.7002 -5.2998l8 -13.8994c10.2002 1.89941 20.7002 1.89941 30.9004 0l8 13.8994c2.89941 5.2002 9.2002 7.40039 14.7002 5.2998
c11.5 -4.2998 22.0996 -10.5 31.3994 -18.1992c4.5 -3.7002 5.60059 -10.2002 2.7002 -15.3008l-8 -13.8994c6.7002 -7.7998 12 -16.9004 15.5 -26.7998h16.0996c5.90039 0 10.9004 -4.2002 11.9004 -10zM530.7 7.2002c17.7002 0 32 14.2998 32 32s-14.2998 32 -32 32
s-32 -14.2998 -32 -32s14.2998 -32 32 -32z" />
    <glyph glyph-name="sign-out" unicode="&#xf08b;" 
d="M96 384h84c6.59961 0 12 -5.40039 12 -12v-24c0 -6.59961 -5.40039 -12 -12 -12h-84c-26.5 0 -48 -21.5 -48 -48v-192c0 -26.5 21.5 -48 48 -48h84c6.59961 0 12 -5.40039 12 -12v-24c0 -6.59961 -5.40039 -12 -12 -12h-84c-53 0 -96 43 -96 96v192c0 53 43 96 96 96z
M327.1 364.5c4.7002 4.7002 12.3008 4.7002 17 0.0996094l164.4 -164c4.7002 -4.69922 4.7002 -12.2998 0 -17l-164.4 -164c-4.69922 -4.69922 -12.2998 -4.69922 -17 0l-19.5996 19.6006c-4.7002 4.7002 -4.59961 12.3994 0.200195 17.0996l113.1 109.7h-248.8
c-6.59961 0 -12 5.40039 -12 12v28c0 6.59961 5.40039 12 12 12h248.8l-113.1 109.8c-4.90039 4.60059 -5 12.2998 -0.200195 17.1006z" />
    <glyph glyph-name="thumbtack" unicode="&#xf08d;" horiz-adv-x="384" 
d="M306.5 261.4c47.9004 -32.8008 77.5 -84.1006 77.5 -141.4c0 -13.2002 -10.7998 -24 -24 -24h-144v-104c0 -0.799805 -0.0996094 -1.7002 -0.400391 -2.5l-16 -48c-2.39941 -7.2998 -12.7998 -7.2998 -15.1992 0l-16 48
c-0.300781 0.799805 -0.400391 1.59961 -0.400391 2.5v104h-144c-13.2002 0 -24 10.7998 -24 24c0 57.2998 29.5996 108.6 77.5 141.4l5.7002 42.5996h-27.2002c-13.2002 0 -24 10.7998 -24 24v96c0 13.2002 10.7998 24 24 24h272c13.2002 0 24 -10.7998 24 -24v-96
c0 -13.2002 -10.7998 -24 -24 -24h-27.2002zM50.5 144h283c-8.2998 38.4004 -35.7002 70 -71.5 87.7998l-16 120.2h58v48h-224v-48h58l-16 -120.2c-35.9004 -17.7998 -63.2002 -49.2998 -71.5 -87.7998z" />
    <glyph glyph-name="external-link" unicode="&#xf08e;" horiz-adv-x="576" 
d="M576 433.6l-0.173828 -163.199c0 -7.95312 -6.44727 -14.4004 -14.4004 -14.4004h-33.3057c-8.06738 0 -14.5605 6.62598 -14.3975 14.6914l2.71777 73.627l-2.0625 2.06152l-278.863 -278.865c-4.68555 -4.68555 -12.2832 -4.68555 -16.9707 0l-23.0293 23.0293
c-4.68555 4.68652 -4.68555 12.2842 0 16.9707l278.864 278.864l-2.06152 2.0625l-73.626 -2.71777c-8.06543 -0.164062 -14.6914 6.33008 -14.6914 14.3975v33.3047c0 7.95312 6.44727 14.4004 14.4004 14.4004l163.199 0.173828
c7.95312 0 14.4004 -6.44727 14.4004 -14.4004zM427.515 214.26c7.55957 7.56055 20.4854 2.20605 20.4854 -8.48438v-221.775c0 -26.5098 -21.4902 -48 -48 -48h-352c-26.5098 0 -48 21.4902 -48 48v352c0 26.5098 21.4902 48 48 48h283.976
c2.74414 0 6.54492 -1.5752 8.48535 -3.51465l24 -24c7.56055 -7.55957 2.20605 -20.4854 -8.48535 -20.4854h-301.976c-3.31152 0 -6 -2.68848 -6 -6v-340c0 -3.31152 2.68848 -6 6 -6h340c3.31152 0 6 2.68848 6 6v191.775c0 2.74316 1.5752 6.54492 3.51465 8.48438z" />
    <glyph glyph-name="sign-in" unicode="&#xf090;" 
d="M416 0h-84c-6.59961 0 -12 5.40039 -12 12v24c0 6.59961 5.40039 12 12 12h84c26.5 0 48 21.5 48 48v192c0 26.5 -21.5 48 -48 48h-84c-6.59961 0 -12 5.40039 -12 12v24c0 6.59961 5.40039 12 12 12h84c53 0 96 -43 96 -96v-192c0 -53 -43 -96 -96 -96zM167.1 364.5
c4.7002 4.7002 12.3008 4.7002 17 0.0996094l164.4 -164c4.7002 -4.69922 4.7002 -12.2998 0 -17l-164.4 -164c-4.69922 -4.69922 -12.2998 -4.69922 -17 0l-19.5996 19.6006c-4.7002 4.7002 -4.59961 12.3994 0.200195 17.0996l113.1 109.7h-248.8
c-6.59961 0 -12 5.40039 -12 12v28c0 6.59961 5.40039 12 12 12h248.8l-113.1 109.8c-4.90039 4.60059 -5 12.2998 -0.200195 17.1006z" />
    <glyph glyph-name="trophy" unicode="&#xf091;" horiz-adv-x="576" 
d="M448 384h112c8.7998 0 16 -7.2002 16 -16v-60.7998c0 -60.4004 -68.5 -125.3 -159.6 -142.601c-27.4004 -57.8994 -68.1006 -88.0996 -104.4 -97.3994v-83.2002h64c22.0996 0 40 -17.9004 40 -40c0 -4.40039 -3.59961 -8 -8 -8h-240c-4.40039 0 -8 3.59961 -8 8
c0 22.0996 17.9004 40 40 40h64v83.2002c-36.2998 9.2002 -77 39.5 -104.4 97.3994c-91.2998 17.4004 -159.6 82.3008 -159.6 142.601v60.7998c0 8.7998 7.2002 16 16 16h112v48c0 8.7998 7.2002 16 16 16h288c8.7998 0 16 -7.2002 16 -16v-48zM48 307.2
c0 -29.1006 37.2002 -69.1006 92.2998 -88c-10.2002 40.5996 -12.2998 77.5996 -12.2998 116.8h-80v-28.7998zM288 112c51.2002 0 112 75.5 112 216v72h-224v-72c0 -137.6 59 -216 112 -216zM528 307.2v28.7998h-80c0 -39.0996 -2.09961 -76.2002 -12.2998 -116.8
c55.0996 18.8994 92.2998 58.8994 92.2998 88z" />
    <glyph glyph-name="upload" unicode="&#xf093;" horiz-adv-x="576" 
d="M528 160c26.5 0 48 -21.5 48 -48v-128c0 -26.5 -21.5 -48 -48 -48h-480c-26.5 0 -48 21.5 -48 48v128c0 26.5 21.5 48 48 48h144v32h-64c-42.7002 0 -64.0996 51.7998 -34 81.9004l160 160c18.7998 18.6992 49.0996 18.7998 67.9004 0l160 -160
c30.2998 -30.2002 8.69922 -81.9004 -33.9004 -81.9004h-64v-32h144zM128 240h112v-160h96v160h112l-160 160zM528 -16v128h-144v-32c0 -26.5 -21.5 -48 -48 -48h-96c-26.5 0 -48 21.5 -48 48v32h-144v-128h480zM488 48c0 -13.2998 -10.7002 -24 -24 -24s-24 10.7002 -24 24
s10.7002 24 24 24s24 -10.7002 24 -24z" />
    <glyph glyph-name="phone" unicode="&#xf095;" 
d="M476.5 425.1c20.9004 -4.7998 35.5 -23.1992 35.5 -44.5996c0 -246.2 -199.7 -444.5 -444.6 -444.4c-21.4004 0 -39.8008 14.6006 -44.6006 35.5l-21.7002 94.2002c-4.89941 21.6006 6.2002 43.6006 26.6006 52.2998l101.6 43.5
c18.6006 8 40.6006 2.60059 53.4004 -13.0996l32.7002 -40c52.3994 28.5 95.5996 71.7002 124.199 124.1l-40 32.7002c-15.6992 12.7998 -21.0996 34.7998 -13.0996 53.4004l43.5 101.5c8.7002 20.3994 30.7002 31.5996 52.2998 26.5996zM69.2998 -16
c217.601 1 393.7 177.1 394.7 394.7l-90.7002 20.8994l-42.0996 -98.1992l68.0996 -55.7002c-46.3994 -99 -98.2002 -150.601 -197 -197l-55.7002 68.0996l-98.1992 -42.0996z" />
    <glyph glyph-name="phone-square" unicode="&#xf098;" horiz-adv-x="448" 
d="M400 416c26.5098 0 48 -21.4902 48 -48v-352c0 -26.5098 -21.4902 -48 -48 -48h-352c-26.5098 0 -48 21.4902 -48 48v352c0 26.5098 21.4902 48 48 48h352zM394 16c3.31152 0 6 2.68848 6 6v340c0 3.31152 -2.68848 6 -6 6h-340c-3.31152 0 -6 -2.68848 -6 -6v-340
c0 -3.31152 2.68848 -6 6 -6h340zM352 296c0 -128.234 -103.956 -232 -232 -232c-5.26855 0.000976562 -10.5068 4.16895 -11.6934 9.30176l-11.999 52c-0.168945 0.735352 -0.306641 1.94434 -0.306641 2.69824c0 4.36816 3.25781 9.30957 7.27344 11.0303l55.999 23.999
c1.24902 0.535156 3.36719 0.969727 4.72656 0.969727c3.13965 0 7.2998 -1.97168 9.28809 -4.40137l24.7979 -30.3076c39.1553 18.3701 70.6377 50.2871 88.624 88.624l-30.3086 24.7979c-2.42969 1.98828 -4.40137 6.14844 -4.40137 9.28809
c0 1.35938 0.43457 3.47754 0.969727 4.72656l24 55.999c1.7207 4.01562 6.66211 7.27344 11.0303 7.27344c0.753906 0 1.96289 -0.137695 2.69824 -0.306641l52 -11.999c5.13477 -1.18555 9.30176 -6.42383 9.30176 -11.6934v0z" />
    <glyph glyph-name="unlock" unicode="&#xf09c;" horiz-adv-x="448" 
d="M400 208c26.5 0 48 -21.5 48 -48v-176c0 -26.5 -21.5 -48 -48 -48h-352c-26.5 0 -48 21.5 -48 48v176c0 26.5 21.5 48 48 48h32v96c0 79.5 64.7998 144.2 144.3 144c79.7002 -0.200195 143.7 -65.7998 143.7 -145.4v-22.5996c0 -13.2998 -10.7002 -24 -24 -24
s-24 10.7002 -24 24v24c0 53.2998 -43.5996 96.5996 -97 96c-52.9004 -0.5 -95 -44.4004 -95 -97.2002v-94.7998h272zM400 -16v176h-352v-176h352z" />
    <glyph glyph-name="rss" unicode="&#xf09e;" horiz-adv-x="448" 
d="M80 80c-17.6445 0 -32 -14.3555 -32 -32s14.3555 -32 32 -32s32 14.3555 32 32s-14.3555 32 -32 32zM80 128c44.1826 0 80 -35.8174 80 -80s-35.8174 -80 -80 -80s-80 35.8174 -80 80s35.8174 80 80 80zM447.996 -19.6152
c0.182617 -6.77539 -5.22363 -12.3848 -12.0039 -12.3838h-24.0205c-6.48145 0 -11.8066 5.14746 -11.9912 11.626c-6.03809 211.619 -176.379 382.314 -388.354 388.354c-6.47852 0.183594 -11.626 5.50977 -11.626 11.9912v24.0205
c0 6.77832 5.60938 12.1855 12.3857 12.002c237.554 -6.44727 429.161 -197.776 435.61 -435.61zM311.757 -19.5654c0.266602 -6.79199 -5.20117 -12.4346 -11.998 -12.4355h-24.0234c-6.43164 0 -11.7051 5.07227 -11.9805 11.4971
c-5.84668 136.747 -115.49 246.411 -252.258 252.258c-6.4248 0.275391 -11.4971 5.54883 -11.4971 11.9805v24.0234c0 6.79785 5.64258 12.2656 12.4346 11.999c162.531 -6.35547 292.967 -136.767 299.322 -299.322z" />
    <glyph glyph-name="certificate" unicode="&#xf0a3;" 
d="M489.199 192.073c41.1289 -40.2598 24.1494 -102.52 -31.1455 -116.634c15.4727 -54.3418 -30.458 -101.196 -85.4648 -85.5186c-14.2627 -55.9297 -77.0781 -71.5791 -116.589 -31.1709c-39.5664 -40.4639 -102.253 -25.0498 -116.589 31.1709
c-54.875 -15.6396 -100.978 31.0371 -85.4648 85.5186c-55.5127 14.1699 -72.0908 76.5537 -31.1455 116.634c-41.1289 40.2598 -24.1494 102.519 31.1455 116.634c-15.5117 54.4756 30.5146 101.181 85.4648 85.5176c9.15039 35.8896 36.9072 53.7588 66.2949 53.7578
c21.248 -0.000976562 36.7393 -8.6377 50.2939 -22.6035c39.3457 40.5361 102.41 24.4492 116.589 -31.1543c55.3457 15.7754 100.841 -31.5137 85.4648 -85.5176c55.4082 -14.1436 72.1865 -76.4609 31.1455 -116.634zM457.994 155.499l-37.3643 36.5664l37.3633 36.5654
c11.1367 10.5439 5.94336 29.2812 -8.66504 32.7754l-50.9033 12.9922l14.3496 50.3867c4.05469 14.4932 -9.61133 28.1641 -24.0996 24.1074l-50.3701 -14.3535l-12.9863 50.9199c-3.43652 14.3779 -22.3828 19.6416 -32.7646 8.66797l-36.5537 -37.6523l-36.5537 37.6523
c-10.2617 10.8457 -29.2881 5.87793 -32.7646 -8.66797l-12.9863 -50.9199l-50.3701 14.3535c-14.4941 4.05859 -28.1533 -9.61719 -24.0996 -24.1074l14.3496 -50.3867l-50.9033 -12.9922c-14.6152 -3.49512 -19.7979 -22.2363 -8.66504 -32.7754l37.3633 -36.5654
l-37.3633 -36.5664c-11.1377 -10.5439 -5.94336 -29.2812 8.66504 -32.7754l50.9033 -12.9912l-14.3496 -50.3877c-4.05469 -14.4932 9.61035 -28.1641 24.0996 -24.1074l50.3701 14.3535l12.9863 -50.9199c3.60645 -15.0889 22.501 -19.5166 32.7646 -8.66797
l36.5537 37.376l36.5547 -37.376c10.1562 -10.958 29.2393 -6.08203 32.7646 8.66797l12.9863 50.9199l50.3701 -14.3535c14.4922 -4.05762 28.1543 9.61621 24.0996 24.1074l-14.3496 50.3877l50.9033 12.9912c14.6152 3.49512 19.7979 22.2363 8.66504 32.7754z" />
    <glyph glyph-name="arrow-circle-left" unicode="&#xf0a8;" 
d="M504 192c0 -137 -111 -248 -248 -248s-248 111 -248 248s111 248 248 248s248 -111 248 -248zM56 192c0 -110.5 89.5 -200 200 -200s200 89.5 200 200s-89.5 200 -200 200s-200 -89.5 -200 -200zM245.1 62.0996l-121.399 121.4c-4.7002 4.7002 -4.7002 12.2998 0 17
l121.399 121.4c4.7002 4.69922 12.3008 4.69922 17 0l19.6006 -19.6006c4.7998 -4.7998 4.7002 -12.5 -0.200195 -17.2002l-70.2998 -67.0996h160.8c6.59961 0 12 -5.40039 12 -12v-28c0 -6.59961 -5.40039 -12 -12 -12h-160.8l70.2998 -67.0996
c4.90039 -4.7002 5 -12.4004 0.200195 -17.2002l-19.6006 -19.6006c-4.69922 -4.69922 -12.2998 -4.69922 -17 0z" />
    <glyph glyph-name="arrow-circle-right" unicode="&#xf0a9;" 
d="M8 192c0 137 111 248 248 248s248 -111 248 -248s-111 -248 -248 -248s-248 111 -248 248zM456 192c0 110.5 -89.5 200 -200 200s-200 -89.5 -200 -200s89.5 -200 200 -200s200 89.5 200 200zM266.9 321.9l121.399 -121.4c4.7002 -4.7002 4.7002 -12.2998 0 -17
l-121.399 -121.4c-4.7002 -4.69922 -12.3008 -4.69922 -17 0l-19.6006 19.6006c-4.7998 4.7998 -4.7002 12.5 0.200195 17.2002l70.2998 67.0996h-160.8c-6.59961 0 -12 5.40039 -12 12v28c0 6.59961 5.40039 12 12 12h160.8l-70.2998 67.0996
c-4.90039 4.7002 -5 12.4004 -0.200195 17.2002l19.6006 19.6006c4.69922 4.69922 12.2998 4.69922 17 0z" />
    <glyph glyph-name="arrow-circle-up" unicode="&#xf0aa;" 
d="M256 -56c-137 0 -248 111 -248 248s111 248 248 248s248 -111 248 -248s-111 -248 -248 -248zM256 392c-110.5 0 -200 -89.5 -200 -200s89.5 -200 200 -200s200 89.5 200 200s-89.5 200 -200 200zM126.1 202.9l121.4 121.399c4.7002 4.7002 12.2998 4.7002 17 0
l121.4 -121.399c4.69922 -4.7002 4.69922 -12.3008 0 -17l-19.6006 -19.6006c-4.7998 -4.7998 -12.5 -4.7002 -17.2002 0.200195l-67.0996 70.2998v-160.8c0 -6.59961 -5.40039 -12 -12 -12h-28c-6.59961 0 -12 5.40039 -12 12v160.8l-67.0996 -70.2998
c-4.7002 -4.90039 -12.4004 -5 -17.2002 -0.200195l-19.6006 19.6006c-4.69922 4.69922 -4.69922 12.2998 0 17z" />
    <glyph glyph-name="arrow-circle-down" unicode="&#xf0ab;" 
d="M256 440c137 0 248 -111 248 -248s-111 -248 -248 -248s-248 111 -248 248s111 248 248 248zM256 -8c110.5 0 200 89.5 200 200s-89.5 200 -200 200s-200 -89.5 -200 -200s89.5 -200 200 -200zM385.9 198.1c4.69922 -4.69922 4.69922 -12.2998 0 -17l-121.4 -121.399
c-4.7002 -4.7002 -12.2998 -4.7002 -17 0l-121.4 121.399c-4.69922 4.7002 -4.69922 12.3008 0 17l19.6006 19.6006c4.7998 4.7998 12.5 4.7002 17.2002 -0.200195l67.0996 -70.2998v160.8c0 6.59961 5.40039 12 12 12h28c6.59961 0 12 -5.40039 12 -12v-160.8
l67.0996 70.2998c4.7002 4.90039 12.4004 5 17.2002 0.200195z" />
    <glyph glyph-name="filter" unicode="&#xf0b0;" 
d="M463.952 448c42.7227 0 64.0898 -51.792 33.9404 -81.9414l-161.893 -161.94v-220.784c0 -39.9375 -45.5273 -60.2549 -76.7998 -38.4004l-64 47.0664c-12.0869 10.665 -19.2002 24.8916 -19.2002 40v172.118l-161.884 161.94
c-30.21 30.21 -8.69727 81.9414 33.9404 81.9414h415.896zM288 224l176 176h-416l176 -176v-192l64 -48v240z" />
    <glyph glyph-name="arrows-alt" unicode="&#xf0b2;" 
d="M276 211.925h115.85v76.1504c0 10.6904 12.9268 16.0449 20.4854 8.48438l96.1494 -96.1484c4.68555 -4.68652 4.68555 -12.2842 0 -16.9707l-96.1494 -96.1494c-7.55957 -7.55957 -20.4854 -2.20605 -20.4854 8.48535v76.1484h-115.851v-115.775h76.1504
c10.6904 0 16.0449 -12.9268 8.48438 -20.4854l-96.1484 -96.1504c-4.68652 -4.68555 -12.2842 -4.68555 -16.9717 0l-96.1484 96.1494c-7.56055 7.55957 -2.20605 20.4854 8.48438 20.4854h76.1504v115.776h-115.851v-76.1484
c0 -10.6914 -12.9268 -16.0449 -20.4854 -8.48535l-96.1494 96.1494c-4.68555 4.68555 -4.68555 12.2832 0 16.9707l96.1494 96.1484c7.55957 7.56055 20.4854 2.20605 20.4854 -8.48438v-76.1504h115.851v115.925h-76.1494c-10.6904 0 -16.0449 12.9268 -8.48438 20.4854
l96.1484 96.1494c4.68652 4.68555 12.2842 4.68555 16.9717 0l96.1484 -96.1494c7.56055 -7.55957 2.20605 -20.4854 -8.48438 -20.4854h-76.1504v-115.925z" />
    <glyph glyph-name="link" unicode="&#xf0c1;" 
d="M314.222 250.22c51.0918 -51.0908 54.377 -132.287 9.75 -187.16c-6.24121 -7.72949 -2.7832 -3.86426 -84.9395 -86.0195c-54.6963 -54.6963 -143.267 -54.7451 -197.99 0c-54.7109 54.6904 -54.7344 143.255 0 197.99c32.7734 32.7725 51.835 51.8984 63.4092 63.457
c7.46289 7.45215 20.3311 2.35352 20.4854 -8.19238c0.155273 -10.585 2.28125 -27.5322 4.74609 -37.8281c0.966797 -4.02832 -0.271484 -8.26855 -3.20117 -11.1982l-45.8496 -45.8389c-32.7549 -32.7744 -32.8867 -85.8916 0 -118.8
c32.7754 -32.7549 85.8926 -32.8867 118.8 0l75.1904 75.2002c32.7178 32.7246 32.7773 86.0127 0 118.79c-5.53711 5.54688 -15.7578 12.8174 -22.8145 16.2285c-4.62305 2.2334 -7.18164 7.25 -6.56055 12.3467c1.35547 11.1221 6.2959 21.8848 14.8145 30.4043
l4.375 4.375c3.625 3.62598 9.17773 4.59473 13.7607 2.29395c12.999 -6.52344 25.1865 -15.2109 36.0244 -26.0488zM470.958 406.96c54.7109 -54.6914 54.7344 -143.256 0.000976562 -197.991c-32.7734 -32.7725 -51.835 -51.8984 -63.4092 -63.457
c-7.46289 -7.45215 -20.3311 -2.35352 -20.4854 8.19238c-0.155273 10.585 -2.28125 27.5322 -4.74609 37.8281c-0.966797 4.02832 0.271484 8.26855 3.20117 11.1982l45.8486 45.8398c32.7549 32.7744 32.8867 85.8916 0 118.8c-32.7754 32.7549 -85.8926 32.8867 -118.8 0
l-75.1904 -75.2002c-32.7178 -32.7246 -32.7773 -86.0127 0 -118.79c5.53711 -5.54688 15.7578 -12.8174 22.8145 -16.2285c4.62305 -2.2334 7.18164 -7.25 6.56055 -12.3467c-1.35547 -11.1221 -6.29492 -21.8857 -14.8145 -30.4043l-4.375 -4.375
c-3.62695 -3.625 -9.17871 -4.59473 -13.7607 -2.29395c-12.999 6.52344 -25.1865 15.2109 -36.0244 26.0488c-51.0918 51.0908 -54.377 132.287 -9.75 187.16c6.24121 7.72949 2.7832 3.86328 84.9395 86.0195c54.6963 54.6963 143.267 54.7451 197.99 0z" />
    <glyph glyph-name="flask" unicode="&#xf0c3;" horiz-adv-x="448" 
d="M437.2 44.5c29.2998 -47 -4.40039 -108.5 -60.1006 -108.5h-306.199c-55.6006 0 -89.4004 61.4004 -60.1006 108.5l117.2 188.5v167h-20c-6.59961 0 -12 5.40039 -12 12v24c0 6.59961 5.40039 12 12 12h232c6.59961 0 12 -5.40039 12 -12v-24
c0 -6.59961 -5.40039 -12 -12 -12h-20v-167zM377.1 -16c18.2002 0 28.7002 20.0996 19.3008 35.2002l-117.2 188.5c-4.7002 7.59961 -7.2002 16.2998 -7.2002 25.2998v167h-96v-167c0 -8.90039 -2.5 -17.7002 -7.2002 -25.2998l-117.2 -188.5
c-9.39941 -15.1006 1.2002 -35.2002 19.3008 -35.2002h306.199z" />
    <glyph glyph-name="paperclip" unicode="&#xf0c6;" 
d="M67.5078 -20.4668c-58.0049 58.0127 -58.0156 151.92 0 209.942l225.011 225.04c44.6436 44.6455 117.279 44.6455 161.921 0c44.7422 -44.749 44.7529 -117.186 0 -161.943l-189.466 -189.49c-31.4092 -31.4131 -82.5176 -31.4121 -113.926 -0.000976562
c-31.4785 31.4824 -31.4902 82.4531 0 113.944l160.462 160.483c4.6875 4.6875 12.2861 4.6875 16.9727 0l16.9668 -16.9707c4.68457 -4.68652 4.68457 -12.2832 0 -16.9688l-160.466 -160.486c-12.7246 -12.7236 -12.7305 -33.3281 0 -46.0576
c12.6953 -12.6973 33.3555 -12.6992 46.0537 0.000976562l189.465 189.488c25.9873 25.9893 25.9941 68.0605 0.000976562 94.0566c-25.9307 25.9336 -68.1191 25.9316 -94.0488 0l-225.01 -225.039c-39.249 -39.252 -39.2588 -102.795 -0.000976562 -142.058
c39.2842 -39.29 102.885 -39.2861 142.162 0.0283203c54.0557 54.1084 141.815 141.919 195.892 196.007c4.68555 4.6875 12.2822 4.68457 16.9688 -0.00390625l16.9668 -16.9707c4.68555 -4.68652 4.68945 -12.2793 0.00390625 -16.9648
c-54.0723 -54.085 -141.827 -141.892 -195.881 -195.996c-58.0332 -58.0918 -152.004 -58.0928 -210.048 -0.0410156z" />
    <glyph glyph-name="bars" unicode="&#xf0c9;" horiz-adv-x="448" 
d="M436 324h-424c-6.62695 0 -12 5.37305 -12 12v32c0 6.62695 5.37305 12 12 12h424c6.62695 0 12 -5.37305 12 -12v-32c0 -6.62695 -5.37305 -12 -12 -12zM436 164h-424c-6.62695 0 -12 5.37305 -12 12v32c0 6.62695 5.37305 12 12 12h424c6.62695 0 12 -5.37305 12 -12
v-32c0 -6.62695 -5.37305 -12 -12 -12zM436 4h-424c-6.62695 0 -12 5.37305 -12 12v32c0 6.62695 5.37305 12 12 12h424c6.62695 0 12 -5.37305 12 -12v-32c0 -6.62695 -5.37305 -12 -12 -12z" />
    <glyph glyph-name="table" unicode="&#xf0ce;" 
d="M464 416c26.5098 0 48 -21.4902 48 -48v-352c0 -26.5098 -21.4902 -48 -48 -48h-416c-26.5098 0 -48 21.4902 -48 48v352c0 26.5098 21.4902 48 48 48h416zM232 16v136h-184v-130c0 -3.31152 2.68848 -6 6 -6h178zM232 200v136h-184v-136h184zM458 16
c3.31152 0 6 2.68848 6 6v130h-184v-136h178zM464 200v136h-184v-136h184z" />
    <glyph glyph-name="caret-down" unicode="&#xf0d7;" horiz-adv-x="320" 
d="M272 288c42.7002 0 64 -51.7998 34 -81.9004l-112 -112c-18.7998 -18.6992 -49.2002 -18.6992 -67.9004 0l-111.899 112c-30.2998 30.2002 -8.7002 81.9004 33.8994 81.9004h223.9zM160 128l112 112h-224z" />
    <glyph glyph-name="caret-up" unicode="&#xf0d8;" horiz-adv-x="320" 
d="M48.0479 96c-42.7227 0 -64.0898 51.792 -33.9404 81.9414l111.951 112c18.7451 18.7451 49.1377 18.7441 67.8828 0l111.942 -112c30.21 -30.21 8.69727 -81.9414 -33.9404 -81.9414h-223.896zM160 256l-112 -112h224z" />
    <glyph glyph-name="caret-left" unicode="&#xf0d9;" horiz-adv-x="224" 
d="M224 80.0479c0 -42.7227 -51.792 -64.0898 -81.9414 -33.9404l-112 111.951c-18.7451 18.7451 -18.7441 49.1377 0 67.8828l112 111.942c30.21 30.21 81.9414 8.69727 81.9414 -33.9404v-223.896zM64 192l112 -112v224z" />
    <glyph glyph-name="caret-right" unicode="&#xf0da;" horiz-adv-x="224" 
d="M0 303.952c0 42.7227 51.792 64.0898 81.9414 33.9404l112 -111.951c18.7451 -18.7451 18.7441 -49.1377 0 -67.8828l-112 -111.942c-30.21 -30.21 -81.9414 -8.69727 -81.9414 33.9404v223.896zM160 192l-112 112v-224z" />
    <glyph glyph-name="columns" unicode="&#xf0db;" 
d="M464 416c26.5098 0 48 -21.4902 48 -48v-352c0 -26.5098 -21.4902 -48 -48 -48h-416c-26.5098 0 -48 21.4902 -48 48v352c0 26.5098 21.4902 48 48 48h416zM232 16v320h-184v-314c0 -3.31152 2.68848 -6 6 -6h178zM458 16c3.31152 0 6 2.68848 6 6v314h-184v-320h178z
" />
    <glyph glyph-name="sort" unicode="&#xf0dc;" horiz-adv-x="320" 
d="M272 160c42.7002 0 64 -51.7998 34 -81.9004l-112 -112c-18.7998 -18.6992 -49.2002 -18.6992 -67.9004 0l-111.899 112c-30.2998 30.2002 -8.7002 81.9004 33.8994 81.9004h223.9zM160 0l112 112h-224zM48 224c-42.7002 0 -64 51.7998 -34 81.9004l112 112
c18.7998 18.6992 49.2002 18.6992 67.9004 0l111.899 -112c30.2998 -30.2002 8.7002 -81.9004 -33.8994 -81.9004h-223.9zM160 384l-112 -112h224z" />
    <glyph glyph-name="sort-down" unicode="&#xf0dd;" horiz-adv-x="320" 
d="M272 160c42.7002 0 64 -51.7998 34 -81.9004l-112 -112c-18.7998 -18.6992 -49.2002 -18.6992 -67.9004 0l-111.899 112c-30.2998 30.2002 -8.7002 81.9004 33.8994 81.9004h223.9zM160 0l112 112h-224z" />
    <glyph glyph-name="sort-up" unicode="&#xf0de;" horiz-adv-x="320" 
d="M48 224c-42.7002 0 -64 51.7998 -34 81.9004l112 112c18.7998 18.6992 49.2002 18.6992 67.9004 0l111.899 -112c30.2998 -30.2002 8.7002 -81.9004 -33.8994 -81.9004h-223.9zM160 384l-112 -112h224z" />
    <glyph glyph-name="undo" unicode="&#xf0e2;" 
d="M12 440h27.7109c6.73926 0 12.1572 -5.54785 11.9971 -12.2861l-2.34668 -98.5674c44.5635 67.0195 120.851 111.123 207.432 110.853c136.387 -0.426758 247.42 -112.008 247.207 -248.396c-0.213867 -136.784 -111.165 -247.604 -248 -247.604
c-63.9258 0 -122.202 24.1865 -166.178 63.9082c-5.11328 4.61816 -5.35449 12.5605 -0.482422 17.4326l19.7383 19.7383c4.49805 4.49805 11.7529 4.78516 16.501 0.551758c34.6338 -30.877 80.3154 -49.6309 130.421 -49.6309c108.322 0 196 87.6621 196 196
c0 108.322 -87.6621 196 -196 196c-79.5449 0 -147.941 -47.2822 -178.675 -115.302l126.389 3.00879c6.7373 0.160156 12.2861 -5.25684 12.2861 -11.9971v-27.71c0 -6.62695 -5.37305 -12 -12 -12h-192c-6.62695 0 -12 5.37305 -12 12v192c0 6.62695 5.37305 12 12 12z
" />
    <glyph glyph-name="gavel" unicode="&#xf0e3;" 
d="M497.965 271.382c18.7129 -18.7148 18.7129 -49.167 0 -67.8818l-105.842 -105.842c-17.4854 -17.4854 -45.9326 -17.4844 -63.417 0l-25.417 25.417c-13.6133 13.6133 -17.3232 33.4355 -11.1338 50.4336l-10.3408 10.3408l-56.543 -56.5186
c22.2676 -22.2676 19.0273 -52.0889 1.61523 -69.499l-107.772 -107.796c-18.7168 -18.7148 -49.168 -18.7139 -67.8818 0l-37.1631 37.1738c-18.7607 18.7598 -18.7578 49.125 0 67.8818l107.764 107.795c17.6318 17.6328 47.4766 20.4043 69.498 -1.61523l56.543 56.5195
l-10.3418 10.3418c-17.001 -6.19238 -36.8213 -2.47949 -50.4346 11.1328l-23.1836 23.1846c-18.7148 18.7158 -18.7148 49.168 0 67.8828l103.608 103.598c18.7598 18.7607 49.125 18.7578 67.8818 0l23.1846 -23.1738c13.6123 -13.6123 17.3223 -33.4346 11.1328 -50.4326
l54.624 -54.624c17.001 6.1875 36.8232 2.47656 50.4346 -11.1328zM85.1953 -16.043l107.751 107.816l-37.1729 37.1729l-107.773 -107.795l37.1738 -37.1738zM360.414 133.832l103.609 103.609l-23.1846 23.1836l-16.8154 -16.8164l-116.191 116.191l16.8174 16.8164
l-23.1846 23.1836l-103.608 -103.608l23.1836 -23.1836l14.792 14.792l116.191 -116.191l-14.793 -14.793z" />
    <glyph glyph-name="umbrella" unicode="&#xf0e9;" horiz-adv-x="576" 
d="M575.2 194.2c5.7998 -23.7002 -22.4004 -43.6006 -43.5 -25.4004l-0.5 0.400391c-48.7998 45.3994 -89.2002 28.2998 -125.4 -27.7002c-11.3994 -17.7998 -34.7998 -16.9004 -45.5996 0c-10.2002 15.9004 -22.2998 37.7002 -48.2002 48.5v-182
c0 -39.7002 -32.2998 -72 -72 -72c-30.5 0 -57.7002 19.2998 -67.9004 48c-4.39941 12.5 2.10059 26.2002 14.6006 30.5996c12.5 4.40039 26.2002 -2.09961 30.5996 -14.5996c3.40039 -9.59961 12.5 -16 22.7002 -16c13.2002 0 24 10.7998 24 24v182.3
c-20.5996 -8.59961 -34.7002 -27.8994 -48.2002 -48.7998c-10.7998 -16.9004 -34.2998 -17.7998 -45.5996 0c-35.7998 55.7998 -76.1006 73.5 -125.3 27.7002l-0.5 -0.400391c-21.3008 -18.2998 -49.5 1.90039 -43.6006 25.5c29.7002 121.9 141.3 196.101 263.2 204.8
v24.9004c0 13.2998 10.7002 24 24 24s24 -10.7002 24 -24v-24.9004c122.3 -8.7998 234.3 -83.5996 263.2 -204.899zM383.8 192.7c32.2002 38.3994 74.1006 60.2998 122 46.5c-44 73.7998 -132.2 112.8 -217.8 112.8c-86 0 -173 -38.7998 -217.3 -112.1
c39.8994 10.2998 87 -2.5 122.7 -46.8008c24.8994 31.2002 55.1992 49.9004 94.5996 49.9004c39 0 71.7998 -20.2998 95.7998 -50.2998z" />
    <glyph glyph-name="paste" unicode="&#xf0ea;" horiz-adv-x="448" 
d="M433.941 254.059c7.75977 -7.75977 14.0586 -22.9658 14.0586 -33.9404v-236.118c0 -26.5098 -21.4902 -48 -48 -48h-224c-26.5098 0 -48 21.4902 -48 48v48h-80c-26.5098 0 -48 21.4902 -48 48v288c0 26.5098 21.4902 48 48 48h61.4141
c9.00391 18.9023 28.292 32 50.5859 32s41.582 -13.0977 50.5859 -32h61.4141c26.5098 0 48 -21.4902 48 -48v-48h28.1182c10.9746 0 26.1807 -6.29883 33.9404 -14.0586zM349.875 270.243c-0.969727 0.969727 -2.87012 1.75684 -4.24219 1.75684h-0.000976562h-9.63184v-64
h64v9.63184v0.000976562c0 1.37207 -0.787109 3.27246 -1.75684 4.24219zM160 410c-9.94141 0 -18 -8.05859 -18 -18s8.05859 -18 18 -18s18 8.05859 18 18s-8.05859 18 -18 18zM128 272c0 26.5098 21.4902 48 48 48h96v42c0 3.31152 -2.68848 6 -6 6h-55.4141
c-9.00391 -18.9023 -28.292 -32 -50.5859 -32s-41.582 13.0977 -50.5859 32h-55.4141c-3.31152 0 -6 -2.68848 -6 -6v-276c0 -3.31152 2.68848 -6 6 -6h74v192zM394 -16c3.31152 0 6 2.68848 6 6v170h-88c-13.2549 0 -24 10.7451 -24 24v88h-106
c-3.31152 0 -6 -2.68848 -6 -6v-276c0 -3.31152 2.68848 -6 6 -6h212z" />
    <glyph glyph-name="exchange" unicode="&#xf0ec;" 
d="M508.485 279.515l-100.375 -100c-4.68652 -4.68555 -12.2842 -4.68555 -16.9707 0l-19.626 19.626c-4.75293 4.75293 -4.6748 12.4844 0.172852 17.1406l51.2295 47.7188h-410.916c-6.62695 0 -12 5.37305 -12 12v24c0 6.62695 5.37305 12 12 12h410.916
l-51.2275 47.7188c-4.84961 4.65625 -4.92773 12.3877 -0.173828 17.1406l19.626 19.626c4.68652 4.68555 12.2842 4.68555 16.9707 0l100.375 -100c4.68457 -4.68652 4.68457 -12.2842 -0.000976562 -16.9707zM3.51465 87.5146
c-4.68652 4.68652 -4.68652 12.2842 -0.000976562 16.9707l100.375 100c4.68652 4.68555 12.2842 4.68555 16.9707 0l19.626 -19.626c4.75391 -4.75293 4.67578 -12.4844 -0.173828 -17.1406l-51.2275 -47.7188h410.916c6.62695 0 12 -5.37305 12 -12v-24
c0 -6.62695 -5.37305 -12 -12 -12h-410.916l51.2295 -47.7188c4.84766 -4.65625 4.92578 -12.3877 0.172852 -17.1406l-19.626 -19.626c-4.68652 -4.68555 -12.2842 -4.68555 -16.9707 0z" />
    <glyph glyph-name="coffee" unicode="&#xf0f4;" horiz-adv-x="640" 
d="M512 416c70.5996 0 128 -57.4004 128 -128s-57.4004 -128 -128 -128h-32v-16c0 -44.2002 -35.7998 -80 -80 -80h-224c-44.2002 0 -80 35.7998 -80 80v256c0 8.7998 7.2002 16 16 16h400zM432 144v224h-288v-224c0 -17.5996 14.4004 -32 32 -32h224
c17.5996 0 32 14.4004 32 32zM512 208c44.0996 0 80 35.9004 80 80s-35.9004 80 -80 80h-32v-160h32zM567.8 -32h-527.6c-37.2998 0 -50.2002 48 -32 48h591.7c18.0996 0 5.19922 -48 -32.1006 -48z" />
    <glyph glyph-name="medkit" unicode="&#xf0fa;" 
d="M464 352c26.5098 0 48 -21.4902 48 -48v-288c0 -26.5098 -21.4902 -48 -48 -48h-416c-26.5098 0 -48 21.4902 -48 48v288c0 26.5098 21.4902 48 48 48h112v16c0 26.5098 21.4902 48 48 48h96c26.5098 0 48 -21.4902 48 -48v-16h112zM208 368v-16h96v16h-96zM54 16h404
c3.31152 0 6 2.68848 6 6v276c0 3.31152 -2.68848 6 -6 6h-404c-3.31152 0 -6 -2.68848 -6 -6v-276c0 -3.31152 2.68848 -6 6 -6zM352 176v-32c0 -6.62695 -5.37305 -12 -12 -12h-56v-56c0 -6.62695 -5.37305 -12 -12 -12h-32c-6.62695 0 -12 5.37305 -12 12v56h-56
c-6.62695 0 -12 5.37305 -12 12v32c0 6.62695 5.37305 12 12 12h56v56c0 6.62695 5.37305 12 12 12h32c6.62695 0 12 -5.37305 12 -12v-56h56c6.62695 0 12 -5.37305 12 -12z" />
    <glyph glyph-name="fighter-jet" unicode="&#xf0fb;" horiz-adv-x="640" 
d="M520 266.6c60.46 -13.4492 120.3 -21.8398 120 -74.5996c0.349609 -52.5996 -59 -61.0498 -120 -74.5996l-108 -12.3408l-41.7803 -17.0596h-11.1494l-70.5703 -88.21c22.2305 -1.23047 39.5 -7.7002 39.5 -15.79c0 -9 -21.3799 -16 -47.1904 -16h-152.81v32h16v63.5303
l-24.5195 -31.5303h-74.3008l-37.1797 37.1602v62.1201l-8 1v119.42l8 1v62.1201l37.1797 37.1797h74.3008l24.5195 -31.5303v63.5303h-16v32h152.81c25.8105 0 47.1904 -7 47.1904 -16c0 -8.08984 -17.2695 -14.5596 -39.5 -15.79l70.5703 -88.21h11.1494l41.7803 -17.0596
zM512 164.8c81.5996 18.1299 80 22.6006 80 27.2002s1.59961 9.07031 -80 27.2002l-112 12.7998l-39.2002 16h-24.7998l-96 120h-48v-136h-40l-56 72h-30.9297l-9.07031 -9.07031v-54.9297h8v-16h40v-8l-56 -6.7998v-34.4004l56 -6.7998v-8h-40v-16h-8v-54.9297
l9.07031 -9.07031h30.9297l56 72h40v-136h48l96 120h24.7998l39.2002 16z" />
    <glyph glyph-name="beer" unicode="&#xf0fc;" horiz-adv-x="448" 
d="M152 296v-208c0 -13.2549 -10.7451 -24 -24 -24s-24 10.7451 -24 24v208c0 13.2549 10.7451 24 24 24s24 -10.7451 24 -24zM224 320c13.2549 0 24 -10.7451 24 -24v-208c0 -13.2549 -10.7451 -24 -24 -24s-24 10.7451 -24 24v208c0 13.2549 10.7451 24 24 24zM448 280
v-145.288c0 -27.9854 -16.418 -53.6455 -41.8271 -65.373l-54.1729 -25.0029v-28.3359c0 -26.5098 -21.4902 -48 -48 -48h-256c-26.5098 0 -48 21.4902 -48 48v352c0 26.5098 21.4902 48 48 48h256c26.5098 0 48 -21.4902 48 -48v-16h24c39.7012 0 72 -32.2988 72 -72z
M298 368h-244c-3.31445 0 -6 -2.67773 -6 -5.99219v-340.016c0.000976562 -3.30762 2.68555 -5.99219 5.99316 -5.99219h0.00683594h244c3.31152 0 6 2.68848 6 6v340c0 3.31152 -2.68848 6 -6 6zM400 280c0 13.2334 -10.7666 24 -24 24h-24v-206.798l34.0576 15.7188
c8.4707 3.90918 13.9424 12.4629 13.9424 21.791v145.288z" />
    <glyph glyph-name="h-square" unicode="&#xf0fd;" horiz-adv-x="448" 
d="M400 416c26.5098 0 48 -21.4902 48 -48v-352c0 -26.5098 -21.4902 -48 -48 -48h-352c-26.5098 0 -48 21.4902 -48 48v352c0 26.5098 21.4902 48 48 48h352zM394 16c3.31152 0 6 2.68848 6 6v340c0 3.31152 -2.68848 6 -6 6h-340c-3.31152 0 -6 -2.68848 -6 -6v-340
c0 -3.31152 2.68848 -6 6 -6h340zM344 308v-232c0 -6.62695 -5.37305 -12 -12 -12h-24c-6.62695 0 -12 5.37305 -12 12v92h-144v-92c0 -6.62695 -5.37305 -12 -12 -12h-24c-6.62695 0 -12 5.37305 -12 12v232c0 6.62695 5.37305 12 12 12h24c6.62695 0 12 -5.37305 12 -12
v-92h144v92c0 6.62695 5.37305 12 12 12h24c6.62695 0 12 -5.37305 12 -12z" />
    <glyph glyph-name="angle-double-left" unicode="&#xf100;" horiz-adv-x="384" 
d="M20.2002 200.5l146.8 148c4.7002 4.7002 12.2998 4.7002 17 0l19.7998 -19.7998c4.7002 -4.7002 4.7002 -12.2998 0 -17l-118.5 -119.7l118.5 -119.7c4.7002 -4.7002 4.7002 -12.2998 0 -17l-19.7998 -19.7998c-4.7002 -4.7002 -12.2998 -4.7002 -17 0l-146.8 148
c-4.7002 4.7002 -4.7002 12.2998 0 17zM180.2 183.5c-4.7002 4.7002 -4.7002 12.2998 0 17l146.8 148c4.7002 4.7002 12.2998 4.7002 17 0l19.7998 -19.7998c4.7002 -4.7002 4.7002 -12.2998 0 -17l-118.5 -119.7l118.5 -119.7c4.7002 -4.7002 4.7002 -12.2998 0 -17
l-19.7998 -19.7998c-4.7002 -4.7002 -12.2998 -4.7002 -17 0z" />
    <glyph glyph-name="angle-double-right" unicode="&#xf101;" horiz-adv-x="384" 
d="M363.8 183.5l-146.8 -148c-4.7002 -4.7002 -12.2998 -4.7002 -17 0l-19.7998 19.7998c-4.7002 4.7002 -4.7002 12.2998 0 17l118.5 119.7l-118.5 119.7c-4.7002 4.7002 -4.7002 12.2998 0 17l19.7998 19.7998c4.7002 4.7002 12.2998 4.7002 17 0l146.8 -148
c4.7002 -4.7002 4.7002 -12.2998 0 -17zM203.8 200.5c4.7002 -4.7002 4.7002 -12.2998 0 -17l-146.8 -148c-4.7002 -4.7002 -12.2998 -4.7002 -17 0l-19.7998 19.7998c-4.7002 4.7002 -4.7002 12.2998 0 17l118.5 119.7l-118.5 119.7c-4.7002 4.7002 -4.7002 12.2998 0 17
l19.7998 19.7998c4.7002 4.7002 12.2998 4.7002 17 0z" />
    <glyph glyph-name="angle-double-up" unicode="&#xf102;" horiz-adv-x="320" 
d="M168.5 363.8l148 -146.8c4.7002 -4.7002 4.7002 -12.2998 0 -17l-19.7998 -19.7998c-4.7002 -4.7002 -12.2998 -4.7002 -17 0l-119.7 118.5l-119.7 -118.5c-4.7002 -4.7002 -12.2998 -4.7002 -17 0l-19.7998 19.7998c-4.7002 4.7002 -4.7002 12.2998 0 17l148 146.8
c4.7002 4.7002 12.2998 4.7002 17 0zM151.5 203.8c4.7002 4.7002 12.2998 4.7002 17 0l148 -146.8c4.7002 -4.7002 4.7002 -12.2998 0 -17l-19.7998 -19.7998c-4.7002 -4.7002 -12.2998 -4.7002 -17 0l-119.7 118.5l-119.7 -118.5c-4.7002 -4.7002 -12.2998 -4.7002 -17 0
l-19.7998 19.7998c-4.7002 4.7002 -4.7002 12.2998 0 17z" />
    <glyph glyph-name="angle-double-down" unicode="&#xf103;" horiz-adv-x="320" 
d="M151.5 20.2002l-148 146.8c-4.7002 4.7002 -4.7002 12.2998 0 17l19.7998 19.7998c4.7002 4.7002 12.2998 4.7002 17 0l119.7 -118.5l119.7 118.5c4.7002 4.7002 12.2998 4.7002 17 0l19.7998 -19.7998c4.7002 -4.7002 4.7002 -12.2998 0 -17l-148 -146.8
c-4.7002 -4.7002 -12.2998 -4.7002 -17 0zM168.5 180.2c-4.7002 -4.7002 -12.2998 -4.7002 -17 0l-148 146.8c-4.7002 4.7002 -4.7002 12.2998 0 17l19.7998 19.7998c4.7002 4.7002 12.2998 4.7002 17 0l119.7 -118.5l119.7 118.5c4.7002 4.7002 12.2998 4.7002 17 0
l19.7998 -19.7998c4.7002 -4.7002 4.7002 -12.2998 0 -17z" />
    <glyph glyph-name="angle-left" unicode="&#xf104;" horiz-adv-x="192" 
d="M4.2002 200.5l146.8 148c4.7002 4.7002 12.2998 4.7002 17 0l19.7998 -19.7998c4.7002 -4.7002 4.7002 -12.2998 0 -17l-118.5 -119.7l118.5 -119.7c4.7002 -4.7002 4.7002 -12.2998 0 -17l-19.7998 -19.7998c-4.7002 -4.7002 -12.2998 -4.7002 -17 0l-146.8 148
c-4.7002 4.7002 -4.7002 12.2998 0 17z" />
    <glyph glyph-name="angle-right" unicode="&#xf105;" horiz-adv-x="192" 
d="M187.8 183.5l-146.8 -148c-4.7002 -4.7002 -12.2998 -4.7002 -17 0l-19.7998 19.7998c-4.7002 4.7002 -4.7002 12.2998 0 17l118.5 119.7l-118.5 119.7c-4.7002 4.7002 -4.7002 12.2998 0 17l19.7998 19.7998c4.7002 4.7002 12.2998 4.7002 17 0l146.8 -148
c4.7002 -4.7002 4.7002 -12.2998 0 -17z" />
    <glyph glyph-name="angle-up" unicode="&#xf106;" horiz-adv-x="320" 
d="M168.5 283.8l148 -146.8c4.7002 -4.7002 4.7002 -12.2998 0 -17l-19.7998 -19.7998c-4.7002 -4.7002 -12.2998 -4.7002 -17 0l-119.7 118.5l-119.7 -118.5c-4.7002 -4.7002 -12.2998 -4.7002 -17 0l-19.7998 19.7998c-4.7002 4.7002 -4.7002 12.2998 0 17l148 146.8
c4.7002 4.7002 12.2998 4.7002 17 0z" />
    <glyph glyph-name="angle-down" unicode="&#xf107;" horiz-adv-x="320" 
d="M151.5 100.2l-148 146.8c-4.7002 4.7002 -4.7002 12.2998 0 17l19.7998 19.7998c4.7002 4.7002 12.2998 4.7002 17 0l119.7 -118.5l119.7 118.5c4.7002 4.7002 12.2998 4.7002 17 0l19.7998 -19.7998c4.7002 -4.7002 4.7002 -12.2998 0 -17l-148 -146.8
c-4.7002 -4.7002 -12.2998 -4.7002 -17 0z" />
    <glyph glyph-name="desktop" unicode="&#xf108;" horiz-adv-x="576" 
d="M528 448c26.5 0 48 -21.5 48 -48v-288c0 -26.5 -21.5 -48 -48 -48h-480c-26.5 0 -48 21.5 -48 48v288c0 26.5 21.5 48 48 48h480zM522 112c3.2998 0 6 2.7002 6 6v276c0 3.2998 -2.7002 6 -6 6h-468c-3.2998 0 -6 -2.7002 -6 -6v-276c0 -3.2998 2.7002 -6 6 -6h468z
M480 -40c0 -13.2998 -10.7002 -24 -24 -24h-336c-13.2998 0 -24 10.7002 -24 24s10.7002 24 24 24h98.7002l18.5996 55.7998c1.60059 4.90039 6.2002 8.2002 11.4004 8.2002h78.7002c5.19922 0 9.7998 -3.2998 11.3994 -8.2002l18.6006 -55.7998h98.5996
c13.2998 0 24 -10.7002 24 -24z" />
    <glyph glyph-name="tablet" unicode="&#xf10a;" horiz-adv-x="448" 
d="M256 32c0 -17.7002 -14.2998 -32 -32 -32s-32 14.2998 -32 32c0 21.2998 14.2998 32 32 32s32 -14.2998 32 -32zM448 400v-416c0 -26.5 -21.5 -48 -48 -48h-352c-26.5 0 -48 21.5 -48 48v416c0 26.5 21.5 48 48 48h352c26.5 0 48 -21.5 48 -48zM400 -10v404
c0 3.2998 -2.7002 6 -6 6h-340c-3.2998 0 -6 -2.7002 -6 -6v-404c0 -3.2998 2.7002 -6 6 -6h340c3.2998 0 6 2.7002 6 6z" />
    <glyph glyph-name="mobile" unicode="&#xf10b;" horiz-adv-x="320" 
d="M192 32c0 -17.7002 -14.2998 -32 -32 -32s-32 14.2998 -32 32s14.2998 32 32 32s32 -14.2998 32 -32zM320 400v-416c0 -26.5 -21.5 -48 -48 -48h-224c-26.5 0 -48 21.5 -48 48v416c0 26.5 21.5 48 48 48h224c26.5 0 48 -21.5 48 -48zM272 -10v404
c0 3.2998 -2.7002 6 -6 6h-212c-3.2998 0 -6 -2.7002 -6 -6v-404c0 -3.2998 2.7002 -6 6 -6h212c3.2998 0 6 2.7002 6 6z" />
    <glyph glyph-name="spinner" unicode="&#xf110;" 
d="M296 400c0 -22.0908 -17.9092 -40 -40 -40s-40 17.9092 -40 40s17.9092 40 40 40s40 -17.9092 40 -40zM256 24c22.0908 0 40 -17.9092 40 -40s-17.9092 -40 -40 -40s-40 17.9092 -40 40s17.9092 40 40 40zM504 192c0 -22.0908 -17.9092 -40 -40 -40s-40 17.9092 -40 40
s17.9092 40 40 40s40 -17.9092 40 -40zM88 192c0 -22.0908 -17.9092 -40 -40 -40s-40 17.9092 -40 40s17.9092 40 40 40s40 -17.9092 40 -40zM108.922 379.078c22.0908 0 40 -17.9082 40 -40c0 -22.0908 -17.9092 -40 -40 -40s-40 17.9092 -40 40s17.9092 40 40 40z
M403.078 84.9219c22.0918 0 40 -17.9092 40 -40s-17.9082 -40 -40 -40c-22.0908 0 -40 17.9092 -40 40s17.9092 40 40 40zM108.922 84.9219c22.0908 0 40 -17.9092 40 -40s-17.9092 -40 -40 -40s-40 17.9092 -40 40s17.9092 40 40 40z" />
    <glyph glyph-name="gamepad" unicode="&#xf11b;" horiz-adv-x="640" 
d="M256 208v-32c0 -4.40039 -3.59961 -8 -8 -8h-48v-48c0 -4.40039 -3.59961 -8 -8 -8h-32c-4.40039 0 -8 3.59961 -8 8v48h-48c-4.40039 0 -8 3.59961 -8 8v32c0 4.40039 3.59961 8 8 8h48v48c0 4.40039 3.59961 8 8 8h32c4.40039 0 8 -3.59961 8 -8v-48h48
c4.40039 0 8 -3.59961 8 -8zM496 272c22.0996 0 40 -17.9004 40 -40s-17.9004 -40 -40 -40s-40 17.9004 -40 40s17.9004 40 40 40zM432 192c22.0996 0 40 -17.9004 40 -40s-17.9004 -40 -40 -40s-40 17.9004 -40 40s17.9004 40 40 40zM464 320h-288
c-70.7998 0 -128 -57.2998 -128 -128c0 -70.7998 57.2998 -128 128 -128c56.2002 0 86.0996 33.2998 101.7 48h84.5996c16.2002 -15.2998 45.9004 -48 101.7 -48c70.7998 0 128 57.2998 128 128c0 70.7998 -57.2998 128 -128 128zM464 368c97.2002 0 176 -78.7998 176 -176
s-78.7998 -176 -176 -176c-46.7998 0 -89.2998 18.2002 -120.8 48h-46.4004c-31.5 -29.7998 -74 -48 -120.8 -48c-97.2002 0 -176 78.7998 -176 176s78.7998 176 176 176h288z" />
    <glyph glyph-name="terminal" unicode="&#xf120;" horiz-adv-x="640" 
d="M41.6777 409.899l209.414 -209.414c4.68652 -4.68652 4.68652 -12.2842 0 -16.9717l-209.414 -209.413c-4.68555 -4.68555 -12.2842 -4.68555 -16.9707 0l-19.7988 19.7988c-4.68652 4.68555 -4.68652 12.2832 0 16.9707l180.699 181.13l-180.699 181.13
c-4.68652 4.68652 -4.68652 12.2842 0 16.9707l19.7988 19.7998c4.68555 4.68555 12.2842 4.68555 16.9707 -0.000976562zM640 -20c0 -6.62695 -5.37305 -12 -12 -12h-328c-6.62695 0 -12 5.37305 -12 12v28c0 6.62695 5.37305 12 12 12h328c6.62695 0 12 -5.37305 12 -12
v-28z" />
    <glyph glyph-name="code" unicode="&#xf121;" horiz-adv-x="576" 
d="M234.8 -63.7002l-38.7998 11.2998c-4.2002 1.2002 -6.7002 5.7002 -5.5 9.90039l140.8 484.7c1.2002 4.2002 5.7002 6.7002 9.90039 5.5l38.7998 -11.2998c4.2002 -1.2002 6.7002 -5.7002 5.5 -9.90039l-140.8 -484.7c-1.2002 -4.2998 -5.60059 -6.7002 -9.90039 -5.5z
M151.6 57.4004c-3.09961 -3.2002 -8.09961 -3.40039 -11.2998 -0.400391l-137.8 129.1c-3.40039 3.2002 -3.40039 8.5 0 11.7002l137.8 129.2c3.2002 3 8.2998 2.7998 11.2998 -0.400391l27.2002 -29c3.10059 -3.2998 2.90039 -8.5 -0.5 -11.5l-106.1 -94.0996
l106.1 -94.0996c3.2998 -3 3.60059 -8.2002 0.5 -11.5zM435.7 57c-3.2002 -3 -8.2002 -2.7998 -11.2998 0.400391l-27.2002 29c-3.10059 3.2998 -2.90039 8.5 0.5 11.5l106.1 94.0996l-106.1 94.0996c-3.2998 3 -3.60059 8.2002 -0.5 11.5l27.2002 29
c3 3.30078 8.09961 3.40039 11.2998 0.400391l137.7 -129.2c3.39941 -3.2002 3.39941 -8.5 0 -11.7002z" />
    <glyph glyph-name="reply-all" unicode="&#xf122;" horiz-adv-x="640" 
d="M142.06 174.06c-18.75 18.7402 -18.75 49.1406 0 67.8809l160 159.96c30.0508 30.0596 81.9404 8.93945 81.9404 -33.9404v-72.7295c128.84 -4.59082 256 -33.2109 256 -175.61c0 -63.7803 -27.8496 -108.41 -78.46 -143.11
c-36.8896 -25.2793 -86.2705 9.68066 -73.0996 53.4307c17.5098 58.1797 13.7393 84.2295 -104.44 89.1699v-71.0801c0 -42.9199 -51.9199 -63.96 -81.9404 -33.9404zM176 208l160 -160v120c137.571 0 239.402 -15.7529 198.4 -152
c28.8096 19.75 57.5996 47.8203 57.5996 103.62c0 121.867 -135.384 128.38 -256 128.38v120zM14.0586 241.941l160 159.962c20.3896 20.3887 50.8223 17.2197 68.29 -0.310547l-194.349 -193.593l194.35 -193.603c-17.4736 -17.5312 -47.9209 -20.6758 -68.291 -0.306641
l-160 159.967c-18.7441 18.7461 -18.7441 49.1387 0 67.8838z" />
    <glyph glyph-name="location-arrow" unicode="&#xf124;" 
d="M461.9 448c32.2393 0 60.1592 -34.8896 46.5898 -67.4805l-191.9 -415.779c-9.25977 -19.8398 -26.71 -28.7402 -44.0098 -28.7402c-24.5303 0 -48.7402 17.9199 -48.7402 47.9297v175.91h-175.91c-51.1699 0 -67.1602 70.3604 -19.1895 92.75l415.77 191.891
c5.7998 2.41992 11.6602 3.51953 17.3906 3.51953zM271.81 -16.0703l191.931 414.13c-0.410156 0.610352 -1.08008 1.27051 -1.69043 1.68066l-413.21 -190.71c-0.950195 -0.580078 -0.75 -1.56055 -0.479492 -1.93066l175.479 0.709961h47.9697v-223.88z" />
    <glyph glyph-name="code-branch" unicode="&#xf126;" horiz-adv-x="384" 
d="M384 304c0 -35.2002 -22.7998 -65.0996 -54.4004 -75.7998c-0.5 -28.1006 -7.59961 -50.5 -21.5996 -67.9004c-28.2002 -35.0996 -76 -39.5996 -118.2 -43.5c-25.7002 -2.39941 -49.8994 -4.59961 -66.0996 -12.7998
c-7.10059 -3.59961 -11.7998 -8.2002 -14.9004 -13.4004c30 -11.5 51.2002 -40.5996 51.2002 -74.5996c0 -44.2002 -35.7998 -80 -80 -80s-80 35.7998 -80 80c0 35.7998 23.5 66.0996 56 76.4004v199.3c-32.5 10.2002 -56 40.5 -56 76.2998c0 44.2002 35.7998 80 80 80
s80 -35.7998 80 -80c0 -35.7998 -23.5 -66.0996 -56 -76.2998v-144c23.9004 11.5 53.0996 14.2998 81.2998 16.8994c35.9004 3.30078 69.7998 6.5 85.2002 25.7002c6.7998 8.40039 10.4004 20.7998 11 36.9004c-33.2002 9.7002 -57.5 40.3994 -57.5 76.7998
c0 44.2002 35.7998 80 80 80s80 -35.7998 80 -80zM80 400c-17.5996 0 -32 -14.4004 -32 -32s14.4004 -32 32 -32s32 14.4004 32 32s-14.4004 32 -32 32zM80 -16c17.5996 0 32 14.4004 32 32s-14.4004 32 -32 32s-32 -14.4004 -32 -32s14.4004 -32 32 -32zM304 272
c17.5996 0 32 14.4004 32 32s-14.4004 32 -32 32s-32 -14.4004 -32 -32s14.4004 -32 32 -32z" />
    <glyph glyph-name="unlink" unicode="&#xf127;" 
d="M304.083 59.0645c4.68555 -4.68652 4.68555 -12.2842 0 -16.9717l-65.0566 -65.0557c-54.709 -54.7109 -143.271 -54.7207 -197.989 0c-54.7129 54.7129 -54.7188 143.27 0 197.989l65.0557 65.0566c4.68652 4.68555 12.2842 4.68555 16.9717 0l22.627 -22.627
c4.68555 -4.68652 4.68555 -12.2842 0 -16.9707l-64.3057 -64.3057c-34.3408 -34.3408 -33.4512 -88.2686 0.597656 -120.865c32.5762 -31.1875 84.7881 -31.3379 117.444 1.31934l65.0576 65.0566c4.68555 4.68555 12.2832 4.68555 16.9707 0zM247.515 302.309
c-4.68652 -4.68555 -12.2842 -4.68555 -16.9697 -0.000976562l-22.627 22.627c-4.68555 4.6875 -4.68555 12.2852 0 16.9717l65.0566 65.0566c54.7197 54.7197 143.279 54.7109 197.989 0c54.7207 -54.7188 54.7109 -143.281 0 -197.99l-65.0557 -65.0566
c-4.6875 -4.68555 -12.2852 -4.68555 -16.9717 0l-22.627 22.627c-4.68555 4.6875 -4.68555 12.2852 0 16.9707l65.0566 65.0576c32.6436 32.6445 32.5146 84.8438 1.33496 117.43c-32.5957 34.0654 -86.5361 34.958 -120.882 0.612305zM485.858 -60.4854
c-4.68652 -4.68652 -12.2842 -4.68652 -16.9707 -0.000976562l-465.373 465.373c-4.68555 4.6875 -4.68555 12.2852 0 16.9717l22.626 22.627c4.6875 4.68555 12.2852 4.68555 16.9717 0l465.373 -465.372c4.68555 -4.6875 4.68555 -12.2852 0 -16.9717z" />
    <glyph glyph-name="question" unicode="&#xf128;" horiz-adv-x="384" 
d="M199.65 448c90.8887 0 181.909 -71.1514 181.909 -165.22c0 -89.3154 -67.7129 -121.357 -96 -138.21c-1.54004 -13.5107 -7.30957 -25.7607 -15.9697 -35.3799c16.4199 -18.3906 26.4102 -42.6406 26.4102 -69.1904c0 -57.3496 -46.6504 -104 -104 -104
s-104 46.6504 -104 104c0 26.5498 9.99023 50.7998 26.4102 69.1904c-10.1797 11.3096 -16.3799 26.2695 -16.3799 42.6494v11.4297c0 23.9404 5.97949 45.5508 17.8193 64.5508c-13.5498 0.169922 -26.9297 4.75977 -37.7393 12.96l-36.7305 27.8496
c-27.1104 20.5605 -33.3398 58.71 -14.1699 86.8604c42.4551 62.3232 98.415 92.5098 172.44 92.5098zM192 -16c30.8799 0 56 25.1201 56 56c0 30.8682 -25.1133 56 -56 56c-30.8818 0 -56 -25.127 -56 -56c0 -30.8799 25.1201 -56 56 -56zM237.97 160.21
c0 32.7002 95.5898 34.0596 95.5898 122.57c0 66.6602 -69.1396 117.22 -133.909 117.22c-61.8506 0 -101.57 -25.7305 -132.761 -71.5303c-4.75977 -6.98926 -3.25 -16.4795 3.49023 -21.5898l36.7305 -27.8496c6.84277 -5.20996 16.6348 -3.97168 22 2.7998
c19.8594 25.0703 33.9893 39.5596 64.5996 39.5596c23.4805 0 52.5205 -15.1094 52.5205 -37.8799c0 -17.21 -14.2109 -26.04 -37.3906 -39.04c-27.04 -15.1602 -62.8096 -34.0195 -62.8096 -81.2002v-11.4297c0 -8.78906 7.13184 -15.8398 15.8398 -15.8398h60.2598
c8.70898 0 15.8398 7.05176 15.8398 15.8398v8.37012z" />
    <glyph glyph-name="info" unicode="&#xf129;" horiz-adv-x="256" 
d="M224 95.4111c19.1162 -11.082 32 -31.7705 32 -55.4111v-40c0 -35.29 -28.71 -64 -64 -64h-128c-35.29 0 -64 28.71 -64 64v40c0 23.6406 12.8838 44.3291 32 55.4111v33.8643c-19.1162 11.082 -32 31.7695 -32 55.4102v39.3145
c0 25.5986 15.1074 47.7363 36.874 57.9629c-10.9883 17.1777 -16.874 37.1553 -16.874 58.0371c0 59.6973 48.3135 108 108 108c59.6973 0 108 -48.3135 108 -108c0 -27.3457 -10.0947 -53.1396 -28.5215 -73.1279c10.2637 -11.3555 16.5215 -26.3975 16.5215 -42.8721
v-128.589zM128 400c-33.1367 0 -60 -26.8633 -60 -60s26.8633 -60 60 -60s60 26.8633 60 60s-26.8633 60 -60 60zM208 0v40c0 8.83594 -7.16406 16 -16 16h-16v168c0 8.83594 -7.16406 16 -16 16h-96c-8.83594 0 -16 -7.16406 -16 -16v-39.3145
c0 -8.83594 7.16406 -16 16 -16h16v-112.686h-16c-8.83594 0 -16 -7.16406 -16 -16v-40c0 -8.83594 7.16406 -16 16 -16h128c8.83594 0 16 7.16406 16 16z" />
    <glyph glyph-name="exclamation" unicode="&#xf12a;" horiz-adv-x="256" 
d="M173.854 400h-91.707c-6.875 0 -12.3447 -5.7627 -11.9844 -12.6279l11.7422 -224c0.333984 -6.375 5.60059 -11.3721 11.9834 -11.3721h68.2246c6.38379 0 11.6494 4.99707 11.9834 11.3721l11.7422 224c0.359375 6.86523 -5.11035 12.6279 -11.9844 12.6279zM128 112
c-35.29 0 -64 -28.71 -64 -64s28.71 -64 64 -64s64 28.71 64 64s-28.71 64 -64 64zM173.854 448c34.4053 0 61.7129 -28.9219 59.9199 -63.1406l-11.7422 -224c-0.556641 -10.9014 -6.64551 -26.582 -13.5918 -35.001c19.5254 -20.168 31.5605 -47.6357 31.5605 -77.8584
c0 -61.7568 -50.2432 -112 -112 -112s-112 50.2432 -112 112c0 30.2227 12.0352 57.6904 31.5615 77.8584c-7.90234 9.58691 -12.8936 21.6914 -13.5918 35.001l-11.7422 224c-1.80078 34.3574 25.6533 63.1406 59.9189 63.1406h91.707z" />
    <glyph glyph-name="puzzle-piece" unicode="&#xf12e;" horiz-adv-x="576" 
d="M437.983 186.648c92.042 59.166 138.017 -16.8555 138.017 -74.6484c0 -44.4873 -27.2852 -96 -74.3457 -96c-44.666 0 -74.0166 44.959 -84.0371 31.3203c-14.1689 -19.2754 11.0928 -91.4463 13.8916 -100.4c-39.9102 0 -36.0303 0.890625 -73.0684 -3.90625
c-52.8857 -6.84766 -134.44 -15.6123 -134.44 51.2256c0 41.042 32 53.9033 32 77.9238c0 14.1738 -25.5137 25.5879 -46.6387 25.5879c-20.126 0 -49.3613 -10.542 -49.3613 -27.0625c0 -28.1777 32 -42.0615 32 -73.835c0 -45.1162 -42.7002 -60.8525 -88 -60.8535
c-47.3184 0 -93.5361 13.5879 -104 16.291v351.556c28.0127 -7.2207 143.255 -34.3066 143.994 -5.46875c-3.29199 9.91699 -31.9941 33.6777 -31.9941 74.5586c0 49.3076 59.1475 75.0635 104.994 75.0635c44.9922 0 87.0059 -28.2217 87.0059 -73.5879
c0 -42.9619 -32.8027 -58.9971 -33.2578 -77.375c25.4834 -19.291 130.317 1.34863 159.932 7.0459c-5.05566 -20.873 -29.8799 -124.622 -5.8125 -124.714c2.28223 0.30957 8.80078 4.50098 13.1221 7.2793zM501.654 64c14.1885 0 26.3457 26.3936 26.3457 48
c0 20.043 -10.5928 48 -27.8447 48c-30.0791 0 -43.9971 -28.6309 -75.2207 -28.6309c-54.0215 0 -62.2822 59.7246 -55.6904 113.438c-59.6113 -7.13281 -146.508 -8.71582 -146.508 51.6807c0 41.082 33.2637 54.3994 33.2637 77.9238
c0 17.6494 -22.8096 25.5879 -39.0059 25.5879c-17.6562 0 -56.9941 -10.4883 -56.9941 -27.0635c0 -28.3105 32 -42.2832 32 -74.0859c0 -64.7646 -80.0664 -66.3828 -144 -55.4346v-253.217c21.7471 -4.1875 76.75 -12.1289 93.6006 0.93457
c11.8135 9.1582 -29.6006 28.7451 -29.6006 79.5547c0 47.6455 50.6748 75.0625 97.3613 75.0625c45.1641 0 94.6387 -27.2617 94.6387 -73.5879c0 -43.5479 -42.3672 -71.9346 -31.2217 -81.7207c12.0801 -10.6328 77.2988 0.0556641 96.3291 2.29004
c-13.6895 76.8877 18.1445 104.03 53.4307 104.03c41.6201 0 54.6094 -32.7627 79.1162 -32.7627z" />
    <glyph glyph-name="shield" unicode="&#xf132;" 
d="M237.5 -60.2998c-107 44.5996 -221.5 181.8 -221.5 380.3c0 19.4004 11.7002 36.9004 29.5996 44.2998l192 80c4.89062 2.0293 13.1562 3.6748 18.4502 3.6748c5.29492 0 13.5596 -1.64551 18.4502 -3.6748l192 -80c17.7998 -7.39941 29.5 -24.8994 29.5 -44.2998
c0 -221.3 -135.9 -344.6 -221.6 -380.3c-11.8008 -4.90039 -25.1006 -4.90039 -36.9004 0zM256 400l-192 -80c0 -169.3 94.5 -295.4 192 -336c93.5996 39 192 162.2 192 336z" />
    <glyph glyph-name="fire-extinguisher" unicode="&#xf134;" horiz-adv-x="448" 
d="M420.054 427.342c14.6299 2.43945 27.9463 -8.84375 27.9463 -23.6729v-103.338c0 -14.832 -13.3193 -26.1113 -27.9463 -23.6729l-144 24c-11.3271 1.8877 -20.0537 10.4707 -20.0537 27.3418h-40v-27.0254c41.4043 -10.6562 72 -48.2432 72 -92.9746v-248
c0 -13.2549 -10.7451 -24 -24 -24h-144c-13.2549 0 -24 10.7451 -24 24v246.795c0 44.8945 30.457 83.2666 72 94.1289v27.0762c-61.0361 0 -92.9424 7.00977 -121.711 -64.9141c-4.91699 -12.2949 -18.8789 -18.2959 -31.1963 -13.3701
c-12.3066 4.92285 -18.293 18.8906 -13.3701 31.1973c14.668 36.6709 38.0107 77.833 90.0498 90.8838c-14.1406 36.5273 12.793 76.2031 52.2275 76.2031c37.4463 0 64.3525 -36.1084 53.668 -72h58.332c0 17.0938 8.91895 25.4863 20.0537 27.3418zM144 376
c8.82227 0 16 7.17773 16 16s-7.17773 16 -16 16s-16 -7.17773 -16 -16s7.17773 -16 16 -16zM240 208c0 26.4668 -21.5332 48 -48 48l-0.368164 -0.000976562c-26.2656 -0.195312 -47.6318 -22.2676 -47.6318 -49.2041v-222.795h96v224zM408 319.218v65.5645l-112 -18.667
v-28.2305z" />
    <glyph glyph-name="chevron-circle-left" unicode="&#xf137;" 
d="M504 192c0 -137 -111 -248 -248 -248s-248 111 -248 248s111 248 248 248s248 -111 248 -248zM56 192c0 -110.5 89.5 -200 200 -200s200 89.5 200 200s-89.5 200 -200 200s-200 -89.5 -200 -200zM163.5 200.5l122.8 122.8c4.7002 4.7002 12.2998 4.7002 17 0
l22.6006 -22.5996c4.69922 -4.7002 4.69922 -12.2998 0 -17l-91.7002 -91.7002l91.7002 -91.7002c4.69922 -4.7002 4.69922 -12.2998 0 -17l-22.6006 -22.5996c-4.7002 -4.7002 -12.2998 -4.7002 -17 0l-122.8 122.8c-4.7002 4.7002 -4.7002 12.2998 0 17z" />
    <glyph glyph-name="chevron-circle-right" unicode="&#xf138;" 
d="M8 192c0 137 111 248 248 248s248 -111 248 -248s-111 -248 -248 -248s-248 111 -248 248zM456 192c0 110.5 -89.5 200 -200 200s-200 -89.5 -200 -200s89.5 -200 200 -200s200 89.5 200 200zM348.5 183.5l-122.8 -122.8c-4.7002 -4.7002 -12.2998 -4.7002 -17 0
l-22.6006 22.5996c-4.69922 4.7002 -4.69922 12.2998 0 17l91.7002 91.7002l-91.7002 91.7002c-4.69922 4.7002 -4.69922 12.2998 0 17l22.6006 22.5996c4.7002 4.7002 12.2998 4.7002 17 0l122.8 -122.8c4.7002 -4.7002 4.7002 -12.2998 0 -17z" />
    <glyph glyph-name="chevron-circle-up" unicode="&#xf139;" 
d="M264.5 284.5l122.8 -122.8c4.7002 -4.7002 4.7002 -12.2998 0 -17l-22.5996 -22.6006c-4.7002 -4.69922 -12.2998 -4.69922 -17 0l-91.7002 91.7002l-91.7002 -91.7002c-4.7002 -4.69922 -12.2998 -4.69922 -17 0l-22.5996 22.6006c-4.7002 4.7002 -4.7002 12.2998 0 17
l122.8 122.8c4.7002 4.7002 12.2998 4.7002 17 0zM504 192c0 -137 -111 -248 -248 -248s-248 111 -248 248s111 248 248 248s248 -111 248 -248zM456 192c0 110.5 -89.5 200 -200 200s-200 -89.5 -200 -200s89.5 -200 200 -200s200 89.5 200 200z" />
    <glyph glyph-name="chevron-circle-down" unicode="&#xf13a;" 
d="M256 440c137 0 248 -111 248 -248s-111 -248 -248 -248s-248 111 -248 248s111 248 248 248zM256 -8c110.5 0 200 89.5 200 200s-89.5 200 -200 200s-200 -89.5 -200 -200s89.5 -200 200 -200zM264.5 99.5c-4.7002 -4.7002 -12.2998 -4.7002 -17 0l-122.8 122.8
c-4.7002 4.7002 -4.7002 12.2998 0 17l22.5996 22.6006c4.7002 4.69922 12.2998 4.69922 17 0l91.7002 -91.7002l91.7002 91.7002c4.7002 4.69922 12.2998 4.69922 17 0l22.5996 -22.6006c4.7002 -4.7002 4.7002 -12.2998 0 -17z" />
    <glyph glyph-name="anchor" unicode="&#xf13d;" horiz-adv-x="576" 
d="M571.515 116.485c7.55957 -7.55957 2.20508 -20.4854 -8.48535 -20.4854h-40.2842c-19.4072 -94.7002 -121.61 -160 -234.745 -160c-106.762 0 -214.343 60.4443 -234.745 160h-40.2842c-10.6904 0 -16.0449 12.9258 -8.48535 20.4854l67.0293 67.0283
c4.6875 4.68652 12.2852 4.68652 16.9717 0l67.0283 -67.0283c7.56055 -7.55957 2.20605 -20.4854 -8.48438 -20.4854h-44.2686c19.6621 -65.1758 92.4307 -104.304 161.238 -110.865v246.865h-60c-6.62695 0 -12 5.37305 -12 12v24c0 6.62695 5.37305 12 12 12h60v11.668
c-32.4561 10.1943 -56 40.5117 -56 76.332c0 44.1826 35.8174 80 80 80s80 -35.8174 80 -80c0 -35.8203 -23.5439 -66.1367 -56 -76.332v-11.668h60c6.62695 0 12 -5.37305 12 -12v-24c0 -6.62695 -5.37305 -12 -12 -12h-60v-246.865
c68.6934 6.5498 141.531 45.5391 161.239 110.865h-44.2686c-10.6904 0 -16.0449 12.9248 -8.48438 20.4854l67.0283 67.0283c4.6875 4.68652 12.2852 4.68652 16.9717 0zM288 400c-17.6445 0 -32 -14.3555 -32 -32s14.3555 -32 32 -32s32 14.3555 32 32s-14.3555 32 -32 32
z" />
    <glyph glyph-name="unlock-alt" unicode="&#xf13e;" horiz-adv-x="448" 
d="M400 208c26.5 0 48 -21.5 48 -48v-176c0 -26.5 -21.5 -48 -48 -48h-352c-26.5 0 -48 21.5 -48 48v176c0 26.5 21.5 48 48 48h32v96c0 79.5 64.7998 144.2 144.3 144c79.7002 -0.200195 143.7 -65.7998 143.7 -145.4v-22.5996c0 -13.2998 -10.7002 -24 -24 -24
s-24 10.7002 -24 24v24c0 53.2998 -43.5996 96.5996 -97 96c-52.9004 -0.5 -95 -44.4004 -95 -97.2002v-94.7998h272zM400 -16v176h-352v-176h352zM224 16c-15.5 0 -28 12.5 -28 28v56c0 15.5 12.5 28 28 28s28 -12.5 28 -28v-56c0 -15.5 -12.5 -28 -28 -28z" />
    <glyph glyph-name="ellipsis-h" unicode="&#xf141;" 
d="M304 192c0 -26.5 -21.5 -48 -48 -48s-48 21.5 -48 48s21.5 48 48 48s48 -21.5 48 -48zM424 240c26.5 0 48 -21.5 48 -48s-21.5 -48 -48 -48s-48 21.5 -48 48s21.5 48 48 48zM88 240c26.5 0 48 -21.5 48 -48s-21.5 -48 -48 -48s-48 21.5 -48 48s21.5 48 48 48z" />
    <glyph glyph-name="ellipsis-v" unicode="&#xf142;" horiz-adv-x="128" 
d="M64 240c26.5 0 48 -21.5 48 -48s-21.5 -48 -48 -48s-48 21.5 -48 48s21.5 48 48 48zM16 344c0 26.5 21.5 48 48 48s48 -21.5 48 -48s-21.5 -48 -48 -48s-48 21.5 -48 48zM16 40c0 26.5 21.5 48 48 48s48 -21.5 48 -48s-21.5 -48 -48 -48s-48 21.5 -48 48z" />
    <glyph glyph-name="rss-square" unicode="&#xf143;" horiz-adv-x="448" 
d="M400 416c26.5098 0 48 -21.4902 48 -48v-352c0 -26.5098 -21.4902 -48 -48 -48h-352c-26.5098 0 -48 21.4902 -48 48v352c0 26.5098 21.4902 48 48 48h352zM394 16c3.31152 0 6 2.68848 6 6v340c0 3.31152 -2.68848 6 -6 6h-340c-3.31152 0 -6 -2.68848 -6 -6v-340
c0 -3.31152 2.68848 -6 6 -6h340zM176 104c0 -22.0908 -17.9092 -40 -40 -40s-40 17.9092 -40 40s17.9092 40 40 40s40 -17.9092 40 -40zM269.566 73.5947c0.28125 -5.21973 -3.91211 -9.59473 -9.14062 -9.59473h-27.4678c-4.80762 0 -8.83984 3.70898 -9.15332 8.50684
c-4.1709 64.04 -55.3936 115.136 -119.298 119.298c-4.79785 0.3125 -8.50684 4.3457 -8.50684 9.15332v27.4678c0 5.22852 4.375 9.42188 9.59473 9.14062c88.4375 -4.77832 159.197 -75.6279 163.972 -163.972zM351.994 73.4297
c0.18457 -5.1582 -3.9834 -9.42969 -9.14746 -9.42871h-27.4668c-4.92871 0 -8.93945 3.90527 -9.1416 8.83008c-4.47852 109.227 -92.1631 196.929 -201.408 201.408c-4.92383 0.202148 -8.83008 4.21289 -8.83008 9.1416v27.4668
c0 5.16309 4.27148 9.33105 9.42969 9.14648c134.265 -4.82031 241.769 -112.952 246.564 -246.564z" />
    <glyph glyph-name="ticket" unicode="&#xf145;" horiz-adv-x="576" 
d="M568 232c-22.0908 0 -40 -17.9092 -40 -40s17.9092 -40 40 -40h8v-104c0 -26.5098 -21.4902 -48 -48 -48h-480c-26.5098 0 -48 21.4902 -48 48v104h8c22.0908 0 40 17.9092 40 40s-17.9092 40 -40 40h-8v104c0 26.5098 21.4902 48 48 48h480
c26.5098 0 48 -21.4902 48 -48v-104h-8zM528 270.372v65.6279h-480v-65.6279c28.4707 -14.5898 48 -44.2432 48 -78.3721s-19.5293 -63.7822 -48 -78.3721v-65.6279h480v65.6279c-28.4697 14.5898 -48 44.2432 -48 78.3721s19.5303 63.7822 48 78.3721z" />
    <glyph glyph-name="level-up" unicode="&#xf148;" horiz-adv-x="320" 
d="M316.485 328c4.68652 -4.68555 4.68652 -12.2842 0.000976562 -16.9697l-22.3125 -22.3125c-4.80762 -4.80762 -12.6455 -4.66504 -17.2744 0.31543l-56.8994 61.9629v-390.996c0 -13.2549 -10.7451 -24 -24 -24h-183.976c-10.6914 0 -16.0459 12.9258 -8.48535 20.4854
l32 32c1.93945 1.93945 5.74023 3.51465 8.4834 3.51465h0.00195312h119.976v358.996l-56.8984 -61.9639c-4.62891 -4.98047 -12.4668 -5.12305 -17.2744 -0.31543l-22.3125 22.3125c-4.68555 4.68652 -4.68555 12.2852 0 16.9707l115.999 116.485
c4.6875 4.68555 12.2852 4.68555 16.9717 0z" />
    <glyph glyph-name="level-down" unicode="&#xf149;" horiz-adv-x="320" 
d="M316.485 56l-116 -116.485c-4.68652 -4.68555 -12.2842 -4.68555 -16.9717 0l-115.999 116.485c-4.68555 4.68555 -4.68555 12.2842 0 16.9707l22.3125 22.3125c4.80762 4.80762 12.6455 4.66504 17.2744 -0.31543l56.8984 -61.9639v358.996h-119.976h-0.00195312
c-2.74316 0 -6.54395 1.5752 -8.4834 3.51465l-32 32c-7.56055 7.55957 -2.20605 20.4854 8.48535 20.4854h183.976c13.2549 0 24 -10.7451 24 -24v-390.996l56.8994 61.9629c4.62891 4.98047 12.4668 5.12305 17.2744 0.31543l22.3125 -22.3125
c4.68555 -4.68555 4.68555 -12.2842 -0.000976562 -16.9697z" />
    <glyph glyph-name="pen-square" unicode="&#xf14b;" horiz-adv-x="448" 
d="M246.6 270.1l55.5 -55.5c2.30078 -2.2998 2.30078 -6.09961 0 -8.5l-135.699 -135.699l-57.1006 -6.30078c-7.59961 -0.799805 -14.0996 5.60059 -13.2998 13.3008l6.2998 57.0996l135.7 135.7c2.40039 2.2002 6.2002 2.2002 8.59961 -0.100586zM345 282.9
c9.2998 -9.40039 9.2998 -24.6006 0 -33.9004l-23.0996 -23.0996c-2.40039 -2.30078 -6.2002 -2.30078 -8.5 0l-55.5 55.5c-2.30078 2.39941 -2.30078 6.19922 0 8.5l23.0996 23.0996c9.2998 9.40039 24.5 9.40039 33.9004 0zM448 368v-352c0 -26.5 -21.5 -48 -48 -48h-352
c-26.5 0 -48 21.5 -48 48v352c0 26.5 21.5 48 48 48h352c26.5 0 48 -21.5 48 -48zM400 22v340c0 3.2998 -2.7002 6 -6 6h-340c-3.2998 0 -6 -2.7002 -6 -6v-340c0 -3.2998 2.7002 -6 6 -6h340c3.2998 0 6 2.7002 6 6z" />
    </font>
</defs>
</svg>
