<?xml version="1.0" standalone="no"?>
<!--
Font Awesome Pro 5.7.2 by @fontawesome - https://fontawesome.com
License - https://fontawesome.com/license (Commercial License)
-->
<!DOCTYPE svg PUBLIC "-//W3C//DTD SVG 1.1//EN" "http://www.w3.org/Graphics/SVG/1.1/DTD/svg11.dtd" >
<svg xmlns="http://www.w3.org/2000/svg" xmlns:xlink="http://www.w3.org/1999/xlink" version="1.1">
<metadata>
Created by FontForge 20190112 at Wed Feb 13 11:34:11 2019
 By Robert Madole
Copyright (c) Font Awesome
</metadata>
<defs>
<font id="FontAwesome5Clouds-Regular" horiz-adv-x="640" >
  <font-face 
    font-family="Font Awesome 5 Clouds Regular"
    font-weight="400"
    font-stretch="normal"
    units-per-em="512"
    panose-1="2 0 5 3 0 0 0 0 0 0"
    ascent="448"
    descent="-64"
    bbox="-0.0665586 -64.1109 640.023 448.051"
    underline-thickness="25"
    underline-position="-51"
    unicode-range="U+0020-F833"
  />
    <missing-glyph />
    <glyph glyph-name="baseball" unicode="&#xf432;" 
d="M625.6 393.5c26.1006 -35.5996 15.3008 -85.5996 -20.5996 -111.5l-185.9 -135.4c-48.0996 -34.6992 -99.8994 -63.7998 -154.6 -86.8994c-74.0996 -31.2998 -126.9 -66.9004 -156 -87.9004c5.7998 -10 3.90039 -22.8994 -5.40039 -30.3994
c-10.8994 -8.7002 -26 -6.10059 -33.7998 3.69922l-64 80c-8.2998 10.3008 -6.59961 25.4004 3.7002 33.7002c10.2002 8 24.7998 6.5 33.2002 -3.2998c29.5996 21.2998 80.7998 59.9004 135.6 122.5c39 44.5 82.9004 83.0996 131 117.8l187.8 136.601
c34.7002 25 85.2002 20.0996 112.301 -16.9004zM78.5996 10.0996c37 25.4004 83.3008 53 126.101 74.5l-21.6006 29.5c-34.1992 -33.5 -75.6992 -68.0996 -111.6 -95.0996zM576 319.6c14.4004 11.7002 17.5 31.4004 7.2002 45.7002l-13 21.5
c-11.2002 15.2002 -31.9004 16.1006 -45.5 6.2998l-187.8 -136.199c-75 -54.1006 -115.9 -103.2 -134.801 -123.4l27.1006 -37.0996c25.2998 11.5996 86.7002 34.7998 161.7 87.5996zM512 128c52.9004 0 96 -43.0996 96 -96s-43.0996 -96 -96 -96s-96 43.0996 -96 96
s43.0996 96 96 96zM512 -16c26.5 0 48 21.5 48 48s-21.5 48 -48 48s-48 -21.5 -48 -48s21.5 -48 48 -48z" />
    <glyph glyph-name="baseball-ball" unicode="&#xf433;" horiz-adv-x="496" 
d="M248 440c137 0 248 -111 248 -248s-111 -248 -248 -248s-248 111 -248 248s111 248 248 248zM114 44c79.2998 -71.9004 194.5 -66.7002 268.1 0c-12.0996 14.2998 -22.5 29.9004 -30.7998 46.9004l26.7998 13.0996c6.80078 -13.9004 15.3008 -26.5 24.9004 -38.2998
c64.2998 78.7998 55.7002 184.399 -0.0996094 252.7c-9.5 -11.8008 -18 -24.4004 -24.8008 -38.3008l-26.7998 13c8.2998 17.1006 18.7002 32.7002 30.7002 47c-79.5996 72 -194.7 66.4004 -268 0c12 -14.2998 22.4004 -29.7998 30.7002 -46.7998l-26.7998 -13.0996
c-6.7002 13.7998 -15.2002 26.3994 -24.8008 38.2002c-64.7998 -79.3008 -55.3994 -185 0 -252.7c9.60059 11.8994 18.1006 24.5 24.9004 38.3994l26.7998 -13c-8.2998 -17.0996 -18.7998 -32.6992 -30.7998 -47.0996zM156.7 120.5l-28.2998 9.2002
c12.1992 37.5 14 81.5 -0.100586 124.7l28.2998 9.19922c16.3008 -50 14 -100.399 0.100586 -143.1zM367.7 129.7l-28.2998 -9.2002c-16.3008 50 -14 100.5 -0.100586 143.1l28.2998 -9.19922c-12.1992 -37.4004 -14 -81.5 0.100586 -124.7z" />
    <glyph glyph-name="basketball-ball" unicode="&#xf434;" horiz-adv-x="496" 
d="M248 440c137.2 0 248 -111 248 -248c0 -138 -111.8 -248 -248 -248c-136.4 0 -248 110.1 -248 248c0 137.1 111 248 248 248zM234.1 -7.2998c8 44.8994 27.7002 87.2002 56.9004 122.3l-43 43l-123.3 -123.3c32.2998 -25.2998 70.5 -39.2998 109.399 -42zM325.6 80.4004
c-19.8994 -25.1006 -34.1992 -53.9004 -41.5 -85c31.1006 5.69922 61.1006 18.7998 87.2002 39.2998zM359.6 114.3l45.7002 -45.7998c20.2002 25.5996 33.6006 55.4004 39.4004 87.2998c-31.2002 -7.2998 -60.1006 -21.5 -85.1006 -41.5zM447.3 205.9
c-2.7002 40.1992 -17.2998 78 -42.0996 109.399l-123.3 -123.399l43 -43c35.1992 29.1992 77.3994 48.8994 122.399 57zM139 267l-48.2998 48.2998c-20.7998 -26.5 -34.2998 -57.3994 -39.7998 -90.3994c32.2998 7.09961 62.2998 21.5 88.0996 42.0996zM124.7 349.3
l48.2002 -48.2998c20.5996 25.7998 35 55.7998 42.0996 88.0996c-33 -5.5 -63.9004 -19 -90.2998 -39.7998zM264.9 391.2c-7.7002 -46 -27.6006 -89.1006 -57.3008 -124.9l40.4004 -40.3994l123.3 123.399c-30.5996 24.1006 -67.2998 38.6006 -106.399 41.9004zM48.7998 175
c3.2998 -39 17.7998 -75.7002 41.9004 -106.4l123.3 123.301l-40.4004 40.3994c-35.6992 -29.7002 -78.7998 -49.5 -124.8 -57.2998z" />
    <glyph glyph-name="basketball-hoop" unicode="&#xf435;" horiz-adv-x="639" 
d="M639.9 111.1c0 -22.7998 -13.6006 -43.1992 -34.7002 -51.7998l-103.5 -42.5l3.7998 53.4004l81.4004 33.5c3 1.2002 5 4.2002 5 7.39941v118.301c-82.8008 217 -458.5 217.899 -543.9 -0.100586v-118.3c0 -3.2998 2 -6.2002 5 -7.40039l81.4004 -33.5l3.7998 -53.3994
l-103.5 42.5c-21.1006 8.7002 -34.7002 29 -34.7002 51.8994l1.2002 129.9c0.599609 2 67.5 199 318.8 199s318.1 -197 318.8 -199c1.60059 -10.2002 1.10059 8.5 1.10059 -129.9zM461.2 -64l-75.4004 71.5996l-65.7998 -71.5996l-65.7998 71.5996l-75.4004 -71.5996
l-18.2002 224h-24.5996c-4.40039 0 -8 3.59961 -8 8v32c0 4.40039 3.59961 8 8 8h368c4.40039 0 8 -3.59961 8 -8v-32c0 -4.40039 -3.59961 -8 -8 -8h-24.5996zM206.7 95.5996l46.7002 -43.5996l44 44l-42.1006 42.0996zM320 118.6l41.4004 41.4004h-82.8008zM342.6 96
l44 -44l46.7002 43.5996l-48.5996 42.5zM447.3 160h-39l36.5 -31.9004zM192.7 160l2.59961 -31.9004l36.5 31.9004h-39.0996zM230.8 29.4004l-29.8994 27.8994l4.2998 -53.5zM363.2 30.2002l-43.2002 43.2002l-43.2002 -43.2002l43.2002 -40.2998zM434.8 3.7998l4.2998 53.5
l-29.8994 -27.8994zM464 240h-32v48h-224v-48h-32v80h288v-80z" />
    <glyph glyph-name="bowling-ball" unicode="&#xf436;" horiz-adv-x="496" 
d="M248 440c137 0 248 -111 248 -248s-111 -248 -248 -248s-248 111 -248 248s111 248 248 248zM248 -8c110.3 0 200 89.7002 200 200s-89.7002 200 -200 200s-200 -89.7002 -200 -200s89.7002 -200 200 -200zM152 288c17.7002 0 32 -14.2998 32 -32s-14.2998 -32 -32 -32
s-32 14.2998 -32 32s14.2998 32 32 32zM264 320c0 -17.7002 -14.2998 -32 -32 -32s-32 14.2998 -32 32s14.2998 32 32 32s32 -14.2998 32 -32zM248 256c17.7002 0 32 -14.2998 32 -32s-14.2998 -32 -32 -32s-32 14.2998 -32 32s14.2998 32 32 32z" />
    <glyph glyph-name="bowling-pins" unicode="&#xf437;" horiz-adv-x="496" 
d="M491 139.8c13 -52.3994 -0.299805 -140.1 -28.9004 -191.5l-6.89941 -12.2998h-158.101l-6.89941 12.2998c-28.7998 51.4004 -42.1006 139 -29.1006 191.5c13.2002 53.7998 49.3008 87.4004 53.7002 131.9c3 30.5 -21.5 53.0996 -18.7002 95.7998
c2.90039 46.5 36.5 80.4004 79.9004 80.5c43.5 -0.0996094 77.0996 -34 80 -80.4004c2.59961 -42.6992 -21.7998 -65.2998 -18.7998 -95.7998c4.39941 -44.5996 40.3994 -78 53.7998 -132zM408.1 364.5c-3 47.5 -61.1992 47.5 -64.1992 0
c-1.5 -24.4004 14.8994 -43.2002 18.3994 -76.5996h27.4004c3.5 33.1992 19.8994 52.3994 18.3994 76.5996zM426.2 -15.9004c18.7002 42.2002 27.3994 107 18.2998 144.2c-10.7002 43.1006 -43.5 75 -52.9004 127.7h-31
c-9.39941 -52.7002 -42.1992 -84.5996 -52.8994 -127.7c-9.2002 -37.2002 -0.600586 -102 18.2002 -144.2h100.3zM181.2 271.7c4.39941 -44.7002 40.3994 -77.9004 53.7002 -131.9c13 -52.5 -0.300781 -140.2 -29 -191.5l-6.90039 -12.2998h-158.1l-6.90039 12.2998
c-28.7002 51.2998 -42 139 -29 191.5c13.4004 54 49.2998 87.2002 53.7002 131.9c3.09961 30.5996 -21.4004 53 -18.7002 95.7998c2.90039 46.5 36.5 80.2998 79.9004 80.4004c43.5 -0.100586 77.0996 -33.9004 80 -80.4004
c2.69922 -42.7002 -21.7002 -65.2998 -18.7002 -95.7998zM152 364.5c-2.90039 47.4004 -61.0996 47.4004 -64.2002 0c-1.5 -24.5 14.9004 -43 18.4004 -76.5h27.3994c3.5 33.2998 19.9004 52.2002 18.4004 76.5zM170.1 -16c18.8008 42.2998 27.4004 107 18.2002 144.2
c-10.5996 43.0996 -43.3994 74.7998 -52.8994 127.8h-30.9004c-9.5 -52.9004 -42.2998 -84.7002 -52.9004 -127.7c-9.19922 -37.2002 -0.599609 -102 18.2002 -144.3h100.3z" />
    <glyph glyph-name="boxing-glove" unicode="&#xf438;" horiz-adv-x="448" 
d="M252.4 87.2002l7.19922 -14.2998c2 -4 0.400391 -8.80078 -3.59961 -10.7002l-28.2002 -14.2002l28.2002 -14.0996c4 -2 5.59961 -6.80078 3.59961 -10.7002l-7.19922 -14.2998c-2 -4 -6.80078 -5.60059 -10.7002 -3.60059l-49.7002 24.7998l-49.7002 -24.7998
c-4 -2 -8.7998 -0.399414 -10.7002 3.60059l-7.19922 14.2998c-2 4 -0.400391 8.7998 3.59961 10.7002l28.2002 14.0996l-28.2002 14.0996c-4 2 -5.59961 6.80078 -3.59961 10.7002l7.19922 14.2998c2 4 6.80078 5.60059 10.7002 3.60059l49.7002 -24.7998l49.7002 24.7998
c3.89941 2 8.7002 0.399414 10.7002 -3.5zM448 218.5c0 -55.7002 -23.2998 -110.2 -63.9004 -149.6l-16.0996 -15.6006v-77.8994c0 -21.8008 -17.9004 -39.5 -40 -39.5h-256c-22.0996 0 -40 17.6992 -40 39.5v82.7998l-17 102c-10 58.2998 -15 117.8 -15 176.8
c0 61.2002 50.7998 111 113.2 111h174.8c61.7998 0 112 -49.7998 112 -111v-33.2002c28.7998 -18.0996 48 -49.5 48 -85.2998zM400 218.5c0 29.5 -25.0996 53.5 -56 53.5h-31.2998c-21.5 0 -40.2002 -17.5996 -40.7002 -39.0996
c-0.5 -20.2002 14.2002 -37.2002 33.4004 -40.4004c3.7998 -0.599609 6.59961 -4 6.59961 -7.90039v-32.2998c0 -4.7002 -4.09961 -8.39941 -8.7998 -8c-44.4004 4.40039 -79.2002 42 -79.2002 87.6006c0 8.39941 1.59961 16.2998 3.7002 24h-70.5
c-30.6006 0 -59.5 10.8994 -82.2998 30.7998c-3.5 3.09961 -3.7002 8.39941 -0.400391 11.7002l11.2998 11.2998c3 3 7.7002 3.09961 10.9004 0.399414c16.8994 -14.3994 38.0996 -22.2998 60.5 -22.2998h87.3994c16.2002 19.4004 40.2002 32 67.3008 32h32
c10.1992 0 8 -6 8 17c0 35.2998 -28.1006 63 -64 63h-174.7c-36 0.200195 -65.2002 -28 -65.2002 -62.7998c0 -95.9004 11.4004 -151 31.4004 -273h24.5996c4.40039 0 8 -3.59961 8 -8v-16c0 -4.40039 -3.59961 -8 -8 -8h-24v-48h240v48h-24c-4.40039 0 -8 3.59961 -8 8v16
c0 4.40039 3.59961 8 8 8h24c0 6.2002 2.5 12.0996 6.90039 16.4004l23.7998 23.0996c31.7998 30.7002 49.2998 71.5996 49.2998 115z" />
    <glyph glyph-name="chess" unicode="&#xf439;" horiz-adv-x="512" 
d="M402.2 130.2h0.0996094v-36.5h-36.5v36.5c0 10 8.2002 18.2002 18.2002 18.2002s18.2002 -8.10059 18.2002 -18.2002zM507.3 23.4004c3 -2.30078 4.7002 -5.80078 4.7002 -9.5v-65.9004c0 -6.59961 -5.40039 -12 -12 -12h-232c-6.59961 0 -12 5.40039 -12 12
c0 -6.59961 -5.40039 -12 -12 -12h-232c-6.59961 0 -12 5.40039 -12 12v64.2002c0 4.2002 2.2002 8.09961 5.90039 10.2998l18.0996 10.7002v26.7998c0 6.59961 5.40039 12 12 12h15c11.5996 40.2998 11.2002 84.9004 10.9004 110.2v1.7998h-25.9004
c-6.59961 0 -12 5.40039 -12 12v24c0 6.59961 5.40039 12 12 12h18.5996l-29.6992 88.4004c-5.2002 15.5 6.39941 31.5996 22.7998 31.5996h54.5v27.2002h-19.7998c-3.30078 0 -6 2.7002 -6 6v22.3994c0 3.30078 2.69922 6 6 6h28.2998v28.4004c0 3.2998 2.7002 6 6 6
h22.3994c3.30078 0 6 -2.7002 6 -6v-28.4004h28.4004c3.2998 0 6 -2.69922 6 -6v-22.3994c0 -3.2998 -2.7002 -6 -6 -6h-19.7998v-27.2002h54.5c16.3994 0 28 -16.0996 22.7998 -31.5996l-29.5996 -88.4004h18.5996c6.59961 0 12 -5.40039 12 -12v-24
c0 -6.59961 -5.40039 -12 -12 -12h-25.9004v-1.7002c-0.199219 -27.2998 -0.599609 -70.7002 10.9004 -110.3h15c6.59961 0 12 -5.40039 12 -12v-26.7998l18 -10.5c3.7002 -2.10059 5.90039 -6.10059 5.90039 -10.2998v1.69922c0 3.7002 1.7998 7.2002 4.69922 9.5
l13.7002 10.5v26c0 6.60059 5.40039 12 12 12h5.5c6.60059 33 7.40039 60.8008 7.40039 79.4004l-29.9004 19.9004c-3.2998 2.19922 -5.2998 6 -5.2998 10v82.5996c0 13.2998 10.7002 24 24 24h191.9c13.2998 0 24 -10.7002 24 -24v-82.7002c0 -4 -2 -7.7998 -5.30078 -10
l-29.8994 -19.8994c0 -18.5 0.799805 -46.4004 7.39941 -79.4004h5.5c6.60059 0 12 -5.40039 12 -12v-26zM174.9 304h-93.9004l24.2002 -72h45.5zM109.9 182.7c0.299805 -25.2998 0.699219 -67.9004 -9.30078 -110.7h54.9004c-9.7998 41.9004 -9.5 83.5 -9.2998 110.6
v1.40039h-36.2998v-1.2998zM208 -16v7.7002l-24 14.2002v18.0996h-112v-18.0996l-24 -14.2002v-7.7002h160zM312 240v-39.4004l35.2998 -23.3994v-17.1006c0.100586 -18.3994 0.299805 -49.3994 -6.5 -88.0996h86.5c-6.7998 38.7002 -6.59961 69.7002 -6.5 88.0996v17.1006
l35.2002 23.3994v39.4004h-25v-24.5996h-30v24.5996h-34v-24.5996h-30v24.5996h-25zM464 -16h0.0996094v12.2002l-18.3994 14.0996v13.7002h-123.3v-13.7002l-18.4004 -14.0996v-12.2002h160z" />
    <glyph glyph-name="chess-bishop" unicode="&#xf43a;" horiz-adv-x="320" 
d="M0 152.127c0 73.6455 55.1025 182.382 113.211 223.006c-10.3975 7.22363 -17.2109 19.2471 -17.2109 32.8672c0 22.0908 17.9092 40 40 40h47.7949c22.0908 0 40 -17.9092 40 -40c0 -13.5703 -6.76367 -25.5537 -17.0977 -32.7861
c58.3047 -40.6631 113.303 -149.621 113.303 -223.087c0 -57.1836 -25.6758 -87.1377 -63.999 -100.303v-51.8242h-192.001v51.8271c-38.3164 13.166 -64 43.1201 -64 100.3zM48 152.127c0 -53.6982 27.6084 -54.9834 64 -62.1387v-41.9883h96.001v41.9873
c36.6943 7.21289 64.0098 8.64355 64.0098 62.1396c0 22.7676 -7.44531 52.2168 -20.1025 81.8398l-74.4521 -74.4521c-4.68652 -4.68555 -12.2842 -4.68555 -16.9707 0l-16.9717 16.9717c-4.68555 4.68555 -4.68555 12.2832 0 16.9707l85.2021 85.2021v0.000976562
c-29.0137 46.8438 -56.4502 65.3398 -68.7109 65.3398c-35.9307 0 -112.005 -114.228 -112.005 -191.873zM320 -52c0 -6.62695 -5.37305 -12 -12 -12h-296c-6.62695 0 -12 5.37305 -12 12v24c0 6.62695 5.37305 12 12 12h296c6.62695 0 12 -5.37305 12 -12v-24z" />
    <glyph glyph-name="chess-bishop-alt" unicode="&#xf43b;" horiz-adv-x="256" 
d="M232 33.2344l18.1104 -10.7129c3.65039 -2.15918 5.88965 -6.08691 5.88965 -10.3281v-64.1934c0 -6.62695 -5.37305 -12 -12 -12h-232c-6.62695 0 -12 5.37305 -12 12v64.1934v0.000976562c0 3.77734 2.63867 8.4043 5.88965 10.3281l18.1104 10.7119v26.7656
c0 6.62695 5.37305 12 12 12h10.6416c11.9912 30.6318 11.7617 60.8574 11.5674 80h-14.209c-6.62695 0 -12 5.37305 -12 12v24c0 6.62695 5.37305 12 12 12h14.1582v4.09961c-15.915 9.4707 -29.79 27.1191 -29.79 59.8672c0 45.5234 34.5879 113.86 72.9238 136.189
c-11.9785 1.3457 -21.292 11.5049 -21.292 23.8438c0 13.2549 10.7451 24 24 24h47.8555c13.2549 0 24 -10.7451 24 -24c0 -12.3008 -9.25684 -22.4336 -21.1826 -23.8301c37.792 -21.9893 72.9424 -89.9209 72.9424 -136.203c0 -32.75 -13.877 -50.4004 -29.7949 -59.8701
v-4.09668h14.1797c6.62695 0 12 -5.37305 12 -12v-24c0 -6.62695 -5.37305 -12 -12 -12h-14.1953c-0.151367 -20.498 -0.265625 -49.9355 11.5205 -80h10.6748c6.62695 0 12 -5.37305 12 -12v-26.7656zM76.3682 263.967c0 -20.6592 5.45605 -19.126 29.79 -25.9785v-37.9883
h43.6621v37.9883c24.3457 6.85352 29.7949 5.32324 29.7949 25.9785c0 11.46 -4.00488 26.8008 -10.7383 42.2832l-25.3213 -25.3213c-0.969727 -0.969727 -2.87012 -1.75684 -4.24219 -1.75684s-3.27246 0.787109 -4.24219 1.75684l-14.1426 14.1426
c-0.969727 0.969727 -1.75684 2.87012 -1.75684 4.24219s0.787109 3.27246 1.75684 4.24219l31.8389 31.8408c-11.3047 16.3623 -21.1299 23.5127 -24.7744 24.5352c-17.3604 -4.8877 -51.625 -61.0566 -51.625 -95.9648zM106.212 152
c0.18457 -18.2734 0.335938 -47.6924 -8.95215 -80h61.4346c-10.0342 34.8789 -8.98145 67.5508 -8.8916 80h-43.5908zM208 -16v7.66211l-24 14.1973v18.1406h-112v-18.1406l-24 -14.1973v-7.66211h160z" />
    <glyph glyph-name="chess-clock" unicode="&#xf43d;" 
d="M600 320c22.0908 0 40 -17.9092 40 -40v-272c0 -22.0908 -17.9092 -40 -40 -40h-560c-22.0908 0 -40 17.9092 -40 40v272c0 22.0908 17.9092 40 40 40h112v48h-28c-6.62695 0 -12 5.37305 -12 12v24c0 6.62695 5.37305 12 12 12h104c6.62695 0 12 -5.37305 12 -12v-24
c0 -6.62695 -5.37305 -12 -12 -12h-28v-48h212c-6.62695 0 -12 5.37305 -12 12v24c0 6.62695 5.37305 12 12 12h104c6.62695 0 12 -5.37305 12 -12v-24c0 -6.62695 -5.37305 -12 -12 -12h84zM592 16v256h-544v-256h544zM176 32c-61.8564 0 -112 50.1436 -112 112
s50.1436 112 112 112s112 -50.1436 112 -112s-50.1436 -112 -112 -112zM160 212v-72c0 -6.62695 5.37305 -12 12 -12h8c6.62695 0 12 5.37305 12 12v72c0 6.62695 -5.37305 12 -12 12h-8c-6.62695 0 -12 -5.37305 -12 -12zM464 32c-61.8564 0 -112 50.1436 -112 112
s50.1436 112 112 112s112 -50.1436 112 -112s-50.1436 -112 -112 -112zM449.858 152.485c-4.68652 -4.68652 -4.68652 -12.2842 0 -16.9717l5.65527 -5.65527c4.6875 -4.68652 12.2842 -4.68652 16.9717 0l50.9111 50.9102c4.68652 4.6875 4.68652 12.2852 0 16.9717
l-5.65625 5.65625c-4.6875 4.68555 -12.2842 4.68555 -16.9717 0z" />
    <glyph glyph-name="chess-clock-alt" unicode="&#xf43e;" 
d="M600 320c22.0908 0 40 -17.9092 40 -40v-272c0 -22.0908 -17.9092 -40 -40 -40h-560c-22.0908 0 -40 17.9092 -40 40v272c0 22.0908 17.9092 40 40 40h84c-6.62695 0 -12 5.37305 -12 12v24c0 6.62695 5.37305 12 12 12h104c6.62695 0 12 -5.37305 12 -12v-24
c0 -6.62695 -5.37305 -12 -12 -12h212v48h-28c-6.62695 0 -12 5.37305 -12 12v24c0 6.62695 5.37305 12 12 12h104c6.62695 0 12 -5.37305 12 -12v-24c0 -6.62695 -5.37305 -12 -12 -12h-28v-48h112zM592 16v256h-544v-256h544zM464 32c-61.8564 0 -112 50.1436 -112 112
s50.1436 112 112 112s112 -50.1436 112 -112s-50.1436 -112 -112 -112zM448 212v-72c0 -6.62695 5.37305 -12 12 -12h8c6.62695 0 12 5.37305 12 12v72c0 6.62695 -5.37305 12 -12 12h-8c-6.62695 0 -12 -5.37305 -12 -12zM176 32c-61.8564 0 -112 50.1436 -112 112
s50.1436 112 112 112s112 -50.1436 112 -112s-50.1436 -112 -112 -112zM161.858 152.485c-4.68652 -4.68652 -4.68652 -12.2842 0 -16.9717l5.65527 -5.65527c4.6875 -4.68652 12.2842 -4.68652 16.9717 0l50.9111 50.9102c4.68652 4.6875 4.68652 12.2852 0 16.9717
l-5.65625 5.65625c-4.6875 4.68555 -12.2842 4.68555 -16.9717 0z" />
    <glyph glyph-name="chess-king" unicode="&#xf43f;" horiz-adv-x="448" 
d="M416 -28v-24c0 -6.62695 -5.37305 -12 -12 -12h-360c-6.62695 0 -12 5.37305 -12 12v24c0 6.62695 5.37305 12 12 12h360c6.62695 0 12 -5.37305 12 -12zM445.705 242.741l-85.2871 -242.741h-272.836l-85.2871 242.741
c-9.14062 26.0146 10.1641 53.2588 37.7383 53.2588h159.967v48h-50c-3.31152 0 -6 2.68848 -6 6v36c0 3.31152 2.68848 6 6 6h50v50c0 3.31152 2.68848 6 6 6h36c3.31152 0 6 -2.68848 6 -6v-50h50c3.31152 0 6 -2.68848 6 -6v-36c0 -3.31152 -2.68848 -6 -6 -6h-50v-48
h159.967c27.5742 0 46.8789 -27.2441 37.7383 -53.2588zM396.677 248h-345.354l70.2695 -200h204.813z" />
    <glyph glyph-name="chess-king-alt" unicode="&#xf440;" horiz-adv-x="256" 
d="M250.1 22.5c3.7002 -2.09961 5.90039 -6.09961 5.90039 -10.2998v-64.2002c0 -6.59961 -5.40039 -12 -12 -12h-232c-6.59961 0 -12 5.40039 -12 12v64.2002c0 4.2002 2.2002 8.09961 5.90039 10.2998l18.0996 10.7002v26.7998c0 6.59961 5.40039 12 12 12h15
c11.5996 40.2998 11.2002 84.9004 10.9004 110.2v1.7998h-25.9004c-6.59961 0 -12 5.40039 -12 12v24c0 6.59961 5.40039 12 12 12h18.5996l-29.6992 88.4004c-5.2002 15.5 6.39941 31.5996 22.7998 31.5996h54.5v27.2002h-19.7998c-3.30078 0 -6 2.7002 -6 6v22.3994
c0 3.30078 2.69922 6 6 6h28.2998v28.4004c0 3.2998 2.7002 6 6 6h22.3994c3.30078 0 6 -2.7002 6 -6v-28.4004h28.4004c3.2998 0 6 -2.69922 6 -6v-22.3994c0 -3.2998 -2.7002 -6 -6 -6h-19.7998v-27.2002h54.5c16.3994 0 28 -16.0996 22.7998 -31.5996l-29.5996 -88.4004
h18.5996c6.59961 0 12 -5.40039 12 -12v-24c0 -6.59961 -5.40039 -12 -12 -12h-25.9004v-1.7002c-0.199219 -27.2998 -0.599609 -70.7002 10.9004 -110.3h15c6.59961 0 12 -5.40039 12 -12v-26.7998zM174.9 304h-93.9004l24.2002 -72h45.5zM109.9 182.7
c0.299805 -25.2998 0.699219 -67.9004 -9.30078 -110.7h54.9004c-9.7998 41.9004 -9.5 83.5 -9.2998 110.6v1.40039h-36.2998v-1.2998zM208 -16v7.7002l-24 14.2002v18.0996h-112v-18.0996l-24 -14.2002v-7.7002h160z" />
    <glyph glyph-name="chess-knight" unicode="&#xf441;" horiz-adv-x="384" 
d="M84 264c-11 0 -20 9 -20 20s9 20 20 20s20 -9 20 -20s-9 -20 -20 -20zM372 -16c6.59961 0 12 -5.40039 12 -12v-24c0 -6.59961 -5.40039 -12 -12 -12h-360c-6.59961 0 -12 5.40039 -12 12v24c0 6.59961 5.40039 12 12 12h360zM36.4004 120.8
c-22.1006 9.40039 -36.4004 31.1006 -36.4004 55.2002v128.2c0.0996094 10.5996 2.40039 21.2002 7 30.7998c-16.5 37.9004 11.0996 81 53.0996 81h99.9004c106.1 0 192 -86 192 -192v-224h-320v50.2998c0 7.7002 0.599609 36.2002 23.0996 62.5zM48 304.1h-0.0996094
v-128.3c0 -4.7998 2.89941 -9.09961 7.2998 -11l43.5996 -18.7002c3.2998 -1.39941 6.90039 -1.2998 10.1006 0.300781l14 7c3.19922 1.59961 5.5 4.5 6.2998 8l11.5996 49.5c1.90039 8.09961 7.90039 14.6992 15.7998 17.2998l35.3008 11.7998v-74.4004
c0 -18.0996 -10.2002 -34.7998 -26.5 -42.8994l-58.9004 -29.5c-16.2002 -8.10059 -26.5 -24.7002 -26.5 -42.9004v-2.2998h224v176c0 79.5 -64.5 144 -144 144h-99.9004c-7.89941 0 -12 -8.2998 -8.89941 -14.4004l12.7998 -25.5996l-6.09961 -4.5
c-6.2002 -4.5 -9.90039 -11.7002 -9.90039 -19.4004z" />
    <glyph glyph-name="chess-knight-alt" unicode="&#xf442;" horiz-adv-x="320" 
d="M296 37.7119l18.0938 -10.666c3.66016 -2.1582 5.90625 -6.08984 5.90625 -10.3379v-68.708c0 -6.62695 -5.37305 -12 -12 -12h-296c-6.62695 0 -12 5.37305 -12 12v68.708v0.000976562c0 3.78418 2.64551 8.41504 5.90625 10.3369l18.0938 10.666v49.9941v0.0205078
c0 13.3154 5.65234 33.332 12.6162 44.6807c-25.3027 10.8457 -36.6162 32.5449 -36.6162 53.5244v100.18c0.00390625 6.83301 2.00195 17.5547 4.45996 23.9307c-11.7334 35.2559 13.3857 73.958 53.8291 73.958h77.3125
c94.5596 -0.200195 160.398 -77.6133 160.398 -160.5v-185.788zM72 87.7061l16 -15.7061h144l16 16v135.5c0 62.1709 -50.3301 112.607 -112.499 112.739l-77.1934 0.163086h-0.0185547c-6.41797 0 -10.8525 -6.80664 -7.72754 -12.4893
c3.92383 -7.13281 9.93848 -19.1631 9.93848 -19.1631l-4.77832 -3.47461c-4.26172 -3.10059 -7.72168 -9.89355 -7.72168 -15.1641v-100.18c0 -3.41211 2.5459 -7.27246 5.68164 -8.61621l34.0713 -14.6025c0.976562 -0.417969 2.63086 -0.757812 3.69336 -0.757812
c1.22168 0 3.09961 0.443359 4.19238 0.990234l10.9346 5.4668c2.16797 1.08398 4.37793 3.87891 4.93262 6.23828l9.09766 38.666c1.32324 5.62109 6.84375 11.666 12.3223 13.4922l27.0742 9.19141v-57.9561c0 -12.8584 -9.35547 -27.9189 -20.8818 -33.6172
l-46.2363 -23.1035c-11.5264 -5.69824 -20.8818 -20.7588 -20.8818 -33.6172zM272 -16v12.1406l-24 14.1475v13.7119h-176v-13.7119l-24 -14.1475v-12.1406h224zM93.6299 267.556c0 -9 -7.2959 -16.2959 -16.2959 -16.2959s-16.2959 7.2959 -16.2959 16.2959
s7.2959 16.2959 16.2959 16.2959s16.2959 -7.2959 16.2959 -16.2959z" />
    <glyph glyph-name="chess-pawn" unicode="&#xf443;" horiz-adv-x="320" 
d="M320 -28v-24c0 -6.62695 -5.37305 -12 -12 -12h-296c-6.62695 0 -12 5.37305 -12 12v24c0 6.62695 5.37305 12 12 12h296c6.62695 0 12 -5.37305 12 -12zM40 0c0 0 38.248 51.0566 51.5234 144h-35.5234c-6.62695 0 -12 5.37305 -12 12v24c0 6.62695 5.37305 12 12 12
h25.7031c-20.7832 20.3438 -33.7031 48.6904 -33.7031 80c0 61.7568 50.2432 112 112 112s112 -50.2432 112 -112c0 -31.3096 -12.9199 -59.6562 -33.7031 -80h25.7031c6.62695 0 12 -5.37305 12 -12v-24c0 -6.62695 -5.37305 -12 -12 -12h-35.5234
c13.2754 -92.9434 51.5234 -144 51.5234 -144h-240zM202.965 48c-15.7148 43.5068 -21.999 83.4717 -24.708 112h-36.5137c-2.70898 -28.5312 -8.99316 -68.4951 -24.708 -112h85.9297zM96 272c0 -35.29 28.71 -64 64 -64s64 28.71 64 64s-28.71 64 -64 64
s-64 -28.71 -64 -64z" />
    <glyph glyph-name="chess-pawn-alt" unicode="&#xf444;" horiz-adv-x="320" 
d="M296 37.7119l18.0938 -10.666c3.66016 -2.1582 5.90625 -6.08984 5.90625 -10.3379v-68.708c0 -6.62695 -5.37305 -12 -12 -12h-296c-6.62695 0 -12 5.37305 -12 12v68.708v0.000976562c0 3.78418 2.64551 8.41504 5.90625 10.3369l18.0938 10.666v22.2881
c0 6.62695 5.37305 12 12 12h35.4619c12.6025 36.5928 14.5332 70.1221 14.6914 96h-18.1533c-6.62695 0 -12 5.37305 -12 12v24c0 6.62695 5.37305 12 12 12h10.0801c-13.8271 17.6602 -22.0801 39.8838 -22.0801 64c0 58.708 48.8975 106.21 108.103 103.921
c54.4062 -2.10352 98.3203 -46.5068 99.8555 -100.932c0.711914 -25.2676 -7.64062 -48.6025 -22.0381 -66.9893h10.0801c6.62695 0 12 -5.37305 12 -12v-24c0 -6.62695 -5.37305 -12 -12 -12h-18.1338c0.198242 -26.7852 2.13867 -59.7129 14.665 -96h35.4688
c6.62695 0 12 -5.37305 12 -12v-22.2881zM160 336c-30.8789 0 -56 -25.1221 -56 -56s25.1211 -56 56 -56s56 25.1221 56 56s-25.1211 56 -56 56zM134.154 168c-0.144531 -25.1396 -1.83203 -58.6934 -12.4062 -96h76.4785c-10.4961 36.9297 -12.1855 70.002 -12.3633 96
h-51.709zM272 -16v12.1406l-24 14.1475v13.7119h-176v-13.7119l-24 -14.1475v-12.1406h224z" />
    <glyph glyph-name="chess-queen" unicode="&#xf445;" horiz-adv-x="511" 
d="M64 -52v24c0 6.62695 5.37305 12 12 12h360c6.62695 0 12 -5.37305 12 -12v-24c0 -6.62695 -5.37305 -12 -12 -12h-360c-6.62695 0 -12 5.37305 -12 12zM255.579 336c-30.9277 0 -56 25.0723 -56 56s25.0723 56 56 56s56 -25.0723 56 -56s-25.0723 -56 -56 -56zM112 0
l-105.014 257.448c-0.491211 1.20215 -0.889648 3.2334 -0.889648 4.53223c0 3.99414 2.86719 8.74805 6.39941 10.6123l39.1787 20.6797c5.64258 2.97754 12.6338 1.02637 15.8994 -4.45312c10.6074 -17.8008 23.7344 -38.0254 44.4248 -38.0254
c28.7529 0 30.6348 19.8984 31.6875 57.5391c0.182617 6.49316 5.5 11.667 11.9951 11.667h41.0049c5.17578 0 9.75488 -3.32812 11.3887 -8.23828c8.88965 -26.709 26.0742 -40.9922 47.9248 -40.9922s39.0342 14.2832 47.9238 40.9922
c1.63379 4.91016 6.21289 8.23828 11.3877 8.23828h41.0068c6.49316 0 11.8115 -5.17188 11.9951 -11.6641c1.06152 -37.7383 2.97266 -57.542 31.6855 -57.542c21.3184 0 35.4492 22.2852 44.0654 37.8018c3.16602 5.70215 10.3135 7.81543 16.082 4.77051
l39.3564 -20.7734c3.53223 -1.86426 6.39941 -6.61816 6.39941 -10.6123c0 -1.29883 -0.398438 -3.33008 -0.889648 -4.53223l-105.013 -257.448h-288zM77.96 210.54l66.2998 -162.54h223.48l66.3037 162.55c-37.6543 -17.9082 -91.7422 -6.27148 -107.557 44.5938
c-37.7305 -43.3096 -103.293 -43.2461 -140.97 -0.00488281c-15.9766 -51.3301 -70.334 -62.3047 -107.558 -44.5986z" />
    <glyph glyph-name="chess-queen-alt" unicode="&#xf446;" horiz-adv-x="256" 
d="M99.8242 420c0 15.4639 12.5361 28 28 28s28 -12.5361 28 -28s-12.5361 -28 -28 -28s-28 12.5361 -28 28zM250.11 22.5225c3.25098 -1.92383 5.88965 -6.55078 5.88965 -10.3281v-64.1943c0 -6.62695 -5.37305 -12 -12 -12h-232c-6.62695 0 -12 5.37305 -12 12v64.1934
c0 4.24121 2.23926 8.16895 5.88965 10.3281l18.1104 10.7129v26.7656c0 6.62695 5.37305 12 12 12h14.7119c11.8975 42.7744 11.4463 90.127 11.1846 116.942l-0.0292969 3.05762h-25.8672c-6.62695 0 -12 5.37305 -12 12v24c0 6.62695 5.37305 12 12 12h13.2334
l-45.5645 112.775c-0.241211 0.59668 -0.436523 1.60352 -0.436523 2.24707c0 1.99707 1.43262 4.37402 3.19824 5.30664l19.5615 10.3242c0.725586 0.383789 1.98047 0.695312 2.80078 0.695312h0.0078125c1.875 0 4.17773 -1.30664 5.13867 -2.91797
c5.29492 -8.88574 11.8477 -18.9795 22.1758 -18.9795c14.3496 0 15.293 9.92773 15.8184 28.709c0.0878906 3.22168 2.77441 5.83789 5.99707 5.83984h20.458c2.38867 -0.00292969 4.93652 -1.8457 5.68848 -4.11328c4.4375 -13.333 13.0156 -20.4639 23.9248 -20.4639
c10.9082 0 19.4863 7.12988 23.9248 20.4639c0.750977 2.26855 3.2998 4.11133 5.68848 4.11426h20.459c3.22168 -0.00292969 5.90918 -2.61816 5.99805 -5.83887c0.529297 -18.8291 1.4873 -28.71 15.8174 -28.71c10.6357 0 17.6875 11.1084 21.9893 18.8545
c0.945312 1.70508 3.2959 3.08984 5.24512 3.08984c0.820312 0 2.0752 -0.311523 2.80078 -0.694336l19.6494 -10.3711c1.76562 -0.932617 3.19922 -3.30957 3.19922 -5.30664c0 -0.643555 -0.195312 -1.64941 -0.436523 -2.24609l-45.5391 -112.778h13.2021
c6.62695 0 12 -5.37305 12 -12v-24c0 -6.62695 -5.37305 -12 -12 -12h-25.8574l-0.0214844 -3.00977c-0.21582 -28.8467 -0.549805 -74.9414 11.168 -116.99h14.7109c6.62695 0 12 -5.37305 12 -12v-26.7656zM75.1182 304.067l25.8848 -64.0674h54.0303l25.8691 64.0635
c-9.14648 2.63965 -17.2949 7.21973 -24.0205 13.4688c-8.84375 -3.98438 -18.5859 -6.11035 -28.8799 -6.11035s-20.0352 2.125 -28.8789 6.11035c-6.7207 -6.24609 -14.8652 -10.8242 -24.0049 -13.4648zM100.227 72h55.5371
c-10.1885 44.3252 -9.85547 88.6143 -9.6416 117.35l0.0195312 2.65039h-36.2715l0.0234375 -2.58887c0.261719 -26.791 0.704102 -72.1943 -9.66699 -117.411zM208 -8.33789l-24 14.1973v18.1406h-112v-18.1406l-24 -14.1973v-7.66211h160v7.66211z" />
    <glyph glyph-name="chess-rook" unicode="&#xf447;" horiz-adv-x="384" 
d="M31.8916 0c36.4033 111.234 32.3125 171.038 32.1084 207.999l-40.9707 40.9717c-3.87988 3.87988 -7.0293 11.4824 -7.0293 16.9697v0.000976562v126.059c0 13.2549 10.7451 24 24 24h304c13.2549 0 24 -10.7451 24 -24v-126.058v-0.00195312
c0 -5.4873 -3.14941 -13.0898 -7.0293 -16.9697l-40.9707 -40.9707c-0.198242 -37.1934 -4.28223 -97.1787 32.0889 -208h-320.197zM64 368v-92.1182l47.8896 -47.8916s0.165039 -25.5029 0.207031 -28.6836c0.410156 -30.9053 1.04004 -78.3057 -16.5938 -151.307h192.949
c-17.5752 72.7529 -16.9531 120.241 -16.5479 151.219c0.0419922 3.20801 0.202148 28.7695 0.202148 28.7695l47.8936 47.8936v92.1182h-40v-48h-48v48h-80v-48h-48v48h-40zM220 160h-56v56c0 15.4639 12.5361 28 28 28s28 -12.5361 28 -28v-56zM384 -28v-24
c0 -6.62695 -5.37305 -12 -12 -12h-360c-6.62695 0 -12 5.37305 -12 12v24c0 6.62695 5.37305 12 12 12h360c6.62695 0 12 -5.37305 12 -12z" />
    <glyph glyph-name="chess-rook-alt" unicode="&#xf448;" horiz-adv-x="320" 
d="M183.999 136h-47.998v48.4209c0 13.0234 10.5566 23.5791 23.5801 23.5791h0.838867c13.0234 0 23.5801 -10.5566 23.5801 -23.5791v-48.4209h-0.000976562zM314.094 27.0459c3.26074 -1.92188 5.90625 -6.55273 5.90625 -10.3369v-0.000976562v-68.708
c0 -6.62695 -5.37305 -12 -12 -12h-296c-6.62695 0 -12 5.37305 -12 12v68.708c0 4.24805 2.24609 8.17969 5.90625 10.3379l18.0938 10.666v22.2881c0 6.62695 5.37305 12 12 12h8.85352c5.06738 24.8145 11.3389 67.8057 11.2002 140.421l-31.0469 24.8379
c-4.97168 3.97754 -9.00684 12.374 -9.00684 18.7412v0v104c0 13.2549 10.7451 24 24 24h240c13.2549 0 24 -10.7451 24 -24v-104v0c0 -6.36719 -4.03516 -14.7637 -9.00684 -18.7412l-31.0449 -24.8359c-0.124023 -72.7051 6.13477 -115.651 11.1934 -140.423h8.8584
c6.62695 0 12 -5.37305 12 -12v-22.2881zM93.5918 72h132.812c-11.7559 65.2607 -10.5039 125.159 -10.3682 163.564l39.9639 31.9707v68.4648h-32v-40h-40v40h-48v-40h-40v40h-32v-68.4648l39.9629 -31.9697c0.135742 -37.627 1.49316 -97.7129 -10.3711 -163.565z
M272 -3.85938l-24 14.1475v13.7119h-176v-13.7119l-24 -14.1475v-12.1406h224v12.1406z" />
    <glyph glyph-name="cricket" unicode="&#xf449;" 
d="M635.7 416.1c7.59961 -10.7998 4.89941 -25.6992 -5.90039 -33.2998l-144.3 -101.8c-14.5 -10.0996 -18 -30 -7.90039 -44.4004l15.3008 -21.7998c10.0996 -14.3994 6.59961 -34.2998 -7.90039 -44.3994l-327.1 -228.5c-1.5 -1 -15 -10.4004 -30.4004 -3.5
c-72.7002 32.3994 -121.8 102.3 -127.4 181.6c-0.799805 10.7998 4.80078 21.0996 13.7002 27.2998l327.101 228.5c14.7998 10.4004 34.5996 6.2002 44.5 -7.7998l12.6992 -18.0996c10.1006 -14.4004 30 -17.9004 44.5 -7.80078l144.5 101.5
c10.8008 7.60059 25.8008 4.90039 33.4004 -5.89941zM138 -13.5l224.8 157.1l-108.2 19l19.1006 107.9l-224.8 -157.1c7.09961 -54.3008 40.2998 -101.601 89.0996 -126.9zM437.8 196c3.60059 2.5 4.5 7.5 1.90039 11l-79.9004 113.9c-2.5 3.59961 -7.5 4.5 -11.0996 2
l-37.9004 -26.5l-19.0996 -107.9l108.2 -19zM511.6 127.5c52.9004 0 95.9004 -42.9004 95.9004 -95.7002s-43 -95.7002 -95.9004 -95.7002c-52.8994 0 -95.8994 42.9004 -95.8994 95.7002s43 95.7002 95.8994 95.7002zM511.6 -16.0996c26.5 0 48 21.3994 48 47.8994
c0 26.4004 -21.5996 47.9004 -48 47.9004c-26.5 0 -48 -21.5 -48 -47.9004c0 -26.3994 21.6006 -47.8994 48 -47.8994z" />
    <glyph glyph-name="curling" unicode="&#xf44a;" 
d="M540.5 248.3c57.5996 -18.8994 99.5 -72.3994 99.5 -136.3v-32c0 -79.5 -64.5 -144 -144 -144h-352c-79.5 0 -144 64.5 -144 144v32c0 63.9004 41.9004 117.4 99.5 136.3c10.7998 41.2002 47.9004 71.7002 92.5 71.7002h32v16c0 61.9004 50.0996 112 112 112h128
c8.7998 0 16 -7.2002 16 -16v-32c0 -8.7998 -7.2002 -16 -16 -16h-128c-26.5 0 -48 -21.5 -48 -48v-16h160c44.5996 0 81.7002 -30.5 92.5 -71.7002zM144 208c-52.9004 0 -96 -43.0996 -96 -96h544c0 52.9004 -43.0996 96 -96 96h-352zM496 -16c52.9004 0 96 43.0996 96 96
h-544c0 -52.9004 43.0996 -96 96 -96h352z" />
    <glyph glyph-name="dumbbell" unicode="&#xf44b;" 
d="M632 224c4.40039 0 8 -3.59961 8 -8v-48c0 -4.40039 -3.59961 -8 -8 -8h-24v-72c0 -30.9004 -25.0996 -56 -56 -56h-32c-2.7002 0 -5.40039 0.400391 -8 0.799805v-8.7998c0 -30.9004 -25.0996 -56 -56 -56h-32c-30.9004 0 -56 25.0996 -56 56v136h-96v-136
c0 -30.9004 -25.0996 -56 -56 -56h-32c-30.9004 0 -56 25.0996 -56 56v8.7998c-2.59961 -0.399414 -5.2998 -0.799805 -8 -0.799805h-32c-30.9004 0 -56 25.0996 -56 56v72h-24c-4.40039 0 -8 3.59961 -8 8v48c0 4.40039 3.59961 8 8 8h24v72c0 30.9004 25.0996 56 56 56h32
c2.7002 0 5.40039 -0.400391 8 -0.799805v8.7998c0 30.9004 25.0996 56 56 56h32c30.9004 0 56 -25.0996 56 -56v-136h96v136c0 30.9004 25.0996 56 56 56h32c30.9004 0 56 -25.0996 56 -56v-8.7998c2.59961 0.399414 5.2998 0.799805 8 0.799805h32
c30.9004 0 56 -25.0996 56 -56v-72h24zM120 80c4.40039 0 8 3.59961 8 8v208c0 4.40039 -3.59961 8 -8 8h-32c-4.40039 0 -8 -3.59961 -8 -8v-208c0 -4.40039 3.59961 -8 8 -8h32zM224 24v336c0 4.40039 -3.59961 8 -8 8h-32c-4.40039 0 -8 -3.59961 -8 -8v-336
c0 -4.40039 3.59961 -8 8 -8h32c4.40039 0 8 3.59961 8 8zM464 24v336c0 4.40039 -3.59961 8 -8 8h-32c-4.40039 0 -8 -3.59961 -8 -8v-336c0 -4.40039 3.59961 -8 8 -8h32c4.40039 0 8 3.59961 8 8zM560 88v208c0 4.40039 -3.59961 8 -8 8h-32
c-4.40039 0 -8 -3.59961 -8 -8v-208c0 -4.40039 3.59961 -8 8 -8h32c4.40039 0 8 3.59961 8 8z" />
    <glyph glyph-name="field-hockey" unicode="&#xf44c;" 
d="M619.5 351.7c7.59961 7.59961 20.5 2.2002 20.5 -8.40039v-33.8994c0 -3.2002 -1.2002 -6.2002 -3.5 -8.5l-134.2 -134.2c43.2002 -18.2002 73.7002 -60.9004 73.7002 -110.7c0 -66.2002 -53.7998 -120 -120 -120c-49.7002 0 -92.5 30.4004 -110.7 73.7002
c-21.5 -21.5 -66.7998 -73.7002 -153.3 -73.7002c-105.7 0 -192 85.2998 -192 191.9c0 51.2998 20 99.5 56.2998 135.699c31.2998 31.3008 81.9004 31.2002 113.101 0c31.1992 -31.1992 31.1992 -81.8994 0 -113.1c-30.3008 -30.4004 15.8994 -74.7002 45.2998 -45.2002
l339.2 339.2c2.2998 2.2002 5.2998 3.5 8.5 3.5h33.8994c10.7002 0 16.1006 -12.9004 8.5 -20.5996l-91.2002 -91.2002l45.2002 -45.2002zM192 -16c70.2002 0 101.3 41.5 145.4 85.7998c6.2998 55.2002 49.7998 98.7002 105 105l82.5 82.5l-45.2002 45.2002l-231.101 -231.1
c-31.2998 -31.5 -81.8994 -31 -113 -0.200195c-31.2998 31.2998 -31.2998 82 -0.199219 113.2c30.3994 30.3994 -15.7002 74.8994 -45.2002 45.2998c-27.2002 -27.1006 -42.2002 -63.2998 -42.2002 -101.8s15 -74.7002 42.2002 -101.9
c27.0996 -27.0996 63.2998 -42 101.8 -42zM528 56c0 39.7002 -32.2998 72 -72 72s-72 -32.2998 -72 -72s32.2998 -72 72 -72s72 32.2998 72 72z" />
    <glyph glyph-name="football-ball" unicode="&#xf44e;" horiz-adv-x="496" 
d="M481.4 387.1c17 -64.5996 42.7998 -227 -79.9004 -349.899c-138 -138.2 -325.9 -83.7002 -349.7 -77.2998c-18.0996 4.89941 -32.3994 18.2998 -37.2002 36.5c-17 64.6992 -42.7998 227 79.9004 349.899c137.9 138.101 325.9 84.6006 349.7 78.2002
c18.0996 -4.90039 32.3994 -19.2002 37.2002 -37.4004zM64.2998 5.40039c20.6006 -5.5 52.2998 -11.7002 89.1006 -12.9004l-105.101 105.1c1.10059 -37 7.40039 -68.5996 12.7998 -88.8994c0.400391 -1.60059 1.60059 -2.90039 3.2002 -3.2998zM367.6 72.0996
c46.5 46.6006 67.9004 100.301 76 150.601l-165.1 165.1c-58.5 -9.2998 -108.9 -34.5996 -150.1 -75.8994c-46.5 -46.6006 -67.9004 -100.301 -76.1006 -150.5l165.2 -165.2c58.5 9.2998 108.9 34.5996 150.1 75.8994zM342.6 391.5l105.101 -105.1
c-1.10059 37 -7.40039 68.5996 -12.7998 88.8994c-0.400391 1.60059 -1.60059 2.90039 -3.2002 3.2998c-20.6006 5.5 -52.2998 11.7002 -89.1006 12.9004zM253.7 288.2c3.09961 3.09961 8.09961 3.09961 11.2998 0l28.2002 -28.4004l28.2998 28.2998
c3.09961 3.10059 8.2002 3.10059 11.2998 0l11.2998 -11.2998c3.10059 -3.09961 3.10059 -8.2002 0 -11.2998l-28.2998 -28.2998l28.2998 -28.2998c3.10059 -3.10059 3.10059 -8.2002 0 -11.3008l-11.2998 -11.2998c-3.09961 -3.09961 -8.2002 -3.09961 -11.2998 0
l-28.2998 28.2998l-22.6006 -22.5996l28.3008 -28.2998c3.09961 -3.10059 3.09961 -8.2002 0 -11.2998l-11.3008 -11.3008c-3.09961 -3.09961 -8.19922 -3.09961 -11.2998 0l-28.2998 28.3008l-22.5996 -22.6006l28.2998 -28.2998
c3.09961 -3.09961 3.09961 -8.2002 0 -11.2998l-11.2998 -11.2998c-3.10059 -3.10059 -8.2002 -3.10059 -11.3008 0l-28.2998 28.2998l-28.2998 -28.2998c-3.09961 -3.10059 -8.2002 -3.10059 -11.2998 0l-11.2998 11.2998c-3.10059 3.09961 -3.10059 8.2002 0 11.2998
l28.2998 28.2998l-28.2998 28.2998c-3.10059 3.10059 -3.10059 8.2002 0 11.3008l11.2998 11.2998c3.09961 3.09961 8.2002 3.09961 11.2998 0l28.2998 -28.2998l22.6006 22.5996l-28.3008 28.2998c-3.09961 3.10059 -3.09961 8.2002 0 11.2998l11.3008 11.3008
c3.09961 3.09961 8.19922 3.09961 11.2998 0l28.2998 -28.3008l22.7002 22.7002l-28.2998 28.2998c-3.10059 3.10059 -3.10059 8.2002 0 11.3008z" />
    <glyph glyph-name="football-helmet" unicode="&#xf44f;" horiz-adv-x="512" 
d="M479.6 128c17.7002 0 32 -14.2998 32.1006 -32c0 -117.7 3.5 -123.5 -10.7998 -136.1c-13.9004 -12.2002 -24.3008 -7.90039 -66.5 -2.60059c-48 6 -86.1006 41.7998 -95.6006 89.2002l-9.5 49.5h-42.8994c5.89941 -14.9004 31.1992 -58.4004 -5 -94.5996
c-12.6006 -12.6006 -29.4004 -19.2002 -46.4004 -19.2002c-20 0 -22.2998 3.39941 -115 49.7998h-53.5c-5 0 -9.7002 2.2002 -12.7998 6.09961c-40.4004 50.9004 -61.2998 117.9 -51.1006 190c15.6006 110.4 112.301 211.9 245.4 211.9c120.3 0 220.1 -85.7998 242.7 -199.5
c1.7002 -8.90039 -4.90039 -17.5 -13.9004 -18.7002l-136.5 -17.7998l15.2002 -76h124.1zM273.6 128h49.3008l-14.4004 71.9004l-19.5996 -2.60059c-20.7002 -2.7002 -33.4004 -24.2002 -25.6006 -43.5996zM282.7 244.9l151.1 19.6992
c-29.3994 75.5 -102.6 127.4 -185.8 127.4c-108.4 0 -185.7 -84.0996 -197.9 -170.6c-7.19922 -50.5 4.30078 -100.2 32.3008 -141.4h48.8994c103.9 -51.9004 97.7998 -49.7998 103.7 -49.7998c12.4004 0 20.9004 12.5996 16.2998 24.0996l-32.5996 81.6006
c-19.4004 48.5 12.2002 102.3 64 109zM479.6 -16.0996l0.100586 45.8994h-101.101c12.1006 -22 33.8008 -37.5 59.7002 -40.7002zM479.6 64v32h-117.699l6.39941 -32h111.3zM176 136c13.2998 0 24 -10.7002 24 -24s-10.7002 -24 -24 -24s-24 10.7002 -24 24
s10.7002 24 24 24z" />
    <glyph glyph-name="golf-ball" unicode="&#xf450;" horiz-adv-x="416" 
d="M416 240c0 -58.7998 -24.7002 -111.7 -63.9004 -149.5v-58.5c0 -30.9004 -25.0996 -56 -56 -56h-16c-4.39941 0 -8 -3.59961 -8 -8v-20c0 -6.59961 -5.39941 -12 -12 -12h-24c-6.59961 0 -12 5.40039 -12 12v20c0 30.9004 25.1006 56 56 56c12.8008 0 24 -2.09961 24 8
v32h-192v-32c0 -10.0996 11.2002 -8 24 -8c30.9004 0 56 -25.0996 56 -56v-20c0 -6.59961 -5.39941 -12 -12 -12h-24c-6.59961 0 -12 5.40039 -12 12v20c0 4.40039 -3.59961 8 -8 8h-16c-30.8994 0 -56 25.0996 -56 56v58.5c-40.3994 38.7998 -65.2998 93.4004 -64 154.1
c2.40039 114 97.2002 205.2 211.2 203.4c113.4 -1.7998 204.7 -94.2002 204.7 -208zM208 400c-88.2002 0 -160 -71.7998 -160 -160c0 -52.7002 25.9004 -99 65.5 -128h189c39.5996 29 65.5 75.2998 65.5 128c0 88.2002 -71.7998 160 -160 160zM256 257.1
c0 -18.2998 -14.7998 -33.0996 -33.0996 -33.0996c-14.4004 0 -26.3008 9.2998 -30.9004 22.0996c26.2998 -9.39941 51.5 15.2002 41.9004 41.9004c12.7998 -4.59961 22.0996 -16.5 22.0996 -30.9004zM336 241.1c0 -18.2998 -14.7998 -33.0996 -33.0996 -33.0996
c-14.4004 0 -26.3008 9.2998 -30.9004 22.0996c26.2998 -9.39941 51.5 15.2002 41.9004 41.9004c12.7998 -4.59961 22.0996 -16.5 22.0996 -30.9004zM272 177.1c0 -18.2998 -14.7998 -33.0996 -33.0996 -33.0996c-14.4004 0 -26.3008 9.2998 -30.9004 22.0996
c26.2998 -9.39941 51.5 15.2002 41.9004 41.9004c12.7998 -4.59961 22.0996 -16.5 22.0996 -30.9004z" />
    <glyph glyph-name="golf-club" unicode="&#xf451;" horiz-adv-x="639" 
d="M631 439.4c7.90039 -3.80078 11.2002 -13.4004 7.40039 -21.3008l-214 -445.8c-10.7002 -22.2002 -33.1006 -36.2998 -57.7002 -36.2998h-302.7c-35.4004 0 -64 28.7002 -64 64v178.9c0 39.5996 36 70.3994 75.7998 62.8994l389.7 -73.0996l129.7 270.2
c3.89941 7.89941 13.3994 11.2998 21.3994 7.39941zM434.9 105.1c4.5 9.5 -1.10059 20.7002 -11.5 22.6006l-356.5 66.8994c-10.3008 2 -18.9004 -6.09961 -18.9004 -15.6992v-26.9004h72c4.40039 0 8 -3.59961 8 -8v-32c0 -4.40039 -3.59961 -8 -8 -8h-72v-48h72
c4.40039 0 8 -3.59961 8 -8v-32c0 -4.40039 -3.59961 -8 -8 -8h-72c0 -1 -3.09961 -24 16 -24h302.7c6.09961 0 11.7002 3.59961 14.3994 9.09961z" />
    <glyph glyph-name="hockey-puck" unicode="&#xf453;" horiz-adv-x="544" 
d="M272 400c135.4 0 272 -39.5996 272 -128v-144c0 -94.5 -136.8 -144 -272 -144s-272 49.5 -272 144v144c0 88.4004 136.6 128 272 128zM496 128v66.2998c-101.2 -67.2002 -346.8 -67.2002 -448 0v-66.2998c0 -53 100.3 -96 224 -96s224 43 224 96zM272 192
c123.7 0 224 35.7998 224 80s-100.3 80 -224 80s-224 -35.7998 -224 -80s100.3 -80 224 -80z" />
    <glyph glyph-name="hockey-sticks" unicode="&#xf454;" 
d="M600 144c22.0996 0 40 -18 40 -40v-128c0 -22.0996 -17.9004 -40 -40 -40h-186.4c-37.1992 0 -71.0996 17 -93.5 45.0996c-22.3994 -28.0996 -56.3994 -45.0996 -93.5996 -45.0996h-186.5c-22.0996 0 -40 17.9004 -40 40v128c0 22 17.9004 40 40 40h192.7l-112.7 217.6
c-9.90039 19.6006 -1.7998 43.7002 17.9004 53.6006l57.2998 28.5996c19.7002 9.90039 43.7002 1.90039 53.5996 -17.7002l71.2002 -136.3l71.2002 136.3c9.89941 19.6006 33.8994 27.6006 53.5996 17.7002l57.2998 -28.7002
c19.7002 -9.89941 27.8008 -33.8994 17.9004 -53.5996l-112.7 -217.5h192.7zM166.6 375.8l98.8008 -190.6l27.5 52.7002l-83.3008 159.399zM79.5996 -16v112h-31.5996v-112h31.5996zM290.9 23.7998l182.5 352l-43 21.5l-148.4 -284
c-5.2002 -10.5 -16.2002 -17.2998 -28.5 -17.2998h-141.9v-112h114.801c27.5 0 52.1992 15.2002 64.5 39.7998zM527.9 -16v112c-166.601 0 -138 -0.299805 -145.2 0.599609l-35.7002 -68.8994c23.0996 -44.5 59.9004 -43.7002 66.5 -43.7002h114.4zM592 -16v112h-32v-112h32
z" />
    <glyph glyph-name="luchador" unicode="&#xf455;" horiz-adv-x="448" 
d="M224 448c123.7 0 224 -100.3 224 -224v-128c0 -88.4004 -71.5996 -160 -160 -160h-128c-88.4004 0 -160 71.5996 -160 160v128c0 123.7 100.3 224 224 224zM400 96v128c0 97 -79 176 -176 176s-176 -79 -176 -176v-128c0 -61.7998 50.2002 -112 112 -112h128
c61.7998 0 112 50.2002 112 112zM226.5 221.8c8.2002 37.9004 39.5996 66.2002 77.5 66.2002h68c6.59961 0 12 -5.40039 12 -12v-30.7002c0 -47.0996 -35.7998 -85.2998 -80 -85.2998h-22.5c7.40039 -12.2002 12.5 -23.4004 15.7998 -32.9004
c30.9004 -4.59961 54.6006 -31 54.6006 -63.0996c0 -35.5 -29.4004 -64 -64.9004 -64h-126.1c-35.5 0 -64.9004 28.5 -64.9004 64c0 32.0996 23.7002 58.5 54.5996 63.0996c3.30078 9.40039 8.40039 20.7002 15.8008 32.9004h-22.4004c-44.2002 0 -80 38.2002 -80 85.2998
v30.7002c0 6.59961 5.40039 12 12 12h68c38 0 69.2998 -28.2998 77.4004 -66.2002c0.899414 0.700195 4.19922 0.700195 5.09961 0zM224 181.3c-20.2002 -19.8994 -31.9004 -38.5 -38.7002 -53.2998h77.4004c-6.7998 14.7002 -18.5 33.4004 -38.7002 53.2998zM144 192
h46.2002c0.599609 0.700195 1.2002 1.2998 1.7998 2v8.7002c0 29.3994 -21.5 53.2998 -48 53.2998h-48v-10.7002c0 -29.3994 21.5 -53.2998 48 -53.2998zM288 96h-128c-17.5996 0 -32 -14.4004 -32 -32s14.4004 -32 32 -32h128c17.5996 0 32 14.4004 32 32
s-14.4004 32 -32 32zM352 245.3v10.7002h-48c-26.5 0 -48 -23.9004 -48 -53.2998v-8.7002c0.599609 -0.700195 1.2002 -1.2998 1.7998 -2h46.2002c26.5 0 48 23.9004 48 53.2998z" />
    <glyph glyph-name="pennant" unicode="&#xf456;" horiz-adv-x="575" 
d="M542.3 264.5c26 5.2998 43.6006 -24.7998 27.5 -45c-79.8994 -100.2 -184.5 -123.7 -188.899 -124.7c-60.6006 -13.0996 -106.9 -17.5996 -135.101 -19c-9.39941 -0.5 -85 -1.89941 -165.8 -56.2002v-75.5996c0 -4.40039 -3.59961 -8 -8 -8h-32
c-4.40039 0 -8 3.59961 -8 8v397.6c-18.7998 9 -32 28.1006 -32 50.4004c0 30.9004 25.0996 56 56 56c34.9004 0 65.5 -33.7002 53.2002 -72.7002c49.2002 2.40039 112.1 -7.59961 186.7 -48c141.699 -76.8994 224.5 -67.5996 246.399 -62.7998zM370.8 141.7
c0.700195 0.200195 66.2998 15.2998 128.101 71.8994c-48.9004 1.7002 -124.5 16.6006 -225.9 71.5c-83.4004 45.2002 -148.9 47.5 -193 38.9004v-248.2c37.7998 21.6006 93.7998 44.4004 163.4 47.9004c26.3994 1.39941 69.8994 5.59961 127.399 18z" />
    <glyph glyph-name="quidditch" unicode="&#xf458;" horiz-adv-x="639" 
d="M636.5 417c5.5 -6.90039 4.40039 -17 -2.5 -22.5l-230.7 -178l35.2998 -44.2998c4.80078 -6 2.7002 -15 -4.2998 -18.2998l-84.2998 -39.5c-7.7998 -30.2002 -30.0996 -99.7002 -77.7998 -137.601c-59.7998 -47.5 -257.101 -40.7998 -272.2 -40.0996
c0 0 38.2998 206.3 100.3 255.6c47.9004 38.1006 120.8 44 151.9 44.7002l57.7002 73.0996c4.7998 6.10059 14 6.2002 18.7998 0.100586l34.7002 -43.6006l230.699 178c6.90039 5.40039 17 4.30078 22.5 -2.59961zM242.3 14.2998
c29.4004 23.2998 48.1006 68 57.4004 99.2002l-59.7998 75c-38.4004 -2.5 -82.7002 -12 -109.7 -33.5c-13 -10.4004 -27.2998 -38.0996 -40.7002 -73.4004l26.0996 5.5c6.2002 1.30078 10 -6.69922 5 -10.5996l-45.2998 -36
c-5.7002 -18.2002 -11 -37.2998 -15.7998 -56.4004c108.5 1.7002 166.2 17 182.8 30.2002zM330.3 158.2l35.5 16.5996c3.5 1.7002 4.5 6.2002 2.10059 9.2002l-43.8008 54.9004c-2.39941 3.09961 -7 3 -9.39941 0l-24.2002 -30.8008zM512.1 128.3
c52.9004 0 96 -43 96 -95.7998s-43.0996 -95.7998 -96 -95.7998c-52.8994 0 -96 43 -96 95.7998s43.1006 95.7998 96 95.7998zM512.1 -15.5c26.4004 0 48 21.5 48 47.9004c0 26.3994 -21.5 47.8994 -48 47.8994s-48 -21.5 -48 -47.8994
c0 -26.4004 21.5 -47.9004 48 -47.9004z" />
    <glyph glyph-name="racquet" unicode="&#xf45a;" 
d="M616.3 386.7c53.5 -77.2002 13.2998 -197.601 -89.7002 -269c-49.5 -34.2002 -104.399 -50.7998 -154.1 -50.2998c-23.4004 0.299805 -29.5996 3.7998 -58.2998 4.09961c-31.7002 0.299805 -63.1006 -4.7998 -93.4004 -14c1 -11.0996 -3.2002 -22.4004 -13 -29.2002
l-123.7 -86.5996c-14.0996 -9.7998 -34.0996 -7.10059 -44.5996 7.89941l-33.7998 48.2002c-10.1006 14.5 -6.60059 34.5 7.89941 44.6006l123.7 86.6992c15.6006 10.9004 30.2998 3 30.7002 2.80078c26.5 34.2998 46.5996 73.1992 56.5996 115.8
c12.8008 54.5996 50.7002 109.899 108.4 149.899c101.4 70.1006 229 67.6006 283.3 -10.8994zM69.7002 -9.7002l97.5 68.2998l-15.4004 22l-97.5 -68.2998zM207.9 104c15.6992 4.7002 31.5 8.2002 47.2998 10.7998c-8.2998 9.10059 -12.5 12.7998 -20.9004 29.6006
c-8 -13.9004 -16.5 -27.5 -26.3994 -40.4004zM499.3 157.3c124.8 86.2998 125.8 241.2 -12.3994 242.7c10 0 10 0 0 0c-20.6006 0 -70 -2.7998 -126.601 -41.9004c-123.3 -85.3994 -127 -241.199 12.4004 -242.699c41.8994 -0.5 86.8994 14.3994 126.6 41.8994z" />
    <glyph glyph-name="shuttlecock" unicode="&#xf45b;" horiz-adv-x="512" 
d="M472 256c22.0996 0 40 -17.9004 40.0996 -40v-34.9004c0 -15.5 -9.09961 -29.7998 -23.1992 -36.2998l-243.301 -113.3l-64.5 -64.5c-41.5996 -41.5 -108.699 -41.2998 -150 0c-41.3994 41.4004 -41.3994 108.6 0 150l64.4004 64.5l113.3 243.4
c6.5 14 20.7998 23.0996 36.2998 23.0996h34.9004c22.0996 0 40 -17.9004 40 -40v-40h72c22.0996 0 40 -17.9004 40 -40v-72h40zM384 320h-62.4004l-28.7998 -91.2002l91.2002 28.7998v62.4004zM85.0996 103.2l82.1006 -82.1006l20.8994 20.9004l-82.0996 82.0996z
M250.2 400l-40.2002 -86.2002l62 36v50.2002h-21.7998zM261.1 288l-86.5 -50.4004l-36.2998 -77.8994l25.7002 -25.7002l70.7998 70.9004zM65 1c21.2002 -21.2002 55.5996 -23.2998 79.4004 -2.2002l-81.6006 81.6006c-20.2002 -22.8008 -19.5996 -57.6006 2.2002 -79.4004z
M223.7 74.2998l77.8994 36.4004l50.3008 86.5l-83.1006 -26.2998l-70.7998 -70.8008zM464 186.2v21.7998h-50.2002l-36 -61.9004z" />
    <glyph glyph-name="square-full" unicode="&#xf45c;" horiz-adv-x="512" 
d="M0 448h512v-512h-512v512zM464 -16v416h-416v-416h416z" />
    <glyph glyph-name="table-tennis" unicode="&#xf45d;" horiz-adv-x="512" 
d="M483.2 122.2c17.7002 -19.7998 28.7998 -45.6006 28.7998 -74.2002c0 -61.7998 -50.2002 -112 -112 -112c-33.4004 0 -63.2002 15 -83.7002 38.2998c-77.2002 -14.3994 -120.5 40 -130.6 50.1006l-63.9004 -73.9004c-15.3994 -17.7998 -43.5 -20 -61.2002 -2.2002
l-48.3994 48.5c-17.1006 17.1006 -16.1006 45.2002 2.2002 61.1006l73.8994 64.1992l-13.0996 13.1006c-50.9004 51.0996 -50.9004 134.1 0 185.1c65.2998 65.4004 112.6 127.7 218 127.7c58.5 0 113.399 -22.7998 154.8 -64.2998
c70.5996 -70.7998 81.7002 -178.101 35.2002 -261.5zM293.2 400c-84 0 -125.601 -55.0996 -156.9 -86.4004l185.601 -185.6c17.2998 16.9004 64.1992 47.9004 122.3 22.7998c33.0996 64.4004 23.5 145.2 -30.2998 199.101c-32.2002 32.2998 -75.1006 50.0996 -120.7 50.0996
zM183.2 94.9004c51.8994 -52 65.3994 -73.5 108.399 -73.6006c-4 16 -6.7998 37.1006 3.7002 65.4004l-192.2 192.2c-25.6992 -32.5 -23.8994 -79.8008 6 -109.801l49.5 -49.5l-107.699 -93.5996l39 -39.0996zM400 -16c35.2998 0 64 28.7002 64 64s-28.7002 64 -64 64
s-64 -28.7002 -64 -64s28.7002 -64 64 -64z" />
    <glyph glyph-name="tennis-ball" unicode="&#xf45e;" horiz-adv-x="496" 
d="M495 211.8c0.5 -6.59961 1 -13.0996 1 -19.7998c0 -136.8 -111.2 -248 -248 -248c-6.7002 0 -13.2998 0.5 -19.9004 1h-0.0996094c-120.8 9.7002 -217.3 106.2 -227 227v0.0996094c-0.5 6.60059 -1 13.2002 -1 19.9004c0 136.8 111.2 248 248 248
c6.7002 0 13.2998 -0.5 19.7998 -1c0.100586 0 0.200195 0.0996094 0.299805 0.0996094v-0.0996094c120.7 -9.7998 217.101 -106.2 226.9 -226.9h0.0996094c0 -0.0996094 -0.0996094 -0.199219 -0.0996094 -0.299805zM219.3 389.7
c-87.2998 -12.7002 -156.3 -81.7002 -168.899 -168.9c6.19922 1.7002 12.5996 2.7998 19.2998 2.7998c37.7002 0 79.7998 16.9004 104.899 41.9004c25 25 41.9004 67.2002 41.9004 104.9c0 6.69922 1.09961 13.0996 2.7998 19.2998zM50 165.1
c12 -88.6992 82.4004 -159.1 171.1 -171.199c6.40039 4.19922 10.5 11.3994 10.5 19.6992c0.100586 50.4004 22 104.801 56 138.801s88.4004 56 138.801 56c8.19922 0 15.3994 4 19.5996 10.3994c-12 88.7998 -82.4004 159.2 -171.2 171.2
c-6.39941 -4.2002 -10.3994 -11.4004 -10.3994 -19.5996c-0.100586 -50.3008 -22 -104.801 -56 -138.801s-88.5 -56 -138.801 -56c-8.19922 0 -15.3994 -4.09961 -19.5996 -10.5zM276.8 -5.7002c87.2002 12.7002 156.2 81.7002 168.9 168.9
c-6.2002 -1.7002 -12.6006 -2.7998 -19.2998 -2.7998c-37.7002 0 -79.8008 -16.8008 -104.9 -41.9004c-25 -25 -41.9004 -67.2002 -41.9004 -104.9c0 -6.69922 -1.09961 -13.0996 -2.7998 -19.2998z" />
    <glyph glyph-name="volleyball-ball" unicode="&#xf45f;" horiz-adv-x="496" 
d="M248 440c136.8 0 248 -111.2 248 -248s-111.2 -248 -248 -248s-248 111.2 -248 248s111.2 248 248 248zM394.6 56.4004c18.2002 19.6992 32.5 43 41.7002 68.7998c-9.7002 -0.799805 -92.0996 -12.1006 -187.1 39.2998
c-26.7998 -16.4004 -50.5 -36.7002 -70.2998 -60.2998c63.0996 -43.2998 140.399 -60.5 215.699 -47.7998zM447.1 174.5c10.1006 115.5 -73 175.9 -101.8 192.1c34.7002 -58.0996 50.6006 -126 45 -194.399c18.9004 -1.2002 37.9004 -0.299805 56.7998 2.2998zM291.9 387
c-39.2002 8.7998 -68.3008 3.7002 -80.3008 1.5c37.3008 -53.5 58.1006 -116.3 59.9004 -182c27.5 -14.9004 56.9004 -25.2002 87.0996 -30.5c5.90039 76.4004 -17.8994 152.1 -66.6992 211zM163.7 373.1c-63.6006 -29.6992 -116.9 -96.7998 -115.601 -184.1
c33 59.2002 83.9004 106.9 145.9 136.2c-8.40039 16.7998 -18.5996 32.7998 -30.2998 47.8994zM57.0996 132.3c8.2002 -26 21.6006 -49.7002 38.9004 -70c27.5996 59 71.5996 108.4 127.6 142.8c-0.799805 31.3008 -6.59961 61.9004 -17.0996 90.7002
c-69.2002 -33.0996 -122.8 -91.7002 -149.4 -163.5zM133.3 28.4004c32.5 -22.8008 72 -36.4004 114.7 -36.4004c37.4004 0 72.2002 10.5 102.2 28.4004c-91.9004 -1.30078 -157.101 34.5996 -190.8 57.8994c-10.2002 -15.7002 -19 -32.2998 -26.1006 -49.8994z" />
  </font>
</defs>
</svg>
