<?xml version="1.0" standalone="no"?>
<!--
Font Awesome Pro 5.10.0 by @fontawesome - https://fontawesome.com
License - https://fontawesome.com/license (Commercial License)
-->
<!DOCTYPE svg PUBLIC "-//W3C//DTD SVG 1.1//EN" "http://www.w3.org/Graphics/SVG/1.1/DTD/svg11.dtd" >
<svg xmlns="http://www.w3.org/2000/svg" xmlns:xlink="http://www.w3.org/1999/xlink" version="1.1">
<metadata>
Created by FontForge 20190112 at Mon Jul 29 10:01:48 2019
 By Robert Madole
Copyright (c) Font Awesome
</metadata>
<defs>
<font id="FontAwesome5Pro-Solid" horiz-adv-x="640" >
  <font-face 
    font-family="Font Awesome 5 Pro Solid"
    font-weight="900"
    font-stretch="normal"
    units-per-em="512"
    panose-1="2 0 5 3 0 0 0 0 0 0"
    ascent="448"
    descent="-64"
    bbox="-0.0996094 -64.0947 640.038 448.016"
    underline-thickness="25"
    underline-position="-51"
    unicode-range="U+0020-F89D"
  />
    <missing-glyph />
    <glyph glyph-name="h1" unicode="&#xf313;" horiz-adv-x="576" 
d="M304 352c8.83203 0 16 -7.16797 16 -16v-34.9404c0 -7.20898 -5.85059 -13.0596 -13.0596 -13.0596h-18.9404v-192h18.9404c7.20898 0 13.0596 -5.85059 13.0596 -13.0596v-34.9404c0 -8.83203 -7.16797 -16 -16 -16h-96c-8.83203 0 -16 7.16797 -16 16v34.9404
c0 7.20898 5.85059 13.0596 13.0596 13.0596h18.9404v64h-128v-64h18.9404c7.20898 0 13.0596 -5.85059 13.0596 -13.0596v-37.8809c0 -7.20898 -5.85059 -13.0596 -13.0596 -13.0596h-98.9404c-8.83203 0 -16 7.16797 -16 16v34.9404
c0 7.20898 5.85059 13.0596 13.0596 13.0596h18.9404v192h-18.9404c-7.20898 0 -13.0596 5.85059 -13.0596 13.0596v34.9404c0 8.83203 7.16797 16 16 16h96c8.83203 0 16 -7.16797 16 -16v-34.9404c0 -7.20898 -5.85059 -13.0596 -13.0596 -13.0596h-18.9404v-64h128v64
h-18.9404c-7.20898 0 -13.0596 5.85059 -13.0596 13.0596v37.8809c0 7.20898 5.85059 13.0596 13.0596 13.0596h98.9404zM560 96c8.83203 0 16 -7.16797 16 -16v-32c0 -8.83203 -7.16797 -16 -16 -16h-160c-8.83203 0 -16 7.16797 -16 16v32c0 8.83203 7.16797 16 16 16h48
v160h-24c-13.2354 0.0126953 -23.9775 10.7646 -23.9775 24c0 3.12988 1.13672 7.94141 2.53711 10.7402l24 48c3.65918 7.31152 13.2646 13.252 21.4404 13.2598h40c13.248 0 24 -10.752 24 -24v-232h48z" />
    <glyph glyph-name="h2" unicode="&#xf314;" horiz-adv-x="576" 
d="M560 96c8.83203 0 16 -7.16797 16 -16v-32c0 -8.83203 -7.16797 -16 -16 -16h-181.86h-0.078125c-7.67285 0 -14.7471 6.16895 -15.792 13.7695c-0.853516 5.6709 -1.61914 14.9268 -1.70996 20.6602c0 111.351 142.101 132.38 142.101 184.561
c0 23.3799 -19.3105 33.8398 -38.2197 33.8398c-18.9102 0 -33.0801 -11.1396 -43.8506 -26c-2.67383 -3.5918 -8.47754 -6.50684 -12.9551 -6.50684c-2.67969 0 -6.66895 1.19922 -8.9043 2.67676l-28.2607 18.5996c-3.92773 2.55762 -7.11523 8.4375 -7.11523 13.124
c0 2.4707 1.05957 6.17871 2.36523 8.27637c22.0107 35.6201 59.5898 57 103.42 57c59.1904 0 106.86 -36.5498 106.86 -96.3799c0 -93.0498 -118.21 -116.67 -135.21 -159.62h119.21zM304 352c8.83203 0 16 -7.16797 16 -16v-34.9404
c0 -7.20898 -5.85059 -13.0596 -13.0596 -13.0596h-18.9404v-192h18.9404c7.20898 0 13.0596 -5.85059 13.0596 -13.0596v-34.9404c0 -8.83203 -7.16797 -16 -16 -16h-96c-8.83203 0 -16 7.16797 -16 16v34.9404c0 7.20898 5.85059 13.0596 13.0596 13.0596h18.9404v64h-128
v-64h18.9404c7.20898 0 13.0596 -5.85059 13.0596 -13.0596v-37.8809c0 -7.20898 -5.85059 -13.0596 -13.0596 -13.0596h-98.9404c-8.83203 0 -16 7.16797 -16 16v34.9404c0 7.20898 5.85059 13.0596 13.0596 13.0596h18.9404v192h-18.9404
c-7.20898 0 -13.0596 5.85059 -13.0596 13.0596v34.9404c0 8.83203 7.16797 16 16 16h96c8.83203 0 16 -7.16797 16 -16v-34.9404c0 -7.20898 -5.85059 -13.0596 -13.0596 -13.0596h-18.9404v-64h128v64h-18.9404c-7.20898 0 -13.0596 5.85059 -13.0596 13.0596v37.8809
c0 7.20898 5.85059 13.0596 13.0596 13.0596h98.9404z" />
    <glyph glyph-name="h3" unicode="&#xf315;" horiz-adv-x="576" 
d="M499 230.31c44.2695 -11.3594 77 -44.9492 77 -92.25c0 -57.1992 -45.4902 -106.06 -116.49 -106.06c-37.5098 0 -74.6094 12.79 -102.26 37.5498c-2.89355 2.54883 -5.24316 7.74707 -5.24316 11.6025c0 2.64648 1.21582 6.56543 2.71289 8.74805l19.75 28.7998
c2.71289 3.87891 8.75586 7.02637 13.4893 7.02637c3.22656 0 7.87695 -1.65137 10.3809 -3.68652c16.5205 -13.6602 35.6201 -22.8301 57.7002 -22.8301c27.46 0 47.3896 15.4697 47.3896 36.79c0 28.1602 -28.8496 38.4805 -57.79 38.4805h-15.9492
c-5.84082 0 -12.4902 4.20996 -14.8408 9.41992l-8.40918 18.5898c-0.695312 1.68164 -1.31348 4.52148 -1.38086 6.33984c0.168945 3.1416 1.88477 7.69727 3.83008 10.1699l53.1006 61.0996c2.54004 2.90039 4.89941 5.4502 7.18945 7.90039h-85.1797
c-8.83203 0 -16 7.16797 -16 16v32c0 8.83203 7.16797 16 16 16h167.12c0.078125 0.000976562 0.204102 0.00292969 0.282227 0.00292969c8.69629 0 15.8633 -7.05762 15.998 -15.7529v-23.3203c-0.0166016 -3.26758 -1.80859 -7.88672 -4 -10.3096zM304 352
c8.83203 0 16 -7.16797 16 -16v-34.9404c0 -7.20898 -5.85059 -13.0596 -13.0596 -13.0596h-18.9404v-192h18.9404c7.20898 0 13.0596 -5.85059 13.0596 -13.0596v-34.9404c0 -8.83203 -7.16797 -16 -16 -16h-96c-8.83203 0 -16 7.16797 -16 16v34.9404
c0 7.20898 5.85059 13.0596 13.0596 13.0596h18.9404v64h-128v-64h18.9404c7.20898 0 13.0596 -5.85059 13.0596 -13.0596v-37.8809c0 -7.20898 -5.85059 -13.0596 -13.0596 -13.0596h-98.9404c-8.83203 0 -16 7.16797 -16 16v34.9404
c0 7.20898 5.85059 13.0596 13.0596 13.0596h18.9404v192h-18.9404c-7.20898 0 -13.0596 5.85059 -13.0596 13.0596v34.9404c0 8.83203 7.16797 16 16 16h96c8.83203 0 16 -7.16797 16 -16v-34.9404c0 -7.20898 -5.85059 -13.0596 -13.0596 -13.0596h-18.9404v-64h128v64
h-18.9404c-7.20898 0 -13.0596 5.85059 -13.0596 13.0596v37.8809c0 7.20898 5.85059 13.0596 13.0596 13.0596h98.9404z" />
    <glyph glyph-name="alarm-clock" unicode="&#xf34e;" horiz-adv-x="512" 
d="M96 448c20.7861 -0.00195312 49.9961 -11.5068 65.2002 -25.6797l-145.9 -121.58c-8.38281 12.9062 -15.2373 35.8701 -15.2998 51.2598c0 52.9922 43.0078 96 96 96zM416 448c52.9922 0 96 -43.0078 96 -96c-0.0664062 -15.3789 -6.91699 -38.3301 -15.29 -51.2305
l-145.89 121.57c15.2031 14.1602 44.4033 25.6562 65.1797 25.6602zM256 384c123.74 0 224 -100.29 224 -224v-0.103516c0 -41.083 -20.0479 -101.069 -44.75 -133.896l40.0996 -40.0596c2.58789 -2.58691 4.6875 -7.65625 4.6875 -11.3154
s-2.09961 -8.72852 -4.6875 -11.3154l-22.6299 -22.6191c-2.58594 -2.58496 -7.65332 -4.68262 -11.3096 -4.68262c-3.65723 0 -8.72363 2.09766 -11.3105 4.68262l-40.0996 40.0898c-32.8506 -24.7275 -92.8828 -44.7959 -134 -44.7959s-101.149 20.0684 -134 44.7959
l-40.0596 -40.1201c-2.58691 -2.58789 -7.65625 -4.6875 -11.3154 -4.6875s-8.72852 2.09961 -11.3154 4.6875l-22.6191 22.6201c-2.58789 2.58691 -4.68848 7.65625 -4.68848 11.3145c0 3.65918 2.10059 8.72852 4.68848 11.3154l40.0996 40.0898
c-24.7246 32.8379 -44.79 92.8486 -44.79 133.953v0.046875c0 123.71 100.3 224 224 224zM346 92.4902c1.93555 2.41895 3.50586 6.89648 3.50586 9.99512c0 4.24512 -2.69043 9.84277 -6.00586 12.4951l-55.5 44.3994v112.62c0 8.83203 -7.16797 16 -16 16h-32
c-8.83203 0 -16 -7.16797 -16 -16v-124.16v-0.00488281c0 -10.6064 6.71973 -24.5957 15 -31.2246l64.5098 -51.6201c2.41992 -1.93555 6.89746 -3.50586 9.99512 -3.50586c4.24609 0 9.84375 2.69043 12.4951 6.00586z" />
    <glyph glyph-name="chess-bishop-alt" unicode="&#xf43b;" horiz-adv-x="256" 
d="M64 160c-8.83203 0 -16 7.16797 -16 16v16c0 8.83203 7.16797 16 16 16h11.6699c-15.9902 6.66992 -26.4795 25.0898 -26.4795 50.4297c0 40.4502 31.0996 97.3301 59.6797 117.2c-8.17969 2.78027 -12.8701 10.5205 -12.8701 19.6396
c0 11.4502 8.08008 20.7305 19.5303 20.7305h24.9395c11.4502 0 19.5303 -9.28027 19.5303 -20.7305c0 -9.11914 -4.69043 -16.8594 -12.8604 -19.6396c11.6602 -8.11035 23.6406 -22.5195 33.8604 -39.3301l-51.8301 -51.8193
c-0.644531 -0.646484 -1.16797 -1.91211 -1.16797 -2.8252s0.523438 -2.17871 1.16797 -2.8252l5.66016 -5.66016c0.646484 -0.647461 1.91504 -1.17285 2.83008 -1.17285s2.18262 0.525391 2.83008 1.17285l48.5898 48.5898
c10.5303 -20.9902 17.7295 -44.0098 17.7295 -63.3301c0 -25.3398 -10.4795 -43.7598 -26.4795 -50.4297h11.6699c8.83203 0 16 -7.16797 16 -16v-16c0 -8.83203 -7.16797 -16 -16 -16h-14.8896c1.69727 -26.8701 8.36816 -69.8779 14.8896 -96h-128
c6.52148 26.1221 13.1924 69.1299 14.8896 96h-14.8896zM247.16 -11.5801c4.87988 -2.44141 8.83984 -8.85156 8.83984 -14.3086v-0.000976562v-22.1104c0 -8.83203 -7.16797 -16 -16 -16h-224c-8.83203 0 -16 7.16797 -16 16v22.1104
c0.000976562 5.45898 3.96582 11.8701 8.84961 14.3096l23.1504 11.5801v16c0 8.83203 7.16797 16 16 16h160c8.83203 0 16 -7.16797 16 -16v-16z" />
    <glyph glyph-name="chess-clock" unicode="&#xf43d;" 
d="M519.38 205l5.62012 -5.58984c1.94824 -1.94141 3.5293 -5.75 3.5293 -8.5c0 -2.75098 -1.58105 -6.55859 -3.5293 -8.5l-50.8604 -50.96c-1.94141 -1.94824 -5.74902 -3.5293 -8.5 -3.5293c-2.75 0 -6.55859 1.58105 -8.5 3.5293l-5.64941 5.66016
c-1.94824 1.94141 -3.5293 5.74902 -3.5293 8.5c0 2.75 1.58105 6.55859 3.5293 8.5l50.8896 50.8896c1.94141 1.94824 5.75 3.5293 8.5 3.5293c2.75098 0 6.55859 -1.58105 8.5 -3.5293zM599.9 320c22.0801 0 40 -17.9199 40 -40v-272c0 -22.0801 -17.9199 -40 -40 -40
h-560c-22.0801 0 -40 17.9199 -40 40v272c0 22.0801 17.9199 40 40 40h112.279v48.0596h-40.1797c-8.83203 0 -16 7.16797 -16 16v15.9404c0 8.83203 7.16797 16 16 16h128c8.83203 0 16 -7.16797 16 -16v-15.9404c0 -8.83203 -7.16797 -16 -16 -16h-39.8496v-48.0596
h183.75v16c0 8.83203 7.16797 16 16 16h128c8.83203 0 16 -7.16797 16 -16v-16h56zM176.2 31.9404c61.7969 0 112 50.1533 112 111.949v0v0.0507812c0 61.8232 -50.1758 112 -112 112s-112 -50.1768 -112 -112c0 -61.8242 50.1758 -112 112 -112zM464.2 31.9404
c61.7969 0 112 50.1533 112 111.949v0v0.0507812c0 61.8232 -50.1758 112 -112 112s-112 -50.1768 -112 -112c0 -61.8242 50.1758 -112 112 -112zM180.2 223.86c6.62402 0 12 -5.37598 12 -12v-72c0 -6.62402 -5.37598 -12 -12 -12h-8c-6.62402 0 -12 5.37598 -12 12v72
c0 6.62402 5.37598 12 12 12h8z" />
    <glyph glyph-name="chess-clock-alt" unicode="&#xf43e;" 
d="M600 320c22.0469 -0.09375 39.9668 -18.0625 40 -40.1104v-271.89c0 -22.0801 -17.9199 -40 -40 -40h-560c-22.0801 0 -40 17.9199 -40 40v271.89c0.0332031 22.0479 17.9531 40.0166 40 40.1104h55.9102v16c0 8.83203 7.16797 16 16 16h128
c8.83203 0 16 -7.16797 16 -16v-16h183.84v48h-39.75c-8.83203 0 -16 7.16797 -16 16v16c0 8.83203 7.16797 16 16 16h128c8.83203 0 16 -7.16797 16 -16v-16c0 -8.83203 -7.16797 -16 -16 -16h-40.25v-48h112.25zM175.93 31.9404c61.7969 0 111.973 50.1533 112 111.949
v0.0507812c0 61.8232 -50.1758 112 -112 112c-61.8232 0 -112 -50.1768 -112 -112c0 -61.8242 50.1768 -112 112 -112zM463.82 31.9404c61.7959 0 111.972 50.1533 112 111.949v0.0507812c0 61.8232 -50.1768 112 -112 112c-61.8242 0 -112 -50.1768 -112 -112
c0 -61.8242 50.1758 -112 112 -112zM231.12 205l5.66016 -5.65039c1.94824 -1.94141 3.5293 -5.74902 3.5293 -8.5c0 -2.75 -1.58105 -6.55762 -3.5293 -8.5l-50.8906 -50.8994c-1.94141 -1.94824 -5.74902 -3.5293 -8.5 -3.5293c-2.75 0 -6.55859 1.58105 -8.5 3.5293
l-5.65918 5.66016c-1.94922 1.94141 -3.53027 5.74902 -3.53027 8.5c0 2.75 1.58105 6.55859 3.53027 8.5l50.8896 50.8896c1.94141 1.94824 5.74902 3.5293 8.5 3.5293c2.75 0 6.55859 -1.58105 8.5 -3.5293zM467.82 223.84c6.62402 0 12 -5.35547 12 -11.9795v-0.0205078
v-72c0 -6.62402 -5.37598 -12 -12 -12h-8c-6.62402 0 -12 5.37598 -12 12v72c0 6.62402 5.37598 12 12 12h8z" />
    <glyph glyph-name="chess-king-alt" unicode="&#xf440;" horiz-adv-x="320" 
d="M106 240l-33.9102 90.3799c-0.5625 1.5 -1.01953 4.01758 -1.01953 5.62012c0 8.83203 7.16797 16 16 16h0.0195312h56.9102v32h-24c-4.41602 0 -8 3.58398 -8 8v16c0 4.41602 3.58398 8 8 8h24v24c0 4.41602 3.58398 8 8 8h16c4.41602 0 8 -3.58398 8 -8v-24h24
c4.41602 0 8 -3.58398 8 -8v-16c0 -4.41602 -3.58398 -8 -8 -8h-24v-32h56.8896h0.0195312c8.83203 0 16 -7.16797 16 -16c0 -1.60254 -0.456055 -4.12012 -1.01953 -5.62012l-33.8896 -90.3799h10c8.83203 0 16 -7.16797 16 -16v-16c0 -8.83203 -7.16797 -16 -16 -16
h-15.9404c0.116211 -35.8613 7.25684 -93.2051 15.9404 -128h-128c8.68359 34.7949 15.8242 92.1387 15.9404 128h-15.9404c-8.83203 0 -16 7.16797 -16 16v16c0 8.83203 7.16797 16 16 16h10zM279.16 -11.5801c4.87988 -2.44141 8.83984 -8.85156 8.83984 -14.3086
v-0.000976562v-22.1104c0 -8.83203 -7.16797 -16 -16 -16h-224c-8.83203 0 -16 7.16797 -16 16v22.1104c0.000976562 5.45898 3.96582 11.8701 8.84961 14.3096l23.1504 11.5801v16c0 8.83203 7.16797 16 16 16h160c8.83203 0 16 -7.16797 16 -16v-16z" />
    <glyph glyph-name="chess-knight-alt" unicode="&#xf442;" horiz-adv-x="320" 
d="M311.16 -11.5801c4.87988 -2.44141 8.83984 -8.85156 8.83984 -14.3086v-0.000976562v-22.1104c0 -8.83203 -7.16797 -16 -16 -16h-288c-8.83203 0 -16 7.16797 -16 16v22.1104c0.000976562 5.45898 3.96582 11.8701 8.84961 14.3096l23.1504 11.5801v16
c0 8.83203 7.16797 16 16 16h224c8.83203 0 16 -7.16797 16 -16v-16zM45.5498 212.48c-7.47949 3.33496 -13.5498 12.6885 -13.5498 20.8779v0.00195312v97.8994c0.00390625 3.91016 2.24414 9.33594 5 12.1104l6.37012 6.34961l-10.1006 20.2803
c-0.700195 1.41016 -1.26953 3.83105 -1.26953 5.40625v0.0341797v0.0195312c0 4.70312 3.81738 8.5293 8.51953 8.54004h92.3203c76.54 0 139.16 -62.6201 139.16 -139.16v-148.84c0 -13.6904 -9 -24.1504 -16 -32h-192c-31.5801 31.5801 -23.1299 84.7803 16.6797 105
l46.54 23.7002c9.3291 4.17676 16.9004 15.8633 16.9004 26.084v0.00585938v37.21l-14.2002 -5.42969c-3.87695 -1.94531 -7.87305 -6.94043 -8.91992 -11.1504l-6.53027 -21.8701c-1.73438 -5.80762 -7.70605 -12.3574 -13.3301 -14.6201l-9.08984 -3.64941
c-2.24023 -0.902344 -6.01953 -1.63379 -8.43457 -1.63379c-2.66602 0 -6.80273 0.883789 -9.23535 1.97363zM80.0703 320c-8.79883 -0.0332031 -15.9404 -7.20117 -15.9404 -16v0c0 -8.83203 7.16797 -16 16 -16s16 7.16797 16 16s-7.16797 16 -16 16h-0.0595703z" />
    <glyph glyph-name="chess-pawn-alt" unicode="&#xf444;" horiz-adv-x="256" 
d="M64 160c-8.83203 0 -16 7.16797 -16 16v16c0 8.83203 7.16797 16 16 16h16.4404c-17.9072 13.2393 -32.4404 42.0576 -32.4404 64.3281c0 44.1592 35.8398 80 80 80s80 -35.8408 80 -80c0 -22.2705 -14.5332 -51.0889 -32.4404 -64.3281h16.4404
c8.83203 0 16 -7.16797 16 -16v-16c0 -8.83203 -7.16797 -16 -16 -16h-14.8896c1.69727 -26.8701 8.36816 -69.8779 14.8896 -96h-128c6.52148 26.1221 13.1924 69.1299 14.8896 96h-14.8896zM247.16 -11.5801c4.87988 -2.44141 8.83984 -8.85156 8.83984 -14.3086
v-0.000976562v-22.1104c0 -8.83203 -7.16797 -16 -16 -16h-224c-8.83203 0 -16 7.16797 -16 16v22.1104c0.000976562 5.45898 3.96582 11.8701 8.84961 14.3096l23.1504 11.5801v16c0 8.83203 7.16797 16 16 16h160c8.83203 0 16 -7.16797 16 -16v-16z" />
    <glyph glyph-name="chess-queen-alt" unicode="&#xf446;" horiz-adv-x="256" 
d="M67.3701 256l-44.5 95.7305c-0.393555 0.785156 -0.713867 2.13672 -0.713867 3.01562c0 1.99121 1.3457 4.50098 3.00391 5.60352l10.0801 6.7207c0.925781 0.591797 2.56836 1.07129 3.66699 1.07129c1.99121 0 4.51367 -1.33594 5.63281 -2.98145
c3.30957 -4.47656 10.5146 -8.10938 16.082 -8.10938c0.388672 0 1.01953 0.0214844 1.4082 0.0488281c10.8096 0.730469 18.8096 10.4404 18.8096 21.2607c0.00585938 3.10742 2.53223 5.63379 5.64062 5.63965h16.3291
c0.03125 0.000976562 0.0820312 0.000976562 0.112305 0.000976562c2.36914 0 4.74219 -1.86816 5.29785 -4.1709c1.87598 -8.8457 10.7383 -16.0244 19.7803 -16.0244s17.9043 7.17871 19.7803 16.0244c0.555664 2.30273 2.92871 4.1709 5.29785 4.1709
c0.0302734 0 0.0810547 0 0.112305 -0.000976562h16.3291c3.0918 -0.00585938 5.61816 -2.51855 5.64062 -5.61035c0 -10 6.60938 -19.1895 16.3496 -21c1.04883 -0.204102 2.7666 -0.370117 3.83496 -0.370117c5.54297 0 12.7354 3.60254 16.0557 8.04004
c2.25977 3 6.25 4.08008 9.37988 2l10.0596 -6.70996c1.6582 -1.10254 3.00391 -3.6123 3.00391 -5.60352c0 -0.878906 -0.320312 -2.23047 -0.713867 -3.01562l-44.5 -95.7305h3.37012c8.83203 0 16 -7.16797 16 -16v-16c0 -8.83203 -7.16797 -16 -16 -16h-16v-14
v-0.0449219c0 -36.4111 7.16797 -94.6309 16 -129.955h-128c8.83203 35.3242 16 93.5439 16 129.955v0.0449219v14h-16c-8.83203 0 -16 7.16797 -16 16v16c0 8.83203 7.16797 16 16 16h3.37012zM128 400c-13.248 0 -24 10.752 -24 24s10.752 24 24 24s24 -10.752 24 -24
s-10.752 -24 -24 -24zM247.16 -11.5996c4.87988 -2.44141 8.83984 -8.83203 8.83984 -14.2891v-0.000976562v-22.1104c0 -8.83203 -7.16797 -16 -16 -16h-224c-8.83203 0 -16 7.16797 -16 16v22.1104c0.000976562 5.45898 3.96582 11.8701 8.84961 14.3096l23.1504 11.5801
v16c0 8.83203 7.16797 16 16 16h160c8.83203 0 16 -7.16797 16 -16v-16z" />
    <glyph glyph-name="chess-rook-alt" unicode="&#xf448;" horiz-adv-x="320" 
d="M311.16 -11.5801c4.87988 -2.44141 8.83984 -8.85156 8.83984 -14.3086v-0.000976562v-22.1104c0 -8.83203 -7.16797 -16 -16 -16h-288c-8.83203 0 -16 7.16797 -16 16v22.1104c0.000976562 5.45898 3.96582 11.8701 8.84961 14.3096l23.1504 11.5801v16
c0 8.83203 7.16797 16 16 16h224c8.83203 0 16 -7.16797 16 -16v-16zM71.8096 237.68l-30.5996 31.0303c-5.08398 5.1582 -9.20996 15.2217 -9.20996 22.4639v0.00585938v84.8203c0 4.41602 3.58398 8 8 8h35.1904c4.41602 0 8 -3.58398 8 -8v-40h32.9395v40
c0 4.41602 3.58398 8 8 8h71.75c4.41602 0 8 -3.58398 8 -8v-40h32.9404v40c0 4.41602 3.58398 8 8 8h35.1797c4.41602 0 8 -3.58398 8 -8v-84.7402v-0.00683594c0 -7.23242 -4.11719 -17.2871 -9.19043 -22.4434l-30.6191 -31.1094l14.4795 -173.7h-205.34zM136.41 216.41
v-47.1797h47.1797v47.1797c0 13.0215 -10.5684 23.5898 -23.5898 23.5898s-23.5898 -10.5684 -23.5898 -23.5898z" />
    <glyph glyph-name="mind-share" unicode="&#xf677;" 
d="M410.4 174.9c-58.4004 -8.60059 -109.801 -53.8008 -122.4 -110.9v324c0 33.0996 27 60 60.2002 60c28.2002 0 51.5996 -19.2998 58.2002 -45.2002c0.699219 0 1.39941 0.200195 2.09961 0.200195c33.2002 0 60.2002 -26.9004 60.2002 -60
c0 -4.59961 -0.600586 -9 -1.60059 -13.2002c27.4004 -11.2002 46.7002 -38 46.7002 -69.2998c0 -8.7002 -2 -16.7998 -4.7998 -24.5c-17 -7.5 -29 -24.7998 -29 -44.7998v-15.2002h-51c-5.2998 0 -11.5996 -0.0996094 -18.5996 -1.09961zM195.8 448
c33.2002 0 60.2002 -26.9004 60.2002 -60l0.0996094 -352.5c0 -37.2998 -30.3994 -67.5 -67.7998 -67.5c-29.8994 0 -55 19.4004 -64 46.0996c-3.7002 -0.599609 -7.39941 -1.09961 -11.2998 -1.09961c-37.5 0 -67.7998 30.2002 -67.7998 67.5
c0 4.5 0.5 8.90039 1.2998 13.2002c-27.2998 11.2998 -46.5 38 -46.5 69.2998c0 27.7998 15.4004 51.7998 38 64.7998c-4.7998 9.90039 -7.7998 20.9004 -7.7998 32.7002c0 31.2998 19.2998 58.0996 46.7002 69.2998c-1 4.2998 -1.60059 8.7002 -1.60059 13.2002
c0 33.0996 26.9004 60 60.2002 60c0.700195 0 1.40039 -0.200195 2.09961 -0.200195c6.7002 25.9004 30.1006 45.2002 58.2002 45.2002zM635 108.2c6.7002 -6.60059 6.7002 -17.7998 0.0996094 -24.5l-96 -95.2002c-10.0996 -10 -27 -2.59961 -27 12.2002v47.2002h-64
c-65.8994 0 -69.2998 -68.9004 -60.2998 -95.5c3.7998 -11.2002 -8 -20.9004 -17.7998 -14.4004c-35 23.2998 -56.0996 67 -48.2998 113.7c7.7998 47 46.2998 84.5996 93.3994 91.5c5.80078 0.899414 11.4004 0.799805 17 0.799805h79.9004v47.2002
c0 14.7998 16.9004 22.2002 27 12.2002z" />
    <glyph glyph-name="alarm-exclamation" unicode="&#xf843;" horiz-adv-x="512" 
d="M96 448c20.7861 -0.00195312 49.9961 -11.5068 65.2002 -25.6797l-145.9 -121.58c-8.38281 12.9062 -15.2373 35.8701 -15.2998 51.2598c0 52.9922 43.0078 96 96 96zM416 448c52.9922 0 96 -43.0078 96 -96c-0.0664062 -15.3789 -6.91699 -38.3301 -15.29 -51.2305
l-145.89 121.57c15.2031 14.1602 44.4033 25.6562 65.1797 25.6602zM256 384c123.74 0 224 -100.29 224 -224v-0.103516c0 -41.083 -20.0479 -101.069 -44.75 -133.896l40.0996 -40.0596c2.58789 -2.58691 4.6875 -7.65625 4.6875 -11.3154
s-2.09961 -8.72852 -4.6875 -11.3154l-22.6299 -22.6191c-2.58594 -2.58496 -7.65332 -4.68262 -11.3096 -4.68262c-3.65723 0 -8.72363 2.09766 -11.3105 4.68262l-40.0996 40.0898c-32.8506 -24.7275 -92.8828 -44.7959 -134 -44.7959s-101.149 20.0684 -134 44.7959
l-40.0596 -40.1201c-2.58691 -2.58789 -7.65625 -4.6875 -11.3154 -4.6875s-8.72852 2.09961 -11.3154 4.6875l-22.6191 22.6201c-2.58789 2.58691 -4.68848 7.65625 -4.68848 11.3145c0 3.65918 2.10059 8.72852 4.68848 11.3154l40.0996 40.0898
c-24.7246 32.8379 -44.79 92.8486 -44.79 133.953v0.046875c0 123.71 100.3 224 224 224zM256 32c17.6641 0 32 14.3359 32 32s-14.3359 32 -32 32s-32 -14.3359 -32 -32s14.3359 -32 32 -32zM281.4 142.4l12.7998 128
c0.0439453 0.44043 0.0800781 1.15723 0.0800781 1.59961c0 8.82129 -7.15918 15.9893 -15.9805 16h-44.5996c-8.81738 -0.046875 -15.9746 -7.24219 -15.9746 -16.0596c0 -0.426758 0.0332031 -1.11621 0.0742188 -1.54004l12.7998 -128
c0.797852 -7.93945 7.92188 -14.3906 15.9004 -14.4004h19c7.97852 0.00976562 15.1025 6.46094 15.9004 14.4004z" />
    <glyph glyph-name="alarm-plus" unicode="&#xf844;" horiz-adv-x="512" 
d="M96 448c20.7861 -0.00195312 49.9961 -11.5068 65.2002 -25.6797l-145.9 -121.58c-8.38281 12.9062 -15.2373 35.8701 -15.2998 51.2598c0 52.9922 43.0078 96 96 96zM416 448c52.9922 0 96 -43.0078 96 -96c-0.0664062 -15.3789 -6.91699 -38.3301 -15.29 -51.2305
l-145.89 121.57c15.2031 14.1602 44.4033 25.6562 65.1797 25.6602zM256 384c123.74 0 224 -100.29 224 -224v-0.103516c0 -41.083 -20.0479 -101.069 -44.75 -133.896l40.0996 -40.0596c2.58789 -2.58691 4.6875 -7.65625 4.6875 -11.3154
s-2.09961 -8.72852 -4.6875 -11.3154l-22.6299 -22.6191c-2.58594 -2.58496 -7.65332 -4.68262 -11.3096 -4.68262c-3.65723 0 -8.72363 2.09766 -11.3105 4.68262l-40.0996 40.0898c-32.8506 -24.7275 -92.8828 -44.7959 -134 -44.7959s-101.149 20.0684 -134 44.7959
l-40.0596 -40.1201c-2.58691 -2.58789 -7.65625 -4.6875 -11.3154 -4.6875s-8.72852 2.09961 -11.3154 4.6875l-22.6191 22.6201c-2.58789 2.58691 -4.68848 7.65625 -4.68848 11.3145c0 3.65918 2.10059 8.72852 4.68848 11.3154l40.0996 40.0898
c-24.7246 32.8379 -44.79 92.8486 -44.79 133.953v0.046875c0 123.71 100.3 224 224 224zM368 152v16c0 8.83203 -7.16797 16 -16 16h-72v72c0 8.83203 -7.16797 16 -16 16h-16c-8.83203 0 -16 -7.16797 -16 -16v-72h-72c-8.83203 0 -16 -7.16797 -16 -16v-16
c0 -8.83203 7.16797 -16 16 -16h72v-72c0 -8.83203 7.16797 -16 16 -16h16c8.83203 0 16 7.16797 16 16v72h72c8.83203 0 16 7.16797 16 16z" />
    <glyph glyph-name="alarm-snooze" unicode="&#xf845;" horiz-adv-x="512" 
d="M96 448c20.7861 -0.00195312 49.9961 -11.5068 65.2002 -25.6797l-145.9 -121.58c-8.38281 12.9062 -15.2373 35.8701 -15.2998 51.2598c0 52.9922 43.0078 96 96 96zM416 448c52.9922 0 96 -43.0078 96 -96c-0.0664062 -15.3789 -6.91699 -38.3301 -15.29 -51.2305
l-145.89 121.57c15.2031 14.1602 44.4033 25.6562 65.1797 25.6602zM256 384c123.74 0 224 -100.29 224 -224v-0.103516c0 -41.083 -20.0479 -101.069 -44.75 -133.896l40.0996 -40.0596c2.58789 -2.58691 4.6875 -7.65625 4.6875 -11.3154
s-2.09961 -8.72852 -4.6875 -11.3154l-22.6299 -22.6191c-2.58594 -2.58496 -7.65332 -4.68262 -11.3096 -4.68262c-3.65723 0 -8.72363 2.09766 -11.3105 4.68262l-40.0996 40.0898c-32.8506 -24.7275 -92.8828 -44.7959 -134 -44.7959s-101.149 20.0684 -134 44.7959
l-40.0596 -40.1201c-2.58691 -2.58789 -7.65625 -4.6875 -11.3154 -4.6875s-8.72852 2.09961 -11.3154 4.6875l-22.6191 22.6201c-2.58789 2.58691 -4.68848 7.65625 -4.68848 11.3145c0 3.65918 2.10059 8.72852 4.68848 11.3154l40.0996 40.0898
c-24.7246 32.8379 -44.79 92.8486 -44.79 133.953v0.046875c0 123.71 100.3 224 224 224zM338.7 225c2.90625 3.62988 5.29492 10.3496 5.29492 15c0 13.2451 -10.75 23.9971 -23.9951 24h-128c-8.83203 0 -16 -7.16797 -16 -16v-16c0 -8.83203 7.16797 -16 16 -16h78
l-96.7402 -121c-2.90625 -3.62988 -5.26465 -10.3496 -5.26465 -15c0 -13.248 10.752 -24 24 -24h0.00488281h128c8.83203 0 16 7.16797 16 16v16c0 8.83203 -7.16797 16 -16 16h-78.0996z" />
    <glyph glyph-name="align-slash" unicode="&#xf846;" 
d="M633.82 -10.0996c3.41309 -2.65234 6.18359 -8.3125 6.18359 -12.6357c0 -3.02734 -1.50684 -7.42383 -3.36426 -9.81445l-19.6396 -25.2705c-2.65234 -3.41211 -8.31152 -6.18262 -12.6338 -6.18262c-3.03125 0 -7.43359 1.51172 -9.82617 3.37305l-588.36 454.72
c-3.41016 2.65234 -6.17773 8.31055 -6.17773 12.6309c0 3.02832 1.50879 7.42773 3.36816 9.81934l19.6299 25.2695c2.65234 3.41309 8.31152 6.18262 12.6338 6.18262c3.03125 0 7.43359 -1.51074 9.82617 -3.37207l51.54 -39.7998
c1.87793 6.12109 8.59766 11.1289 15 11.1797h416c8.83203 0 16 -7.16797 16 -16v-32c0 -8.83203 -7.16797 -16 -16 -16h-362.69l82.8105 -64h279.88c8.83203 0 16 -7.16797 16 -16v-32c0 -8.83203 -7.16797 -16 -16 -16h-197.08l82.8105 -64h114.27
c8.83203 0 16 -7.16797 16 -16v-32c0 -8.83203 -7.16797 -16 -16 -16h-31.46zM112 32h258l82.8301 -64h-340.83c-8.83203 0 -16 7.16797 -16 16v32c0 8.83203 7.16797 16 16 16zM112 96c-8.83203 0 -16 7.16797 -16 16v32c0 8.83203 7.16797 16 16 16h92.4102l82.7998 -64
h-175.21z" />
    <glyph glyph-name="bags-shopping" unicode="&#xf847;" horiz-adv-x="576" 
d="M448 224h-256c-17.6641 0 -32 -14.3359 -32 -32v-224h-128c-17.6641 0 -32 14.3359 -32 32v256c0 17.6641 14.3359 32 32 32h96v64c0 52.9922 43.0078 96 96 96s96 -43.0078 96 -96v-64h96c17.6641 0 32 -14.3359 32 -32v-32zM176 352v-64h96v64
c0 26.4961 -21.5039 48 -48 48s-48 -21.5039 -48 -48zM544 192c17.6641 0 32 -14.3359 32 -32v-192c0 -17.6641 -14.3359 -32 -32 -32h-320c-17.6641 0 -32 14.3359 -32 32v192c0 17.6641 14.3359 32 32 32h320zM480 96v24c0 4.41602 -3.58398 8 -8 8h-16
c-4.41602 0 -8 -3.58398 -8 -8v-24c-0.0380859 -35.3291 -28.7412 -64.002 -64.0703 -64.002c-1.74512 0 -4.57227 0.139648 -6.30957 0.311523c-33.25 3.23047 -57.6201 33.1201 -57.6201 66.5303v21.1602c0 4.41602 -3.58398 8 -8 8h-16c-4.41602 0 -8 -3.58398 -8 -8
v-20.6602c0 -48.79 35 -92.3398 83.3701 -98.5303c3.4375 -0.451172 9.04199 -0.817383 12.5098 -0.817383c52.9961 0 96.0586 43.0117 96.1201 96.0078z" />
    <glyph glyph-name="bell-exclamation" unicode="&#xf848;" horiz-adv-x="448" 
d="M224 -64c-35.3281 0 -64 28.6719 -64 64h128c0 -35.3281 -28.6719 -64 -64 -64zM439.39 85.71c4.75293 -4.99316 8.61133 -14.6396 8.61133 -21.5332c0 -0.0488281 -0.000976562 -0.12793 -0.000976562 -0.176758c-0.0996094 -16.4004 -12.9805 -32 -32.0996 -32
h-383.801c-19.0996 0 -31.9893 15.5996 -32.0996 32v0.172852c0 6.89453 3.85742 16.543 8.61035 21.5371c19.3193 20.7598 55.4697 51.9902 55.4697 154.29c0 77.7002 54.4795 139.9 127.9 155.16v20.8398c0 17.6641 14.3359 32 32 32c17.6631 0 32 -14.3359 32 -32
v-20.8398c73.46 -15.2598 127.939 -77.46 127.939 -155.16c0 -102.29 36.1504 -133.53 55.4697 -154.29zM224 96c17.6641 0 32 14.3359 32 32s-14.3359 32 -32 32s-32 -14.3359 -32 -32s14.3359 -32 32 -32zM249.4 206.4l12.7998 96
c0.0439453 0.44043 0.0800781 1.15723 0.0800781 1.59961c0 8.82129 -7.15918 15.9893 -15.9805 16h-44.5996c-8.81738 -0.046875 -15.9746 -7.24219 -15.9746 -16.0596c0 -0.426758 0.0332031 -1.11621 0.0742188 -1.54004l12.7998 -96
c0.797852 -7.93945 7.92188 -14.3906 15.9004 -14.4004h19c7.97852 0.00976562 15.1025 6.46094 15.9004 14.4004z" />
    <glyph glyph-name="bell-plus" unicode="&#xf849;" horiz-adv-x="448" 
d="M224 -64c-35.3281 0 -64 28.6719 -64 64h128c0 -35.3281 -28.6719 -64 -64 -64zM439.39 85.71c4.75293 -4.99316 8.61133 -14.6396 8.61133 -21.5332c0 -0.0488281 -0.000976562 -0.12793 -0.000976562 -0.176758c-0.0996094 -16.4004 -12.9805 -32 -32.0996 -32
h-383.801c-19.0996 0 -31.9893 15.5996 -32.0996 32v0.172852c0 6.89453 3.85742 16.543 8.61035 21.5371c19.3193 20.7598 55.4697 51.9902 55.4697 154.29c0 77.7002 54.4795 139.9 127.9 155.16v20.8398c0 17.6641 14.3359 32 32 32c17.6631 0 32 -14.3359 32 -32
v-20.8398c73.46 -15.2598 127.939 -77.46 127.939 -155.16c0 -102.29 36.1504 -133.53 55.4697 -154.29zM320 200v16c0 8.83203 -7.16797 16 -16 16h-56v56c0 8.83203 -7.16797 16 -16 16h-16c-8.83203 0 -16 -7.16797 -16 -16v-56h-56c-8.83203 0 -16 -7.16797 -16 -16v-16
c0 -8.83203 7.16797 -16 16 -16h56v-56c0 -8.83203 7.16797 -16 16 -16h16c8.83203 0 16 7.16797 16 16v56h56c8.83203 0 16 7.16797 16 16z" />
    <glyph glyph-name="biking-mountain" unicode="&#xf84b;" 
d="M400 352c-26.4961 0 -48 21.5039 -48 48s21.5039 48 48 48s48 -21.5039 48 -48s-21.5039 -48 -48 -48zM172.71 277.84l-40.8301 49.1797c-5.66016 6.80078 -5.03027 16.79 1.33984 22.3408l58.1201 48.7598c31.9004 27.7002 80.6104 22.6494 108.811 -11.2998
c5.64941 -6.79004 5.0293 -16.79 -1.35059 -22.3301l-104.319 -88.9102c-6.38086 -5.5498 -16.1201 -4.54004 -21.7705 2.25977zM240 96c8.83203 0 16 -7.16797 16 -16v-32c0 -8.83203 -7.16797 -16 -16 -16h-5.19043c-1.7959 -6.01172 -5.67578 -15.3701 -8.65918 -20.8896
l3.66992 -3.66992c2.58691 -2.58691 4.6875 -7.65625 4.6875 -11.3154s-2.10059 -8.72852 -4.6875 -11.3154l-22.6299 -22.6299c-2.58691 -2.58691 -7.65625 -4.6875 -11.3154 -4.6875s-8.72852 2.10059 -11.3154 4.6875l-3.66992 3.66992
c-5.51953 -2.98047 -14.8779 -6.85547 -20.8896 -8.64941v-5.2002c0 -8.83203 -7.16797 -16 -16 -16h-32c-8.83203 0 -16 7.16797 -16 16v5.2002c-6.00977 1.79688 -15.3691 5.67188 -20.8896 8.64941l-3.66992 -3.66992
c-2.58691 -2.58691 -7.65625 -4.6875 -11.3154 -4.6875s-8.72852 2.10059 -11.3154 4.6875l-22.6299 22.6299c-2.58691 2.58691 -4.6875 7.65625 -4.6875 11.3154s2.10059 8.72852 4.6875 11.3154l3.66992 3.66992c-2.98145 5.51953 -6.85645 14.8779 -8.64941 20.8896
h-5.2002c-8.83203 0 -16 7.16797 -16 16v32c0 8.83203 7.16797 16 16 16h5.2002c1.79395 6.01172 5.66895 15.3701 8.64941 20.8896l-3.66992 3.66992c-2.58691 2.58691 -4.6875 7.65625 -4.6875 11.3154s2.10059 8.72852 4.6875 11.3154l22.6299 22.6299
c2.58691 2.58691 7.65625 4.6875 11.3154 4.6875s8.72852 -2.10059 11.3154 -4.6875l3.66992 -3.66992c5.51953 2.98145 14.8779 6.85645 20.8896 8.64941v5.2002c0 8.83203 7.16797 16 16 16h32c8.83203 0 16 -7.16797 16 -16v-5.2002
c6.01172 -1.79395 15.3701 -5.66895 20.8896 -8.64941l3.66992 3.66992c2.58691 2.58691 7.65625 4.6875 11.3154 4.6875s8.72852 -2.10059 11.3154 -4.6875l22.6299 -22.6299c2.58691 -2.58691 4.6875 -7.65625 4.6875 -11.3154s-2.10059 -8.72852 -4.6875 -11.3154
l-3.66992 -3.66992c2.98145 -5.51953 6.85645 -14.8779 8.64941 -20.8896h5.2002zM128 0c35.3281 0 64 28.6719 64 64s-28.6719 64 -64 64s-64 -28.6719 -64 -64s28.6719 -64 64 -64zM624 96c8.83203 0 16 -7.16797 16 -16v-32c0 -8.83203 -7.16797 -16 -16 -16h-5.2002
c-1.79102 -6.01074 -5.66211 -15.3701 -8.63965 -20.8896l3.66992 -3.66992c2.58789 -2.58691 4.6875 -7.65625 4.6875 -11.3154s-2.09961 -8.72852 -4.6875 -11.3154l-22.6299 -22.6299c-2.58691 -2.58691 -7.65625 -4.6875 -11.3154 -4.6875
c-3.6582 0 -8.72754 2.10059 -11.3145 4.6875l-3.66992 3.66992c-5.52344 -2.98047 -14.8867 -6.85547 -20.9004 -8.64941v-5.2002c0 -8.83203 -7.16797 -16 -16 -16h-32c-8.83203 0 -16 7.16797 -16 16v5.2002c-6.00977 1.79785 -15.3682 5.67285 -20.8896 8.64941
l-3.66992 -3.66992c-2.58691 -2.58691 -7.65625 -4.6875 -11.3154 -4.6875s-8.72852 2.10059 -11.3154 4.6875l-22.6299 22.6299c-2.58691 2.58691 -4.6875 7.65625 -4.6875 11.3154s2.10059 8.72852 4.6875 11.3154l3.66992 3.66992
c-2.98145 5.51953 -6.85645 14.8779 -8.64941 20.8896h-5.2002c-8.83203 0 -16 7.16797 -16 16v32c0 8.83203 7.16797 16 16 16h5.19043c1.79883 6.01172 5.68359 15.3711 8.66992 20.8896l-3.66992 3.66992c-2.58789 2.58691 -4.68848 7.65625 -4.68848 11.3154
s2.10059 8.72852 4.68848 11.3154l22.6299 22.6299c2.58691 2.58691 7.65625 4.6875 11.3145 4.6875c3.65918 0 8.72852 -2.10059 11.3154 -4.6875l3.66992 -3.66992c5.5166 2.98145 14.8711 6.85645 20.8799 8.64941v5.2002c0 8.83203 7.16797 16 16 16h32
c8.83203 0 16 -7.16797 16 -16v-5.2002c6.01172 -1.79395 15.3701 -5.66895 20.8896 -8.64941l3.66992 3.66992c2.58691 2.58691 7.65625 4.6875 11.3154 4.6875s8.72852 -2.10059 11.3154 -4.6875l22.6299 -22.6299c2.58691 -2.58691 4.6875 -7.65625 4.6875 -11.3154
s-2.10059 -8.72852 -4.6875 -11.3154l-3.66992 -3.66992c2.98145 -5.51953 6.85645 -14.8779 8.64941 -20.8896h5.2002zM512 0c35.3281 0 64 28.6719 64 64s-28.6719 64 -64 64s-64 -28.6719 -64 -64s28.6719 -64 64 -64zM396 231l-41.3604 33.1104l-58.2393 -49.9199
l41.3496 -27.5703c7.86426 -5.24316 14.248 -17.1689 14.25 -26.6201v-128c0 -17.6641 -14.3359 -32 -32 -32s-32 14.3359 -32 32v110.88l-81.7402 54.5205c-7.86328 5.24414 -14.2451 17.1709 -14.2451 26.623c0 8.12402 5.00684 19.0098 11.1758 24.2969l112 96
c4.95508 4.25781 14.2803 7.71289 20.8135 7.71289c6.20215 0 15.1602 -3.15039 19.9961 -7.0332l71.2197 -57h52.7803c17.6641 0 32 -14.3359 32 -32s-14.3359 -32 -32 -32h-64h-0.0253906c-6.18945 0 -15.1387 3.13574 -19.9746 7z" />
    <glyph glyph-name="border-bottom" unicode="&#xf84d;" horiz-adv-x="448" 
d="M208 160c-8.83203 0 -16 7.16797 -16 16v32c0 8.83203 7.16797 16 16 16h32c8.83203 0 16 -7.16797 16 -16v-32c0 -8.83203 -7.16797 -16 -16 -16h-32zM304 160c-8.83203 0 -16 7.16797 -16 16v32c0 8.83203 7.16797 16 16 16h32c8.83203 0 16 -7.16797 16 -16v-32
c0 -8.83203 -7.16797 -16 -16 -16h-32zM432 224c8.83203 0 16 -7.16797 16 -16v-32c0 -8.83203 -7.16797 -16 -16 -16h-32c-8.83203 0 -16 7.16797 -16 16v32c0 8.83203 7.16797 16 16 16h32zM112 160c-8.83203 0 -16 7.16797 -16 16v32c0 8.83203 7.16797 16 16 16h32
c8.83203 0 16 -7.16797 16 -16v-32c0 -8.83203 -7.16797 -16 -16 -16h-32zM432 128c8.83203 0 16 -7.16797 16 -16v-32c0 -8.83203 -7.16797 -16 -16 -16h-32c-8.83203 0 -16 7.16797 -16 16v32c0 8.83203 7.16797 16 16 16h32zM432 320c8.83203 0 16 -7.16797 16 -16v-32
c0 -8.83203 -7.16797 -16 -16 -16h-32c-8.83203 0 -16 7.16797 -16 16v32c0 8.83203 7.16797 16 16 16h32zM208 64c-8.83203 0 -16 7.16797 -16 16v32c0 8.83203 7.16797 16 16 16h32c8.83203 0 16 -7.16797 16 -16v-32c0 -8.83203 -7.16797 -16 -16 -16h-32zM208 256
c-8.83203 0 -16 7.16797 -16 16v32c0 8.83203 7.16797 16 16 16h32c8.83203 0 16 -7.16797 16 -16v-32c0 -8.83203 -7.16797 -16 -16 -16h-32zM208 352c-8.83203 0 -16 7.16797 -16 16v32c0 8.83203 7.16797 16 16 16h32c8.83203 0 16 -7.16797 16 -16v-32
c0 -8.83203 -7.16797 -16 -16 -16h-32zM304 352c-8.83203 0 -16 7.16797 -16 16v32c0 8.83203 7.16797 16 16 16h32c8.83203 0 16 -7.16797 16 -16v-32c0 -8.83203 -7.16797 -16 -16 -16h-32zM432 416c8.83203 0 16 -7.16797 16 -16v-32c0 -8.83203 -7.16797 -16 -16 -16
h-32c-8.83203 0 -16 7.16797 -16 16v32c0 8.83203 7.16797 16 16 16h32zM16 160c-8.83203 0 -16 7.16797 -16 16v32c0 8.83203 7.16797 16 16 16h32c8.83203 0 16 -7.16797 16 -16v-32c0 -8.83203 -7.16797 -16 -16 -16h-32zM16 64c-8.83203 0 -16 7.16797 -16 16v32
c0 8.83203 7.16797 16 16 16h32c8.83203 0 16 -7.16797 16 -16v-32c0 -8.83203 -7.16797 -16 -16 -16h-32zM16 256c-8.83203 0 -16 7.16797 -16 16v32c0 8.83203 7.16797 16 16 16h32c8.83203 0 16 -7.16797 16 -16v-32c0 -8.83203 -7.16797 -16 -16 -16h-32zM16 352
c-8.83203 0 -16 7.16797 -16 16v32c0 8.83203 7.16797 16 16 16h32c8.83203 0 16 -7.16797 16 -16v-32c0 -8.83203 -7.16797 -16 -16 -16h-32zM112 352c-8.83203 0 -16 7.16797 -16 16v32c0 8.83203 7.16797 16 16 16h32c8.83203 0 16 -7.16797 16 -16v-32
c0 -8.83203 -7.16797 -16 -16 -16h-32zM432 32c8.83203 0 16 -7.16797 16 -16v-32c0 -8.83203 -7.16797 -16 -16 -16h-416c-8.83203 0 -16 7.16797 -16 16v32c0 8.83203 7.16797 16 16 16h416z" />
    <glyph glyph-name="border-inner" unicode="&#xf84e;" horiz-adv-x="448" 
d="M48 32c8.83203 0 16 -7.16797 16 -16v-32c0 -8.83203 -7.16797 -16 -16 -16h-32c-8.83203 0 -16 7.16797 -16 16v32c0 8.83203 7.16797 16 16 16h32zM16 256c-8.83203 0 -16 7.16797 -16 16v32c0 8.83203 7.16797 16 16 16h32c8.83203 0 16 -7.16797 16 -16v-32
c0 -8.83203 -7.16797 -16 -16 -16h-32zM304 352c-8.83203 0 -16 7.16797 -16 16v32c0 8.83203 7.16797 16 16 16h32c8.83203 0 16 -7.16797 16 -16v-32c0 -8.83203 -7.16797 -16 -16 -16h-32zM48 128c8.83203 0 16 -7.16797 16 -16v-32c0 -8.83203 -7.16797 -16 -16 -16h-32
c-8.83203 0 -16 7.16797 -16 16v32c0 8.83203 7.16797 16 16 16h32zM112 352c-8.83203 0 -16 7.16797 -16 16v32c0 8.83203 7.16797 16 16 16h32c8.83203 0 16 -7.16797 16 -16v-32c0 -8.83203 -7.16797 -16 -16 -16h-32zM16 352c-8.83203 0 -16 7.16797 -16 16v32
c0 8.83203 7.16797 16 16 16h32c8.83203 0 16 -7.16797 16 -16v-32c0 -8.83203 -7.16797 -16 -16 -16h-32zM336 32c8.83203 0 16 -7.16797 16 -16v-32c0 -8.83203 -7.16797 -16 -16 -16h-32c-8.83203 0 -16 7.16797 -16 16v32c0 8.83203 7.16797 16 16 16h32zM432 320
c8.83203 0 16 -7.16797 16 -16v-32c0 -8.83203 -7.16797 -16 -16 -16h-32c-8.83203 0 -16 7.16797 -16 16v32c0 8.83203 7.16797 16 16 16h32zM432 416c8.83203 0 16 -7.16797 16 -16v-32c0 -8.83203 -7.16797 -16 -16 -16h-32c-8.83203 0 -16 7.16797 -16 16v32
c0 8.83203 7.16797 16 16 16h32zM432 224c8.83203 0 16 -7.16797 16 -16v-32c0 -8.83203 -7.16797 -16 -16 -16h-176v-176c0 -8.83203 -7.16797 -16 -16 -16h-32c-8.83203 0 -16 7.16797 -16 16v176h-176c-8.83203 0 -16 7.16797 -16 16v32c0 8.83203 7.16797 16 16 16h176
v176c0 8.83203 7.16797 16 16 16h32c8.83203 0 16 -7.16797 16 -16v-176h176zM144 32c8.83203 0 16 -7.16797 16 -16v-32c0 -8.83203 -7.16797 -16 -16 -16h-32c-8.83203 0 -16 7.16797 -16 16v32c0 8.83203 7.16797 16 16 16h32zM432 128c8.83203 0 16 -7.16797 16 -16v-32
c0 -8.83203 -7.16797 -16 -16 -16h-32c-8.83203 0 -16 7.16797 -16 16v32c0 8.83203 7.16797 16 16 16h32zM432 32c8.83203 0 16 -7.16797 16 -16v-32c0 -8.83203 -7.16797 -16 -16 -16h-32c-8.83203 0 -16 7.16797 -16 16v32c0 8.83203 7.16797 16 16 16h32z" />
    <glyph glyph-name="border-left" unicode="&#xf84f;" horiz-adv-x="448" 
d="M240 224c8.83203 0 16 -7.16797 16 -16v-32c0 -8.83203 -7.16797 -16 -16 -16h-32c-8.83203 0 -16 7.16797 -16 16v32c0 8.83203 7.16797 16 16 16h32zM336 224c8.83203 0 16 -7.16797 16 -16v-32c0 -8.83203 -7.16797 -16 -16 -16h-32c-8.83203 0 -16 7.16797 -16 16v32
c0 8.83203 7.16797 16 16 16h32zM432 224c8.83203 0 16 -7.16797 16 -16v-32c0 -8.83203 -7.16797 -16 -16 -16h-32c-8.83203 0 -16 7.16797 -16 16v32c0 8.83203 7.16797 16 16 16h32zM144 224c8.83203 0 16 -7.16797 16 -16v-32c0 -8.83203 -7.16797 -16 -16 -16h-32
c-8.83203 0 -16 7.16797 -16 16v32c0 8.83203 7.16797 16 16 16h32zM240 32c8.83203 0 16 -7.16797 16 -16v-32c0 -8.83203 -7.16797 -16 -16 -16h-32c-8.83203 0 -16 7.16797 -16 16v32c0 8.83203 7.16797 16 16 16h32zM336 32c8.83203 0 16 -7.16797 16 -16v-32
c0 -8.83203 -7.16797 -16 -16 -16h-32c-8.83203 0 -16 7.16797 -16 16v32c0 8.83203 7.16797 16 16 16h32zM432 32c8.83203 0 16 -7.16797 16 -16v-32c0 -8.83203 -7.16797 -16 -16 -16h-32c-8.83203 0 -16 7.16797 -16 16v32c0 8.83203 7.16797 16 16 16h32zM432 128
c8.83203 0 16 -7.16797 16 -16v-32c0 -8.83203 -7.16797 -16 -16 -16h-32c-8.83203 0 -16 7.16797 -16 16v32c0 8.83203 7.16797 16 16 16h32zM432 320c8.83203 0 16 -7.16797 16 -16v-32c0 -8.83203 -7.16797 -16 -16 -16h-32c-8.83203 0 -16 7.16797 -16 16v32
c0 8.83203 7.16797 16 16 16h32zM240 128c8.83203 0 16 -7.16797 16 -16v-32c0 -8.83203 -7.16797 -16 -16 -16h-32c-8.83203 0 -16 7.16797 -16 16v32c0 8.83203 7.16797 16 16 16h32zM240 320c8.83203 0 16 -7.16797 16 -16v-32c0 -8.83203 -7.16797 -16 -16 -16h-32
c-8.83203 0 -16 7.16797 -16 16v32c0 8.83203 7.16797 16 16 16h32zM144 32c8.83203 0 16 -7.16797 16 -16v-32c0 -8.83203 -7.16797 -16 -16 -16h-32c-8.83203 0 -16 7.16797 -16 16v32c0 8.83203 7.16797 16 16 16h32zM240 416c8.83203 0 16 -7.16797 16 -16v-32
c0 -8.83203 -7.16797 -16 -16 -16h-32c-8.83203 0 -16 7.16797 -16 16v32c0 8.83203 7.16797 16 16 16h32zM336 416c8.83203 0 16 -7.16797 16 -16v-32c0 -8.83203 -7.16797 -16 -16 -16h-32c-8.83203 0 -16 7.16797 -16 16v32c0 8.83203 7.16797 16 16 16h32zM432 416
c8.83203 0 16 -7.16797 16 -16v-32c0 -8.83203 -7.16797 -16 -16 -16h-32c-8.83203 0 -16 7.16797 -16 16v32c0 8.83203 7.16797 16 16 16h32zM144 416c8.83203 0 16 -7.16797 16 -16v-32c0 -8.83203 -7.16797 -16 -16 -16h-32c-8.83203 0 -16 7.16797 -16 16v32
c0 8.83203 7.16797 16 16 16h32zM48 416c8.83203 0 16 -7.16797 16 -16v-416c0 -8.83203 -7.16797 -16 -16 -16h-32c-8.83203 0 -16 7.16797 -16 16v416c0 8.83203 7.16797 16 16 16h32z" />
    <glyph glyph-name="border-outer" unicode="&#xf851;" horiz-adv-x="448" 
d="M208 160c-8.83203 0 -16 7.16797 -16 16v32c0 8.83203 7.16797 16 16 16h32c8.83203 0 16 -7.16797 16 -16v-32c0 -8.83203 -7.16797 -16 -16 -16h-32zM304 160c-8.83203 0 -16 7.16797 -16 16v32c0 8.83203 7.16797 16 16 16h32c8.83203 0 16 -7.16797 16 -16v-32
c0 -8.83203 -7.16797 -16 -16 -16h-32zM112 160c-8.83203 0 -16 7.16797 -16 16v32c0 8.83203 7.16797 16 16 16h32c8.83203 0 16 -7.16797 16 -16v-32c0 -8.83203 -7.16797 -16 -16 -16h-32zM208 64c-8.83203 0 -16 7.16797 -16 16v32c0 8.83203 7.16797 16 16 16h32
c8.83203 0 16 -7.16797 16 -16v-32c0 -8.83203 -7.16797 -16 -16 -16h-32zM208 256c-8.83203 0 -16 7.16797 -16 16v32c0 8.83203 7.16797 16 16 16h32c8.83203 0 16 -7.16797 16 -16v-32c0 -8.83203 -7.16797 -16 -16 -16h-32zM416 416c17.6641 0 32 -14.3359 32 -32v-384
c0 -17.6641 -14.3359 -32 -32 -32h-384c-17.6641 0 -32 14.3359 -32 32v384c0 17.6641 14.3359 32 32 32h384zM384 32v320h-320v-320h320z" />
    <glyph glyph-name="border-right" unicode="&#xf852;" horiz-adv-x="448" 
d="M240 224c8.83203 0 16 -7.16797 16 -16v-32c0 -8.83203 -7.16797 -16 -16 -16h-32c-8.83203 0 -16 7.16797 -16 16v32c0 8.83203 7.16797 16 16 16h32zM336 224c8.83203 0 16 -7.16797 16 -16v-32c0 -8.83203 -7.16797 -16 -16 -16h-32c-8.83203 0 -16 7.16797 -16 16v32
c0 8.83203 7.16797 16 16 16h32zM144 224c8.83203 0 16 -7.16797 16 -16v-32c0 -8.83203 -7.16797 -16 -16 -16h-32c-8.83203 0 -16 7.16797 -16 16v32c0 8.83203 7.16797 16 16 16h32zM240 32c8.83203 0 16 -7.16797 16 -16v-32c0 -8.83203 -7.16797 -16 -16 -16h-32
c-8.83203 0 -16 7.16797 -16 16v32c0 8.83203 7.16797 16 16 16h32zM336 32c8.83203 0 16 -7.16797 16 -16v-32c0 -8.83203 -7.16797 -16 -16 -16h-32c-8.83203 0 -16 7.16797 -16 16v32c0 8.83203 7.16797 16 16 16h32zM240 128c8.83203 0 16 -7.16797 16 -16v-32
c0 -8.83203 -7.16797 -16 -16 -16h-32c-8.83203 0 -16 7.16797 -16 16v32c0 8.83203 7.16797 16 16 16h32zM240 320c8.83203 0 16 -7.16797 16 -16v-32c0 -8.83203 -7.16797 -16 -16 -16h-32c-8.83203 0 -16 7.16797 -16 16v32c0 8.83203 7.16797 16 16 16h32zM144 32
c8.83203 0 16 -7.16797 16 -16v-32c0 -8.83203 -7.16797 -16 -16 -16h-32c-8.83203 0 -16 7.16797 -16 16v32c0 8.83203 7.16797 16 16 16h32zM240 416c8.83203 0 16 -7.16797 16 -16v-32c0 -8.83203 -7.16797 -16 -16 -16h-32c-8.83203 0 -16 7.16797 -16 16v32
c0 8.83203 7.16797 16 16 16h32zM336 416c8.83203 0 16 -7.16797 16 -16v-32c0 -8.83203 -7.16797 -16 -16 -16h-32c-8.83203 0 -16 7.16797 -16 16v32c0 8.83203 7.16797 16 16 16h32zM48 224c8.83203 0 16 -7.16797 16 -16v-32c0 -8.83203 -7.16797 -16 -16 -16h-32
c-8.83203 0 -16 7.16797 -16 16v32c0 8.83203 7.16797 16 16 16h32zM48 32c8.83203 0 16 -7.16797 16 -16v-32c0 -8.83203 -7.16797 -16 -16 -16h-32c-8.83203 0 -16 7.16797 -16 16v32c0 8.83203 7.16797 16 16 16h32zM48 128c8.83203 0 16 -7.16797 16 -16v-32
c0 -8.83203 -7.16797 -16 -16 -16h-32c-8.83203 0 -16 7.16797 -16 16v32c0 8.83203 7.16797 16 16 16h32zM48 320c8.83203 0 16 -7.16797 16 -16v-32c0 -8.83203 -7.16797 -16 -16 -16h-32c-8.83203 0 -16 7.16797 -16 16v32c0 8.83203 7.16797 16 16 16h32zM48 416
c8.83203 0 16 -7.16797 16 -16v-32c0 -8.83203 -7.16797 -16 -16 -16h-32c-8.83203 0 -16 7.16797 -16 16v32c0 8.83203 7.16797 16 16 16h32zM144 416c8.83203 0 16 -7.16797 16 -16v-32c0 -8.83203 -7.16797 -16 -16 -16h-32c-8.83203 0 -16 7.16797 -16 16v32
c0 8.83203 7.16797 16 16 16h32zM432 416c8.83203 0 16 -7.16797 16 -16v-416c0 -8.83203 -7.16797 -16 -16 -16h-32c-8.83203 0 -16 7.16797 -16 16v416c0 8.83203 7.16797 16 16 16h32z" />
    <glyph glyph-name="border-style-alt" unicode="&#xf854;" horiz-adv-x="448" 
d="M208 352c-8.83203 0 -16 7.16797 -16 16v32c0 8.83203 7.16797 16 16 16h32c8.83203 0 16 -7.16797 16 -16v-32c0 -8.83203 -7.16797 -16 -16 -16h-32zM304 352c-8.83203 0 -16 7.16797 -16 16v32c0 8.83203 7.16797 16 16 16h32c8.83203 0 16 -7.16797 16 -16v-32
c0 -8.83203 -7.16797 -16 -16 -16h-32zM112 352c-8.83203 0 -16 7.16797 -16 16v32c0 8.83203 7.16797 16 16 16h32c8.83203 0 16 -7.16797 16 -16v-32c0 -8.83203 -7.16797 -16 -16 -16h-32zM16 160c-8.83203 0 -16 7.16797 -16 16v32c0 8.83203 7.16797 16 16 16h32
c8.83203 0 16 -7.16797 16 -16v-32c0 -8.83203 -7.16797 -16 -16 -16h-32zM16 256c-8.83203 0 -16 7.16797 -16 16v32c0 8.83203 7.16797 16 16 16h32c8.83203 0 16 -7.16797 16 -16v-32c0 -8.83203 -7.16797 -16 -16 -16h-32zM16 352c-8.83203 0 -16 7.16797 -16 16v32
c0 8.83203 7.16797 16 16 16h32c8.83203 0 16 -7.16797 16 -16v-32c0 -8.83203 -7.16797 -16 -16 -16h-32zM16 64c-8.83203 0 -16 7.16797 -16 16v32c0 8.83203 7.16797 16 16 16h32c8.83203 0 16 -7.16797 16 -16v-32c0 -8.83203 -7.16797 -16 -16 -16h-32zM432 416
c8.83203 0 16 -7.16797 16 -16v-400c0 -17.6641 -14.3359 -32 -32 -32h-400c-8.83203 0 -16 7.16797 -16 16v32c0 8.83203 7.16797 16 16 16h368v368c0 8.83203 7.16797 16 16 16h32z" />
    <glyph glyph-name="border-top" unicode="&#xf855;" horiz-adv-x="448" 
d="M240 224c8.83203 0 16 -7.16797 16 -16v-32c0 -8.83203 -7.16797 -16 -16 -16h-32c-8.83203 0 -16 7.16797 -16 16v32c0 8.83203 7.16797 16 16 16h32zM336 224c8.83203 0 16 -7.16797 16 -16v-32c0 -8.83203 -7.16797 -16 -16 -16h-32c-8.83203 0 -16 7.16797 -16 16v32
c0 8.83203 7.16797 16 16 16h32zM432 224c8.83203 0 16 -7.16797 16 -16v-32c0 -8.83203 -7.16797 -16 -16 -16h-32c-8.83203 0 -16 7.16797 -16 16v32c0 8.83203 7.16797 16 16 16h32zM144 224c8.83203 0 16 -7.16797 16 -16v-32c0 -8.83203 -7.16797 -16 -16 -16h-32
c-8.83203 0 -16 7.16797 -16 16v32c0 8.83203 7.16797 16 16 16h32zM240 32c8.83203 0 16 -7.16797 16 -16v-32c0 -8.83203 -7.16797 -16 -16 -16h-32c-8.83203 0 -16 7.16797 -16 16v32c0 8.83203 7.16797 16 16 16h32zM336 32c8.83203 0 16 -7.16797 16 -16v-32
c0 -8.83203 -7.16797 -16 -16 -16h-32c-8.83203 0 -16 7.16797 -16 16v32c0 8.83203 7.16797 16 16 16h32zM432 32c8.83203 0 16 -7.16797 16 -16v-32c0 -8.83203 -7.16797 -16 -16 -16h-32c-8.83203 0 -16 7.16797 -16 16v32c0 8.83203 7.16797 16 16 16h32zM432 128
c8.83203 0 16 -7.16797 16 -16v-32c0 -8.83203 -7.16797 -16 -16 -16h-32c-8.83203 0 -16 7.16797 -16 16v32c0 8.83203 7.16797 16 16 16h32zM432 320c8.83203 0 16 -7.16797 16 -16v-32c0 -8.83203 -7.16797 -16 -16 -16h-32c-8.83203 0 -16 7.16797 -16 16v32
c0 8.83203 7.16797 16 16 16h32zM240 128c8.83203 0 16 -7.16797 16 -16v-32c0 -8.83203 -7.16797 -16 -16 -16h-32c-8.83203 0 -16 7.16797 -16 16v32c0 8.83203 7.16797 16 16 16h32zM240 320c8.83203 0 16 -7.16797 16 -16v-32c0 -8.83203 -7.16797 -16 -16 -16h-32
c-8.83203 0 -16 7.16797 -16 16v32c0 8.83203 7.16797 16 16 16h32zM144 32c8.83203 0 16 -7.16797 16 -16v-32c0 -8.83203 -7.16797 -16 -16 -16h-32c-8.83203 0 -16 7.16797 -16 16v32c0 8.83203 7.16797 16 16 16h32zM48 224c8.83203 0 16 -7.16797 16 -16v-32
c0 -8.83203 -7.16797 -16 -16 -16h-32c-8.83203 0 -16 7.16797 -16 16v32c0 8.83203 7.16797 16 16 16h32zM48 32c8.83203 0 16 -7.16797 16 -16v-32c0 -8.83203 -7.16797 -16 -16 -16h-32c-8.83203 0 -16 7.16797 -16 16v32c0 8.83203 7.16797 16 16 16h32zM48 128
c8.83203 0 16 -7.16797 16 -16v-32c0 -8.83203 -7.16797 -16 -16 -16h-32c-8.83203 0 -16 7.16797 -16 16v32c0 8.83203 7.16797 16 16 16h32zM48 320c8.83203 0 16 -7.16797 16 -16v-32c0 -8.83203 -7.16797 -16 -16 -16h-32c-8.83203 0 -16 7.16797 -16 16v32
c0 8.83203 7.16797 16 16 16h32zM432 416c8.83203 0 16 -7.16797 16 -16v-32c0 -8.83203 -7.16797 -16 -16 -16h-416c-8.83203 0 -16 7.16797 -16 16v32c0 8.83203 7.16797 16 16 16h416z" />
    <glyph glyph-name="bring-forward" unicode="&#xf856;" horiz-adv-x="512" 
d="M352 144c0 -26.4961 -21.5039 -48 -48 -48h-256c-26.4961 0 -48 21.5039 -48 48v256c0 26.4961 21.5039 48 48 48h256c26.4961 0 48 -21.5039 48 -48v-256zM464 288c26.4961 0 48 -21.5039 48 -48v-256c0 -26.4961 -21.5039 -48 -48 -48h-256
c-26.4961 0 -48 21.5039 -48 48v80h64v-64h224v224h-64v64h80z" />
    <glyph glyph-name="bring-front" unicode="&#xf857;" 
d="M480 80c0 -26.4961 -21.5039 -48 -48 -48h-224c-26.4961 0 -48 21.5039 -48 48v224c0 26.4961 21.5039 48 48 48h224c26.4961 0 48 -21.5039 48 -48v-224zM64 384v-128h64v-64h-96c-17.6641 0 -32 14.3359 -32 32v192c0 17.6641 14.3359 32 32 32h192
c17.6641 0 32 -14.3359 32 -32v-32h-192zM608 192c17.6641 0 32 -14.3359 32 -32v-192c0 -17.6641 -14.3359 -32 -32 -32h-192c-17.6641 0 -32 14.3359 -32 32v32h192v128h-64v64h96z" />
    <glyph glyph-name="burger-soda" unicode="&#xf858;" 
d="M352 272c0 -8.83203 -7.16797 -16 -16 -16h-320c-8.83203 0 -16 7.16797 -16 16v32c0 8.83203 7.16797 16 16 16h141.26l24.4307 97.7002c4.18066 16.7256 21.5654 30.2998 38.8057 30.2998h0.00390625h51.5c8.83203 0 16 -7.16797 16 -16v-16
c0 -8.83203 -7.16797 -16 -16 -16h-45.2598l-20 -80h129.26c8.83203 0 16 -7.16797 16 -16v-32zM263.55 129.78c2.98047 -5.63965 9.26562 -13.6592 14.0303 -17.9004c-11.9082 -10.5303 -21.5723 -31.9785 -21.5723 -47.874c0 -13.8135 7.6123 -33.2549 16.9922 -43.3955
c-9.38281 -7.92676 -16.999 -24.3281 -17 -36.6104v-0.0820312c0 -13.4521 6.11523 -33.4141 13.6504 -44.5576c-3.55566 -1.78711 -9.6709 -3.29297 -13.6504 -3.36035h-160h-0.143555c-16.4385 0 -30.6875 13.3096 -31.8066 29.71l-25.7803 258.29h253.11
c-9.01953 -8.54004 -17.3701 -17.5303 -24.0898 -27.4004c-6.22656 -9.11328 -11.2803 -25.4678 -11.2803 -36.5049c0 -8.88477 3.37793 -22.4658 7.54004 -30.3145zM624 0c8.83203 0 16 -7.16797 16 -16c0 -26.4961 -21.5039 -48 -48 -48h-256
c-26.4961 0 -48 21.5039 -48 48c0 8.83203 7.16797 16 16 16h320zM608 96c17.6641 0 32 -14.3359 32 -32s-14.3359 -32 -32 -32h-288c-17.6641 0 -32 14.3359 -32 32s14.3359 32 32 32h288zM293.74 178.59c29.4697 43.2803 94.3193 77.4805 170.26 77.4102
s140.8 -34.1299 170.26 -77.4102c14.4707 -21.3203 -0.179688 -50.5898 -25.5293 -50.5898h-289.45c-25.3506 0 -40.0703 29.2695 -25.54 50.5898zM544 208c-8.83203 0 -16 -7.16797 -16 -16s7.16797 -16 16 -16s16 7.16797 16 16s-7.16797 16 -16 16zM464 224
c-8.83203 0 -16 -7.16797 -16 -16s7.16797 -16 16 -16s16 7.16797 16 16s-7.16797 16 -16 16zM384 208c-8.83203 0 -16 -7.16797 -16 -16s7.16797 -16 16 -16s16 7.16797 16 16s-7.16797 16 -16 16z" />
    <glyph glyph-name="car-building" unicode="&#xf859;" 
d="M213.52 -7.07031v-28.2393c0.0556641 -8.45117 3.43359 -21.3047 7.54004 -28.6904h-205.06c-8.83203 0 -16 7.16797 -16 16v464c0 17.6641 14.3359 32 32 32h288c17.6641 0 32 -14.3359 32 -32v-130.18c-28.3604 -4.93945 -65.3516 -27.6709 -82.5703 -50.7402
c-1.91602 2.67285 -6.14062 4.87695 -9.42969 4.91992h-40c-6.62402 0 -12 -5.37598 -12 -12v-40c0 -6.62402 5.37598 -12 12 -12h21.6396l-7.5498 -20.71c-23.2334 -14.4326 -42.0898 -48.3438 -42.0898 -75.6953v-0.144531v-28.6904v-0.0195312
c0 -18.166 9.64062 -44.0654 21.5195 -57.8105zM208 356v-40c0 -6.62402 5.37598 -12 12 -12h40c6.62402 0 12 5.37598 12 12v40c0 6.62402 -5.37598 12 -12 12h-40c-6.62402 0 -12 -5.37598 -12 -12zM144 60v40c0 6.62402 -5.37598 12 -12 12h-40
c-6.62402 0 -12 -5.37598 -12 -12v-40c0 -6.62402 5.37598 -12 12 -12h40c6.62402 0 12 5.37598 12 12zM144 188v40c0 6.62402 -5.37598 12 -12 12h-40c-6.62402 0 -12 -5.37598 -12 -12v-40c0 -6.62402 5.37598 -12 12 -12h40c6.62402 0 12 5.37598 12 12zM144 316v40
c0 6.62402 -5.37598 12 -12 12h-40c-6.62402 0 -12 -5.37598 -12 -12v-40c0 -6.62402 5.37598 -12 12 -12h40c6.62402 0 12 5.37598 12 12zM604.58 132.44c19.541 -8.09766 35.4092 -31.8379 35.4199 -52.9902v-28.6904
c-0.0400391 -15.126 -9.68164 -35.0439 -21.5195 -44.46v-41.6094c-0.00585938 -15.832 -12.8594 -28.6846 -28.6904 -28.6904h-28.6904c-15.8311 0.00585938 -28.6846 12.8584 -28.6895 28.6904v35.3096h-200.83v-35.3096v0c0 -15.832 -12.8486 -28.6846 -28.6797 -28.6904
h-28.6904c-15.8203 0.0166016 -28.6602 12.8701 -28.6602 28.6904v0v41.6094c-11.8389 9.41602 -21.4795 29.334 -21.5195 44.46v28.6904c0.0117188 21.1533 15.8799 44.8975 35.4199 53l4.5498 11.3496l17.8301 49.0801c13.8076 34.8428 55.4316 63.1211 92.9102 63.1211
c0.0908203 0 0.239258 -0.000976562 0.330078 -0.000976562h113.859h0.303711c37.4766 0 79.0947 -28.2773 92.8965 -63.1201l17.8701 -49.0801zM335.11 164l-12.1104 -36h218l-12.0703 36c-6.58008 16.9004 -22.3994 28 -40 28h-113.819
c-17.6406 0 -33.4707 -11.0801 -40 -28zM300 40.1504c14.4004 0 36 -2.40039 36 11.96c0 14.3594 -21.5996 35.8896 -36 35.8896s-24 -9.55957 -24 -23.9199s9.59961 -23.9297 24 -23.9297zM564 40.1504c14.4004 0 24 9.58008 24 23.9297s-9.59961 23.9199 -24 23.9199
s-36 -21.46 -36 -35.8496c0 -14.3906 21.5996 -12 36 -12z" />
    <glyph glyph-name="car-bus" unicode="&#xf85a;" 
d="M604.58 132.44c19.541 -8.09766 35.4092 -31.8379 35.4199 -52.9902v-28.6904c-0.0400391 -15.126 -9.68164 -35.0439 -21.5195 -44.46v-38.2998c0 -17.6641 -14.3369 -32 -32 -32h-22.0703c-17.6641 0 -32 14.3359 -32 32v32h-200.79v-32
c0 -17.6641 -14.3359 -32 -32 -32h-22.0703c-17.6641 0 -32 14.3359 -32 32v38.29c-11.8389 9.41504 -21.4795 29.334 -21.5195 44.46v28.6904c0.00683594 21.1562 15.875 44.9004 35.4199 53l4.5498 11.3594l17.8398 49.0801
c13.8027 34.8428 55.4199 63.1211 92.8965 63.1211c0.0927734 0 0.241211 -0.000976562 0.333984 -0.000976562h113.859h0.303711c37.4766 0 79.0947 -28.2773 92.8965 -63.1201l17.8701 -49.0801zM335.11 164l-12.1104 -36h218l-12.0703 36
c-6.58008 16.9004 -22.3994 28 -40 28h-113.819c-17.6406 0 -33.4707 -11.0801 -40 -28zM300 40.1504c14.4004 0 36 -2.40039 36 11.96c0 14.3594 -21.5996 35.8896 -36 35.8896s-24 -9.58008 -24 -23.9297c0 -14.3506 9.59961 -23.9199 24 -23.9199zM564 40.1504
c14.4004 0 24 9.55957 24 23.9199c0 14.3594 -9.59961 23.9297 -24 23.9297s-36 -21.46 -36 -35.8496c0 -14.3906 21.5996 -12 36 -12zM252.12 204.77l-17.9502 -49.4795c-21.2695 -13.21 -35.3701 -34.7998 -40 -59.29h-67v-32c0 -17.6641 -14.3359 -32 -32 -32h-23.1699
c-17.6641 0 -32 14.3359 -32 32v32h-10.6699c-16.1904 0 -29.3301 13.1396 -29.3301 29.3301v259.81c0 35.2002 77.9404 62.8604 176 62.8604s176 -27.6602 176 -62.8604v-99.3193c-20.0303 -3.47852 -48.7031 -17.1689 -64 -30.5605v98.0703
c0 8.09766 -6.57227 14.6699 -14.6699 14.6699v0h-81.3301v-144h69.7695c-3.08887 -5.09375 -7.41211 -13.709 -9.64941 -19.2305zM80 136c13.248 0 24 10.752 24 24s-10.752 24 -24 24s-24 -10.752 -24 -24s10.752 -24 24 -24zM160 224v144h-81.3301
c-8.09766 0 -14.6699 -6.57227 -14.6699 -14.6699v-114.66c0 -8.09766 6.57227 -14.6699 14.6699 -14.6699h81.3301z" />
    <glyph glyph-name="cars" unicode="&#xf85b;" 
d="M252.13 204.77l-4.66016 -12.7695h-139.88v-32c0 -17.6641 -14.3359 -32 -32 -32h-22.0703c-17.6631 0 -32 14.3359 -32 32v38.2998c-11.8379 9.41602 -21.4795 29.334 -21.5195 44.46v28.6904c0.0146484 21.1602 15.8965 44.9004 35.4502 52.9902l4.5498 11.3594
l17.8398 49.0801c13.8027 34.8428 55.4199 63.1211 92.8965 63.1211c0.0927734 0 0.241211 -0.000976562 0.333984 -0.000976562h113.859c0.0927734 0 0.241211 0.000976562 0.333984 0.000976562c37.4766 0 79.0938 -28.2783 92.8965 -63.1211l17.8398 -49.0801
l4.58008 -11.3594c13.8291 -5.77051 28.5684 -22.0957 32.9004 -36.4404h-38.4102c-0.120117 0 -0.31543 0.000976562 -0.436523 0.000976562c-49.418 0 -104.3 -37.2881 -122.504 -83.2314zM111.11 356l-12.1104 -36h218l-12.0703 36c-6.58008 16.9004 -22.3994 28 -40 28
h-113.819c-17.6406 0 -33.4707 -11.0801 -40 -28zM76 232.15c14.4004 0 36 -2.40039 36 11.96c0 14.3594 -21.5996 35.8896 -36 35.8896s-24 -9.58008 -24 -23.9297c0 -14.3506 9.59961 -23.9199 24 -23.9199zM604.58 132.44
c19.541 -8.09766 35.4092 -31.8379 35.4199 -52.9902v-28.6904c-0.0400391 -15.126 -9.68164 -35.0439 -21.5195 -44.46v-38.2998c0 -17.6641 -14.3369 -32 -32 -32h-22.0703c-17.6641 0 -32 14.3359 -32 32v32h-200.79v-32c0 -17.6641 -14.3359 -32 -32 -32h-22.0703
c-17.6641 0 -32 14.3359 -32 32v38.29c-11.8389 9.41504 -21.4795 29.334 -21.5195 44.46v28.6904c0.00683594 21.1562 15.875 44.9004 35.4199 53l4.5498 11.3594l17.8398 49.0801c13.8027 34.8428 55.4199 63.1211 92.8965 63.1211
c0.0927734 0 0.241211 -0.000976562 0.333984 -0.000976562h113.859h0.303711c37.4766 0 79.0947 -28.2773 92.8965 -63.1201l17.8701 -49.0801zM335.11 164l-12.1104 -36h218l-12.0703 36c-6.58008 16.9004 -22.3994 28 -40 28h-113.819
c-17.6406 0 -33.4707 -11.0801 -40 -28zM300 40.1504c14.4004 0 36 -2.40039 36 11.96c0 14.3594 -21.5996 35.8896 -36 35.8896s-24 -9.55957 -24 -23.9199s9.59961 -23.9297 24 -23.9297zM564 40.1504c14.4004 0 24 9.58008 24 23.9297s-9.59961 23.9199 -24 23.9199
s-36 -21.46 -36 -35.8496c0 -14.3906 21.5996 -12 36 -12z" />
    <glyph glyph-name="coin" unicode="&#xf85c;" horiz-adv-x="512" 
d="M0 128v30.3799c12.5996 -15.0195 29.1504 -28.3799 48 -40.3799v-64.3301c-30 20.96 -48 46.5605 -48 74.3301zM256 96c-141.33 0 -256 64.4404 -256 144s114.67 144 256 144s256 -64.4404 256 -144s-114.67 -144 -256 -144zM80 35.4902v64.5098
c28.1904 -13.1201 60.6104 -23 96 -29v-64.3096c-36.3398 5.98926 -68.9102 15.9092 -96 28.7998zM464 53.6699v64.3203c18.8496 12.0098 35.4004 25.3799 48 40.3799v-30.3701c0 -27.7695 -17.9502 -53.3301 -48 -74.3301zM336 6.66992v64.3301
c35.3896 6 67.8096 15.8799 96 29v-64.5303c-27.0898 -12.8896 -59.6602 -22.7998 -96 -28.7998zM208 66.7998c13.209 -1.44043 34.7129 -2.69531 48 -2.7998c13.2871 0.104492 34.791 1.35938 48 2.7998v-64.0898c-15.6201 -1.50977 -31.4902 -2.70996 -48 -2.70996
s-32.3799 1.2002 -48 2.70996v64.0898z" />
    <glyph glyph-name="construction" unicode="&#xf85d;" 
d="M634.66 -12.1699c14.4795 -22.5605 -2.17969 -51.8301 -29.5098 -51.8301h-570.301c-27.3301 0 -43.9893 29.2695 -29.5098 51.8301l285.16 444.25c13.6201 21.2295 45.3799 21.2295 59 0zM308 288c-15.4561 0 -28 -12.5439 -28 -28s12.5439 -28 28 -28s28 12.5439 28 28
s-12.5439 28 -28 28zM304 16v32.7695v0.03125c0 9.61426 -6.56348 21.6387 -14.6504 26.8389l-83.0596 53.6699l-29.75 -109.109c-0.30957 -1.13867 -0.561523 -3.02051 -0.561523 -4.20117c0 -6.75098 5.28711 -13.667 11.8018 -15.4395
c1.12402 -0.308594 2.98242 -0.55957 4.14844 -0.55957h0.0712891h0.000976562c6.75 0 13.667 5.28613 15.4395 11.7998l18.25 66.8906l46.3096 -29.9209v-32.7695c0 -8.83203 7.16797 -16 16 -16s16 7.16797 16 16zM352 0h198.8l-71.8594 111.94
c-2.60742 4.05957 -8.63867 7.35547 -13.4639 7.35547c-5.46387 0 -11.877 -3.96777 -14.3164 -8.85547l-21.1602 -42.4404l-87.6699 54l-10.5498 52.7002c-3.7207 18.6094 -18.1104 33.3193 -35.5605 37.1396l-24.5801 7.28027
c-2.86523 0.644531 -7.5752 1.16797 -10.5137 1.16797c-13.2217 0 -30.3877 -8.58691 -38.3164 -19.168l-11.6094 -15.4902c-1.76562 -2.35449 -3.19824 -6.6543 -3.19824 -9.59766c0 -4.93262 3.4082 -11.0352 7.6084 -13.6221l103.949 -64
c0.0302734 -0.0703125 0.110352 -0.0703125 0.110352 -0.0703125l94.7998 -58.3398h-35.6396c-5.96973 -0.00976562 -12.6143 -4.5166 -14.8301 -10.0596z" />
    <glyph glyph-name="digging" unicode="&#xf85e;" horiz-adv-x="576" 
d="M272 352c-26.4961 0 -48 21.5039 -48 48s21.5039 48 48 48s48 -21.5039 48 -48s-21.5039 -48 -48 -48zM209.76 90.6396c7.86035 -5.24414 14.2402 -17.1699 14.2402 -26.6191v-0.0205078v-96c0 -17.6641 -14.3359 -32 -32 -32s-32 14.3359 -32 32v78.8896
l-60.6104 40.4102l-36.5996 -128.16c-3.66211 -12.8154 -17.4512 -23.2168 -30.7803 -23.2168c-17.6699 0 -32.0117 14.3418 -32.0117 32.0117c0 2.47559 0.551758 6.41602 1.23242 8.7959l57.4199 201l71.5596 -39c27.2334 -14.874 53.75 -30.9043 79.5498 -48.0908z
M311.07 32h40.9297l9.84961 16.7695l-336.6 184.301c-14.6201 7.98926 -20.4502 26.75 -11.6201 40.8496c0.569336 0.919922 1.59961 2.33594 2.2998 3.16016l56 64c5.27734 6.02637 16.0605 10.9189 24.0703 10.9199h72.7305c16.5098 0 32.7295 -3.90039 48.0693 -10
c2.08496 -0.487305 5.31934 -1.68359 7.21973 -2.66992c1 -0.469727 2.11035 -0.629883 3.11035 -1.12988c31.6553 -15.6826 62.8896 -56.54 69.7197 -91.2002l23.9902 -121.2l65.2998 -35.6201l31.8604 54.29c13 21.6602 44.7803 20.4404 56.0703 -2.14941l101.93 -206.32
h-320l24.71 74.1201c4.02637 12.0781 17.627 21.8799 30.3574 21.8799h0.00292969zM105.9 243l38.9697 45h-34.3301l-28.1299 -32.1504zM199.64 191.87l48.2305 -26.3105l-13.5 67.54z" />
    <glyph glyph-name="drone" unicode="&#xf85f;" horiz-adv-x="512" 
d="M112 224c-61.8242 0 -112 50.1758 -112 112s50.1758 112 112 112s112 -50.1758 112 -112c-0.120117 -4.52148 -0.854492 -11.8057 -1.63965 -16.2598l-49.7705 35.9297c-7.84766 24.4707 -35.0732 44.332 -60.7715 44.332
c-35.2285 0 -63.8203 -28.5918 -63.8203 -63.8203c0 -25.6982 19.8613 -52.9238 44.332 -60.7715l35.9297 -49.7705c-4.4541 -0.785156 -11.7383 -1.52051 -16.2598 -1.63965zM339.41 355.67l-49.7705 -35.9297c-0.785156 4.4541 -1.52051 11.7383 -1.63965 16.2598
c0 61.8242 50.1758 112 112 112s112 -50.1758 112 -112s-50.1758 -112 -112 -112c-4.52148 0.119141 -11.8057 0.854492 -16.2598 1.63965l35.9297 49.7705c24.4707 7.84766 44.332 35.0732 44.332 60.7715c0 35.2285 -28.5918 63.8203 -63.8203 63.8203
c-25.6982 0 -52.9238 -19.8613 -60.7715 -44.332zM172.59 28.3301l49.7705 35.9297c0.785156 -4.4541 1.52051 -11.7383 1.63965 -16.2598c0 -61.8242 -50.1758 -112 -112 -112s-112 50.1758 -112 112s50.1758 112 112 112
c4.52148 -0.119141 11.8057 -0.854492 16.2598 -1.63965l-35.9297 -49.7705c-24.4707 -7.84766 -44.332 -35.0732 -44.332 -60.7715c0 -35.2285 28.5918 -63.8203 63.8203 -63.8203c25.6982 0 52.9238 19.8613 60.7715 44.332zM400 160c61.8242 0 112 -50.1758 112 -112
s-50.1758 -112 -112 -112s-112 50.1758 -112 112c0.119141 4.52148 0.854492 11.8057 1.63965 16.2598l49.7705 -35.9199c7.84473 -24.4775 35.0713 -44.3428 60.7754 -44.3428c35.2285 0 63.8193 28.5918 63.8193 63.8203c0 25.7002 -19.8623 52.9258 -44.335 60.7725
l-35.9297 49.7705c4.4541 0.785156 11.7383 1.52051 16.2598 1.63965zM401 304.2l-49 -67.8604v-88.6797l49 -67.8604c17.1162 -0.484375 31.0068 -14.7744 31.0068 -31.8975c0 -17.6143 -14.2949 -31.9092 -31.9092 -31.9092c-17.123 0 -31.4131 13.8906 -31.8975 31.0068
l-67.8604 49h-88.6797l-67.8604 -49c-0.484375 -17.1162 -14.7744 -31.0068 -31.8975 -31.0068c-17.6143 0 -31.9092 14.2949 -31.9092 31.9092c0 17.123 13.8906 31.4131 31.0068 31.8975l49 67.8604v88.6797l-49 67.8604
c-17.1162 0.484375 -31.0068 14.7744 -31.0068 31.8975c0 17.6143 14.2949 31.9092 31.9092 31.9092c17.123 0 31.4131 -13.8906 31.8975 -31.0068l67.8604 -49h88.6797l67.8604 49c0.484375 17.1162 14.7744 31.0068 31.8975 31.0068
c17.6143 0 31.9092 -14.2949 31.9092 -31.9092c0 -17.123 -13.8906 -31.4131 -31.0068 -31.8975z" />
    <glyph glyph-name="drone-alt" unicode="&#xf860;" 
d="M288 312c0 -13.248 -10.752 -24 -24 -24h-240c-13.248 0 -24 10.752 -24 24s10.752 24 24 24h97.6104c3.02246 8.83105 13.0508 15.998 22.3848 15.998s19.3623 -7.16699 22.3848 -15.998h97.6201c13.248 0 24 -10.752 24 -24zM616.4 335.93h0.0644531
c12.9941 0 23.54 -10.5459 23.54 -23.54c0 -12.9521 -10.5117 -23.498 -23.4648 -23.54l-240.81 -0.769531c-12.7764 0.219727 -23.1465 10.7686 -23.1465 23.5469c0 12.6963 10.3027 23.2441 22.9961 23.543l98 0.310547c2.84082 9.16016 12.9307 16.5957 22.5215 16.5957
c9.5293 0 19.5996 -7.37207 22.4785 -16.4561zM472 210.35v45.6504h48v-64.0498c0 -17.6641 -14.3359 -32 -32 -32h-45.4004c25.7959 -25.0684 49.6875 -74.4561 53.3301 -110.24c0.0429688 -0.432617 0.0771484 -1.13574 0.0771484 -1.57031
c0 -8.87402 -7.20215 -16.1045 -16.0771 -16.1396h-16.25c-8.33984 0.0195312 -14.7598 6.58008 -15.6797 14.8701c-3.57617 31.8398 -27.6523 72.7783 -53.7402 91.3799l-32.9199 -32.9297c-5.17285 -5.17285 -15.3096 -9.37012 -22.625 -9.37012h-0.00488281h-37.4902
h-0.00488281c-7.31543 0 -17.4512 4.19727 -22.625 9.37012l-32.9199 32.9297c-26.0703 -18.6094 -50.1143 -59.5469 -53.6699 -91.3799c-0.919922 -8.29004 -7.33984 -14.8701 -15.6797 -14.8701h-16.25c-8.875 0.0351562 -16.0771 7.26562 -16.0771 16.1396
c0 0.43457 0.0341797 1.1377 0.0771484 1.57031c3.64258 35.7842 27.5342 85.1719 53.3301 110.24h-45.4004c-17.6641 0 -32 14.3359 -32 32v64.0498h48v-45.6504l96.8203 29.0508c14.8965 4.4707 39.6113 8.09961 55.165 8.09961s40.2676 -3.62891 55.165 -8.09961z" />
    <glyph glyph-name="dryer" unicode="&#xf861;" horiz-adv-x="448" 
d="M384 448c35.3281 0 64 -28.6719 64 -64v-416c0 -17.6641 -14.3359 -32 -32 -32h-384c-17.6641 0 -32 14.3359 -32 32v416c0 35.3281 28.6719 64 64 64h320zM184 384c-13.248 0 -24 -10.752 -24 -24s10.752 -24 24 -24s24 10.752 24 24s-10.752 24 -24 24zM64 360
c0 -13.248 10.752 -24 24 -24s24 10.752 24 24s-10.752 24 -24 24s-24 -10.752 -24 -24zM224 0c79.4883 0 144 64.5117 144 144s-64.5117 144 -144 144s-144 -64.5117 -144 -144s64.5117 -144 144 -144zM216 176c0 -22.6699 -11.9502 -34.6201 -20.6904 -43.3604
c-7.83984 -7.83984 -11.3096 -11.7598 -11.3096 -20.6992c0 -8.94043 3.46973 -12.8203 11.3896 -20.6602c7.41992 -7.40039 17.1602 -17.1406 19.9307 -33.75c0.0634766 -0.375977 0.115234 -0.989258 0.115234 -1.37012c0 -4.48047 -3.63574 -8.13574 -8.11523 -8.16016
h-16.3203c-3.42871 0.0234375 -6.88281 2.74219 -7.70996 6.07031c-1.37012 5.14941 -4.78027 8.76953 -10.5996 14.5898c-8.74023 8.71973 -20.6904 20.6396 -20.6904 43.2803c0 22.6396 12 34.5898 20.6904 43.3594c7.83984 7.83984 11.3096 11.7002 11.3096 20.7002
s-3.46973 12.8301 -11.3604 20.6699c-7.41992 7.41992 -17.1592 17.1602 -19.9297 33.7998c-0.0634766 0.375977 -0.116211 0.989258 -0.116211 1.37012c0 4.48047 3.63672 8.13574 8.11621 8.16016h16.29c3.42188 -0.0205078 6.87598 -2.73145 7.70996 -6.0498
c1.36035 -5.16992 4.78027 -8.7998 10.5996 -14.6201c8.74023 -8.74023 20.6904 -20.6904 20.6904 -43.3301zM296 176c0 -22.6699 -11.9502 -34.6201 -20.6904 -43.3604c-7.83984 -7.83984 -11.3096 -11.7598 -11.3096 -20.6992
c0 -8.94043 3.46973 -12.8203 11.3398 -20.6602c7.41992 -7.40039 17.1602 -17.1406 19.9297 -33.75c0.0644531 -0.375977 0.116211 -0.990234 0.116211 -1.37109c0 -4.45215 -3.61328 -8.10742 -8.06543 -8.15918h-16.3203
c-3.42871 0.0234375 -6.88281 2.74219 -7.70996 6.07031c-1.37012 5.14941 -4.78027 8.76953 -10.5996 14.5898c-8.74023 8.71973 -20.6904 20.6396 -20.6904 43.2803c0 22.6396 12 34.5898 20.6904 43.3594c7.83984 7.83984 11.3096 11.7002 11.3096 20.7002
s-3.46973 12.8301 -11.3604 20.6699c-7.41992 7.41992 -17.1592 17.1602 -19.9297 33.7998c-0.0634766 0.375977 -0.116211 0.989258 -0.116211 1.37012c0 4.48047 3.63672 8.13574 8.11621 8.16016h16.29c3.42188 -0.0205078 6.87598 -2.73145 7.70996 -6.0498
c1.36035 -5.16992 4.78027 -8.7998 10.5996 -14.6201c8.74023 -8.74023 20.6904 -20.6904 20.6904 -43.3301z" />
    <glyph glyph-name="dryer-alt" unicode="&#xf862;" horiz-adv-x="448" 
d="M384 448c35.3281 0 64 -28.6719 64 -64v-416c0 -17.6641 -14.3359 -32 -32 -32h-384c-17.6641 0 -32 14.3359 -32 32v416c0 35.3281 28.6719 64 64 64h320zM184 384c-13.248 0 -24 -10.752 -24 -24s10.752 -24 24 -24s24 10.752 24 24s-10.752 24 -24 24zM64 360
c0 -13.248 10.752 -24 24 -24s24 10.752 24 24s-10.752 24 -24 24s-24 -10.752 -24 -24zM224 0c79.4883 0 144 64.5117 144 144s-64.5117 144 -144 144s-144 -64.5117 -144 -144s64.5117 -144 144 -144zM224 256c61.8242 0 112 -50.1758 112 -112s-50.1758 -112 -112 -112
s-112 50.1758 -112 112s50.1758 112 112 112zM224 64c44.1562 0.00390625 79.9941 35.8438 79.9941 80c0 44.1602 -35.8408 80 -80 80c-36.0566 0 -71.1729 -28.6719 -78.3838 -64h38.3896c4.41602 0 8 -3.58398 8 -8v-16c0 -4.41602 -3.58398 -8 -8 -8h-38.3896
c7.21094 -35.3281 42.3271 -64 78.3838 -64h0.00585938z" />
    <glyph glyph-name="farm" unicode="&#xf864;" horiz-adv-x="576" 
d="M221.5 356.92c-11.5742 -5.14551 -25.5781 -18.5098 -31.2598 -29.8301l-55.4805 -111c-3.7207 -7.46387 -6.74902 -20.29 -6.75977 -28.6299v-251.46h-128v400v0.078125c0 61.7852 50.1445 111.93 111.93 111.93c51.0957 0 100.349 -40.7314 109.94 -90.918z
M572.62 201.78c1.86426 -3.73242 3.37793 -10.1484 3.37988 -14.3203v-251.46h-128v96h-160v-96h-128v251.46c0.00585938 4.16309 1.51953 10.5654 3.37988 14.29l55.4902 111c2.83301 5.66699 9.83105 12.3555 15.6201 14.9297l120.51 53.5605
c3.42676 1.52344 9.25 2.75977 13 2.75977s9.57324 -1.23633 13 -2.75977l120.51 -53.5303c5.78906 -2.57422 12.7871 -9.2627 15.6201 -14.9297zM416 128v96h-96v-96h96z" />
    <glyph glyph-name="file-search" unicode="&#xf865;" 
d="M288 128c0 -65.4502 39.5898 -121.69 96 -146.44v-21.5596v-0.0605469c0 -13.2148 -10.7246 -23.9395 -23.9395 -23.9395h-0.0605469h-336h-0.0605469c-13.2148 0 -23.9395 10.7246 -23.9395 23.9395v0.0605469v464v0.0605469c0 13.2148 10.7246 23.9395 23.9395 23.9395
h0.0605469h200v-136c0.0380859 -13.21 10.79 -23.9619 24 -24h136v-13.5596c-56.4102 -24.7607 -96 -80.9902 -96 -146.44zM384 326.1v-6.09961h-128v128h6.09961h0.0595703c5.47363 0 13.0635 -3.13574 16.9404 -7l97.9004 -98
c3.8623 -3.86523 6.99805 -11.4365 7 -16.9004zM635.31 -14.0596c2.58789 -2.58691 4.68848 -7.65625 4.68848 -11.3154s-2.10059 -8.72852 -4.68848 -11.3154l-22.6191 -22.6191c-2.58691 -2.58789 -7.65625 -4.68848 -11.3154 -4.68848s-8.72852 2.10059 -11.3154 4.68848
l-77.4092 77.4199c-19.04 -11.2305 -40.9502 -18.1104 -64.6504 -18.1104c-70.6562 0 -128 57.3438 -128 128s57.3438 128 128 128s128 -57.3438 128 -128c-0.0927734 -19.2158 -8.20117 -48.1797 -18.0996 -64.6504zM448 64c35.3281 0 64 28.6719 64 64s-28.6719 64 -64 64
s-64 -28.6719 -64 -64s28.6719 -64 64 -64z" />
    <glyph glyph-name="font-case" unicode="&#xf866;" 
d="M229.88 362.31l121.28 -341.199c0.461914 -1.37305 0.837891 -3.66211 0.837891 -5.11035c0 -8.83105 -7.16699 -15.999 -15.998 -16h-50.6201c-6.34277 0.000976562 -13.1338 4.87988 -15.1602 10.8896l-19.0693 53.1104h-150.301l-19.0693 -53.1104
c-2.02637 -6.00977 -8.81738 -10.8887 -15.1602 -10.8896h-50.6201c-8.8252 0.00683594 -15.9883 7.1748 -15.9883 16c0 1.44824 0.375977 3.7373 0.837891 5.11035l121.271 341.199c4.07422 11.9736 17.6465 21.6904 30.2939 21.6904h0.00585938h47.1602h0.00585938
c12.6475 0 26.2197 -9.7168 30.2939 -21.6904zM129.58 144h92.8398l-46.4199 129.26zM624 288c8.83203 0 16 -7.16797 16 -16v-256c0 -8.83203 -7.16797 -16 -16 -16h-32c-8.83203 0 -16 7.16797 -16 16v1.80957c-18.9004 -11.0293 -40.5801 -17.8096 -64 -17.8096
c-70.5791 0.0771484 -127.923 57.4209 -128 128v32c0.0771484 70.5791 57.4209 127.923 128 128c23.4199 0 45.0996 -6.80957 64 -17.8096v1.80957c0 8.83203 7.16797 16 16 16h32zM560 128v32c0 26.4961 -21.5039 48 -48 48s-48 -21.5039 -48 -48v-32
c0 -26.4961 21.5039 -48 48 -48s48 21.5039 48 48z" />
    <glyph glyph-name="game-board" unicode="&#xf867;" horiz-adv-x="512" 
d="M256 288v-96h-96v96h96zM256 96v96h96v-96h-96zM480 448c17.6641 0 32 -14.3359 32 -32v-448c0 -17.6641 -14.3359 -32 -32 -32h-448c-17.6641 0 -32 14.3359 -32 32v448c0 17.6641 14.3359 32 32 32h448zM448 288v96h-96v-96h-96v96h-96v-96h-96v-96h96v-96h-96v-96h96
v96h96v-96h96v96h96v96h-96v96h96z" />
    <glyph glyph-name="game-board-alt" unicode="&#xf868;" horiz-adv-x="512" 
d="M480 448c17.6641 0 32 -14.3359 32 -32v-448c0 -17.6641 -14.3359 -32 -32 -32h-448c-17.6641 0 -32 14.3359 -32 32v448c0 17.6641 14.3359 32 32 32h448zM448 192v192h-192v-192h-192v-192h192v192h192z" />
    <glyph glyph-name="glass-citrus" unicode="&#xf869;" horiz-adv-x="512" 
d="M368 448c79.4883 0 144 -64.5117 144 -144c0 -78.3203 -62.6104 -141.73 -140.47 -143.64l4.83984 48.4893c48.96 4.31055 87.6299 45.0801 87.6299 95.1504c-0.0605469 52.9316 -43.0684 95.9395 -96 96c-35.3701 0 -66 -19.4502 -82.6396 -48h-52.54
c19.8301 55.7998 72.5693 96 135.18 96zM320 320c17.6631 -0.000976562 31.998 -14.3369 31.998 -32c0 -0.879883 -0.0703125 -2.30469 -0.158203 -3.17969l-32 -320c-1.58887 -15.9082 -15.8525 -28.8193 -31.8398 -28.8203h-224
c-15.9873 0.000976562 -30.251 12.9121 -31.8398 28.8203l-32 320c-0.0878906 0.875 -0.158203 2.2998 -0.158203 3.17969c0 17.6631 14.335 31.999 31.998 32h288zM278.24 192l6.39941 64h-217.279l6.39941 -64h204.48z" />
    <glyph glyph-name="h4" unicode="&#xf86a;" horiz-adv-x="576" 
d="M304 352c8.83203 0 16 -7.16797 16 -16v-34.9404c0 -7.20898 -5.85059 -13.0596 -13.0596 -13.0596h-18.9404v-192h18.9404c7.20898 0 13.0596 -5.85059 13.0596 -13.0596v-34.9404c0 -8.83203 -7.16797 -16 -16 -16h-96c-8.83203 0 -16 7.16797 -16 16v34.9404
c0 7.20898 5.85059 13.0596 13.0596 13.0596h18.9404v64h-128v-64h18.9404c7.20898 0 13.0596 -5.85059 13.0596 -13.0596v-37.8809c0 -7.20898 -5.85059 -13.0596 -13.0596 -13.0596h-98.9404c-8.83203 0 -16 7.16797 -16 16v34.9404
c0 7.20898 5.85059 13.0596 13.0596 13.0596h18.9404v192h-18.9404c-7.20898 0 -13.0596 5.85059 -13.0596 13.0596v34.9404c0 8.83203 7.16797 16 16 16h96c8.83203 0 16 -7.16797 16 -16v-34.9404c0 -7.20898 -5.85059 -13.0596 -13.0596 -13.0596h-18.9404v-64h128v64
h-18.9404c-7.20898 0 -13.0596 5.85059 -13.0596 13.0596v37.8809c0 7.20898 5.85059 13.0596 13.0596 13.0596h98.9404zM560 224c8.83203 0 16 -7.16797 16 -16v-32c0 -8.83203 -7.16797 -16 -16 -16h-16v-112c0 -8.83203 -7.16797 -16 -16 -16h-32
c-8.83203 0 -16 7.16797 -16 16v112h-96c-17.6641 0 -32 14.3359 -32 32v144c0 8.83203 7.16797 16 16 16h32c8.83203 0 16 -7.16797 16 -16v-112h64v112c0 8.83203 7.16797 16 16 16h32c8.83203 0 16 -7.16797 16 -16v-112h16z" />
    <glyph glyph-name="hat-chef" unicode="&#xf86b;" horiz-adv-x="512" 
d="M416 416c52.9922 0 96 -43.0078 96 -96c0 -41.7402 -64 -192 -64 -192h-60.0898l12.0996 150.75c0.0146484 0.174805 0.0253906 0.459961 0.0253906 0.635742c0 4.07324 -3.29492 7.64648 -7.35547 7.97461l-16 1.2793
c-0.174805 0.0146484 -0.458984 0.0253906 -0.634766 0.0253906c-4.0791 0 -7.65137 -3.2998 -7.97461 -7.36523l-12.2705 -153.3h-84.46v152c0 4.41602 -3.58398 8 -8 8h-16c-4.41602 0 -8 -3.58398 -8 -8v-152h-83.1396l-12.2598 153.3
c-0.324219 4.06543 -3.89648 7.36523 -7.97559 7.36523c-0.174805 0 -0.459961 -0.0107422 -0.634766 -0.0253906l-16 -1.2793c-4.06055 -0.328125 -7.35547 -3.90137 -7.35547 -7.97461c0 -0.175781 0.0117188 -0.460938 0.0253906 -0.635742l12.0898 -150.75h-60.0898
s-64 150.26 -64 192c-0.000976562 0.123047 -0.000976562 0.322266 -0.000976562 0.445312c0 52.749 42.8105 95.5605 95.5596 95.5605c17.9053 0 43.9658 -8.84668 58.1719 -19.7461c23.3398 31.2402 60.2695 51.7402 102.27 51.7402s78.9297 -20.5 102.27 -51.7402
c14.0898 10.8398 39.9531 19.6836 57.7305 19.7402zM64 -32v128h384v-128c0 -17.6641 -14.3359 -32 -32 -32h-320c-17.6641 0 -32 14.3359 -32 32z" />
    <glyph glyph-name="horizontal-rule" unicode="&#xf86c;" 
d="M640 208.13v-31.2598c-0.00585938 -8.74902 -7.11035 -15.8594 -15.8604 -15.8701h-608.27c-8.75488 0.00585938 -15.8643 7.11523 -15.8701 15.8701v31.2598c0.00585938 8.75488 7.11523 15.8643 15.8701 15.8701h608.27
c8.75 -0.0107422 15.8545 -7.12109 15.8604 -15.8701z" />
    <glyph glyph-name="icons-alt" unicode="&#xf86e;" horiz-adv-x="512" 
d="M16 288c-8.83203 0 -16 7.16797 -16 16v32c0 8.83203 7.16797 16 16 16h192c8.83203 0 16 -7.16797 16 -16v-32c0 -8.83203 -7.16797 -16 -16 -16h-64v-48c0 -8.83203 -7.16797 -16 -16 -16h-32c-8.83203 0 -16 7.16797 -16 16v48h-64zM16 384
c-8.83203 0 -16 7.16797 -16 16v32c0 8.83203 7.16797 16 16 16h192c8.83203 0 16 -7.16797 16 -16v-32c0 -8.83203 -7.16797 -16 -16 -16h-192zM478.08 447.67c17.9199 2.75977 33.9199 -12.2002 33.9199 -31.6699v-144.31
c-0.269531 -26.3604 -28.7998 -47.6904 -64 -47.6904c-35.3496 0 -64 21.4902 -64 48s28.6504 48 64 48c4.46191 -0.0400391 11.6299 -0.801758 16 -1.7002v47.2002l-112 -17.2305v-108.579c-0.269531 -26.3604 -28.7998 -47.6904 -64 -47.6904
c-35.3496 0 -64 21.4902 -64 48s28.6504 48 64 48c4.46191 -0.0400391 11.6299 -0.801758 16 -1.7002v106.84c0 15.9199 10.8701 29.4199 25.5098 31.6807zM328 80c-22.0801 0 -40 17.9199 -40 40s17.9199 40 40 40s40 -17.9199 40 -40s-17.9199 -40 -40 -40z
M219.59 64.0596c2.58496 -2.58594 4.68262 -7.65332 4.68262 -11.3096s-2.09766 -8.72363 -4.68262 -11.3096l-27.8896 -27.8906l27.6396 -27.6094c2.58789 -2.58691 4.6875 -7.65625 4.6875 -11.3154s-2.09961 -8.72852 -4.6875 -11.3154l-22.6201 -22.6191
c-2.58691 -2.58789 -7.65625 -4.68848 -11.3145 -4.68848c-3.65918 0 -8.72852 2.10059 -11.3154 4.68848l-27.6094 27.6094l-8.48047 -8.49023c-13.1475 -13.1523 -38.9102 -23.8271 -57.5078 -23.8271c-21.9463 0 -50.6953 14.0566 -64.1719 31.3779
c-25.8799 32.8896 -19.7803 80.9297 9.80957 110.52l6.91992 6.91992c-9.38867 10.1543 -17.0088 29.6201 -17.0088 43.4492c0 35.3281 28.6719 64 64 64s64 -28.6719 64 -64c0 -15.333 -9.09082 -36.2773 -20.291 -46.749l22.7002 -22.7002l27.9199 27.8906
c2.58691 2.58691 7.65625 4.6875 11.3145 4.6875c3.65918 0 8.72852 -2.10059 11.3154 -4.6875zM80 144c-8.83203 0 -16 -7.16797 -16 -16s7.16797 -16 16 -16s16 7.16797 16 16s-7.16797 16 -16 16zM92.7197 5.05957l8.48047 8.49023l-24.4502 24.4502l-8.48047 -8.48047
c-2.79688 -2.7959 -5.06641 -8.27441 -5.06641 -12.2295c0 -9.54492 7.74609 -17.292 17.292 -17.292c3.95215 0 9.42969 2.26758 12.2246 5.06152zM484.72 155.31l22.5898 -22.6191c2.58789 -2.58691 4.68848 -7.65625 4.68848 -11.3154
s-2.10059 -8.72852 -4.68848 -11.3154l-169.369 -169.369c-2.58691 -2.58789 -7.65625 -4.68848 -11.3154 -4.68848s-8.72852 2.10059 -11.3154 4.68848l-22.6191 22.6191c-2.58789 2.58691 -4.68848 7.65625 -4.68848 11.3154s2.10059 8.72852 4.68848 11.3154
l169.399 169.369c2.58691 2.58789 7.65625 4.68848 11.3154 4.68848c3.6582 0 8.72754 -2.10059 11.3145 -4.68848zM472 16c22.0801 0 40 -17.9199 40 -40s-17.9199 -40 -40 -40s-40 17.9199 -40 40s17.9199 40 40 40z" />
    <glyph glyph-name="kerning" unicode="&#xf86f;" 
d="M416.54 448c4.41504 0 8.0127 -3.58398 8.0127 -8c0 -0.761719 -0.208008 -1.96191 -0.462891 -2.67969l-176.28 -496c-1.04395 -2.93652 -4.4209 -5.32031 -7.53711 -5.32031h-0.00292969h-17h-0.0117188c-4.41602 0 -8 3.58398 -8 8
c0 0.761719 0.207031 1.96191 0.461914 2.67969l176.28 496c1.04395 2.93652 4.4209 5.32031 7.53809 5.32031h0.00195312h17zM304 352c8.8252 -0.00683594 15.9883 -7.1748 15.9883 -16c0 -1.44824 -0.375977 -3.7373 -0.837891 -5.11035l-105.271 -277.199
c-4.07422 -11.9736 -17.6465 -21.6904 -30.2939 -21.6904h-0.00585938h-47.1602h-0.00585938c-12.6475 0 -26.2197 9.7168 -30.2939 21.6904l-105.271 277.199c-0.461914 1.37305 -0.837891 3.66211 -0.837891 5.11035c0 8.8252 7.16309 15.9932 15.9883 16h50.6201
c6.34277 -0.000976562 13.1338 -4.87988 15.1602 -10.8896l78.2197 -199.79l78.2197 199.79c2.02637 6.00977 8.81738 10.8887 15.1602 10.8896h50.6201zM639.15 53.1104c0.461914 -1.37305 0.837891 -3.66211 0.837891 -5.11035c0 -8.8252 -7.16309 -15.9932 -15.9883 -16
h-50.6201c-6.34277 0.000976562 -13.1338 4.87988 -15.1602 10.8896l-14.5293 37.1104h-127.381l-14.54 -37.1104c-2.02539 -6.00977 -8.81641 -10.8887 -15.1592 -10.8896h-50.6104c-8.8252 0.00683594 -15.9883 7.1748 -15.9883 16
c0 1.44824 0.375977 3.7373 0.837891 5.11035l105.271 277.199c4.07422 11.9736 17.6465 21.6904 30.2939 21.6904h0.00585938h47.1602h0.00585938c12.6475 0 26.2197 -9.7168 30.2939 -21.6904zM447.63 160h64.7402l-32.3701 82.6797z" />
    <glyph glyph-name="line-columns" unicode="&#xf870;" horiz-adv-x="512" 
d="M496 160c8.83203 0 16 -7.16797 16 -16v-32c0 -8.83203 -7.16797 -16 -16 -16h-192c-8.83203 0 -16 7.16797 -16 16v32c0 8.83203 7.16797 16 16 16h192zM496 32c8.83203 0 16 -7.16797 16 -16v-32c0 -8.83203 -7.16797 -16 -16 -16h-192c-8.83203 0 -16 7.16797 -16 16
v32c0 8.83203 7.16797 16 16 16h192zM496 288c8.83203 0 16 -7.16797 16 -16v-32c0 -8.83203 -7.16797 -16 -16 -16h-192c-8.83203 0 -16 7.16797 -16 16v32c0 8.83203 7.16797 16 16 16h192zM496 416c8.83203 0 16 -7.16797 16 -16v-32c0 -8.83203 -7.16797 -16 -16 -16
h-192c-8.83203 0 -16 7.16797 -16 16v32c0 8.83203 7.16797 16 16 16h192zM208 160c8.83203 0 16 -7.16797 16 -16v-32c0 -8.83203 -7.16797 -16 -16 -16h-192c-8.83203 0 -16 7.16797 -16 16v32c0 8.83203 7.16797 16 16 16h192zM208 32c8.83203 0 16 -7.16797 16 -16v-32
c0 -8.83203 -7.16797 -16 -16 -16h-192c-8.83203 0 -16 7.16797 -16 16v32c0 8.83203 7.16797 16 16 16h192zM208 416c8.83203 0 16 -7.16797 16 -16v-32c0 -8.83203 -7.16797 -16 -16 -16h-192c-8.83203 0 -16 7.16797 -16 16v32c0 8.83203 7.16797 16 16 16h192zM208 288
c8.83203 0 16 -7.16797 16 -16v-32c0 -8.83203 -7.16797 -16 -16 -16h-192c-8.83203 0 -16 7.16797 -16 16v32c0 8.83203 7.16797 16 16 16h192z" />
    <glyph glyph-name="line-height" unicode="&#xf871;" 
d="M626.29 224c7.57031 0 13.71 -7.16016 13.71 -16v-32c0 -8.83984 -6.13965 -16 -13.71 -16h-356.58c-7.57031 0 -13.71 7.16016 -13.71 16v32c0 8.83984 6.13965 16 13.71 16h356.58zM626.29 64c7.57031 0 13.71 -7.16016 13.71 -16v-32
c0 -8.83984 -6.13965 -16 -13.71 -16h-356.58c-7.57031 0 -13.71 7.16016 -13.71 16v32c0 8.83984 6.13965 16 13.71 16h356.58zM626.29 384c7.57031 0 13.71 -7.16016 13.71 -16v-32c0 -8.83984 -6.13965 -16 -13.71 -16h-356.58c-7.57031 0 -13.71 7.16016 -13.71 16v32
c0 8.83984 6.13965 16 13.71 16h356.58zM176 304h-48v-224h48c15.6396 0 20.6396 -18 11.3301 -27.3096l-80 -80c-2.58691 -2.58496 -7.65332 -4.68262 -11.3105 -4.68262c-3.65625 0 -8.72266 2.09766 -11.3096 4.68262l-80 80c-10.0195 10 -3 27.3096 11.29 27.3096h48
v224h-48c-15.6396 0 -20.6396 18 -11.3096 27.3096l80 80c2.58594 2.58496 7.65332 4.68262 11.3096 4.68262s8.72363 -2.09766 11.3096 -4.68262l80 -80c10.0205 -10 3 -27.3096 -11.3096 -27.3096z" />
    <glyph glyph-name="money-check-edit" unicode="&#xf872;" 
d="M462.88 73.3799l-231.39 231.45l71.7002 71.7002l231.43 -231.44c5.17676 -5.17285 9.37891 -15.3115 9.37988 -22.6299v-42.46c0 -8.83203 -7.16797 -16 -16 -16h-42.4902c-7.31836 0.000976562 -17.4561 4.20312 -22.6299 9.37988zM208.88 327.38l-41.8799 41.9502
c-3.8418 3.87305 -6.95898 11.4443 -6.95898 16.9004c0 5.45508 3.11719 13.0264 6.95898 16.8994l37.8896 37.8701c3.8877 3.84668 11.4814 6.96777 16.9502 6.96777s13.0625 -3.12109 16.9502 -6.96777l41.79 -41.8203zM608 288c17.6641 0 32 -14.3359 32 -32v-288
c0 -17.6641 -14.3359 -32 -32 -32h-576c-17.6641 0 -32 14.3359 -32 32v288c0 17.6641 14.3359 32 32 32h171l128 -128h-227c-4.41602 0 -8 -3.58398 -8 -8v-16c0 -4.41602 3.58398 -8 8 -8h259l64 -64h-323c-4.41602 0 -8 -3.58398 -8 -8v-16c0 -4.41602 3.58398 -8 8 -8
h456c8.83203 0 16 7.16797 16 16v74.46v0.0205078c0 14.626 -8.39062 34.8936 -18.7305 45.2393l-120.27 120.28h171z" />
    <glyph glyph-name="money-check-edit-alt" unicode="&#xf873;" 
d="M204.78 331.53l-37.7803 37.7998c-3.8418 3.87305 -6.95898 11.4443 -6.95898 16.9004c0 5.45508 3.11719 13.0264 6.95898 16.8994l37.8799 37.8701c3.8877 3.84668 11.4814 6.96777 16.9502 6.96777s13.0625 -3.12109 16.9502 -6.96777l41.79 -41.7695
l-71.6904 -71.8008zM608 288c17.6641 0 32 -14.3359 32 -32v-288c0 -17.6641 -14.3359 -32 -32 -32h-576c-17.6641 0 -32 14.3359 -32 32v288c0 17.6641 14.3359 32 32 32h171l128 -128h-67c-4.41602 0 -8 -3.58398 -8 -8v-16c0 -4.41602 3.58398 -8 8 -8h99l64 -64h-163
c-4.41602 0 -8 -3.58398 -8 -8v-16c0 -4.41602 3.58398 -8 8 -8h296c8.83203 0 16 7.16797 16 16v74.46v0c0 14.6357 -8.40039 34.9121 -18.75 45.2598l-120.25 120.28h171zM144 32.1201c23.6201 0.629883 42.6602 20.54 42.6602 45.0703
c0 19.9697 -12.9805 37.8096 -31.5703 43.3896l-45 13.5c-5.16016 1.54004 -8.76953 6.78027 -8.76953 12.7295c0 7.27051 5.2998 13.1904 11.7998 13.1904h28.1104c3.83398 -0.00292969 9.57324 -1.67383 12.8096 -3.73047
c1.15137 -0.779297 3.21582 -1.41113 4.60645 -1.41113c1.75586 0 4.23535 0.958984 5.5332 2.1416l11.75 11.2197c1.38965 1.30762 2.51758 3.91797 2.51758 5.82617c0 2.15918 -1.38281 4.98828 -3.08691 6.31445c-7.70312 5.77246 -21.7568 10.8574 -31.3701 11.3496
v16.29c0 4.41602 -3.58398 8 -8 8h-16c-4.41602 0 -8 -3.58398 -8 -8v-16.1201c-23.6201 -0.629883 -42.6699 -20.5498 -42.6699 -45.0703c0 -19.9697 12.9893 -37.8096 31.5801 -43.3896l45 -13.5c5.15918 -1.54004 8.76953 -6.78027 8.76953 -12.7295
c0 -7.27051 -5.2998 -13.1904 -11.7998 -13.1904h-28.1104c-3.83496 0.00878906 -9.57812 1.67969 -12.8193 3.73047c-1.15137 0.77832 -3.21289 1.41016 -4.60156 1.41016c-1.75488 0 -4.23145 -0.958984 -5.5293 -2.14062l-11.75 -11.2197
c-1.38965 -1.30762 -2.5166 -3.91797 -2.5166 -5.82617c0 -2.15918 1.38281 -4.98828 3.08691 -6.31445c7.7041 -5.76855 21.7578 -10.8535 31.3701 -11.3496v-16.29c0 -4.41602 3.58398 -8 8 -8h16c4.41602 0 8 3.58398 8 8v16.1201zM462.87 73.3701l-231.4 231.46
l71.7002 71.7002l231.46 -231.44c5.17188 -5.17285 9.37012 -15.3096 9.37012 -22.625v-0.00488281v-42.46c0 -8.83203 -7.16797 -16 -16 -16h-42.5098c-7.31445 0.000976562 -17.4482 4.19922 -22.6201 9.37012z" />
    <glyph glyph-name="mug" unicode="&#xf874;" horiz-adv-x="576" 
d="M448 385c70.6562 0 128 -57.3438 128 -128s-57.3438 -128 -128 -128h-32v-32c0 -52.9922 -43.0078 -96 -96 -96h-192c-52.9922 0 -96 43.0078 -96 96v264v0.0605469c0 13.2148 10.7246 23.9395 23.9395 23.9395h0.0605469h392zM448 193c35.3281 0 64 28.6719 64 64
s-28.6719 64 -64 64h-32v-128h32z" />
    <glyph glyph-name="mug-tea" unicode="&#xf875;" 
d="M595.6 32c25 0 11.8008 -64 -35.8896 -64h-511.35c-47.6006 0 -61 64 -36 64h583.239zM192 64c-52.9922 0 -96 43.0078 -96 96v232v0.0605469c0 13.2148 10.7246 23.9395 23.9395 23.9395h0.0605469h88v-64l-38.6299 -38.6299
c-5.1709 -5.17285 -9.36914 -15.3066 -9.37012 -22.6201v-66.75c0 -17.6641 14.3359 -32 32 -32h64c17.6641 0 32 14.3359 32 32v66.75c-0.000976562 7.31348 -4.19922 17.4473 -9.37012 22.6201l-38.6299 38.6299v64h272c70.6562 0 128 -57.3438 128 -128
s-57.3438 -128 -128 -128h-32c0 -52.9922 -43.0078 -96 -96 -96h-192zM480 352v-128h32c35.3281 0 64 28.6719 64 64s-28.6719 64 -64 64h-32z" />
    <glyph glyph-name="overline" unicode="&#xf876;" horiz-adv-x="448" 
d="M432 448c8.83203 0 16 -7.16797 16 -16v-32c0 -8.83203 -7.16797 -16 -16 -16h-416c-8.83203 0 -16 7.16797 -16 16v32c0 8.83203 7.16797 16 16 16h416zM232.19 320c92.6309 0 167.81 -75.1787 167.81 -167.81v-48.3809c0 -92.6309 -75.1787 -167.81 -167.81 -167.81
h-16.3809c-92.6309 0 -167.81 75.1787 -167.81 167.81v48.3809c0 92.6309 75.1787 167.81 167.81 167.81h16.3809zM320 103.81v48.3809c-0.0546875 48.416 -39.3936 87.7549 -87.8096 87.8096h-16.3809c-48.416 -0.0546875 -87.7549 -39.3936 -87.8096 -87.8096v-48.3809
c0.0546875 -48.416 39.3936 -87.7549 87.8096 -87.8096h16.3809c48.416 0.0546875 87.7549 39.3936 87.8096 87.8096z" />
    <glyph glyph-name="page-break" unicode="&#xf877;" horiz-adv-x="576" 
d="M243.6 192h88.8008h0.00976562c10.8135 0 19.5898 -8.77637 19.5898 -19.5898v-0.00976562v-24.8008v-0.00976562c0 -10.8135 -8.77637 -19.5898 -19.5898 -19.5898h-0.00976562h-88.8008h-0.00976562c-10.8135 0 -19.5898 8.77637 -19.5898 19.5898v0.00976562v24.8008
v0.00976562c0 10.8135 8.77637 19.5898 19.5898 19.5898h0.00976562zM160 384v-144h-64v159.93c0.0380859 26.458 21.542 47.9932 48 48.0703h204.09c10.9697 -0.0146484 26.1611 -6.32617 33.9102 -14.0898l83.9102 -83.8506
c7.76855 -7.77539 14.0811 -23.0078 14.0898 -34v-76.0596h-64v64h-64c-8.83203 0 -16 7.16797 -16 16v64h-176zM560 192c8.83203 0 16 -7.16797 16 -16v-32c0 -8.83203 -7.16797 -16 -16 -16h-128c-8.83203 0 -16 7.16797 -16 16v32c0 8.83203 7.16797 16 16 16h128zM416 0
v80h64v-96c0 -26.4961 -21.5039 -48 -48 -48h-288c-26.4961 0 -48 21.5039 -48 48v96h64v-80h256zM160 144c0 -8.83203 -7.16797 -16 -16 -16h-128c-8.83203 0 -16 7.16797 -16 16v32c0 8.83203 7.16797 16 16 16h128c8.83203 0 16 -7.16797 16 -16v-32z" />
    <glyph glyph-name="paragraph-rtl" unicode="&#xf878;" horiz-adv-x="384" 
d="M368 64c8.83203 0 16 -7.16797 16 -16v-32c0 -8.83203 -7.16797 -16 -16 -16h-256v-48c0 -15.6396 -18 -20.6396 -27.3096 -11.3096l-80 80c-2.58496 2.58594 -4.68262 7.65332 -4.68262 11.3096s2.09766 8.72363 4.68262 11.3096l80 80
c10.0791 10.0801 27.3096 2.94043 27.3096 -11.3096v-48h256zM144 224c-64 0 -112 48 -112 112s48 112 112 112h192c8.83203 0 16 -7.16797 16 -16v-32c0 -8.83203 -7.16797 -16 -16 -16h-16v-240c0 -8.83203 -7.16797 -16 -16 -16h-32c-8.83203 0 -16 7.16797 -16 16v240
h-32v-240c0 -8.83203 -7.16797 -16 -16 -16h-32c-8.83203 0 -16 7.16797 -16 16v80h-16z" />
    <glyph glyph-name="phone-laptop" unicode="&#xf87a;" 
d="M604 320c19.8721 0 36 -16.1279 36 -36v-312c0 -19.8721 -16.1279 -36 -36 -36h-184c-19.8721 0 -36 16.1279 -36 36v312c0 19.8721 16.1279 36 36 36h184zM576 0v256h-128v-256h128zM128 384v-224h224v-96h-288.09c-35.2021 0.125977 -63.834 28.7979 -63.9102 64v16
c0 8.83203 7.16797 16 16 16h48v240c0.0546875 26.3916 21.5186 47.8955 47.9102 48h352.18c26.3916 -0.104492 47.8555 -21.6084 47.9102 -48v-48h-64v32h-320z" />
    <glyph glyph-name="send-back" unicode="&#xf87e;" 
d="M256 224c0 -17.6641 -14.3359 -32 -32 -32h-192c-17.6641 0 -32 14.3359 -32 32v192c0 17.6641 14.3359 32 32 32h192c17.6641 0 32 -14.3359 32 -32v-192zM192 256v128h-128v-128h128zM608 192c17.6641 0 32 -14.3359 32 -32v-192c0 -17.6641 -14.3359 -32 -32 -32h-192
c-17.6641 0 -32 14.3359 -32 32v192c0 17.6641 14.3359 32 32 32h192zM576 0v128h-128v-128h128zM480 224h-64c-35.2891 -0.0380859 -63.9619 -28.7109 -64 -64v-128h-144c-26.4961 0 -48 21.5039 -48 48v80h64c35.2891 0.0380859 63.9619 28.7109 64 64v128h144
c26.4961 0 48 -21.5039 48 -48v-80z" />
    <glyph glyph-name="send-backward" unicode="&#xf87f;" horiz-adv-x="514" 
d="M464 288c26.4961 0 48 -21.5039 48 -48v-256c0 -26.4961 -21.5039 -48 -48 -48h-256c-26.4961 0 -48 21.5039 -48 48v256c0 26.4961 21.5039 48 48 48h256zM448 0v224h-224v-224h224zM352 320h-144c-44.1104 -0.0498047 -79.9502 -35.8896 -80 -80v-144h-80
c-26.4961 0 -48 21.5039 -48 48v256c0 26.4961 21.5039 48 48 48h256c26.4961 0 48 -21.5039 48 -48v-80z" />
    <glyph glyph-name="snooze" unicode="&#xf880;" horiz-adv-x="448" 
d="M192 224c17.6641 0 32 -14.3359 32 -32v-46.0801v-0.00390625c0 -6.71387 -3.62012 -16.2373 -8.08008 -21.2559l-82.3604 -92.6602h50.4404c13.248 0 24 -10.752 24 -24v-48c0 -13.248 -10.752 -24 -24 -24h-152c-17.6641 0 -32 14.3359 -32 32v46.0801v0.00390625
c0 6.71387 3.62012 16.2373 8.08008 21.2559l82.3604 92.6602h-50.4404c-13.248 0 -24 10.752 -24 24v48c0 13.248 10.752 24 24 24h152zM192 256c-17.6641 0 -32 14.3359 -32 32v16c0.000976562 7.31348 4.19922 17.4473 9.37012 22.6201l57.3799 57.3799h-42.75
c-8.83203 0 -16 7.16797 -16 16v32c0 8.83203 7.16797 16 16 16h104c17.6641 0 32 -14.3359 32 -32v-16c-0.000976562 -7.31348 -4.19922 -17.4473 -9.37012 -22.6201l-57.3799 -57.3799h34.75c8.83203 0 16 -7.16797 16 -16v-32c0 -8.83203 -7.16797 -16 -16 -16h-96z
M448 176c-0.000976562 -7.31348 -4.19922 -17.4473 -9.37012 -22.6201l-57.3799 -57.3799h42.75c8.83203 0 16 -7.16797 16 -16v-32c0 -8.83203 -7.16797 -16 -16 -16h-104c-17.6641 0 -32 14.3359 -32 32v16c0.000976562 7.31348 4.19922 17.4473 9.37012 22.6201
l57.3799 57.3799h-34.75c-8.83203 0 -16 7.16797 -16 16v32c0 8.83203 7.16797 16 16 16h96c17.6641 0 32 -14.3359 32 -32v-16z" />
    <glyph glyph-name="sort-alt" unicode="&#xf883;" horiz-adv-x="384" 
d="M176 96c14.2197 0 21.3496 -17.2598 11.3301 -27.3096l-80 -96c-2.58691 -2.58496 -7.65332 -4.68262 -11.3105 -4.68262c-3.65625 0 -8.72266 2.09766 -11.3096 4.68262l-80 96c-10.0703 10.0693 -2.90039 27.3096 11.29 27.3096h48v304c0 8.83203 7.16797 16 16 16h32
c8.83203 0 16 -7.16797 16 -16v-304h48zM379.29 315.31c10.0703 -10.0693 2.90039 -27.3096 -11.29 -27.3096h-48v-304c0 -8.83203 -7.16797 -16 -16 -16h-32c-8.83203 0 -16 7.16797 -16 16v304h-48c-14.2197 0 -21.3496 17.2598 -11.3301 27.3096l80 96
c2.58691 2.58496 7.65332 4.68262 11.3105 4.68262c3.65625 0 8.72266 -2.09766 11.3096 -4.68262z" />
    <glyph glyph-name="sort-shapes-down" unicode="&#xf888;" horiz-adv-x="448" 
d="M176 96c14.2197 0 21.3496 -17.2598 11.3301 -27.3096l-80 -96c-2.58691 -2.58496 -7.65332 -4.68262 -11.3105 -4.68262c-3.65625 0 -8.72266 2.09766 -11.3096 4.68262l-80 96c-10.0703 10.0693 -2.90039 27.3096 11.29 27.3096h48v304c0 8.83203 7.16797 16 16 16h32
c8.83203 0 16 -7.16797 16 -16v-304h48zM444.1 265.14c11.0801 -18.2793 -2.76953 -41.1396 -24.9492 -41.1396h-166.301c-22.1797 0 -36.0293 22.8604 -24.9492 41.1396l83.1992 137.15c11.0908 18.2803 38.8105 18.2803 49.9004 0zM408 160c13.248 0 24 -10.752 24 -24
v-144c0 -13.248 -10.752 -24 -24 -24h-144c-13.248 0 -24 10.752 -24 24v144c0 13.248 10.752 24 24 24h144z" />
    <glyph glyph-name="sort-shapes-down-alt" unicode="&#xf889;" horiz-adv-x="448" 
d="M176 96c14.2197 0 21.3496 -17.2598 11.3301 -27.3096l-80 -96c-2.58691 -2.58496 -7.65332 -4.68262 -11.3105 -4.68262c-3.65625 0 -8.72266 2.09766 -11.3096 4.68262l-80 96c-10.0703 10.0693 -2.90039 27.3096 11.29 27.3096h48v304c0 8.83203 7.16797 16 16 16h32
c8.83203 0 16 -7.16797 16 -16v-304h48zM444.1 9.13965c11.0801 -18.2793 -2.76953 -41.1396 -24.9492 -41.1396h-166.301c-22.1797 0 -36.0293 22.8604 -24.9492 41.1396l83.1992 137.15c11.0908 18.2803 38.8105 18.2803 49.9004 0zM264 224c-13.248 0 -24 10.752 -24 24
v144c0 13.248 10.752 24 24 24h144c13.248 0 24 -10.752 24 -24v-144c0 -13.248 -10.752 -24 -24 -24h-144z" />
    <glyph glyph-name="sort-shapes-up" unicode="&#xf88a;" horiz-adv-x="448" 
d="M107.31 411.31l80 -96c10.0801 -10.0693 2.90039 -27.3096 -11.3096 -27.3096h-48v-304c0 -8.83203 -7.16797 -16 -16 -16h-32c-8.83203 0 -16 7.16797 -16 16v304h-48c-14.2197 0 -21.3496 17.2598 -11.3096 27.3096l80 96
c2.58594 2.58496 7.65332 4.68262 11.3096 4.68262s8.72363 -2.09766 11.3096 -4.68262zM444.1 265.14c11.0801 -18.2793 -2.76953 -41.1396 -24.9492 -41.1396h-166.301c-22.1797 0 -36.0293 22.8604 -24.9492 41.1396l83.1992 137.15
c11.0908 18.2803 38.8105 18.2803 49.9004 0zM408 160c13.248 0 24 -10.752 24 -24v-144c0 -13.248 -10.752 -24 -24 -24h-144c-13.248 0 -24 10.752 -24 24v144c0 13.248 10.752 24 24 24h144z" />
    <glyph glyph-name="sort-shapes-up-alt" unicode="&#xf88b;" horiz-adv-x="448" 
d="M107.31 411.31l80 -96c10.0801 -10.0693 2.90039 -27.3096 -11.3096 -27.3096h-48v-304c0 -8.83203 -7.16797 -16 -16 -16h-32c-8.83203 0 -16 7.16797 -16 16v304h-48c-14.2197 0 -21.3496 17.2598 -11.3096 27.3096l80 96
c2.58594 2.58496 7.65332 4.68262 11.3096 4.68262s8.72363 -2.09766 11.3096 -4.68262zM444.1 9.13965c11.0801 -18.2793 -2.76953 -41.1396 -24.9492 -41.1396h-166.301c-22.1797 0 -36.0293 22.8604 -24.9492 41.1396l83.1992 137.15
c11.0908 18.2803 38.8105 18.2803 49.9004 0zM264 224c-13.248 0 -24 10.752 -24 24v144c0 13.248 10.752 24 24 24h144c13.248 0 24 -10.752 24 -24v-144c0 -13.248 -10.752 -24 -24 -24h-144z" />
    <glyph glyph-name="sort-size-down" unicode="&#xf88c;" horiz-adv-x="512" 
d="M428 128c11.04 0 20 -8.95996 20 -20v-120c0 -11.04 -8.95996 -20 -20 -20h-152c-11.04 0 -20 8.95996 -20 20v120c0 11.04 8.95996 20 20 20h152zM176 96c14.2197 0 21.3496 -17.2598 11.3301 -27.3096l-80 -96c-2.58691 -2.58496 -7.65332 -4.68262 -11.3105 -4.68262
c-3.65625 0 -8.72266 2.09766 -11.3096 4.68262l-80 96c-10.0801 10.0693 -2.90039 27.3096 11.29 27.3096h48v304c0 8.83203 7.16797 16 16 16h32c8.83203 0 16 -7.16797 16 -16v-304h48zM484 416c15.4561 0 28 -12.5439 28 -28v-168c0 -15.4561 -12.5439 -28 -28 -28h-200
c-15.4561 0 -28 12.5439 -28 28v168c0 15.4561 12.5439 28 28 28h200z" />
    <glyph glyph-name="sort-size-down-alt" unicode="&#xf88d;" horiz-adv-x="512" 
d="M275.9 256c-10.9854 0.0546875 -19.9004 9.01465 -19.9004 20v0v120v0c0 10.9854 8.91504 19.9453 19.9004 20h152.199c10.9854 -0.0546875 19.9004 -9.01465 19.9004 -20v0v-120v0c0 -10.9854 -8.91504 -19.9453 -19.9004 -20h-152.199zM484 192
c15.4561 0 28 -12.5439 28 -28v-168c0 -15.4561 -12.5439 -28 -28 -28h-200c-15.4561 0 -28 12.5439 -28 28v168c0 15.4561 12.5439 28 28 28h200zM176 96c14.2197 0 21.3496 -17.2598 11.3301 -27.3096l-80 -96c-2.58691 -2.58496 -7.65332 -4.68262 -11.3105 -4.68262
c-3.65625 0 -8.72266 2.09766 -11.3096 4.68262l-80 96c-10.0801 10.0693 -2.90039 27.3096 11.29 27.3096h48v304c0 8.83203 7.16797 16 16 16h32c8.83203 0 16 -7.16797 16 -16v-304h48z" />
    <glyph glyph-name="sort-size-up" unicode="&#xf88e;" horiz-adv-x="512" 
d="M107.31 411.31l80 -96c10.0703 -10.0693 2.90039 -27.3096 -11.3096 -27.3096h-48v-304c0 -8.83203 -7.16797 -16 -16 -16h-32c-8.83203 0 -16 7.16797 -16 16v304h-48c-14.2305 0 -21.3496 17.2598 -11.3096 27.3096l80 96
c2.58594 2.58496 7.65332 4.68262 11.3096 4.68262s8.72363 -2.09766 11.3096 -4.68262zM484 416c15.4561 0 28 -12.5439 28 -28v-168c0 -15.4561 -12.5439 -28 -28 -28h-200c-15.4561 0 -28 12.5439 -28 28v168c0 15.4561 12.5439 28 28 28h200zM428 128
c11.04 0 20 -8.95996 20 -20v-120c0 -11.04 -8.95996 -20 -20 -20h-152c-11.04 0 -20 8.95996 -20 20v120c0 11.04 8.95996 20 20 20h152z" />
    <glyph glyph-name="sort-size-up-alt" unicode="&#xf88f;" horiz-adv-x="512" 
d="M276 256c-11.04 0 -20 8.95996 -20 20v120c0 11.04 8.95996 20 20 20h152c11.04 0 20 -8.95996 20 -20v-120c0 -11.04 -8.95996 -20 -20 -20h-152zM484 192c15.4561 0 28 -12.5439 28 -28v-168c0 -15.4561 -12.5439 -28 -28 -28h-200c-15.4561 0 -28 12.5439 -28 28v168
c0 15.4561 12.5439 28 28 28h200zM107.31 411.31l80 -96c10.0703 -10.0693 2.90039 -27.3096 -11.3096 -27.3096h-48v-304c0 -8.83203 -7.16797 -16 -16 -16h-32c-8.83203 0 -16 7.16797 -16 16v304h-48c-14.2305 0 -21.3496 17.2598 -11.3096 27.3096l80 96
c2.58594 2.58496 7.65332 4.68262 11.3096 4.68262s8.72363 -2.09766 11.3096 -4.68262z" />
    <glyph glyph-name="sparkles" unicode="&#xf890;" horiz-adv-x="512" 
d="M324.42 344.85c-2.44043 1.2207 -4.4209 4.42676 -4.4209 7.15527s1.98047 5.93457 4.4209 7.15527l59.5801 24.8398l24.8398 59.5801c1.21973 2.44629 4.42676 4.43164 7.16016 4.43164s5.94043 -1.98535 7.16016 -4.43164l24.8398 -59.5801l59.5801 -24.8398
c2.44043 -1.2207 4.4209 -4.42676 4.4209 -7.15527s-1.98047 -5.93457 -4.4209 -7.15527l-59.5801 -24.8496l-24.8398 -59.5801c-1.21973 -2.44629 -4.42676 -4.43164 -7.16016 -4.43164s-5.94043 1.98535 -7.16016 4.43164l-24.8398 59.5801zM507.58 39.1602
c2.44629 -1.21973 4.43164 -4.42676 4.43164 -7.16016s-1.98535 -5.94043 -4.43164 -7.16016l-59.5801 -24.8398l-24.8398 -59.5801c-1.21973 -2.44629 -4.42676 -4.43164 -7.16016 -4.43164s-5.94043 1.98535 -7.16016 4.43164l-24.8398 59.5801l-59.5801 24.8398
c-2.44629 1.21973 -4.43164 4.42676 -4.43164 7.16016s1.98535 5.94043 4.43164 7.16016l59.5801 24.8398l24.8398 59.5801c1.21973 2.44629 4.42676 4.43164 7.16016 4.43164s5.94043 -1.98535 7.16016 -4.43164l24.8398 -59.5801zM384 192.36
c0 -5.46387 -3.95996 -11.9023 -8.83984 -14.3604l-112.57 -56.3701l-56.2803 -112.77c-2.44141 -4.88184 -8.85156 -8.84375 -14.3096 -8.84375s-11.8682 3.96191 -14.3096 8.84375l-56.2803 112.77l-112.57 56.3896c-4.90918 2.43457 -8.89258 8.85645 -8.89258 14.3359
c0 5.47852 3.9834 11.9004 8.89258 14.335l112.57 56.3896l56.2803 112.77c5.42969 10.8701 23.1797 10.8701 28.6191 0l56.2803 -112.77l112.57 -56.3896c4.87402 -2.4541 8.83496 -8.87305 8.83984 -14.3301z" />
    <glyph glyph-name="sunglasses" unicode="&#xf892;" horiz-adv-x="576" 
d="M574.09 167.62c1.05469 -4.17285 1.91016 -11.0518 1.91016 -15.3545v-0.145508v-70.25c0 -62.8701 -51.5898 -113.87 -115.19 -113.87h-37.1191c-60.2803 0 -110.381 45.9404 -114.881 105.37l-2.92969 38.6299h-35.7598l-2.92969 -38.6299
c-4.5 -59.4297 -54.6006 -105.37 -114.881 -105.37h-37.1191c-63.6006 0 -115.19 51 -115.19 113.89v70.25c0.0830078 4.32812 0.938477 11.2627 1.91016 15.4805l45.3398 181.729c9.18066 36.7959 47.4102 66.6582 85.334 66.6582
c7.8916 0 20.3711 -2.02832 27.8564 -4.52734l15.25 -5.08008c6.03418 -2.01562 10.9316 -8.81445 10.9316 -15.1768c0 -1.42578 -0.363281 -3.68066 -0.8125 -5.0332l-5.05957 -15.1904c-2.00977 -6.0459 -8.81152 -10.9531 -15.1836 -10.9531
c-1.43457 0 -3.70508 0.368164 -5.06641 0.823242l-13.1602 4.38965c-10.8701 3.61035 -23 3.56055 -33.1494 -1.72949c-8.87793 -4.55957 -18.0078 -16.127 -20.3809 -25.8203l-38.4697 -153.8c21.9014 6.80078 58.2881 12.3789 81.2197 12.4502
c34.7803 0 74 -7 114.851 -26.75h73.1797c40.8506 19.75 80.1006 26.75 114.851 26.75c22.9326 -0.0761719 59.3193 -5.66309 81.2197 -12.4707l-38.4697 153.83c-2.37305 9.69238 -11.5029 21.2549 -20.3809 25.8105c-10.1494 5.2998 -22.2793 5.35938 -33.1494 1.72949
l-13.1904 -4.38965c-1.35449 -0.449219 -3.6123 -0.814453 -5.03906 -0.814453c-6.36816 0 -13.1689 4.90332 -15.1807 10.9443l-5.05957 15.1504c-0.455078 1.3623 -0.825195 3.63281 -0.825195 5.06934c0 6.36719 4.90332 13.168 10.9443 15.1807l15.25 5.08008
c7.48633 2.5 19.9688 4.5293 27.8613 4.5293c37.9277 0 76.1553 -29.8682 85.3291 -66.6699zM64.1904 80.0898l99.54 49.7705c-9 1.26953 -18 2.47949 -27.1406 2.47949c-20.6475 -0.112305 -53.168 -5.8916 -72.5898 -12.8994v-37.5508
c0 -0.620117 0.19043 -1.18945 0.19043 -1.7998zM372.32 82.1602l95.8398 47.9199c-7.88184 1.19043 -20.749 2.20312 -28.7197 2.25977c-19.959 -0.00878906 -51.292 -5.78809 -69.9404 -12.8994z" />
    <glyph glyph-name="text" unicode="&#xf893;" horiz-adv-x="448" 
d="M432 416c8.83203 0 16 -7.16797 16 -16v-96c0 -8.83203 -7.16797 -16 -16 -16h-32c-8.83203 0 -16 7.16797 -16 16v32h-120v-304h40c8.83203 0 16 -7.16797 16 -16v-32c0 -8.83203 -7.16797 -16 -16 -16h-160c-8.83203 0 -16 7.16797 -16 16v32
c0 8.83203 7.16797 16 16 16h40v304h-120v-32c0 -8.83203 -7.16797 -16 -16 -16h-32c-8.83203 0 -16 7.16797 -16 16v96c0 8.83203 7.16797 16 16 16h416z" />
    <glyph glyph-name="text-size" unicode="&#xf894;" 
d="M624 416c8.83203 0 16 -7.16797 16 -16v-96c0 -8.83203 -7.16797 -16 -16 -16h-32c-8.83203 0 -16 7.16797 -16 16v32h-88v-304h40c8.83203 0 16 -7.16797 16 -16v-32c0 -8.83203 -7.16797 -16 -16 -16h-160c-8.83203 0 -16 7.16797 -16 16v32
c0 8.83203 7.16797 16 16 16h40v304h-88v-32c0 -8.83203 -7.16797 -16 -16 -16h-32c-8.83203 0 -16 7.16797 -16 16v96c0 8.83203 7.16797 16 16 16h352zM304 224c8.83203 0 16 -7.16797 16 -16v-64c0 -8.83203 -7.16797 -16 -16 -16h-32c-8.83203 0 -16 7.16797 -16 16v16
h-56v-128h24c8.83203 0 16 -7.16797 16 -16v-32c0 -8.83203 -7.16797 -16 -16 -16h-128c-8.83203 0 -16 7.16797 -16 16v32c0 8.83203 7.16797 16 16 16h24v128h-56v-16c0 -8.83203 -7.16797 -16 -16 -16h-32c-8.83203 0 -16 7.16797 -16 16v64c0 8.83203 7.16797 16 16 16
h288z" />
    <glyph glyph-name="trash-undo" unicode="&#xf895;" horiz-adv-x="448" 
d="M53.2002 -19l-21.2002 339h384l-21.2002 -339c-1.55469 -24.8369 -23.0146 -44.9971 -47.8994 -45h-245.801c-24.8848 0.00292969 -46.3447 20.1631 -47.8994 45zM100.38 170.47c-2.41309 -2.38281 -4.37109 -7.06836 -4.37109 -10.46
c0 -3.39062 1.95801 -8.07715 4.37109 -10.46l84 -81.5898c8.85059 -8.59961 23.6104 -2.21973 23.6104 10.4697v44.6904c80.75 -0.980469 110.38 -21.79 87.2998 -102.72c-2.55957 -8.99023 7.33984 -15.9404 14.29 -10.4004c22.2695 17.7402 42.4102 51.71 42.4102 86
c0 85.5596 -61.5303 103.12 -144 103.92v41.6699c0 12.71 -14.7705 19.0605 -23.6104 10.4697zM432 416c8.83203 0 16 -7.16797 16 -16v-32c0 -8.83203 -7.16797 -16 -16 -16h-416c-8.83203 0 -16 7.16797 -16 16v32c0 8.83203 7.16797 16 16 16h120l9.40039 18.7002
c3.58984 7.3418 13.1357 13.2998 21.3086 13.2998h0.0908203h114.3h0.0175781c8.20215 0 17.8262 -5.95801 21.4824 -13.2998l9.40039 -18.7002h120z" />
    <glyph glyph-name="trash-undo-alt" unicode="&#xf896;" horiz-adv-x="448" 
d="M432 416c8.83203 0 16 -7.16797 16 -16v-32c0 -8.83203 -7.16797 -16 -16 -16h-416c-8.83203 0 -16 7.16797 -16 16v32c0 8.83203 7.16797 16 16 16h120l9.40039 18.7002c3.58984 7.3418 13.1357 13.2998 21.3086 13.2998h0.0908203h114.3h0.0175781
c8.20215 0 17.8262 -5.95801 21.4824 -13.2998l9.40039 -18.7002h120zM32 -16v336h384v-336c0 -26.4961 -21.5039 -48 -48 -48h-288c-26.4961 0 -48 21.5039 -48 48zM100.38 170.47c-2.41309 -2.38281 -4.37109 -7.06836 -4.37109 -10.46
c0 -3.39062 1.95801 -8.07715 4.37109 -10.46l84 -81.5898c8.85059 -8.59961 23.6104 -2.21973 23.6104 10.4697v44.6904c80.75 -0.980469 110.38 -21.79 87.2998 -102.72c-2.55957 -8.99023 7.33984 -15.9404 14.29 -10.4004c22.2695 17.7402 42.4102 51.71 42.4102 86
c0 85.5596 -61.5303 103.12 -144 103.92v41.6699c0 12.71 -14.7705 19.0605 -23.6104 10.4697z" />
    </font>
</defs>
</svg>
