<?xml version="1.0" standalone="no"?>
<!--
Font Awesome Pro 5.12.1 by @fontawesome - https://fontawesome.com
License - https://fontawesome.com/license (Commercial License)
-->
<!DOCTYPE svg PUBLIC "-//W3C//DTD SVG 1.1//EN" "http://www.w3.org/Graphics/SVG/1.1/DTD/svg11.dtd" >
<svg xmlns="http://www.w3.org/2000/svg" xmlns:xlink="http://www.w3.org/1999/xlink" version="1.1">
<metadata>
Created by FontForge 20190801 at Tue Feb  4 18:07:22 2020
 By Robert Madole
Copyright (c) Font Awesome
</metadata>
<defs>
<font id="FontAwesome5Duotone-Solid" horiz-adv-x="512" >
  <font-face 
    font-family="Font Awesome 5 Duotone Solid"
    font-weight="900"
    font-stretch="normal"
    units-per-em="512"
    panose-1="2 0 5 3 0 0 0 0 0 0"
    ascent="448"
    descent="-64"
    bbox="-1.38574 -67 671.998 449"
    underline-thickness="25"
    underline-position="-50"
    unicode-range="U+0020-10F958"
  />
    <missing-glyph />
    <glyph glyph-name="music-primary" unicode="&#xf001;" 
d="M128 321.49c0.0078125 12.958 10.0479 26.626 22.4102 30.5098l41.5898 12.2803v-364.28c0 -35.3398 -43 -64 -96 -64s-96 28.6602 -96 64s43 64 96 64c8.95801 -0.0507812 23.2939 -1.80664 32 -3.91992v261.41zM470.38 446.49
c2.59277 0.816406 6.90234 1.48047 9.62012 1.48047c17.6475 0 31.9834 -14.3232 32 -31.9707v-352c0 -35.3496 -43 -64 -96 -64s-96 28.6602 -96 64s43 64 96 64c8.95898 -0.0488281 23.2949 -1.80957 32 -3.92969v315.81z" />
    <glyph glyph-name="print-primary" unicode="&#xf02f;" 
d="M368 352c-8.83203 0 -16 7.16797 -16 16v80h4.57031h0.0439453c4.10547 0 9.79785 -2.35156 12.7061 -5.25l73.4297 -73.5c2.89746 -2.89648 5.24902 -8.57324 5.25 -12.6699v-4.58008h-80zM448 256c35.3281 0 64 -28.6719 64 -64v-112c0 -8.83203 -7.16797 -16 -16 -16
h-480c-8.83203 0 -16 7.16797 -16 16v112c0 35.3281 28.6719 64 64 64v-32h384v32zM432 120c13.248 0 24 10.752 24 24s-10.752 24 -24 24s-24 -10.752 -24 -24s10.752 -24 24 -24z" />
    <glyph glyph-name="adjust-primary" unicode="&#xf042;" 
d="M256 440v-496c-137 0 -248 111 -248 248s111 248 248 248z" />
    <glyph glyph-name="external-link-primary" unicode="&#xf08e;" 
d="M484 224h-17.8799c-15.4561 0 -28 12.5439 -28 28v0.780273l1.87988 67.2197l-247.09 -248.91c-3.88281 -3.89648 -11.499 -7.05859 -17 -7.05859c-5.45996 0 -13.0361 3.12207 -16.9102 6.96875l-0.0595703 0.0595703l-23.9404 23.8506
c-3.87988 3.87988 -7.0293 11.4824 -7.0293 16.9697s3.14941 13.0898 7.0293 16.9697l0.0595703 0.0605469l248.94 247.09l-67.21 -1.90039c-0.220703 -0.00585938 -0.580078 -0.0107422 -0.800781 -0.0107422c-15.0371 0 -27.5762 12.1992 -27.9893 27.2314v18.6797
c0 15.4561 12.5439 28 28 28h158.67v0c20.6064 0 37.3301 -16.7236 37.3301 -37.3301v-158.67c0 -15.4561 -12.5439 -28 -28 -28z" />
    <glyph glyph-name="trophy-primary" unicode="&#xf091;" horiz-adv-x="576" 
d="M552 384h0.120117c13.1816 -0.0332031 23.8799 -10.7578 23.8799 -23.9395v-0.0605469v-56c0 -35.7002 -22.5996 -72.4004 -61.9004 -100.7c-31.3994 -22.7002 -69.6992 -37.0996 -110 -41.7002c-31.3994 -52.0996 -68.0996 -73.5996 -68.0996 -73.5996v-72h-96v72
s-36.7002 21.5 -68.0996 73.5996c-40.2002 4.60059 -78.5 19 -110 41.7002c-39.4004 28.2998 -61.9004 65 -61.9004 100.7v56.1201c0.0332031 13.1816 10.7578 23.8799 23.9395 23.8799h0.0605469h104v40.1201c0.0332031 13.1816 10.7578 23.8799 23.9395 23.8799h0.0605469
h272.12c13.1816 -0.0332031 23.8799 -10.7578 23.8799 -23.9395v-0.0605469v-40h104zM99.2998 255.2c10.6396 -7.60059 29.3213 -17.1885 41.7002 -21.4004c-6.44238 23.3594 -12.1768 61.9766 -12.7998 86.2002h-64.2002v-16c0 -11.5996 10.9004 -31.2002 35.2998 -48.7998
zM512 304v16h-64.2998c-0.624023 -24.2236 -6.3584 -62.8408 -12.7998 -86.2002c12.4033 4.21289 31.1299 13.8008 41.7998 21.4004c17.5996 12.7002 35.2998 32.7002 35.2998 48.7998z" />
    <glyph glyph-name="bell-primary" unicode="&#xf0f3;" horiz-adv-x="448" 
d="M160 0h128c0 -35.3281 -28.6719 -64 -64 -64s-64 28.6719 -64 64z" />
    <glyph glyph-name="angle-left-primary" unicode="&#xf104;" horiz-adv-x="256" 
d="M167.81 345.13c3.83203 3.78125 11.3418 6.87012 16.7256 6.87012c5.48828 0 13.0713 -3.17188 16.9248 -7.08008l22.54 -22.7402c3.87109 -3.86719 7.01172 -11.4473 7.01172 -16.9199c0 -5.47168 -3.14062 -13.0518 -7.01172 -16.9199l-152.61 -152.85
l-39.3896 39.5098l-0.0595703 0.0703125c-3.83105 3.87109 -6.93945 11.4336 -6.93945 16.8799c0 5.52344 3.18457 13.1621 7.10938 17.0498l135.529 135.95z" />
    <glyph glyph-name="angle-right-primary" unicode="&#xf105;" horiz-adv-x="256" 
d="M54.5801 344.93c3.85449 3.90332 11.4346 7.10059 16.9199 7.10059c5.38477 0 12.8662 -3.06836 16.7002 -6.85059l0.169922 -0.179688l135.53 -136c3.92383 -3.8877 7.1084 -11.5264 7.1084 -17.0498c0 -5.45117 -3.11328 -13.0176 -6.94922 -16.8906
l-0.0595703 -0.0595703l-39.3896 -39.5l-152.61 152.85c-3.87109 3.86816 -7.01172 11.4482 -7.01172 16.9199c0 5.47266 3.14062 13.0527 7.01172 16.9209z" />
    <glyph glyph-name="gamepad-primary" unicode="&#xf11b;" horiz-adv-x="640" 
d="M248 180c0 -6.62402 -5.37598 -12 -12 -12h-52v-52c0 -6.62402 -5.37598 -12 -12 -12h-24c-6.62402 0 -12 5.37598 -12 12v52h-52c-6.62402 0 -12 5.37598 -12 12v24c0 6.62402 5.37598 12 12 12h52v52c0 6.62402 5.37598 12 12 12h24c6.62402 0 12 -5.37598 12 -12v-52
h52c6.62402 0 12 -5.37598 12 -12v-24z" />
    <glyph glyph-name="anchor-primary" unicode="&#xf13d;" horiz-adv-x="576" 
d="M564 96h-32.5098c-21.8604 -102.62 -136.88 -160 -243.49 -160c-106.41 0 -221.58 57.2695 -243.46 160h-32.54h-0.0292969c-6.62402 0 -12 5.37598 -12 12c0 2.74609 1.57617 6.5498 3.51953 8.49023l67.2598 67c1.94824 1.93164 5.75586 3.5 8.5 3.5
s6.55176 -1.56836 8.5 -3.5l67.2598 -67c1.94336 -1.94043 3.51953 -5.74414 3.51953 -8.49023c0 -6.6123 -5.36621 -11.9883 -11.9795 -12h-35.2598c20.3701 -54.3398 85.4697 -86.6201 144.61 -94v158h64.2197v-158c59.3604 7.42969 124.26 39.7002 144.62 94h-35.2598
c-6.62402 0 -12 5.37598 -12 12c0 2.74609 1.57715 6.5498 3.51953 8.49023l67.2598 67c1.94824 1.93164 5.75586 3.5 8.5 3.5s6.55176 -1.56836 8.5 -3.5l67.2598 -67c1.94336 -1.94043 3.51953 -5.74414 3.51953 -8.49023c0 -6.62402 -5.37598 -12 -12 -12h-0.0390625z
" />
    <glyph glyph-name="level-down-primary" unicode="&#xf149;" horiz-adv-x="352" 
d="M345 80.7197l-135.91 -137.59l-0.0898438 -0.129883c-3.88867 -3.86426 -11.4932 -7.00098 -16.9746 -7.00098c-5.48242 0 -13.0869 3.13672 -16.9756 7.00098l-0.139648 0.139648l-135.91 137.58c-3.84668 3.9043 -6.96875 11.5195 -6.96875 17
s3.12207 13.0967 6.96875 17l22 22.1699c3.87109 3.89551 11.4688 7.05664 16.96 7.05664c5.44141 0 12.9902 -3.1123 16.8496 -6.94629l0.130859 -0.129883c0.209961 -0.209961 0.419922 -0.429688 0.619141 -0.650391l96.4404 -104.14l96.4502 104.21
c0.200195 0.219727 0.410156 0.44043 0.620117 0.650391c3.87305 3.90039 11.4775 7.06641 16.9746 7.06641c5.4375 0 12.9844 -3.10742 16.8447 -6.93652l0.120117 -0.129883l22 -22.1709c3.84668 -3.90332 6.96875 -11.5195 6.96875 -17
c0 -5.47949 -3.12207 -13.0957 -6.96875 -17z" />
    <glyph glyph-name="fax-primary" unicode="&#xf1ac;" 
d="M64 320c17.6641 0 32 -14.3359 32 -32v-320c0 -17.6641 -14.3359 -32 -32 -32h-32c-17.6641 0 -32 14.3359 -32 32v320c0 17.6641 14.3359 32 32 32h32zM480 256c17.6641 0 32 -14.3359 32 -32v-256c0 -17.6641 -14.3359 -32 -32 -32h-320c-17.6641 0 -32 14.3359 -32 32
v288h352zM288 16v32c0 8.83203 -7.16797 16 -16 16h-32c-8.83203 0 -16 -7.16797 -16 -16v-32c0 -8.83203 7.16797 -16 16 -16h32c8.83203 0 16 7.16797 16 16zM288 144v32c0 8.83203 -7.16797 16 -16 16h-32c-8.83203 0 -16 -7.16797 -16 -16v-32
c0 -8.83203 7.16797 -16 16 -16h32c8.83203 0 16 7.16797 16 16zM416 16v32c0 8.83203 -7.16797 16 -16 16h-32c-8.83203 0 -16 -7.16797 -16 -16v-32c0 -8.83203 7.16797 -16 16 -16h32c8.83203 0 16 7.16797 16 16zM416 144v32c0 8.83203 -7.16797 16 -16 16h-32
c-8.83203 0 -16 -7.16797 -16 -16v-32c0 -8.83203 7.16797 -16 16 -16h32c8.83203 0 16 7.16797 16 16zM400 352c-8.83203 0 -16 7.16797 -16 16v80h4.57031h0.0439453c4.10547 0 9.79785 -2.35156 12.7061 -5.25l73.4297 -73.5
c2.89746 -2.89648 5.24902 -8.57324 5.25 -12.6699v-4.58008h-80z" />
    <glyph glyph-name="calculator-primary" unicode="&#xf1ec;" horiz-adv-x="448" 
d="M400 448c25.5996 0 48 -22.4004 48 -48v-416c0 -25.5996 -22.4004 -48 -48 -48h-352c-25.5996 0 -48 22.4004 -48 48v416c0 25.5996 22.4004 48 48 48h352zM128 12.7998v38.4004c0 6.39941 -6.40039 12.7998 -12.7998 12.7998h-38.4004
c-6.39941 0 -12.7998 -6.40039 -12.7998 -12.7998v-38.4004c0 -6.39941 6.40039 -12.7998 12.7998 -12.7998h38.4004c6.39941 0 12.7998 6.40039 12.7998 12.7998zM128 140.8v38.4004c0 6.39941 -6.40039 12.7998 -12.7998 12.7998h-38.4004
c-6.39941 0 -12.7998 -6.40039 -12.7998 -12.7998v-38.4004c0 -6.39941 6.40039 -12.7998 12.7998 -12.7998h38.4004c6.39941 0 12.7998 6.40039 12.7998 12.7998zM256 12.7998v38.4004c0 6.39941 -6.40039 12.7998 -12.7998 12.7998h-38.4004
c-6.39941 0 -12.7998 -6.40039 -12.7998 -12.7998v-38.4004c0 -6.39941 6.40039 -12.7998 12.7998 -12.7998h38.4004c6.39941 0 12.7998 6.40039 12.7998 12.7998zM256 140.8v38.4004c0 6.39941 -6.40039 12.7998 -12.7998 12.7998h-38.4004
c-6.39941 0 -12.7998 -6.40039 -12.7998 -12.7998v-38.4004c0 -6.39941 6.40039 -12.7998 12.7998 -12.7998h38.4004c6.39941 0 12.7998 6.40039 12.7998 12.7998zM384 12.7998v166.4c0 6.39941 -6.40039 12.7998 -12.7998 12.7998h-38.4004
c-6.39941 0 -12.7998 -6.40039 -12.7998 -12.7998v-166.4c0 -6.39941 6.40039 -12.7998 12.7998 -12.7998h38.4004c6.39941 0 12.7998 6.40039 12.7998 12.7998zM384 268.8v102.4c0 6.39941 -6.40039 12.7998 -12.7998 12.7998h-294.4
c-6.39941 0 -12.7998 -6.40039 -12.7998 -12.7998v-102.4c0 -6.39941 6.40039 -12.7998 12.7998 -12.7998h294.4c6.39941 0 12.7998 6.40039 12.7998 12.7998z" />
    <glyph glyph-name="mercury-primary" unicode="&#xf223;" horiz-adv-x="288" 
d="M287 240c0 -63.4092 -50.1758 -126.309 -112 -140.4v-51.5996h36c6.62402 0 12 -5.37598 12 -12v-40c0 -6.62402 -5.37598 -12 -12 -12h-36v-36c0 -6.62402 -5.37598 -12 -12 -12h-40c-6.62402 0 -12 5.37598 -12 12v36h-36c-6.62402 0 -12 5.37598 -12 12v40
c0 6.62402 5.37598 12 12 12h36v51.5996c-61.833 14.0498 -112.016 76.915 -112.016 140.323c0 36.959 22.9443 86.2725 51.2158 110.077c-2.5 1.90039 -4.90039 3.7998 -7.2002 5.7998c-24.7695 21.2002 -39.7695 48.7998 -43.1797 78.9004
c-0.0498047 0.420898 -0.0898438 1.10742 -0.0898438 1.53125v0.00878906c0.0644531 6.49121 5.38672 11.7607 11.8789 11.7607c0.0332031 0 0.0869141 -0.000976562 0.121094 -0.000976562h40.5c5.44336 -0.0576172 10.6719 -4.44824 11.6699 -9.7998
c2.5 -12.5 9.59961 -24.2998 20.6992 -33.7998c15.4004 -13.2002 36.0801 -20.4004 58.4004 -20.4004s43 7.2002 58.3096 20.4004c11.0908 9.5 18.29 21.2998 20.6904 33.7998c1.00879 5.40918 6.29395 9.7998 11.7969 9.7998h0.0126953h40.5h0.0898438
c0.395508 0 1.03711 -0.0361328 1.43066 -0.0800781c5.77051 -0.702148 10.4551 -5.98926 10.4551 -11.8027c0 -0.392578 -0.0380859 -1.02734 -0.0849609 -1.41699c-3.40039 -30 -18.5 -57.6006 -43.2002 -78.7998c-2.2998 -2 -4.7002 -4 -7.2002 -5.80078
c28.2627 -23.7627 51.2002 -73.0166 51.2002 -109.942v-0.157227zM143 160c44.1602 0 80 35.8398 80 80s-35.8398 80 -80 80s-80 -35.8398 -80 -80s35.8398 -80 80 -80z" />
    <glyph glyph-name="transgender-alt-primary" unicode="&#xf225;" horiz-adv-x="480" 
d="M467 449c6.62402 0 12 -5.37598 12 -12v-79v-0.0292969c0 -6.62402 -5.37598 -12 -12 -12c-2.75 0 -6.55859 1.58105 -8.5 3.5293l-16.9004 16.9004l-80.6992 -80.7002c12.2119 -19.4062 22.123 -53.7666 22.123 -76.6953
c0 -63.4209 -50.1865 -126.322 -112.023 -140.405v-27.5996h36c6.62402 0 12 -5.37598 12 -12v-40c0 -6.62402 -5.37598 -12 -12 -12h-36v-28c0 -6.62402 -5.37598 -12 -12 -12h-40c-6.62402 0 -12 5.37598 -12 12v28h-36c-6.62402 0 -12 5.37598 -12 12v40
c0 6.62402 5.37598 12 12 12h36v27.5996c-61.8242 14.0918 -112 76.9902 -112 140.399v0.000976562v0.363281c0 22.8252 9.94531 56.9795 22.2002 76.2363l-16.5 16.5l-19.7998 -19.7998c-1.94238 -1.94824 -5.75 -3.5293 -8.5 -3.5293
c-2.75098 0 -6.55859 1.58105 -8.5 3.5293l-28.3008 28.2998c-1.94824 1.94238 -3.5293 5.75 -3.5293 8.5c0 2.75098 1.58105 6.55859 3.5293 8.5l19.8008 19.8008l-19 19l-16.9004 -16.9004c-1.94141 -1.94824 -5.75 -3.5293 -8.5 -3.5293c-6.62402 0 -12 5.37598 -12 12
v0.0292969v79c0 6.62402 5.37598 12 12 12h79c10.7002 0 16.0996 -12.9004 8.40039 -20.4004l-16.9004 -16.8994l19 -19l19.7998 19.7998c1.94141 1.94824 5.75 3.5293 8.5 3.5293c2.75098 0 6.55859 -1.58105 8.5 -3.5293l28.2998 -28.2998
c1.94824 -1.94141 3.53027 -5.75 3.53027 -8.5c0 -2.75098 -1.58203 -6.55859 -3.53027 -8.5l-19.7998 -19.7998l16.5 -16.5c19.4111 12.2002 53.7734 22.1025 76.7002 22.1025s57.2891 -9.90234 76.7002 -22.1025l80.7002 80.6992l-16.9004 16.9004
c-1.94824 1.94141 -3.5293 5.75 -3.5293 8.5c0 6.62402 5.37598 12 12 12h0.0292969h79zM239 129c44.1602 0 80 35.8398 80 80s-35.8398 80 -80 80s-80 -35.8398 -80 -80s35.8398 -80 80 -80z" />
    <glyph glyph-name="mars-stroke-v-primary" unicode="&#xf22a;" horiz-adv-x="288" 
d="M284.38 128.55c17.6201 -77.79 -30.7998 -155.22 -108.38 -172.92s-154.76 31.0098 -172.38 108.811c-17.6201 77.7998 30.8994 155.22 108.479 172.979v25.4502h-20c-6.62402 0 -12 5.37598 -12 12v40.1299c0 6.62402 5.37598 12 12 12h20v24.7998h-24h-0.111328
c-6.62402 0 -12 5.37598 -12 12c0 2.79199 1.62305 6.64062 3.62207 8.58984l56 56.0908c1.94141 1.94824 5.74902 3.5293 8.5 3.5293c2.75 0 6.55859 -1.58105 8.5 -3.5293l55.8896 -56c1.9873 -1.94824 3.60059 -5.78809 3.60059 -8.57129
c0 -6.62402 -5.37598 -12 -12 -12c-0.0273438 0 -0.0732422 0.000976562 -0.100586 0.000976562h-24v-24.9102h20c6.62402 0 12 -5.37598 12 -12v-40.1797c0 -6.62402 -5.37598 -12 -12 -12h-20v-25.4502c22.3789 -5.08984 53.6582 -22.4453 69.8203 -38.7402
c16.207 -16.2803 33.4814 -47.6758 38.5596 -70.0801zM200.58 39.7305c12.918 12.9912 23.4023 38.4033 23.4023 56.7246c0 18.3203 -10.4844 43.7334 -23.4023 56.7246l-0.0498047 0.0507812c-12.9424 12.8857 -38.2686 23.3447 -56.5322 23.3447
c-44.2256 0 -80.1201 -35.8936 -80.1201 -80.1201s35.8945 -80.1201 80.1201 -80.1201c18.2871 0 43.6348 10.4814 56.582 23.3955z" />
    <glyph glyph-name="mars-stroke-h-primary" unicode="&#xf22b;" horiz-adv-x="480" 
d="M476.41 200.56c1.95996 -1.95898 3.5498 -5.79883 3.5498 -8.57031c0 -2.72949 -1.5498 -6.52832 -3.45996 -8.47949l-55.9502 -55.9297c-1.94336 -1.95996 -5.75977 -3.5498 -8.51953 -3.5498c-6.62402 0 -12 5.37598 -12 12v0.0595703v23.9102h-23.9307v-20
c0 -6.62402 -5.37598 -12 -12 -12h-40c-6.62402 0 -12 5.37598 -12 12v20h-27.6299c-14.0908 -61.8242 -76.9893 -112 -140.399 -112c-79.4873 0 -144 64.5117 -144 144s64.5127 144 144 144c63.4102 0 126.309 -50.1758 140.399 -112h27.6904v20
c0 6.62402 5.37598 12 12 12h40c6.62402 0 12 -5.37598 12 -12v-20h23.7402v24v0.0292969c0 6.62402 5.37598 12 12 12c2.75488 0 6.56738 -1.58594 8.50977 -3.53906zM200.54 135.42c12.9307 12.9453 23.4258 38.3027 23.4258 56.5996
c0 18.2979 -10.4951 43.6553 -23.4258 56.6006c-12.9453 12.9502 -38.3115 23.46 -56.6221 23.46c-44.1934 0 -80.0596 -35.8672 -80.0596 -80.0605c0 -44.1924 35.8662 -80.0596 80.0596 -80.0596c18.3105 0 43.6768 10.5098 56.6221 23.46z" />
    <glyph glyph-name="neuter-primary" unicode="&#xf22c;" horiz-adv-x="288" 
d="M284.37 304c1.98926 -8.72461 3.60449 -23.0684 3.60449 -32.0166c0 -63.3975 -50.165 -126.294 -111.975 -140.394v-151.59c0 -6.62402 -5.37598 -12 -12 -12h-40c-6.62402 0 -12 5.37598 -12 12v151.59c-61.8398 14.0811 -112.028 76.9834 -112.028 140.406
c0 79.4883 64.5117 144 144 144c63.4072 0 126.306 -50.1748 140.398 -111.996zM144 192c44.1602 0 80 35.8398 80 80s-35.8398 80 -80 80s-80 -35.8398 -80 -80s35.8398 -80 80 -80z" />
    <glyph glyph-name="clone-primary" unicode="&#xf24d;" 
d="M512 400v-288c0 -26.4961 -21.5039 -48 -48 -48h-288c-26.4961 0 -48 21.5039 -48 48v288c0 26.4961 21.5039 48 48 48h288c26.4961 0 48 -21.5039 48 -48z" />
    <glyph glyph-name="tv-primary" unicode="&#xf26c;" horiz-adv-x="640" 
d="M576 96h-512v288h512v-288z" />
    <glyph glyph-name="blind-primary" unicode="&#xf29d;" horiz-adv-x="384" 
d="M142.8 133.66l62.8203 -153.54c1.31445 -3.21484 2.38184 -8.64258 2.38184 -12.1152c0 -17.665 -14.3369 -32.002 -32.002 -32.002c-11.8604 0 -25.1299 8.90918 -29.6201 19.8867l-36.1201 88.29zM96 360c-24.2881 0 -44 19.7119 -44 44s19.7119 44 44 44
s44 -19.7119 44 -44s-19.7119 -44 -44 -44zM250.84 190.87c2.84277 -3.60742 5.18066 -10.2627 5.18066 -14.8555c0 -6.42969 -4.09961 -14.877 -9.15039 -18.8545c-9.33984 -7.33984 -24.5605 -7.58984 -33.71 4l-102.3 129.22
c-0.665039 0.833984 -2.06934 1.50977 -3.13574 1.50977c-2.21289 0 -4.00977 -1.7959 -4.00977 -4.00977c0 -0.774414 0.392578 -1.89453 0.875 -2.5l31.4102 -39.8203v-107.199l-65.9297 -181.29c-0.0703125 -0.209961 -0.150391 -0.419922 -0.230469 -0.629883
c-4.33496 -11.373 -17.7305 -20.6035 -29.9014 -20.6035c-17.6641 0 -32 14.3359 -32 32c0 3.16602 0.892578 8.14453 1.99121 11.1133l54.0703 148.689v140.7l-16 -20.5703v-79.7695v-0.00488281c0 -12.9961 -10.5459 -23.7461 -23.54 -23.9951
c-13.46 -0.25 -24.46 11.0801 -24.46 24.54v95.6904l61.0596 78.5293c3.96191 5.10059 12.418 9.24023 18.876 9.24023h0.0644531h32h0.0449219c6.41211 0 14.832 -4.08984 18.7949 -9.12988z" />
    <glyph glyph-name="trophy-alt-primary" unicode="&#xf2eb;" horiz-adv-x="576" 
d="M552.12 384c13.1816 -0.0332031 23.8799 -10.7578 23.8799 -23.9395v-0.0605469v-56c0 -66.2998 -77.5996 -131.6 -171.9 -142.4c-31.3994 -52.0996 -68.0996 -73.5996 -68.0996 -73.5996v-72h-96v72s-36.7002 21.5 -68.0996 73.5996
c-94 10.7002 -171.9 75.9004 -171.9 142.4v56.1201c0.0332031 13.1816 10.7578 23.8799 23.9395 23.8799h0.0605469h104v40.1201c0.0332031 13.1816 10.7578 23.8799 23.9395 23.8799h0.0605469h272.12c13.1816 -0.0332031 23.8799 -10.7578 23.8799 -23.9395v-0.0605469
v-40h104.12zM64 304c0 -20.2998 29.5 -53.7998 77 -70.2002c-6.44238 23.3594 -12.1768 61.9766 -12.7998 86.2002h-64.2002v-16zM384.7 299.3c7.09961 6.90039 3.2002 19 -6.40039 20.5l-54.7998 8l-24.5 49.6006c-1.82617 3.67969 -6.6416 6.66699 -10.75 6.66699
s-8.92383 -2.9873 -10.75 -6.66699l-24.5 -49.6006l-54.7998 -8c-5.71094 -0.794922 -10.3457 -6.11914 -10.3457 -11.8857c0 -2.80273 1.63281 -6.66211 3.64551 -8.61426l39.5996 -38.5996l-9.39941 -54.6006c-0.0898438 -0.539062 -0.162109 -1.41992 -0.162109 -1.9668
c0 -6.62402 5.37598 -12 12 -12c1.62793 0 4.11914 0.612305 5.56152 1.36719l49 25.7998l49 -25.7998c1.44238 -0.754883 3.93457 -1.36719 5.5625 -1.36719c6.62402 0 12 5.37598 12 12c0 0.546875 -0.0722656 1.42773 -0.162109 1.9668l-9.40039 54.6006zM512 304v16
h-64.2002c-0.623047 -24.2236 -6.35742 -62.8408 -12.7998 -86.2002c47.5996 16.4004 77 50 77 70.2002z" />
    <glyph glyph-name="times-hexagon-primary" unicode="&#xf2ee;" horiz-adv-x="576" 
d="M409.6 127c1.94824 -1.94141 3.53027 -5.74902 3.53027 -8.5s-1.58203 -6.55859 -3.53027 -8.5l-39.3799 -39.7998c-1.94141 -1.94824 -5.74902 -3.5293 -8.5 -3.5293c-2.75 0 -6.55859 1.58105 -8.5 3.5293l-65.0996 65.0996l-65.1201 -65.0996
c-1.94141 -1.94824 -5.74902 -3.5293 -8.5 -3.5293s-6.55859 1.58105 -8.5 3.5293l-39.5996 39.5996c-1.94824 1.94141 -3.53027 5.75 -3.53027 8.5c0 2.75098 1.58203 6.55859 3.53027 8.5l65.0898 65.1006l-65.0498 65.0996
c-1.94824 1.94141 -3.53027 5.74902 -3.53027 8.5s1.58203 6.55859 3.53027 8.5l39.5 39.7002c1.94141 1.94824 5.74902 3.5293 8.5 3.5293c2.75 0 6.55762 -1.58105 8.5 -3.5293l65.0596 -65.1006l65 65c1.94141 1.94824 5.74902 3.53027 8.5 3.53027
s6.55859 -1.58203 8.5 -3.53027l39.6904 -39.5c1.94824 -1.94141 3.5293 -5.74902 3.5293 -8.5c0 -2.75 -1.58105 -6.55762 -3.5293 -8.5l-65.0801 -65.0996z" />
    <glyph glyph-name="star-exclamation-primary" unicode="&#xf2f3;" horiz-adv-x="576" 
d="M288 136h0.0703125c22.0801 0 40 -17.9199 40 -40v0c0 -22.0801 -17.9199 -40 -40 -40s-40 17.9199 -40 40c0 22.041 17.8887 39.9619 39.9297 40zM320.16 288l0.540039 -0.0400391c4.0918 -0.300781 7.41211 -3.87598 7.41211 -7.97852
c0 -0.166016 -0.00976562 -0.435547 -0.0224609 -0.601562l-8 -112c-0.306641 -4.08496 -3.88086 -7.40039 -7.97754 -7.40039c-0.00585938 0 -0.015625 0.000976562 -0.0224609 0.000976562h-48.0898c-0.00585938 0 -0.0166016 -0.000976562 -0.0224609 -0.000976562
c-4.09668 0 -7.66992 3.31543 -7.97754 7.40039l-8 112v0.620117c0 4.41602 3.58398 8 8 8h64.1602z" />
    <glyph glyph-name="plus-hexagon-primary" unicode="&#xf300;" horiz-adv-x="576" 
d="M432 164c0 -6.62402 -5.37598 -12 -12 -12h-92v-92c0 -6.62402 -5.37598 -12 -12 -12h-56c-6.62402 0 -12 5.37598 -12 12v92h-92c-6.62402 0 -12 5.37598 -12 12v56c0 6.62402 5.37598 12 12 12h92v92c0 6.62402 5.37598 12 12 12h56c6.62402 0 12 -5.37598 12 -12v-92
h92c6.62402 0 12 -5.37598 12 -12v-56z" />
    <glyph glyph-name="minus-hexagon-primary" unicode="&#xf307;" horiz-adv-x="576" 
d="M432 220v-56c0 -6.62402 -5.37598 -12 -12 -12h-264c-6.62402 0 -12 5.37598 -12 12v56c0 6.62402 5.37598 12 12 12h264c6.62402 0 12 -5.37598 12 -12z" />
    <glyph glyph-name="chevron-double-left-primary" unicode="&#xf323;" 
d="M35 209l194 194c3.85938 3.88672 11.4375 7.04004 16.915 7.04004c5.43164 0 12.9648 -3.10938 16.8154 -6.94043l0.0996094 -0.0996094l22.6104 -22.7002c3.88477 -3.86328 7.03711 -11.4453 7.03711 -16.9248c0 -5.43359 -3.10742 -12.9707 -6.9375 -16.8252
l-0.0996094 -0.0996094l-153.681 -154.45l153.681 -154.45c3.84082 -3.88086 6.95898 -11.4639 6.95898 -16.9248s-3.11816 -13.0439 -6.95898 -16.9248l-22.6504 -22.7002c-3.85938 -3.88672 -11.4375 -7.04004 -16.915 -7.04004
c-5.43164 0 -12.9648 3.10938 -16.8154 6.94043l-0.0996094 0.0996094l-193.96 194c-3.85742 3.89941 -6.98926 11.5146 -6.98926 17s3.13184 13.1006 6.98926 17z" />
    <glyph glyph-name="chevron-double-right-primary" unicode="&#xf324;" 
d="M478 175l-194.81 -194c-3.88184 -3.88867 -11.4912 -7.04395 -16.9854 -7.04395c-5.44824 0 -13.0127 3.11035 -16.8848 6.94434l-0.100586 0.0996094l-22.75 22.7002c-3.89844 3.85742 -7.0625 11.4395 -7.0625 16.9248c0 5.43848 3.11914 12.9766 6.96289 16.8252
l0.0996094 0.0996094l154.33 154.45l-154.33 154.45c-3.85449 3.87598 -6.9834 11.458 -6.9834 16.9248s3.12891 13.0488 6.9834 16.9248l22.75 22.7002c3.88184 3.88867 11.4912 7.04395 16.9854 7.04395c5.44824 0 13.0127 -3.11035 16.8848 -6.94434
c0.0302734 -0.0253906 0.0742188 -0.0703125 0.100586 -0.0996094l194.81 -194c3.87598 -3.8916 7.02148 -11.5078 7.02148 -17s-3.14551 -13.1084 -7.02148 -17z" />
    <glyph glyph-name="arrows-alt-v-primary" unicode="&#xf338;" horiz-adv-x="256" 
d="M42 313.92c-21.3203 0 -32 25.8398 -17 40.9902l86.1104 86.0898c3.87793 3.86621 11.4688 7.00391 16.9443 7.00391c5.47656 0 13.0674 -3.1377 16.9453 -7.00391l85.9404 -86.0801c15.0898 -15.1299 4.39941 -41 -17 -41h-171.94zM213.94 70
c21.3896 0 32.0596 -25.7695 16.9893 -41l-85.9297 -86c-3.87598 -3.8584 -11.4609 -6.98926 -16.9297 -6.98926c-5.46973 0 -13.0537 3.13086 -16.9307 6.98926l-86 86c-15.0898 15.1201 -4.39941 41 17 41h171.801z" />
    <glyph glyph-name="arrow-to-bottom-primary" unicode="&#xf33d;" horiz-adv-x="384" 
d="M327.87 257.48l17.0596 -17c3.9043 -3.86621 7.07227 -11.4619 7.07227 -16.9551c0 -5.41602 -3.0918 -12.9365 -6.90234 -16.7852l-0.169922 -0.169922l-135.93 -135.57c-3.88281 -3.89648 -11.499 -7.05859 -17 -7.05859c-5.47363 0 -13.0625 3.13477 -16.9404 6.99902
l-0.0595703 0.0595703l-135.93 135.57c-3.9043 3.86523 -7.07227 11.4609 -7.07227 16.9551c0 5.41602 3.0918 12.9355 6.90234 16.7842l0.169922 0.170898l17.0596 17c3.88281 3.89648 11.499 7.05859 17 7.05859c5.47363 0 13.0625 -3.13574 16.9404 -6.99902
l0.0595703 -0.0595703l65.8105 -65.6104v200.13c0 13.248 10.752 24 24 24h24.1396h0.0703125c13.209 0 23.9609 -10.7207 24 -23.9297v-200.2l65.8496 65.6104c3.86816 3.88086 11.4551 7.03027 16.9346 7.03027c5.44824 0 13.0039 -3.11816 16.8652 -6.96094z" />
    <glyph glyph-name="external-link-alt-primary" unicode="&#xf35d;" 
d="M512 424v-128c0 -21.4697 -26 -32 -41 -17l-35.71 35.71l-243.49 -243.479c-3.87988 -3.88086 -11.4824 -7.0293 -16.9697 -7.0293s-13.0898 3.14844 -16.9697 7.0293l-22.6299 22.6299c-3.88086 3.87988 -7.0293 11.4824 -7.0293 16.9697
s3.14844 13.0898 7.0293 16.9697l243.529 243.521l-35.71 35.6797c-15.0498 15.0996 -4.38965 41 16.9502 41h128c13.248 0 24 -10.752 24 -24z" />
    <glyph glyph-name="scanner-touchscreen-primary" unicode="&#xf48a;" horiz-adv-x="576" 
d="M312 448c4.41602 0 8 -3.58398 8 -8v-56h-32v56c0 4.41602 3.58398 8 8 8h16zM256 440v-56h-64v56c0 4.41602 3.58398 8 8 8h48c4.41602 0 8 -3.58398 8 -8zM408 448c4.41602 0 8 -3.58398 8 -8v-56h-64v56c0 4.41602 3.58398 8 8 8h48zM568 448
c4.41602 0 8 -3.58398 8 -8v-272c0 -4.41602 -3.58398 -8 -8 -8h-48c-4.41602 0 -8 3.58398 -8 8v272c0 4.41602 3.58398 8 8 8h48zM472 448c4.41602 0 8 -3.58398 8 -8v-272c0 -4.41602 -3.58398 -8 -8 -8h-16c-4.41602 0 -8 3.58398 -8 8v272c0 4.41602 3.58398 8 8 8h16z
M304 288c8.83203 0 16 -7.16797 16 -16v-256c0 -8.83203 -7.16797 -16 -16 -16h-192c-8.83203 0 -16 7.16797 -16 16v256c0 8.83203 7.16797 16 16 16h192z" />
    <glyph glyph-name="hand-holding-usd-primary" unicode="&#xf4c0;" horiz-adv-x="576" 
d="M329.28 225.6v-17.5996c0 -8.7998 -7.77051 -16 -17.2607 -16h-17.25c-9.47949 0 -17.25 7.2002 -17.25 16v17.7002c-10.1709 1.05664 -25.5283 6.20801 -34.2793 11.5c-3.04297 1.84766 -5.5127 6.23535 -5.5127 9.7959c0 1.76855 0.745117 4.43164 1.66211 5.94434
c0.504883 0.826172 1.50391 2.01855 2.23047 2.65918l18.8701 17.5c4 3.7002 10 4.2002 15.2002 2c2.94727 -1.2041 7.9248 -2.18945 11.1094 -2.19922h35.3604c5 0 9.05957 3.7998 9.05957 8.39941c-0.103516 3.62695 -3.05078 7.25586 -6.58008 8.10059l-53.9092 14.2998
c-23.9307 6.39941 -43.1309 24.7002 -46.25 47.7002c-4.31055 32 20.4795 59.3994 53.1494 63v17.5996c0 8.7998 7.75977 16 17.25 16h17.25c9.49023 0 17.25 -7.2002 17.25 -16v-17.7002c10.1738 -1.05859 25.5352 -6.21094 34.29 -11.5
c3.03516 -1.85254 5.49805 -6.24219 5.49805 -9.79785c0 -2.85645 -1.7373 -6.70996 -3.87793 -8.60156l-18.8701 -17.5c-4 -3.7002 -10 -4.2002 -15.2002 -2c-2.94824 1.2041 -7.9248 2.18945 -11.1094 2.19922h-35.3604c-5 0 -9.05957 -3.7998 -9.05957 -8.39941
c0.102539 -3.62695 3.05078 -7.25586 6.5791 -8.10059l53.9102 -14.2998c23.9307 -6.39941 43.1104 -24.7002 46.2402 -47.7002c4.31055 -32 -20.4297 -59.3994 -53.1396 -63z" />
    <glyph glyph-name="drum-primary" unicode="&#xf569;" 
d="M512 240v-160c0 -30.2305 -27.5 -57.6104 -72 -77.7598v101.76c0 13.248 -10.752 24 -24 24s-24 -10.752 -24 -24v-118.77c-33.0498 -9.10059 -71.0703 -15 -112 -16.7002v103.47c0 13.248 -10.752 24 -24 24s-24 -10.752 -24 -24v-103.47
c-40.9297 1.66992 -78.9502 7.59961 -112 16.7002v118.77c0 13.248 -10.752 24 -24 24s-24 -10.752 -24 -24v-101.76c-44.5 20.1494 -72 47.5293 -72 77.7598v160c-0.00195312 0.129883 -0.00292969 0.34082 -0.00292969 0.470703
c0 2.78418 0.59668 7.22363 1.33301 9.90918c13.7598 96.2998 213.4 101.62 254.67 101.62c17.5801 0 63.9004 -1 112.32 -9.58008l-62.5508 -40.3398c-16 1.20996 -32.5791 1.91992 -49.7695 1.91992c-114.87 0 -208 -28.6504 -208 -64s93.1299 -64 208 -64
s208 28.6504 208 64c0 21.2695 -33.8701 40.0703 -85.7695 51.7002l53.2295 34.2998c40.8604 -15 73.9102 -38.5 79.21 -75.6504c0.735352 -2.68457 1.33301 -7.12402 1.33301 -9.90723c0 -0.12207 -0.00195312 -0.320312 -0.00292969 -0.442383z" />
    <glyph glyph-name="brain-primary" unicode="&#xf5dc;" horiz-adv-x="576" 
d="M304 8.07031c0 -4.41602 -3.58398 -8 -8 -8h-16c-4.41602 0 -8 3.58398 -8 8v367.93c0 4.41602 3.58398 8 8 8h16c4.41602 0 8 -3.58398 8 -8v-367.93z" />
    <glyph glyph-name="directions-primary" unicode="&#xf5eb;" 
d="M401.63 202.12l-84.21 -77.7305c-1.26758 -1.16797 -3.69629 -2.11523 -5.41992 -2.11523c-4.41406 0 -7.99805 3.58203 -8 7.99512v53.7305h-96v-64c0 -4.41602 -3.58398 -8 -8 -8h-32c-4.41602 0 -8 3.58398 -8 8v80c0 17.6641 14.3359 32 32 32h112v53.7305
v0.00488281c0 4.41602 3.58398 8 8 8c1.72852 0 4.16113 -0.952148 5.42969 -2.125l84.21 -77.7305c1.41602 -1.31055 2.56543 -3.94043 2.56543 -5.87012c0 -1.72852 -0.952148 -4.16016 -2.125 -5.42969c-0.139648 -0.160156 -0.290039 -0.310547 -0.450195 -0.459961z
" />
    <glyph glyph-name="location-primary" unicode="&#xf601;" 
d="M496 224c8.83203 0 16 -7.16797 16 -16v-32c0 -8.83203 -7.16797 -16 -16 -16h-50.8799c-12.5645 -74.166 -82.9541 -144.556 -157.12 -157.12v-50.8799c0 -8.83203 -7.16797 -16 -16 -16h-32c-8.83203 0 -16 7.16797 -16 16v50.8799
c-74.166 12.5645 -144.556 82.9541 -157.12 157.12h-50.8799c-8.83203 0 -16 7.16797 -16 16v32c0 8.83203 7.16797 16 16 16h50.8799c12.5645 74.166 82.9541 144.556 157.12 157.12v50.8799c0 8.83203 7.16797 16 16 16h32c8.83203 0 16 -7.16797 16 -16v-50.8799
c74.166 -12.5645 144.556 -82.9541 157.12 -157.12h50.8799zM256 64c70.6562 0 128 57.3438 128 128s-57.3438 128 -128 128s-128 -57.3438 -128 -128s57.3438 -128 128 -128z" />
    <glyph glyph-name="route-interstate-primary" unicode="&#xf61b;" horiz-adv-x="480" 
d="M1.09961 256c-3.80957 51.7305 2.64062 99.7998 14.0801 136.87c3.61035 11.6895 15 19.0996 26.1807 16c15.7139 -4.41602 41.7139 -8 58.0371 -8h0.0625c49.1201 0 93.6104 16.0703 126.17 42.0996c3.47852 2.78516 9.91895 5.0459 14.375 5.0459
s10.8965 -2.26074 14.375 -5.0459c32.5605 -26 77.0498 -42.0996 126.17 -42.0996h0.0625c16.3232 0 42.3242 3.58398 58.0381 8c11.2598 3.14941 22.5801 -4.29004 26.1797 -16c11.4297 -37.0898 17.8799 -85.1602 14.0703 -136.87h-477.801z" />
    <glyph glyph-name="calculator-alt-primary" unicode="&#xf64c;" 
d="M162.91 87.6104c1.29199 -1.29395 2.34082 -3.82715 2.34082 -5.65527s-1.04883 -4.3623 -2.34082 -5.65527l-28.2803 -28.2998l28.2803 -28.29c1.29199 -1.29297 2.34082 -3.82617 2.34082 -5.65527c0 -1.82812 -1.04883 -4.36133 -2.34082 -5.6543l-11.3105 -11.3105
c-1.29297 -1.29199 -3.82617 -2.34082 -5.6543 -2.34082c-1.8291 0 -4.3623 1.04883 -5.65527 2.34082l-28.29 28.2803l-28.29 -28.29c-1.29297 -1.29199 -3.82617 -2.3418 -5.65527 -2.3418c-1.82812 0 -4.36133 1.0498 -5.6543 2.3418l-11.3105 11.3203
c-1.29199 1.29297 -2.34082 3.82617 -2.34082 5.6543c0 1.8291 1.04883 4.3623 2.34082 5.65527l28.2803 28.29l-28.29 28.29c-1.29199 1.29297 -2.3418 3.82617 -2.3418 5.65527c0 1.82812 1.0498 4.36133 2.3418 5.6543l11.3096 11.3105
c1.29395 1.29199 3.82715 2.34082 5.65527 2.34082s4.3623 -1.04883 5.65527 -2.34082l28.2998 -28.2803l28.29 28.29c1.29297 1.29199 3.82617 2.3418 5.65527 2.3418c1.82812 0 4.36133 -1.0498 5.6543 -2.3418zM344 320c-4.41602 0 -8 3.58398 -8 8v16
c0 4.41602 3.58398 8 8 8h40v40c0 4.41602 3.58398 8 8 8h16c4.41602 0 8 -3.58398 8 -8v-40h40c4.41602 0 8 -3.58398 8 -8v-16c0 -4.41602 -3.58398 -8 -8 -8h-40v-40c0 -4.41602 -3.58398 -8 -8 -8h-16c-4.41602 0 -8 3.58398 -8 8v40h-40zM168 352
c4.41602 0 8 -3.58398 8 -8v-16c0 -4.41602 -3.58398 -8 -8 -8h-112c-4.41602 0 -8 3.58398 -8 8v16c0 4.41602 3.58398 8 8 8h112zM480 160c17.6641 0 32 -14.3359 32 -32v-160c0 -17.6641 -14.3359 -32 -32 -32h-160c-17.6641 0 -32 14.3359 -32 32v160
c0 17.6641 14.3359 32 32 32h160zM464 8v16c0 4.41602 -3.58398 8 -8 8h-112c-4.41602 0 -8 -3.58398 -8 -8v-16c0 -4.41602 3.58398 -8 8 -8h112c4.41602 0 8 3.58398 8 8zM464 72v16c0 4.41602 -3.58398 8 -8 8h-112c-4.41602 0 -8 -3.58398 -8 -8v-16
c0 -4.41602 3.58398 -8 8 -8h112c4.41602 0 8 3.58398 8 8z" />
    <glyph glyph-name="gopuram-primary" unicode="&#xf664;" 
d="M496 96c8.83203 0 16 -7.16797 16 -16v-128c0 -8.83203 -7.16797 -16 -16 -16h-80v160h-32v128h-32v96h-32v-96h32v-128h32v-160h-80v80c0 8.83203 -7.16797 16 -16 16h-64c-8.83203 0 -16 -7.16797 -16 -16v-80h-80v160h32v128h32v96h-32v-96h-32v-128h-32v-160h-80
c-8.83203 0 -16 7.16797 -16 16v128c0 8.83203 7.16797 16 16 16h16v112c0 8.83203 7.16797 16 16 16h16v80c0 8.83203 7.16797 16 16 16h16v112c0 8.83203 7.16797 16 16 16s16 -7.16797 16 -16v-16h64v16c0 8.83203 7.16797 16 16 16s16 -7.16797 16 -16v-16h64v16
c0 8.83203 7.16797 16 16 16s16 -7.16797 16 -16v-16h64v16c0 8.83203 7.16797 16 16 16s16 -7.16797 16 -16v-112h16c8.83203 0 16 -7.16797 16 -16v-80h16c8.83203 0 16 -7.16797 16 -16v-112h16zM232 272v-48h48v48c0 8.83203 -7.16797 16 -16 16h-16
c-8.83203 0 -16 -7.16797 -16 -16zM288 96v64c0 8.83203 -7.16797 16 -16 16h-32c-8.83203 0 -16 -7.16797 -16 -16v-64h64z" />
    <glyph glyph-name="journal-whills-primary" unicode="&#xf66a;" horiz-adv-x="448" 
d="M96 64c-16 0 -32 -12.7998 -32 -32s12.7998 -32 32 -32h328c13.248 0 24 -10.752 24 -24v-16c0 -13.248 -10.752 -24 -24 -24h-328c-52.9922 0 -96 43.0078 -96 96v320c0 52.9922 43.0078 96 96 96h320c17.6641 0 32 -14.3359 32 -32v-328c0 -13.248 -10.752 -24 -24 -24
h-328zM133.08 303.61c-2.98047 -10.0908 -5.08105 -20.6104 -5.06152 -31.6299c0 -0.510742 0.150391 -0.990234 0.150391 -1.51074l37.1104 -32.4697c0.24707 -0.200195 0.487305 -0.410156 0.720703 -0.629883c1.30566 -1.2959 2.36426 -3.84082 2.36426 -5.67969
c0 -4.41895 -3.58594 -8.00488 -8.00391 -8.00488c-1.81641 0 -4.33887 1.03711 -5.62988 2.31445l-23.5908 20.6396c11.0225 -47.8115 59.7891 -86.6152 108.855 -86.6152c49.0654 0 97.833 38.8037 108.854 86.6152l-23.5898 -20.6396
c-1.29688 -1.31348 -3.84766 -2.37988 -5.69336 -2.37988c-4.41602 0 -8 3.58398 -8 8c0 2.19629 1.42188 5.05469 3.17383 6.37988l37.1094 32.4902c0.0107422 0.509766 0.150391 0.990234 0.150391 1.50977c-0.12207 8.92676 -2.39355 23.083 -5.07031 31.5996
l-21.2598 -21.2598v0c-1.29395 -1.29492 -3.8291 -2.3457 -5.66016 -2.3457c-4.41602 0 -8.00098 3.58398 -8.00098 8.00098c0 1.82812 1.04883 4.36133 2.34082 5.65527l26.4199 26.4199c-8.48438 17.6553 -29.2578 39.7236 -46.3691 49.2598
c5.28516 -8.45703 9.5752 -23.415 9.5752 -33.3887c0 -16.7236 -10.6025 -38.7695 -23.666 -49.2109c8.64648 -8.95801 15.6631 -26.3311 15.6631 -38.7803c0 -25.0273 -19.8789 -49.5107 -44.373 -54.6504l-1.42969 34.2803l12.6797 -8.62012
c0.555664 -0.369141 1.54688 -0.667969 2.21387 -0.667969c2.20801 0 4 1.79199 4 4c0 0.583984 -0.234375 1.4707 -0.523438 1.97754l-8.54004 14.3105l17.9102 3.71973c1.76855 0.359375 3.2041 2.11523 3.2041 3.91992s-1.43555 3.56152 -3.2041 3.91992l-17.9102 3.7207
l8.57031 14.2598c0.320312 0.52832 0.580078 1.45801 0.580078 2.0752c0 0.959961 -0.569336 2.26953 -1.27051 2.9248c-0.645508 0.59668 -1.88281 1.08008 -2.76172 1.08008c-0.672852 0 -1.67578 -0.299805 -2.23828 -0.669922l-14.2002 -9.65039l-4.67969 112.29
c0 2.20801 -1.79199 4 -4 4s-4 -1.79199 -4 -4l-4.67969 -110.81l-12 8.15918c-0.564453 0.387695 -1.57812 0.701172 -2.26172 0.701172c-2.20801 0 -4 -1.79199 -4 -4c0 -0.612305 0.255859 -1.53613 0.571289 -2.06055l8.54004 -14.3105l-17.9102 -3.71973
c-1.76855 -0.359375 -3.2041 -2.11523 -3.2041 -3.91992s1.43555 -3.56055 3.2041 -3.91992l17.9102 -3.71973l-8.54004 -14.3105c-0.295898 -0.511719 -0.536133 -1.4082 -0.536133 -2c0 -2.19434 1.78125 -3.98633 3.97656 -4
c0.676758 0.00878906 1.68457 0.318359 2.25 0.69043l10.3701 7l-1.36035 -32.71c-24.4961 5.14551 -44.3779 29.6357 -44.3779 54.667c0 12.4482 7.01465 29.8232 15.6582 38.7832c-13.042 10.4404 -23.626 32.4736 -23.626 49.1797
c0 10.002 4.3125 24.9961 9.62598 33.4697c-17.1113 -9.53516 -37.8857 -31.6035 -46.3701 -49.2598l26.4199 -26.4199v0c1.29199 -1.29395 2.34082 -3.82715 2.34082 -5.65527c0 -4.41602 -3.58398 -8.00098 -8.00098 -8.00098
c-1.83008 0 -4.36621 1.05078 -5.66016 2.3457z" />
    <glyph glyph-name="shredder-primary" unicode="&#xf68a;" 
d="M368 352c-8.83203 0 -16 7.16797 -16 16v80h4.57031h0.0439453c4.10547 0 9.79785 -2.35156 12.7061 -5.25l73.4297 -73.5c2.89746 -2.89648 5.24902 -8.57324 5.25 -12.6699v-4.58008h-80zM448 256c35.3281 0 64 -28.6719 64 -64v-112c0 -8.83203 -7.16797 -16 -16 -16
h-480c-8.83203 0 -16 7.16797 -16 16v112c0 35.3281 28.6719 64 64 64v-32h384v32zM432 120c13.248 0 24 10.752 24 24s-10.752 24 -24 24s-24 -10.752 -24 -24s10.752 -24 24 -24z" />
    <glyph glyph-name="chair-primary" unicode="&#xf6c0;" horiz-adv-x="448" 
d="M416.05 64v-112c0 -8.83203 -7.16797 -16 -16 -16h-32c-8.83203 0 -16 7.16797 -16 16v112h-256.05v-112c0 -8.83203 -7.16797 -16 -16 -16h-32c-8.83203 0 -16 7.16797 -16 16v112c-17.6689 0.0341797 -32.0088 14.4014 -32.0088 32.0703
c0 2.83887 0.720703 7.33301 1.6084 10.0293l10.7002 32c4.02148 12.0889 17.624 21.9004 30.3643 21.9004h0.0458984h362.54h0.0361328c12.7393 0 26.3428 -9.81152 30.3643 -21.9004l10.71 -32c0.902344 -2.71387 1.63574 -7.23926 1.63574 -10.0996
c0 -17.6338 -14.3125 -31.9697 -31.9463 -32z" />
    <glyph glyph-name="chair-office-primary" unicode="&#xf6c1;" horiz-adv-x="448" 
d="M64 224c0 -17.6641 -14.3359 -32 -32 -32s-32 14.3359 -32 32v64c0 17.6641 14.3359 32 32 32s32 -14.3359 32 -32v-64zM416 320c17.6641 0 32 -14.3359 32 -32v-64c0 -17.6641 -14.3359 -32 -32 -32s-32 14.3359 -32 32v64c0 17.6641 14.3359 32 32 32zM403.67 138.12
l10.6904 -32c0.90625 -2.71973 1.6416 -7.25391 1.6416 -10.1201c0 -17.6641 -14.3359 -32 -32 -32h-0.00195312h-128v-67.3604c28.2598 -6.00977 51 -19.6895 61.8301 -37.21c6.43945 -10.3398 -2.38965 -23.4297 -15 -23.4297h-157.68
c-12.5908 0 -21.4102 13.0898 -15 23.4297c10.8496 17.5205 33.5801 31.21 61.8496 37.21v67.3604h-128c-17.6543 0.00976562 -31.9824 14.3457 -31.9824 32c0 2.86621 0.735352 7.40039 1.64258 10.1201l10.6699 32c4.02637 12.0781 17.626 21.8799 30.3574 21.8799
h0.00292969h298.619h0.00292969c12.7314 0 26.3311 -9.80176 30.3574 -21.8799z" />
    <glyph glyph-name="flame-primary" unicode="&#xf6df;" horiz-adv-x="384" 
d="M252.09 235.08c33.3799 -28.54 67.9004 -58 67.9004 -117.21c0 -65 -57.4102 -117.87 -128 -117.87s-127.99 52.8896 -127.99 117.89c0 44.1104 25.8398 71.5107 34.3398 79.7607c1.29395 1.29492 3.8291 2.3457 5.66016 2.3457c4.41406 0 7.99805 -3.58203 8 -7.99609
v-40c0 -30.9121 25.0879 -56 56 -56s56 25.0879 56 56c0 72 -112.64 64.7695 -39.4297 164.33c1.55176 2.04395 4.89551 3.7041 7.46191 3.7041c0.885742 0 2.28223 -0.239258 3.11816 -0.53418c1.61914 -0.530273 5.37988 -2.24023 5.37988 -6.78027
c0 -33.5596 25 -55 51.5596 -77.6396z" />
    <glyph glyph-name="flask-poison-primary" unicode="&#xf6e0;" horiz-adv-x="416" 
d="M96 384c-8.83203 0 -16 7.16797 -16 16v32c0 8.83203 7.16797 16 16 16h224c8.83203 0 16 -7.16797 16 -16v-32c0 -8.83203 -7.16797 -16 -16 -16h-224zM304 278.95c67.2002 -36.1299 113.71 -107.67 112 -187.62c-0.911133 -42.6133 -24.8477 -102.86 -53.4297 -134.48
c-10.5068 -11.5088 -31.6826 -20.8506 -47.2666 -20.8506c-0.0839844 0 -0.219727 0.000976562 -0.303711 0.000976562h-214.07c-0.132812 -0.000976562 -0.350586 -0.00195312 -0.483398 -0.00195312c-15.2842 0 -36.123 9.0957 -46.5166 20.3018
c-29.7695 32.7188 -53.9297 95.1738 -53.9297 139.409v0.291016c0 80.1201 45.6104 149.15 112 183.88v72.1201h192v-73.0498zM272 63.9502c29 15.9102 48 42.1797 48 72.0498c0 48.5996 -50.1299 88 -112 88s-112 -39.4004 -112 -88c0 -29.8701 19 -56.1699 48 -72.0801
v-31.9199c0 -8.83203 7.16797 -16 16 -16h96c8.83203 0 16 7.16797 16 16v31.9502z" />
    <glyph glyph-name="flask-potion-primary" unicode="&#xf6e1;" horiz-adv-x="416" 
d="M304 278.95c67.2002 -36.1299 113.71 -107.67 112 -187.62c-0.911133 -42.6133 -24.8477 -102.86 -53.4297 -134.48c-10.5068 -11.5088 -31.6826 -20.8506 -47.2666 -20.8506c-0.0839844 0 -0.219727 0.000976562 -0.303711 0.000976562h-214.07
c-0.132812 -0.000976562 -0.350586 -0.00195312 -0.483398 -0.00195312c-15.2842 0 -36.123 9.0957 -46.5166 20.3018c-29.7695 32.7188 -53.9297 95.1738 -53.9297 139.409v0.291016c0 80.1201 45.6104 149.15 112 183.88v72.1201h64v-110.87
c-23.6904 -12.3896 -112 -45.6201 -112 -145.13v-0.128906c0 -30.3359 16.4375 -73.2861 36.6904 -95.8711h214.6c19.5869 21.8408 36.0332 63.3711 36.71 92.7002c2.09961 98.1299 -87.4902 134.819 -112 148v111.3h64v-73.0498zM96 384c-8.83203 0 -16 7.16797 -16 16v32
c0 8.83203 7.16797 16 16 16h224c8.83203 0 16 -7.16797 16 -16v-32c0 -8.83203 -7.16797 -16 -16 -16h-224z" />
    <glyph glyph-name="hat-wizard-primary" unicode="&#xf6e8;" 
d="M240 32l16 32l64 32l-64 32l-32 64l-32 -64l-64 -32l64 -32l16 -32h-144l111 249.66c9.39551 21.1553 33.3271 47.6553 53.4199 59.1494l187.58 107.19l-56.2998 -168.92c-1.81348 -5.43945 -3.28516 -14.5068 -3.28516 -20.2393
c0 -7.25195 2.31836 -18.5459 5.1748 -25.2109l86.4102 -201.63h-208zM288 256l32 16l-32 16l-16 32l-16 -32l-32 -16l32 -16l16 -32z" />
    <glyph glyph-name="mandolin-primary" unicode="&#xf6f9;" 
d="M509.56 377.52l-40.0693 -64c-3.73535 -5.96484 -12.2959 -12.2373 -19.1104 -14l-56.0996 -14.5195l-115.65 -115.63l-45.25 45.25l115.62 115.64l14.5098 56.1201c1.7627 6.81445 8.03516 15.375 14 19.1104l64 40.0693
c2.15039 1.34766 5.95508 2.44043 8.49316 2.44043c3.66016 0 8.72949 -2.10156 11.3174 -4.69043l46 -46c2.58105 -2.58496 4.67578 -7.64941 4.67578 -11.3027c0 -2.53516 -1.0918 -6.33789 -2.43652 -8.4873z" />
    <glyph glyph-name="running-primary" unicode="&#xf70c;" horiz-adv-x="416" 
d="M384 224.19c0.348633 0.0136719 0.915039 0.0244141 1.26465 0.0244141c17.6641 0 32 -14.3359 32 -32s-14.3359 -32 -32 -32c-0.349609 0 -0.916016 0.0117188 -1.26465 0.0253906h-54c-16.4951 0.0771484 -35.8037 12.1465 -43.0996 26.9395l-20.2705 41.3906
l-31.3096 -78.21l61.2393 -36.1104c12.9365 -7.7373 23.4365 -26.25 23.4365 -41.3232c0 -3.66406 -0.804688 -9.5 -1.7959 -13.0264l-31.6006 -101c-0.0898438 -0.300781 -0.179688 -0.600586 -0.279297 -0.900391c-4.08789 -11.9453 -17.6514 -21.6396 -30.2764 -21.6396
c-17.6641 0 -32 14.3359 -32 32c0 2.72363 0.666016 7.04199 1.48633 9.63965l27.4697 87.6396l-85 50.1299c-17.3506 10.2754 -31.4326 34.9805 -31.4326 55.1465c0 7.21094 2.29004 18.4482 5.1123 25.084l37.46 87.29l-14.6992 4.36035
c-7.83008 1.86914 -17.6006 -0.25 -25.2705 -6.13086l-39.6895 -30.3896l-0.180664 -0.129883c-4.82715 -3.83887 -13.751 -6.95508 -19.9189 -6.95508c-17.6641 0 -32 14.3359 -32 32c0 8.98633 5.89551 20.5742 13.1592 25.8652l39.6699 30.3896
c14.2295 10.9385 40.3447 19.8154 58.293 19.8154c6.31152 0 16.4131 -1.20703 22.5469 -2.69531l71.1104 -21.1299c26.3301 -6.7002 49.2803 -25.3701 61.7803 -50.9004l26.0596 -53.1992h44zM113.69 130.79c6.79688 -15.0459 23.8105 -34.1221 37.9893 -42.5801
l10.6699 -6.2998l-8.79004 -20.5c-6.85645 -16.041 -26.5801 -29.0605 -44.0254 -29.0605h-0.0839844h-77.4502c-0.381836 -0.0166016 -1.00293 -0.0292969 -1.38574 -0.0292969c-17.6631 0 -32 14.3359 -32 32s14.3369 32 32 32
c0.382812 0 1.00391 -0.0136719 1.38574 -0.0302734h66.8896z" />
    <glyph glyph-name="guitar-primary" unicode="&#xf7a6;" 
d="M502.63 363.78l-46.3203 -46.3203c-3.24902 -3.25391 -9.42773 -7.0752 -13.79 -8.53027l-36.4697 -12.1602l-150.33 -150.35c-1.20215 23.7607 -21.4609 44.0508 -45.2197 45.29l150.29 150.29l12.21 36.5098c1.45508 4.3623 5.27637 10.54 8.53027 13.79
l46.2598 46.3301c5.17383 5.1748 15.3125 9.375 22.6299 9.375c7.31836 0 17.4561 -4.2002 22.6299 -9.375l29.5801 -29.6299c5.16406 -5.17188 9.35547 -15.3018 9.35547 -22.6104s-4.19141 -17.4375 -9.35547 -22.6094z" />
    <glyph glyph-name="print-search-primary" unicode="&#xf81a;" horiz-adv-x="672" 
d="M368 352c-8.83203 0 -16 7.16797 -16 16v80h4.57031h0.0439453c4.10547 0 9.79785 -2.35156 12.7061 -5.25l73.4297 -73.5c2.89746 -2.89648 5.24902 -8.57324 5.25 -12.6699v-4.58008h-80zM352 224c-17.6816 -23.5508 -32.0332 -66.5664 -32.0332 -96.0166
c0 -17.8936 5.65527 -45.792 12.623 -62.2734c0.240234 -0.570312 0.5 -1.13965 0.740234 -1.70996h-317.33c-8.83203 0 -16 7.16797 -16 16v112c0 35.3281 28.6719 64 64 64v-32h288zM667.31 -14.0596c2.58789 -2.58691 4.68848 -7.65625 4.68848 -11.3154
s-2.10059 -8.72852 -4.68848 -11.3154l-22.6191 -22.6191c-2.58691 -2.58789 -7.65625 -4.68848 -11.3154 -4.68848s-8.72852 2.10059 -11.3154 4.68848l-77.4092 77.4199c-19.04 -11.2305 -40.9502 -18.1104 -64.6504 -18.1104c-70.6562 0 -128 57.3438 -128 128
s57.3438 128 128 128s128 -57.3438 128 -128c-0.0908203 -19.2168 -8.19922 -48.1797 -18.0996 -64.6504zM480 64c35.3281 0 64 28.6719 64 64s-28.6719 64 -64 64s-64 -28.6719 -64 -64s28.6719 -64 64 -64z" />
    <glyph glyph-name="album-primary" unicode="&#xf89f;" horiz-adv-x="448" 
d="M224 352c88.3203 0 160 -71.6797 160 -160s-71.6797 -160 -160 -160s-160 71.6797 -160 160s71.6797 160 160 160zM224 160c17.6641 0 32 14.3359 32 32s-14.3359 32 -32 32s-32 -14.3359 -32 -32s14.3359 -32 32 -32z" />
    <glyph glyph-name="album-collection-primary" unicode="&#xf8a0;" 
d="M480 424v-24h-448v24c0 13.248 10.752 24 24 24h400c13.248 0 24 -10.752 24 -24zM472 368c13.248 0 24 -10.752 24 -24v-24h-480v24c0 13.248 10.752 24 24 24h432zM256 238.6c104.18 0 184.29 -63.6992 179.2 -138.34
c-4.81055 -70.6299 -84.9307 -125.149 -179.19 -125.149s-174.39 54.5293 -179.2 125.149c-5.09961 74.6406 75.0107 138.34 179.19 138.34zM256 78.54c16.3604 0 29.7402 9.55957 29.8701 21.7197s-13.2402 22.0898 -29.8701 22.0898s-29.9902 -10.0498 -29.8604 -22.0898
s13.5 -21.7197 29.8604 -21.7197z" />
    <glyph glyph-name="amp-guitar-primary" unicode="&#xf8a1;" 
d="M465 365c26.4961 0 48 -21.5039 48 -48v-336c0 -26.4961 -21.5039 -48 -48 -48h-416c-26.4961 0 -48 21.5039 -48 48v336c0 26.4961 21.5039 48 48 48h416zM345 301c-13.248 0 -24 -10.752 -24 -24s10.752 -24 24 -24s24 10.752 24 24s-10.752 24 -24 24zM169 301
c-13.248 0 -24 -10.752 -24 -24s10.752 -24 24 -24s24 10.752 24 24s-10.752 24 -24 24zM89 301c-13.248 0 -24 -10.752 -24 -24s10.752 -24 24 -24s24 10.752 24 24s-10.752 24 -24 24zM449 -3v192h-384v-192h384zM425 253c13.248 0 24 10.752 24 24s-10.752 24 -24 24
s-24 -10.752 -24 -24s10.752 -24 24 -24z" />
    <glyph glyph-name="badge-sheriff-primary" unicode="&#xf8a2;" 
d="M428.79 125.74c-16.5098 -4.91992 -28.79 -19.6201 -28.8203 -37.7402c0 -2.83984 1.0498 -5.33008 1.62012 -8h-79l-43.1494 -72.4502c-6.66016 4.95996 -14.4404 8.4502 -23.4404 8.4502s-16.9004 -3.53027 -23.5898 -8.5498l-43.1504 72.5498h-78.8799
c0.620117 2.66992 1.62012 5.16016 1.62012 8c0 18.1104 -12.2598 32.7998 -28.7598 37.7305l39.46 66.21l-39.46 66.3193c16.5098 4.91992 28.79 19.6201 28.79 37.7402c0 2.83984 -1.0498 5.33008 -1.62012 8h79l43.1494 72.4502
c6.66016 -4.95996 14.4404 -8.4502 23.4404 -8.4502s16.9004 3.53027 23.5898 8.5498l43.1504 -72.5498h78.8799c-0.570312 -2.66992 -1.62012 -5.16016 -1.62012 -8c0 -18.1104 12.2598 -32.7998 28.7598 -37.7305l-39.4297 -66.21zM256 128c35.3281 0 64 28.6719 64 64
s-28.6719 64 -64 64s-64 -28.6719 -64 -64s28.6719 -64 64 -64z" />
    <glyph glyph-name="banjo-primary" unicode="&#xf8a3;" 
d="M194.34 66.3398c-1.29492 -1.30078 -3.83496 -2.35645 -5.66992 -2.35645s-4.375 1.05566 -5.66992 2.35645l-52.6299 52.6904c-1.29297 1.29297 -2.3418 3.82617 -2.3418 5.6543c0 1.8291 1.04883 4.3623 2.3418 5.65527l11.3096 11.3105
c1.29395 1.29492 3.83008 2.3457 5.66016 2.3457c1.83105 0 4.36621 -1.05078 5.66016 -2.3457l52.6504 -52.6807c1.29492 -1.29297 2.3457 -3.8291 2.3457 -5.66016c0 -1.83008 -1.05078 -4.36621 -2.3457 -5.65918zM502.63 409
c5.15039 -5.16992 9.33008 -15.2881 9.33008 -22.585s-4.17969 -17.415 -9.33008 -22.585l-46.3203 -46.3105c-3.24805 -3.25391 -9.42578 -7.07031 -13.79 -8.51953l-36.3496 -12.1201l-74.8799 -74.8799c-10.0918 14.8906 -30.3809 35.1455 -45.29 45.21l74.8096 74.7197
l12.1904 36.5898c1.44238 4.3584 5.24219 10.5361 8.48047 13.79l46.3096 46.3203c5.17383 5.1748 15.3125 9.375 22.6299 9.375c7.31836 0 17.4561 -4.2002 22.6299 -9.375zM56.4805 226.52l-0.230469 0.230469c-3.87109 4.16016 -7.01172 12.1494 -7.01172 17.832
c0 14.4512 11.7285 26.1797 26.1797 26.1797c5.68262 0 13.6719 -3.14062 17.832 -7.01172l0.230469 -0.230469c-11.8184 -8.60547 -28.3945 -25.1816 -37 -37zM56.4805 29.5195c8.60449 -11.8076 25.1807 -28.4004 37 -36.9893l-0.230469 -0.230469
c-4.28711 -4.60742 -12.874 -8.34766 -19.168 -8.34766c-14.4512 0 -26.1797 11.7285 -26.1797 26.1797c0 6.29395 3.73926 14.8809 8.34766 19.168zM26.1797 154.22l0.459961 -0.0400391c-1.34961 -8.58984 -2.63965 -17.1797 -2.63965 -26.1797
s1.29004 -17.5898 2.63965 -26.1396h-0.459961c-14.4512 0 -26.1797 11.7285 -26.1797 26.1797s11.7285 26.1797 26.1797 26.1797zM327.52 29.5195l0.230469 -0.229492c4.6084 -4.28711 8.34766 -12.874 8.34766 -19.168c0 -14.4512 -11.7285 -26.1797 -26.1797 -26.1797
c-6.29395 0 -14.8809 3.73926 -19.168 8.34766l-0.230469 0.229492c11.8223 8.60254 28.3984 25.1787 37 37zM357.82 154.22c14.4512 0 26.1797 -11.7686 26.1797 -26.2197s-11.7285 -26.1797 -26.1797 -26.1797h-0.459961c1.34961 8.58984 2.63965 17.1797 2.63965 26.1797
s-1.29004 17.5898 -2.63965 26.2197h0.459961zM165.82 -37.3203c8.58984 -1.34961 17.1797 -2.67969 26.1797 -2.67969s17.5898 1.29004 26.1797 2.67969v-0.459961c0 -14.4512 -11.7285 -26.1797 -26.1797 -26.1797s-26.1797 11.7285 -26.1797 26.1797v0.459961zM192 320
c14.4463 -0.00585938 26.1748 -11.7344 26.1797 -26.1797v-0.459961c-8.58984 1.34961 -17.1797 2.63965 -26.1797 2.63965s-17.5898 -1.29004 -26.1797 -2.63965v0.459961c0 14.4512 11.7285 26.1797 26.1797 26.1797v0z" />
    <glyph glyph-name="betamax-primary" unicode="&#xf8a4;" 
d="M496 384c8.83203 0 16 -7.16797 16 -16v-80h-512v80c0 8.83203 7.16797 16 16 16h480zM144 224c44.1602 0 80 -35.8398 80 -80s-35.8398 -80 -80 -80s-80 35.8398 -80 80s35.8398 80 80 80zM144 112c17.6641 0 32 14.3359 32 32s-14.3359 32 -32 32s-32 -14.3359 -32 -32
s14.3359 -32 32 -32z" />
    <glyph glyph-name="boombox-primary" unicode="&#xf8a5;" horiz-adv-x="640" 
d="M552 448c30.8789 -0.0332031 55.9668 -25.1211 56 -56v-106.94c-4.27539 1.5791 -11.4434 2.89648 -16 2.94043h-32v104c0 4.41602 -3.58398 8 -8 8h-464c-4.41602 0 -8 -3.58398 -8 -8v-104h-32c-4.55664 -0.0439453 -11.7246 -1.36133 -16 -2.94043v106.94
c0.0380859 30.873 25.127 55.9619 56 56h464zM256 304v-16h-64v16c0 8.83203 7.16797 16 16 16h32c8.83203 0 16 -7.16797 16 -16zM448 304v-16h-64v16c0 8.83203 7.16797 16 16 16h32c8.83203 0 16 -7.16797 16 -16zM352 304v-16h-64v16c0 8.83203 7.16797 16 16 16h32
c8.83203 0 16 -7.16797 16 -16zM464 224c61.7578 -0.0664062 111.934 -50.2422 112 -112c0 -61.8242 -50.1758 -112 -112 -112s-112 50.1758 -112 112s50.1758 112 112 112zM464 48c35.2891 0.0380859 63.9619 28.7109 64 64c0 35.3281 -28.6719 64 -64 64
s-64 -28.6719 -64 -64s28.6719 -64 64 -64zM176 224c61.7578 -0.0664062 111.934 -50.2422 112 -112c0 -61.8242 -50.1758 -112 -112 -112s-112 50.1758 -112 112s50.1758 112 112 112zM176 48c35.2891 0.0380859 63.9619 28.7109 64 64c0 35.3281 -28.6719 64 -64 64
s-64 -28.6719 -64 -64s28.6719 -64 64 -64z" />
    <glyph glyph-name="cactus-primary" unicode="&#xf8a7;" 
d="M352 352v-416h-192v416c0 52.9922 43.0078 96 96 96s96 -43.0078 96 -96zM224 272c8.83203 0 16 7.16797 16 16s-7.16797 16 -16 16s-16 -7.16797 -16 -16s7.16797 -16 16 -16zM288 48c8.83203 0 16 7.16797 16 16s-7.16797 16 -16 16s-16 -7.16797 -16 -16
s7.16797 -16 16 -16z" />
    <glyph glyph-name="camcorder-primary" unicode="&#xf8a8;" horiz-adv-x="576" 
d="M525.59 282.3c21.3203 14.6104 50.4102 -0.389648 50.4102 -25.7998v-256.91c0 -25.5 -29.2002 -40.3896 -50.4102 -25.79l-109.59 75.5v157.4zM313.6 224c3.52734 -0.00585938 6.39453 -2.87305 6.40039 -6.40039v-19.1992
c-0.00585938 -3.52734 -2.87305 -6.39453 -6.40039 -6.40039h-243.199c-3.52734 0.00585938 -6.39453 2.87305 -6.40039 6.40039v19.1992c0.00585938 3.52734 2.87305 6.39453 6.40039 6.40039h243.199z" />
    <glyph glyph-name="camera-movie-primary" unicode="&#xf8a9;" horiz-adv-x="576" 
d="M535.68 187.41c17.0508 11.6895 40.3203 -0.310547 40.3203 -20.6406v-205.529c0 -20.4102 -23.3203 -32.3203 -40.3203 -20.6406l-87.6797 60.4004v125.93zM352 448c70.6562 0 128 -57.3438 128 -128s-57.3438 -128 -128 -128h-224c-70.6562 0 -128 57.3438 -128 128
s57.3438 128 128 128c48.5703 0 90.3096 -27.3701 112 -67.2402c21.6904 39.8701 63.4297 67.2402 112 67.2402zM128 256c35.2891 0.0380859 63.9619 28.7109 64 64c0 35.3281 -28.6719 64 -64 64s-64 -28.6719 -64 -64s28.6719 -64 64 -64zM352 256
c35.2891 0.0380859 63.9619 28.7109 64 64c0 35.3281 -28.6719 64 -64 64s-64 -28.6719 -64 -64s28.6719 -64 64 -64z" />
    <glyph glyph-name="camera-polaroid-primary" unicode="&#xf8aa;" horiz-adv-x="576" 
d="M574.43 96c0.851562 -2.60645 1.55566 -6.94824 1.57031 -9.69043v-86.3096c0 -17.6641 -14.3359 -32 -32 -32h-512c-17.6641 0 -32 14.3359 -32 32v86.3096c0.0146484 2.74219 0.71875 7.08398 1.57031 9.69043h572.859zM480 40v16c0 4.41602 -3.58398 8 -8 8h-368
c-4.41602 0 -8 -3.58398 -8 -8v-16c0 -4.41602 3.58398 -8 8 -8h368c4.41602 0 8 3.58398 8 8zM288 192c-35.2734 0.0546875 -63.9453 28.7266 -64 64c0 35.3281 28.6719 64 64 64s64 -28.6719 64 -64s-28.6719 -64 -64 -64z" />
    <glyph glyph-name="cassette-tape-primary" unicode="&#xf8ab;" 
d="M368 288c35.3281 0 64 -28.6719 64 -64s-28.6719 -64 -64 -64h-224c-35.3281 0 -64 28.6719 -64 64s28.6719 64 64 64h224zM144 208c8.83203 0 16 7.16797 16 16s-7.16797 16 -16 16s-16 -7.16797 -16 -16s7.16797 -16 16 -16zM205.73 208h100.539
c-1.25293 4.32715 -2.26953 11.4951 -2.26953 16s1.0166 11.6729 2.26953 16h-100.539c1.25293 -4.32715 2.26953 -11.4951 2.26953 -16s-1.0166 -11.6729 -2.26953 -16zM368 208c8.83203 0 16 7.16797 16 16s-7.16797 16 -16 16s-16 -7.16797 -16 -16s7.16797 -16 16 -16z
" />
    <glyph glyph-name="cctv-primary" unicode="&#xf8ac;" horiz-adv-x="576" 
d="M4.23047 265l95.3398 166.87c5.08496 8.90234 17.5332 16.1279 27.7861 16.1279c3.40137 0 8.72559 -1.02441 11.8838 -2.28809l378.2 -166.29c24.3291 -9.72949 27.29 -43 5.0791 -56.8496l-189.289 -118.301c-4.29688 -2.68457 -11.8945 -4.86426 -16.9609 -4.86426
c-3.11035 0 -8.00684 0.862305 -10.9297 1.9248l-284.26 117.74c-11.623 4.22949 -21.0566 17.7012 -21.0566 30.0703c0 4.68555 1.88477 11.79 4.20703 15.8594z" />
    <glyph glyph-name="clarinet-primary" unicode="&#xf8ad;" horiz-adv-x="640" 
d="M368 216c13.248 0 24 -10.752 24 -24s-10.752 -24 -24 -24s-24 10.752 -24 24s10.752 24 24 24zM272 216c13.248 0 24 -10.752 24 -24s-10.752 -24 -24 -24s-24 10.752 -24 24s10.752 24 24 24zM504 336c4.41602 0 8 -3.58398 8 -8v-16c0 -4.41602 -3.58398 -8 -8 -8h-24
v-32h-32v32h-64v-32h-32v32h-64v-32h-32v32h-24c-4.41602 0 -8 3.58398 -8 8v16c0 4.41602 3.58398 8 8 8h272zM464 216c13.248 0 24 -10.752 24 -24s-10.752 -24 -24 -24s-24 10.752 -24 24s10.752 24 24 24z" />
    <glyph glyph-name="cloud-music-primary" unicode="&#xf8ae;" horiz-adv-x="640" 
d="M208 96c4.48047 -0.0390625 11.6484 -0.93457 16 -2v114.75c0.00390625 6.47266 5.01758 13.3047 11.1904 15.25l128 47.25c1.2959 0.408203 3.4502 0.740234 4.80957 0.740234c8.82617 0 15.9941 -7.16406 16 -15.9902v-160c0 -17.6699 -21.5 -32 -48 -32
s-48 14.3301 -48 32s21.5 32 48 32c4.48047 -0.0390625 11.6484 -0.93457 16 -2v76.3604l-96 -37.5205v-100.84c0 -17.6699 -21.5 -32 -48 -32s-48 14.3301 -48 32s21.5 32 48 32z" />
    <glyph glyph-name="comment-alt-music-primary" unicode="&#xf8af;" 
d="M176 192c4.48047 -0.0390625 11.6484 -0.93457 16 -2v114.75c0.00390625 6.47266 5.01758 13.3047 11.1904 15.25l128 47.25c1.2959 0.408203 3.4502 0.740234 4.80957 0.740234c8.82617 0 15.9941 -7.16406 16 -15.9902v-160c0 -17.6699 -21.5 -32 -48 -32
s-48 14.3301 -48 32s21.5 32 48 32c4.48047 -0.0390625 11.6484 -0.93457 16 -2v76.3604l-96 -37.5205v-100.84c0 -17.6699 -21.5 -32 -48 -32s-48 14.3301 -48 32s21.5 32 48 32z" />
    <glyph glyph-name="comment-music-primary" unicode="&#xf8b0;" 
d="M176 160c4.48047 -0.0390625 11.6484 -0.93457 16 -2v114.75c0.00390625 6.47266 5.01758 13.3047 11.1904 15.25l128 47.25c1.2959 0.408203 3.4502 0.740234 4.80957 0.740234c8.82617 0 15.9941 -7.16406 16 -15.9902v-160c0 -17.6699 -21.5 -32 -48 -32
s-48 14.3301 -48 32s21.5 32 48 32c4.48047 -0.0390625 11.6484 -0.93457 16 -2v76.3604l-96 -37.5205v-100.84c0 -17.6699 -21.5 -32 -48 -32s-48 14.3301 -48 32s21.5 32 48 32z" />
    <glyph glyph-name="computer-classic-primary" unicode="&#xf8b1;" horiz-adv-x="448" 
d="M384 224c0 -17.6641 -14.3359 -32 -32 -32h-256c-17.6641 0 -32 14.3359 -32 32v128c0 17.6641 14.3359 32 32 32h256c17.6641 0 32 -14.3359 32 -32v-128z" />
    <glyph glyph-name="computer-speaker-primary" unicode="&#xf8b2;" horiz-adv-x="640" 
d="M288 32v-16c0.0527344 -14.7783 7.40527 -36.2822 16.4102 -48h-176.41c-17.6641 0 -32 14.3359 -32 32s14.3359 32 32 32h160zM0 368c0 26.4961 21.5039 48 48 48h256.41c-9.00488 -11.7178 -16.3574 -33.2217 -16.4102 -48v-16h-224v-224h224v-64h-240
c-26.4961 0 -48 21.5039 -48 48v256zM480 288c-17.6641 0 -32 14.3359 -32 32s14.3359 32 32 32s32 -14.3359 32 -32s-14.3359 -32 -32 -32zM480 224c52.9922 0 96 -43.0078 96 -96s-43.0078 -96 -96 -96s-96 43.0078 -96 96s43.0078 96 96 96zM480 80
c26.4961 0 48 21.5039 48 48s-21.5039 48 -48 48s-48 -21.5039 -48 -48s21.5039 -48 48 -48z" />
    <glyph glyph-name="cowbell-primary" unicode="&#xf8b3;" horiz-adv-x="448" 
d="M447.49 -26.3496c0.277344 -1.54785 0.50293 -4.0791 0.50293 -5.65039c0 -17.6641 -14.3359 -32 -32 -32h-0.0634766h-383.859h-0.0634766c-17.6641 0 -32 14.3359 -32 32c0 1.57129 0.225586 4.10254 0.50293 5.65039l63.29 352
c2.63281 14.5449 16.7656 26.3496 31.5479 26.3496h0.0126953h257.279h0.0126953c14.7822 0 28.915 -11.8047 31.5479 -26.3496z" />
    <glyph glyph-name="cowbell-more-primary" unicode="&#xf8b4;" horiz-adv-x="640" 
d="M552 112c4.41602 0 8 -3.58398 8 -8v-16c0 -4.41602 -3.58398 -8 -8 -8h-56v-56c0 -4.41602 -3.58398 -8 -8 -8h-16c-4.41602 0 -8 3.58398 -8 8v56h-56c-4.41602 0 -8 3.58398 -8 8v16c0 4.41602 3.58398 8 8 8h56v56c0 4.41602 3.58398 8 8 8h16
c4.41602 0 8 -3.58398 8 -8v-56h56zM394.7 267.76c-63.2598 -31.4902 -106.92 -96.5498 -106.9 -171.76c0 -66.7402 34.3398 -125.58 86.2705 -160h-342h-0.0634766c-17.6641 0 -32 14.3359 -32 32c0 1.57129 0.225586 4.10254 0.50293 5.65039l63.3105 352
c2.6084 14.5449 16.7197 26.3496 31.4971 26.3496h0.0625h257.351h0.0117188c14.7822 0 28.915 -11.8047 31.5479 -26.3496z" />
    <glyph glyph-name="disc-drive-primary" unicode="&#xf8b5;" 
d="M496 32c8.83203 0 16 -7.16797 16 -16v-32c0 -8.83203 -7.16797 -16 -16 -16h-480c-8.83203 0 -16 7.16797 -16 16v32c0 8.83203 7.16797 16 16 16h16v320c0 35.3281 28.6719 64 64 64h320c35.3281 0 64 -28.6719 64 -64v-320h16zM256 32c88.3203 0 160 71.6797 160 160
s-71.6797 160 -160 160s-160 -71.6797 -160 -160s71.6797 -160 160 -160z" />
    <glyph glyph-name="file-music-primary" unicode="&#xf8b6;" horiz-adv-x="384" 
d="M288 224v-160c0 -17.6699 -21.5 -32 -48 -32s-48 14.3301 -48 32s21.5 32 48 32c4.48047 -0.0390625 11.6484 -0.93457 16 -2v76.3604l-96 -37.5205v-100.84c0 -17.6699 -21.5 -32 -48 -32s-48 14.3301 -48 32s21.5 32 48 32c4.48047 -0.0390625 11.6484 -0.93457 16 -2
v114.75c0.00390625 6.47266 5.01758 13.3047 11.1904 15.25l128 47.25c1.2959 0.408203 3.4502 0.740234 4.80957 0.740234c8.82617 0 15.9941 -7.16406 16 -15.9902z" />
    <glyph glyph-name="flashlight-primary" unicode="&#xf8b8;" horiz-adv-x="640" 
d="M608 352c17.6641 0 32 -14.3359 32 -32v-256c0 -17.6641 -14.3359 -32 -32 -32h-32v320h32zM288 224c17.6641 0 32 -14.3359 32 -32s-14.3359 -32 -32 -32h-32c-17.6641 0 -32 14.3359 -32 32s14.3359 32 32 32h32z" />
    <glyph glyph-name="flute-primary" unicode="&#xf8b9;" horiz-adv-x="640" 
d="M320 216c13.248 0 24 -10.752 24 -24s-10.752 -24 -24 -24s-24 10.752 -24 24s10.752 24 24 24zM0 240c0 17.6641 14.3359 32 32 32h64v-160h-64c-17.6641 0 -32 14.3359 -32 32v96zM416 216c13.248 0 24 -10.752 24 -24s-10.752 -24 -24 -24s-24 10.752 -24 24
s10.752 24 24 24zM512 216c13.248 0 24 -10.752 24 -24s-10.752 -24 -24 -24s-24 10.752 -24 24s10.752 24 24 24z" />
    <glyph glyph-name="game-console-handheld-primary" unicode="&#xf8bb;" horiz-adv-x="384" 
d="M112 224c-8.83203 0 -16 7.16797 -16 16v128c0 8.83203 7.16797 16 16 16h160c8.83203 0 16 -7.16797 16 -16v-112c0 -17.6641 -14.3359 -32 -32 -32h-144z" />
    <glyph glyph-name="gamepad-alt-primary" unicode="&#xf8bc;" horiz-adv-x="640" 
d="M280 212c0 -6.62402 -5.37598 -12 -12 -12h-52v-52c0 -6.62402 -5.37598 -12 -12 -12h-24c-6.62402 0 -12 5.37598 -12 12v52h-52c-6.62402 0 -12 5.37598 -12 12v24c0 6.62402 5.37598 12 12 12h52v52c0 6.62402 5.37598 12 12 12h24c6.62402 0 12 -5.37598 12 -12v-52
h52c6.62402 0 12 -5.37598 12 -12v-24z" />
    <glyph glyph-name="gramophone-primary" unicode="&#xf8bd;" horiz-adv-x="384" 
d="M368 0c8.83203 0 16 -7.16797 16 -16v-32c0 -8.83203 -7.16797 -16 -16 -16h-352c-8.83203 0 -16 7.16797 -16 16v32c0 8.83203 7.16797 16 16 16h16v32c0 17.6641 14.3359 32 32 32h256c17.6641 0 32 -14.3359 32 -32v-32h16z" />
    <glyph glyph-name="guitar-electric-primary" unicode="&#xf8be;" 
d="M511.21 408.43c0.452148 -2.41602 0.819336 -6.37207 0.819336 -8.83008c0 -26.4844 -21.4951 -47.9883 -47.9795 -48c-0.830078 0 -1.58008 0.290039 -2.39941 0.350586l-173 -172.931l-0.0908203 0.0507812l-44.75 45.5996l108.19 108.18v33.2705
c0.0234375 9.65039 6.62695 21.7236 14.7402 26.9502c83.9199 54.1396 83.7402 57.9297 106.68 53.6201c17.5449 -3.53223 34.4746 -20.6729 37.79 -38.2607zM129 117.63l52.6299 -52.6797c1.29297 -1.29297 2.3418 -3.82715 2.3418 -5.65527
s-1.04883 -4.36133 -2.3418 -5.65527l-11.3096 -11.3096c-1.29395 -1.29492 -3.83008 -2.34668 -5.66016 -2.34668c-1.83105 0 -4.36621 1.05176 -5.66016 2.34668l-52.6299 52.6797c-1.29297 1.29395 -2.3418 3.82715 -2.3418 5.65527s1.04883 4.36133 2.3418 5.65527
l11.3203 11.3096c1.29297 1.29297 3.82617 2.3418 5.6543 2.3418s4.3623 -1.04883 5.65527 -2.3418zM193 181.63l52.6299 -52.6895c1.29297 -1.29395 2.3418 -3.82715 2.3418 -5.65527s-1.04883 -4.3623 -2.3418 -5.65527l-11.3096 -11.3096
c-1.29395 -1.2959 -3.83008 -2.34668 -5.66016 -2.34668c-1.83105 0 -4.36621 1.05078 -5.66016 2.34668l-52.6201 52.6895c-1.29199 1.29395 -2.34082 3.82715 -2.34082 5.65527s1.04883 4.36133 2.34082 5.65527l11.3105 11.3096
c1.29297 1.29297 3.82617 2.3418 5.6543 2.3418s4.3623 -1.04883 5.65527 -2.3418z" />
    <glyph glyph-name="guitars-primary" unicode="&#xf8bf;" 
d="M505.48 47.1797c22.5195 -52.5898 -16.0801 -111.12 -73.3105 -111.18h-96.4102c-57.2197 0 -95.7598 58.4697 -73.1494 111.06l27 73.4805c2.44531 6.64941 4.43066 17.7949 4.43066 24.8799c0 8.96094 -3.11914 22.8047 -6.96094 30.9004
c-3.85742 8.10059 -6.99316 21.957 -7 30.9297v50.3301v0.00390625c0 9.6543 7.83496 17.4902 17.4902 17.4902c6.75391 0 14.1143 -5.14941 16.4297 -11.4941l13 -35.7598c4.16016 -11.3701 13.7002 -19.2607 25 -22.3701l8 -0.110352v91.6602l-22.8701 22.9297
c-4.38379 4.40918 -7.94238 13.0332 -7.94238 19.251c0 1.60449 0.274414 4.18066 0.612305 5.74902c17.8506 82.8906 15.4697 85.0898 31.8506 96.2402c5.66602 3.77441 15.791 6.83691 22.5986 6.83691c22.5049 0 40.7705 -18.2646 40.7705 -40.7705
c0 -9.31641 -5.34473 -22.2256 -11.9297 -28.8164c-1.30664 -1.17969 -3.58691 -2.88184 -5.08984 -3.7998v-169.92l8 -0.100586c11.2695 2 21.2598 8.63086 26.6201 19l10.6201 20.5508c2.84961 5.51562 10.2012 9.99316 16.4102 9.99316
c10.1914 0 18.4658 -8.27148 18.4697 -18.4639v-28.3193c-0.00683594 -8.97559 -3.14355 -22.8359 -7 -30.9404c-3.85254 -8.10938 -6.97852 -21.9785 -6.97852 -30.9561c0 -7.07031 1.97461 -18.1953 4.4082 -24.834zM432 56v16c0 4.41602 -3.58398 8 -8 8h-80
c-4.41602 0 -8 -3.58398 -8 -8v-16c0 -4.41602 3.58398 -8 8 -8h80c4.41602 0 8 3.58398 8 8zM432 120.12v16c0 4.41602 -3.58398 8 -8 8h-80c-4.41602 0 -8 -3.58398 -8 -8v-16c0 -4.41602 3.58398 -8 8 -8h80c4.41602 0 8 3.58398 8 8z" />
    <glyph glyph-name="hat-cowboy-primary" unicode="&#xf8c0;" horiz-adv-x="640" 
d="M499 189.3c-39.1299 -15.5898 -96.79 -29.2998 -179 -29.2998s-139.84 13.7197 -178.94 29.3203c17.04 82.8594 48.3301 194.68 97.6104 194.68c15.7598 0 29.8105 -6.7002 41.6299 -15.7002c9.70703 -7.40234 27.4932 -13.4102 39.7002 -13.4102
s29.9932 6.00781 39.7002 13.4102c11.8193 9.03027 25.8799 15.7002 41.6299 15.7002c49.29 0 80.5898 -111.83 97.6699 -194.7zM633 188.3l-0.0898438 -0.0195312c3.90625 -2.625 7.07617 -8.57422 7.07617 -13.2803c0 -1.5752 -0.442383 -4.05273 -0.986328 -5.53027
c-0.730469 -2.01953 -77.3203 -201.47 -319 -201.47s-318.27 199.45 -319 201.47c-0.572266 1.51172 -1.03613 4.04883 -1.03613 5.66504c0 8.83203 7.16797 16 16 16c3.46777 0 8.34473 -1.91504 10.8857 -4.27441c1.02051 -0.900391 102.42 -90.8408 293.24 -90.8408
c191.891 0 292.16 89.8809 293.16 90.7803c2.53418 2.3291 7.38477 4.21973 10.8271 4.21973c2.69141 0 6.68848 -1.21875 8.92285 -2.71973z" />
    <glyph glyph-name="hat-cowboy-side-primary" unicode="&#xf8c1;" horiz-adv-x="640" 
d="M354.93 72.46c16.4902 -15.7998 31.6807 -29.9199 46.46 -42.2998c48.3008 -40.4297 92.29 -62.1602 163.41 -62.1602h-491.52c-12.6406 0 -24.4199 7.53027 -32.25 20.6396c-8.08984 13.4707 -10.9004 30.7002 -7.70996 47.3008
c18.04 93.3398 76.9893 156.06 146.68 156.06c31 0 61 -12.1201 86.7197 -35.0596zM495.55 172.87c91.8398 -16.79 112.45 -103.061 112.45 -124.87c0 -26.4697 -19.3799 -48 -43.2002 -48c-79.6201 0 -118.35 29.1201 -187.7 95.5703l-88.21 84.4795
c-32.5801 29.0303 -69.9395 43.9502 -108.89 43.9502h-0.114258c-10.3672 0 -26.9229 -2.11914 -36.9561 -4.73047l7.57031 74.5303c2.94043 25.4102 23.2598 46.1807 50.3496 51.4805l191.181 37.3799c35.5498 6.95996 70.2197 -14.79 76.3594 -47.79z" />
    <glyph glyph-name="head-side-headphones-primary" unicode="&#xf8c2;" 
d="M256 340.81c37.75 -18.0098 64 -56.1992 64 -100.81c0 -61.8242 -50.1758 -112 -112 -112s-112 50.1758 -112 112c0 44.5996 26.2695 82.7998 64 100.8v104.32c8.76465 1.53809 23.1016 2.82812 32 2.87988h64v-107.19zM208 176c35.3281 0 64 28.6719 64 64
s-28.6719 64 -64 64s-64 -28.6719 -64 -64s28.6719 -64 64 -64zM208 272c17.6641 0 32 -14.3359 32 -32s-14.3359 -32 -32 -32s-32 14.3359 -32 32s14.3359 32 32 32z" />
    <glyph glyph-name="horse-saddle-primary" unicode="&#xf8c3;" horiz-adv-x="576" 
d="M0 200c0 48.5762 39.4238 88 88 88h0.450195c-11.7988 -13.1582 -22.5908 -38.1299 -24.0898 -55.7402c-9.03125 -6.60352 -16.3604 -21.043 -16.3604 -32.2314v-0.0283203v-56c0 -8.83203 -7.16797 -16 -16 -16h-16c-8.83203 0 -16 7.16797 -16 16v56zM160 320h159.91
c0 0.320312 0.0898438 0.610352 0.0898438 0.929688v-32.9297c-0.0576172 -44.7168 -35.8975 -87.0029 -80 -94.3896v-77.8701l-32 5.33008v72.54c-44.1025 7.38672 -79.9424 49.6729 -80 94.3896v25.8301c10 3.66992 20.6504 6.16992 32 6.16992zM511.93 384
c8.83203 0 16 -7.16797 16 -16s-7.16797 -16 -16 -16s-16 7.16797 -16 16s7.16797 16 16 16z" />
    <glyph glyph-name="image-polaroid-primary" unicode="&#xf8c4;" horiz-adv-x="448" 
d="M64 352h320v-256h-320v256zM128 320c-17.6641 0 -32 -14.3359 -32 -32s14.3359 -32 32 -32s32 14.3359 32 32s-14.3359 32 -32 32zM96 128h256l-83.2002 110.9c-2.64941 3.53223 -8.38379 6.39941 -12.7998 6.39941s-10.1504 -2.86719 -12.7998 -6.39941l-49.3203 -65.75
l-20.5703 30.8496c-2.62207 3.93066 -8.58496 7.12012 -13.3096 7.12012s-10.6875 -3.18945 -13.3096 -7.12012z" />
    <glyph glyph-name="joystick-primary" unicode="&#xf8c5;" horiz-adv-x="448" 
d="M416 96c17.6641 0 32 -14.3359 32 -32v-96c0 -17.6641 -14.3359 -32 -32 -32h-384c-17.6641 0 -32 14.3359 -32 32v96c0 17.6641 14.3359 32 32 32h384zM224 224c-61.8242 0 -112 50.1758 -112 112s50.1758 112 112 112s112 -50.1758 112 -112s-50.1758 -112 -112 -112z
M200 400c-13.248 0 -24 -10.752 -24 -24s10.752 -24 24 -24s24 10.752 24 24s-10.752 24 -24 24z" />
    <glyph glyph-name="jug-primary" unicode="&#xf8c6;" horiz-adv-x="448" 
d="M448 280c-0.0166016 -25.958 -19.3252 -55.4805 -43.0996 -65.9004c6.00488 -13.4355 10.9775 -36.2832 11.0996 -51v-3.09961h-383.95v3.05957v0.100586c0 24.7607 12.5439 60.5557 28 79.8994l76.9502 96.1602c3.86426 4.83594 7 13.7852 7 19.9756v0.0244141v24.7803
h160v-24.7695v-0.0253906c0 -6.19043 3.13574 -15.1387 7 -19.9746l10.3203 -12.8809c11.8662 14.1553 36.4893 25.6436 54.96 25.6436c39.5898 0 71.7207 -32.1309 71.7207 -71.7207c0 -0.0751953 -0.000976562 -0.197266 -0.000976562 -0.272461zM377.38 256.28
c12.4189 0.719727 22.498 11.3994 22.498 23.8398c0 13.1807 -10.6973 23.8789 -23.8779 23.8799c-11 0 -19.8604 -7.54004 -22.71 -17.6201zM32 0v32h384v-32c0 -35.3281 -28.6719 -64 -64 -64h-256c-35.3281 0 -64 28.6719 -64 64z" />
    <glyph glyph-name="kazoo-primary" unicode="&#xf8c7;" horiz-adv-x="640" 
d="M448 336c79.4883 0 144 -64.5117 144 -144s-64.5117 -144 -144 -144s-144 64.5117 -144 144s64.5117 144 144 144zM448 96c52.9922 0 96 43.0078 96 96s-43.0078 96 -96 96s-96 -43.0078 -96 -96s43.0078 -96 96 -96z" />
    <glyph glyph-name="lasso-primary" unicode="&#xf8c8;" horiz-adv-x="576" 
d="M256 127.38c0 -35.21 -35.8203 -63.7598 -80 -63.7598s-80 28.5498 -80 63.7598s35.8203 63.7598 80 63.7598s80 -28.5498 80 -63.7598z" />
    <glyph glyph-name="list-music-primary" unicode="&#xf8c9;" 
d="M192 16c0 44.1797 50.1396 80 112 80c13.6143 -0.0117188 35.1182 -3.5957 48 -8v299.66c0.0117188 12.9541 10.0518 26.6182 22.4102 30.5l96.5303 28.5098c2.44824 0.722656 6.50684 1.30957 9.05957 1.30957c17.6523 0 31.9883 -14.3271 32 -31.9795v-64.0498
v-0.00195312c0 -13.2295 -10.3037 -26.9873 -23 -30.708l-73 -21.3906v-283.85c0 -44.1797 -50.1396 -80 -112 -80s-112 35.8203 -112 80z" />
    <glyph glyph-name="microphone-stand-primary" unicode="&#xf8cb;" 
d="M289.54 387.47l2.17969 2.19043l161.94 -161.92l-2.19043 -2.18066c-23.8398 -23.8594 -55.5596 -34.5791 -86.7695 -33l-108.16 108.141c-1.55957 31.2197 9.16016 62.9297 33 86.7695zM478.46 414.47c18.5146 -18.5107 33.542 -54.793 33.542 -80.9746
s-15.0273 -62.4541 -33.542 -80.9648l-2.17969 -2.18066l-161.94 161.94l2.19043 2.17969c18.5107 18.5156 54.7832 33.542 80.9648 33.542s62.4541 -15.0264 80.9648 -33.542zM224 -64v126.07l64 56.4893v-182.56h-64z" />
    <glyph glyph-name="mouse-primary" unicode="&#xf8cc;" horiz-adv-x="384" 
d="M384 256v-32h-384v32h176v192h32v-192h176z" />
    <glyph glyph-name="mouse-alt-primary" unicode="&#xf8cd;" horiz-adv-x="384" 
d="M224 288c0 -17.6641 -14.3359 -32 -32 -32s-32 14.3359 -32 32v32c0 17.6641 14.3359 32 32 32s32 -14.3359 32 -32v-32z" />
    <glyph glyph-name="mp3-player-primary" unicode="&#xf8ce;" horiz-adv-x="384" 
d="M64 384h256v-128h-256v128zM192 192c52.9922 0 96 -43.0078 96 -96s-43.0078 -96 -96 -96s-96 43.0078 -96 96s43.0078 96 96 96zM192 64c17.6641 0 32 14.3359 32 32s-14.3359 32 -32 32s-32 -14.3359 -32 -32s14.3359 -32 32 -32z" />
    <glyph glyph-name="music-alt-primary" unicode="&#xf8cf;" horiz-adv-x="384" 
d="M256 16c0 -44.1797 -50.1396 -80 -112 -80s-112 35.8203 -112 80s50.1396 80 112 80c13.6143 -0.0117188 35.1182 -3.5957 48 -8v299.66c0.0117188 12.9541 10.0518 26.6182 22.4102 30.5l41.5898 12.2803v-414.44z" />
    <glyph glyph-name="music-alt-slash-primary" unicode="&#xf8d0;" horiz-adv-x="640" 
d="M633.82 -10.0996c3.41016 -2.65234 6.17773 -8.31055 6.17773 -12.6309c0 -3.0293 -1.50879 -7.42773 -3.36816 -9.81934l-19.6299 -25.2705c-2.65234 -3.41504 -8.31348 -6.1875 -12.6377 -6.1875c-3.03418 0 -7.43848 1.51367 -9.83203 3.37793l-588.351 454.71
c-3.41016 2.65234 -6.17773 8.31055 -6.17773 12.6299c0 3.0293 1.50879 7.42871 3.36816 9.82031l19.6299 25.2695c2.65234 3.41602 8.31348 6.1875 12.6377 6.1875c3.03418 0 7.43848 -1.5127 9.83203 -3.37695z" />
    <glyph glyph-name="music-slash-primary" unicode="&#xf8d1;" horiz-adv-x="640" 
d="M633.82 -10.0996c3.41016 -2.65234 6.17773 -8.31055 6.17773 -12.6309c0 -3.0293 -1.50879 -7.42773 -3.36816 -9.81934l-19.6299 -25.2705c-2.65234 -3.41504 -8.31348 -6.1875 -12.6377 -6.1875c-3.03418 0 -7.43848 1.51367 -9.83203 3.37793l-588.351 454.71
c-3.41016 2.65234 -6.17773 8.31055 -6.17773 12.6299c0 3.0293 1.50879 7.42871 3.36816 9.82031l19.6299 25.2695c2.65234 3.41602 8.31348 6.1875 12.6377 6.1875c3.03418 0 7.43848 -1.5127 9.83203 -3.37695z" />
    <glyph glyph-name="phone-rotary-primary" unicode="&#xf8d3;" 
d="M475.78 71.3799c2.3291 -4.07324 4.21973 -11.1875 4.21973 -15.8799v-55.5c0 -17.6641 -14.3359 -32 -32 -32h-384c-17.6641 0 -32 14.3359 -32 32v55.5c0 4.69238 1.89062 11.8066 4.21973 15.8799l105.351 184.37c10.1709 17.8018 35.0664 32.25 55.5693 32.25v0
h117.721v0c20.5029 0 45.3984 -14.4482 55.5693 -32.25zM256 64c39.7441 0 72 32.2559 72 72s-32.2559 72 -72 72s-72 -32.2559 -72 -72s32.2559 -72 72 -72z" />
    <glyph glyph-name="piano-keyboard-primary" unicode="&#xf8d5;" horiz-adv-x="576" 
d="M576 352v-128h-112v-80c0 -8.83203 -7.16797 -16 -16 -16h-32c-8.83203 0 -16 7.16797 -16 16v80h-80v-80c0 -8.83203 -7.16797 -16 -16 -16h-32c-8.83203 0 -16 7.16797 -16 16v80h-80v-80c0 -8.83203 -7.16797 -16 -16 -16h-32c-8.83203 0 -16 7.16797 -16 16v80h-112
v128c0 17.6641 14.3359 32 32 32h512c17.6641 0 32 -14.3359 32 -32z" />
    <glyph glyph-name="projector-primary" unicode="&#xf8d6;" horiz-adv-x="640" 
d="M96 160c17.6641 0 32 -14.3359 32 -32s-14.3359 -32 -32 -32s-32 14.3359 -32 32s14.3359 32 32 32zM432 272c79.4883 0 144 -64.5117 144 -144s-64.5117 -144 -144 -144s-144 64.5117 -144 144s64.5117 144 144 144zM432 32c52.915 0.0771484 95.9229 43.085 96 96
c0 52.9922 -43.0078 96 -96 96s-96 -43.0078 -96 -96s43.0078 -96 96 -96z" />
    <glyph glyph-name="radio-primary" unicode="&#xf8d7;" 
d="M511.4 420.95c0.330078 -1.1748 0.598633 -3.11719 0.598633 -4.33789c0 -6.69043 -5.22754 -13.5908 -11.6689 -15.4023l-288.83 -81.21h-147.5l423.33 127.4c1.17383 0.330078 3.11719 0.598633 4.33691 0.598633c6.69141 0 13.5918 -5.22754 15.4033 -11.6689z
M352 224c52.9922 0 96 -43.0078 96 -96s-43.0078 -96 -96 -96s-96 43.0078 -96 96s43.0078 96 96 96zM352 80c26.4688 0.0273438 47.9727 21.5312 48 48c0 26.4961 -21.5039 48 -48 48s-48 -21.5039 -48 -48s21.5039 -48 48 -48z" />
    <glyph glyph-name="radio-alt-primary" unicode="&#xf8d8;" 
d="M511.4 420.95c0.330078 -1.1748 0.598633 -3.11719 0.598633 -4.33789c0 -6.69043 -5.22754 -13.5908 -11.6689 -15.4023l-288.83 -81.21h-147.5l423.33 127.4c1.17383 0.330078 3.11719 0.598633 4.33691 0.598633c6.69141 0 13.5918 -5.22754 15.4033 -11.6689zM64 192
v64h384v-64h-384zM368 144c44.1602 0 80 -35.8398 80 -80s-35.8398 -80 -80 -80s-80 35.8398 -80 80s35.8398 80 80 80zM368 32c17.6641 0 32 14.3359 32 32s-14.3359 32 -32 32s-32 -14.3359 -32 -32s14.3359 -32 32 -32z" />
    <glyph glyph-name="record-vinyl-primary" unicode="&#xf8d9;" 
d="M256 440c137 0 248 -111 248 -248s-111 -248 -248 -248s-248 111 -248 248s111 248 248 248zM256 64c70.6562 0 128 57.3438 128 128s-57.3438 128 -128 128s-128 -57.3438 -128 -128s57.3438 -128 128 -128z" />
    <glyph glyph-name="router-primary" unicode="&#xf8da;" horiz-adv-x="576" 
d="M528 128c26.4961 0 48 -21.5039 48 -48v-96c0 -26.4961 -21.5039 -48 -48 -48h-480c-26.4961 0 -48 21.5039 -48 48v96c0 26.4961 21.5039 48 48 48h280v80c0 8.83203 7.16797 16 16 16h16c8.83203 0 16 -7.16797 16 -16v-80h152zM96 0c17.6641 0 32 14.3359 32 32
s-14.3359 32 -32 32s-32 -14.3359 -32 -32s14.3359 -32 32 -32zM192 0c17.6641 0 32 14.3359 32 32s-14.3359 32 -32 32s-32 -14.3359 -32 -32s14.3359 -32 32 -32z" />
    <glyph glyph-name="sax-hot-primary" unicode="&#xf8db;" horiz-adv-x="640" 
d="M320 235.31c2.58887 2.60156 7.66992 4.71289 11.3398 4.71289c3.65723 0 8.72363 -2.09766 11.3105 -4.68262l10.3496 -10.3398l-34 -34l-10.3096 10.3701c-2.58789 2.58691 -4.68848 7.65625 -4.68848 11.3145c0 3.65918 2.10059 8.72852 4.68848 11.3154z
M177.77 422.4c36.2305 -33.6309 62.2305 -88.5703 62.2305 -115.2c-0.125977 -9.96582 -2.76465 -25.7363 -5.88965 -35.2002h-61.3408c6.1875 8.73047 11.21 24.5 11.2109 35.2002c-0.380859 4.37988 -3.85059 14.5195 -9.9209 26.6201l-27.0596 -33.0801l-42.6504 58.7793
c-1.25977 1.74023 -2.55664 3.48047 -3.88965 5.2207c-19.7998 -27.2402 -28.46 -49.9199 -28.46 -57.54c0.00585938 -10.7021 5.03613 -26.4717 11.2305 -35.2002h-61.3408c-3.125 9.46387 -5.76367 25.2344 -5.88965 35.2002c0 35.7998 34.8799 95.2197 84 140.8
c15.1924 -14.0195 37.4453 -38.9287 49.6699 -55.5996c7.19043 8.80859 19.7793 22.249 28.0996 30zM368 283.31c2.58887 2.60156 7.66992 4.71289 11.3398 4.71289c3.65723 0 8.72363 -2.09766 11.3105 -4.68262l10.3496 -10.3398l-34 -34l-10.3096 10.3701
c-2.58789 2.58691 -4.68848 7.65625 -4.68848 11.3145c0 3.65918 2.10059 8.72852 4.68848 11.3154zM438.62 331.31l10.3799 -10.3096l-34 -34l-10.3096 10.3701c-2.58789 2.58691 -4.68848 7.65625 -4.68848 11.3145c0 3.65918 2.10059 8.72852 4.68848 11.3154
l11.3096 11.3096c2.58691 2.58496 7.65332 4.68262 11.3096 4.68262c3.65723 0 8.72363 -2.09766 11.3105 -4.68262z" />
    <glyph glyph-name="saxophone-primary" unicode="&#xf8dc;" horiz-adv-x="640" 
d="M320 267.31c2.58984 2.60449 7.67188 4.71777 11.3447 4.71777c3.65918 0 8.72852 -2.09961 11.3154 -4.6875l10.3398 -10.3398l-34 -34l-10.3096 10.3701c-2.58789 2.58691 -4.68848 7.65625 -4.68848 11.3145c0 3.65918 2.10059 8.72852 4.68848 11.3154z
M438.63 363.31l10.3701 -10.3096l-34 -34l-10.3096 10.3701c-2.58789 2.58691 -4.68848 7.65625 -4.68848 11.3145c0 3.65918 2.10059 8.72852 4.68848 11.3154l11.3096 11.3096c2.58691 2.58789 7.65625 4.68848 11.3154 4.68848
c3.6582 0 8.72754 -2.10059 11.3145 -4.68848zM368 315.31c2.58984 2.60449 7.67188 4.71777 11.3447 4.71777c3.65918 0 8.72852 -2.09961 11.3154 -4.6875l10.3398 -10.3398l-34 -34l-10.3096 10.3701c-2.58789 2.58691 -4.68848 7.65625 -4.68848 11.3145
c0 3.65918 2.10059 8.72852 4.68848 11.3154zM96 152c13.248 0 24 -10.752 24 -24s-10.752 -24 -24 -24s-24 10.752 -24 24s10.752 24 24 24zM128 248c13.248 0 24 -10.752 24 -24s-10.752 -24 -24 -24s-24 10.752 -24 24s10.752 24 24 24z" />
    <glyph glyph-name="signal-stream-primary" unicode="&#xf8dd;" horiz-adv-x="576" 
d="M288 248c30.9121 0 56 -25.0879 56 -56s-25.0879 -56 -56 -56s-56 25.0879 -56 56s25.0879 56 56 56zM64 192v-0.298828c0 -45.5859 24.8281 -110.014 55.4199 -143.812c5.58984 -6.21973 4.91992 -15.7393 -1.08008 -21.5898l-22.3398 -21.8193
c-2.62109 -2.48828 -7.68164 -4.50684 -11.2959 -4.50684c-4.06738 0 -9.56152 2.4668 -12.2637 5.50684c-46.8506 51.5195 -72.4404 117.079 -72.4404 186.52s25.5898 135 72.4404 186.47c2.70215 3.04004 8.19629 5.50684 12.2637 5.50684
c3.61426 0 8.6748 -2.01855 11.2959 -4.50684l22.3398 -21.8193c5.99023 -5.85059 6.66992 -15.3701 1.08008 -21.5908c-30.5918 -33.7969 -55.4199 -98.2246 -55.4199 -143.811v-0.249023zM503.56 378.52c46.8506 -51.5195 72.4404 -117.079 72.4404 -186.52
s-25.5898 -135 -72.4404 -186.47c-2.70215 -3.04004 -8.19629 -5.50684 -12.2637 -5.50684c-3.61426 0 -8.6748 2.01855 -11.2959 4.50684l-22.3398 21.8193c-5.99023 5.85059 -6.66992 15.3701 -1.08008 21.5908c30.5908 33.876 55.4189 98.415 55.4189 144.06
s-24.8281 110.184 -55.4189 144.06c-5.58984 6.2207 -4.91992 15.7402 1.08008 21.5908l22.3398 21.8691c2.62109 2.48828 7.68164 4.50684 11.2959 4.50684c4.06738 0 9.56152 -2.4668 12.2637 -5.50684z" />
    <glyph glyph-name="speaker-primary" unicode="&#xf8df;" horiz-adv-x="384" 
d="M192 224c61.8242 0 112 -50.1758 112 -112s-50.1758 -112 -112 -112s-112 50.1758 -112 112s50.1758 112 112 112zM192 48c35.3281 0 64 28.6719 64 64s-28.6719 64 -64 64s-64 -28.6719 -64 -64s28.6719 -64 64 -64zM192 288c-26.4961 0 -48 21.5039 -48 48
s21.5039 48 48 48s48 -21.5039 48 -48s-21.5039 -48 -48 -48z" />
    <glyph glyph-name="speakers-primary" unicode="&#xf8e0;" horiz-adv-x="640" 
d="M64 112v0.106445c0 61.7627 50.127 111.89 111.89 111.89c26.041 0 61.9307 -15.1318 80.1104 -33.7764v-156.439c-18.1797 -18.6445 -54.0693 -33.7764 -80.1104 -33.7764c-61.7627 0 -111.89 50.127 -111.89 111.89v0.106445zM240 112c0 35.3281 -28.6719 64 -64 64
s-64 -28.6719 -64 -64s28.6719 -64 64 -64s64 28.6719 64 64zM464 224c61.8242 0 112 -50.1758 112 -112s-50.1758 -112 -112 -112s-112 50.1758 -112 112s50.1758 112 112 112zM464 48c35.3281 0 64 28.6719 64 64s-28.6719 64 -64 64s-64 -28.6719 -64 -64
s28.6719 -64 64 -64zM464 288c-26.4961 0 -48 21.5039 -48 48s21.5039 48 48 48s48 -21.5039 48 -48s-21.5039 -48 -48 -48zM176 288c-26.4961 0 -48 21.5039 -48 48s21.5039 48 48 48s48 -21.5039 48 -48s-21.5039 -48 -48 -48z" />
    <glyph glyph-name="triangle-music-primary" unicode="&#xf8e2;" 
d="M500 -14.9199c-15.2148 -27.0928 -52.7803 -49.0801 -83.8525 -49.0801h-0.277344h-319.74h-0.277344c-31.0723 0 -68.6377 21.9873 -83.8525 49.0801c-6.63965 11.7119 -12.0283 32.1436 -12.0283 45.6074c0 14.7139 6.35645 36.7656 14.1885 49.2227l159.859 258.7
c11.7207 19 29.5508 32.2197 50 39.3398v54.0498v0c0 8.82129 7.15918 15.9893 15.9805 16h32c8.83203 0 16 -7.16797 16 -16v-54.0498c20.4102 -7.12012 38.2402 -20.3701 50 -39.3398l36.1602 -58.5303l-46.4805 -46.5l-44.1094 71.3701
c-8.40039 13.5801 -22 15.0498 -27.5205 15.0498c-5.51953 0 -19.1201 -1.46973 -27.5195 -15.0498l-159.92 -258.7c-2.50391 -3.93262 -4.53516 -10.9082 -4.53516 -15.5703c0 -4.26562 1.72266 -10.7295 3.84473 -14.4297
c5.0127 -8.97266 17.4229 -16.2539 27.7002 -16.2539c0.140625 0 0.369141 0.00195312 0.509766 0.00390625h319.74c0.143555 -0.00195312 0.376953 -0.00390625 0.520508 -0.00390625c10.2695 0 22.6738 7.27246 27.6895 16.2344
c2.12207 3.69922 3.84473 10.1641 3.84473 14.4287c0 4.66211 -2.03125 11.6377 -4.53516 15.5713l-89.8398 145.409l46.4502 46.4902l97.7695 -158.22c7.85254 -12.4688 14.2256 -34.5469 14.2256 -49.2812c0 -13.4434 -5.37402 -33.8496 -11.9951 -45.5488z" />
    <glyph glyph-name="trumpet-primary" unicode="&#xf8e3;" horiz-adv-x="640" 
d="M640 368v-288c0 -12 -10.8096 -16 -16 -16c-4.5166 0.03125 -10.3408 3.01855 -13 6.66992c-16.5244 21.3945 -46.1777 53.5068 -66.1904 71.6797c-15.3799 13 -32.9297 25.6602 -52.54 36c-5.5498 2.93066 -25.75 13.6006 -60 13.6309h-384.27
c0 -8.83203 -7.16797 -16 -16 -16h-16v0c-8.83203 0 -16 7.16797 -16 16v0.0195312v64c0 8.83203 7.16797 16 16 16h16c8.83203 0 16 -7.16797 16 -16h384.27c34.25 0 54.4502 10.6904 60 13.6299c19.6104 10.3506 37.1602 23.0498 52.54 36
c20.0137 18.1787 49.667 50.2998 66.1904 71.7002c2.66309 3.64355 8.4873 6.63184 13 6.66992c5.19043 0 16 -4 16 -16z" />
    <glyph glyph-name="turntable-primary" unicode="&#xf8e4;" horiz-adv-x="576" 
d="M504 352c4.41602 0 8 -3.58398 8 -8v-163.82v-0.0117188c0 -8.3418 -3.02832 -21.167 -6.75977 -28.6279l-18.9307 -37.8604c4.88281 -2.44043 8.8457 -8.85254 8.8457 -14.3115c0 -2.08203 -0.754883 -5.28516 -1.68555 -7.14844l-25.6895 -51.3799
c-2.44043 -4.88477 -8.85254 -8.84961 -14.3135 -8.84961c-2.08594 0 -5.29199 0.756836 -7.15723 1.68945l-28.6191 14.3203c-4.88281 2.44141 -8.8457 8.85254 -8.8457 14.3115c0 2.08301 0.754883 5.28516 1.68555 7.14844l25.6895 51.3799
c2.44043 4.88477 8.85254 8.84961 14.3135 8.84961c2.08594 0 5.29199 -0.756836 7.15723 -1.68945l18.9297 37.8799c1.86523 3.72949 3.37891 10.1406 3.37988 14.3105v163.81c0 4.41602 3.58398 8 8 8h16zM224 352c88.3203 0 160 -71.6797 160 -160
s-71.6797 -160 -160 -160s-160 71.6797 -160 160s71.6797 160 160 160zM224 160c17.6641 0 32 14.3359 32 32s-14.3359 32 -32 32s-32 -14.3359 -32 -32s14.3359 -32 32 -32z" />
    <glyph glyph-name="tv-alt-primary" unicode="&#xf8e5;" horiz-adv-x="640" 
d="M576 96h-512v288h512v-288z" />
    <glyph glyph-name="tv-music-primary" unicode="&#xf8e6;" horiz-adv-x="640" 
d="M512 0c17.6641 0 32 -14.3359 32 -32s-14.3359 -32 -32 -32h-384c-17.6641 0 -32 14.3359 -32 32s14.3359 32 32 32h384zM592 448c26.4961 0 48 -21.5039 48 -48v-320c0 -26.4961 -21.5039 -48 -48 -48h-544c-26.4961 0 -48 21.5039 -48 48v320
c0 26.4961 21.5039 48 48 48h544zM576 96v288h-512v-288h512zM240 128c-26.5 0 -48 14.3301 -48 32s21.5 32 48 32c4.48047 -0.0390625 11.6484 -0.93457 16 -2v98.75c0.00390625 6.47266 5.01758 13.3047 11.1904 15.25l128 47.25
c1.2959 0.408203 3.4502 0.740234 4.80957 0.740234c8.82617 0 15.9941 -7.16406 16 -15.9902v-144c0 -17.6699 -21.5 -32 -48 -32s-48 14.3301 -48 32s21.5 32 48 32c4.48047 -0.0390625 11.6484 -0.93457 16 -2v60.3604l-96 -37.5205v-84.8398
c0 -17.6699 -21.5 -32 -48 -32z" />
    <glyph glyph-name="typewriter-primary" unicode="&#xf8e7;" 
d="M368 352c-8.83203 0 -16 7.16797 -16 16v80h4.57031h0.0439453c4.10547 0 9.79785 -2.35156 12.7061 -5.25l73.4297 -73.5c2.89746 -2.89648 5.24902 -8.57324 5.25 -12.6699v-4.58008h-80zM480 256c17.6641 0 32 -14.3359 32 -32v-32c0 -17.6641 -14.3359 -32 -32 -32
v-160c0 -35.3281 -28.6719 -64 -64 -64h-320c-35.3281 0 -64 28.6719 -64 64v160c-17.6641 0 -32 14.3359 -32 32v32c0 17.6641 14.3359 32 32 32h114.75c7.31348 -0.000976562 17.4473 -4.19922 22.6201 -9.37012l13.2598 -13.2598
c5.17285 -5.1709 15.3066 -9.36914 22.6201 -9.37012h101.5c7.31348 0.000976562 17.4473 4.19922 22.6201 9.37012l13.2598 13.2598c5.17285 5.1709 15.3066 9.36914 22.6201 9.37012h114.75zM336 152v-16c0 -4.41602 3.58398 -8 8 -8h16c4.41602 0 8 3.58398 8 8v16
c0 4.41602 -3.58398 8 -8 8h-16c-4.41602 0 -8 -3.58398 -8 -8zM312 96c-4.41602 0 -8 -3.58398 -8 -8v-16c0 -4.41602 3.58398 -8 8 -8h16c4.41602 0 8 3.58398 8 8v16c0 4.41602 -3.58398 8 -8 8h-16zM272 152v-16c0 -4.41602 3.58398 -8 8 -8h16c4.41602 0 8 3.58398 8 8
v16c0 4.41602 -3.58398 8 -8 8h-16c-4.41602 0 -8 -3.58398 -8 -8zM248 96c-4.41602 0 -8 -3.58398 -8 -8v-16c0 -4.41602 3.58398 -8 8 -8h16c4.41602 0 8 3.58398 8 8v16c0 4.41602 -3.58398 8 -8 8h-16zM208 152v-16c0 -4.41602 3.58398 -8 8 -8h16
c4.41602 0 8 3.58398 8 8v16c0 4.41602 -3.58398 8 -8 8h-16c-4.41602 0 -8 -3.58398 -8 -8zM184 96c-4.41602 0 -8 -3.58398 -8 -8v-16c0 -4.41602 3.58398 -8 8 -8h16c4.41602 0 8 3.58398 8 8v16c0 4.41602 -3.58398 8 -8 8h-16zM144 152v-16c0 -4.41602 3.58398 -8 8 -8
h16c4.41602 0 8 3.58398 8 8v16c0 4.41602 -3.58398 8 -8 8h-16c-4.41602 0 -8 -3.58398 -8 -8zM104 128c4.41602 0 8 3.58398 8 8v16c0 4.41602 -3.58398 8 -8 8h-16c-4.41602 0 -8 -3.58398 -8 -8v-16c0 -4.41602 3.58398 -8 8 -8h16zM136 64c4.41602 0 8 3.58398 8 8v16
c0 4.41602 -3.58398 8 -8 8h-16c-4.41602 0 -8 -3.58398 -8 -8v-16c0 -4.41602 3.58398 -8 8 -8h16zM368 8v16c0 4.41602 -3.58398 8 -8 8h-208c-4.41602 0 -8 -3.58398 -8 -8v-16c0 -4.41602 3.58398 -8 8 -8h208c4.41602 0 8 3.58398 8 8zM400 72v16
c0 4.41602 -3.58398 8 -8 8h-16c-4.41602 0 -8 -3.58398 -8 -8v-16c0 -4.41602 3.58398 -8 8 -8h16c4.41602 0 8 3.58398 8 8zM432 136v16c0 4.41602 -3.58398 8 -8 8h-16c-4.41602 0 -8 -3.58398 -8 -8v-16c0 -4.41602 3.58398 -8 8 -8h16c4.41602 0 8 3.58398 8 8z" />
    <glyph glyph-name="usb-drive-primary" unicode="&#xf8e9;" horiz-adv-x="640" 
d="M448 336v-288c0 -8.83203 -7.16797 -16 -16 -16h-368c-35.3281 0 -64 28.6719 -64 64v192c0 35.3281 28.6719 64 64 64h368c8.83203 0 16 -7.16797 16 -16z" />
    <glyph glyph-name="user-cowboy-primary" unicode="&#xf8ea;" horiz-adv-x="448" 
d="M313.59 64c50.7412 0 106.702 -38.4385 124.91 -85.7998c7.88965 -20.3906 -8.53027 -42.2002 -30.4004 -42.2002h-368.1c-21.9199 0 -38.3398 21.8096 -30.4502 42.2002c18.2012 47.3438 74.1387 85.7822 124.86 85.7998h16.6797
c19.1543 -8.83203 51.8184 -16 72.9102 -16s53.7559 7.16797 72.9102 16h16.6797zM342.5 334.44c-26.1396 -10.1709 -64.3203 -19.0107 -118.5 -19.0107c-53.25 0 -91 8.57031 -117.08 18.4805c11.0205 49.5996 31.6299 114.09 64.5098 114.09
c10.3301 0 19.5703 -4.4502 27.3008 -10.4697c6.33984 -4.93066 18.0029 -8.93164 26.0342 -8.93164c8.03223 0 19.6953 4.00098 26.0352 8.93164c7.75 6.01953 16.9697 10.4697 27.2998 10.4697c32.7705 0 53.3408 -64 64.4004 -113.56zM438.5 350.2
c7.62988 -3.58008 11.3203 -11.7305 8.62988 -19.2705c-0.519531 -1.38965 -51.8799 -138.93 -223.13 -138.93s-222.6 137.54 -223.12 138.93c-2.71973 7.60059 1.03027 15.9102 8.79004 19.4404c1.97754 0.910156 5.34961 1.64941 7.52734 1.64941
c4.88965 0 11.2793 -3.14453 14.2627 -7.01953c0.94043 -1.20996 45.6602 -61.5703 192.54 -61.5898c147.74 0 192.12 61.0195 192.55 61.5898c3.0166 3.80957 9.40918 6.90039 14.2676 6.90039c2.22461 0 5.66602 -0.761719 7.68262 -1.7002z" />
    <glyph glyph-name="user-music-primary" unicode="&#xf8eb;" horiz-adv-x="640" 
d="M598.94 350.67c2.44824 0.722656 6.50684 1.30957 9.05957 1.30957c17.6523 0 31.9883 -14.3271 32 -31.9795v-64.0498v-0.00195312c0 -13.2295 -10.3037 -26.9873 -23 -30.708l-73 -21.3906v-187.85c0 -44.1797 -50.1396 -80 -112 -80s-112 35.8203 -112 80
s50.1396 80 112 80c13.6143 -0.0117188 35.1182 -3.5957 48 -8v203.66c0.0117188 12.9541 10.0518 26.6182 22.4102 30.5z" />
    <glyph glyph-name="vhs-primary" unicode="&#xf8ec;" 
d="M496 384c8.83203 0 16 -7.16797 16 -16v-80h-512v80c0 8.83203 7.16797 16 16 16h480zM384 224h48.8604c19.1396 -21.2598 31.1396 -49.1299 31.1396 -80s-12 -58.7305 -31.1396 -80h-48.8604v34.9404c17.6582 6.16797 31.9902 26.3545 31.9902 45.0596
s-14.332 38.8916 -31.9902 45.0596v34.9404zM48 144c0 30.8701 12 58.7305 31.1396 80h48.8604v-34.9404c-17.6582 -6.16797 -31.9902 -26.3545 -31.9902 -45.0596s14.332 -38.8916 31.9902 -45.0596v-34.9404h-48.8604c-19.1396 21.2598 -31.1396 49.1201 -31.1396 80z" />
    <glyph glyph-name="violin-primary" unicode="&#xf8ed;" horiz-adv-x="640" 
d="M224.16 45.6104l13.4502 -13.4199c2.58691 -2.58691 4.68652 -7.65625 4.68652 -11.3154c0 -2.67383 -1.20312 -6.65039 -2.68652 -8.875l-45.9004 -68.8701c-2.62207 -3.93066 -8.58496 -7.12207 -13.3105 -7.12207c-3.65625 0 -8.72266 2.09766 -11.3096 4.68262
l-36.3994 36.3994c-2.58496 2.58691 -4.68262 7.65332 -4.68262 11.3096c0 4.72559 3.19141 10.6885 7.12207 13.3105l68.8398 45.9004c2.22559 1.4834 6.20117 2.68652 8.87598 2.68652c3.6582 0 8.72754 -2.09961 11.3145 -4.68652zM336 443.31l11.3096 -11.3096
c2.58496 -2.58691 4.68262 -7.65332 4.68262 -11.3096c0 -3.65723 -2.09766 -8.72363 -4.68262 -11.3105l-308.689 -308.689c-2.58691 -2.58496 -7.65332 -4.68262 -11.3105 -4.68262c-3.65625 0 -8.72266 2.09766 -11.3096 4.68262l-11.3096 11.3096
c-2.58496 2.58691 -4.68262 7.65332 -4.68262 11.3096c0 3.65723 2.09766 8.72363 4.68262 11.3105l308.689 308.689c2.58691 2.58496 7.65332 4.68262 11.3105 4.68262c3.65625 0 8.72266 -2.09766 11.3096 -4.68262zM635.31 420.69
c2.58789 -2.58691 4.68848 -7.65625 4.68848 -11.3154s-2.10059 -8.72852 -4.68848 -11.3154l-217.369 -217.369c-2.58691 -2.58789 -7.65625 -4.68848 -11.3154 -4.68848s-8.72852 2.10059 -11.3154 4.68848l-22.6191 22.6191
c-2.58789 2.58691 -4.68848 7.65625 -4.68848 11.3154s2.10059 8.72852 4.68848 11.3154l217.369 217.369c2.58691 2.58789 7.65625 4.68848 11.3154 4.68848s8.72852 -2.10059 11.3154 -4.68848z" />
    <glyph glyph-name="walkie-talkie-primary" unicode="&#xf8ef;" horiz-adv-x="384" 
d="M112 432v-80h-48v80c0 8.83203 7.16797 16 16 16h16c8.83203 0 16 -7.16797 16 -16zM280 160c4.41602 0 8 -3.58398 8 -8v-16c0 -4.41602 -3.58398 -8 -8 -8h-176c-4.41602 0 -8 3.58398 -8 8v16c0 4.41602 3.58398 8 8 8h176zM280 224c4.41602 0 8 -3.58398 8 -8v-16
c0 -4.41602 -3.58398 -8 -8 -8h-176c-4.41602 0 -8 3.58398 -8 8v16c0 4.41602 3.58398 8 8 8h176zM280 288c4.41602 0 8 -3.58398 8 -8v-16c0 -4.41602 -3.58398 -8 -8 -8h-176c-4.41602 0 -8 3.58398 -8 8v16c0 4.41602 3.58398 8 8 8h176z" />
    <glyph glyph-name="watch-calculator-primary" unicode="&#xf8f0;" horiz-adv-x="384" 
d="M64 -32v48h256v-48c0 -17.6641 -14.3359 -32 -32 -32h-192c-17.6641 0 -32 14.3359 -32 32zM288 448c17.6641 0 32 -14.3359 32 -32v-48h-256v48c0 17.6641 14.3359 32 32 32h192zM72 80v32c0 4.41602 3.58398 8 8 8h32c4.41602 0 8 -3.58398 8 -8v-32
c0 -4.41602 -3.58398 -8 -8 -8h-32c-4.41602 0 -8 3.58398 -8 8zM80 168c-4.41602 0 -8 3.58398 -8 8v32c0 4.41602 3.58398 8 8 8h32c4.41602 0 8 -3.58398 8 -8v-32c0 -4.41602 -3.58398 -8 -8 -8h-32zM168 80v32c0 4.41602 3.58398 8 8 8h32c4.41602 0 8 -3.58398 8 -8
v-32c0 -4.41602 -3.58398 -8 -8 -8h-32c-4.41602 0 -8 3.58398 -8 8zM176 168c-4.41602 0 -8 3.58398 -8 8v32c0 4.41602 3.58398 8 8 8h32c4.41602 0 8 -3.58398 8 -8v-32c0 -4.41602 -3.58398 -8 -8 -8h-32zM264 80v32c0 4.41602 3.58398 8 8 8h32
c4.41602 0 8 -3.58398 8 -8v-32c0 -4.41602 -3.58398 -8 -8 -8h-32c-4.41602 0 -8 3.58398 -8 8zM272 168c-4.41602 0 -8 3.58398 -8 8v32c0 4.41602 3.58398 8 8 8h32c4.41602 0 8 -3.58398 8 -8v-32c0 -4.41602 -3.58398 -8 -8 -8h-32z" />
    <glyph glyph-name="waveform-primary" unicode="&#xf8f1;" horiz-adv-x="640" 
d="M44 224c8.83203 0 16 -7.16797 16 -16v-32c0 -8.83203 -7.16797 -16 -16 -16h-24c-8.83203 0 -16 7.16797 -16 16v32c0 8.83203 7.16797 16 16 16h24zM236 352c8.83203 0 16 -7.16797 16 -16v-288c0 -8.83203 -7.16797 -16 -16 -16h-24c-8.83203 0 -16 7.16797 -16 16
v288c0 8.83203 7.16797 16 16 16h24zM620 224c8.83203 0 16 -7.16797 16 -16v-32c0 -8.83203 -7.16797 -16 -16 -16h-24c-8.83203 0 -16 7.16797 -16 16v32c0 8.83203 7.16797 16 16 16h24zM428 320c8.83203 0 16 -7.16797 16 -16v-224c0 -8.83203 -7.16797 -16 -16 -16h-24
c-8.83203 0 -16 7.16797 -16 16v224c0 8.83203 7.16797 16 16 16h24z" />
    <glyph glyph-name="waveform-path-primary" unicode="&#xf8f2;" horiz-adv-x="640" 
d="M119.31 269.22c0.0507812 -0.219727 0.180664 -0.319336 0.25 -0.519531l48 -240c0.256836 -1.28418 0.464844 -3.39062 0.464844 -4.7002c0 -10.8516 -8.63477 -21.3936 -19.2744 -23.5303c-1.27441 -0.258789 -3.36523 -0.469727 -4.66602 -0.469727h-0.0839844
c-10.8613 0.00195312 -21.4033 8.64844 -23.5303 19.2998l-24.5596 122.82c3.57031 3.15039 7.06934 9.52539 7.80957 14.2295l16 104c0.132812 0.922852 0.239258 2.42871 0.239258 3.36035c0 1.54199 -0.290039 4.01074 -0.649414 5.50977zM215.31 364.9
c0.0800781 -0.400391 0.320312 -0.700195 0.410156 -1.10059l64 -400c0.166992 -1.04199 0.302734 -2.74512 0.302734 -3.80078c0 -11.2988 -9.05469 -21.916 -20.2129 -23.6992c-1.02734 -0.165039 -2.70703 -0.299805 -3.74805 -0.299805h-0.0615234
c-11.2754 0.0175781 -21.875 9.06738 -23.6602 20.2002l-39 243.56l22.4404 156.851c0.09375 0.777344 0.168945 2.04395 0.168945 2.82715c0 1.52832 -0.286133 3.97559 -0.639648 5.46289zM624 184c8.83203 0 16 -7.16797 16 -16v-16c0 -8.83203 -7.16797 -16 -16 -16h-64
c-5.03418 0.0126953 -12.1572 2.75391 -15.9004 6.12012l23.4199 117.18c0.232422 1.21875 0.420898 3.21484 0.420898 4.45508s-0.188477 3.23633 -0.420898 4.45508c0.0302734 -0.200195 0.200195 -0.349609 0.200195 -0.549805l12.8701 -83.6602h43.4102zM343.28 428.71
c0.109375 -0.509766 0.429688 -0.910156 0.529297 -1.42969l64 -464c0.125 -0.902344 0.226562 -2.37402 0.226562 -3.28418c0 -11.5488 -9.28516 -22.2002 -20.7266 -23.7764c-0.90918 -0.117188 -2.39258 -0.21582 -3.30957 -0.219727h-0.00488281
c-11.5459 0 -22.1973 9.28223 -23.7754 20.7197l-40.2197 291.58l23.7803 172.41c0.0751953 0.700195 0.136719 1.84082 0.136719 2.5459c0 1.52539 -0.285156 3.96973 -0.636719 5.4541zM471.35 364.52c0.0800781 -0.399414 0.34082 -0.719727 0.430664 -1.12988l48 -336
c0.133789 -0.93457 0.242188 -2.45996 0.242188 -3.4043c0 -11.4785 -9.2207 -22.1211 -20.582 -23.7549c-0.946289 -0.125 -2.4873 -0.227539 -3.44043 -0.230469c-11.4727 0.0185547 -22.0996 9.25195 -23.7197 20.6104l-25.5898 179.149l25 156.44
c0.118164 0.878906 0.214844 2.31348 0.214844 3.2002c0 1.42969 -0.249023 3.72363 -0.555664 5.11914z" />
    <glyph glyph-name="music-secondary" unicode="&#x10f001;" 
d="M192 233.68v130.601l256 75.5996v-131.18z" />
    <glyph glyph-name="print-secondary" unicode="&#x10f02f;" 
d="M64 -32v96h384v-96c0 -17.6641 -14.3359 -32 -32 -32h-320c-17.6641 0 -32 14.3359 -32 32zM368 352h80v-128h-384v192c0 17.6641 14.3359 32 32 32h256v-80c0 -8.83203 7.16797 -16 16 -16z" />
    <glyph glyph-name="adjust-secondary" unicode="&#x10f042;" 
d="M504 192c0 -137 -111 -248 -248 -248v496c137 0 248 -111 248 -248z" />
    <glyph glyph-name="external-link-secondary" unicode="&#x10f08e;" 
d="M400 128h32c8.83203 0 16 -7.16797 16 -16v-128c0 -26.4961 -21.5039 -48 -48 -48h-352c-26.4961 0 -48 21.5039 -48 48v352c0 26.4961 21.5039 48 48 48h160c8.83203 0 16 -7.16797 16 -16v-32c0 -8.83203 -7.16797 -16 -16 -16h-144v-320h320v112
c0 8.83203 7.16797 16 16 16z" />
    <glyph glyph-name="trophy-secondary" unicode="&#x10f091;" horiz-adv-x="576" 
d="M192 16h192c35.2998 0 64 -20.7002 64 -56v-12c0 -6.62402 -5.37598 -12 -12 -12h-296c-6.62402 0 -12 5.37598 -12 12v12c0 35.2998 28.7002 56 64 56z" />
    <glyph glyph-name="bell-secondary" unicode="&#x10f0f3;" horiz-adv-x="448" 
d="M448 64c-0.0996094 -16.4004 -13 -32 -32.0996 -32h-383.82c-19.0801 0 -31.9902 15.5996 -32.0801 32v0.168945c0 6.89551 3.85742 16.5459 8.61035 21.541c19.3193 20.7598 55.4697 52 55.4697 154.29c0 77.7002 54.4795 139.9 127.939 155.16v20.8398
c0 17.6641 14.3369 32 32 32c17.6641 0 32 -14.3359 32 -32v-20.8398c73.4004 -15.2598 127.881 -77.46 127.881 -155.16c0 -102.3 36.1494 -133.53 55.4697 -154.29c4.76367 -5 8.62988 -14.6631 8.62988 -21.5693v-0.140625z" />
    <glyph glyph-name="angle-left-secondary" unicode="&#x10f104;" horiz-adv-x="256" 
d="M223.83 95.5596c3.85742 -3.87598 6.98926 -11.4609 6.98926 -16.9297s-3.13184 -13.0537 -6.98926 -16.9297l-22.5098 -22.7002l-0.180664 -0.179688c-3.83203 -3.79199 -11.3184 -6.86914 -16.71 -6.86914c-5.47363 0 -13.04 3.1582 -16.8896 7.04883l-96.1504 96.5
l56.4707 56.5z" />
    <glyph glyph-name="angle-right-secondary" unicode="&#x10f105;" horiz-adv-x="256" 
d="M128.14 192l56.4707 -56.4902l-96.1504 -96.5098c-3.84961 -3.89062 -11.416 -7.04883 -16.8896 -7.04883c-5.3916 0 -12.8779 3.07715 -16.71 6.86914l-0.180664 0.179688l-22.5098 22.6797c-3.87012 3.86816 -7.01172 11.4482 -7.01172 16.9199
c0 5.47266 3.1416 13.0527 7.01172 16.9199z" />
    <glyph glyph-name="gamepad-secondary" unicode="&#x10f11b;" horiz-adv-x="640" 
d="M480.07 352c88.2939 -0.0263672 159.952 -71.7061 159.952 -160c0 -88.3203 -71.6797 -160 -160 -160c-37.1016 0 -88.291 21.5039 -114.263 48h-91.5195c-25.9717 -26.4961 -77.1611 -48 -114.263 -48c-88.3203 0 -160 71.6797 -160 160s71.6797 160 160 160h0.0224609
h320.07zM248 180v24c0 6.62402 -5.37598 12 -12 12h-52v52c0 6.62402 -5.37598 12 -12 12h-24c-6.62402 0 -12 -5.37598 -12 -12v-52h-52c-6.62402 0 -12 -5.37598 -12 -12v-24c0 -6.62402 5.37598 -12 12 -12h52v-52c0 -6.62402 5.37598 -12 12 -12h24
c6.62402 0 12 5.37598 12 12v52h52c6.62402 0 12 5.37598 12 12zM464 104c22.0801 0 40 17.9199 40 40s-17.9199 40 -40 40s-40 -17.9199 -40 -40s17.9199 -40 40 -40zM528 200c22.0801 0 40 17.9199 40 40s-17.9199 40 -40 40s-40 -17.9199 -40 -40s17.9199 -40 40 -40z
" />
    <glyph glyph-name="anchor-secondary" unicode="&#x10f13d;" horiz-adv-x="576" 
d="M372 256c6.62402 0 12 -5.37598 12 -12v-40c0 -6.62402 -5.37598 -12 -12 -12h-168c-6.62402 0 -12 5.37598 -12 12v40c0 6.62402 5.37598 12 12 12h52v5.45996c-35.3945 12.4609 -64.1211 53.0283 -64.1211 90.5527c0 52.9912 43.0078 96 96 96
c0.425781 0 1.11621 -0.00585938 1.54102 -0.0126953c52.2197 -0.75 94.5801 -43.7803 94.5801 -96v-0.0205078c0 -37.4707 -28.6719 -78.0195 -64 -90.5098v-5.46973h52zM288 384c-17.6641 0 -32 -14.3359 -32 -32s14.3359 -32 32 -32s32 14.3359 32 32s-14.3359 32 -32 32
z" />
    <glyph glyph-name="level-down-secondary" unicode="&#x10f149;" horiz-adv-x="352" 
d="M59.5098 371.52l-56 56c-1.93652 1.94043 -3.50879 5.73926 -3.50879 8.48047c0 6.62402 5.375 12 11.999 12h196c13.248 0 24 -10.752 24 -24v-348.71l-40 -43.21l-40 43.2295v292.69h-84c-2.74609 0 -6.5498 1.57715 -8.49023 3.51953z" />
    <glyph glyph-name="fax-secondary" unicode="&#x10f1ac;" 
d="M480 352v-96h-352v160c0 17.6641 14.3359 32 32 32h224v-80c0 -8.83203 7.16797 -16 16 -16h80z" />
    <glyph glyph-name="calculator-secondary" unicode="&#x10f1ec;" horiz-adv-x="448" 
d="M115.2 64c6.39941 0 12.7998 -6.40039 12.7998 -12.7998v-38.4004c0 -6.39941 -6.40039 -12.7998 -12.7998 -12.7998h-38.4004c-6.39941 0 -12.7998 6.40039 -12.7998 12.7998v38.4004c0 6.39941 6.40039 12.7998 12.7998 12.7998h38.4004zM115.2 192
c6.39941 0 12.7998 -6.40039 12.7998 -12.7998v-38.4004c0 -6.39941 -6.40039 -12.7998 -12.7998 -12.7998h-38.4004c-6.39941 0 -12.7998 6.40039 -12.7998 12.7998v38.4004c0 6.39941 6.40039 12.7998 12.7998 12.7998h38.4004zM243.2 64
c6.39941 0 12.7998 -6.40039 12.7998 -12.7998v-38.4004c0 -6.39941 -6.40039 -12.7998 -12.7998 -12.7998h-38.4004c-6.39941 0 -12.7998 6.40039 -12.7998 12.7998v38.4004c0 6.39941 6.40039 12.7998 12.7998 12.7998h38.4004zM243.2 192
c6.39941 0 12.7998 -6.40039 12.7998 -12.7998v-38.4004c0 -6.39941 -6.40039 -12.7998 -12.7998 -12.7998h-38.4004c-6.39941 0 -12.7998 6.40039 -12.7998 12.7998v38.4004c0 6.39941 6.40039 12.7998 12.7998 12.7998h38.4004zM371.2 192
c6.39941 0 12.7998 -6.40039 12.7998 -12.7998v-166.4c0 -6.39941 -6.40039 -12.7998 -12.7998 -12.7998h-38.4004c-6.39941 0 -12.7998 6.40039 -12.7998 12.7998v166.4c0 6.39941 6.40039 12.7998 12.7998 12.7998h38.4004z" />
    <glyph glyph-name="mercury-secondary" unicode="&#x10f223;" horiz-adv-x="288" 
d="M143 160c-44.1602 0 -80 35.8398 -80 80s35.8398 80 80 80s80 -35.8398 80 -80s-35.8398 -80 -80 -80z" />
    <glyph glyph-name="transgender-alt-secondary" unicode="&#x10f225;" horiz-adv-x="480" 
d="M319 209c0 -44.1602 -35.8398 -80 -80 -80s-80 35.8398 -80 80s35.8398 80 80 80s80 -35.8398 80 -80z" />
    <glyph glyph-name="mars-stroke-v-secondary" unicode="&#x10f22a;" horiz-adv-x="288" 
d="M200.58 39.7305c-12.9473 -12.9141 -38.2949 -23.3955 -56.582 -23.3955c-44.2256 0 -80.1201 35.8936 -80.1201 80.1201s35.8945 80.1201 80.1201 80.1201c18.2637 0 43.5898 -10.459 56.5322 -23.3447l0.0498047 -0.0507812
c12.918 -12.9912 23.4023 -38.4043 23.4023 -56.7246c0 -18.3213 -10.4844 -43.7334 -23.4023 -56.7246z" />
    <glyph glyph-name="mars-stroke-h-secondary" unicode="&#x10f22b;" horiz-adv-x="480" 
d="M200.54 135.42c-12.9453 -12.9502 -38.3115 -23.46 -56.6221 -23.46c-44.1934 0 -80.0596 35.8672 -80.0596 80.0596c0 44.1934 35.8662 80.0605 80.0596 80.0605c18.3105 0 43.6768 -10.5098 56.6221 -23.46c12.9307 -12.9453 23.4258 -38.3027 23.4258 -56.6006
c0 -18.2969 -10.4951 -43.6543 -23.4258 -56.5996z" />
    <glyph glyph-name="neuter-secondary" unicode="&#x10f22c;" horiz-adv-x="288" 
d="M144 192c-44.1602 0 -80 35.8398 -80 80s35.8398 80 80 80s80 -35.8398 80 -80s-35.8398 -80 -80 -80z" />
    <glyph glyph-name="clone-secondary" unicode="&#x10f24d;" 
d="M48 -64c-26.4961 0 -48 21.5039 -48 48v288c0 26.4961 21.5039 48 48 48h48v-208c0.0498047 -44.1104 35.8896 -79.9502 80 -80h208v-48c0 -26.4961 -21.5039 -48 -48 -48h-288z" />
    <glyph glyph-name="tv-secondary" unicode="&#x10f26c;" horiz-adv-x="640" 
d="M592 448c26.4961 0 48 -21.5039 48 -48v-320c0 -26.4961 -21.5039 -48 -48 -48h-240v-32h176c8.83203 0 16 -7.16797 16 -16v-32c0 -8.83203 -7.16797 -16 -16 -16h-416c-8.83203 0 -16 7.16797 -16 16v32c0 8.83203 7.16797 16 16 16h176v32h-240
c-26.4961 0 -48 21.5039 -48 48v320c0 26.4961 21.5039 48 48 48h544zM576 96v288h-512v-288h512z" />
    <glyph glyph-name="blind-secondary" unicode="&#x10f29d;" horiz-adv-x="384" 
d="M380.15 -62.8398c-1.05859 -0.644531 -2.92285 -1.16797 -4.16211 -1.16797c-2.48535 0 -5.54883 1.72363 -6.83789 3.84766l-125.32 206.44c4.26953 1.68164 10.0938 5.92871 13 9.47949l126 -207.609c0.644531 -1.05859 1.16797 -2.92285 1.16797 -4.16211
c0 -2.48535 -1.72363 -5.54883 -3.84766 -6.83789v0.00976562z" />
    <glyph glyph-name="trophy-alt-secondary" unicode="&#x10f2eb;" horiz-adv-x="576" 
d="M231.1 260.7l-39.5996 38.5996c-2.0127 1.95215 -3.64551 5.81152 -3.64551 8.61426c0 5.7666 4.63477 11.0908 10.3457 11.8857l54.7998 8l24.5 49.6006c1.82617 3.67969 6.6416 6.66699 10.75 6.66699s8.92383 -2.9873 10.75 -6.66699l24.5 -49.6006l54.7998 -8
c9.60059 -1.5 13.5 -13.5996 6.40039 -20.5l-39.6006 -38.5996l9.40039 -54.6006c0.0898438 -0.539062 0.162109 -1.41992 0.162109 -1.9668c0 -6.62402 -5.37598 -12 -12 -12c-1.62793 0 -4.12012 0.612305 -5.5625 1.36719l-49 25.7998l-49 -25.7998
c-1.44238 -0.754883 -3.93359 -1.36719 -5.56152 -1.36719c-6.62402 0 -12 5.37598 -12 12c0 0.546875 0.0722656 1.42773 0.162109 1.9668zM384 16c35.2998 0 64 -20.7002 64 -56v-12c0 -6.62402 -5.37598 -12 -12 -12h-296c-6.62402 0 -12 5.37598 -12 12v12
c0 35.2998 28.7002 56 64 56h192z" />
    </font>
</defs>
</svg>
