<?xml version="1.0" standalone="no"?>
<!--
Font Awesome Pro 5.12.1 by @fontawesome - https://fontawesome.com
License - https://fontawesome.com/license (Commercial License)
-->
<!DOCTYPE svg PUBLIC "-//W3C//DTD SVG 1.1//EN" "http://www.w3.org/Graphics/SVG/1.1/DTD/svg11.dtd" >
<svg xmlns="http://www.w3.org/2000/svg" xmlns:xlink="http://www.w3.org/1999/xlink" version="1.1">
<metadata>
Created by FontForge 20190801 at Tue Feb  4 18:07:25 2020
 By Robert Madole
Copyright (c) Font Awesome
</metadata>
<defs>
<font id="FontAwesome5Duotone-Solid" horiz-adv-x="384" >
  <font-face 
    font-family="Font Awesome 5 Duotone Solid"
    font-weight="900"
    font-stretch="normal"
    units-per-em="512"
    panose-1="2 0 5 3 0 0 0 0 0 0"
    ascent="448"
    descent="-64"
    bbox="0 -64.001 640 448"
    underline-thickness="25"
    underline-position="-50"
    unicode-range="U+0020-10F958"
  />
    <missing-glyph />
    <glyph glyph-name="clock-primary" unicode="&#xf017;" horiz-adv-x="512" 
d="M348.49 127l-20 -25c-2.65234 -3.31543 -8.25 -6.00586 -12.4951 -6.00586c-3.09766 0 -7.57617 1.57031 -9.99512 3.50586v0l-67 49.7197c-8.28027 6.62988 -15 20.6182 -15 31.2256v0.00488281v155.55c0 8.83203 7.16797 16 16 16h32c8.83203 0 16 -7.16797 16 -16
v-144l58 -42.5c3.31445 -2.65137 6.00488 -8.24902 6.00488 -12.4941c0 -3.10254 -1.57422 -7.58496 -3.51465 -10.0059z" />
    <glyph glyph-name="file-times-primary" unicode="&#xf317;" 
d="M271.2 60.1201l-11.3203 -11.3203c-2.58691 -2.58691 -7.65625 -4.6875 -11.3145 -4.6875c-3.65918 0 -8.72852 2.10059 -11.3154 4.6875l-45.25 45.2598l-45.25 -45.2598c-2.58691 -2.58691 -7.65625 -4.6875 -11.3154 -4.6875
c-3.6582 0 -8.72754 2.10059 -11.3145 4.6875l-11.3203 11.3203c-2.58691 2.58691 -4.6875 7.65625 -4.6875 11.3145c0 3.65918 2.10059 8.72852 4.6875 11.3154l45.2598 45.25l-45.2598 45.25c-2.58691 2.58691 -4.6875 7.65625 -4.6875 11.3154
c0 3.6582 2.10059 8.72754 4.6875 11.3145l11.3203 11.3203c2.58691 2.58691 7.65625 4.6875 11.3145 4.6875c3.65918 0 8.72852 -2.10059 11.3154 -4.6875l45.25 -45.2598l45.25 45.2598c2.58691 2.58691 7.65625 4.6875 11.3154 4.6875
c3.6582 0 8.72754 -2.10059 11.3145 -4.6875l11.3203 -11.3203c2.58691 -2.58691 4.6875 -7.65625 4.6875 -11.3145c0 -3.65918 -2.10059 -8.72852 -4.6875 -11.3154l-45.2598 -45.25l45.2598 -45.25c2.58691 -2.58691 4.6875 -7.65625 4.6875 -11.3154
c0 -3.6582 -2.10059 -8.72754 -4.6875 -11.3145z" />
    <glyph glyph-name="file-minus-primary" unicode="&#xf318;" 
d="M296 136v-16c0 -8.83203 -7.16797 -16 -16 -16h-176c-8.83203 0 -16 7.16797 -16 16v16c0 8.83203 7.16797 16 16 16h176c8.83203 0 16 -7.16797 16 -16z" />
    <glyph glyph-name="file-plus-primary" unicode="&#xf319;" 
d="M296 136v-16c0 -8.83203 -7.16797 -16 -16 -16h-64v-64c0 -8.83203 -7.16797 -16 -16 -16h-16c-8.83203 0 -16 7.16797 -16 16v64h-64c-8.83203 0 -16 7.16797 -16 16v16c0 8.83203 7.16797 16 16 16h64v64c0 8.83203 7.16797 16 16 16h16c8.83203 0 16 -7.16797 16 -16
v-64h64c8.83203 0 16 -7.16797 16 -16z" />
    <glyph glyph-name="folder-plus-primary" unicode="&#xf65e;" horiz-adv-x="512" 
d="M359.5 152c0 -8.83203 -7.16797 -16 -16 -16h-64v-64c0 -8.83203 -7.16797 -16 -16 -16h-16c-8.83203 0 -16 7.16797 -16 16v64h-64c-8.83203 0 -16 7.16797 -16 16v16c0 8.83203 7.16797 16 16 16h64v64c0 8.83203 7.16797 16 16 16h16c8.83203 0 16 -7.16797 16 -16
v-64h64c8.83203 0 16 -7.16797 16 -16v-16z" />
    <glyph glyph-name="coffin-primary" unicode="&#xf6c6;" 
d="M237.53 400h-91.0801l-96.6201 -94.9102l81.7402 -321.09h120.87l81.7393 321.08zM243.67 448h0.0400391c7.39941 0 17.6982 -4.19824 22.9902 -9.37012l107.71 -105.82v0c5.27148 -5.1416 9.5498 -15.292 9.5498 -22.6553
c0 -2.16797 -0.430664 -5.63281 -0.959961 -7.73438l-87.0703 -342.18c-3.51562 -13.3809 -17.5977 -24.2412 -31.4326 -24.2412c-0.0517578 0 -0.135742 0.000976562 -0.1875 0.000976562h-144.619c-0.0556641 0 -0.145508 -0.000976562 -0.200195 -0.000976562
c-13.833 0 -27.9043 10.8604 -31.4102 24.2412l-87.0801 342.18c-0.537109 2.11523 -0.973633 5.60352 -0.973633 7.78613c0 7.34375 4.26172 17.4707 9.51367 22.6035l107.78 105.82c5.29492 5.1709 15.5986 9.36816 23 9.37012h103.35z" />
    <glyph glyph-name="coffin-cross-primary" unicode="&#xf951;" 
d="M374.44 332.81c5.25684 -5.14258 9.52246 -15.2842 9.52246 -22.6387c0 -2.17188 -0.431641 -5.64453 -0.962891 -7.75098l-87.0801 -342.18c-3.50586 -13.3809 -17.5771 -24.2412 -31.4102 -24.2412c-0.0546875 0 -0.144531 0.000976562 -0.200195 0.000976562h-144.619
h-0.165039c-13.834 0 -27.9131 10.8594 -31.4258 24.2402l-87.0996 342.18c-0.537109 2.11523 -0.973633 5.60352 -0.973633 7.78613c0 7.34375 4.26172 17.4707 9.51367 22.6035l107.79 105.82c5.29102 5.17188 15.5908 9.37012 22.9902 9.37012h0.00976562h103.38
c7.40137 -0.00195312 17.7051 -4.19922 23 -9.37012zM288 256v16c0 8.83203 -7.16797 16 -16 16h-56v48c0 8.83203 -7.16797 16 -16 16h-16c-8.83203 0 -16 -7.16797 -16 -16v-48h-56c-8.83203 0 -16 -7.16797 -16 -16v-16c0 -8.83203 7.16797 -16 16 -16h56v-128
c0 -8.83203 7.16797 -16 16 -16h16c8.83203 0 16 7.16797 16 16v128h56c8.83203 0 16 7.16797 16 16z" />
    <glyph glyph-name="folder-download-primary" unicode="&#xf953;" horiz-adv-x="512" 
d="M364.44 165.56l-96.4404 -95.6992c-2.75098 -2.72656 -8.12695 -4.93848 -12 -4.93848s-9.24902 2.21191 -12 4.93848l-96.4199 95.6992c-2.60156 2.58984 -4.71289 7.66992 -4.71289 11.3408c0 8.81152 7.15137 15.9795 15.9629 16h65.1699v48
c0 8.83203 7.16797 16 16 16h32c8.83203 0 16 -7.16797 16 -16v-48h65.1797c8.81738 -0.015625 15.9727 -7.18359 15.9727 -16c0 -3.6709 -2.11133 -8.75098 -4.71191 -11.3408z" />
    <glyph glyph-name="folder-upload-primary" unicode="&#xf954;" horiz-adv-x="512" 
d="M353.19 128.92h-65.1904v-48c0 -8.83203 -7.16797 -16 -16 -16h-32c-8.83203 0 -16 7.16797 -16 16v48h-65.1699c-8.82227 0.00976562 -15.9824 7.17773 -15.9824 16c0 3.6709 2.11133 8.75098 4.71191 11.3398l96.4404 95.7402
c2.75098 2.72559 8.12695 4.9375 12 4.9375s9.24902 -2.21191 12 -4.9375l96.4199 -95.7002c2.62402 -2.59277 4.75293 -7.69141 4.75293 -11.3799c0 -8.82227 -7.16016 -15.9902 -15.9824 -16z" />
    <glyph glyph-name="user-unlock-primary" unicode="&#xf958;" horiz-adv-x="640" 
d="M224 192c-70.6562 0 -128 57.3438 -128 128s57.3438 128 128 128s128 -57.3438 128 -128s-57.3438 -128 -128 -128zM320 128v-160c0.0664062 -9.49707 4.05371 -23.833 8.90039 -32h-280.9c-26.4961 0 -48 21.5039 -48 48v41.5996
c0.0166016 74.1729 60.2275 134.384 134.4 134.4h16.6992c19.1523 -8.83105 51.8115 -15.9971 72.9004 -15.9971s53.748 7.16602 72.9004 15.9971h16.6992c5 0 9.7002 -1 14.5 -1.5c-4.41016 -7.84082 -8.03906 -21.5039 -8.09961 -30.5z" />
    <glyph glyph-name="clock-secondary" unicode="&#x10f017;" horiz-adv-x="512" 
d="M256 440c137 0 248 -111 248 -248s-111 -248 -248 -248s-248 111 -248 248s111 248 248 248zM348.49 127c1.94043 2.4209 3.51465 6.90332 3.51465 10.0059c0 4.24512 -2.69043 9.84277 -6.00488 12.4941l-58 42.5v144c0 8.83203 -7.16797 16 -16 16h-32
c-8.83203 0 -16 -7.16797 -16 -16v-155.55v-0.00488281c0 -10.6074 6.71973 -24.5957 15 -31.2256l67 -49.7197v0c2.41895 -1.93555 6.89746 -3.50586 9.99512 -3.50586c4.24512 0 9.84277 2.69043 12.4951 6.00586l20 25v0z" />
    <glyph glyph-name="file-times-secondary" unicode="&#x10f317;" 
d="M224 312c0.0380859 -13.21 10.79 -23.9619 24 -24h136v-328v-0.0605469c0 -13.2148 -10.7246 -23.9395 -23.9395 -23.9395h-0.0605469h-336h-0.0605469c-13.2148 0 -23.9395 10.7246 -23.9395 23.9395v0.0605469v464v0.0605469
c0 13.2148 10.7246 23.9395 23.9395 23.9395h0.0605469h200v-136zM259.88 207.2c-2.58691 2.58691 -7.65625 4.6875 -11.3145 4.6875c-3.65918 0 -8.72852 -2.10059 -11.3154 -4.6875l-45.25 -45.2598l-45.25 45.2598c-2.58691 2.58691 -7.65625 4.6875 -11.3154 4.6875
c-3.6582 0 -8.72754 -2.10059 -11.3145 -4.6875l-11.3203 -11.3203c-2.58691 -2.58691 -4.6875 -7.65625 -4.6875 -11.3145c0 -3.65918 2.10059 -8.72852 4.6875 -11.3154l45.2598 -45.25l-45.2598 -45.25c-2.58691 -2.58691 -4.6875 -7.65625 -4.6875 -11.3154
c0 -3.6582 2.10059 -8.72754 4.6875 -11.3145l11.3203 -11.3203c2.58691 -2.58691 7.65625 -4.6875 11.3145 -4.6875c3.65918 0 8.72852 2.10059 11.3154 4.6875l45.25 45.2598l45.25 -45.2598c2.58691 -2.58691 7.65625 -4.6875 11.3154 -4.6875
c3.6582 0 8.72754 2.10059 11.3145 4.6875l11.3203 11.3203c2.58691 2.58691 4.6875 7.65625 4.6875 11.3145c0 3.65918 -2.10059 8.72852 -4.6875 11.3154l-45.2598 45.25l45.2598 45.25c2.58691 2.58691 4.6875 7.65625 4.6875 11.3154
c0 3.6582 -2.10059 8.72754 -4.6875 11.3145zM377 343c3.8623 -3.86523 6.99805 -11.4365 7 -16.9004v-6.09961h-128v128h6.09961h0.0595703c5.47363 0 13.0635 -3.13574 16.9404 -7z" />
    <glyph glyph-name="file-minus-secondary" unicode="&#x10f318;" 
d="M377 343c3.8623 -3.86523 6.99805 -11.4365 7 -16.9004v-6.09961h-128v128h6.09961h0.0595703c5.47363 0 13.0635 -3.13574 16.9404 -7zM224 312c0.0380859 -13.21 10.79 -23.9619 24 -24h136v-328v-0.0605469c0 -13.2148 -10.7246 -23.9395 -23.9395 -23.9395
h-0.0605469h-336h-0.0605469c-13.2148 0 -23.9395 10.7246 -23.9395 23.9395v0.0605469v464v0.0605469c0 13.2148 10.7246 23.9395 23.9395 23.9395h0.0605469h200v-136zM296 136c0 8.83203 -7.16797 16 -16 16h-176c-8.83203 0 -16 -7.16797 -16 -16v-16
c0 -8.83203 7.16797 -16 16 -16h176c8.83203 0 16 7.16797 16 16v16z" />
    <glyph glyph-name="file-plus-secondary" unicode="&#x10f319;" 
d="M377 343c3.8623 -3.86523 6.99805 -11.4365 7 -16.9004v-6.09961h-128v128h6.09961h0.0595703c5.47363 0 13.0635 -3.13574 16.9404 -7zM224 312c0.0380859 -13.21 10.79 -23.9619 24 -24h136v-328v-0.0605469c0 -13.2148 -10.7246 -23.9395 -23.9395 -23.9395
h-0.0605469h-336h-0.0605469c-13.2148 0 -23.9395 10.7246 -23.9395 23.9395v0.0605469v464v0.0605469c0 13.2148 10.7246 23.9395 23.9395 23.9395h0.0605469h200v-136zM296 136c0 8.83203 -7.16797 16 -16 16h-64v64c0 8.83203 -7.16797 16 -16 16h-16
c-8.83203 0 -16 -7.16797 -16 -16v-64h-64c-8.83203 0 -16 -7.16797 -16 -16v-16c0 -8.83203 7.16797 -16 16 -16h64v-64c0 -8.83203 7.16797 -16 16 -16h16c8.83203 0 16 7.16797 16 16v64h64c8.83203 0 16 7.16797 16 16v16z" />
    <glyph glyph-name="folder-plus-secondary" unicode="&#x10f65e;" horiz-adv-x="512" 
d="M464 320c26.4961 0 48 -21.5039 48 -48v-224c0 -26.4961 -21.5039 -48 -48 -48h-416c-26.4961 0 -48 21.5039 -48 48v288c0 26.4961 21.5039 48 48 48h160l64 -64h192zM359.5 152v16c0 8.83203 -7.16797 16 -16 16h-64v64c0 8.83203 -7.16797 16 -16 16h-16
c-8.83203 0 -16 -7.16797 -16 -16v-64h-64c-8.83203 0 -16 -7.16797 -16 -16v-16c0 -8.83203 7.16797 -16 16 -16h64v-64c0 -8.83203 7.16797 -16 16 -16h16c8.83203 0 16 7.16797 16 16v64h64c8.83203 0 16 7.16797 16 16z" />
    <glyph glyph-name="coffin-secondary" unicode="&#x10f6c6;" 
d="M237.53 400l96.6494 -94.9199l-81.7393 -321.08h-120.87l-81.7402 321.09l96.6201 94.9102h91.0801z" />
    <glyph glyph-name="coffin-cross-secondary" unicode="&#x10f951;" 
d="M288 256c0 -8.83203 -7.16797 -16 -16 -16h-56v-128c0 -8.83203 -7.16797 -16 -16 -16h-16c-8.83203 0 -16 7.16797 -16 16v128h-56c-8.83203 0 -16 7.16797 -16 16v16c0 8.83203 7.16797 16 16 16h56v48c0 8.83203 7.16797 16 16 16h16c8.83203 0 16 -7.16797 16 -16
v-48h56c8.83203 0 16 -7.16797 16 -16v-16z" />
    <glyph glyph-name="folder-download-secondary" unicode="&#x10f953;" horiz-adv-x="512" 
d="M464 320.92c26.4961 0 48 -21.5039 48 -48v-224c0 -26.4961 -21.5039 -48 -48 -48h-416c-26.4961 0 -48 21.5039 -48 48v288c0 26.4961 21.5039 48 48 48h160l64 -64h192zM364.44 165.56c2.60059 2.58984 4.71191 7.66992 4.71191 11.3408
c0 8.81641 -7.15527 15.9844 -15.9727 16h-65.1797v48c0 8.83203 -7.16797 16 -16 16h-32c-8.83203 0 -16 -7.16797 -16 -16v-48h-65.1699c-8.81152 -0.0205078 -15.9629 -7.18848 -15.9629 -16c0 -3.6709 2.11133 -8.75098 4.71289 -11.3408l96.4199 -95.6992
c2.75098 -2.72656 8.12695 -4.93848 12 -4.93848s9.24902 2.21191 12 4.93848z" />
    <glyph glyph-name="folder-upload-secondary" unicode="&#x10f954;" horiz-adv-x="512" 
d="M464 320.92c26.4961 0 48 -21.5039 48 -48v-224c0 -26.4961 -21.5039 -48 -48 -48h-416c-26.4961 0 -48 21.5039 -48 48v288c0 26.4961 21.5039 48 48 48h160l64 -64h192zM353.19 128.92c8.82227 0.00976562 15.9824 7.17773 15.9824 16
c0 3.68848 -2.12891 8.78711 -4.75293 11.3799l-96.4199 95.7002c-2.75098 2.72559 -8.12695 4.9375 -12 4.9375s-9.24902 -2.21191 -12 -4.9375l-96.4404 -95.7402c-2.60059 -2.58887 -4.71191 -7.66895 -4.71191 -11.3398c0 -8.82227 7.16016 -15.9902 15.9824 -16
h65.1699v-48c0 -8.83203 7.16797 -16 16 -16h32c8.83203 0 16 7.16797 16 16v48h65.1904z" />
    <glyph glyph-name="user-unlock-secondary" unicode="&#x10f958;" horiz-adv-x="640" 
d="M608 160c17.6641 0 32 -14.3359 32 -32v-160c0 -17.6641 -14.3359 -32 -32 -32h-224c-17.6641 0 -32 14.3359 -32 32v160c0 17.6641 14.3359 32 32 32h32v80c0.00195312 44.1582 35.8418 79.9971 80 79.9971c0.756836 0 1.98438 -0.0214844 2.74023 -0.046875
c43.2598 -1.44043 77.2598 -37.6699 77.2598 -80.9502v0c0 -8.28027 -6.71973 -15 -15 -15h-17c-8.83203 0 -16 7.16797 -16 16v0v0.00292969c0 17.6641 -14.3359 32 -32 32c-0.248047 0 -0.651367 -0.00585938 -0.900391 -0.0126953
c-17.4297 -0.480469 -31.0996 -15.2207 -31.0996 -32.6602v-79.3301h144zM496 16c17.6641 0 32 14.3359 32 32s-14.3359 32 -32 32s-32 -14.3359 -32 -32s14.3359 -32 32 -32z" />
  </font>
</defs>
</svg>
