<?xml version="1.0" standalone="no"?>
<!--
Font Awesome Pro 5.12.1 by @fontawesome - https://fontawesome.com
License - https://fontawesome.com/license (Commercial License)
-->
<!DOCTYPE svg PUBLIC "-//W3C//DTD SVG 1.1//EN" "http://www.w3.org/Graphics/SVG/1.1/DTD/svg11.dtd" >
<svg xmlns="http://www.w3.org/2000/svg" xmlns:xlink="http://www.w3.org/1999/xlink" version="1.1">
<metadata>
Created by FontForge 20190801 at Tue Feb  4 18:07:17 2020
 By Robert Madole
Copyright (c) Font Awesome
</metadata>
<defs>
<font id="FontAwesome5Pro-Light" horiz-adv-x="512" >
  <font-face 
    font-family="Font Awesome 5 Pro Light"
    font-weight="300"
    font-stretch="normal"
    units-per-em="512"
    panose-1="2 0 3 3 0 0 0 0 0 0"
    ascent="448"
    descent="-64"
    bbox="-0.0465954 -64.1426 641 448.208"
    underline-thickness="25"
    underline-position="-50"
    unicode-range="U+0020-F958"
  />
    <missing-glyph />
    <glyph glyph-name="music" unicode="&#xf001;" 
d="M481.44 448c16.25 0 30.5596 -13.75 30.5596 -32v-336c0 -44.1904 -43 -80 -96 -80s-96 35.8096 -96 80s43 80 96 80c24.6904 0 47 -8 64 -20.75v148.75l-288 -96v-176c0 -44.1904 -43 -80 -96 -80s-96 35.8096 -96 80s43 80 96 80c24.6904 0 47 -8 64 -20.75v244.75
c0 14 8.71973 26.2803 21.4102 30.5l290.78 96c2.48535 0.826172 6.62988 1.49805 9.25 1.5zM96 -32c34.6904 0 64 22 64 48s-29.3096 48 -64 48s-64 -22 -64 -48s29.3096 -48 64 -48zM416 32c34.6904 0 64 22 64 48s-29.3096 48 -64 48s-64 -22 -64 -48s29.3096 -48 64 -48
zM480 321.72v93.6602l-288.56 -95.2598v-0.120117h0.55957v-94.2803z" />
    <glyph glyph-name="print" unicode="&#xf02f;" 
d="M432 256c44.1797 0 80 -35.8203 80 -80v-96c0 -8.83984 -7.16016 -16 -16 -16h-80v-112c0 -8.83984 -7.16016 -16 -16 -16h-288c-8.83984 0 -16 7.16016 -16 16v112h-80c-8.83984 0 -16 7.16016 -16 16v96c0 44.1797 35.8203 80 80 80h16v160
c0 17.6699 13.6396 32 30.4805 32h180.26c8.49023 0 16.6299 -3.37012 22.6299 -9.37012l77.2598 -77.25c6 -6.00977 9.37012 -14.1396 9.37012 -22.6299v-82.75h16zM320 402.75v-50.75h50.75zM128.12 416l-0.100586 -160h255.98v64h-64c-17.6699 0 -32 14.3301 -32 32v64
h-159.88zM384 -32v96h-256v-96h256zM480 96v80c0 26.4697 -21.5303 48 -48 48h-352c-26.4697 0 -48 -21.5303 -48 -48v-80h448zM400 184c13.25 0 24 -10.7402 24 -24c0 -13.25 -10.75 -24 -24 -24s-24 10.75 -24 24c0 13.2598 10.75 24 24 24z" />
    <glyph glyph-name="adjust" unicode="&#xf042;" 
d="M256 408c-118.663 0 -216 -96.0547 -216 -216c0 -118.663 96.0547 -216 216 -216c118.663 0 216 96.0547 216 216c0 118.663 -96.0547 216 -216 216zM256 440c136.967 0 248 -111.033 248 -248s-111.033 -248 -248 -248s-248 111.033 -248 248s111.033 248 248 248z
M224 315.99c-53.8555 -13.7998 -96 -63 -96 -123.99c0 -60.9893 42.1445 -110.19 96 -123.99v247.98zM256 352v-320c-88.3662 0 -160 71.6338 -160 160s71.6338 160 160 160z" />
    <glyph glyph-name="external-link" unicode="&#xf08e;" 
d="M440 192c4.41602 0 8 -3.58398 8 -8v-200c0 -26.4961 -21.5039 -48 -48 -48h-352c-26.4961 0 -48 21.5039 -48 48v352c0 26.4961 21.5039 48 48 48h200c4.41602 0 8 -3.58398 8 -8v-16c0 -4.41602 -3.58398 -8 -8 -8h-200c-8.83203 0 -16 -7.16797 -16 -16v-352
c0 -8.83203 7.16797 -16 16 -16h352c8.83203 0 16 7.16797 16 16v200c0 4.41602 3.58398 8 8 8h16zM500 448c6.62402 0 12 -5.37598 12 -12l-0.339844 -136.04c0 -6.62402 -5.37598 -12 -12 -12h-10c-6.62402 0 -12 5.37598 -12 12l0.339844 90l-0.709961 0.700195
l-323.12 -323.18c-1.94141 -1.94922 -5.74902 -3.53027 -8.5 -3.53027c-2.75 0 -6.55859 1.58105 -8.5 3.53027l-5.66016 5.65918c-1.94824 1.94141 -3.5293 5.75 -3.5293 8.5c0 2.75098 1.58105 6.55859 3.5293 8.5l323.19 323.15l-0.700195 0.709961l-90 -0.339844
c-6.62402 0 -12 5.37598 -12 12v10c0 6.62402 5.37598 12 12 12z" />
    <glyph glyph-name="trophy" unicode="&#xf091;" horiz-adv-x="576" 
d="M448 384h116c6.59961 0 12 -5.40039 12 -12v-61.5996c0 -62 -68 -134.4 -160.7 -148.101c-29.3994 -60.7002 -73.5996 -90.2998 -111.3 -96.8994v-97.4004h86c14.4004 0 26 -11.7002 26 -26.0996c0 -3.30078 -2.7002 -5.90039 -6 -5.90039h-244
c-3.2998 0 -6 2.59961 -6 5.90039c0 14.3994 11.5996 26.0996 26 26.0996h86v97.4004c-37.5996 6.59961 -81.9004 36.1992 -111.3 96.8994c-92.6006 13.7002 -160.7 86 -160.7 148.101v61.5996c0 6.59961 5.40039 12 12 12h116v52c0 6.59961 5.40039 12 12 12h296
c6.59961 0 12 -5.40039 12 -12v-52zM32 310.4c0 -40.4004 45.9004 -94.9004 114.5 -112.601c-11.5 35.2998 -18.5 78.4004 -18.5 130.2v24h-96v-41.5996zM288 96c72 0 128 104 128 232v88h-256v-88c0 -128 56 -232 128 -232zM544 310.4v41.5996h-96v-24
c0 -51.7998 -7 -94.9004 -18.5 -130.2c68.5 17.7002 114.5 72.2002 114.5 112.601z" />
    <glyph glyph-name="bell" unicode="&#xf0f3;" horiz-adv-x="448" 
d="M224 -32c17.6602 0 32 14.3799 32 32.0303h32c0 -35.3105 -28.7197 -64.0303 -64 -64.0303s-64 28.7197 -64 64.0303h32c0 -17.6504 14.3398 -32.0303 32 -32.0303zM433.38 113.19c13.9697 -13.3008 18.3896 -33.4004 11.2598 -51.2207
c-7.2793 -18.2002 -24.7998 -29.9697 -44.6396 -29.9697h-352c-19.8398 0 -37.3604 11.7598 -44.6396 29.96c-7.12988 17.8203 -2.7207 37.9297 11.25 51.2305c27.96 26.6191 49.3496 54.4893 49.3496 148.909c0 79.5908 63.3896 144.49 144.04 152.341v17.5596
c0 8.83984 7.16016 16 16 16s16 -7.16016 16 -16v-17.5498c80.6504 -7.85059 144.04 -72.7598 144.04 -152.351c0 -94.4297 21.3799 -122.29 49.3398 -148.909zM400 64c14.1699 0 21.3799 16.4297 11.3203 26.0195c-35.0703 33.3809 -59.2803 70.7305 -59.2803 172.08
c0 67.3809 -57.2803 121.9 -128.04 121.9c-70.7695 0 -128.04 -54.5303 -128.04 -121.91c0 -101.74 -24.4199 -138.89 -59.2803 -172.08c-10.0195 -9.54004 -2.91016 -26.0098 11.3203 -26.0098h352z" />
    <glyph glyph-name="angle-left" unicode="&#xf104;" horiz-adv-x="192" 
d="M25.0996 200.5l117.801 116c4.69922 4.7002 12.2998 4.7002 17 0l7.09961 -7.09961c4.7002 -4.7002 4.7002 -12.3008 0 -17l-102.3 -100.4l102.2 -100.4c4.69922 -4.69922 4.69922 -12.2998 0 -17l-7.10059 -7.09961c-4.7002 -4.7002 -12.2998 -4.7002 -17 0l-117.8 116
c-4.59961 4.7002 -4.59961 12.2998 0.0996094 17z" />
    <glyph glyph-name="angle-right" unicode="&#xf105;" horiz-adv-x="192" 
d="M166.9 183.5l-117.801 -116c-4.69922 -4.7002 -12.2998 -4.7002 -17 0l-7.09961 7.09961c-4.7002 4.7002 -4.7002 12.3008 0 17l102.3 100.4l-102.2 100.4c-4.69922 4.69922 -4.69922 12.2998 0 17l7.10059 7.09961c4.7002 4.7002 12.2998 4.7002 17 0l117.8 -116
c4.59961 -4.7002 4.59961 -12.2998 -0.0996094 -17z" />
    <glyph glyph-name="gamepad" unicode="&#xf11b;" horiz-adv-x="640" 
d="M480.07 352c88.2939 -0.0263672 159.952 -71.7061 159.952 -160c0 -88.3203 -71.6797 -160 -160 -160c-37.1016 0 -88.291 21.5039 -114.263 48h-91.5195c-25.9717 -26.4961 -77.1611 -48 -114.263 -48c-88.3203 0 -160 71.6797 -160 160s71.6797 160 160 160h0.0224609
h320.07zM480 64c70.5703 0 128 57.4199 128 128s-57.3896 128 -128 128h-320c-70.5703 0 -128 -57.4199 -128 -128s57.4297 -128 128 -128c0.110352 0 0.290039 -0.000976562 0.400391 -0.000976562c29.5859 0 70.3496 17.2041 90.9893 38.4014l9.41016 9.59961h118.4
l9.42969 -9.59961c20.6406 -21.1973 61.4033 -38.4014 90.9902 -38.4014c0.104492 0 0.275391 0.000976562 0.379883 0.000976562zM222.18 211.64c5.39941 -0.0214844 9.79883 -4.4209 9.82031 -9.81934v-19.6406c-0.0214844 -5.39844 -4.4209 -9.79785 -9.82031 -9.81934
h-42.54v-42.54c-0.0214844 -5.39941 -4.4209 -9.79883 -9.81934 -9.82031h-19.6406c-5.39844 0.0214844 -9.79785 4.4209 -9.81934 9.82031v42.54h-42.54c-5.39941 0.0214844 -9.79883 4.4209 -9.82031 9.81934v19.6406c0.0214844 5.39844 4.4209 9.79785 9.82031 9.81934
h42.54v42.54c0.0214844 5.39941 4.4209 9.79883 9.81934 9.82031h19.6406c5.39844 -0.0214844 9.79785 -4.4209 9.81934 -9.82031v-42.54h42.54zM448 192c17.6641 0 32 -14.3359 32 -32s-14.3359 -32 -32 -32s-32 14.3359 -32 32s14.3359 32 32 32zM512 256
c17.6641 0 32 -14.3359 32 -32s-14.3359 -32 -32 -32s-32 14.3359 -32 32s14.3359 32 32 32z" />
    <glyph glyph-name="anchor" unicode="&#xf13d;" horiz-adv-x="576" 
d="M504.485 183.515l67.0283 -67.0293c7.56055 -7.55957 2.20605 -20.4854 -8.48438 -20.4854h-52.1367c-17.9541 -91.7871 -111.991 -160 -222.893 -160c-105.137 0 -204.037 63.6084 -222.893 160h-52.1367c-10.6904 0 -16.0449 12.9258 -8.48438 20.4854l67.0283 67.0293
c4.6875 4.68652 12.2852 4.68652 16.9717 0l67.0283 -67.0293c7.56055 -7.55957 2.20605 -20.4854 -8.48438 -20.4854h-49.1289c16.9863 -68.749 87.5967 -121.6 174.099 -127.452v287.452h-52c-6.62695 0 -12 5.37305 -12 12v8c0 6.62695 5.37305 12 12 12h52v34.0156
c-27.6035 7.10547 -48 32.1631 -48 61.9844c0 36.3477 30.3018 65.6191 67.0225 63.9297c32.8096 -1.50879 59.4307 -28.1553 60.9102 -60.9668c1.40332 -31.1143 -19.4199 -57.6074 -47.9326 -64.9473v-34.0156h52c6.62695 0 12 -5.37305 12 -12v-8
c0 -6.62695 -5.37305 -12 -12 -12h-52v-287.452c86.501 5.85254 157.111 58.7031 174.099 127.453h-49.1289c-10.6904 0 -16.0449 12.9248 -8.48438 20.4854l67.0283 67.0283c4.6875 4.68652 12.2852 4.68652 16.9717 0zM256 384c0 -17.6445 14.3555 -32 32 -32
s32 14.3555 32 32s-14.3555 32 -32 32s-32 -14.3555 -32 -32zM61.2549 128h37.4902l-18.7451 18.7451zM477.255 128h37.4902l-18.7451 18.7451z" />
    <glyph glyph-name="level-down" unicode="&#xf149;" horiz-adv-x="256" 
d="M252.478 39.4971l-99.9736 -99.9746c-4.69727 -4.69727 -12.3105 -4.69727 -17.0078 0l-99.9736 99.9746c-4.69629 4.69727 -4.69629 12.3105 0 17.0078l8.50293 8.50293c4.69629 4.69727 12.3105 4.69727 17.0068 0l64.9678 -64.9668v411.959h-101.976h-0.00195312
c-2.74316 0 -6.54395 1.5752 -8.4834 3.51465l-12 12c-7.56055 7.55957 -2.20605 20.4854 8.48535 20.4854h125.976c13.2549 0 24 -10.7451 24 -24v-423.959l64.9668 64.9658c4.69727 4.69727 12.3115 4.69727 17.0068 0l8.50293 -8.50293
c4.69727 -4.69629 4.69727 -12.3096 0.000976562 -17.0068z" />
    <glyph glyph-name="fax" unicode="&#xf1ac;" 
d="M392 144c-4.41602 0 -8 3.58398 -8 8v16c0 4.41602 3.58398 8 8 8h16c4.41602 0 8 -3.58398 8 -8v-16c0 -4.41602 -3.58398 -8 -8 -8h-16zM392 16c-4.41602 0 -8 3.58398 -8 8v16c0 4.41602 3.58398 8 8 8h16c4.41602 0 8 -3.58398 8 -8v-16
c0 -4.41602 -3.58398 -8 -8 -8h-16zM80 320c26.4961 0 48 -21.5039 48 -48v-288c0 -26.4961 -21.5039 -48 -48 -48h-32c-26.4961 0 -48 21.5039 -48 48v288c0 26.4961 21.5039 48 48 48h32zM96 -16v288c0 8.83203 -7.16797 16 -16 16h-32c-8.83203 0 -16 -7.16797 -16 -16
v-288c0 -8.83203 7.16797 -16 16 -16h32c8.83203 0 16 7.16797 16 16zM392 80c-4.41602 0 -8 3.58398 -8 8v16c0 4.41602 3.58398 8 8 8h16c4.41602 0 8 -3.58398 8 -8v-16c0 -4.41602 -3.58398 -8 -8 -8h-16zM264 16c-4.41602 0 -8 3.58398 -8 8v16
c0 4.41602 3.58398 8 8 8h16c4.41602 0 8 -3.58398 8 -8v-16c0 -4.41602 -3.58398 -8 -8 -8h-16zM264 80c-4.41602 0 -8 3.58398 -8 8v16c0 4.41602 3.58398 8 8 8h16c4.41602 0 8 -3.58398 8 -8v-16c0 -4.41602 -3.58398 -8 -8 -8h-16zM480 285.06
c17.624 -6.19238 31.96 -26.3789 32 -45.0596v-256c0 -26.4961 -21.5039 -48 -48 -48h-256c-26.4961 0 -48 21.5039 -48 48v416c0 26.4961 21.5039 48 48 48h162.75c7.31836 -0.000976562 17.457 -4.20312 22.6299 -9.37988l77.2402 -77.2402
c5.17676 -5.17285 9.37891 -15.3115 9.37988 -22.6299v-53.6904zM384 402.75v-50.75h50.75zM192 400v-144h256v64h-64c-17.6641 0 -32 14.3359 -32 32v64h-144c-8.83203 0 -16 -7.16797 -16 -16zM480 -16v240h-288v-240c0 -8.83203 7.16797 -16 16 -16h256
c8.83203 0 16 7.16797 16 16zM328 16c-4.41602 0 -8 3.58398 -8 8v16c0 4.41602 3.58398 8 8 8h16c4.41602 0 8 -3.58398 8 -8v-16c0 -4.41602 -3.58398 -8 -8 -8h-16zM328 80c-4.41602 0 -8 3.58398 -8 8v16c0 4.41602 3.58398 8 8 8h16c4.41602 0 8 -3.58398 8 -8v-16
c0 -4.41602 -3.58398 -8 -8 -8h-16zM328 144c-4.41602 0 -8 3.58398 -8 8v16c0 4.41602 3.58398 8 8 8h16c4.41602 0 8 -3.58398 8 -8v-16c0 -4.41602 -3.58398 -8 -8 -8h-16zM264 144c-4.41602 0 -8 3.58398 -8 8v16c0 4.41602 3.58398 8 8 8h16c4.41602 0 8 -3.58398 8 -8
v-16c0 -4.41602 -3.58398 -8 -8 -8h-16z" />
    <glyph glyph-name="calculator" unicode="&#xf1ec;" horiz-adv-x="448" 
d="M80 0c-8.83984 0 -16 7.16016 -16 16v192c0 8.83984 7.16016 16 16 16h288c8.83984 0 16 -7.16016 16 -16v-192c0 -8.83984 -7.16016 -16 -16 -16h-288zM288 96v-64h64v160h-64v-96zM192 192v-64h64v64h-64zM192 96v-64h64v64h-64zM96 192v-64h64v64h-64zM96 96v-64h64
v64h-64zM400 448c25.5996 0 48 -22.4004 48 -48v-416c0 -25.5996 -22.4004 -48 -48 -48h-352c-25.5996 0 -48 22.4004 -48 48v416c0 25.5996 22.4004 48 48 48h352zM416 -16v272h-384v-272c0 -7.92969 8.07031 -16 16 -16h352c7.92969 0 16 8.07031 16 16zM416 288v112
c0 7.92969 -8.07031 16 -16 16h-352c-7.92969 0 -16 -8.07031 -16 -16v-112h384z" />
    <glyph glyph-name="mercury" unicode="&#xf223;" horiz-adv-x="288" 
d="M288 240c0 -74.2002 -56.2002 -135.3 -128.3 -143.1c0.200195 -0.900391 0.299805 -1.80078 0.299805 -2.7002v-62.2002h52c6.59961 0 12 -5.40039 12 -12v-8c0 -6.59961 -5.40039 -12 -12 -12h-52v-52c0 -6.59961 -5.40039 -12 -12 -12h-8
c-6.59961 0 -12 5.40039 -12 12v52h-52c-6.59961 0 -12 5.40039 -12 12v8c0 6.59961 5.40039 12 12 12h52v62.2002c0 0.899414 0.0996094 1.7998 0.299805 2.7002c-72.0996 7.7998 -128.3 68.8994 -128.3 143.1c0 57 33.0996 106.2 81.0996 129.6
c-24 14.8008 -40.8994 37.9004 -45.2998 64.5c-1.2002 7.30078 4.5 13.9004 11.9004 13.9004h8.09961c5.7998 0 10.7998 -4 11.7998 -9.7002c5.60059 -30.7002 37.7002 -54.2998 76.4004 -54.2998s70.7998 23.5996 76.4004 54.2998
c1.09961 5.60059 6.09961 9.7002 11.7998 9.7002h8.09961c7.40039 0 13.1006 -6.59961 11.9004 -13.9004c-4.40039 -26.5996 -21.2998 -49.5996 -45.2998 -64.5c48 -23.3994 81.0996 -72.5996 81.0996 -129.6zM144 128c62 0 112 50.0996 112 112c0 62 -50.0996 112 -112 112
c-62 0 -112 -50.0996 -112 -112c0 -62 50.0996 -112 112 -112z" />
    <glyph glyph-name="transgender-alt" unicode="&#xf225;" horiz-adv-x="480" 
d="M468 448c6.59961 0 12 -5.40039 12 -12v-88c0 -6.59961 -5.40039 -12 -12 -12h-8c-6.59961 0 -12 5.40039 -12 12v45.4004l-95.5 -95.5c19.7002 -24.7002 31.5 -55.9004 31.5 -89.9004c0 -74.0996 -56 -135.1 -128 -143.1v-40.9004h52c6.59961 0 12 -5.40039 12 -12v-8
c0 -6.59961 -5.40039 -12 -12 -12h-52v-44c0 -6.59961 -5.40039 -12 -12 -12h-8c-6.59961 0 -12 5.40039 -12 12v44h-52c-6.59961 0 -12 5.40039 -12 12v8c0 6.59961 5.40039 12 12 12h52v40.9004c-72 7.89941 -128 69 -128 143.1c0 34 11.7998 65.2002 31.5996 89.7998
l-28.8994 28.9004l-31.1006 -31.1006c-4.69922 -4.69922 -12.2998 -4.69922 -17 0l-5.69922 5.7002c-4.7002 4.7002 -4.7002 12.2998 0 17l31.0996 31.1006l-44 44v-45.4004c0 -6.59961 -5.40039 -12 -12 -12h-8c-6.59961 0 -12 5.40039 -12 12v88
c0 6.59961 5.40039 12 12 12h88c6.59961 0 12 -5.40039 12 -12v-8c0 -6.59961 -5.40039 -12 -12 -12h-45.4004l44 -44l31 31.2002c4.7002 4.7002 12.3008 4.7002 17 0l5.7002 -5.7002c4.7002 -4.7002 4.7002 -12.2998 0 -17l-31.0996 -31.0996l28.8994 -28.9004
c24.7002 19.7002 55.9004 31.5 89.9004 31.5s65.2002 -11.7998 89.9004 -31.5l95.5 95.5h-45.4004c-6.59961 0 -12 5.40039 -12 12v8c0 6.59961 5.40039 12 12 12h88zM240 96c62 0 112 50.0996 112 112c0 62 -50.0996 112 -112 112c-62 0 -112 -50.0996 -112 -112
c0 -62 50.0996 -112 112 -112z" />
    <glyph glyph-name="mars-stroke-v" unicode="&#xf22a;" horiz-adv-x="288" 
d="M245.8 213.8c56.2998 -56.2002 56.2998 -147.399 0 -203.6c-56.2002 -56.2002 -147.399 -56.2002 -203.6 0s-56.2002 147.399 0 203.6c24 24.1006 54.3994 37.7998 85.7998 41.2998v32.9004h-44c-6.59961 0 -12 5.40039 -12 12v8c0 6.59961 5.40039 12 12 12h44v70.2002
l-32 -32.2002c-4.7002 -4.7002 -12.2998 -4.7002 -17 0l-5.7002 5.7002c-4.7002 4.7002 -4.7002 12.2998 0 17l62.2002 62.2002c4.7002 4.69922 12.2998 4.69922 17 0l62.2998 -62.1006c4.7002 -4.7002 4.7002 -12.2998 0 -17l-5.7002 -5.7002
c-4.69922 -4.69922 -12.2998 -4.69922 -17 0l-32.0996 32.1006v-70.2002h44c6.59961 0 12 -5.40039 12 -12v-8c0 -6.59961 -5.40039 -12 -12 -12h-44v-32.9004c31.2998 -3.5 61.7998 -17.2998 85.7998 -41.2998zM144 0c62 0 112 50.0996 112 112c0 62 -50.0996 112 -112 112
c-62 0 -112 -50.0996 -112 -112c0 -62 50.0996 -112 112 -112z" />
    <glyph glyph-name="mars-stroke-h" unicode="&#xf22b;" horiz-adv-x="480" 
d="M474.9 200.5c4.69922 -4.7002 4.69922 -12.2998 0.0996094 -17.2002l-62.2002 -62.2002c-4.7002 -4.69922 -12.2998 -4.69922 -17 0l-5.7002 5.7002c-4.69922 4.7002 -4.69922 12.2998 0 17l32.1006 32.1006h-70.2002v-44c0 -6.60059 -5.40039 -12 -12 -12h-8
c-6.59961 0 -12 5.39941 -12 12v44h-32.9004c-3.5 -31.3008 -17.2998 -61.8008 -41.2998 -85.8008c-56.2002 -56.1992 -147.399 -56.1992 -203.6 0c-56.2002 56.2002 -56.2002 147.4 0 203.601s147.399 56.2002 203.6 0c24.1006 -24 37.7998 -54.4004 41.2998 -85.7998
h32.9004v44c0 6.59961 5.40039 12 12 12h8c6.59961 0 12 -5.40039 12 -12v-44h70.0996l-32.0996 32.0996c-4.7002 4.7002 -4.7002 12.2998 0 17l5.7002 5.7002c4.7002 4.7002 12.2998 4.7002 17 0zM144 80c62 0 112 50.0996 112 112c0 62 -50.0996 112 -112 112
c-62 0 -112 -50.0996 -112 -112c0 -62 50.0996 -112 112 -112z" />
    <glyph glyph-name="neuter" unicode="&#xf22c;" horiz-adv-x="288" 
d="M288 272c0 -74.0996 -56 -135.2 -128 -143.1v-148.9c0 -6.59961 -5.40039 -12 -12 -12h-8c-6.59961 0 -12 5.40039 -12 12v148.9c-72 7.89941 -128 69 -128 143.1c0 79.5 64.5 144 144 144s144 -64.5 144 -144zM144 160c62 0 112 50.0996 112 112
c0 62 -50.0996 112 -112 112c-62 0 -112 -50.0996 -112 -112c0 -62 50.0996 -112 112 -112z" />
    <glyph glyph-name="clone" unicode="&#xf24d;" 
d="M464 448c26.5098 0 48 -21.4902 48 -48v-320c0 -26.5098 -21.4902 -48 -48 -48h-48v-48c0 -26.5098 -21.4902 -48 -48 -48h-320c-26.5098 0 -48 21.4902 -48 48v320c0 26.5098 21.4902 48 48 48h48v48c0 26.5098 21.4902 48 48 48h320zM384 -16v48h-240
c-26.5098 0 -48 21.4902 -48 48v240h-48c-8.82031 0 -16 -7.17969 -16 -16v-320c0 -8.82031 7.17969 -16 16 -16h320c8.82031 0 16 7.17969 16 16zM480 80v320c0 8.82031 -7.17969 16 -16 16h-320c-8.82031 0 -16 -7.17969 -16 -16v-320c0 -8.82031 7.17969 -16 16 -16h320
c8.82031 0 16 7.17969 16 16z" />
    <glyph glyph-name="tv" unicode="&#xf26c;" horiz-adv-x="640" 
d="M592 448c26.4961 0 48 -21.5039 48 -48v-320c0 -26.4961 -21.5039 -48 -48 -48h-256v-64h168c4.41602 0 8 -3.58398 8 -8v-16c0 -4.41602 -3.58398 -8 -8 -8h-368c-4.41602 0 -8 3.58398 -8 8v16c0 4.41602 3.58398 8 8 8h168v64h-256c-26.4961 0 -48 21.5039 -48 48v320
c0 26.4961 21.5039 48 48 48h544zM608 80v320c0 8.83203 -7.16797 16 -16 16h-544c-8.83203 0 -16 -7.16797 -16 -16v-320c0 -8.83203 7.16797 -16 16 -16h544c8.83203 0 16 7.16797 16 16z" />
    <glyph glyph-name="blind" unicode="&#xf29d;" horiz-adv-x="384" 
d="M206.817 -41.959c3.33398 -8.18359 -0.598633 -17.5215 -8.78027 -20.8545c-8.16602 -3.32812 -17.5146 0.582031 -20.8545 8.78027l-67.043 164.558l15.5498 46.6475zM102.663 326.469l17.3369 -24.8555v-136.21l-72.8223 -218.458
c-2.79395 -8.38477 -11.8564 -12.9131 -20.2373 -10.1191c-8.38379 2.79395 -12.9141 11.8545 -10.1191 20.2383l55.1787 165.531v198.465l-48 -53.6455v-91.415c0 -6.62695 -5.37305 -12 -12 -12s-12 5.37305 -12 12v100.585l71.0566 79.417
c2.36914 2.64844 5.64941 3.98438 8.94336 3.98535v0.0126953h32v-0.00390625h0.0146484c3.45117 0 7.85449 -2.29785 9.82715 -5.12988l120 -172c3.82031 -5.47656 2.37988 -12.9717 -2.97559 -16.708c-5.40137 -3.7666 -12.8936 -2.49219 -16.708 2.97559
l-112.934 161.912c-0.658203 0.945312 -2.12891 1.71191 -3.28027 1.71191c-2.20801 0 -4.00098 -1.79199 -4.00098 -4c0 -0.694336 0.322266 -1.71973 0.719727 -2.28906zM383.388 -57.874c0.352539 -0.545898 0.637695 -1.5166 0.637695 -2.16699
c0 -2.20801 -1.79199 -4 -4 -4c-1.23926 0 -2.76855 0.859375 -3.41406 1.91699l-137.601 219.416c2.10742 0.794922 5.14453 2.69727 6.78027 4.24512zM96 448c22.0908 0 40 -17.9092 40 -40s-17.9092 -40 -40 -40s-40 17.9092 -40 40s17.9092 40 40 40z" />
    <glyph glyph-name="trophy-alt" unicode="&#xf2eb;" horiz-adv-x="576" 
d="M370.5 309.1c9 -1.2998 12.7002 -12.3994 6 -18.7998l-36.2998 -35.3994l8.59961 -50c1.5 -9 -8 -15.8008 -16 -11.6006l-44.8994 23.6006l-44.9004 -23.6006c-8.09961 -4.2002 -17.5 2.7002 -16 11.6006l8.59961 50l-36.2998 35.3994
c-6.5 6.40039 -2.89941 17.5 6.10059 18.7998l50.1992 7.30078l22.5 45.5c4 8.19922 15.7002 8.09961 19.7002 0l22.5 -45.5zM310.2 264.7l22.0996 21.5996l-30.7002 4.5l-13.6992 27.7998l-13.7002 -27.7998l-30.7002 -4.5l22.2002 -21.5996l-5.2002 -30.6006l27.5 14.4004
l27.4004 -14.4004zM448 384h116c6.59961 0 12 -5.40039 12 -12v-61.5996c0 -62 -68 -134.4 -160.7 -148.101c-29.3994 -60.7002 -73.5996 -90.2998 -111.3 -96.8994v-97.4004h86c14.4004 0 26 -11.7002 26 -26.0996c0 -3.30078 -2.7002 -5.90039 -6 -5.90039h-244
c-3.2998 0 -6 2.59961 -6 5.90039c0 14.3994 11.5996 26.0996 26 26.0996h86v97.4004c-37.5996 6.59961 -81.9004 36.1992 -111.3 96.8994c-92.6006 13.7002 -160.7 86 -160.7 148.101v61.5996c0 6.59961 5.40039 12 12 12h116v52c0 6.59961 5.40039 12 12 12h296
c6.59961 0 12 -5.40039 12 -12v-52zM32 310.4c0 -40.4004 45.9004 -94.9004 114.5 -112.601c-11.5 35.2998 -18.5 78.4004 -18.5 130.2v24h-96v-41.5996zM288 96c72 0 128 104 128 232v88h-256v-88c0 -128 56 -232 128 -232zM544 310.4v41.5996h-96v-24
c0 -51.7998 -7 -94.9004 -18.5 -130.2c68.5 17.7002 114.5 72.2002 114.5 112.601z" />
    <glyph glyph-name="times-hexagon" unicode="&#xf2ee;" horiz-adv-x="576" 
d="M441.5 408.2l112 -192c8.7002 -15 8.7002 -33.5 0 -48.4004l-112 -192c-8.59961 -14.7002 -24.4004 -23.7998 -41.5 -23.7998h-224c-17.0996 0 -32.9004 9.09961 -41.5 23.7998l-112 192c-8.7002 15 -8.7002 33.5 0 48.4004l112 192
c8.59961 14.7002 24.4004 23.7998 41.5 23.7998h224c17.0996 0 32.9004 -9.09961 41.5 -23.7998zM525.8 183.9c2.90039 5 2.90039 11.1992 0 16.1992l-112 192c-2.7998 4.90039 -8.09961 7.90039 -13.7998 7.90039h-224c-5.7002 0 -11 -3 -13.7998 -8l-112 -192
c-2.90039 -4.90039 -2.90039 -11.0996 0 -16.0996l112 -192c2.7998 -4.90039 8.09961 -7.90039 13.7998 -7.90039h224c5.59961 0 10.9004 3 13.7998 7.90039zM382.8 105.7l-8.5 -8.5c-4.7002 -4.7002 -12.2998 -4.7002 -17 0l-69.2998 69.2998l-69.2998 -69.2998
c-4.7002 -4.7002 -12.2998 -4.7002 -17 0l-8.5 8.5c-4.7002 4.7002 -4.7002 12.2998 0 17l69.2998 69.2998l-69.2998 69.2998c-4.7002 4.7002 -4.7002 12.2998 0 17l8.5 8.5c4.7002 4.7002 12.2998 4.7002 17 0l69.2998 -69.2998l69.2998 69.2998
c4.7002 4.7002 12.2998 4.7002 17 0l8.5 -8.5c4.7002 -4.7002 4.7002 -12.2998 0 -17l-69.2998 -69.2998l69.2998 -69.2998c4.60059 -4.7002 4.60059 -12.2998 0 -17z" />
    <glyph glyph-name="star-exclamation" unicode="&#xf2f3;" horiz-adv-x="576" 
d="M260.2 289.7c-0.200195 3.39941 2.5 6.2998 6 6.2998h43.5996c3.40039 0 6.2002 -2.90039 6 -6.2998l-7.2998 -132c-0.200195 -3.2002 -2.7998 -5.7002 -6 -5.7002h-28.9004c-3.19922 0 -5.7998 2.5 -6 5.7002zM288 128c17.7002 0 32 -14.2998 32 -32
s-14.2998 -32 -32 -32s-32 14.2998 -32 32s14.2998 32 32 32zM545.9 222l-105.801 -103l25 -145.5c4.5 -26.2002 -23.0996 -46 -46.3994 -33.7002l-130.7 68.6006l-130.7 -68.7002c-23.3994 -12.2998 -50.8994 7.59961 -46.3994 33.7002l25 145.5l-105.801 103.1
c-19 18.5 -8.5 50.7998 17.7002 54.5996l146.2 21.2002l65.2998 132.4c11.7998 23.7998 45.7002 23.7002 57.4004 0l65.2998 -132.4l146.1 -21.2002c26.2002 -3.7998 36.7002 -36.0996 17.8008 -54.5996zM523.5 244.9l-162.7 23.6992l-72.7998 147.4l-72.7998 -147.4
l-162.7 -23.6992l117.7 -114.801l-27.7998 -162l145.6 76.5l145.5 -76.5l-27.7998 162z" />
    <glyph glyph-name="plus-hexagon" unicode="&#xf300;" horiz-adv-x="576" 
d="M441.5 408.2l112 -192c8.7002 -15 8.7002 -33.5 0 -48.4004l-112 -192c-8.59961 -14.7002 -24.4004 -23.7998 -41.5 -23.7998h-224c-17.0996 0 -32.9004 9.09961 -41.5 23.7998l-112 192c-8.7002 15 -8.7002 33.5 0 48.4004l112 192
c8.59961 14.7002 24.4004 23.7998 41.5 23.7998h224c17.0996 0 32.9004 -9.09961 41.5 -23.7998zM525.8 183.9c2.90039 5 2.90039 11.1992 0 16.1992l-112 192c-2.7998 4.90039 -8.09961 7.90039 -13.7998 7.90039h-224c-5.7002 0 -11 -3 -13.7998 -8l-112 -192
c-2.90039 -4.90039 -2.90039 -11.0996 0 -16.0996l112 -192c2.7998 -4.90039 8.09961 -7.90039 13.7998 -7.90039h224c5.59961 0 10.9004 3 13.7998 7.90039zM416 198v-12c0 -6.59961 -5.40039 -12 -12 -12h-98v-98c0 -6.59961 -5.40039 -12 -12 -12h-12
c-6.59961 0 -12 5.40039 -12 12v98h-98c-6.59961 0 -12 5.40039 -12 12v12c0 6.59961 5.40039 12 12 12h98v98c0 6.59961 5.40039 12 12 12h12c6.59961 0 12 -5.40039 12 -12v-98h98c6.59961 0 12 -5.40039 12 -12z" />
    <glyph glyph-name="minus-hexagon" unicode="&#xf307;" horiz-adv-x="576" 
d="M441.5 408.2l112 -192c8.7002 -15 8.7002 -33.5 0 -48.4004l-112 -192c-8.59961 -14.7002 -24.4004 -23.7998 -41.5 -23.7998h-224c-17.0996 0 -32.9004 9.09961 -41.5 23.7998l-112 192c-8.7002 15 -8.7002 33.5 0 48.4004l112 192
c8.59961 14.7002 24.4004 23.7998 41.5 23.7998h224c17.0996 0 32.9004 -9.09961 41.5 -23.7998zM525.8 183.9c2.90039 5 2.90039 11.1992 0 16.1992l-112 192c-2.7998 4.90039 -8.09961 7.90039 -13.7998 7.90039h-224c-5.7002 0 -11 -3 -13.7998 -8l-112 -192
c-2.90039 -4.90039 -2.90039 -11.0996 0 -16.0996l112 -192c2.7998 -4.90039 8.09961 -7.90039 13.7998 -7.90039h224c5.59961 0 10.9004 3 13.7998 7.90039zM172 174c-6.59961 0 -12 5.40039 -12 12v12c0 6.59961 5.40039 12 12 12h232c6.59961 0 12 -5.40039 12 -12v-12
c0 -6.59961 -5.40039 -12 -12 -12h-232z" />
    <glyph glyph-name="chevron-double-left" unicode="&#xf323;" horiz-adv-x="384" 
d="M349.5 -27.5l-211.1 211c-4.7002 4.7002 -4.7002 12.2998 0 17l211.1 211c4.7002 4.7002 12.2998 4.7002 17 0l7.09961 -7.09961c4.7002 -4.7002 4.7002 -12.3008 0 -17l-195.5 -195.4l195.5 -195.5c4.7002 -4.7002 4.7002 -12.2998 0 -17l-7.09961 -7.09961
c-4.7002 -4.60059 -12.2998 -4.60059 -17 0.0996094zM238.5 -27.5c-4.7002 -4.7002 -12.2998 -4.7002 -17.0996 0.0996094l-211.101 211c-4.7002 4.7002 -4.7002 12.3008 0 17l211.101 211c4.69922 4.7002 12.2998 4.7002 17 0l7.09961 -7.09961
c4.7002 -4.7002 4.7002 -12.2998 0 -17l-195.4 -195.5l195.5 -195.4c4.7002 -4.69922 4.7002 -12.2998 0 -17z" />
    <glyph glyph-name="chevron-double-right" unicode="&#xf324;" horiz-adv-x="384" 
d="M34.5 411.5l211.1 -211c4.7002 -4.7002 4.7002 -12.2998 0 -17l-211.1 -211c-4.7002 -4.7002 -12.2998 -4.7002 -17 0l-7.09961 7.09961c-4.7002 4.7002 -4.7002 12.3008 0 17l195.5 195.4l-195.4 195.5c-4.7002 4.7002 -4.7002 12.2998 0 17l7.09961 7.09961
c4.60059 4.60059 12.2002 4.60059 16.9004 -0.0996094zM145.5 411.5c4.7002 4.7002 12.2998 4.7002 17.0996 -0.0996094l211.101 -211c4.7002 -4.7002 4.7002 -12.3008 0 -17l-211.101 -211c-4.69922 -4.7002 -12.2998 -4.7002 -17 0l-7.09961 7.09961
c-4.7002 4.7002 -4.7002 12.2998 0 17l195.4 195.5l-195.5 195.4c-4.7002 4.69922 -4.7002 12.2998 0 17z" />
    <glyph glyph-name="arrows-alt-v" unicode="&#xf338;" horiz-adv-x="192" 
d="M160 64c28.5 0 42.7002 -34.5 22.7002 -54.5996l-64 -64c-12.5 -12.5 -32.7998 -12.5 -45.2998 0l-64 64c-20.2002 20.0996 -5.80078 54.5996 22.5996 54.5996h47v256h-47c-28.5 0 -42.7002 34.5 -22.7002 54.5996l64 64c12.5 12.5 32.7998 12.5 45.2998 0l64 -64
c20.2002 -20.0996 5.80078 -54.5996 -22.5996 -54.5996h-47v-256h47zM32 348h128c3.5 0 5.2998 4.2998 2.7998 6.7998l-64 64c-1.5 1.60059 -4 1.60059 -5.59961 0l-64 -64c-2.60059 -2.5 -0.700195 -6.7998 2.7998 -6.7998zM162.8 29.2002
c2.5 2.5 0.700195 6.7998 -2.7998 6.7998h-128c-3.5 0 -5.2998 -4.2998 -2.7998 -6.7998l64 -64c1.5 -1.60059 4 -1.60059 5.59961 0z" />
    <glyph glyph-name="arrow-to-bottom" unicode="&#xf33d;" horiz-adv-x="384" 
d="M348.5 184l-148 -148.5c-4.7002 -4.7002 -12.2998 -4.7002 -17 0l-148 148.5c-4.7002 4.7002 -4.7002 12.2998 0 17l7.09961 7.09961c4.7002 4.7002 12.3008 4.7002 17 0l115.4 -116v311.9c0 6.59961 5.40039 12 12 12h10c6.59961 0 12 -5.40039 12 -12v-311.9
l115.4 115.9c4.69922 4.7002 12.2998 4.7002 17 0l7.09961 -7.09961c4.7002 -4.60059 4.7002 -12.2002 0 -16.9004zM384 -20c0 -6.59961 -5.40039 -12 -12 -12h-360c-6.59961 0 -12 5.40039 -12 12v8c0 6.59961 5.40039 12 12 12h360c6.59961 0 12 -5.40039 12 -12v-8z" />
    <glyph glyph-name="external-link-alt" unicode="&#xf35d;" 
d="M440 192c4.41602 0 8 -3.58398 8 -8v-200c0 -26.4961 -21.5039 -48 -48 -48h-352c-26.4961 0 -48 21.5039 -48 48v352c0 26.4961 21.5039 48 48 48h200c4.41602 0 8 -3.58398 8 -8v-16c0 -4.41602 -3.58398 -8 -8 -8h-200c-8.83203 0 -16 -7.16797 -16 -16v-352
c0 -8.83203 7.16797 -16 16 -16h352c8.83203 0 16 7.16797 16 16v200c0 4.41602 3.58398 8 8 8h16zM480 448c17.6641 0 32 -14.3359 32 -32v-0.0498047l-0.129883 -96.21c-0.0498047 -28.5703 -34.6201 -42.5703 -54.6201 -22.5703l-35.2803 35.2705l-265 -265
c-1.94141 -1.94824 -5.74902 -3.53027 -8.5 -3.53027c-2.75 0 -6.55859 1.58203 -8.5 3.53027l-8.48926 8.48926c-1.94922 1.94141 -3.53027 5.75 -3.53027 8.5c0 2.75098 1.58105 6.55859 3.53027 8.5l265 265l-35.2803 35.2803
c-20.0801 20.0801 -5.87012 54.6201 22.5801 54.6201l96.1602 0.169922h0.0595703zM479.83 319.83l0.169922 96.1699l-96.1699 -0.169922z" />
    <glyph glyph-name="scanner-touchscreen" unicode="&#xf48a;" horiz-adv-x="576" 
d="M400 352c8.7998 0 16 -7.2002 16 -16v-169.4c0 -4.19922 -1.7002 -8.2998 -4.7002 -11.2998l-27.2998 -27.2998v-144c0 -26.5 -21.5 -48 -48 -48h-256c-26.5 0 -48 21.5 -48 48v144l-27.2998 27.2998c-3 3 -4.7002 7.10059 -4.7002 11.2998v169.4
c0 8.7998 7.2002 16 16 16h384zM384 173.3v146.7h-352v-146.7l22.5996 -22.5996l9.40039 -9.40039v-157.3c0 -8.7998 7.2002 -16 16 -16h256c8.7998 0 16 7.2002 16 16v157.3zM112 0c-8.7998 0 -16 7.2002 -16 16v256c0 8.7998 7.2002 16 16 16h192
c8.7998 0 16 -7.2002 16 -16v-256c0 -8.7998 -7.2002 -16 -16 -16h-192zM128 256v-224h160v224h-160zM320 440v-56h-32v56c0 4.40039 3.59961 8 8 8h16c4.40039 0 8 -3.59961 8 -8zM256 440v-56h-64v56c0 4.40039 3.59961 8 8 8h48c4.40039 0 8 -3.59961 8 -8zM568 448
c4.40039 0 8 -3.59961 8 -8v-272c0 -4.40039 -3.59961 -8 -8 -8h-48c-4.40039 0 -8 3.59961 -8 8v272c0 4.40039 3.59961 8 8 8h48zM472 448c4.40039 0 8 -3.59961 8 -8v-272c0 -4.40039 -3.59961 -8 -8 -8h-16c-4.40039 0 -8 3.59961 -8 8v272c0 4.40039 3.59961 8 8 8h16z
M408 448c4.40039 0 8 -3.59961 8 -8v-56h-64v56c0 4.40039 3.59961 8 8 8h48z" />
    <glyph glyph-name="hand-holding-usd" unicode="&#xf4c0;" horiz-adv-x="576" 
d="M256.7 312.3c-21.4004 6.10059 -38.4004 24.1006 -40.4004 46.2002c-2.89941 31.2002 21.6006 57.5 52.2002 57.5h3.5v24c0 4.40039 3.59961 8 8 8h16c4.40039 0 8 -3.59961 8 -8v-24h1.40039c15.6992 0 30.5996 -5.09961 42.8994 -14.4004
c3.90039 -3 4.5 -8.69922 1 -12.1992l-11.3994 -11.4004c-2.60059 -2.7002 -6.80078 -3.40039 -9.80078 -1.2002c-6.5 4.7002 -14.3994 7.2998 -22.5996 7.2998h-36.9004c-11.2998 0 -20.5 -9.19922 -20.5 -20.5c0 -9.09961 6.10059 -17.1992 14.9004 -19.6992
l59.0996 -16.9004c27.8008 -8 45.2002 -38.2002 35.1006 -67.7998c-7.40039 -21.6006 -28.9004 -35.2002 -51.7002 -35.2002h-1.40039v-24c0 -4.40039 -3.59961 -8 -8 -8h-16c-4.39941 0 -8 3.59961 -8 8v24h-1.39941c-15.7002 0 -30.6006 5.09961 -42.9004 14.5
c-3.89941 3 -4.5 8.7002 -1 12.2002l11.4004 11.3994c2.59961 2.7002 6.7998 3.40039 9.7998 1.2002c6.5 -4.7002 14.4004 -7.2998 22.5996 -7.2998h36.9004c11.2998 0 20.5 9.2002 20.5 20.5c0 9.09961 -6.09961 17.2002 -14.9004 19.7002zM558.3 114.4
c11.7002 -10.6006 18.2002 -25.8008 17.7002 -41.4004s-7.7998 -30.2002 -20 -40l-100.9 -80.7002c-13.1992 -10.5996 -29.5996 -16.3994 -46.5996 -16.3994h-400.5c-4.40039 0 -8 3.59961 -8 8v16c0 4.39941 3.59961 8 8 8h400.5c9.7002 0 19.0996 3.19922 26.7002 9.2998
l100.8 80.7002c10.2002 8.09961 11 23.5 0.900391 32.5996c-8.40039 7.59961 -20.7002 6.09961 -28.4004 0l-61.5996 -49.2002c-7.60059 -6 -17 -9.2998 -26.7002 -9.2998h-180.2c-8.7998 0 -16 7.2002 -16 16s7.2002 16 16 16h88c13.2998 0 24 10.7002 24 24
s-10.7002 24 -24 24h-146.7c-13.7998 0 -27.2998 -4.5 -38.3994 -12.7998l-46.9004 -35.2002h-88c-4.40039 0 -8 3.59961 -8 8v16c0 4.40039 3.59961 8 8 8h77.2998l38.4004 28.7998c16.5996 12.5 36.7998 19.2002 57.5996 19.2002h144.2
c28.2002 0 53.7998 -19.7998 57.7998 -47.7002c1.7002 -11.5996 -0.200195 -22.7002 -4.7998 -32.2998h41.5996c2.5 0 4.80078 0.799805 6.7002 2.2998l61.6006 49.2998c20.5 16.4004 50.1992 16.5 69.8994 -1.19922z" />
    <glyph glyph-name="drum" unicode="&#xf569;" 
d="M414.51 330.22c56.9707 -18.0898 97.4902 -47.7393 97.4902 -90.2197v-160c0 -61.8496 -114.62 -112 -256 -112s-256 50.1504 -256 112v160c0 77 132.7 112 256 112c39.1396 0 79.1904 -3.55957 115.68 -10.8398l115.891 72.4102
c2.05859 1.19727 5.66309 2.16992 8.0459 2.16992c8.83203 0 16 -7.16797 16 -16c0 -4.71875 -3.18359 -10.6768 -7.10645 -13.2998zM96 26.54v123.75c-25.4502 8.21973 -47.4697 18.7998 -64 31.7998v-102.09c0 -16.7402 23.1201 -37.3398 64 -53.46zM240 0.349609v127.94
c-38.4805 0.94043 -77.1504 5.28027 -112 13.2803v-125.62c31.0703 -8.60059 68.8604 -14.4102 112 -15.6006zM384 15.9502v125.62c-34.8496 -7.98047 -73.5195 -12.3398 -112 -13.2803v-127.94c43.1396 1.19043 80.9297 7.05078 112 15.6006zM480 80v102.09
c-16.5303 -13.0098 -38.5498 -23.5801 -64 -31.7998v-123.75c40.8799 16.1201 64 36.7197 64 53.46zM256 160c123.71 0 224 35.8203 224 80c0 28.1699 -40.8398 52.8799 -102.42 67.1396l-129.11 -80.6992c-2.05859 -1.19824 -5.66309 -2.1709 -8.0459 -2.1709
c-8.83203 0 -16 7.16797 -16 16c0 4.71875 3.18359 10.6777 7.10645 13.3008l98.9102 61.8193c-20.3848 2.54492 -53.6016 4.61035 -74.1445 4.61035h-0.295898c-123.71 0 -224 -35.8203 -224 -80s100.29 -80 224 -80z" />
    <glyph glyph-name="brain" unicode="&#xf5dc;" horiz-adv-x="544" 
d="M509.6 217.7c21.5 -17.1006 34.4004 -43.1006 34.5 -70.7002c0 -32.7002 -17.3994 -62.2998 -45.2998 -78.5c2.2998 -48.0996 -36.7002 -88.5996 -84.8994 -87.4004c-14.2002 -27.3994 -42.5 -45 -74 -45c-27.9004 0 -52.6006 13.8008 -67.8008 34.8008
c-15.2998 -21 -39.8994 -34.8008 -67.7998 -34.8008c-31.5 0 -59.8994 17.6006 -74.0996 45c-48.2002 -1.2998 -87.2002 39.2002 -84.9004 87.4004c-27.8994 16.0996 -45.2998 45.7998 -45.2998 78.5c0 27.5996 12.9004 53.5996 34.2998 70.7002
c-17.5 54.3994 20.1006 93.0996 41.1006 105.3c-2.60059 37.7002 25.8994 74.2998 66.6992 79.4004c12 27.3994 39.1006 45.5996 69.7002 45.5996c24.6006 0 46.2002 -11.9004 60.2002 -29.9004c14 18 35.5996 29.9004 60.2002 29.9004
c30.5996 0 57.7998 -18.2002 69.5996 -45.5996c40.7998 -5.10059 69.4004 -41.7002 66.7002 -79.4004c21 -12.0996 58.5996 -50.7998 41.0996 -105.3zM255.9 19.5h0.0996094v352.5c0 24.2998 -19.9004 44 -44.2002 44c-30.7998 0 -39.8994 -22.5996 -45.7998 -45.5
l-12.7002 0.299805h-0.399414c-25.9004 0 -45.5 -19.7002 -45.5 -43.7998c0 -6.2002 1.69922 -11.9004 4.19922 -22.7998c-27.5 -11.2002 -49.3994 -25.7998 -49.3994 -59.7002c0 -10 0.200195 -13.5 12.7998 -39.2002
c-19.9004 -11.3994 -42.9004 -24.3994 -42.9004 -58.2998c0 -35.2998 23.4004 -49 48.8008 -59.5c-2.80078 -13.9004 -3.7002 -16.7998 -3.7002 -23c0 -28.4004 23.2002 -51.5 51.7002 -51.5c3.89941 0 5.89941 0.5 22.1992 3.2002
c8.90039 -26.4004 21.2002 -48.2002 53.1006 -48.2002c28.5 0 51.7002 23.0996 51.7002 51.5zM463 87.5c25.5 10.5 48.9004 24.2002 48.9004 59.5c0 33.7998 -23 46.9004 -42.9004 58.2998c12.5996 25.7998 12.7998 29.2002 12.7998 39.2002
c0 33.9004 -21.8994 48.5 -49.3994 59.7002c2.5 10.8994 4.19922 16.5996 4.19922 22.7998c0 24.0996 -19.5996 43.7998 -45.5 43.7998h-0.399414l-12.7002 -0.299805c-5.90039 23 -15.0996 45.5 -45.7998 45.5c-24.4004 0 -44.2002 -19.7002 -44.2002 -44v-352.5
c0 -28.4004 23.2002 -51.5 51.7002 -51.5c31.8994 0 44.2002 21.7998 53.0996 48.2002c16.2998 -2.7002 18.2998 -3.2002 22.2002 -3.2002c28.5 0 51.7002 23.0996 51.7002 51.5c0 6.2002 -0.900391 9.2002 -3.7002 23z" />
    <glyph glyph-name="directions" unicode="&#xf5eb;" 
d="M502.61 214.68c12.5195 -12.5293 12.5195 -32.8301 0 -45.3594l-223.931 -223.931c-6.25977 -6.25977 -14.4697 -9.38965 -22.6797 -9.38965s-16.4199 3.12988 -22.6797 9.38965l-223.931 223.931c-12.5195 12.5293 -12.5195 32.8301 0 45.3594l223.931 223.931
c6.25977 6.25977 14.4697 9.38965 22.6797 9.38965s16.4199 -3.12988 22.6797 -9.38965zM255.95 -31.9805l224.03 223.931l-223.931 224.03l-0.0498047 0.0195312c-0.0302734 0 -0.0400391 -0.00976562 -0.0498047 -0.00976562l-223.931 -223.94zM330.89 224l-54.6299 50.46
c-3.24023 2.99023 -3.4502 8.0498 -0.450195 11.2998l10.8408 11.7402c2.98926 3.24023 8.0498 3.4502 11.2998 0.450195l78.3398 -72.3105c4.94043 -4.55957 7.71973 -10.9795 7.71973 -17.6201c0 -6.63965 -2.79004 -13.0596 -7.66016 -17.5791l-78.3994 -72.3604
c-3.24023 -3 -8.2998 -2.7998 -11.2998 0.450195l-10.8408 11.7393c-3 3.24023 -2.7998 8.30078 0.450195 11.3008l54.6299 50.4297h-122.89c-8.83984 0 -16 -7.16016 -16 -16v-40c0 -4.41992 -3.58008 -8 -8 -8h-16c-4.41992 0 -8 3.58008 -8 8v40
c0 26.5098 21.4902 48 48 48h122.89z" />
    <glyph glyph-name="location" unicode="&#xf601;" 
d="M504 208c4.41992 0 8 -3.58008 8 -8v-16c0 -4.41992 -3.58008 -8 -8 -8h-56.8096c-7.70996 -93.2402 -81.9502 -167.48 -175.19 -175.19v-56.8096c0 -4.41992 -3.58008 -8 -8 -8h-16c-4.41992 0 -8 3.58008 -8 8v56.8096
c-93.2402 7.70996 -167.48 81.9502 -175.19 175.19h-56.8096c-4.41992 0 -8 3.58008 -8 8v16c0 4.41992 3.58008 8 8 8h56.8096c7.70996 93.2402 81.9502 167.48 175.19 175.19v56.8096c0 4.41992 3.58008 8 8 8h16c4.41992 0 8 -3.58008 8 -8v-56.8096
c93.2402 -7.70996 167.48 -81.9502 175.19 -175.19h56.8096zM256 32c88.2197 0 160 71.7803 160 160s-71.7803 160 -160 160s-160 -71.7803 -160 -160s71.7803 -160 160 -160zM256 288c53.0195 0 96 -42.9805 96 -96s-42.9805 -96 -96 -96s-96 42.9805 -96 96
s42.9805 96 96 96zM256 128c35.29 0 64 28.71 64 64s-28.71 64 -64 64s-64 -28.71 -64 -64s28.71 -64 64 -64z" />
    <glyph glyph-name="route-interstate" unicode="&#xf61b;" horiz-adv-x="480" 
d="M464.83 392.86c37 -119.971 21.8496 -355.2 -224.83 -456.86c-246.68 101.66 -261.83 336.89 -224.83 456.87c3.07031 9.93945 11.6602 16.6699 20.9404 16.6699c1.72949 0 3.48926 -0.230469 5.23926 -0.719727c18.2305 -5.12012 37.7402 -7.95996 58.1006 -7.95996
c49.1201 0 93.6094 16.0693 126.17 42.1094c4.2002 3.35059 9.29004 5.03027 14.3799 5.03027s10.1797 -1.67969 14.3799 -5.04004c32.5605 -26.04 77.0498 -42.1104 126.17 -42.1104c20.3604 0 39.8701 2.84082 58.1006 7.95996
c1.75 0.490234 3.50977 0.720703 5.23926 0.720703c9.28027 0 17.8701 -6.7207 20.9404 -16.6699zM43.3701 375.27c-7.12988 -25.8896 -11.1396 -55.71 -11.2998 -87.2695h415.81c-0.360352 38.9805 -6.64941 70.0801 -11.2803 87.2598
c-18.2793 -4.25 -37.0898 -6.39941 -56.0498 -6.39941c-52.0996 0 -101.72 15.8594 -140.55 44.79c-38.8398 -28.9307 -88.4502 -44.79 -140.55 -44.79c-18.9697 0 -37.79 2.15918 -56.0801 6.40918zM240.01 -29.1797c94.3203 42.0195 157.721 108.319 188.561 197.229
c10.79 31.1299 15.9395 60.7705 18.0801 87.9502h-413.33c8.71973 -104.52 63.79 -221.26 206.689 -285.18z" />
    <glyph glyph-name="calculator-alt" unicode="&#xf64c;" horiz-adv-x="480" 
d="M72 288c-4.41992 0 -8 3.58008 -8 8v16c0 4.41992 3.58008 8 8 8h112c4.41992 0 8 -3.58008 8 -8v-16c0 -4.41992 -3.58008 -8 -8 -8h-112zM77.0898 40.4004c-1.29688 1.29395 -2.34863 3.83203 -2.34863 5.66504c0 1.82715 1.04785 4.36035 2.33887 5.6543
l28.29 28.2803l-28.2803 28.29c-3.12012 3.12012 -3.12012 8.19043 0 11.3096l11.3105 11.3203c3.11914 3.12012 8.18945 3.12012 11.3096 0l28.29 -28.29l28.2998 28.2803c3.12012 3.12012 8.19043 3.12012 11.3105 0l11.3096 -11.3105
c3.12012 -3.11914 3.12012 -8.18945 0 -11.3096l-28.29 -28.29l28.2803 -28.2998c3.12012 -3.12012 3.12012 -8.19043 0 -11.3105l-11.3105 -11.3096c-3.11914 -3.12012 -8.18945 -3.12012 -11.3096 0l-28.29 28.29l-28.29 -28.2803
c-3.12012 -3.12012 -8.19043 -3.12012 -11.3096 0zM448 432c17.6699 0 32 -14.3301 32 -32v-416c0 -17.6699 -14.3301 -32 -32 -32h-416c-17.6699 0 -32 14.3301 -32 32v416c0 17.6699 14.3301 32 32 32h416zM224 -16v192h-192v-192h192zM224 208v192h-192v-192h192z
M448 -16v192h-192v-192h192zM448 208v192h-192v-192h192zM296 288c-4.41992 0 -8 3.58008 -8 8v16c0 4.41992 3.58008 8 8 8h40v40c0 4.41992 3.58008 8 8 8h16c4.41992 0 8 -3.58008 8 -8v-40h40c4.41992 0 8 -3.58008 8 -8v-16c0 -4.41992 -3.58008 -8 -8 -8h-40v-40
c0 -4.41992 -3.58008 -8 -8 -8h-16c-4.41992 0 -8 3.58008 -8 8v40h-40zM296 32c-4.41992 0 -8 3.58008 -8 8v16c0 4.41992 3.58008 8 8 8h112c4.41992 0 8 -3.58008 8 -8v-16c0 -4.41992 -3.58008 -8 -8 -8h-112zM296 96c-4.41992 0 -8 3.58008 -8 8v16
c0 4.41992 3.58008 8 8 8h112c4.41992 0 8 -3.58008 8 -8v-16c0 -4.41992 -3.58008 -8 -8 -8h-112z" />
    <glyph glyph-name="gopuram" unicode="&#xf664;" 
d="M277.3 32c23.6006 0 42.7002 -19.0996 42.7002 -42.7002v-45.2998c0 -4.40039 -3.59961 -8 -8 -8h-16c-4.40039 0 -8 3.59961 -8 8v45.2998c0 5.90039 -4.7998 10.7002 -10.7002 10.7002h-42.7002c-5.89941 0 -10.6992 -4.7998 -10.6992 -10.7002v-45.2998
c0 -4.40039 -3.60059 -8 -8 -8h-16c-4.40039 0 -8 3.59961 -8 8v45.2998c0 23.6006 19.0996 42.7002 42.6992 42.7002h42.7002zM496 96c8.7998 0 16 -7.2002 16 -16v-136c0 -4.40039 -3.59961 -8 -8 -8h-16c-4.40039 0 -8 3.59961 -8 8v120h-64v-120
c0 -4.40039 -3.59961 -8 -8 -8h-16c-4.40039 0 -8 3.59961 -8 8v120h-256v-120c0 -4.40039 -3.59961 -8 -8 -8h-16c-4.40039 0 -8 3.59961 -8 8v120h-64v-120c0 -4.40039 -3.59961 -8 -8 -8h-16c-4.40039 0 -8 3.59961 -8 8v136c0 8.7998 7.2002 16 16 16h16v112
c0 8.7998 7.2002 16 16 16h16v80c0 8.7998 7.2002 16 16 16h16v112c0 8.7998 7.2002 16 16 16s16 -7.2002 16 -16v-16h64v16c0 8.7998 7.2002 16 16 16s16 -7.2002 16 -16v-16h64v16c0 8.7998 7.2002 16 16 16s16 -7.2002 16 -16v-16h64v16c0 8.7998 7.2002 16 16 16
s16 -7.2002 16 -16v-112h16c8.7998 0 16 -7.2002 16 -16v-80h16c8.7998 0 16 -7.2002 16 -16v-112h16zM128 384v-64h256v64h-256zM261.3 256c5.90039 0 10.7002 -4.7998 10.6006 -10.7002v-21.2998h48v64h-128v-64h48v21.2998c0 5.90039 4.7998 10.7002 10.6992 10.7002
h10.7002zM128 96v96h-64v-96h64zM160 224v64h-64v-64h64zM272 96h-0.0996094v26.7002c0 2.89941 -2.30078 5.2998 -5.30078 5.2998h-21.2998c-2.89941 0 -5.2998 -2.2998 -5.2998 -5.2998v-26.7002h32zM352 96h0.0996094v96h-192v-96h48v26.7002
c0 20.5 16.7002 37.2998 37.3008 37.2998h21.2998c20.5 0 37.2998 -16.7002 37.2998 -37.2998v-26.7002h48zM352 224h64v64h-64v-64zM448 96v96h-64v-96h64z" />
    <glyph glyph-name="journal-whills" unicode="&#xf66a;" horiz-adv-x="448" 
d="M433.094 33.7969c-3.59375 -16.0938 -4.40625 -45.5938 -0.40625 -65.7969h3.3125c6.60059 -0.0234375 11.9766 -5.39941 12 -12v-8c-0.0234375 -6.60059 -5.39941 -11.9766 -12 -12h-372c-35.3262 0.00195312 -63.998 28.6738 -64 64v368v0.0361328
c0 44.1396 35.8242 79.9639 79.9639 79.9639h0.0361328h344h0.0439453c13.2236 0 23.9561 -10.7324 23.9561 -23.9561v-0.0439453v-368c-0.0380859 -8.86523 -6.71582 -18.8115 -14.9062 -22.2031zM416 416h-336c-26.4893 -0.00683594 -47.9932 -21.5107 -48 -48v-312.875
c8.16602 4.85059 22.502 8.82617 32 8.875h352v352zM404.281 32h-340.281c-17.6641 0 -32 -14.3359 -32 -32s14.3359 -32 32 -32h340.281c-1.23633 8.78906 -2.23926 23.125 -2.23926 32s1.00293 23.2109 2.23926 32zM100 241.047
c0 50.1875 27.5625 96.8125 71.9375 121.688c1.50879 0.850586 4.13867 1.54199 5.87109 1.54199c2.81543 0 6.68066 -1.65039 8.62891 -3.68262c1.73145 -1.96484 3.24316 -5.68164 3.375 -8.29688c-0.0810547 -1.85449 -0.893555 -4.66895 -1.8125 -6.28125
c-5.07129 -8.0791 -9.1875 -22.377 -9.1875 -31.915c0 -15.9814 10.1504 -37.0264 22.6562 -46.9756c2.26953 -1.82129 4.24316 -5.65723 4.40625 -8.5625c0.0126953 -0.206055 0.0234375 -0.540039 0.0234375 -0.74707c0 -2.65723 -1.49414 -6.36816 -3.33594 -8.28418
c-8.03809 -8.30469 -14.5625 -24.4258 -14.5625 -35.9844c0 -22.6709 17.9199 -45.2461 40 -50.3906v25.5312l-6.34375 -6.34375c-1.29297 -1.29004 -3.82422 -2.33691 -5.65039 -2.33691c-4.41504 0 -7.99902 3.58398 -7.99902 7.99902
c0 1.82617 1.04688 4.35742 2.33691 5.65039l10.3438 10.3438h-12.6875c-4.41602 0 -8 3.58398 -8 8s3.58398 8 8 8h12.6875l-10.3438 10.3438c-1.29004 1.29297 -2.33691 3.82422 -2.33691 5.65039c0 4.41504 3.58398 7.99902 7.99902 7.99902
c1.82617 0 4.35742 -1.04688 5.65039 -2.33691l6.34375 -6.34375v128.688c0 6.62402 5.37598 12 12 12s12 -5.37598 12 -12v-128.688l6.34375 6.34375c1.29297 1.29004 3.82422 2.33691 5.65039 2.33691c4.41504 0 7.99902 -3.58398 7.99902 -7.99902
c0 -1.82617 -1.04688 -4.35742 -2.33691 -5.65039l-10.3438 -10.3438h12.6875c4.41602 0 8 -3.58398 8 -8s-3.58398 -8 -8 -8h-12.6875l10.3125 -10.3281c1.29492 -1.29395 2.3457 -3.8291 2.3457 -5.65918c0 -4.41504 -3.58398 -7.99902 -7.99902 -7.99902
c-1.83008 0 -4.36523 1.05078 -5.65918 2.3457l-6.34375 6.34375v-25.5312c22.0801 5.1543 40 27.7383 40 50.4121c0 11.5459 -6.50977 27.6572 -14.5312 35.9629c-1.8418 1.91113 -3.33594 5.61621 -3.33594 8.27051c0 0.206055 0.0107422 0.540039 0.0234375 0.745117
c0.308594 2.82227 2.26855 6.6582 4.375 8.5625c12.5059 9.94922 22.6562 30.9941 22.6562 46.9756c0 9.53809 -4.11621 23.8359 -9.1875 31.915c-0.983398 1.5957 -1.78027 4.41309 -1.78027 6.28711c0 6.61914 5.37109 11.9902 11.9893 11.9902
c1.73633 0 4.37207 -0.691406 5.88477 -1.54297c44.375 -24.8906 71.9375 -71.5156 71.9375 -121.703c0 -77.2031 -62.8125 -140 -140 -140s-140 62.7969 -140 140zM150 194.734c-1.3252 -1.50488 -4.02832 -2.72559 -6.0332 -2.72559
c-1.66113 0 -4.02637 0.884766 -5.2793 1.97559l-6.84375 6c16.6562 -43.6875 58.6562 -74.9375 108.125 -74.9375s91.4688 31.25 108.125 74.9375l-6.84375 -6c-1.25293 -1.10742 -3.62793 -2.00684 -5.30078 -2.00684c-4.41895 0 -8.00488 3.58594 -8.00488 8.00488
c0 2.00977 1.22852 4.71289 2.74316 6.0332l23.8438 20.875c0.59375 4.6875 1.4375 9.3125 1.4375 14.1562c-0.00683594 6.00488 -0.930664 15.665 -2.0625 21.5625l-12.2812 -12.2656c-1.29297 -1.29199 -3.82617 -2.33984 -5.65332 -2.33984
c-4.41602 0 -7.99902 3.58301 -7.99902 7.99902c0 1.82715 1.04785 4.36035 2.33984 5.65332l18.4375 18.4375c-4.375 12.1475 -15.0293 29.7109 -23.7812 39.2031c0.125 -1.70312 0.1875 -3.39062 0.1875 -5.09375
c-0.0390625 -18.3135 -10.2178 -44.0391 -22.7188 -57.4219c7.48633 -10.7891 13.5625 -30.2041 13.5625 -43.3359c0 -41.9609 -34.0547 -76.0156 -76.0156 -76.0156s-76.0156 34.0547 -76.0156 76.0156c0 13.1318 6.07617 32.5469 13.5625 43.3359
c-12.5166 13.377 -22.6943 39.1025 -22.7188 57.4219c0 1.70312 0.09375 3.39062 0.15625 5.09375c-8.72949 -9.50586 -19.3838 -27.0693 -23.7812 -39.2031l18.4688 -18.4375c1.29004 -1.29297 2.33691 -3.82422 2.33691 -5.65039
c0 -4.41504 -3.58398 -7.99902 -7.99902 -7.99902c-1.82617 0 -4.35742 1.04688 -5.65039 2.33691l-12.2812 12.2656c-1.13867 -5.86523 -2.0625 -15.4756 -2.0625 -21.4502v-0.112305c0 -4.84375 0.84375 -9.46875 1.4375 -14.1562l23.8438 -20.875
c1.50098 -1.31543 2.71973 -4.00195 2.71973 -5.99805c0 -1.66797 -0.896484 -4.03418 -2.00098 -5.2832z" />
    <glyph glyph-name="shredder" unicode="&#xf68a;" 
d="M432 256c44.1797 0 80 -35.8203 80 -80v-96c0 -8.83984 -7.16016 -16 -16 -16h-480c-8.83984 0 -16 7.16016 -16 16v96c0 44.1797 35.8203 80 80 80h16v160c0 17.6699 13.6396 32 30.4805 32h180.26c8.49023 0 16.6299 -3.37012 22.6299 -9.37012l77.2598 -77.25
c6 -6.00977 9.37012 -14.1396 9.37012 -22.6299v-82.75h16zM320 402.75v-50.75h50.75zM128.12 416l-0.100586 -160h255.98v64h-64c-17.6699 0 -32 14.3301 -32 32v64h-159.88zM480 96v80c0 26.4697 -21.5303 48 -48 48h-352c-26.4697 0 -48 -21.5303 -48 -48v-80h448z
M400 184c13.25 0 24 -10.7402 24 -24c0 -13.25 -10.75 -24 -24 -24s-24 10.75 -24 24c0 13.2598 10.75 24 24 24zM48 -56v88h32v-88c0 -4.41992 -3.58008 -8 -8 -8h-16c-4.41992 0 -8 3.58008 -8 8zM144 -56v88h32v-88c0 -4.41992 -3.58008 -8 -8 -8h-16
c-4.41992 0 -8 3.58008 -8 8zM240 -56v88h32v-88c0 -4.41992 -3.58008 -8 -8 -8h-16c-4.41992 0 -8 3.58008 -8 8zM336 -56v88h32v-88c0 -4.41992 -3.58008 -8 -8 -8h-16c-4.41992 0 -8 3.58008 -8 8zM432 -56v88h32v-88c0 -4.41992 -3.58008 -8 -8 -8h-16
c-4.41992 0 -8 3.58008 -8 8z" />
    <glyph glyph-name="chair" unicode="&#xf6c0;" horiz-adv-x="448" 
d="M446.2 106.5c7.2002 -20.7998 -8.2002 -42.5 -30.2002 -42.5v-120c0 -4.40039 -3.59961 -8 -8 -8h-16c-4.40039 0 -8 3.59961 -8 8v120h-320v-120c0 -4.40039 -3.59961 -8 -8 -8h-16c-4.40039 0 -8 3.59961 -8 8v120c-22 0 -37.4004 21.7002 -30.2002 42.5l22.2002 64
c4.40039 12.9004 16.5996 21.5 30.2002 21.5h9.7998v128c0 70.7002 57.2998 128 128 128h64c70.7002 0 128 -57.2998 128 -128v-128h9.7998c13.6006 0 25.7002 -8.59961 30.2002 -21.5zM288 410.1v-218.1h64v128c0 41.7002 -26.7998 76.9004 -64 90.0996zM192 416v-224h64
v224h-64zM96 320v-128h64v218.1c-37.2002 -13.2998 -64 -48.3994 -64 -90.0996zM32 96h384l-22.2002 64h-339.6z" />
    <glyph glyph-name="chair-office" unicode="&#xf6c1;" horiz-adv-x="384" 
d="M32 208c0 -8.83984 -7.16016 -16 -16 -16s-16 7.16016 -16 16v96c0 8.83984 7.16016 16 16 16s16 -7.16016 16 -16v-96zM346.49 160.97l14.5801 -24.2393c19.2295 -31.9902 -3.81055 -72.7305 -41.1406 -72.7305h-111.93v-33.2197
c35.6104 -5.41016 65 -28.5498 77.8496 -59.6299c6.41992 -15.5107 -2.40918 -35.1406 -15.0195 -35.1406h-157.66c-12.6104 0 -21.4297 19.6299 -15.0195 35.1406c12.8496 31.0898 42.2393 54.2197 77.8496 59.6299v33.2197h-111.93
c-37.3203 0 -60.3604 40.7402 -41.1299 72.7305l14.5693 24.2393c6.39062 10.6299 15.7402 18.6699 26.4902 24.0205v199.01c0 35.3496 28.6504 64 64 64h128c35.3496 0 64 -28.6504 64 -64v-199.01c10.75 -5.35059 20.0996 -13.3906 26.4902 -24.0205zM96 384v-192h192v192
c0 17.6396 -14.3604 32 -32 32h-128c-17.6396 0 -32 -14.3604 -32 -32zM251.6 -32c-12.1797 19.4697 -34.96 32 -59.5996 32s-47.4199 -12.5303 -59.5996 -32h119.199zM333.85 104.12c1.38086 2.43945 4.13086 8.91016 -0.209961 16.1201l-14.5693 24.2402
c-5.76074 9.56934 -16.2607 15.5195 -27.4307 15.5195h-199.279c-11.1699 0 -21.6699 -5.9502 -27.4404 -15.5195l-14.5703 -24.2402c-4.33984 -7.2207 -1.58984 -13.6807 -0.209961 -16.1201c1.39062 -2.44043 5.51074 -8.12012 13.9307 -8.12012h255.85
c8.42969 0 12.5498 5.67969 13.9297 8.12012zM368 320c8.83984 0 16 -7.16016 16 -16v-96c0 -8.83984 -7.16016 -16 -16 -16s-16 7.16016 -16 16v96c0 8.83984 7.16016 16 16 16z" />
    <glyph glyph-name="flame" unicode="&#xf6df;" horiz-adv-x="384" 
d="M192 448c111.78 -100.86 192 -220.6 192 -300.55c0 -124.5 -78.9502 -211.45 -192 -211.45s-192 86.9502 -192 211.45c0 79.6299 79.7002 199.22 192 300.55zM192 -32c95.7002 0 160 72.1201 160 179.45c0 63.0693 -63.4199 164.069 -160 256.83
c-96.5801 -92.75 -160 -193.75 -160 -256.83c0 -107.33 64.2998 -179.45 160 -179.45zM252.1 235.1c33.3809 -28.54 67.9004 -58.04 67.9004 -117.21c0 -65 -57.4199 -117.89 -128 -117.89s-128 52.8896 -128 117.89c0 44.1299 25.8398 71.5107 34.3398 79.7705
c1.57031 1.55957 3.61035 2.33984 5.66016 2.33984s4.09961 -0.780273 5.66016 -2.33984c1.55957 -1.56055 2.33984 -3.61035 2.33984 -5.66016v-40c0 -30.9297 25.0703 -56 56 -56s56 25.0703 56 56c0 72 -112.64 64.7695 -39.4297 164.33
c1.98926 2.71973 4.80957 3.66992 7.37988 3.66992c1.14941 0 2.24023 -0.19043 3.2002 -0.490234c1.60938 -0.529297 5.37988 -2.24023 5.37988 -6.7793c0 -33.5508 25.0498 -54.9707 51.5693 -77.6309zM192 32c52.9404 0 96 38.5303 96 85.8896
c0 39.54 -19.8203 60.8301 -46.5098 84.1201c8.42969 -13.1602 14.5098 -29.3496 14.5098 -50.0098c0 -48.5195 -39.4805 -88 -88 -88c-28.1504 0 -53.2598 13.29 -69.3799 33.9297c10.0898 -37.7695 48.1201 -65.9297 93.3799 -65.9297z" />
    <glyph glyph-name="flask-poison" unicode="&#xf6e0;" horiz-adv-x="416" 
d="M288 288.01c75.1504 -31.3594 128 -105.49 128 -192.01h-0.299805c0.0996094 -77.2197 -40.2197 -124.81 -53.1406 -139.15c-12.0898 -13.4092 -29.5195 -20.8496 -47.5791 -20.8496h-214.04c-17.79 0 -35.0508 7.12988 -47 20.2998
c-33.5107 36.9102 -53.9404 85.9102 -53.9404 139.7c0 86.5195 52.8496 160.65 128 192.01v127.99h-24c-4.41992 0 -8 3.58008 -8 8v16c0 4.41992 3.58008 8 8 8h208c4.41992 0 8 -3.58008 8 -8v-16c0 -4.41992 -3.58008 -8 -8 -8h-24v-127.99zM338.79 -21.7197
c20.5303 22.7695 44.9795 61.6895 44.9102 117.68l-0.00976562 10.5303c-3.94043 66.9697 -45.4502 125.89 -108.011 151.99l-19.6797 8.20996v149.31h-96v-149.32l-19.6797 -8.20996c-65.8008 -27.4502 -108.32 -91.2197 -108.32 -162.47
c0 -43.7998 16.21 -85.7695 45.6396 -118.2c5.65039 -6.22949 14.1504 -9.7998 23.3008 -9.7998h214.04c9.25 0 17.9199 3.75 23.8096 10.2803zM176 144c8.83984 0 16 -7.16016 16 -16s-7.16016 -16 -16 -16s-16 7.16016 -16 16s7.16016 16 16 16zM240 144
c8.83984 0 16 -7.16016 16 -16s-7.16016 -16 -16 -16s-16 7.16016 -16 16s7.16016 16 16 16zM208 224c70.6904 0 128 -42.9805 128 -96c0 -30.1797 -18.8896 -56.7695 -48 -74.2998v-37.7002c0 -8.83984 -7.16016 -16 -16 -16h-128c-8.83984 0 -16 7.16016 -16 16v37.7002
c-29.1104 17.5195 -48 44.1094 -48 74.2998c0 53.0195 57.3096 96 128 96zM271.49 81.1104c20.6602 12.4395 32.5098 29.5293 32.5098 46.8896c0 34.6904 -43.96 64 -96 64s-96 -29.3096 -96 -64c0 -17.3604 11.8496 -34.4502 32.5098 -46.8896l15.4902 -9.33008v-39.7803
h96v39.7803z" />
    <glyph glyph-name="flask-potion" unicode="&#xf6e1;" horiz-adv-x="416" 
d="M416 96h-0.299805c0.0996094 -77.2197 -40.2197 -124.81 -53.1406 -139.15c-12.0898 -13.4092 -29.5195 -20.8496 -47.5791 -20.8496h-214.04c-17.79 0 -35.0508 7.12988 -47 20.2998c-33.5107 36.9102 -53.9404 85.9102 -53.9404 139.7
c0 86.5195 52.8496 160.65 128 192.01v127.99h-24c-4.41992 0 -8 3.58008 -8 8v16c0 4.41992 3.58008 8 8 8h208c4.41992 0 8 -3.58008 8 -8v-16c0 -4.41992 -3.58008 -8 -8 -8h-24v-127.99c75.1504 -31.3594 128 -105.49 128 -192.01zM140.32 258.47
c-56.8008 -23.6895 -96.1006 -74.5098 -105.83 -133.79l16.5996 9.29004c61.8203 34.5605 135.63 34.5605 197.44 0c25.6797 -14.3799 54.4297 -21.9697 83.0898 -21.9697h51.3496c-5.85938 64.6396 -46.4795 121.1 -107.29 146.47l-19.6797 8.20996v149.32h-96v-149.32z
M338.79 -21.7197c25.4697 28.2598 40.3701 64.0693 43.8203 101.72h-50.9902c-34.1201 0 -68.2402 9 -98.71 26.0303c-51.9697 29.0801 -114.101 29.1094 -166.19 0l-33.8896 -18.96c2.07031 -40.5107 17.4102 -79.0801 44.8096 -109.271
c5.65039 -6.22949 14.1504 -9.7998 23.3008 -9.7998h214.04c9.25 0 17.9199 3.75 23.8096 10.2803z" />
    <glyph glyph-name="hat-wizard" unicode="&#xf6e8;" 
d="M288 256l32 -16l-32 -16l-16 -32l-16 32l-32 16l32 16l16 32zM504 -32c4.41992 0 8 -3.58008 8 -8v-16c0 -4.41992 -3.58008 -8 -8 -8h-496c-4.41992 0 -8 3.58008 -8 8v16c0 4.41992 3.58008 8 8 8h24l129.46 288.07c12.9102 28.7393 34.7598 52.6494 62.3701 68.25
l218.84 123.68l-65.7002 -194.9c-2.11426 -6.27051 -3.83105 -16.7305 -3.83105 -23.3486c0 -8.375 2.70703 -21.4082 6.04102 -29.0908l100.82 -232.66h24zM67.0801 -32h108.92l-21.3398 42.6699l-55.8604 27.9297zM192 7.5498l13.4902 26.9697l26.96 13.4805
l-26.9697 13.4902l-13.4805 26.96l-13.4902 -26.9697l-26.96 -13.4805l26.9697 -13.4805zM208 -32h237.12l-67.8604 156.63l-25.2598 -12.6299l-16 -32l-16 32l-32 16l32 16l16 32l16 -32l21.5303 -10.7598l-23.7002 54.7002
c-10.3701 23.9092 -11.4902 50.6895 -3.16992 75.3799l39 115.699l-146.08 -82.5498c-21.8203 -12.3301 -38.7402 -30.8398 -48.9297 -53.5098l-80.9404 -180.11l44.96 22.4805l37.3301 74.6699l37.3301 -74.6699l74.6699 -37.3301l-74.6699 -37.3301z" />
    <glyph glyph-name="mandolin" unicode="&#xf6f9;" 
d="M507.31 397.33c2.58398 -2.58594 4.68066 -7.65234 4.68066 -11.3076c0 -2.53711 -1.09375 -6.3418 -2.44043 -8.49219l-40.0693 -64c-3.73535 -5.96582 -12.2969 -12.2383 -19.1104 -14l-71.3701 -18.46l-59.3096 -59.2402c3.8291 -193.96 -48.4102 -239.5 -64 -255.09
c-20.5801 -20.6201 -52.1904 -30.7402 -86 -30.7402c-42.96 0 -89.4707 16.3496 -121.421 48.2695c-57.0498 57.0908 -64.3398 160.66 -17.5293 207.44c15.0498 15.0498 57.9502 64.2598 235.35 64.2598c6.39062 0 13 -0.0693359 19.75 -0.200195l59.2305 59.2305
l18.4297 71.4004c1.7627 6.81348 8.03418 15.375 14 19.1094l64 40.0703c2.15039 1.34668 5.95508 2.43945 8.49219 2.43945c3.66016 0 8.73047 -2.10059 11.3174 -4.68945zM234.73 -9c13.0898 12.9199 51.0791 50.8799 53.0791 198.81l-35.5195 -35.5098
c-2.58691 -2.58496 -7.65332 -4.68262 -11.3096 -4.68262c-3.65723 0 -8.72363 2.09766 -11.3105 4.68262l-11.3203 11.3105c-2.58398 2.58594 -4.68262 7.65332 -4.68262 11.3096s2.09863 8.72363 4.68262 11.3105l35.5107 35.5098
c-148.051 -2 -186.2 -40.1904 -198.86 -53l-1.63965 -1.65039c-31.8701 -31.8594 -30 -114.62 17.5498 -162.2c24 -23.9795 61.8496 -38.8896 98.7803 -38.8896c26.7197 0 49.8291 7.79004 63.3994 21.3701zM442.37 330.51l33.3398 53.1699l-28 28l-53.2002 -33.3096
l-16.6895 -64.5498zM160 160c35.3281 0 64 -28.6719 64 -64s-28.6719 -64 -64 -64s-64 28.6719 -64 64s28.6719 64 64 64zM160 64c17.6641 0 32 14.3359 32 32s-14.3359 32 -32 32s-32 -14.3359 -32 -32s14.3359 -32 32 -32z" />
    <glyph glyph-name="running" unicode="&#xf70c;" horiz-adv-x="448" 
d="M396 232c28.6699 0 52 -23.3301 52 -52s-23.3301 -52 -52 -52h-28.9199c-6.57031 0 -13 0.759766 -19.2002 2.20996c14.0303 -20.2002 19.1201 -46.2598 12.0098 -71.1201l-24.3994 -85.3994c-6.36035 -22.1904 -26.9102 -37.6904 -49.9805 -37.6904
c-4.75977 0 -9.50977 0.660156 -14.3096 2c-27.5605 7.87012 -43.5801 36.71 -35.71 64.29l19.6396 68.7402l-43.7002 19.6299l-19.3193 -39.7402c-13.25 -30.9297 -43.5508 -50.9199 -77.2002 -50.9199h-62.9102c-28.6699 0 -52 23.3301 -52 52s23.3301 52 52 52h49.75
l58.8799 131.46l-18.9502 -9.84961c-7.83008 -4.43066 -16.6699 -6.76074 -25.6494 -6.76074c-18.1504 0 -35.2402 9.65039 -44.6299 25.2705c-14.7002 24.5801 -6.7002 56.5703 17.8398 71.3096l46.1895 24.0703c17.8398 10.4697 38.0898 16 58.6406 16
c8.75977 0 17.5098 -1.24023 26.1299 -3.21973c-2.64062 7.43945 -4.2002 15.3799 -4.2002 23.7197c0 39.7002 32.2998 72 72 72s72 -32.2998 72 -72c0 -24.7305 -13 -45.9102 -32.0703 -58.8398c20.3203 -14.04 36.3906 -33.7305 44.5 -58.04l9.04004 -27.1201h14.5303z
M288 416c-22.0898 0 -40 -17.9102 -40 -40s17.9102 -40 40 -40s40 17.9102 40 40s-17.9102 40 -40 40zM162.69 63.5195l19.9492 41.2109c-12.9092 7.85938 -23.0801 18.71 -29.9795 31.4297l-26.7197 -56.8799c-1.91016 -4.41992 -6.23047 -7.28027 -11.0303 -7.28027
h-62.9102c-11.0498 0 -20 -8.9502 -20 -20s8.9502 -20 20 -20h62.9102h0.0390625c18.9199 0 40.3076 14.1211 47.7412 31.5195zM396 160c11.0498 0 20 8.9502 20 20s-8.9502 20 -20 20h-28.9297c-5.16992 0 -9.75 3.29004 -11.3906 8.2002l-13.5898 40.7998
c-9.13965 27.4004 -31.3096 47.9404 -59.3096 54.9199l-68.1904 17.0498c-6.79004 1.69043 -13.6797 2.53027 -20.5098 2.53027c-15.04 0 -29.8604 -4.05957 -43.0996 -11.9902l-45.2607 -23.5195c-9.46973 -5.68066 -12.5293 -17.9707 -6.85938 -27.4502
c3.75 -6.24023 10.3594 -9.7002 17.1592 -9.7002c3.05566 0.00292969 7.66602 1.27539 10.29 2.83984l45.25 23.5205c6.91016 4.16992 14.6201 6.30957 22.5 6.30957c3.60059 0 20.5 -3.76953 20.5 -3.76953l-37.75 -87.5703
c-6.90918 -21.4004 0.709961 -44.79 18.5107 -57.8799c2.88965 -2.12012 88.71 -41.1602 88.71 -41.1602c5.39941 -2.43945 8.25977 -8.55957 6.62012 -14.25l-24.3906 -85.3799c-3.04004 -10.6201 3.12012 -21.7002 13.7305 -24.7305
c1.84961 -0.519531 3.68945 -0.769531 5.51953 -0.769531c8.7002 0 16.7002 5.71973 19.2207 14.5l24.3896 85.3799c7.0498 24.6396 -5.25977 51.1797 -28.6699 61.7305l-52.7803 23.7197l41.4697 103.689c6.79004 -5.23926 12.1699 -12.21 15 -20.6699l13.5908 -40.7998
c6.52539 -19.623 28.6055 -35.5498 49.2861 -35.5498h0.0429688h28.9404z" />
    <glyph glyph-name="guitar" unicode="&#xf7a6;" 
d="M160 160c35.3281 0 64 -28.6719 64 -64s-28.6719 -64 -64 -64s-64 28.6719 -64 64s28.6719 64 64 64zM160 64c17.6641 0 32 14.3359 32 32s-14.3359 32 -32 32s-32 -14.3359 -32 -32s14.3359 -32 32 -32zM501.78 405.51
c5.6416 -5.64453 10.2207 -16.7041 10.2207 -24.6846c0 -7.98145 -4.5791 -19.04 -10.2207 -24.6855l-50.5205 -50.5293c-3.54883 -3.54492 -10.292 -7.71191 -15.0498 -9.30078l-64.0596 -21.3594c-0.300781 -0.390625 -0.180664 -0.94043 -0.540039 -1.2998
l-46.5605 -46.5703c11.1602 -13.75 19.8301 -29.4902 23.8301 -46.75c7.73047 -33.4004 0.870117 -66.8701 -22 -89.7598c-7.87793 -7.83398 -22.873 -16.9014 -33.4697 -20.2402c-18.54 -6.00977 -32.6699 -23.29 -34.4297 -42.1504
c-2.28027 -23.7998 -11.4502 -45.8193 -28.4502 -62.6992c-19.8301 -19.8301 -46.5498 -29.4805 -75 -29.4805c-36.8701 0 -76.6299 16.2305 -107.96 47.5498c-55.4707 55.4502 -63.6699 137.45 -18.04 182.96c16.8701 16.9902 38.8994 26.1699 62.5898 28.4404
c18.9502 1.76953 36.1494 15.8994 42.1494 34.46c3.33301 10.6006 12.4004 25.5947 20.2402 33.4697c16.9004 16.9102 39.5898 25.1006 63.7598 25.1006c7.30078 -0.0244141 18.9941 -1.40039 26.1006 -3.07031c17.25 -4.02051 32.9297 -12.7402 46.7197 -23.9102
l46.6006 46.5898c0.30957 0.360352 0.919922 0.230469 1.30957 0.540039l21.3398 64.1201c1.58887 4.74414 5.75 11.4639 9.29004 15l50.5205 50.5303c5.64355 5.64062 16.7002 10.2197 24.6797 10.2197s19.0361 -4.5791 24.6797 -10.2197zM304.25 113.2
c14.0898 14.1094 19 35.9502 13.5303 59.8799c-2.39062 10.2998 -7.79004 20.8301 -15.5498 31.0596l-52.7109 -52.7197c-1.94141 -1.94824 -5.74902 -3.5293 -8.5 -3.5293c-2.75 0 -6.55762 1.58105 -8.5 3.5293l-17 17c-1.94824 1.94141 -3.5293 5.75 -3.5293 8.5
c0 2.75098 1.58105 6.55859 3.5293 8.5l52.7109 52.7197c-10.25 7.78027 -20.8008 13.2002 -31.1104 15.6006c-5.13281 1.20996 -13.5771 2.20898 -18.8506 2.22949c-11.5996 0 -28.1299 -2.71973 -41.1299 -15.7197c-4.83301 -4.85449 -10.3975 -14.1055 -12.4199 -20.6504
c-10 -30.8691 -37.9697 -53.5195 -69.6094 -56.5195c-12.0107 -1.12988 -29.25 -5.41016 -42.8906 -19.1299c-16.71 -16.6699 -20.2197 -37.6504 -20.2197 -52.3398c0 -29.9805 13.96 -61.1699 38.21 -85.4307c24.25 -24.2598 55.3203 -38.1797 85.3203 -38.1797
c14.7197 0 35.75 3.49023 52.3594 20.1104c13.8008 13.7197 18.0605 31.0195 19.2305 43.1299c2.93945 31.54 25.6104 59.54 56.3994 69.54c6.56738 2.01562 15.8545 7.58008 20.7305 12.4199zM479.15 378.77c0.477539 0.473633 0.865234 1.40332 0.865234 2.0752
c0 0.667969 -0.383789 1.59277 -0.855469 2.06543l-32.2598 32.2695c-0.462891 0.469727 -1.37207 0.850586 -2.03125 0.850586h-0.0292969h-0.0361328c-0.655273 0 -1.55664 -0.380859 -2.01367 -0.850586l-50.5205 -50.5293
c-0.594727 -0.598633 -1.29785 -1.73242 -1.56934 -2.53027l-17.7002 -53.1201l53.0996 17.6699c0.802734 0.270508 1.93555 0.978516 2.53027 1.58008z" />
    <glyph glyph-name="print-search" unicode="&#xf81a;" horiz-adv-x="640" 
d="M637.66 -39c1.29492 -1.29395 2.34668 -3.8291 2.34668 -5.66016c0 -1.81641 -1.03809 -4.33887 -2.31641 -5.62988l-11.3105 -11.3096c-1.29395 -1.2959 -3.8291 -2.34668 -5.66016 -2.34668c-1.83008 0 -4.36621 1.05078 -5.66016 2.34668l-89 89
c-50.21 -38.96 -122.46 -35.9404 -168.569 10.1699c-19.9697 20.5615 -36.1777 60.5137 -36.1777 89.1768c0 70.6562 57.3447 128 128 128c28.6641 0 68.6152 -16.207 89.1777 -36.1768c46.1094 -46.1104 49.1699 -118.36 10.1699 -168.57zM448 32
c52.9922 0 96 43.0078 96 96s-43.0078 96 -96 96s-96 -43.0078 -96 -96s43.0078 -96 96 -96zM384 -32v13.5596c8.52734 -3.79395 22.8633 -8.41699 32 -10.3193v-19.2402c0 -8.83203 -7.16797 -16 -16 -16h-288c-8.83203 0 -16 7.16797 -16 16v112h-80
c-8.83203 0 -16 7.16797 -16 16v96c0 44.1602 35.8398 80 80 80h16v160c0 17.6699 13.6396 32 30.4805 32h180.26h0.00488281c7.31543 0 17.4512 -4.19824 22.625 -9.37012l77.2598 -77.2402c5.17188 -5.17285 9.37012 -15.3086 9.37012 -22.624v-0.00585938v-54
c-9.13672 -1.90234 -23.4727 -6.52539 -32 -10.3193v45.5596h-64c-17.6641 0 -32 14.3359 -32 32v64h-159.9l-0.0996094 -160h224.94c-18.5508 -13.8301 -20.4404 -16.6104 -32.0605 -32h-240.88c-26.4688 -0.0273438 -47.9727 -21.5312 -48 -48v-80h259.42
c1.91602 -9.13379 6.54395 -23.4697 10.3301 -32h-173.75v-96h256zM320 402.75v-50.75h50.75z" />
    <glyph glyph-name="album" unicode="&#xf89f;" horiz-adv-x="448" 
d="M224 32c-88.2197 0 -160 71.7803 -160 160s71.7803 160 160 160s160 -71.7803 160 -160s-71.7803 -160 -160 -160zM224 320c-70.5791 -0.0771484 -127.923 -57.4209 -128 -128c0 -70.6562 57.3438 -128 128 -128s128 57.3438 128 128s-57.3438 128 -128 128zM224 168
c-13.248 0 -24 10.752 -24 24s10.752 24 24 24s24 -10.752 24 -24s-10.752 -24 -24 -24zM416 416c17.6641 0 32 -14.3359 32 -32v-384c0 -17.6641 -14.3359 -32 -32 -32h-384c-17.6641 0 -32 14.3359 -32 32v384c0 17.6641 14.3359 32 32 32h384zM416 0v384h-384v-384h384z
" />
    <glyph glyph-name="album-collection" unicode="&#xf8a0;" 
d="M496 368v-16h-480v16c0 8.83203 7.16797 16 16 16h448c8.83203 0 16 -7.16797 16 -16zM480 432v-16h-448v16c0 8.83203 7.16797 16 16 16h416c8.83203 0 16 -7.16797 16 -16zM480 320c18.8203 0 33.5703 -17.6201 31.8701 -38.0703l-26.1904 -314.18
c-1.48926 -17.9805 -15.3096 -31.75 -31.8594 -31.75h-395.641c-16.5498 0 -30.3701 13.75 -31.8701 31.75l-26.1797 314.18c-1.7002 20.4502 13.0605 38.0703 31.8701 38.0703h448zM453.79 -29.5996l26.1504 314.189
c0.0205078 0.167969 0.0371094 0.441406 0.0371094 0.610352c0 0.845703 -0.383789 2.09961 -0.857422 2.7998h-447c0.549805 -0.0898438 -0.299805 -1.32031 -0.120117 -3.41016l26.2002 -314.18c0.00878906 -0.854492 0.488281 -2.05469 1.06934 -2.67969l394.32 0.269531
c-0.490234 0.0898438 0.0800781 0.929688 0.200195 2.40039zM256 148.85c14.5596 0 26.2803 -10.29 26.1396 -22.6191c-0.139648 -12.3301 -11.8301 -22.2305 -26.1396 -22.2305s-26.0098 9.80957 -26.1299 22.25s11.5801 22.5996 26.1299 22.5996zM256 256
c92.9004 0 164.33 -61.8799 159.8 -134.4c-4.2998 -68.5996 -75.7998 -121.6 -159.8 -121.6s-155.49 53 -159.79 121.6c-4.54004 72.5205 66.8896 134.4 159.79 134.4zM256 32c67.3398 0 124.7 41.0898 127.86 91.5996c1.68945 26.9805 -11.7207 47.29 -23.2607 59.5801
c-24.3691 25.9404 -62.5 40.8203 -104.6 40.8203s-80.2305 -14.8799 -104.61 -40.8203c-11.54 -12.29 -24.9395 -32.5801 -23.25 -59.5801c3.16016 -50.5098 60.5205 -91.5996 127.86 -91.5996z" />
    <glyph glyph-name="amp-guitar" unicode="&#xf8a1;" 
d="M464 384c26.4961 0 48 -21.5039 48 -48v-352c0 -26.4961 -21.5039 -48 -48 -48h-416c-26.4961 0 -48 21.5039 -48 48v352c0 26.4961 21.5039 48 48 48h77.1904c28.9092 27.9297 76.5195 64 130.81 64s101.9 -36.0703 130.81 -64h77.1904zM256 416
c-30.1504 0 -58.6201 -14.8496 -81.6104 -32h163.221c-22.9805 17.1504 -51.46 32 -81.6104 32zM480 -16v176h-448v-176c0 -8.83203 7.16797 -16 16 -16h416c8.83203 0 16 7.16797 16 16zM480 192v144c0 8.83203 -7.16797 16 -16 16h-416c-8.83203 0 -16 -7.16797 -16 -16
v-144h448zM112 320c26.4688 -0.0273438 47.9727 -21.5312 48 -48c0 -26.4961 -21.5039 -48 -48 -48s-48 21.5039 -48 48s21.5039 48 48 48zM112 256c8.83203 0 16 7.16797 16 16s-7.16797 16 -16 16s-16 -7.16797 -16 -16s7.16797 -16 16 -16zM240 320
c26.4688 -0.0273438 47.9727 -21.5312 48 -48c0 -26.4961 -21.5039 -48 -48 -48s-48 21.5039 -48 48s21.5039 48 48 48zM240 256c8.83203 0 16 7.16797 16 16s-7.16797 16 -16 16s-16 -7.16797 -16 -16s7.16797 -16 16 -16zM416 96c-8.83203 0 -16 7.16797 -16 16
s7.16797 16 16 16s16 -7.16797 16 -16s-7.16797 -16 -16 -16zM416 32c8.83203 0 16 -7.16797 16 -16s-7.16797 -16 -16 -16s-16 7.16797 -16 16s7.16797 16 16 16zM384 48c-8.83203 0 -16 7.16797 -16 16s7.16797 16 16 16s16 -7.16797 16 -16s-7.16797 -16 -16 -16zM352 32
c8.83203 0 16 -7.16797 16 -16s-7.16797 -16 -16 -16s-16 7.16797 -16 16s7.16797 16 16 16zM160 32c8.83203 0 16 -7.16797 16 -16s-7.16797 -16 -16 -16s-16 7.16797 -16 16s7.16797 16 16 16zM224 32c8.83203 0 16 -7.16797 16 -16s-7.16797 -16 -16 -16
s-16 7.16797 -16 16s7.16797 16 16 16zM352 96c-8.83203 0 -16 7.16797 -16 16s7.16797 16 16 16s16 -7.16797 16 -16s-7.16797 -16 -16 -16zM288 32c8.83203 0 16 -7.16797 16 -16s-7.16797 -16 -16 -16s-16 7.16797 -16 16s7.16797 16 16 16zM192 48
c-8.83203 0 -16 7.16797 -16 16s7.16797 16 16 16s16 -7.16797 16 -16s-7.16797 -16 -16 -16zM160 96c-8.83203 0 -16 7.16797 -16 16s7.16797 16 16 16s16 -7.16797 16 -16s-7.16797 -16 -16 -16zM128 48c-8.83203 0 -16 7.16797 -16 16s7.16797 16 16 16
s16 -7.16797 16 -16s-7.16797 -16 -16 -16zM96 96c-8.83203 0 -16 7.16797 -16 16s7.16797 16 16 16s16 -7.16797 16 -16s-7.16797 -16 -16 -16zM320 48c-8.83203 0 -16 7.16797 -16 16s7.16797 16 16 16s16 -7.16797 16 -16s-7.16797 -16 -16 -16zM96 0
c-8.83203 0 -16 7.16797 -16 16s7.16797 16 16 16s16 -7.16797 16 -16s-7.16797 -16 -16 -16zM288 96c-8.83203 0 -16 7.16797 -16 16s7.16797 16 16 16s16 -7.16797 16 -16s-7.16797 -16 -16 -16zM256 48c-8.83203 0 -16 7.16797 -16 16s7.16797 16 16 16
s16 -7.16797 16 -16s-7.16797 -16 -16 -16zM224 96c-8.83203 0 -16 7.16797 -16 16s7.16797 16 16 16s16 -7.16797 16 -16s-7.16797 -16 -16 -16z" />
    <glyph glyph-name="badge-sheriff" unicode="&#xf8a2;" 
d="M440 136h0.0810547c26.4521 0 47.9209 -21.4678 47.9209 -47.9199s-21.4688 -47.9199 -47.9209 -47.9199c-18.6572 0 -38.8799 14.2646 -45.1406 31.8398h-68l-34.2207 -57.46c6.18652 -7.29395 11.2393 -20.9766 11.2803 -30.54c0 -26.4961 -21.5039 -48 -48 -48
s-48 21.5039 -48 48c0.0410156 9.51465 5.0498 23.1436 11.1797 30.4199l-34.2393 57.5801h-67.8906c-6.24512 -17.6641 -26.5195 -32 -45.2549 -32c-26.4951 0 -48 21.5049 -48 48c0 26.4961 21.5049 48 48 48h0.205078
c2.16504 -0.0410156 5.65039 -0.394531 7.78027 -0.790039l33.8398 56.7305l-33.8105 56.8398c-2.12109 -0.388672 -5.59277 -0.738281 -7.75 -0.780273h-0.140625c-26.4521 0 -47.9209 21.4678 -47.9209 47.9199s21.4688 47.9199 47.9209 47.9199
c18.6572 0 38.8799 -14.2646 45.1406 -31.8398h68l34.2207 57.46c-6.18652 7.29395 -11.2393 20.9766 -11.2803 30.54c0 26.4961 21.5039 48 48 48s48 -21.5039 48 -48c-0.0410156 -9.51465 -5.0498 -23.1436 -11.1797 -30.4199l34.2393 -57.5801h67.9404
c6.22754 17.6631 26.4824 31.999 45.2119 31.999c26.4629 0 47.9404 -21.4766 47.9404 -47.9395s-21.4775 -47.9404 -47.9404 -47.9404c-2.2207 0 -5.80176 0.300781 -7.99219 0.670898l-33.7793 -56.7305l33.8096 -56.8398
c2.12207 0.388672 5.59375 0.738281 7.75 0.780273zM440 312c-8.83203 0 -16 -7.16797 -16 -16s7.16797 -16 16 -16s16 7.16797 16 16s-7.16797 16 -16 16zM256 416c-8.83203 0 -16 -7.16797 -16 -16s7.16797 -16 16 -16s16 7.16797 16 16s-7.16797 16 -16 16zM72 280
c8.83203 0 16 7.16797 16 16s-7.16797 16 -16 16s-16 -7.16797 -16 -16s7.16797 -16 16 -16zM72 72c8.83203 0 16 7.16797 16 16s-7.16797 16 -16 16s-16 -7.16797 -16 -16s7.16797 -16 16 -16zM256 -32c8.83203 0 16 7.16797 16 16s-7.16797 16 -16 16
s-16 -7.16797 -16 -16s7.16797 -16 16 -16zM395 104c1.7207 4.83203 5.88281 11.8652 9.29004 15.7002l-38.1797 64.1797c-1.24316 2.08789 -2.25195 5.75488 -2.25195 8.18555c0 2.42969 1.00879 6.09668 2.25195 8.18457l38.1592 64.0703
c-3.40137 3.8291 -7.55371 10.8535 -9.26953 15.6797h-77h-0.0693359c-5.01172 0 -11.1543 3.49902 -13.7109 7.80957l-38.7295 65.1309c-2.56836 -0.524414 -6.7793 -0.950195 -9.40039 -0.950195s-6.83203 0.425781 -9.39941 0.950195l-38.7803 -65.1309
c-2.56934 -4.31055 -8.72656 -7.80957 -13.7451 -7.80957h-0.00488281h-77.1104c-1.7207 -4.83203 -5.88281 -11.8652 -9.29004 -15.7002l38.1299 -64.1797c1.24316 -2.08789 2.25195 -5.75488 2.25195 -8.18555c0 -2.42969 -1.00879 -6.09668 -2.25195 -8.18457
l-38.1592 -64.0703c3.39941 -3.83008 7.55273 -10.8545 9.26953 -15.6797h77h0.0693359c5.01172 0 11.1543 -3.49902 13.7109 -7.80957l38.7393 -65.1309c2.56738 0.524414 6.77637 0.949219 9.39551 0.949219s6.82812 -0.424805 9.39453 -0.949219l38.7803 65.1309
c2.56934 4.31055 8.72656 7.80957 13.7451 7.80957h0.00488281h77.1602zM440 72c8.83203 0 16 7.16797 16 16s-7.16797 16 -16 16s-16 -7.16797 -16 -16s7.16797 -16 16 -16zM256 264c39.6943 -0.0498047 71.9502 -32.3057 72 -72c0 -39.7441 -32.2559 -72 -72 -72
s-72 32.2559 -72 72s32.2559 72 72 72zM256 152c22.0801 0 40 17.9199 40 40s-17.9199 40 -40 40s-40 -17.9199 -40 -40s17.9199 -40 40 -40z" />
    <glyph glyph-name="banjo" unicode="&#xf8a3;" 
d="M121 113.54l56.54 -56.5703c1.29199 -1.29297 2.34082 -3.82617 2.34082 -5.6543c0 -1.8291 -1.04883 -4.3623 -2.34082 -5.65527l-11.3203 -11.3203c-1.29297 -1.29199 -3.82617 -2.34082 -5.6543 -2.34082c-1.8291 0 -4.3623 1.04883 -5.65527 2.34082
l-56.5703 56.5703c-1.29199 1.29297 -2.34082 3.82617 -2.34082 5.65527c0 1.82812 1.04883 4.36133 2.34082 5.6543l11.3398 11.3203c1.29395 1.29492 3.83008 2.34668 5.66016 2.34668c1.83105 0 4.36621 -1.05176 5.66016 -2.34668zM501.81 405.54
c5.6416 -5.64453 10.1914 -16.7236 10.1914 -24.7051s-4.5791 -19.04 -10.2207 -24.6846l-50.5205 -50.5205c-3.54785 -3.54492 -10.29 -7.70703 -15.0498 -9.29004l-64.0596 -21.3594c-0.310547 -0.390625 -0.180664 -0.94043 -0.540039 -1.31055l-94.9307 -94.9297
c11.8857 -16.5752 23.4033 -46.4756 25.71 -66.7402h1.61035c8.83203 0 16 -7.16797 16 -16s-7.16797 -16 -16 -16h-1.61035c-2.48633 -22.6992 -16.0791 -55.5957 -30.3398 -73.4297l1.07031 -1.07031c2.42871 -2.55664 4.40039 -7.49414 4.40039 -11.0205
c0 -8.83203 -7.16797 -16 -16 -16c-3.52637 0 -8.46387 1.97168 -11.0205 4.40039l-1.07031 1.07031c-17.834 -14.2607 -50.7305 -27.8535 -73.4297 -30.3398v-1.61035c0 -8.83203 -7.16797 -16 -16 -16s-16 7.16797 -16 16v1.61035
c-22.6992 2.48633 -55.5957 16.0791 -73.4297 30.3398l-1.07031 -1.07031c-2.62891 -2.89551 -7.93652 -5.24609 -11.8477 -5.24609c-8.83105 0 -16 7.16797 -16 16c0 3.91992 2.36035 9.23633 5.26758 11.8662l1.08008 1.07031
c-14.2754 17.8291 -27.8906 50.7266 -30.3896 73.4297h-1.61035c-8.83203 0 -16 7.16797 -16 16s7.16797 16 16 16h1.61035c2.49902 22.7031 16.1143 55.6006 30.3896 73.4297l-1.12988 1.07031c-2.2793 2.52246 -4.12891 7.32812 -4.12891 10.7275
c0 8.83203 7.16797 16 16 16c3.41211 0 8.23242 -1.8623 10.7588 -4.15723l1.07031 -1.07031c17.8291 14.2754 50.7266 27.8906 73.4297 30.3896v1.61035c0 8.83203 7.16797 16 16 16s16 -7.16797 16 -16v-1.61035c20.2715 -2.30371 50.1797 -13.8223 66.7598 -25.71
l94.9307 94.9307c0.30957 0.359375 0.919922 0.239258 1.30957 0.540039l21.3398 64.0596c1.58301 4.75977 5.74512 11.502 9.29004 15.0498l50.5205 50.5205c5.64355 5.64062 16.7002 10.2197 24.6797 10.2197s19.0361 -4.5791 24.6797 -10.2197zM160 -16
c61.7578 0.0664062 111.934 50.2422 112 112c0 61.8242 -50.1758 112 -112 112s-112 -50.1758 -112 -112s50.1758 -112 112 -112zM479.15 378.78c0.466797 0.470703 0.844727 1.3916 0.844727 2.05469s-0.37793 1.58398 -0.844727 2.05469l-32.2607 32.2607
c-0.469727 0.46875 -1.39062 0.849609 -2.05469 0.849609s-1.58496 -0.380859 -2.05469 -0.849609l-50.5205 -50.5205c-0.59668 -0.595703 -1.2959 -1.72852 -1.55957 -2.53027l-17.7002 -53.0996l53.0996 17.6904c0.799805 0.269531 1.93359 0.972656 2.53027 1.56934z" />
    <glyph glyph-name="betamax" unicode="&#xf8a4;" 
d="M320 80c-17.6641 0 -32 14.3359 -32 32v96c0 17.6641 14.3359 32 32 32h96c17.6641 0 32 -14.3359 32 -32v-96c0 -17.6641 -14.3359 -32 -32 -32h-96zM320 208v-96h96v96h-96zM160 136c-13.248 0 -24 10.752 -24 24s10.752 24 24 24s24 -10.752 24 -24
s-10.752 -24 -24 -24zM160 64c-52.9922 0 -96 43.0078 -96 96s43.0078 96 96 96s96 -43.0078 96 -96s-43.0078 -96 -96 -96zM160 224c-35.2891 -0.0380859 -63.9619 -28.7109 -64 -64c0 -35.3281 28.6719 -64 64 -64s64 28.6719 64 64s-28.6719 64 -64 64zM496 384
c8.83203 0 16 -7.16797 16 -16v-320c0 -26.4961 -21.5039 -48 -48 -48h-416c-26.4961 0 -48 21.5039 -48 48v320c0 8.83203 7.16797 16 16 16h480zM480 48v240h-448v-240c0 -8.83203 7.16797 -16 16 -16h416c8.83203 0 16 7.16797 16 16zM480 320v32h-448v-32h448z" />
    <glyph glyph-name="boombox" unicode="&#xf8a5;" horiz-adv-x="640" 
d="M176 224c61.8242 0 112 -50.1758 112 -112s-50.1758 -112 -112 -112s-112 50.1758 -112 112s50.1758 112 112 112zM176 32c44.1104 0.0498047 79.9502 35.8896 80 80c0 44.1602 -35.8398 80 -80 80s-80 -35.8398 -80 -80s35.8398 -80 80 -80zM464 224
c61.8242 0 112 -50.1758 112 -112s-50.1758 -112 -112 -112s-112 50.1758 -112 112s50.1758 112 112 112zM464 32c44.1104 0.0498047 79.9502 35.8896 80 80c0 44.1602 -35.8398 80 -80 80s-80 -35.8398 -80 -80s35.8398 -80 80 -80zM592 288c26.4961 0 48 -21.5039 48 -48
v-256c0 -26.4961 -21.5039 -48 -48 -48h-544c-26.4961 0 -48 21.5039 -48 48v256c0 26.4961 21.5039 48 48 48h16v104c0.0332031 30.8789 25.1211 55.9668 56 56h400c30.873 -0.0380859 55.9619 -25.127 56 -56v-104h16zM96 392v-104h96v16c0 8.83203 7.16797 16 16 16h32
c8.83203 0 16 -7.16797 16 -16v-16h32v16c0 8.83203 7.16797 16 16 16h32c8.83203 0 16 -7.16797 16 -16v-16h32v16c0 8.83203 7.16797 16 16 16h32c8.83203 0 16 -7.16797 16 -16v-16h96v104c0 13.248 -10.752 24 -24 24h-400c-13.248 0 -24 -10.752 -24 -24zM608 -16v256
c0 8.83203 -7.16797 16 -16 16h-544c-8.83203 0 -16 -7.16797 -16 -16v-256c0 -8.83203 7.16797 -16 16 -16h544c8.83203 0 16 7.16797 16 16zM464 144c17.6641 0 32 -14.3359 32 -32s-14.3359 -32 -32 -32s-32 14.3359 -32 32s14.3359 32 32 32zM176 144
c17.6641 0 32 -14.3359 32 -32s-14.3359 -32 -32 -32s-32 14.3359 -32 32s14.3359 32 32 32z" />
    <glyph glyph-name="cactus" unicode="&#xf8a7;" 
d="M446.54 239.22c2.57031 0.436523 6.77246 0.790039 9.37988 0.790039c30.918 0 56.041 -25.0918 56.0801 -56.0098v-32c0 -66.2402 -53.7598 -120 -120 -120h-40v-80c0 -8.83203 -7.16797 -16 -16 -16h-160c-8.83203 0 -16 7.16797 -16 16v192h-40
c-66.2402 0 -120 53.7598 -120 120v32c0.0390625 30.918 25.1621 56.0098 56.0801 56.0098c2.60742 0 6.80957 -0.353516 9.37988 -0.790039c27.54 -4.54004 46.54 -30.46 46.54 -58.3701v-28.8496c0 -4.41602 3.58398 -8 8 -8h40v96
c0.000976562 52.9912 43.0088 95.999 96 95.999c1.4248 0 3.7373 -0.0625 5.16016 -0.138672c51.9102 -2.70996 90.8398 -49.29 90.8398 -101.29v-202.57h40c4.41602 0 8 3.58398 8 8v28.8496c0 27.9102 19 53.8301 46.54 58.3701zM160 176v48h-40
c-22.0801 0 -40 17.9199 -40 40v32c0 13.248 -10.752 24 -24 24s-24 -10.752 -24 -24v-32c0.0498047 -48.5264 39.4736 -87.9502 88 -88h40zM320 -32v384c0 35.3281 -28.6719 64 -64 64s-64 -28.6719 -64 -64v-384h128zM480 152v32c0 13.248 -10.752 24 -24 24
s-24 -10.752 -24 -24v-32c0 -22.0801 -17.9199 -40 -40 -40h-40v-48h40c48.5264 0.0498047 87.9502 39.4736 88 88zM240 320c8.83203 0 16 -7.16797 16 -16s-7.16797 -16 -16 -16s-16 7.16797 -16 16s7.16797 16 16 16zM272 96c8.83203 0 16 -7.16797 16 -16
s-7.16797 -16 -16 -16s-16 7.16797 -16 16s7.16797 16 16 16z" />
    <glyph glyph-name="camcorder" unicode="&#xf8a8;" horiz-adv-x="576" 
d="M511.88 288c16.6396 0 32.1201 -13 32.1201 -31.5v-256.91c0 -18.5898 -15.5195 -31.5898 -32.1504 -31.5898c-5.54199 0.0195312 -13.7217 2.61816 -18.2598 5.7998l-77.5898 53.5898v-11.3896c0 -26.4961 -21.5039 -48 -48 -48h-288c-26.4961 0 -48 21.5039 -48 48v224
c0 26.4961 21.5039 48 48 48h16v48c0 44.1602 35.8398 80 80 80h168c4.41602 0 8 -3.58398 8 -8v-16c0 -4.41602 -3.58398 -8 -8 -8h-168c-26.4961 0 -48 -21.5039 -48 -48v-48h240c26.4961 0 48 -21.5039 48 -48v-11.3203l77.5898 53.5898
c4.54883 3.15625 12.7344 5.72266 18.2705 5.73047v-32h0.0693359l-95.9297 -66.2305v-123.489l95.7803 -66.1504l0.219727 256.37zM384 16v224c0 8.83203 -7.16797 16 -16 16h-288c-8.83203 0 -16 -7.16797 -16 -16v-224c0 -8.83203 7.16797 -16 16 -16h288
c8.83203 0 16 7.16797 16 16zM345.6 224c3.52734 -0.00585938 6.39453 -2.87305 6.40039 -6.40039v-19.1992c-0.00585938 -3.52734 -2.87305 -6.39453 -6.40039 -6.40039h-243.199c-3.52734 0.00585938 -6.39453 2.87305 -6.40039 6.40039v19.1992
c0.00585938 3.52734 2.87305 6.39453 6.40039 6.40039h243.199z" />
    <glyph glyph-name="camera-movie" unicode="&#xf8a9;" horiz-adv-x="576" 
d="M368 368c35.3281 0 64 -28.6719 64 -64s-28.6719 -64 -64 -64s-64 28.6719 -64 64s28.6719 64 64 64zM368 272c17.6641 0 32 14.3359 32 32s-14.3359 32 -32 32s-32 -14.3359 -32 -32s14.3359 -32 32 -32zM176 368c35.2891 -0.0380859 63.9619 -28.7109 64 -64
c0 -35.3281 -28.6719 -64 -64 -64s-64 28.6719 -64 64s28.6719 64 64 64zM176 272c17.6641 0 32 14.3359 32 32s-14.3359 32 -32 32s-32 -14.3359 -32 -32s14.3359 -32 32 -32zM550.29 192c13.3203 0 25.71 -10.4004 25.71 -25.2305v-205.529
c0 -14.8799 -12.4199 -25.2402 -25.7197 -25.2402c-4.42871 0.00292969 -10.9697 2.06445 -14.6006 4.59961l-87.6797 60.9404v-17.54c0 -26.4961 -21.5039 -48 -48 -48h-256c-26.4961 0 -48 21.5039 -48 48v112h-64c-17.6641 0 -32 14.3359 -32 32v32
c0 17.6641 14.3359 32 32 32h54.5098c-32.9697 26.3896 -54.5098 66.4805 -54.5098 112c0 79.4883 64.5117 144 144 144c37.0498 0 70.4805 -14.3799 96 -37.3701c25.5195 22.9902 59 37.3701 96 37.3701c79.4883 0 144 -64.5117 144 -144
c0 -55.3398 -31.5596 -102.81 -77.3398 -126.93c7.35645 -7.64551 13.333 -22.4609 13.3398 -33.0703v-17.5898l87.6797 61c3.63672 2.52637 10.1816 4.58301 14.6104 4.58984zM416 -16v160c0 8.83203 -7.16797 16 -16 16h-368v-32h96v-144c0 -8.83203 7.16797 -16 16 -16
h256c8.83203 0 16 7.16797 16 16zM368 192h0.213867c61.7021 0 111.78 50.0771 111.78 111.78c0 61.7021 -50.0781 111.779 -111.78 111.779c-23.6846 0 -57.1924 -12.8613 -74.7939 -28.71l-21.4199 -19.29l-21.4199 19.29
c-17.6885 16.0898 -51.4512 29.1475 -75.3623 29.1475c-61.8242 0 -112 -50.1758 -112 -112s50.1758 -112 112 -112c0.21582 0 0.566406 0.000976562 0.782227 0.00292969h192zM544 -26.2197v180.479l-96 -66.7402v-47z" />
    <glyph glyph-name="camera-polaroid" unicode="&#xf8aa;" horiz-adv-x="576" 
d="M288 320c44.0938 -0.0664062 79.9336 -35.9062 80 -80c0 -44.1602 -35.8398 -80 -80 -80s-80 35.8398 -80 80s35.8398 80 80 80zM288 192c26.4688 0.0273438 47.9727 21.5312 48 48c0 26.4961 -21.5039 48 -48 48s-48 -21.5039 -48 -48s21.5039 -48 48 -48zM104 32
c-4.41602 0 -8 3.58398 -8 8v16c0 4.41602 3.58398 8 8 8h368c4.41602 0 8 -3.58398 8 -8v-16c0 -4.41602 -3.58398 -8 -8 -8h-368zM574.43 119.94c0.851562 -2.60742 1.55469 -6.94824 1.57031 -9.69043v-110.25c0 -17.6641 -14.3359 -32 -32 -32h-512
c-17.6641 0 -32 14.3359 -32 32v110.25c0.0712891 5.32715 2.48145 13.2793 5.37988 17.75l58.6201 64v176c0 26.4961 21.5039 48 48 48h352c26.4961 0 48 -21.5039 48 -48v-176l58.6299 -64c1.36035 -2.07812 3.0625 -5.68848 3.7998 -8.05957zM96 179.56
l-47.2305 -51.5596h478.461l-47.2305 51.5596v188.44c0 8.83203 -7.16797 16 -16 16h-352c-8.83203 0 -16 -7.16797 -16 -16v-188.44zM544 0v96h-512v-96h512zM432 344c4.41602 0 8 -3.58398 8 -8v-32c0 -4.41602 -3.58398 -8 -8 -8h-32c-4.41602 0 -8 3.58398 -8 8v32
c0 4.41602 3.58398 8 8 8h32z" />
    <glyph glyph-name="cassette-tape" unicode="&#xf8ab;" 
d="M464 384c26.4961 0 48 -21.5039 48 -48v-288c0 -26.4961 -21.5039 -48 -48 -48h-416c-26.4961 0 -48 21.5039 -48 48v288c0 26.4961 21.5039 48 48 48h416zM123.78 32h264.439l-24 48h-216.439zM480 48v288c0 8.83203 -7.16797 16 -16 16h-416
c-8.83203 0 -16 -7.16797 -16 -16v-288c0 -8.83203 7.16797 -16 16 -16h40l40 80h256l40 -80h40c8.83203 0 16 7.16797 16 16zM368 288c35.3281 0 64 -28.6719 64 -64s-28.6719 -64 -64 -64h-224c-35.3281 0 -64 28.6719 -64 64s28.6719 64 64 64h224zM144 192
c17.6641 0 32 14.3359 32 32s-14.3359 32 -32 32s-32 -14.3359 -32 -32s14.3359 -32 32 -32zM312.88 192c-4.90137 8.15234 -8.87988 22.4883 -8.87988 32s3.97852 23.8477 8.87988 32h-113.76c4.90137 -8.15234 8.87988 -22.4883 8.87988 -32
s-3.97852 -23.8477 -8.87988 -32h113.76zM368 192c17.6641 0 32 14.3359 32 32s-14.3359 32 -32 32s-32 -14.3359 -32 -32s14.3359 -32 32 -32z" />
    <glyph glyph-name="cctv" unicode="&#xf8ac;" horiz-adv-x="576" 
d="M556.34 204.88c10.8799 -4.74316 19.71 -18.2256 19.71 -30.0938c0 -3.8252 -1.25488 -9.76758 -2.7998 -13.2666l-40.6797 -92.6299c-6.33984 -14.5195 -24.7402 -25.0498 -43.3398 -16.8496l-141 62l-17.8408 -11.1504
c-6.08691 -3.80664 -16.8555 -6.89746 -24.0361 -6.89746c-4.41504 0 -11.3652 1.22656 -15.5137 2.73828l-71.5898 29.6396l-44.25 -118c-2.15137 -5.72461 -8.86133 -10.3701 -14.9766 -10.3701h-0.0234375h-128v-56c0 -4.41602 -3.58398 -8 -8 -8h-16
c-4.41602 0 -8 3.58398 -8 8v144c0 4.41602 3.58398 8 8 8h16c4.41602 0 8 -3.58398 8 -8v-56h116.93l40.75 108.69l-160.149 66.3096c-16.2695 6.10352 -29.4736 25.1592 -29.4736 42.5352c0 6.63477 2.66309 16.6982 5.94336 22.4648l87.5195 153.17
c7.26367 12.5928 24.9561 22.8135 39.4932 22.8135c4.80176 0 12.3223 -1.43555 16.7871 -3.20312l347.641 -152.86c15.4502 -6.28418 27.9902 -24.9209 27.9902 -41.6006c0 -8.53613 -4.26562 -20.9229 -9.52051 -27.6494zM313.48 130.08l173.71 108.57
c3.46289 2.17188 6.27344 7.25391 6.27344 11.3428c0 4.99805 -3.76465 10.5654 -8.4043 12.4268l-347.659 152.87c-8.10059 3.16016 -14.3604 -3 -16.1006 -6l-87.46 -153.17c-2.89941 -5.00977 -3 -15.5703 7 -19.2197l0.660156 -0.25l260.92 -108.07
c1.06445 -0.339844 2.83496 -0.615234 3.95215 -0.615234c2.13574 0 5.32031 0.947266 7.1084 2.11523zM502.09 81.3896l41.8398 93.1006l-57.4297 26l-105.41 -65.8906z" />
    <glyph glyph-name="clarinet" unicode="&#xf8ad;" horiz-adv-x="640" 
d="M272 216c13.248 0 24 -10.752 24 -24s-10.752 -24 -24 -24s-24 10.752 -24 24s10.752 24 24 24zM368 216c13.248 0 24 -10.752 24 -24s-10.752 -24 -24 -24s-24 10.752 -24 24s10.752 24 24 24zM464 216c13.248 0 24 -10.752 24 -24s-10.752 -24 -24 -24
s-24 10.752 -24 24s10.752 24 24 24zM616 336c13.248 0 24 -10.752 24 -24v-240v-0.00195312c0 -13.248 -10.752 -24 -24 -24c-3.99609 0 -9.94043 1.79297 -13.2695 4.00195l-66 44h-435.53h-0.0205078c-2.86133 0 -7.38574 0.734375 -10.0996 1.63965l-69.2002 23.0703
c-12.0742 4.02539 -21.877 17.6221 -21.8799 30.3496v81.8809c0.00292969 12.7275 9.80566 26.3242 21.8799 30.3496l69.2002 23.0703c2.71387 0.905273 7.23828 1.63965 10.0996 1.63965h0.0205078h154.8v32h-24c-4.41602 0 -8 3.58398 -8 8v16c0 4.41602 3.58398 8 8 8
h272c4.41602 0 8 -3.58398 8 -8v-16c0 -4.41602 -3.58398 -8 -8 -8h-24v-32h56.7197l66 44c3.30469 2.20801 9.21094 4 13.1855 4h0.0947266zM384 320v-32h64v32h-64zM288 320v-32h64v32h-64zM608 86.9502v210.05l-61.5801 -41h-445.22l-69.2002 -23.0596v-81.8809
l69.2002 -23.0596h445.22z" />
    <glyph glyph-name="cloud-music" unicode="&#xf8ae;" horiz-adv-x="640" 
d="M571.69 209.2c37.6748 -19.8857 68.252 -70.5986 68.252 -113.2c0 -70.624 -57.3184 -127.969 -127.942 -128h-368c-79.4385 0.0498047 -143.91 64.5615 -143.91 144c0 56.251 43.0527 117.089 96.1006 135.8c4.11914 93.7002 81.3994 168.2 175.81 168.2h0.0986328
c50.4482 0 114.916 -33.5107 143.901 -74.7998c12.4844 5.96191 33.8447 10.7998 47.6787 10.7998h0.321289h0.0078125c61.8242 0 112 -50.1758 112 -112c0 -8.66797 -1.93457 -22.4658 -4.31738 -30.7998zM512 0c52.9688 0.0224609 95.959 43.0312 95.959 96
c0 45.2041 -36.2295 87.6748 -80.8691 94.7998c9.20312 11.9229 16.6719 33.8213 16.6719 48.8828c0 44.1592 -35.8408 80 -80 80c-19.126 0 -45.2676 -11.3223 -58.3516 -25.2725c-20.1953 49.4551 -79.9404 89.5938 -133.36 89.5938
c-79.4893 0 -144.024 -64.5137 -144.05 -144.004v-0.34375c0 -4.61328 0.448242 -12.0752 1 -16.6562c-53.5811 -7.20801 -97.0674 -56.9365 -97.0674 -111c0 -61.8242 50.1768 -112 112 -112h0.0673828h368zM363.19 271.25
c1.2959 0.408203 3.4502 0.740234 4.80957 0.740234c8.82617 0 15.9941 -7.16406 16 -15.9902v-144c0 -17.6699 -21.5 -32 -48 -32s-48 14.3301 -48 32s21.5 32 48 32c4.48047 -0.0351562 11.6484 -0.930664 16 -2v84.3604l-96 -37.5205v-108.84
c0 -17.6699 -21.5 -32 -48 -32s-48 14.3301 -48 32s21.5 32 48 32c4.48047 -0.0351562 11.6484 -0.930664 16 -2v98.75c0.00390625 6.47266 5.01758 13.3047 11.1904 15.25z" />
    <glyph glyph-name="comment-alt-music" unicode="&#xf8af;" 
d="M448 448c35.3008 -0.0273438 63.9727 -28.6992 64 -64v-288c-0.0273438 -35.3008 -28.6992 -63.9727 -64 -64h-144l-124.91 -93.5898c-1.70117 -1.33105 -4.83398 -2.41016 -6.99316 -2.41016h-0.0966797c-6.62402 0 -12 5.37598 -12 12v84h-96
c-35.3008 0.0273438 -63.9727 28.6992 -64 64v288c0.0273438 35.3008 28.6992 63.9727 64 64h384zM480 96v288c-0.0605469 17.6035 -14.3965 31.9395 -32 32h-384c-17.6035 -0.0605469 -31.9395 -14.3965 -32 -32v-288c0.0605469 -17.6035 14.3965 -31.9395 32 -32h128v-76
l92.8096 69.5898l8.5 6.41016h154.69c17.6035 0.0605469 31.9395 14.3965 32 32zM331.19 351.25c1.2959 0.408203 3.4502 0.740234 4.80957 0.740234c8.82617 0 15.9941 -7.16406 16 -15.9902v-144c0 -17.6699 -21.5 -32 -48 -32s-48 14.3301 -48 32s21.5 32 48 32
c4.48047 -0.0390625 11.6484 -0.935547 16 -2v84.3604l-96 -37.5205v-108.84c0 -17.6699 -21.5 -32 -48 -32s-48 14.3301 -48 32s21.5 32 48 32c4.48047 -0.0390625 11.6484 -0.935547 16 -2v98.75c0.00390625 6.47266 5.01758 13.3047 11.1904 15.25z" />
    <glyph glyph-name="comment-music" unicode="&#xf8b0;" 
d="M256 416c141.42 0 256 -93.0898 256 -208s-114.61 -208 -256 -208c-26.2549 0.00976562 -67.8867 6.41699 -92.9297 14.2998c-29.0703 -20.5996 -77.5801 -46.2998 -139.07 -46.2998c-13.2324 0.015625 -23.9717 10.7676 -23.9717 24
c0 5.27637 2.94434 12.668 6.57129 16.5c0.5 0.410156 31.4902 33.7998 46.4004 73.2002c-33 35.0996 -52.9297 78.71 -52.9297 126.3c0 114.91 114.569 208 255.93 208zM256 32c123.52 0 224.06 79 224.06 176s-100.489 176 -224 176c-123.51 0 -224 -79 -224 -176
c0 -37.5898 15.3105 -73.7002 44.1807 -104.3l13.7598 -14.6104l-7.16016 -18.6797c-11 -29.21 -28.8096 -54.5 -40.8096 -69.6104c44.0898 4.29004 79.5801 23.29 102.58 39.6104l13 9.17969l15.2197 -4.79004c22.3604 -7.06543 59.54 -12.7998 82.9902 -12.7998h0.179688z
M331.18 319.25c1.29102 0.405273 3.4668 0.733398 4.82031 0.733398c8.82324 0 15.9912 -7.16016 16 -15.9834v-144c0 -17.6699 -21.5 -32 -48 -32s-48 14.3301 -48 32s21.5 32 48 32c4.48047 -0.0380859 11.6484 -0.93457 16 -2v84.3604l-96 -37.5205v-108.84
c0 -17.6699 -21.5 -32 -48 -32s-48 14.3301 -48 32s21.5098 32 48 32c4.48047 -0.0390625 11.6484 -0.93457 16 -2v98.75c0.00878906 6.48438 5.04004 13.3164 11.2305 15.25z" />
    <glyph glyph-name="computer-classic" unicode="&#xf8b1;" horiz-adv-x="448" 
d="M376 128c4.41602 0 8 -3.58398 8 -8v-16c0 -4.41602 -3.58398 -8 -8 -8h-144c-4.41602 0 -8 3.58398 -8 8v16c0 4.41602 3.58398 8 8 8h144zM416 448c17.6641 0 32 -14.3359 32 -32v-400c0 -8.83203 -7.16797 -16 -16 -16h-16v-48c0 -8.83203 -7.16797 -16 -16 -16h-352
c-8.83203 0 -16 7.16797 -16 16v48h-16c-8.83203 0 -16 7.16797 -16 16v400c0 17.6641 14.3359 32 32 32h384zM384 -32v32h-320v-32h320zM416 32v384h-384v-384h384zM96 192c-17.6641 0 -32 14.3359 -32 32v128c0 17.6641 14.3359 32 32 32h256
c17.6641 0 32 -14.3359 32 -32v-128c0 -17.6641 -14.3359 -32 -32 -32h-256zM96 352v-128h256v128h-256zM80 92c-11.04 0 -20 8.95996 -20 20s8.95996 20 20 20s20 -8.95996 20 -20s-8.95996 -20 -20 -20z" />
    <glyph glyph-name="computer-speaker" unicode="&#xf8b2;" horiz-adv-x="640" 
d="M480 256c-26.4961 0 -48 21.5039 -48 48s21.5039 48 48 48s48 -21.5039 48 -48s-21.5039 -48 -48 -48zM480 320c-8.83203 0 -16 -7.16797 -16 -16s7.16797 -16 16 -16s16 7.16797 16 16s-7.16797 16 -16 16zM480 224c52.9365 -0.0546875 95.9453 -43.0635 96 -96
c0 -52.9922 -43.0078 -96 -96 -96s-96 43.0078 -96 96s43.0078 96 96 96zM480 64c35.2842 0.0439453 63.9561 28.7158 64 64c0 35.3281 -28.6719 64 -64 64s-64 -28.6719 -64 -64s28.6719 -64 64 -64zM480 152c13.248 0 24 -10.752 24 -24s-10.752 -24 -24 -24
s-24 10.752 -24 24s10.752 24 24 24zM592 416c26.4961 0 48 -21.5039 48 -48v-352c0 -26.4961 -21.5039 -48 -48 -48h-224c-26.4961 0 -48 21.5039 -48 48v352c0 26.4961 21.5039 48 48 48h224zM608 16v352c0 8.83203 -7.16797 16 -16 16h-224
c-8.83203 0 -16 -7.16797 -16 -16v-352c0 -8.83203 7.16797 -16 16 -16h224c8.83203 0 16 7.16797 16 16zM104 0h185.62c2.06445 -9.76465 8.69043 -24.1006 14.79 -32h-200.41c-4.41602 0 -8 3.58398 -8 8v16c0 4.41602 3.58398 8 8 8zM0 384c0 17.6641 14.3359 32 32 32
h272.41c-6.09961 -7.89941 -12.7256 -22.2354 -14.79 -32h-257.62v-288h256v-32h-256c-17.6641 0 -32 14.3359 -32 32v288z" />
    <glyph glyph-name="cowbell" unicode="&#xf8b3;" horiz-adv-x="448" 
d="M384.19 325.65l63.2998 -352c0.277344 -1.54785 0.50293 -4.0791 0.50293 -5.65039c0 -17.6641 -14.3359 -32 -32 -32h-0.0634766h-383.859h-0.0634766c-17.6641 0 -32 14.3359 -32 32c0 1.57129 0.225586 4.10254 0.50293 5.65039l63.2998 352
c2.60938 14.5449 16.7207 26.3496 31.498 26.3496h0.0527344h16.8398v48c0.0546875 26.4902 21.5996 47.9941 48.0898 48h128.229h0.0205078c26.4961 0 48.0449 -21.5039 48.0996 -48v-48h16h0.0527344c14.7773 0 28.8887 -11.8047 31.498 -26.3496zM144.2 400v-48h160.41
v48c-0.0390625 8.83203 -7.23828 16 -16.0703 16h-0.0205078h-128.229h-0.0205078c-8.83203 0 -16.0312 -7.16797 -16.0693 -16zM32 -32h383.93l-63.2295 352h-257.34z" />
    <glyph glyph-name="cowbell-more" unicode="&#xf8b4;" horiz-adv-x="640" 
d="M480 256c88.3203 0 160 -71.6797 160 -160s-71.6797 -160 -160 -160s-160 71.6797 -160 160s71.6797 160 160 160zM480 -32c70.5791 0.0771484 127.923 57.4209 128 128c0 70.6562 -57.3438 128 -128 128s-128 -57.3438 -128 -128s57.3438 -128 128 -128zM552 112
c4.41602 0 8 -3.58398 8 -8v-16c0 -4.41602 -3.58398 -8 -8 -8h-56v-56c0 -4.41602 -3.58398 -8 -8 -8h-16c-4.41602 0 -8 3.58398 -8 8v56h-56c-4.41602 0 -8 3.58398 -8 8v16c0 4.41602 3.58398 8 8 8h56v56c0 4.41602 3.58398 8 8 8h16c4.41602 0 8 -3.58398 8 -8v-56h56
zM32 -32h305.23c9.02148 -10.127 25.4941 -24.4629 36.7695 -32h-341.93h-0.0634766c-17.6641 0 -32 14.3359 -32 32c0 1.57129 0.225586 4.10254 0.50293 5.65039l63.29 352c2.60938 14.5449 16.7197 26.3496 31.4971 26.3496h0.0634766h16.8398v48
c0.0546875 26.4902 21.5996 47.9941 48.0898 48h128.229h0.0205078c26.4961 0 48.0449 -21.5039 48.0996 -48v-48h16h0.0546875c14.7725 0 28.8828 -11.8008 31.4961 -26.3398l10.4092 -57.8701c-8.52832 -4.25586 -21.6455 -12.3418 -29.2793 -18.0498l-12.6299 70.2598
h-257.33zM144.2 400v-48h160.41v48c-0.0390625 8.83203 -7.23828 16 -16.0703 16h-0.0205078h-128.229h-0.0205078c-8.83203 0 -16.0312 -7.16797 -16.0693 -16z" />
    <glyph glyph-name="disc-drive" unicode="&#xf8b5;" 
d="M256 224c17.6641 0 32 -14.3359 32 -32s-14.3359 -32 -32 -32s-32 14.3359 -32 32s14.3359 32 32 32zM504 0c4.41602 0 8 -3.58398 8 -8v-16c0 -4.41602 -3.58398 -8 -8 -8h-496c-4.41602 0 -8 3.58398 -8 8v16c0 4.41602 3.58398 8 8 8h24v352
c0 35.3281 28.6719 64 64 64h320c35.3281 0 64 -28.6719 64 -64v-352h24zM448 0v352c0 17.6641 -14.3359 32 -32 32h-320c-17.6641 0 -32 -14.3359 -32 -32v-352h384zM256 352c88.3203 0 160 -71.6797 160 -160s-71.6797 -160 -160 -160s-160 71.6797 -160 160
s71.6797 160 160 160zM256 64c70.5791 0.0771484 127.923 57.4209 128 128c0 70.6562 -57.3438 128 -128 128s-128 -57.3438 -128 -128s57.3438 -128 128 -128z" />
    <glyph glyph-name="file-music" unicode="&#xf8b6;" horiz-adv-x="384" 
d="M369.91 350c7.7627 -7.77832 14.0752 -23.0107 14.0898 -34v-332c0 -26.4961 -21.5039 -48 -48 -48h-288c-26.4961 0 -48 21.5039 -48 48v415.92c0.0380859 26.458 21.542 47.998 48 48.0801h204.09c10.9697 -0.0146484 26.1611 -6.32617 33.9102 -14.0898zM256 415.41
v-95.4805h95.5c-0.579102 2.37012 -2.45605 5.68457 -4.19043 7.40039l-83.8994 83.8799c-1.7168 1.73828 -5.03711 3.62012 -7.41016 4.2002zM352 -16v303.92h-104h-0.0703125c-13.209 0 -23.9297 10.7207 -23.9297 23.9297v0.0703125v104h-176
c-8.83203 0 -16 -7.16797 -16 -16v-415.92c0 -8.83203 7.16797 -16 16 -16h288c8.83203 0 16 7.16797 16 16zM128 176.8c0.0244141 6.45117 5.03711 13.2607 11.1904 15.2002l128 47.2402c1.2959 0.408203 3.4502 0.740234 4.80957 0.740234
c8.82129 0 15.9893 -7.15918 16 -15.9805v-143.94c0 -17.6699 -21.5 -32 -48 -32s-48 14.3203 -48 32c0 17.6807 21.5 32 48 32c4.47852 -0.0214844 11.6475 -0.894531 16 -1.94922v84.29l-96 -37.5107v-108.779c0 -17.6807 -21.5 -32 -48 -32s-48 14.3301 -48 32
s21.5 32 48 32c4.48047 -0.0351562 11.6484 -0.931641 16 -2v98.6895z" />
    <glyph glyph-name="flashlight" unicode="&#xf8b8;" horiz-adv-x="640" 
d="M288 240c26.4961 0 48 -21.5039 48 -48s-21.5039 -48 -48 -48h-32c-26.4961 0 -48 21.5039 -48 48s21.5039 48 48 48h32zM288 176c8.83203 0 16 7.16797 16 16s-7.16797 16 -16 16h-32c-8.83203 0 -16 -7.16797 -16 -16s7.16797 -16 16 -16h32zM608 352
c17.6641 0 32 -14.3359 32 -32v-256c0 -17.6641 -14.3359 -32 -32 -32h-32c-59 0 -116.52 17 -166.58 48h-345.42c-35.3281 0 -64 28.6719 -64 64v96c0 35.3281 28.6719 64 64 64h345.41c50.0703 31 107.59 48 166.59 48h32zM512 71.5098v240.98
c-25.2676 -6.00977 -63.6836 -22.0029 -85.75 -35.7002l-7.73047 -4.79004h-354.52c-17.6641 0 -32 -14.3359 -32 -32v-96c0 -17.6641 14.3359 -32 32 -32h354.52l7.74023 -4.79004c22.0645 -13.6973 60.4756 -29.6904 85.7402 -35.7002zM608 64v256h-32
c-8.8623 -0.00488281 -23.1982 -0.84668 -32 -1.87988v-252.24c8.80176 -1.0332 23.1377 -1.875 32 -1.87988h32z" />
    <glyph glyph-name="flute" unicode="&#xf8b9;" horiz-adv-x="640" 
d="M512 168c-13.248 0 -24 10.752 -24 24s10.752 24 24 24s24 -10.752 24 -24s-10.752 -24 -24 -24zM320 168c-13.248 0 -24 10.752 -24 24s10.752 24 24 24s24 -10.752 24 -24s-10.752 -24 -24 -24zM416 168c-13.248 0 -24 10.752 -24 24s10.752 24 24 24
s24 -10.752 24 -24s-10.752 -24 -24 -24zM608 288c17.6641 0 32 -14.3359 32 -32v-128c0 -17.6641 -14.3359 -32 -32 -32h-576c-17.6641 0 -32 14.3359 -32 32v128c0 17.6641 14.3359 32 32 32h576zM112 128v128h-80v-128h80zM608 128v128h-464v-128h464z" />
    <glyph glyph-name="game-console-handheld" unicode="&#xf8bb;" horiz-adv-x="384" 
d="M232 112c13.248 0 24 -10.752 24 -24s-10.752 -24 -24 -24s-24 10.752 -24 24s10.752 24 24 24zM272 136c0 13.248 10.752 24 24 24s24 -10.752 24 -24s-10.752 -24 -24 -24s-24 10.752 -24 24zM352 448c17.6641 0 32 -14.3359 32 -32v-384
c0 -52.9922 -43.0078 -96 -96 -96h-256c-17.6641 0 -32 14.3359 -32 32v448c0 17.6641 14.3359 32 32 32h320zM352 32v384h-320v-448h256c35.2891 0.0380859 63.9619 28.7109 64 64zM112 224c-8.83203 0 -16 7.16797 -16 16v128c0 8.83203 7.16797 16 16 16h160
c8.83203 0 16 -7.16797 16 -16v-112c0 -17.6641 -14.3359 -32 -32 -32h-144zM128 352v-96h128v96h-128zM72 96c-4.41602 0 -8 3.58398 -8 8v16c0 4.41602 3.58398 8 8 8h24v24c0 4.41602 3.58398 8 8 8h16c4.41602 0 8 -3.58398 8 -8v-24h24c4.41602 0 8 -3.58398 8 -8v-16
c0 -4.41602 -3.58398 -8 -8 -8h-24v-24c0 -4.41602 -3.58398 -8 -8 -8h-16c-4.41602 0 -8 3.58398 -8 8v24h-24z" />
    <glyph glyph-name="gamepad-alt" unicode="&#xf8bc;" horiz-adv-x="640" 
d="M638.59 79.7803c10.3105 -58.5107 -37.3896 -111.78 -100.1 -111.78c-49.6699 0 -93.7705 30.0703 -109.49 74.6396l-7.49023 21.3604h-203l-7.51953 -21.3604c-15.71 -44.5693 -59.8105 -74.6396 -109.48 -74.6396c-62.71 0 -110.41 53.2695 -100.1 111.78
l33.3701 211.59c8.85938 50.2695 48.3896 90.7695 100.71 103.13c50.2314 11.8564 132.888 21.4795 184.5 21.4795s134.268 -9.62305 184.5 -21.4795h0.0693359c52.2607 -12.3604 91.8008 -52.8701 100.66 -103.13zM593.48 24.9004
c11.8799 14.1592 16.71 31.6797 13.5996 49.3193l-33.4697 212.15c-6.55078 37.1396 -36.5801 67.5801 -76.4199 77c-48.2412 11.3906 -127.623 20.6348 -177.19 20.6348s-128.949 -9.24414 -177.19 -20.6348c-39.8096 -9.42969 -69.8691 -39.8701 -76.5293 -77.5703
l-33.2803 -211c-0.543945 -2.96094 -0.984375 -7.80859 -0.984375 -10.8193c0 -12.2705 6.49316 -29.7783 14.4941 -39.0801c13.29 -15.8203 33.3398 -24.9004 55 -24.9004c36.2002 0 68.0703 21.4102 79.29 53.2695l7.53027 21.3604l7.53027 21.3701h248.279
l7.52051 -21.3701l7.53027 -21.3604c11.2197 -31.8594 43.0898 -53.2695 79.29 -53.2695c21.6699 0 41.7197 9.08008 55 24.9004zM254.18 243.64c5.39941 -0.0214844 9.79883 -4.4209 9.82031 -9.81934v-19.6406c-0.0214844 -5.39844 -4.4209 -9.79785 -9.82031 -9.81934
h-42.54v-42.54c-0.0214844 -5.39941 -4.4209 -9.79883 -9.81934 -9.82031h-19.6406c-5.39844 0.0214844 -9.79785 4.4209 -9.81934 9.82031v42.54h-42.54c-5.39941 0.0214844 -9.79883 4.4209 -9.82031 9.81934v19.6406c0.0214844 5.39844 4.4209 9.79785 9.82031 9.81934
h42.54v42.54c0.0214844 5.39941 4.4209 9.79883 9.81934 9.82031h19.6406c5.39844 -0.0214844 9.79785 -4.4209 9.81934 -9.82031v-42.54h42.54zM416 224c17.6641 0 32 -14.3359 32 -32s-14.3359 -32 -32 -32s-32 14.3359 -32 32s14.3359 32 32 32zM480 288
c17.6641 0 32 -14.3359 32 -32s-14.3359 -32 -32 -32s-32 14.3359 -32 32s14.3359 32 32 32z" />
    <glyph glyph-name="gramophone" unicode="&#xf8bd;" horiz-adv-x="384" 
d="M45.5098 133.88c-7.49023 5.27734 -13.5693 16.9971 -13.5693 26.1592c0 2.31348 0.483398 6.00586 1.0791 8.24121l68.5908 256c3.18945 11.8965 15.7334 22.46 28 23.5801c0.791016 0.0771484 2.0791 0.139648 2.87402 0.139648h0.125977
c11.1152 -0.00585938 24.0352 -8.14648 28.8398 -18.1699c31.2695 -65.25 70.5498 -117.04 116.68 -153.92c78.4805 -62.7197 96.5801 -72.8506 88.7598 -118.51c-6.20996 -36.2002 -39.75 -61.4004 -76.4795 -61.4004h-130.41c0 17.6641 14.3359 32 32 32h104
c22.0801 0 40 17.9199 40 40c0 51.0898 -74.4697 40.7803 -75.9199 40.5996c-58.4199 -8.85938 -118.311 -34.1299 -178 -75c-4.5127 -3.09082 -12.6143 -5.59961 -18.084 -5.59961c-5.61816 0 -13.9004 2.63477 -18.4863 5.87988zM132.57 416l-68.5703 -256
c63.7002 43.6201 128.06 70.5996 191.29 80.21c4.86035 0.700195 9.59961 1.2998 14.1797 1.7002l-11.3193 9c-49.9502 39.9199 -92.1504 95.46 -125.58 165.09zM376 -32c4.41602 0 8 -3.58398 8 -8v-16c0 -4.41602 -3.58398 -8 -8 -8h-368c-4.41602 0 -8 3.58398 -8 8v16
c0 4.41602 3.58398 8 8 8h24v64c0 17.6641 14.3359 32 32 32h256c17.6641 0 32 -14.3359 32 -32v-64h24zM320 -32v64h-256v-64h256z" />
    </font>
</defs>
</svg>
